<?xml version="1.0" encoding="UTF-8"?>
<svg id="Camada_1" xmlns="http://www.w3.org/2000/svg" version="1.1" viewBox="0 0 595.28 841.89">
  <!-- Generator: Adobe Illustrator 29.0.0, SVG Export Plug-In . SVG Version: 2.1.0 Build 186)  -->
  <path d="M.14.6h594.35s0,841.34,0,841.34H.14V.6ZM591.21,3.88H3.41v573.35c20.85-10.71,43.42-18.15,66.8-21-.19-2.12.58-4.1.72-6.16.35-5.2.73-18.21-.06-22.93-.34-2-2.68-4.67-3.56-6.92-6.7-17.27,7.34-26.28,4.87-39.6-.69-3.7-7.53-7.37-10.14-10.17-7.69-8.28-10.22-19.56-6.71-30.33,3.32-10.18,11.27-15,18.19-22.44v-16.71c-21.33,4.5-40.06-6.52-35.67-30.13-19.94-11.67-23.33-41.67-2.29-54.2-6.52-34.49,36.47-54.76,63.2-36.43,23.68-23.53,72.12-23.06,80.24,14.95,24.35-.66,38.72,22.1,31.5,44.55-1.28,3.98-3.45,7.13-5.26,10.79,9.37,1.15,18.99-1.37,28.49-.64,25.11,1.92,48.39,26.42,46.23,52.11-.29,3.49-2.86,9.39-2.03,12.38.18.64,1.33.14,2.05.8,5.07,4.71,2.57,14.95-2.35,19.21-2.66,2.3-9,3.71-9.34,4.1-.37.42-1.36,5.34-2,6.84-3.44,8.09-9.8,13.6-16.49,18.89,32.64,15.96,28.91,56.09,32.09,86.82l37.67-.68c2.2.15,5.64-7.2,4.93-7.84-4.47.35-9.08-2.16-12.46-4.91-2.17-1.77-4.53-5.66-6.3-6.8-2.71-1.74-8.57-1.97-11.85-3.22-2.03-.78-9.51-5.44-10.69-7.01-2.73-3.63-.11-5.52-.78-9.02-.44-2.3-3.04-4.99-3.93-7.24-3.82-9.7-.93-25.33,11.93-25.36-1.09-2-2.63-3.61-1.88-6.13.62-1.8,5.04-1.38,6.31-2.55,2.71-2.51,6.5-23.72,7.26-28.45,6.64-41.22,3.39-85.75,52.54-99.49,31.15-8.71,69.4-.28,86.37,28.96,10.88,18.75,8.18,35.82,9.97,56.22,2.84,32.48,22.95,70.6-13.98,91.53-1.88,1.06-4.7,1.34-6.38,2.79-1.78,1.53-3.81,6.98-5.58,9.49-.92,1.31-6.6,7.08-6.64,7.58,2.82,6.61,7.73,12.55,8.39,19.94,45.3,4.29,91.24,13.96,132.75,32.71,5.08,2.29,9.51,5.04,14.15,7.5,5.79,3.07,11.64,6.1,17.52,8.99V3.88ZM147.58,409.48v-16.71c0-5.11,5.78-11.81,7.2-16.71-2.47.39-3.95,2.43-6.51,2.98-3.18.68-13.86-.33-17.08-1.34-19.72-6.14-15.94-45.63,8.88-33.9,3.08-8.01,20.16-15.32,12.1-.51,8.1.82,12.86,5.89,13.14,14.08.09,2.62-.93,5.01-.36,7.55,6.89-5.75,13.83-9.78,22.6-12.12,10.15-2.72,13.92.05,18.67-11.47,4.38-10.63,3.53-23.62-3.91-32.76-6.13-7.53-17.07-11.21-26.54-9.16-3.33-31.8-38.67-39.56-63.37-25.03-2.92,1.72-11.6,9.67-13.69,9.96-2.67.38-2.89-1.53-4.64-2.52-15.68-8.91-37.31-5.45-48.7,8.76-6.61,8.25-7.94,17.85-5.99,28.05-21.97,11.05-18.13,41.17,3.05,50.21-9.29,32.73,25.45,34.93,45.75,21.09,2.98,2.13,2.9,6.35,5.37,9.05,4.25,4.63,6.23-1.26,5.38-5.38-1.64-7.88-20.54-23.28-25.52-32.13-10.4-18.48-11.58-52.6,8.43-65.2,30.51-19.22,59.58,25.69,23.94,37.05-2.18.7-8.4,1.39-9.36,2.44-9.37,28.73,34.63,39.13,26.92,67.86,4.78-.76,13.1-13.09,17.27-11.74,2.67.86.26,13.62-.24,16.33l7.21,1.31ZM84.01,331.5c-.38-.46.09-2.34,1.03-2.54,5.77.8,10.2,3.17,16.16,2.37,24.36-3.24,21.17-33.94-1.21-36.45-18.13-2.03-29.21,16.42-30.43,32.34-.24,3.21-.03,18.34,2.78,19.58,8.26,1.97,22.35-2.59,19.53-13.01-1.03-.64-7.62-1.97-7.88-2.28ZM150.85,338.72c-3.09-.38-5.24,3.22-5.89,5.89l5.89-5.89ZM426.5,358.6c-21.28-19.45-60.72-21.28-85.39-7.55-33.46,18.62-29.3,57.52-35.14,90.02-.83,4.6-8.01,31.04-7.35,32.59.08.2,2.39,3.16,2.61,3.34,2.11,1.72,3.29-2.87,4.66-4.55,7.89-9.62,18.93.22,8.8,8.13l6.14,2.9c6.08-9.85,14.17-17.15,23.97-23.21-20.38-9.73-24.84-27.23-23.57-48.48.14-2.27,1.92-8.49,1.7-9.87-.18-1.12-2.64-1.53-1.38-4.21,4.68-9.99,35.48-10.32,44.85-18.73,2.05-1.84,2.53-5.1,5.52-5.42,2.03.39,5.44,7.82,7.28,9.75,3.7,3.88,13.85,9.8,18.91,11.89,8.44,3.49,22.03,3.88,22.73,15.61,14.98-8.18,25.11,10.36,15.34,21.57-3.83,4.4-6.58,3.15-11.2,4.52s-9.54,12.25-13.32,16.17c-1.45,1.5-3.17,1.99-4.17,2.9-.51.46-.66,1.1-.41,1.36,8.16,3.08,15.57,6.96,20.58,14.48,8.94,13.41,7.62,30.02,4.98,45.16,3.56-1.87,7.34-3.66,10.48-6.22,22.07-17.95,7.84-50.75,5.24-74.06-3.22-28.9,2.13-56.14-21.86-78.06ZM139.49,347.46c-4.63-3.93-11.37-3.93-15.19,1.07-6.4,8.37.45,26.41,11.82,26.28,1.82-.02,3.82-1.4,4.48-1.27,1.84.36,1.87,3.42,7.02,2.24,3.65-.84,10.63-7.27,12.29-10.65,6.62-13.47-5.31-25.04-16.68-14.01-1.49.27-2.86-2.91-3.74-3.66ZM92.53,346.58c-6.65,2.23-12.42,4.47-19.66,4.27-.32,4.89,12.13,21.29,16.44,24.19,3.58,2.41,6.67,1.77,10.47.08,8.74-3.89,2.6-6.52-.58-11.28-3.36-5.04-7.07-11.01-6.67-17.25ZM251.52,358.62c-15.39-8.99-56.39-6.96-71.68,1.03-22.17,11.59-34.61,32.39-26.28,57.61,2.3-1.21,9.64,2.01,10.42,1.72,3.66-1.38,11.96-19.62,13.43-19.98,2.1.36,3.65,3.98,5.37,4.48,4.25,1.23,11.32-5.01,13.96-8.06,1.36-1.58,5.2-8.24,6.2-8.24.71,0,5.83,5.52,7.75,6.71,3.86,2.4,18.24,7.47,21.78,4.46,1.89-1.61-2.08-9.4,1.28-9.23,2.64.13,11.75,6.65,15.7,7.94,5.25,1.72,11.71.44,15.61,2.08,2.85,1.2,4.14,11.27,4.43,14.25,3.82.83,5.22-2.23,5.97-5.45,4.61-19.77-7.14-39.5-23.93-49.32ZM103.86,398.15c3.45,3.49,16.21.32,16.84-4.79.69-5.65-8.1-16.2-12.8-19.3-4.45,2.03-7.52,6.37-13.4,5.28-1.05.99,6.03,9.41,6.81,11.2.89,2.02,1.1,6.16,2.54,7.61ZM372.9,379.42c-1.41-.83-8.19,4.69-10.18,5.69-10.94,5.51-24.17,5.01-34.78,11.42-2.29,2.45-3.16,27.21-2.77,31.61,3.34,37.58,63.47,44.79,85.81,20.31,2.54-2.79,9.18-14.92,11.5-15.37,1.93-.37,4.24.27,6.39-.16,8.23-1.65,11.37-19.2.63-20.69-4.19-.58-5.05,2.55-7.99,3.52-3.32,1.09-2.49-2.72-3.45-5.14-3.76-9.53-12.27-8.74-20.61-12.15-9-3.68-19.7-10.49-24.55-19.03ZM263.48,402.36c-4.49.2-8.33-.4-12.64-1.45-2.8-.68-12.42-5.2-13.19-5.2-2.68.02-.52,4.15-2.95,5.54-4.98,2.86-16.12-.05-21.26-2.26-3.88-1.67-6.7-4.24-10.43-5.94-4.99,7.67-14.83,17.54-24.64,12.12-3.03,3.4-9.46,16.07-13.3,17.6-3.05,1.22-5.75-3.17-10.31-1.85-8.96,2.59-3.59,17.52,4.46,19.84,2.21.64,6.45.41,8.22,1.45.75.44,4.19,6.95,5.42,8.5,19.55,24.63,76.32,24.75,89.71-6.51,5.45-12.72,4.38-28.7.91-41.84ZM76.81,414.72c6.01-2.19,11.45-6.88,17.03-10.2l-6.86-9.95-10.17,3.77v16.38ZM76.15,486.14c4.18-2.16,7.77-5.16,11.9-7.43,6.22-3.44,23.49-10.08,26.8-15.8,2.44-4.23.86-15.1,1.26-20.37,1.29-17.19,17.5-23.71,21.46-38.17.61-2.24,1.84-5.53-.14-7.33-3.77,5.27-11.67,7.47-16.02,11.49-2.68,2.48-4.5,7.02-7.22,9.82-8.69,8.95-38.03,23.45-38.03,37.32v30.47ZM86.09,414.16c-3.44,5.43,12,10.35,17.41,8.58,6.53-2.13,16.07-16.04,16.55-23.09-6.33,3.25-11.89,4.51-18.57,1.36-3.59,5.31-7.76,8.45-12.93,12.04-.65.45-2.37.95-2.47,1.11ZM124.08,550.92c2.89-.49,16.79,2.46,17.97.79.85-1.2.09-19.89.26-23.33,1.09-22.69,6.29-49.43,28.19-60.92,3.41-1.79,7.16-2.65,10.48-4.57-2.92-2.57-6.27-4.55-8.84-7.53-1.98-2.29-5.08-8.65-7.17-9.87-2.22-1.29-6.6-1.26-9.33-2.47-6.83-3.02-11.16-12.66-8.23-19.61,1.32-3.12,5.36-2.82,2.29-8.52-1.15-2.14-10.72-4.12-12.27-2.78-5.61,10.47-18.41,21.19-18.7,33.78-.19,8.09,3.05,6.53,7.83,10.5,7.3,6.07,9.07,14.87,4.28,23.17-2.74,4.73-7.56,6.4-10.14,10.89l3.39,60.48ZM97.12,425.87c-6.45-.12-12.51-3.87-16.04-9.15-.89-.08-12.46,9.86-13.87,11.34-.48.5-3.09,3.5-3.19,3.72-2.15,4.59,8.87,13.13,13.64,10.99l19.46-16.89ZM270.12,416.69v14.74c0,.48-1.92,3.27.33,2.96,8.95-1.25,13.81-20.79-.33-17.7ZM72.87,473.69v-19.33c0-.96,3.83-7.7,3.27-8.19-2.53.12-5.34-.72-7.55-1.95-2.53-1.41-5.79-5.99-7.2-6.57-1.1-.46-.89.44-1.12.83-4.8,8.05-3.64,17.5,1.3,25.2,1,1.55,9.41,11.99,11.29,10ZM119.4,457.31c1.63,10.45-10.12,12.63-15.66,18.81,12.17,27.63,41.6-10.2,15.66-18.81ZM336.3,541.84c-.22,1.12.58,1.64,1.29,2.31,9.45,8.84,50.47,4.4,62.78.49,35.71-11.34,44.67-71.24,6.69-84.37-6.04-2.09-7.42.99-12.95,2.75-9.02,2.86-21.9,4.24-31.22,2.75-3.78-.6-10.11-3.51-13.64-3.1-6.39.73-23.79,16.26-24.64,22.66-.3,2.28,1.58,4.44,1.85,7.03.64,6.19-3.37,11.52,3.61,16.04,2.42-.02,5.09-23.3,10.48-24.24,1.16-.11,1.01-.03,1.01,1,0,3.32-2.38,6.17-2.64,9.49,9.45-4.24,18.91-1.23,25.97,5.84,11.06-6.81,24.23-11.59,36.27-3.87.44-2.46-.12-8.1,3.95-6.18,1.02,8.08-3.54,23.88-9.18,29.91-7.1,7.61-30.9,10.59-40.95,9.67-6.75-.61-12.28-3.43-19.68-2.61-1.46.16-4.67.84-2.02,2.03,2,.9,12.47,3.22,12.84,4.86.95,4.25-12.61-2.1-13.76-.99-.06,6.46,8.32,4.2,11.79,7.54.72,3.14-6.87.11-7.86.98ZM267.49,563.79c.35,2.97-.26,6.47,0,9.5,3.2-.29,2.99-4.72,4.41-7.04.49-.79.43-1.4,1.8-.82,3.17,1.34-2.38,10.6-3.6,12.44,5.71-.09,8.04-6.67,8.51-11.47,1.7-17.25-2.8-64.63-10.56-79.85-4.68-9.18-12.76-16.25-22.13-20.39-15.43,6.14-31.8,7.32-48.03,3.4-9.4-2.27-10.37-5.47-21.01-1.61-34.77,12.59-34.78,74.47-29.12,104.16.64,3.34,1.44,9.89,5.04,11,1.32-1.5-6.25-14,0-14.41.87.63,3.99,19.85,7.21,16.38,1-4.64-4.26-10.94-.32-14.4,3.06,1.21,3.35,13.77,6.54,13.09,3.1-2.7-1.44-14.47-.04-16.42,3.16-4.41,5.96,6.12,8.89,5.94.45-7.46-3.96-14.02-5.46-21.07-1.98-9.28-.23-37.99,1.73-47.87.41-2.08.41-4.29,3.09-3.79l-1.96,41.28c12.52-3.02,25.84-3.38,38.18.81,1.9.64,5.09,3.02,6.69,3.06,1.91.04,7.07-2.86,9.5-3.55,10.23-2.92,21.75-3.04,32.12-.97-1.16-8.59-.21-17.28-.63-25.9-.12-2.58-1.14-5.32-1.32-7.85-.13-1.82-.81-7.83,2.27-6.86,1.05.33,1.35,4.98,1.55,6.31,2.06,13.34-.18,26.37,1.48,39.15.73,5.62,4.51,12.22,5.17,17.76ZM315.33,472.38c-6.42-1.66-8.67,5.39-10.47,10.16,3.97-2.71,10.53-4.34,10.47-10.16ZM299.6,481.56c.16-2.64-1.61-4.39-3.92-5.24-.75.89,2.75,4.89,3.92,5.24ZM86.5,506.32c.29-.17,3.16-4.09,4.37-5.12,6.13-5.23,13.15-8.07,19.99-12.11-5.25-2.98-9.04-6.45-11.45-12.1-6.91,2.83-26.42,12.56-25.87,21.24.28,4.45,10.21,9.7,12.95,8.1ZM287.62,482.35c-7.69,1.75-8.34,16.1-5.83,21.94,2.22,5.16,6.21,2.91,11.04,4.04,4.82,1.12,9.46,4.64,14.98,4.74,14.18.26,23.59-30.92,2.67-28.16-4.07.54-5.08,3.26-8.59,4.51-4.89-3.28-7.22-8.65-14.26-7.06ZM84.01,517.92c-.53,3.16,0,8.91,0,12.45,0,3.04-8.94-.56-9.83.32-.78,16.13,1.98,34.4-2.81,49.94-2.2,7.14-6.92,13.36-11.93,18.87-.95,1.04-6.94,5.76-6.23,6.54,7.44,1.93,15.36,1.67,22.93.66-2.68-7.63-7.8-23.68,5.5-23.51,6,.07,9.17,4.24,14.16,5.82-.44-6.23,1.29-13.42,8.86-13.16,11,.38,15.23,21.56,16.05,30.2h16.38c-2.82-4.47-6.65-7.2-9.28-12.01-11.96-21.83-7.55-67.25-9.04-92.53-.2-3.49-1.31-7.25-1.34-10.79-.82-.87-11.52,4.67-13.12,5.56-7.36,4.13-18.82,12.78-20.3,21.64ZM385.3,495.5c-7.24.79-15.45,8.14-19.91,8.31-3.03.11-8.66-6.59-13.33-7.55-14.14-2.9-19.74,9.43-18.39,21.66.39,3.53,1.22,5.64,4.98,6.16,15.86,2.2,36.82,5.54,51.18-3.74,12.19-7.88,16.1-27.09-4.53-24.84ZM71.55,501.87l-1.3.41c-2.39,9.79-1.15,22.17,9.82,25.8-.77-6.5,1.54-12.27,3.28-18.34-4.29-.94-10.02-3.82-11.81-7.86ZM331.58,524.67c1.06-1.76-5.06-17.49-7.52-18.14-.93-.36-1.22.06-1.83.59-1.93,1.7-3.74,5.08-6.28,6.82-9.7,6.65-19.85-2.03-29.44-3.56-1.67,1.65,10.09,10.05,6.87,10.48l-5.9-1.96c3.68,7.23,14.77,5.58,20.23,8.59,2.73,1.51,3.99,5.7,7.03,8.04,2.3,1.77,11.83,6.27,13.75,3.23,2.25-3.56-2.09-9.11,1.25-13.03.49-.57,1.67-.79,1.84-1.07ZM331.7,541.19c-1.12-.79-3.82,4.04-4.45,5.04-8.31,13.27-11.41,30.04-13.23,45.41,8.67-.27,22.38-4.08,28.44-10.54,2.06-2.2,3.83-8.58,7.19-7.85,2.4,3.67,2.63,8.25,4.32,12.19,1.86,4.31,11.16,16.91,15.72,17.75,5.69,1.05,17.31-13.36,19.93-18.18.63-1.16,3.01-7.74,3.42-7.83,2.88-.62,5.9,4.99,8.12,6.93,6.41,5.62,16.53,9.03,24.87,10.13,3.51-17.98-1.38-36.48-9.85-52.35-.72-.52-11.05,4.68-13.19,5.38-16.03,5.29-34,3.62-50.67,5.73-7.95-1.24-16.79-4.32-20.63-11.81ZM261.55,606c2.56-1.77,3.02-32.94,2.66-37.61-.33-4.33-1.81-11.07-3.08-15.27-2.05-6.78-2.63-9.23-10.35-9.96-2.71-.26-25.25.59-25.2,3.59,4.3,4.24,9.39,9.37,11.9,14.95.74,1.64,3.56,8.36.21,8.34-2.57-.01-5.07-9.86-6.61-12.42-7.03-11.7-15.56-10.01-21.14,1.67-.9,1.88-2.53,8.08-3.03,8.76-.98,1.33-3.3.98-3.64-1.01-1.15-6.8,10.84-17.3,10.46-18.92-12.01-7.4-28.02-6.5-41.17-2.29-1.93,7.57,9.31,22.34,5.44,28.71-1.94,3.18-4.66,2.03-7.47.71-.42.57,2.1,7.68-.62,10.69-.84.92-2.64.44-3.19,2.22-.74,2.36.14,13.8.53,16.91.33,2.61.45,4.52,3.43,4.14,4.57-.59,17.05-7.78,21.61-10.42.45-.26.53-.72.57-1.19l1.24-.06,7.55,13.09c4.66,3.86,15.23-7.41,17.61-11.21.76-1.21,3.57-8.39,4.03-8.47,2.97-.52,7.35,9.94,9.78,12.5,1.97,2.07,8.2,6.82,11.02,6.41,4.52-.65,4.78-10.41,8-10.39,2.22.01,6.77,8.38,9.45,6.52ZM318.61,553.63h-35.71c-.22,0-1,.87-1.64.66v18.67c0,2.77-9.38,10.27-13.05,8.9-1.3,5.06.35,26.17-5.76,27.99-1.92.57-3.61-.16-5.43-.52l-2.62,30.47c.08,3.84-.67,8.09,1.59,11.5,3.95,5.92,23.22,12.36,17.67,22.19-6.41,11.36-34.59,4.05-44.51.07,2.85,9.05-8.52,11.21-15.08,11.77-12.21,1.05-24.1-.94-34.59-7.32-3.24-1.97-7.66-5.03-7.66-9.37v-56.68l-6.11.68c-3.14-.78-2.04-21.27-2.42-24.91-3.79-.5-10.22-.28-13.59-1.76-4.47-1.96-7.22-24.61-7.37-29.7-3.64.85-17.49-4.84-18.87-.19-.6,2,.89,14.52,1.35,17.38.91,5.61,2.63,12.58,5.38,17.55,2.08,3.76,9.83,10.83,10.54,13.06.45,1.41-.06,5.27-1.36,5.27h-18.68l.07,7.8c22,3.34,28.93,36.3,11.4,49.21-2.16,1.59-8.02,3.35-8.71,5.71s.02,6.95-.13,9.69c-.09,1.62-1.27,3.34-1.16,4.49.21,2.05,3.51,3.6,4.14,5.63,1.63,5.27-.41,9.13-4.93,11.53-4.93,2.62-12.89,5.82-18.38,4.57-4.72-1.07-6.29-6.29-10.15-6.3-4.7-.02-3.53,4.52-6.26,6.27-5.62,3.59-24.41.54-30.57-2.14-2.33-1.01-5.12-3.93-6.72-4.42-5.03-1.56-9.3,1.83-13.79-3.9-5.68-7.24-2.49-18.47,7.78-17.44,2.55-17.69,19.02-27.1,35.47-29.41-2.87-11.71,1.81-22.64,10.47-30.46l-10.93-10.71c-4.83.87-26.67,2.88-28.27-2.54-1.22-4.12,9.05-12.29,11.67-15.6,6.7-8.47,8.76-20.6,8.25-31.14-.46-.67-1.24-.65-1.97-.65-2.87.02-9.77,1.54-12.95,2.19-17.72,3.63-35.46,11.24-51.63,19.14v257.84h587.79v-225.73c-4.13-2.67-8.37-5.24-12.67-7.65-11.15-6.25-22.36-12.04-34.35-16.76-37.02-14.58-76.62-22.16-116.15-26.37,1.82,9.17,3.01,21.09,1.89,30.39-1.06,8.81-7.08,3.43-13.03,3.68l-3.93,67.82c-1.7,12.89-26.62,20.44-37.68,19.97-10.43-.44-27.2-3.37-15.07-16.36-11.07,7.91-32.57,15.74-45.24,8.52-14.54-8.29,7.3-19,12.62-25.42,3.39-19.35-.17-38.94.82-58.47-4.18.91-12.63,4.49-16.61,3.18-1.68-.55-1.18-7.02-1.06-8.74.78-11.42,5.24-22.11,7.85-33.1ZM102.83,579.32c-4.45,1.34-4.38,10.41-3.13,14,3.72,4.09,8.03,21.45,12.98,22.45,1.84.37,4.37-.1,4.76-2.18,1.03-5.58-.8-14.88-2.61-20.32-1.52-4.58-5.74-15.84-11.99-13.95ZM348.08,581.16l-15.59,10.28c-2.47,16.56,1.49,33.75.56,50.36-.12,2.11-.4,6.53-.82,8.35-1.21,5.25-13.15,10.84-16.88,15.88-.75,1.01-3.33,4.02-1.34,4.89.29-2.41,2.09-4.38,4.59-4.58,1.59,2.65-2.61,5.22-.32,7.19,1.97-1.82,6.48-7.57,9.52-5.58,2.52,1.65-5.12,5.76-5.6,6.9-.76,1.79,2.81,1.35,4.1.81,2.71-1.13,3.2-4.83,7.03-4.77,3.06.05-1.25,3.84-1.62,4.61,1.92,1.5,23.19-7.26,26.03-9.6,4.28-3.52,2.48-14.93,2.77-20.23.76-13.94,1.92-27.88,1.95-41.87-.5-2.98-7.3-8.96-9.41-12.21-2.05-3.17-3.41-7.01-4.98-10.43ZM413.53,594.35c-7.19-2.09-13.01-6.35-18.51-11.2-3.32,3.68-5.15,8.21-8.28,12.07s-6.7,4.96-7.22,10.48c-1.44,15.38,3.13,32.76.52,48.36-1.53,9.18-14.01,11.2-18.73,18.62-.36.56-1.39,1.73-.44,2.18,1.69-.51,7.03-5.12,8.18-2.29.98,2.4-4.64,2.72-5.59,4.23-1.28,2.04,1.11,3.19,2.9,2.56.47-2.38,3.01-5.39,5.64-5.16,1.82,1.61-2.72,5.3-2.28,5.9l3.86.59c-.55-3.25,8.61-7.76,6.53-2.98-.58,1.34-2.81,1.18-2.52,3.05,8-.64,26.95-5.36,30.68-12.89,3.53-7.12,1.6-22.41,2.05-30.71.77-14.27,3.13-28.48,3.21-42.8ZM79.89,586.54c-6,1.36-2.94,10.95-1.44,14.92,3.05,8.08,9.93,12.73,15.43,18.67-3.92,5.37-10.16,9.73-11.55,16.68-7.88,39.48,60.97,45.55,55.88,3.83-1.93-15.8-15.56-21.83-29.97-22.45-2.76-5.53-5.2-11.2-8.4-16.5-3.98-6.6-10.86-17.2-19.96-15.14ZM225.55,597.53c-.85-.14-.84-.17-1.36.41s-3.21,4.59-3.64,5.39c-2.25,4.18-1.5,7.64-1.54,12.21,1.57,16.44-.27,33.21,1.92,49.68,9.87,7.02,22.9,9.79,34.77,11.59l-2.57-3.03c2.02-5.42,5.91,3.37,9.78,2.07,1.77-.6.22-.82-.16-1.16-.43-.39-9.32-6.81-3.43-6.13,2.88.33,5.45,5.47,8.82,4.98,1.2-1.04-4.96-3.8-4.58-5.55.6-2.78,6.13,1.39,6.55.97-1.79-7.95-17.33-11.45-18.85-18.82l1.81-44.73c-3.27,1.87-3.31,7.98-7.59,8.5-5.8.71-19.32-9.99-19.93-16.37ZM207.2,613.92c-7.51,5.19-11.83-10.38-14.72-10.47-1.14-.03-16.63,7.61-17.06,8.5l.47,58.51c1.73,5.91,25.67,13.51,31.97,12.25.24-.17-4.06-4.88-1.62-5.24,2.17-.32,6.18,6.59,10.14,4.59.58-3.51-5.13-2.96-5.24-6.55,1.83-.16,3.58.23,5.24.97,2.24,1,2.93,3.22,5.23,3.61.44-3.28-2.59-3.74-4.26-5.89,2.62-4.13,6.77,1.7,8.85,3.93-1-10.02-13.85-12.73-19.37-19.62l.36-44.6ZM362.52,666.34c3.45-3.22,10.67-6.22,13-10.25,4.39-7.61,1.14-25.69.73-34.6-.26-5.55.25-11.19.02-16.74-3.43,2.15-6.61,2.35-10.47,1.31-.49,10.16-1.04,20.27-1.32,30.46-.03,1.25-.65,2.52-.67,3.91-.12,8.71,1.97,17.62-1.28,25.91ZM217.03,661.75l-2.28-52.42c-6.13,4.01-3.82,8.63-4.27,14.73-.71,9.6-2.39,19.83-1.3,29.49.57,5.03,3.76,6.28,7.86,8.19ZM119.07,672.23c-4.15.03-8.3,0-12.45,0-5.02,0-14.45-4.59-18.36-7.85-2.77-2.31-7.54-9.73-10.46-9.9-1.89-.11-6.67,1.24-8.7,1.85-10.2,3.1-20.75,12.59-22.27,23.6-3.42,24.84,19.45,27.77,38.5,25.05.64-4.77-5.11-4.86-8.52-5.9,7.37-13.2,1.13-22.27-13.77-20.96-.72-2.78,1.09-3.23,3.64-3.29,7.23-.19,16.61,4.98,17.3,12.88.28,3.19-1.77,5.87-1.81,7.91-.07,3.17,9.18,5.05,11.71,3.16,1.01-.64-.04-1.15-.04-1.33v-10.16c.72.12,2.12-.26,2.54.08,1.21.98.13,15.33,6.6,17.31,3.09.95,8.96.61,10.2-2.91.88-4.08-8.58-10-4.59-14.47,4.25,3.59,6.53,8.3,8.17,13.48,5.33-.27,9.69-3.8,5.57-8.88-1.21-1.49-3.19-1.62-3.58-3.66-.8-4.23,3.37-9.98,1.89-15.62-.43-1.62-1.4-.41-1.56-.41ZM42.73,683.38c-12.07,1.77-5.82,16.36,3.94,15.06-2.19-4.69-3.94-9.8-3.94-15.06Z"/>
  <polygon points=".14 .6 .14 -.06 595.14 -.06 595.14 841.94 594.48 841.94 594.49 .6 .14 .6" fill="#fff"/>
  <path d="M591.21,3.88v604.14c-5.88-2.89-11.73-5.92-17.52-8.99-4.64-2.46-9.08-5.21-14.15-7.5-41.51-18.75-87.45-28.42-132.75-32.71-.66-7.39-5.57-13.33-8.39-19.94.04-.5,5.72-6.27,6.64-7.58,1.77-2.51,3.8-7.96,5.58-9.49s4.51-1.73,6.38-2.79c36.93-20.93,16.82-59.05,13.98-91.53-1.78-20.4.92-37.47-9.97-56.22-16.97-29.24-55.22-37.67-86.37-28.96-49.15,13.74-45.89,58.27-52.54,99.49-.76,4.73-4.54,25.94-7.26,28.45-1.27,1.17-5.69.75-6.31,2.55-.75,2.52.79,4.13,1.88,6.13-12.85.03-15.75,15.66-11.93,25.36.89,2.25,3.49,4.94,3.93,7.24.67,3.51-1.96,5.4.78,9.02,1.18,1.57,8.66,6.23,10.69,7.01,3.27,1.26,9.14,1.48,11.85,3.22,1.77,1.14,4.13,5.03,6.3,6.8,3.37,2.75,7.99,5.26,12.46,4.91.71.64-2.74,8-4.93,7.84l-37.67.68c-3.18-30.73.54-70.86-32.09-86.82,6.69-5.29,13.04-10.8,16.49-18.89.64-1.51,1.63-6.42,2-6.84.34-.39,6.68-1.8,9.34-4.1,4.92-4.26,7.41-14.51,2.35-19.21-.72-.67-1.87-.17-2.05-.8-.83-2.99,1.74-8.89,2.03-12.38,2.16-25.69-21.12-50.18-46.23-52.11-9.5-.73-19.12,1.79-28.49.64,1.81-3.66,3.98-6.8,5.26-10.79,7.21-22.45-7.15-45.22-31.5-44.55-8.11-38.02-56.56-38.49-80.24-14.95-26.73-18.34-69.72,1.94-63.2,36.43-21.04,12.53-17.65,42.53,2.29,54.2-4.39,23.61,14.34,34.63,35.67,30.13v16.71c-6.92,7.43-14.87,12.25-18.19,22.44-3.51,10.76-.98,22.05,6.71,30.33,2.6,2.8,9.45,6.48,10.14,10.17,2.47,13.32-11.58,22.33-4.87,39.6.88,2.26,3.22,4.92,3.56,6.92.79,4.71.41,17.73.06,22.93-.14,2.06-.91,4.04-.72,6.16-23.38,2.86-45.95,10.29-66.8,21V3.88h587.79ZM158.72,79.56c.49-2.28,0-7.73,0-10.48,0-.21-1.5-1.73-2.18-1.54-2.38,1.36-4.64,3.36-7.5,3.71-11.28,1.37-10.87-20.21-3.46-22.51,5.91-1.83,8.91,3.41,10.84,3.41.59,0,2.3-1.11,2.3-1.41v-11.14c-8.34-7.01-21.56-5.3-27.12,4.33-7.4,12.8-4.5,38.17,13.09,40.49,3.34.44,13.19-.96,14.03-4.86ZM174.94,35.5c-22.11,2.91-21.02,52.6,5.67,48.91,21.69-3,21.91-52.54-5.67-48.91ZM252.81,38.9c-4.79-3.68-11.06-4.47-16.78-2.59-19.1,6.28-16.59,54.62,10.85,47.54,16.32-4.21,17.41-36.14,5.93-44.95ZM444.26,35.5c-21.07,2.75-20.7,44.74-1.19,48.68,28.76,5.81,30.23-52.47,1.19-48.68ZM210.48,70.06v-32.44c-1.77-2.45-11.5-2.42-12.34.11l.33,44.63c.16.55.52.81,1.03,1.03,1.88.79,21.48.78,23.28-.05,3.24-1.48,2.78-10.69.48-13.28h-12.78ZM274.7,81.52c.65-3.9-.48-9.34,0-13.43,1.49-.2,1.69-.03,2.53,1.07,2.08,2.71,3.92,12.53,5.51,13.82,1.84,1.5,11.69,2.02,12.11-2.21.13-1.31-4.2-12.13-5.07-14.33-.5-1.26-2.39-3.98-2.5-4.71-.08-.58,2.85-4.41,3.15-7.07.81-7.1.16-15.39-7.72-17.83-2.86-.89-18-1.67-19.64-.03-.6.82-.71,1.8-.81,2.78-1.38,13.02.9,28.54.16,41.82.36,3.87,11.79,3.13,12.29.13ZM370.37,81.52c.85-5-.62-12.11,0-17.36l7.88,18.66c1.73,1.59,11.48,1.76,12.32-.75v-44.34c-.84-2.52-9.97-2.54-11.69-.11v18.02l-8.03-18.83c-1.3-1.24-11.14-1.72-12.28.81v41.61l-11.94-41.46c-1.29-2.52-11.92-2.9-13.53-.06l-10.57,38.9-.74-5.8-13.25-.84c-1.64-.54-1-3.08-1.07-4.49h12.12l.98-.98v-11.14l-.98-.98h-11.14c-.69,0-1.25-1.86-.98-2.62h12.12c3.15,0,2.81-11.07,1.22-13.16-1.13-.8-19.68-.95-22.22-.63-1.11.14-1.99.25-2.59,1.34l-.36,43.61c-.04,1.05.21,1.61,1.07,2.21,1.76,1.24,17.47.78,20.95.74s4.1-.23,7.83-.03c7.4.39,7.9.17,9.16-7.23l10.11-.57c.78,7.09,3.4,9.34,10.74,7.66,1.14-.26,2.34-1.65,2.76-1.65s1.62,1.39,2.76,1.65c2.19.51,8.9.58,9.36-2.16ZM394.62,37.62v44.56c4.74,2.95,15.19,1.76,20.6.29,14.46-3.94,15.9-27.04,9.16-37.91-3.79-6.11-8.68-8.01-15.68-8.56-2.4-.19-13.38-.67-14.08,1.63ZM160.03,150v-33.09c-1.66-2.55-11.54-2.53-12.32.13.67,6.02-1.55,42.59.46,45.14.63.79,1.41.83,2.33.95,6.03.76,24.73.69,30.78-.1.59-.08,1.92-.32,2.21-.73l1.51-7,9.84.32,2.53,7.17c3.62.12,11.28,2.27,11.01-3.11l-11.79-43.61c-.76-1.07-11.45-1.47-13.01.15l-9.77,34.18c-.45.33-.87-.4-1-.4h-12.78ZM236.04,148.69c17.23,3.15,22.61-18.34,13.37-29.43-4.32-5.18-15.77-4.67-22.26-4.03-1.34.13-2.48-.02-3.24,1.35l-.18,44.09c.92,4.16,7.73,2.19,11.02,2.13.26-.17,1.29-2.42,1.29-2.64v-11.47ZM252.75,163.1h9.83c1.89-1.51,1.42-5.8,2.61-7.22s8.01-.28,10.16-.64c.08,2.18.35,7.39,2.95,7.86,2.41.44,9.66.7,10.48-1.97l1.95,1.99h32.13c2.64-.01,2.43-7.66,3.32-7.92l9.36.13c.68.44,1.29,5.56,2.11,6.74,1.1,1.58,11.38,2.06,12.07-.94.58.02.33,1.24.96,1.65.84.56,15.23.53,17.38.31,9.82-1,12.73-9.68,11.32-18.51-.39-2.45-2.82-5.58-2.96-6.8-.18-1.51,1.5-3.53,1.76-5.2.75-4.74-.94-13.49-5.61-15.93-3.06-1.6-17.37-2.05-20.87-1.37-1.1.21-1.65.8-2.31,1.62v41.61l-12.87-43.16c-2.63.23-10.54-1.04-12.08.84l-9.12,33.8h-14.42v-33.09c-2.3-2.58-10.23-2.55-12.45,0v40.95l-11.84-41.56c-1.08-1.57-11.66-1.49-12.75-.39l-12.11,45.55.99,1.65ZM394.62,162.12v-14.74c5.16-.14,6.36,14.76,8.93,15.64h19.49c1.9-.65,1.1-7.22,4.01-7.78,1.1-.21,7.59-.15,8.24.3,1.26,1.7.9,6.75,3.02,7.47,1.91.65,11.53,1.02,10.74-2.81l-12.47-44.6c-2.78-.2-11.4-1.39-12.76,1.02l-10.51,37.98c-.46-3.46-5.11-10.26-5.48-12.95-.19-1.36,1.78-3.54,2.34-5.26,1.86-5.66.94-16.53-4.82-19.71-3.24-1.79-16.29-1.92-20.26-1.44-2.57.32-2.63,1.94-2.91,4.3-.81,6.97-1.03,34.04.16,40.46.12.66.44,2.03.81,2.46.94,1.1,11.02,1.14,11.47-.33ZM415.32,192.2c-3.69-3-6.41-3.86-11.17-4.23l-216.85.1c-25.35,2.99-25.68,58.27.59,60.86l218.13-.06c18.62-3,20.11-26.17,17.8-41.24-.84-5.46-4.21-11.94-8.5-15.42ZM474.57,260.41c-.63,2.22,0,11.28,0,14.42,0,1.56,1.93,2.24,3.32,1.35.81-.57,1.33-4.76,1.33-5.94,0-1.32-.78-9.56-1.05-10.14s-1.11-1.37-1.86-1.26c-.32.06-1.67,1.35-1.73,1.58ZM438.95,268.18c-1.26-1.06-2.63-1.79-4.35-1.54-.21,1.43.03,2.37.6,3.65.61,1.36,8.7,11.66,9.84,12.43s1.75,1.24,3.31.94c.11-1.14.06-2.15-.35-3.24-.46-1.22-7.97-11.33-9.05-12.25ZM514.98,266.73c-1.39.37-10.56,13.05-10.82,14.8-.41,2.81,1.76,2.5,3.52.85,1.56-1.46,9.77-13.3,9.48-14.75-.69-.85-1.01-1.2-2.18-.9ZM223.42,274.65c-7.74,1.32-10.28,9.31-7.87,16.08,2.14,6.02,16.28,19.48,22.78,19.19,4.77-.21,17.35-12.36,19.46-16.63,7.54-15.29-7.98-24.86-19.98-14.94-4.1-3-9.27-4.56-14.38-3.69ZM478.02,358.58c1.42-.67,5.07-.04,7.19-.38,44.9-7.28,40.87-72.96-2.43-76.52-58.17-4.77-61.25,68.93-13.7,76.61,1.87.3,4.11-.28,5.7.1.5.12.41,1.15.88,1.29,2.27.66,2.18-1,2.37-1.09ZM329.25,293.99c-1.62-1.5-1.98-7.73-5.42-9.32-5.32-2.46-6.33,6.58-8.28,9.55-3.86,1.46-12.84-1.16-13.39,4.85-.49,5.37,6.29,6.52,7.12,9.32,1.32,4.41-2.7,8.47.12,12.34,4.72,2.41,9.12-3.45,12.79-3.52,3.92-.07,10.16,5.9,13.14,3.18,2.39-2.19-.44-9.63-.25-12.64,18.61-16.53-1.61-9.82-5.83-13.75ZM430.6,298.14c-.51-.8-15.65-5.15-17.6-6.99-1.91-.53-2.84,1.07-1.19,2.55,1.28,1.15,13.71,7.17,15.41,7.52.97.2,1.91.35,2.84-.15.68-.48.92-2.36.55-2.93ZM538.73,292.89c-1.54-.93-11.49,3.39-13.49,4.42s-3.85,1.45-4.79,3.72c.64.92,1.2,1,2.25,1.02,1.71.03,13.24-4.31,14.95-5.42s1.8-2.03,1.07-3.74ZM545.99,324.3l-.98-3.28h-18.35c-1.23,0-1.23,3.28,0,3.28h19.33ZM424.11,321.67h-18.02c-1.23,0-1.23,3.28,0,3.28h18.02v-3.28ZM536.61,350.7c-1.31-1.47-15.26-8.7-16.15-8.04-.09.07-.5,1.73-.59,2.2.18.79,11.59,7.9,13.2,8.41,2.85.91,6.09.29,3.54-2.57ZM433.76,346.71c-1.75.36-9.13,4.99-6.4,6.77,2.34,1.52,7.99-3.19,9.53-4.92,1.09-2.11-1.85-2.11-3.14-1.84ZM504.06,360.34c-1.89,2.29,6.25,15.48,9.11,16.08,3.94.83,1.69-3.21.83-4.73-1.19-2.1-3.55-5.53-5.08-7.37-.46-.56-4.16-4.83-4.86-3.98ZM454.9,360.99c-.78.1-1.89-.25-2.51.12-.76.45-7.68,15.24-6.66,16.26,5.18,1.98,10.62-15.01,9.17-16.38ZM477.19,368.2v15.4c3.21,2.73,4.03-1.91,3.99-4.59-.02-1.34-1.03-10.39-1.45-10.73s-1.83.04-2.54-.08ZM512.49,396.95c-31.76-5.33-32.38,38.06.37,30.85,6.66,6.46,16.83,8.9,25.3,4.31,1.65-.89,4.24-4.02,4.97-4.16.94-.18,2.6,1.04,3.9,1.13,6.03.43,13.18-.06,17.99-4.18,7.12-6.11,3.86-17.8-3.49-22.11-2.4-1.41-8.33-2.16-9.32-3.13-.86-.84-1.43-4.73-2.16-6.36-6.54-14.76-33.07-11.5-37.56,3.66ZM40.68,495.23c-3.09.27-9.78-.98-10.73,3.29-.78,3.52,4.89,5.27,5.46,7.08.86,2.76-1.72,7.52-.21,10.04,2.1,3.5,8.56-2.33,11.15-2.33,2.43,0,4.14,2.4,6.03,2.84,9.42,2.18,3.65-5.74,4.56-9.57.74-3.1,5.36-4.25,4.82-8.27-.48-3.55-6.5-2.27-8.8-3.7-2.45-1.53-2.3-7.95-6-8.48-4.47-.64-5.28,6-6.27,9.11Z" fill="#fff"/>
  <path d="M318.61,553.63c-2.61,10.99-7.08,21.68-7.85,33.1-.12,1.72-.61,8.19,1.06,8.74,3.99,1.31,12.44-2.27,16.61-3.18-1,19.53,2.56,39.12-.82,58.47-5.32,6.42-27.16,17.13-12.62,25.42,12.66,7.22,34.17-.61,45.24-8.52-12.13,12.99,4.64,15.91,15.07,16.36,11.06.47,35.97-7.08,37.68-19.97l3.93-67.82c5.95-.25,11.97,5.14,13.03-3.68,1.12-9.3-.07-21.22-1.89-30.39,39.53,4.21,79.13,11.79,116.15,26.37,11.99,4.72,23.2,10.51,34.35,16.76,4.29,2.41,8.53,4.98,12.67,7.65v225.73H3.41v-257.84c16.18-7.89,33.91-15.51,51.63-19.14,3.18-.65,10.08-2.17,12.95-2.19.73,0,1.51-.02,1.97.65.51,10.54-1.55,22.68-8.25,31.14-2.62,3.31-12.89,11.48-11.67,15.6,1.6,5.41,23.44,3.4,28.27,2.54l10.93,10.71c-8.66,7.82-13.34,18.76-10.47,30.46-16.46,2.31-32.92,11.72-35.47,29.41-10.27-1.03-13.46,10.2-7.78,17.44,4.5,5.73,8.77,2.34,13.79,3.9,1.6.49,4.39,3.41,6.72,4.42,6.15,2.68,24.95,5.73,30.57,2.14,2.73-1.74,1.56-6.29,6.26-6.27,3.86.02,5.43,5.23,10.15,6.3,5.49,1.25,13.45-1.95,18.38-4.57,4.52-2.4,6.55-6.26,4.93-11.53-.63-2.03-3.93-3.58-4.14-5.63-.12-1.15,1.07-2.87,1.16-4.49.15-2.75-.54-7.39.13-9.69s6.55-4.12,8.71-5.71c17.53-12.91,10.6-45.87-11.4-49.21l-.07-7.8h18.68c1.3,0,1.81-3.86,1.36-5.27-.71-2.23-8.46-9.31-10.54-13.06-2.75-4.97-4.47-11.94-5.38-17.55-.46-2.86-1.95-15.38-1.35-17.38,1.39-4.65,15.23,1.04,18.87.19.15,5.09,2.9,27.74,7.37,29.7,3.37,1.48,9.8,1.26,13.59,1.76.37,3.64-.72,24.13,2.42,24.91l6.11-.68v56.68c0,4.34,4.42,7.4,7.66,9.37,10.49,6.38,22.39,8.37,34.59,7.32,6.56-.56,17.93-2.72,15.08-11.77,9.92,3.98,38.1,11.3,44.51-.07,5.54-9.83-13.73-16.27-17.67-22.19-2.27-3.4-1.51-7.66-1.59-11.5l2.62-30.47c1.82.35,3.5,1.09,5.43.52,6.11-1.82,4.46-22.93,5.76-27.99,3.67,1.37,13.05-6.13,13.05-8.9v-18.67c.64.21,1.42-.66,1.64-.66h35.71ZM556.48,722.69c1.38-17.3-10.49-31.95-23.52-41.7,1.26-3,.59-8.77,1.72-11.21.74-1.62,5.1-3.58,6.65-5.14,5.04-5.06,5.99-14.44,4.22-21.11-.79-2.97-4.61-7.96-4.77-10.31-.15-2.21,1.81-6.03,1.87-8.55.16-6.38-4.87-15.09-10.49-18.2-3.11-1.72-7.9-2.12-10.38-4.03-2.04-1.57-2.81-4.53-4.25-6.23-5.1-6.02-16.87-7.05-24.1-5.68-2.65.5-11.25,4.33-11.88,4.27-1.1-.11-4.6-2.93-6.18-3.62-9.18-4.01-22.33-2.5-29.65,4.72-3.28,3.23-4.15,7.15-6.54,10.49-5.29,7.37-14.65,7.8-13.78,20.34.19,2.8,2.29,6.16,1.89,8.33-.34,1.86-4.2,6.08-5.27,8.55-3.49,8.1-1.93,18.35,4.37,24.71,1.44,1.45,4.71,2.96,5.24,3.94,2.66,4.98-.14,8.78,6.59,14.38,2.06,1.71,7.82,3.75,8.17,5.58l-1.44,30.02c-10.64,8.06-18.83,18.9-1.17,25.01,4.85,1.68,9.3.8,12.63,1.79,1.06.32,1.78,1.82,2.86,2.38,6.69,3.47,17.98,4.63,25.46,4.04,2.07-.16,3.74-1.39,5.9-1.38,2.39.02,5.61,1.74,8.52,2.02,15.23,1.46,42.86.18,52.37-13.79,8.94-13.14,16.65-31.94,13.31-47.95-.34-1.65-2.34-5.08-2.23-6.08.09-.77,2.64-2.58,3.34-3.63,2.23-3.34,2.7-6.73,2.26-10.7-.65-5.88-7.03-16.84-13.35-10.87-4.99,4.71-6.81,16.29-3.1,22.08,2.31,3.61,5.86,2.79,7.66,4.79,4.4,4.89,3,26.32-1.07,31.66-.56.74-.69,1.34-1.86,1.08ZM287.1,619.75c-4.65-.75-12.25-1.43-10.94,5.47.53,2.77,5.91,11.74,8.71,12.27,4.57.86,14.69,1.17,18.84-.79,4.48-2.11,10.63-14.07,5.71-17.86-3.17-2.44-6.06.83-8.08.24-1.53-.44-2.63-5.94-6.71-6.46-4.35-.56-6.99,3.23-7.53,7.13ZM297.64,748.24v-10.81c0-.69,1.38-3.06,1.36-4.21,2.21-.31,3.99,1.03,6.17,1.26,13.65,1.45,22.12-10.38,10.17-19.99,11.27-11.13-.79-24.8-14.03-16.76-6.64-11.84-22.85-7.66-22.01,5.95-16.85-2.34-20.4,19.92-3.28,21.62-3.76,13.62,6.98,17.15,18.34,14.42l-1.97,14.41-5.63-9.1c-7.7-8.09-33.97-16.31-25.49,3.86,5.58,13.27,33.8,16.01,45.69,12.27,7.44-2.34,19.63-11.78,16.51-20.86-10.44-3.79-18.63.71-25.83,7.94ZM193.45,722.02c10.13-11.3,2.34-26.02-12.71-19.07-6.25-12.31-22.9-8.76-22.68,5.32-16.67-2.12-21.26,19.31-3.93,21.63-5.31,14,6.44,21.2,18.99,16.38l-1.31,13.76c-7.39-9.56-17.88-16.1-30.49-14.45-6.05.79-1.02,11.97,1.4,15.04,10.06,12.77,37.97,13.93,51.59,7.15,6.8-3.39,15.78-12.2,14.21-20.52-.47-2.5-8.51-1.86-10.8-1.63-8.63.85-16.68,6.49-21.95,13.1l1.31-17.69c6.81,2.14,16.7,2.63,20.24-4.99,2.18-4.69,1.62-12.09-3.86-14.03ZM402.25,746.71c6.47-6.95,6.59-22.65-6-14.2-4.26-8.51-9.99-7.44-13.75.59-16.12-6.86-10.76,9.38-3.46,16.03,6.95.81,17.88,3.31,23.21-2.42ZM64.18,729.37c-2.96.66-4.75,4.27-5.7,6.82-16.45-2.91-9.94,11.18-2.18,17.17,10.78.53,20.56,3.96,25.41-8.39,3.8-9.68,1.5-15.89-9.1-9.87-1.41-.33-2.19-7.11-8.44-5.72Z" fill="#fff"/>
  <path d="M147.58,409.48l-7.21-1.31c.5-2.71,2.91-15.47.24-16.33-4.17-1.34-12.49,10.98-17.27,11.74,7.71-28.74-36.29-39.13-26.92-67.86.96-1.05,7.17-1.74,9.36-2.44,35.63-11.35,6.57-56.27-23.94-37.05-20.01,12.61-18.83,46.72-8.43,65.2,4.98,8.86,23.88,24.25,25.52,32.13.86,4.12-1.13,10.01-5.38,5.38-2.47-2.69-2.39-6.91-5.37-9.05-20.3,13.84-55.04,11.64-45.75-21.09-21.18-9.04-25.02-39.16-3.05-50.21-1.95-10.2-.62-19.8,5.99-28.05,11.39-14.21,33.02-17.67,48.7-8.76,1.74.99,1.97,2.9,4.64,2.52,2.09-.3,10.77-8.25,13.69-9.96,24.7-14.53,60.04-6.77,63.37,25.03,9.48-2.05,20.41,1.63,26.54,9.16,7.44,9.14,8.3,22.13,3.91,32.76-4.75,11.52-8.52,8.75-18.67,11.47-8.77,2.35-15.71,6.38-22.6,12.12-.56-2.54.45-4.92.36-7.55-.28-8.19-5.03-13.26-13.14-14.08,8.06-14.81-9.02-7.49-12.1.51-24.82-11.72-28.6,27.76-8.88,33.9,3.22,1,13.91,2.02,17.08,1.34,2.57-.55,4.04-2.59,6.51-2.98-1.43,4.89-7.2,11.59-7.2,16.71v16.71Z" fill="#fff"/>
  <path d="M267.49,563.79c-.66-5.54-4.44-12.15-5.17-17.76-1.65-12.78.58-25.81-1.48-39.15-.21-1.34-.51-5.98-1.55-6.31-3.09-.97-2.41,5.04-2.27,6.86.18,2.53,1.2,5.27,1.32,7.85.41,8.62-.53,17.31.63,25.9-10.37-2.07-21.9-1.95-32.12.97-2.43.69-7.59,3.59-9.5,3.55-1.6-.03-4.79-2.41-6.69-3.06-12.34-4.18-25.66-3.82-38.18-.81l1.96-41.28c-2.67-.51-2.67,1.71-3.09,3.79-1.96,9.88-3.71,38.59-1.73,47.87,1.51,7.05,5.91,13.61,5.46,21.07-2.92.19-5.72-10.34-8.89-5.94-1.4,1.95,3.14,13.72.04,16.42-3.19.68-3.48-11.88-6.54-13.09-3.93,3.46,1.32,9.76.32,14.4-3.22,3.48-6.34-15.74-7.21-16.38-6.24.41,1.32,12.91,0,14.41-3.61-1.11-4.41-7.67-5.04-11-5.66-29.69-5.65-91.57,29.12-104.16,10.63-3.85,11.6-.66,21.01,1.61,16.23,3.92,32.6,2.74,48.03-3.4,9.37,4.14,17.46,11.2,22.13,20.39,7.75,15.22,12.26,62.6,10.56,79.85-.47,4.79-2.81,11.38-8.51,11.47,1.22-1.84,6.77-11.1,3.6-12.44-1.37-.58-1.32.03-1.8.82-1.43,2.31-1.22,6.75-4.41,7.04-.26-3.04.35-6.54,0-9.5ZM192.7,508.33c1.41-.87.55-3.4-1.65-3.66-4.33-.52-1.79,5.79,1.65,3.66ZM240.67,507.73l2.94.52.86-2.02c-.7-1.62-2.18-1.93-3.83-1.75l.04,3.24Z" fill="#fff"/>
  <path d="M426.5,358.6c23.99,21.93,18.64,49.16,21.86,78.06,2.6,23.31,16.83,56.11-5.24,74.06-3.15,2.56-6.92,4.35-10.48,6.22,2.65-15.14,3.96-31.75-4.98-45.16-5.01-7.52-12.43-11.4-20.58-14.48-.25-.26-.1-.9.41-1.36,1-.91,2.72-1.4,4.17-2.9,3.78-3.91,8.84-14.84,13.32-16.17s7.37-.12,11.2-4.52c9.77-11.21-.36-29.75-15.34-21.57-.7-11.73-14.28-12.12-22.73-15.61-5.06-2.09-15.21-8-18.91-11.89-1.84-1.93-5.25-9.35-7.28-9.75-2.98.32-3.47,3.58-5.52,5.42-9.37,8.41-40.17,8.74-44.85,18.73-1.26,2.68,1.2,3.1,1.38,4.21.22,1.38-1.56,7.6-1.7,9.87-1.28,21.25,3.19,38.75,23.57,48.48-9.8,6.06-17.89,13.36-23.97,23.21l-6.14-2.9c10.13-7.91-.91-17.75-8.8-8.13-1.37,1.68-2.56,6.26-4.66,4.55-.22-.18-2.53-3.14-2.61-3.34-.65-1.54,6.53-27.98,7.35-32.59,5.83-32.5,1.68-71.39,35.14-90.02,24.67-13.73,64.11-11.9,85.39,7.55Z" fill="#fff"/>
  <path d="M372.9,379.42c4.85,8.55,15.55,15.35,24.55,19.03,8.34,3.41,16.86,2.61,20.61,12.15.96,2.43.13,6.24,3.45,5.14,2.94-.97,3.8-4.1,7.99-3.52,10.74,1.49,7.59,19.04-.63,20.69-2.15.43-4.46-.21-6.39.16-2.32.45-8.96,12.58-11.5,15.37-22.34,24.48-82.47,17.27-85.81-20.31-.39-4.4.49-29.16,2.77-31.61,10.6-6.4,23.83-5.91,34.78-11.42,1.99-1,8.77-6.52,10.18-5.69ZM352.68,416.68c.89-7.06-6.71-10.5-12.63-7.71-1.65.78-6.16,5.1-3.79,6.77,3.1,2.17,4.08-5,8.85-4.32,3.16.45,3.67,6.31,7.57,5.26ZM396.58,417.99c.56-10.55-16.01-11.59-17.65-2.25-.16.89-.38,1.96.93,1.59,3.2-2.04,7.35-6.74,11.17-3.28,1.97,1.78,1.24,4.94,5.55,3.94ZM365.79,418.65c-5.98-.43-12.25-.38-11.1,7.49.8,5.45,10.88,9.38,11.76,3-2.96-.21-9.72-1.58-7.56-5.9,1.48-2.95,7.99.96,6.91-4.59ZM352.69,436.34c-1.33.95.33,4.5,1.3,5.58,4.62,5.16,17.58,5.03,22.28-.01,1.01-1.08,4.11-5.36,1.56-6.17-3.65-.69-3.37,3.43-5.91,5.1-3.38,2.22-10.46,1.86-13.83-.41-1.35-.91-3.72-5.29-5.41-4.08Z" fill="#fff"/>
  <path d="M263.48,402.36c3.47,13.14,4.54,29.12-.91,41.84-13.39,31.26-70.16,31.14-89.71,6.51-1.23-1.55-4.67-8.07-5.42-8.5-1.77-1.03-6.01-.81-8.22-1.45-8.04-2.32-13.42-17.24-4.46-19.84,4.56-1.32,7.26,3.06,10.31,1.85,3.84-1.53,10.27-14.2,13.3-17.6,9.8,5.42,19.64-4.45,24.64-12.12,3.73,1.7,6.55,4.27,10.43,5.94,5.14,2.21,16.28,5.13,21.26,2.26,2.43-1.4.27-5.53,2.95-5.54.77,0,10.38,4.52,13.19,5.2,4.32,1.05,8.16,1.64,12.64,1.45ZM252.42,420.61c.21-11.14-19.08-10.19-17.69,1.32,3.9.71,4.57-5.5,8.94-5.71,4.8-.23,4.38,4.95,8.74,4.39ZM204.77,422.39c1.65,1.86,4.4,1.01,3.45-2.44-2.37-8.67-20.17-6.32-18.7,3.94,3.62.91,3.6-3.07,5.55-4.6,2.15-1.68,5.71-1.67,7.9,0,1.49,1.14,1.23,2.46,1.8,3.1ZM224.24,437c13.96.24,11.51-15.01-2.52-11.7l-.74,3.15,8.5.69c.99,5.35-6.24,3.03-5.25,7.86ZM236.69,442.24c-3.92-.44-5.12,4.03-8.51,5.57-3.82,1.74-10.23,2.21-14.02.24-2.4-1.25-3.97-5.25-5.66-6.13-3.59-1.87-2.82,1.56-1.79,3.76,4.93,10.57,28.32,9.76,29.98-3.44Z" fill="#fff"/>
  <path d="M336.3,541.84c.99-.87,8.58,2.17,7.86-.98-3.47-3.34-11.85-1.08-11.79-7.54,1.15-1.11,14.71,5.24,13.76.99-.37-1.64-10.84-3.96-12.84-4.86-2.65-1.19.56-1.87,2.02-2.03,7.39-.82,12.93,2,19.68,2.61,10.05.91,33.85-2.06,40.95-9.67,5.64-6.04,10.19-21.84,9.18-29.91-4.06-1.92-3.51,3.72-3.95,6.18-12.04-7.72-25.21-2.94-36.27,3.87-7.06-7.07-16.52-10.08-25.97-5.84.26-3.31,2.64-6.17,2.64-9.49,0-1.03.15-1.12-1.01-1-5.39.95-8.05,24.23-10.48,24.24-6.98-4.53-2.96-9.86-3.61-16.04-.27-2.59-2.15-4.75-1.85-7.03.85-6.4,18.25-21.93,24.64-22.66,3.53-.41,9.86,2.5,13.64,3.1,9.31,1.49,22.2.11,31.22-2.75,5.53-1.76,6.91-4.84,12.95-2.75,37.98,13.13,29.02,73.03-6.69,84.37-12.31,3.91-53.33,8.35-62.78-.49-.71-.67-1.51-1.19-1.29-2.31Z" fill="#fff"/>
  <path d="M261.55,606c-2.68,1.86-7.23-6.51-9.45-6.52-3.23-.02-3.48,9.74-8,10.39-2.82.4-9.05-4.35-11.02-6.41-2.43-2.56-6.82-13.01-9.78-12.5-.46.08-3.27,7.26-4.03,8.47-2.38,3.8-12.95,15.07-17.61,11.21l-7.55-13.09-1.24.06c-.04.47-.12.93-.57,1.19-4.56,2.63-17.04,9.82-21.61,10.42-2.98.39-3.1-1.53-3.43-4.14-.4-3.11-1.27-14.55-.53-16.91.56-1.78,2.35-1.29,3.19-2.22,2.73-3,.2-10.12.62-10.69,2.81,1.32,5.53,2.47,7.47-.71,3.88-6.36-7.37-21.14-5.44-28.71,13.14-4.21,29.16-5.11,41.17,2.29.38,1.61-11.61,12.12-10.46,18.92.34,1.99,2.66,2.34,3.64,1.01.5-.68,2.13-6.88,3.03-8.76,5.59-11.68,14.11-13.37,21.14-1.67,1.54,2.56,4.04,12.41,6.61,12.42,3.35.02.53-6.7-.21-8.34-2.51-5.58-7.6-10.71-11.9-14.95-.05-3,22.5-3.85,25.2-3.59,7.72.73,8.3,3.18,10.35,9.96,1.27,4.2,2.75,10.94,3.08,15.27.36,4.68-.11,35.84-2.66,37.61Z" fill="#fff"/>
  <path d="M251.52,358.62c16.79,9.81,28.54,29.55,23.93,49.32-.75,3.21-2.15,6.28-5.97,5.45-.28-2.98-1.58-13.05-4.43-14.25-3.89-1.64-10.36-.37-15.61-2.08-3.95-1.29-13.06-7.81-15.7-7.94-3.36-.17.61,7.62-1.28,9.23-3.54,3.01-17.92-2.06-21.78-4.46-1.91-1.19-7.04-6.71-7.75-6.71-1,0-4.83,6.67-6.2,8.24-2.64,3.05-9.71,9.29-13.96,8.06-1.71-.5-3.27-4.11-5.37-4.48-1.47.36-9.77,18.6-13.43,19.98-.78.29-8.12-2.92-10.42-1.72-8.33-25.22,4.12-46.02,26.28-57.61,15.29-7.99,56.29-10.02,71.68-1.03Z" fill="#fff"/>
  <path d="M331.7,541.19c3.84,7.5,12.68,10.57,20.63,11.81,16.67-2.12,34.63-.44,50.67-5.73,2.14-.71,12.47-5.9,13.19-5.38,8.47,15.87,13.36,34.37,9.85,52.35-8.34-1.1-18.46-4.51-24.87-10.13-2.22-1.94-5.24-7.56-8.12-6.93-.42.09-2.8,6.67-3.42,7.83-2.62,4.82-14.24,19.23-19.93,18.18-4.57-.84-13.87-13.44-15.72-17.75-1.7-3.94-1.92-8.52-4.32-12.19-3.36-.73-5.13,5.64-7.19,7.85-6.06,6.47-19.77,10.28-28.44,10.54,1.82-15.37,4.92-32.14,13.23-45.41.63-1,3.33-5.83,4.45-5.04Z" fill="#fff"/>
  <path d="M84.01,517.92c1.48-8.85,12.94-17.51,20.3-21.64,1.59-.89,12.3-6.43,13.12-5.56.03,3.54,1.14,7.3,1.34,10.79,1.49,25.28-2.93,70.69,9.04,92.53,2.64,4.81,6.47,7.54,9.28,12.01h-16.38c-.82-8.64-5.05-29.82-16.05-30.2-7.56-.26-9.3,6.93-8.86,13.16-4.98-1.59-8.16-5.75-14.16-5.82-13.29-.17-8.18,15.89-5.5,23.51-7.57,1.02-15.49,1.27-22.93-.66-.71-.78,5.28-5.49,6.23-6.54,5.01-5.51,9.73-11.73,11.93-18.87,4.79-15.55,2.03-33.82,2.81-49.94.89-.88,9.83,2.72,9.83-.32,0-3.54-.53-9.28,0-12.45Z" fill="#fff"/>
  <path d="M124.08,550.92l-3.39-60.48c2.57-4.49,7.4-6.15,10.14-10.89,4.79-8.3,3.02-17.1-4.28-23.17-4.78-3.97-8.01-2.41-7.83-10.5.29-12.59,13.09-23.31,18.7-33.78,1.55-1.33,11.12.64,12.27,2.78,3.07,5.7-.97,5.4-2.29,8.52-2.93,6.95,1.4,16.59,8.23,19.61,2.73,1.21,7.11,1.18,9.33,2.47,2.09,1.22,5.19,7.58,7.17,9.87,2.57,2.98,5.93,4.96,8.84,7.53-3.32,1.93-7.07,2.78-10.48,4.57-21.9,11.5-27.1,38.23-28.19,60.92-.17,3.44.59,22.13-.26,23.33-1.18,1.68-15.08-1.28-17.97-.79Z" fill="#fff"/>
  <path d="M413.53,594.35c-.08,14.32-2.44,28.53-3.21,42.8-.45,8.3,1.48,23.59-2.05,30.71-3.73,7.52-22.69,12.25-30.68,12.89-.3-1.86,1.93-1.71,2.52-3.05,2.08-4.78-7.08-.27-6.53,2.98l-3.86-.59c-.44-.6,4.1-4.29,2.28-5.9-2.63-.22-5.17,2.78-5.64,5.16-1.79.63-4.18-.52-2.9-2.56.95-1.51,6.57-1.83,5.59-4.23-1.15-2.83-6.49,1.79-8.18,2.29-.95-.45.08-1.62.44-2.18,4.72-7.42,17.19-9.44,18.73-18.62,2.61-15.59-1.97-32.98-.52-48.36.52-5.52,4-6.52,7.22-10.48s4.96-8.39,8.28-12.07c5.5,4.85,11.33,9.11,18.51,11.2Z" fill="#fff"/>
  <path d="M79.89,586.54c9.1-2.06,15.98,8.54,19.96,15.14,3.2,5.31,5.64,10.97,8.4,16.5,14.41.62,28.04,6.65,29.97,22.45,5.09,41.72-63.76,35.66-55.88-3.83,1.39-6.95,7.63-11.31,11.55-16.68-5.51-5.94-12.38-10.59-15.43-18.67-1.5-3.97-4.56-13.56,1.44-14.92ZM131.03,645.21c4.16-4.14-6.21-9.3-3.77.81,1.09.03,2.98-.03,3.77-.81ZM102.14,640.88c-1.6.55-2.15,3.91-1.65,5.36l1.38,1.28c3.79,1.86,5.74-3.64,3.14-6.43-.72-.48-2.06-.49-2.87-.21ZM121.35,647.35c-2.2-.67-9.3-1.38-7.52,2.58.46,1.03,6.04,6.76.59,7.02-1.36.06-10.31-2.76-4.22,2.53,4.43,3.85,5.48.02,8.27-.37,3.34-.47,9.61,5.05,10.1-3.92-3.05-.61-4.93,2.97-7.77,1.21l.55-9.06Z" fill="#fff"/>
  <path d="M348.08,581.16c1.58,3.42,2.93,7.26,4.98,10.43,2.11,3.26,8.91,9.24,9.41,12.21-.03,13.99-1.19,27.93-1.95,41.87-.29,5.31,1.51,16.71-2.77,20.23-2.84,2.34-24.11,11.1-26.03,9.6.38-.77,4.69-4.56,1.62-4.61-3.83-.06-4.32,3.64-7.03,4.77-1.29.54-4.86.98-4.1-.81.48-1.14,8.12-5.25,5.6-6.9-3.04-1.99-7.55,3.76-9.52,5.58-2.29-1.97,1.91-4.54.32-7.19-2.5.2-4.3,2.17-4.59,4.58-1.99-.87.59-3.88,1.34-4.89,3.73-5.04,15.68-10.63,16.88-15.88.42-1.82.7-6.24.82-8.35.93-16.61-3.03-33.81-.56-50.36l15.59-10.28Z" fill="#fff"/>
  <path d="M119.07,672.23c.16,0,1.13-1.21,1.56.41,1.48,5.64-2.69,11.39-1.89,15.62.39,2.04,2.37,2.17,3.58,3.66,4.12,5.08-.23,8.61-5.57,8.88-1.64-5.18-3.92-9.89-8.17-13.48-3.98,4.48,5.48,10.39,4.59,14.47-1.24,3.52-7.11,3.86-10.2,2.91-6.47-1.99-5.39-16.33-6.6-17.31-.42-.34-1.83.04-2.54-.08v10.16c0,.17,1.04.68.04,1.33-2.53,1.89-11.78,0-11.71-3.16.04-2.04,2.09-4.72,1.81-7.91-.69-7.89-10.07-13.07-17.3-12.88-2.55.07-4.36.51-3.64,3.29,14.89-1.31,21.14,7.77,13.77,20.96,3.41,1.04,9.16,1.13,8.52,5.9-19.04,2.71-41.91-.21-38.5-25.05,1.51-11.01,12.07-20.5,22.27-23.6,2.03-.62,6.81-1.97,8.7-1.85,2.92.17,7.69,7.59,10.46,9.9,3.91,3.26,13.34,7.85,18.36,7.85,4.15,0,8.3.03,12.45,0Z" fill="#fff"/>
  <path d="M207.2,613.92l-.36,44.6c5.52,6.89,18.37,9.59,19.37,19.62-2.08-2.23-6.23-8.06-8.85-3.93,1.67,2.15,4.71,2.62,4.26,5.89-2.3-.38-3-2.61-5.23-3.61-1.66-.74-3.41-1.13-5.24-.97.1,3.58,5.81,3.03,5.24,6.55-3.96,2-7.97-4.9-10.14-4.59-2.44.36,1.86,5.07,1.62,5.24-6.31,1.26-30.24-6.34-31.97-12.25l-.47-58.51c.43-.89,15.92-8.53,17.06-8.5,2.89.09,7.21,15.66,14.72,10.47Z" fill="#fff"/>
  <path d="M225.55,597.53c.61,6.38,14.13,17.08,19.93,16.37,4.28-.52,4.32-6.64,7.59-8.5l-1.81,44.73c1.51,7.37,17.05,10.88,18.85,18.82-.41.42-5.95-3.75-6.55-.97-.38,1.76,5.79,4.52,4.58,5.55-3.37.49-5.94-4.65-8.82-4.98-5.89-.68,2.99,5.74,3.43,6.13.38.34,1.94.56.16,1.16-3.87,1.3-7.77-7.49-9.78-2.07l2.57,3.03c-11.86-1.8-24.9-4.57-34.77-11.59-2.2-16.47-.35-33.24-1.92-49.68.03-4.57-.71-8.03,1.54-12.21.43-.8,3.13-4.82,3.64-5.39s.51-.55,1.36-.41Z" fill="#fff"/>
  <path d="M76.15,486.14v-30.47c0-13.87,29.35-28.37,38.03-37.32,2.72-2.8,4.54-7.34,7.22-9.82,4.35-4.02,12.25-6.22,16.02-11.49,1.97,1.8.75,5.09.14,7.33-3.96,14.46-20.17,20.98-21.46,38.17-.39,5.27,1.19,16.14-1.26,20.37-3.3,5.72-20.57,12.36-26.8,15.8-4.12,2.28-7.72,5.28-11.9,7.43Z" fill="#fff"/>
  <path d="M385.3,495.5c20.64-2.25,16.72,16.96,4.53,24.84-14.36,9.28-35.32,5.94-51.18,3.74-3.76-.52-4.59-2.63-4.98-6.16-1.35-12.23,4.25-24.56,18.39-21.66,4.67.96,10.3,7.66,13.33,7.55,4.45-.17,12.66-7.52,19.91-8.31Z" fill="#fff"/>
  <path d="M84.01,331.5c.26.32,6.84,1.64,7.88,2.28,2.82,10.42-11.27,14.98-19.53,13.01-2.81-1.24-3.03-16.37-2.78-19.58,1.21-15.92,12.29-34.37,30.43-32.34,22.38,2.51,25.57,33.21,1.21,36.45-5.97.79-10.39-1.58-16.16-2.37-.94.2-1.41,2.08-1.03,2.54ZM102.54,311.02c2.68,2.3,7.31-1.62,4.76-3.77-3.12-2.62-7.54,1.38-4.76,3.77ZM91.06,309.39c-2.83-2.84-6.74,2.94-3.12,4.76,3.36,1.69,4.65-3.23,3.12-4.76ZM106.63,317.76c-5,4.59-5.8,4.59-11.78,1.29-3.77,5.92,5.23,6.93,9.52,5.61,2.58-.8,4.61-4.9,2.26-6.9Z" fill="#fff"/>
  <path d="M287.62,482.35c7.04-1.6,9.38,3.78,14.26,7.06,3.51-1.25,4.52-3.98,8.59-4.51,20.91-2.76,11.51,28.42-2.67,28.16-5.52-.1-10.16-3.61-14.98-4.74-4.83-1.12-8.82,1.13-11.04-4.04-2.51-5.83-1.86-20.19,5.83-21.94Z" fill="#fff"/>
  <path d="M139.49,347.46c.88.75,2.25,3.92,3.74,3.66,11.37-11.03,23.3.54,16.68,14.01-1.66,3.38-8.64,9.82-12.29,10.65-5.15,1.18-5.18-1.88-7.02-2.24-.66-.13-2.66,1.25-4.48,1.27-11.37.12-18.21-17.91-11.82-26.28,3.82-5,10.55-5,15.19-1.07Z" fill="#fff"/>
  <path d="M362.52,666.34c3.25-8.29,1.15-17.2,1.28-25.91.02-1.39.64-2.66.67-3.91.28-10.19.83-20.3,1.32-30.46,3.87,1.04,7.04.83,10.47-1.31.23,5.55-.28,11.19-.02,16.74.42,8.91,3.66,26.99-.73,34.6-2.33,4.04-9.55,7.03-13,10.25Z" fill="#fff"/>
  <path d="M86.5,506.32c-2.74,1.61-12.67-3.65-12.95-8.1-.56-8.68,18.96-18.41,25.87-21.24,2.41,5.65,6.2,9.13,11.45,12.1-6.84,4.04-13.86,6.88-19.99,12.11-1.21,1.03-4.08,4.95-4.37,5.12Z" fill="#fff"/>
  <path d="M92.53,346.58c-.4,6.25,3.31,12.22,6.67,17.25,3.18,4.76,9.32,7.4.58,11.28-3.8,1.69-6.89,2.34-10.47-.08-4.3-2.9-16.75-19.3-16.44-24.19,7.25.21,13.01-2.04,19.66-4.27Z" fill="#fff"/>
  <path d="M97.12,425.87l-19.46,16.89c-4.77,2.14-15.79-6.4-13.64-10.99.1-.22,2.71-3.22,3.19-3.72,1.41-1.48,12.98-11.42,13.87-11.34,3.54,5.28,9.59,9.02,16.04,9.15Z" fill="#fff"/>
  <path d="M86.09,414.16c.1-.16,1.82-.66,2.47-1.11,5.17-3.59,9.34-6.72,12.93-12.04,6.68,3.14,12.23,1.89,18.57-1.36-.48,7.04-10.02,20.95-16.55,23.09-5.42,1.77-20.85-3.15-17.41-8.58Z" fill="#fff"/>
  <path d="M119.4,457.31c25.94,8.61-3.49,46.44-15.66,18.81,5.54-6.18,17.29-8.35,15.66-18.81Z" fill="#fff"/>
  <path d="M102.83,579.32c6.25-1.89,10.47,9.37,11.99,13.95,1.81,5.45,3.65,14.74,2.61,20.32-.39,2.08-2.92,2.55-4.76,2.18-4.95-1-9.26-18.36-12.98-22.45-1.25-3.59-1.32-12.65,3.13-14Z" fill="#fff"/>
  <path d="M103.86,398.15c-1.44-1.46-1.65-5.6-2.54-7.61-.79-1.79-7.87-10.21-6.81-11.2,5.87,1.09,8.94-3.25,13.4-5.28,4.69,3.1,13.49,13.66,12.8,19.3-.63,5.12-13.39,8.28-16.84,4.79Z" fill="#fff"/>
  <path d="M72.87,473.69c-1.88,1.99-10.3-8.45-11.29-10-4.94-7.69-6.11-17.15-1.3-25.2.23-.39.01-1.29,1.12-.83,1.4.58,4.67,5.16,7.2,6.57,2.21,1.23,5.03,2.06,7.55,1.95.56.48-3.27,7.23-3.27,8.19v19.33Z" fill="#fff"/>
  <path d="M217.03,661.75c-4.09-1.91-7.29-3.16-7.86-8.19-1.09-9.66.59-19.89,1.3-29.49.45-6.1-1.86-10.73,4.27-14.73l2.28,52.42Z" fill="#fff"/>
  <path d="M71.55,501.87c1.79,4.04,7.52,6.92,11.81,7.86-1.74,6.07-4.05,11.85-3.28,18.34-10.97-3.63-12.21-16.01-9.82-25.8l1.3-.41Z" fill="#fff"/>
  <path d="M76.81,414.72v-16.38l10.17-3.77,6.86,9.95c-5.58,3.32-11.02,8.01-17.03,10.2Z" fill="#fff"/>
  <path d="M270.12,416.69c14.14-3.09,9.28,16.45.33,17.7-2.25.31-.33-2.48-.33-2.96v-14.74Z" fill="#fff"/>
  <path d="M42.73,683.38c0,5.26,1.75,10.37,3.94,15.06-9.76,1.3-16.01-13.29-3.94-15.06Z" fill="#fff"/>
  <path d="M150.85,338.72l-5.89,5.89c.65-2.67,2.8-6.27,5.89-5.89Z" fill="#fff"/>
  <path d="M299.6,481.56c-1.16-.35-4.66-4.35-3.92-5.24,2.31.85,4.08,2.61,3.92,5.24Z" fill="#fff"/>
  <path d="M331.58,524.67c-.17.28-1.35.51-1.84,1.07-3.34,3.92,1.01,9.48-1.25,13.03-1.93,3.04-11.46-1.45-13.75-3.23-3.03-2.34-4.3-6.53-7.03-8.04-5.46-3.01-16.55-1.37-20.23-8.59l5.9,1.96c3.22-.44-8.55-8.84-6.87-10.48,9.59,1.53,19.74,10.21,29.44,3.56,2.55-1.75,4.35-5.12,6.28-6.82.61-.54.9-.95,1.83-.59,2.46.66,8.58,16.38,7.52,18.14Z" fill="#fff"/>
  <path d="M315.33,472.38c.05,5.82-6.51,7.46-10.47,10.16,1.8-4.78,4.05-11.82,10.47-10.16Z" fill="#fff"/>
  <path d="M415.32,192.2c4.28,3.48,7.66,9.96,8.5,15.42,2.31,15.08.82,38.25-17.8,41.24l-218.13.06c-26.27-2.6-25.94-57.87-.59-60.86l216.85-.1c4.77.37,7.48,1.23,11.17,4.23ZM412.72,194.81c-2.22-1.47-5.9-2.66-8.57-2.9l-216.22.08c-21.95,2.87-22.21,50.72.61,53.01l216.82-.06c20.23-2.17,20.55-41.38,7.36-50.13Z"/>
  <path d="M370.37,81.52c-.46,2.74-7.17,2.67-9.36,2.16-1.14-.26-2.34-1.65-2.76-1.65s-1.62,1.39-2.76,1.65c-7.34,1.68-9.96-.57-10.74-7.66l-10.11.57c-1.26,7.4-1.76,7.61-9.16,7.23-3.73-.19-4.45,0-7.83.03s-19.19.5-20.95-.74c-.86-.6-1.11-1.16-1.07-2.21l.36-43.61c.6-1.09,1.48-1.19,2.59-1.34,2.54-.33,21.09-.18,22.22.63,1.6,2.1,1.94,13.16-1.22,13.16h-12.12c-.26.76.29,2.62.98,2.62h11.14l.98.98v11.14l-.98.98h-12.12c.08,1.41-.56,3.96,1.07,4.49l13.25.84.74,5.8,10.57-38.9c1.61-2.83,12.24-2.45,13.53.06l11.94,41.46v-41.61c1.15-2.54,10.98-2.05,12.28-.81l8.03,18.83v-18.02c1.72-2.43,10.84-2.41,11.69.11v44.34c-.84,2.5-10.6,2.34-12.32.75l-7.88-18.66c-.62,5.25.85,12.36,0,17.36ZM319.26,38.6h-21.62v41.94h22.28v-7.86h-14.42v-9.83h13.11v-7.86h-13.11v-7.86h13.76v-8.52ZM355.96,80.54l-11.46-41.29-9.42-.56-11.23,41.85,7.84-.03,2.41-7.74,12.11.29,1.97,7.4,7.78.08ZM360.55,38.6v41.94h7.21v-28.18l11.46,27.53,9.51.64v-40.95c-1.65-1.57-6.22-1.57-7.86,0v27.19l-11.1-27.24c-1.65-1.88-6.76-.57-9.22-.94Z"/>
  <path d="M252.75,163.1l-.99-1.65,12.11-45.55c1.09-1.09,11.68-1.18,12.75.39l11.84,41.56v-40.95c2.22-2.55,10.15-2.58,12.45,0v33.09h14.42l9.12-33.8c1.55-1.88,9.45-.61,12.08-.84l12.87,43.16v-41.61c.66-.82,1.21-1.41,2.31-1.62,3.5-.67,17.8-.23,20.87,1.37,4.67,2.44,6.36,11.19,5.61,15.93-.26,1.67-1.94,3.69-1.76,5.2.14,1.22,2.57,4.35,2.96,6.8,1.41,8.83-1.5,17.5-11.32,18.51-2.15.22-16.54.24-17.38-.31-.63-.41-.38-1.62-.96-1.65-.7,3-10.97,2.53-12.07.94-.82-1.18-1.43-6.3-2.11-6.74l-9.36-.13c-.89.26-.68,7.91-3.32,7.91h-32.13s-1.95-1.98-1.95-1.98c-.83,2.67-8.07,2.41-10.48,1.97-2.6-.47-2.87-5.68-2.95-7.86-2.16.36-8.95-.81-10.16.64s-.72,5.71-2.61,7.22h-9.83ZM286.5,160.48l-11.44-41.96-9.57-.34-11.75,42.3,7.78-.08,1.97-7.4,13.12-.31,1.99,7.51,7.9.29ZM298.95,152.62v-33.75c-2.08-1.97-5.8-.61-8.52-.98v42.59h22.28v-7.86h-13.76ZM335.56,117.98l-9.74-.08-11.14,42.58,7.77-.08,1.98-7.4,13.12-.31,2.01,7.49,7.89.3-11.88-42.5ZM367.43,117.89c-4.62-.6-10.31.44-15.07,0l-.98.98v40.63l.98.98h16.38c.27,0,3.95-1.71,4.48-2.07,6.41-4.4,5.39-16.18-.87-20.54,7.14-5.38,3.8-18.86-4.93-19.99Z"/>
  <path d="M478.02,358.58c-.19.09-.1,1.75-2.37,1.09-.46-.13-.37-1.17-.88-1.29-1.59-.37-3.83.21-5.7-.1-47.55-7.67-44.46-81.38,13.7-76.61,43.3,3.55,47.33,69.24,2.43,76.52-2.12.34-5.77-.29-7.19.38ZM473.12,285.18c-47.32,3.92-44.05,73.92,8.35,69.94,44.5-3.38,42.83-74.18-8.35-69.94Z"/>
  <path d="M394.62,162.12c-.45,1.47-10.53,1.44-11.47.33-.37-.44-.69-1.8-.81-2.46-1.19-6.42-.97-33.49-.16-40.46.28-2.36.34-3.98,2.91-4.3,3.97-.49,17.02-.36,20.26,1.44,5.76,3.19,6.68,14.05,4.82,19.71-.56,1.72-2.53,3.9-2.34,5.26.37,2.69,5.01,9.49,5.48,12.95l10.51-37.98c1.36-2.41,9.98-1.22,12.76-1.02l12.47,44.6c.8,3.83-8.83,3.46-10.74,2.81-2.12-.72-1.76-5.77-3.02-7.47-.64-.45-7.14-.51-8.24-.3-2.91.56-2.11,7.14-4.01,7.79h-19.49c-2.57-.88-3.78-15.78-8.93-15.64v14.74ZM400.19,117.89c-4.72-.61-10.55.45-15.4,0v42.59h7.86v-15.73c8.68-1.61,8.65,9.9,11.77,15.42l8.55.29c-3.49-5.79-3.45-15.79-9.83-19.01-.39-.55,2.43-2.11,2.88-2.67,5.21-6.38,3.22-19.73-5.83-20.9ZM435.16,117.98l-9.43.55-11.45,41.95,7.78-.08,1.97-7.4,13.12-.31,1.38,7.79h7.86s-11.23-42.5-11.23-42.5Z"/>
  <path d="M512.49,396.95c4.48-15.15,31.02-18.41,37.56-3.66.72,1.63,1.3,5.52,2.16,6.36.99.97,6.92,1.72,9.32,3.13,7.35,4.31,10.61,16,3.49,22.11-4.8,4.12-11.96,4.62-17.99,4.18-1.29-.09-2.96-1.31-3.9-1.13-.73.14-3.32,3.27-4.97,4.16-8.46,4.59-18.64,2.15-25.3-4.31-32.75,7.2-32.13-36.18-.37-30.85ZM544.45,391.37c-5.84-5.79-17.54-5.25-23.66-.22-3.28,2.69-4.29,6.34-6.9,9.52-3.12-.2-6.34-.68-9.49-.35-16.05,1.63-16.97,24.1.62,24.92,2.9.14,8.4-1.59,9.71-1.24.78.21,4.55,4.21,6.58,5.26,8.34,4.34,15.15.83,21.18-5.26,9.17,4.09,23.65,2.5,22.54-10.29-.72-8.31-9.68-9.36-16.12-11.4-.3-3.89-1.63-8.14-4.46-10.94Z"/>
  <path d="M160.03,150h12.78c.13,0,.55.72,1,.4l9.77-34.18c1.56-1.62,12.25-1.22,13.01-.15l11.79,43.61c.27,5.39-7.39,3.23-11.01,3.11l-2.53-7.17-9.84-.32-1.51,7c-.29.41-1.62.65-2.21.73-6.05.79-24.75.86-30.78.1-.91-.12-1.7-.16-2.33-.95-2.01-2.55.21-39.12-.46-45.14.78-2.66,10.66-2.68,12.32-.13v33.09ZM158.06,152.62v-33.75c-2.08-1.97-5.8-.61-8.52-.98v42.59h22.28v-7.86h-13.76ZM194.67,117.98l-9.71-.06-11.17,42.56,7.77-.08,1.98-7.38,13.15-.36,1.37,7.8,8.49.02-11.88-42.5Z"/>
  <path d="M329.25,293.99c4.21,3.93,24.43-2.79,5.83,13.75-.19,3.01,2.64,10.46.25,12.64-2.97,2.72-9.21-3.25-13.14-3.18-3.67.07-8.07,5.93-12.79,3.52-2.81-3.87,1.2-7.92-.12-12.34-.84-2.79-7.61-3.95-7.12-9.32.55-6,9.53-3.39,13.39-4.85,1.95-2.96,2.97-12.01,8.28-9.55,3.44,1.59,3.8,7.82,5.42,9.32ZM331.71,317.08c.88-3.42-2.27-8.27-1.2-11.35.49-1.42,5.68-3.45,6.8-5.01,1.73-3.11-8.13-2.36-9.51-2.98-2.62-1.17-3.4-8.68-5.57-8.18l-4.26,8.19-11.8,1.64c.2,3.47,7.04,5.14,7.75,7.68s-1.91,7.08-1.2,10c3.18.35,6.06-3.73,8.88-3.91,2.37-.15,9.64,4.43,10.11,3.91Z"/>
  <path d="M223.42,274.65c5.12-.87,10.28.69,14.38,3.69,12-9.92,27.52-.34,19.98,14.94-2.11,4.27-14.69,16.42-19.46,16.63-6.5.29-20.64-13.17-22.78-19.19-2.4-6.76.14-14.76,7.87-16.08ZM224.73,277.93c-15.18,2.3-.46,20.42,6.12,25.01,7.02,4.9,9.21,2.8,15.32-2.26,16.35-13.53,11.13-31.75-9.06-17.73-3.94-3.39-6.82-5.87-12.39-5.03Z"/>
  <path d="M158.72,79.56c-.84,3.9-10.69,5.3-14.03,4.86-17.59-2.33-20.48-27.69-13.09-40.49,5.56-9.63,18.78-11.35,27.12-4.33v11.14c0,.31-1.7,1.41-2.3,1.41-1.93,0-4.93-5.25-10.84-3.41-7.41,2.3-7.81,23.88,3.46,22.51,2.86-.35,5.11-2.34,7.5-3.71.68-.19,2.18,1.33,2.18,1.54,0,2.75.49,8.2,0,10.48ZM156.74,49.09c-.12-5.88,1.68-8.72-5.07-10.31-19.71-4.64-25.55,18.57-19.28,33.04,3.77,8.7,12.99,12.25,21.74,8.4,4.28-1.88,2.2-5.64,2.62-9.5-12.65,8.67-19.44-.42-18.36-13.46.94-11.41,9.24-14.93,18.36-8.17Z"/>
  <path d="M274.7,81.52c-.5,3-11.93,3.74-12.29-.13.74-13.28-1.54-28.8-.16-41.82.1-.98.21-1.97.81-2.78,1.64-1.64,16.78-.85,19.64.03,7.88,2.44,8.53,10.73,7.72,17.83-.3,2.67-3.23,6.5-3.15,7.07.11.73,2,3.46,2.5,4.71.87,2.2,5.2,13.02,5.07,14.33-.43,4.23-10.28,3.71-12.11,2.21-1.59-1.3-3.42-11.11-5.51-13.82-.84-1.1-1.05-1.27-2.53-1.07-.48,4.1.65,9.53,0,13.43ZM278.31,38.6c-4.41-.49-9.59.36-14.09,0v41.94h7.86v-14.74c8.01-4.68,9.49,9.7,11.89,14.65l8.42.09c-2.65-6.54-3.58-14.47-9.16-19.33,5.57-3.28,6.31-10.02,4.78-15.93-1.11-4.32-5.7-6.22-9.71-6.67Z"/>
  <path d="M40.68,495.23c1-3.11,1.8-9.75,6.27-9.11,3.7.53,3.55,6.94,6,8.48,2.3,1.44,8.32.15,8.8,3.7.54,4.01-4.08,5.16-4.82,8.27-.91,3.83,4.86,11.75-4.56,9.57-1.9-.44-3.61-2.84-6.03-2.84-2.58,0-9.05,5.83-11.15,2.33-1.51-2.52,1.08-7.28.21-10.04-.57-1.81-6.24-3.56-5.46-7.08.95-4.27,7.64-3.01,10.73-3.29ZM57.8,498.6c-2.5.05-4.9.22-7.15-1.04-2.62-1.47-3.35-6.16-4.96-6.18-1.87,6.83-5.34,7.93-12.13,7.22.71,3.17,5.49,3.65,6.29,6.53.69,2.46-1.89,5.24-1.7,7.88,5.03-3.53,9.47-2.99,15.06-1.31-2.12-5.79,1.39-8.86,4.59-13.09Z"/>
  <path d="M394.62,37.62c.7-2.3,11.68-1.82,14.08-1.63,7,.55,11.89,2.45,15.68,8.56,6.75,10.87,5.3,33.97-9.16,37.91-5.41,1.47-15.86,2.66-20.6-.29v-44.56ZM408.05,38.6c-3.68-.33-7.74.24-11.47,0v41.94h16.05c14.35,0,17.95-30.11,6.82-38.27-2.95-2.17-7.81-3.35-11.41-3.67Z"/>
  <path d="M252.81,38.9c11.48,8.82,10.39,40.74-5.93,44.95-27.44,7.07-29.95-41.27-10.85-47.54,5.72-1.88,11.99-1.09,16.78,2.59ZM241.79,38.13c-22.09.33-20.63,44.3.47,43.77,21.42-.54,21.89-44.11-.47-43.77Z"/>
  <path d="M444.26,35.5c29.04-3.79,27.57,54.49-1.19,48.68-19.51-3.94-19.88-45.94,1.19-48.68ZM446.24,38.13c-19.29.66-19.67,34.9-6.65,41.68,26.51,13.8,33.22-42.59,6.65-41.68Z"/>
  <path d="M174.94,35.5c27.58-3.63,27.37,45.91,5.67,48.91-26.7,3.69-27.78-46.01-5.67-48.91ZM166.81,77.04c7.17,8.02,20.1,5.36,24.59-4.11,6.59-13.88,1.25-40.2-18.94-34.01-12.91,3.96-13.43,29.41-5.65,38.13Z"/>
  <path d="M210.48,70.06h12.78c2.3,2.59,2.76,11.79-.48,13.28-1.8.83-21.4.84-23.28.05-.51-.21-.86-.47-1.03-1.03l-.33-44.63c.85-2.53,10.58-2.56,12.34-.11v32.44ZM208.52,72.68v-33.09c-1.75-1.8-5.07-.85-7.43-.88l-1.09.88v40.95h22.28v-7.86h-13.76Z"/>
  <path d="M236.04,148.69v11.47c0,.23-1.03,2.47-1.29,2.64-3.28.05-10.09,2.03-11.02-2.13l.18-44.09c.76-1.36,1.91-1.21,3.24-1.35,6.48-.64,17.94-1.16,22.26,4.03,9.24,11.09,3.86,32.57-13.37,29.43ZM242.27,117.89c-4.98-.74-11.54.55-16.71,0v42.59h7.86v-14.42c10.57,1.07,18.5-2.31,18.37-14.05-.06-5.19-3.98-13.3-9.52-14.12Z"/>
  <path d="M438.95,268.18c1.08.91,8.59,11.02,9.05,12.25.41,1.09.47,2.1.35,3.24-1.56.29-2.14-.15-3.31-.94s-9.24-11.07-9.84-12.43c-.57-1.29-.81-2.22-.6-3.65,1.72-.25,3.09.48,4.35,1.54Z"/>
  <path d="M538.73,292.89c.73,1.72.56,2.69-1.07,3.74s-13.24,5.45-14.95,5.42c-1.06-.02-1.62-.09-2.25-1.02.93-2.27,2.81-2.7,4.79-3.72s11.95-5.35,13.49-4.42Z"/>
  <path d="M514.98,266.73c1.17-.31,1.49.05,2.18.9.29,1.45-7.92,13.29-9.48,14.75-1.76,1.65-3.93,1.96-3.52-.85.25-1.74,9.43-14.43,10.82-14.8Z"/>
  <path d="M536.61,350.7c2.55,2.86-.69,3.47-3.54,2.57-1.6-.51-13.02-7.62-13.2-8.41.09-.46.5-2.13.59-2.2.89-.66,14.84,6.57,16.15,8.04Z"/>
  <path d="M430.6,298.14c.37.57.13,2.45-.55,2.93-.92.5-1.87.35-2.84.15-1.69-.35-14.13-6.37-15.41-7.52-1.64-1.48-.71-3.07,1.19-2.55,1.95,1.83,17.09,6.19,17.6,6.99Z"/>
  <path d="M504.06,360.34c.69-.84,4.39,3.43,4.86,3.98,1.53,1.84,3.89,5.27,5.08,7.37.86,1.52,3.11,5.56-.83,4.73-2.86-.6-10.99-13.79-9.11-16.08Z"/>
  <path d="M454.9,360.99c1.45,1.37-3.98,18.36-9.17,16.38-1.02-1.02,5.9-15.81,6.66-16.26.62-.37,1.73-.02,2.51-.12Z"/>
  <path d="M474.57,260.41c.07-.23,1.41-1.52,1.73-1.58.75-.11,1.59.67,1.86,1.26s1.05,8.82,1.05,10.14c0,1.18-.52,5.37-1.33,5.94-1.39.89-3.32.22-3.32-1.35,0-3.13-.63-12.2,0-14.42Z"/>
  <path d="M545.99,324.3h-19.33c-1.23,0-1.23-3.28,0-3.28h18.35l.98,3.28Z"/>
  <path d="M424.11,321.67v3.28h-18.02c-1.23,0-1.23-3.28,0-3.28h18.02Z"/>
  <path d="M477.19,368.2c.72.12,2.12-.26,2.54.08s1.43,9.39,1.45,10.73c.04,2.67-.77,7.32-3.99,4.59v-15.4Z"/>
  <path d="M433.76,346.71c1.29-.26,4.22-.26,3.14,1.84-1.54,1.73-7.19,6.44-9.53,4.92-2.74-1.78,4.65-6.41,6.4-6.77Z"/>
  <path d="M556.48,722.69c1.17.26,1.29-.34,1.86-1.08,4.07-5.34,5.47-26.77,1.07-31.66-1.8-2-5.34-1.18-7.66-4.79-3.71-5.79-1.89-17.37,3.1-22.08,6.32-5.97,12.7,4.99,13.35,10.87.44,3.97-.03,7.36-2.26,10.7-.7,1.05-3.25,2.86-3.34,3.63-.11,1,1.89,4.43,2.23,6.08,3.33,16.01-4.37,34.81-13.31,47.95-9.5,13.97-37.14,15.25-52.37,13.79-2.91-.28-6.14-2-8.52-2.02-2.16-.02-3.83,1.21-5.9,1.38-7.47.59-18.77-.57-25.46-4.04-1.08-.56-1.79-2.07-2.86-2.38-3.33-.99-7.78-.11-12.63-1.79-17.66-6.11-9.47-16.95,1.17-25.01l1.44-30.02c-.36-1.83-6.12-3.87-8.17-5.58-6.73-5.6-3.92-9.4-6.59-14.38-.52-.98-3.8-2.49-5.24-3.94-6.3-6.36-7.86-16.61-4.37-24.71,1.06-2.47,4.93-6.69,5.27-8.55.4-2.17-1.7-5.54-1.89-8.33-.86-12.55,8.49-12.97,13.78-20.34,2.4-3.34,3.27-7.26,6.54-10.49,7.32-7.22,20.47-8.74,29.65-4.72,1.57.69,5.08,3.51,6.18,3.62.63.06,9.22-3.77,11.88-4.27,7.23-1.36,19-.34,24.1,5.68,1.44,1.7,2.21,4.66,4.25,6.23,2.48,1.91,7.28,2.31,10.38,4.03,5.62,3.11,10.65,11.82,10.49,18.2-.06,2.52-2.02,6.34-1.87,8.55.16,2.35,3.98,7.34,4.77,10.31,1.78,6.66.83,16.04-4.22,21.11-1.56,1.56-5.91,3.52-6.65,5.14-1.12,2.45-.46,8.22-1.72,11.21,13.03,9.75,24.9,24.4,23.52,41.7ZM479.58,597.77c-11.98-8.51-26.81-7.27-34.8,5.69-.95,1.55-1.56,4.75-2.5,5.69-.8.8-3.82,2.08-5.41,3.44-4.09,3.53-7.85,8.36-7.53,14.08.15,2.69,2.64,6.93,2.47,8.45-.21,1.9-3.98,5.31-5.1,7.28-4.09,7.21-3.66,16.51,1.98,22.77,1.78,1.98,5.53,3.52,6.83,5.81,2.2,3.91-.08,7.53,4.55,12.16s10.38,3.31,15.3,6c5.4,2.95,7.18,8.05,14.7,9.54s8.7-2.25,13.99-2.25c7.11,0,8.31,4.88,18.02,1.03,5.97-2.36,6.19-7.19,10.25-9.41,2.48-1.35,5.42-1.08,7.98-1.85,8.97-2.69,10.28-11,10.92-19.22,6.61-3.12,10.75-6.35,11.4-14.15.86-10.44-4.95-12.83-5.79-18.98-.86-6.34,3.86-9.81-.78-18.19s-9.64-5.75-15.57-9.33c-2.86-1.73-4.6-7.16-7.57-9.44-8.51-6.55-23.63-3.59-31.58,2.54-1.18.22-1.25-1.3-1.76-1.66ZM558.77,664.38c-4.58,4.05-7.43,12.35-4.16,17.91,1.55,2.63,3.49,4.27,6.12,2.39,7.12-5.08,4.1-15.6-1.96-20.3ZM471.29,710.57c.75,2.68,0,13.92,0,17.69,0,3.48-4.72,4.34-6.77,5.68-4.4,2.85-9.37,14.43-1.09,14.97-1.21-2.93,6.28-11.6,5.91-5.63-.14,2.24-3.71,4.54-2.63,7.59l6.55.66c-.27-3.06.01-7.38,3.93-7.21l-.65,7.86h11.47c1.78-1.38,2.43-3.52,2.88-5.64.94-4.44.99-28.68,2.03-29.75h3.28c-.12,4.98-1.16,10.46-1.34,15.38-.05,1.48-.4,8.12,1.01,8.2l9.46-4.99c-4.1-16.54,8.39-33.18,25.82-31.71l1.09,3.3c-11.47-2.03-23.9,8.47-24.29,19.99-.15,4.28,2.09,8.13,1.74,12.17-7.18.93-16.12,3.43-15.36,12.32l4.75.79c.3-3.73,6.05-9.21,9.59-6.95s-8.05,3.78-5.92,7.55h19.33c8.76,0,23.26-6.18,27.73-14.2,10.87-19.5-1.72-44.51-19.6-54.31-2.26,1.44-4.19,3.34-6.69,4.42-2.84,1.23-7.14,1.37-9.23,2.56-1.25.71-3.61,4.32-5.33,5.81-5.61,4.84-11.11,5.23-18.35,4.63-2.6-.22-4.57-1.51-7.16-1.37-8.76.49-9.19,3.99-19.8-.51-6.15-2.61-7.93-7.55-13.97-8.63l-1.45,32.95c-1.11,3.79-16.52,10.05-9.05,16.19.05-3.25,3.23-6.58,6.56-6.55.65,2.82-5.21,6.67-3.64,9.17,5.52,4.56,4.14-5.43,9.54-4.59l-1.96,7.2c6.92,1.64,5.64-5.81,8.89-10.44,2.31-3.28,5.47-4.28,8.48-6.59l1.64-19.66c.63-.45,2.49,1.17,2.61,1.64Z"/>
  <path d="M193.45,722.02c5.48,1.94,6.04,9.34,3.86,14.03-3.54,7.61-13.43,7.12-20.24,4.99l-1.31,17.69c5.27-6.61,13.32-12.25,21.95-13.1,2.29-.23,10.33-.87,10.8,1.63,1.57,8.32-7.4,17.13-14.21,20.52-13.62,6.78-41.53,5.62-51.59-7.15-2.42-3.07-7.45-14.25-1.4-15.04,12.62-1.65,23.1,4.89,30.49,14.45l1.31-13.76c-12.55,4.83-24.3-2.38-18.99-16.38-17.34-2.32-12.75-23.75,3.93-21.63-.22-14.08,16.43-17.63,22.68-5.32,15.05-6.95,22.84,7.77,12.71,19.07ZM177.75,710.21c-.96-.79-.08-9.89-6.42-10.96-13.05-2.21-6.93,13.17-8.03,14.27-4.78.32-8.4-3.06-13.08-.3-6.56,3.87-2.15,13.28,4.4,13.94,1.65.17,4.78-1.47,5.36.51.79,2.73-7.99,11.05.65,15.7s11.64-2.74,16.17-8.2c4.55,3.45,9.87,5.65,15.15,2.09,4.24-2.86,4.07-9.82-.25-12.5-1.73-1.07-4.46-.65-4.55-3.05.02-2.04,5.66-3.78,6.98-7.15,2.65-6.78-4.11-12.86-10.5-8.54-1.52,1.03-3.94,5.8-5.9,4.2ZM171.17,767.89c-2.68-8.73-15.72-19.85-25-19.26-3.71.24-4.27.44-3.39,4.07,1.11,4.61,5.65,9.08,9.69,11.28,5.1,2.78,13.06,5.2,18.69,3.91ZM205.24,748.9c-12.49-1.19-26.04,6.12-28.18,19,12.33.91,25.54-6.27,28.18-19Z"/>
  <path d="M297.64,748.24c7.2-7.23,15.39-11.73,25.83-7.94,3.12,9.08-9.07,18.52-16.51,20.86-11.89,3.75-40.1,1.01-45.69-12.27-8.48-20.17,17.79-11.95,25.49-3.86l5.63,9.1,1.97-14.41c-11.37,2.74-22.11-.8-18.34-14.42-17.13-1.7-13.58-23.96,3.28-21.62-.84-13.62,15.37-17.79,22.01-5.95,13.25-8.04,25.3,5.63,14.03,16.76,11.94,9.6,3.47,21.43-10.17,19.99-2.17-.23-3.95-1.58-6.17-1.26.02,1.15-1.36,3.52-1.36,4.21v10.81ZM298.29,703.69c.62-6.93-7.08-12.83-12.8-7.89-4.84,4.18.55,11.35-1.58,12.84-2.58,1.81-7.18-4.76-12.8.29-7.45,6.7,2.59,14.96,10.14,13.1.72.7-7.65,14.9,5.56,15.11,9.2.15,9.77-8.53,11.91-9.16,2.6-.03,4.35,2.38,6.73,2.94,5.23,1.24,12.15-1.02,11.91-7.26s-7.31-5.67-7.95-8.53c-.52-2.32,2.97-2.15,4.62-3.9,5.94-6.29-1.95-16.65-9.82-11.13-2.08,1.46-2.14,4.35-5.92,3.58ZM289.77,758.72c-1.68-10.55-12.76-18.96-23.27-19.05-2.56-.02-3.07.3-2.81,2.82,1.16,10.92,16.34,17.31,26.07,16.24ZM319.82,743.09c-8.67-3.32-17.04,3.99-21.41,10.84-2.14,3.36-4.06,6.04,2,5.28,7.1-.89,20.04-7.92,19.41-16.12Z"/>
  <path d="M287.1,619.75c.54-3.9,3.18-7.7,7.53-7.13,4.08.53,5.19,6.02,6.71,6.46,2.03.59,4.91-2.69,8.08-.24,4.92,3.79-1.23,15.75-5.71,17.86-4.15,1.95-14.28,1.64-18.84.79-2.8-.52-8.19-9.5-8.71-12.27-1.32-6.9,6.29-6.22,10.94-5.47ZM298.3,627.68c-.27-13.3-7.94-16.83-8.52-1.31-3.8.48-5.93-3.84-9.82-3.28-1.32,1.32,4.32,10.18,6.36,11,1.52.45,13.9.36,15.25-.21,2.06-.86,8.08-10.59,5.89-12.09-5.93-1.07-4,6.39-9.15,5.88Z"/>
  <path d="M64.18,729.37c6.24-1.38,7.02,5.39,8.44,5.72,10.6-6.03,12.9.19,9.1,9.87-4.85,12.35-14.64,8.92-25.41,8.39-7.76-5.99-14.27-20.08,2.18-17.17.94-2.54,2.73-6.16,5.7-6.82ZM67.55,733.26c-4.01-2.55-6.22,7.19-6.47,9.74-3.52-.12-4.95-4.96-9.17-3.93.42,8.74,7.07,12.6,15.29,12.4,6.31-.15,11.02-4.75,12.07-10.92.22-1.27.68-5.73-1.82-4.44-1.85.84-4.48,7.15-6.15,6.87-2.22-.38-2.63-9-3.75-9.71Z"/>
  <path d="M402.25,746.71c-5.33,5.73-16.26,3.22-23.21,2.42-7.29-6.64-12.65-22.89,3.46-16.03,3.76-8.03,9.49-9.1,13.75-.59,12.58-8.45,12.46,7.25,6,14.2ZM398.12,734.71c-1.14,1.13-2.18,5.06-4.47,4.36-1.5-.46-1.09-9.85-3.94-9.17-.97.23-4.29,8.73-5.97,9.78-2.59.06-4.91-4.64-6.6-5.1-5.39-1.45,2.07,10.22,4.78,11.61s12.15.93,15.14-.42c6.68-3.01,7.62-17.58,1.06-11.06Z"/>
  <path d="M192.7,508.33c-3.44,2.13-5.98-4.18-1.65-3.66,2.2.26,3.06,2.79,1.65,3.66Z"/>
  <path d="M240.67,507.73l-.04-3.24c1.66-.19,3.13.13,3.83,1.75l-.86,2.02-2.94-.52Z"/>
  <path d="M352.69,436.34c1.7-1.21,4.06,3.17,5.41,4.08,3.36,2.27,10.45,2.63,13.83.41,2.54-1.67,2.26-5.79,5.91-5.1,2.55.81-.55,5.08-1.56,6.17-4.71,5.04-17.66,5.17-22.28.01-.97-1.08-2.63-4.63-1.3-5.58Z"/>
  <path d="M365.79,418.65c1.09,5.55-5.43,1.63-6.91,4.59-2.16,4.32,4.6,5.69,7.56,5.9-.87,6.38-10.96,2.45-11.76-3-1.15-7.86,5.12-7.92,11.1-7.49Z"/>
  <path d="M352.68,416.68c-3.9,1.06-4.41-4.81-7.57-5.26-4.76-.68-5.75,6.49-8.85,4.32-2.37-1.67,2.14-5.99,3.79-6.77,5.91-2.78,13.52.65,12.63,7.71Z"/>
  <path d="M396.58,417.99c-4.3,1-3.58-2.16-5.55-3.94-3.82-3.46-7.98,1.24-11.17,3.28-1.31.37-1.09-.69-.93-1.59,1.64-9.34,18.21-8.3,17.65,2.25Z"/>
  <path d="M236.69,442.24c-1.66,13.2-25.05,14.01-29.98,3.44-1.03-2.2-1.79-5.63,1.79-3.76,1.69.89,3.26,4.88,5.66,6.13,3.79,1.98,10.2,1.5,14.02-.24,3.39-1.55,4.59-6.01,8.51-5.57Z"/>
  <path d="M204.77,422.39c-.57-.64-.31-1.96-1.8-3.1-2.18-1.66-5.75-1.68-7.9,0-1.95,1.53-1.93,5.51-5.55,4.6-1.47-10.26,16.34-12.61,18.7-3.94.94,3.46-1.81,4.3-3.45,2.44Z"/>
  <path d="M224.24,437c-1-4.83,6.23-2.51,5.25-7.86l-8.5-.69.74-3.15c14.03-3.32,16.48,11.93,2.52,11.7Z"/>
  <path d="M252.42,420.61c-4.36.56-3.94-4.62-8.74-4.39-4.37.21-5.04,6.42-8.94,5.71-1.4-11.5,17.9-12.46,17.69-1.32Z"/>
  <path d="M121.35,647.35l-.55,9.06c2.84,1.76,4.72-1.82,7.77-1.21-.49,8.97-6.77,3.45-10.1,3.92-2.79.39-3.84,4.22-8.27.37-6.09-5.29,2.86-2.47,4.22-2.53,5.45-.26-.13-5.99-.59-7.02-1.77-3.96,5.32-3.26,7.52-2.58Z"/>
  <path d="M102.14,640.88c.81-.28,2.14-.28,2.87.21,2.6,2.79.65,8.29-3.14,6.43l-1.38-1.28c-.5-1.45.05-4.81,1.65-5.36Z"/>
  <path d="M131.03,645.21c-.78.78-2.68.84-3.77.81-2.45-10.11,7.92-4.95,3.77-.81Z"/>
  <path d="M106.63,317.76c2.35,2,.32,6.1-2.26,6.9-4.28,1.32-13.29.32-9.52-5.61,5.98,3.3,6.78,3.3,11.78-1.29Z"/>
  <path d="M102.54,311.02c-2.77-2.38,1.64-6.39,4.76-3.77,2.55,2.14-2.08,6.07-4.76,3.77Z"/>
  <path d="M91.06,309.39c1.53,1.53.24,6.45-3.12,4.76-3.62-1.82.29-7.6,3.12-4.76Z"/>
  <path d="M412.72,194.81c13.19,8.75,12.86,47.95-7.36,50.13l-216.82.06c-22.82-2.29-22.56-50.14-.61-53.01l216.22-.08c2.67.25,6.35,1.43,8.57,2.9ZM255.7,198.49c-4.64-1.05-5.43,2.55-7.2,5.89,2.68,1.98,7.7-5.47,7.2-5.89ZM204.56,207.03h-7.81s-7.89,30.76-7.89,30.76l5.81-.08,1.48-5.07,9.16.31,1.3,4.78,5.83.06-7.89-30.76ZM215.73,237.8h12.12c.76,0,4.74-2.3,5.5-3.01,6.09-5.75,5.62-21.55-2.09-25.96-.71-.41-4.23-1.83-4.73-1.83h-10.81v30.8ZM255.02,207.03h-7.81s-7.89,30.76-7.89,30.76l5.93-.29c.99-.7.94-4.54,1.34-4.89.51-.44,7.25.09,8.7.02l1.81,5.07,5.81.08-7.89-30.76ZM281.26,226.66c-3.26-2.96-5.91-16.93-8.17-19.02-1.43-1.33-4.94-.37-6.9-.64v30.8h5.9v-19l7.53,18.35,7.54.65v-30.8h-5.9v19.66ZM308.78,224.37v13.43h5.9v-12.78c0-.14,1.29-1.43,1.66-2.27,2.33-5.33,5.3-10.37,7.51-15.74l-7.13.07c-.39,1.4-3.81,10.21-4.34,10.41-1.28.48-3.01-6.24-4.07-7.07l-.9-3.35-7.14-.06,8.52,17.36ZM353.34,207h-16.38v30.8h17.04c-.18-1.98.73-4.5-.98-5.9h-9.5v-7.21h9.17v-5.9h-9.17v-5.9h9.83v-5.9ZM362.51,207.01l-6.56.33,8,29.35c1.08,2.1,5.2.76,7.3,1.14l8.95-30.82-6.49.06-5.63,21.56-5.57-21.63ZM395.84,207.1l-7.19.29-8.44,30.41,6.52-.03.72-5.17,9.73.04.73,5.16h6.54s-8.61-30.7-8.61-30.7Z" fill="#fff"/>
  <path d="M360.55,38.6c2.46.37,7.57-.94,9.22.94l11.1,27.24v-27.19c1.65-1.57,6.22-1.57,7.86,0v40.95l-9.51-.64-11.46-27.53v28.18h-7.21v-41.94Z" fill="#fff"/>
  <path d="M355.96,80.54l-7.78-.08-1.97-7.4-12.11-.29-2.41,7.74-7.84.03,11.23-41.85,9.42.56,11.46,41.29ZM344.16,65.47l-4.25-16.37-4.26,16.37h8.52Z" fill="#fff"/>
  <polygon points="319.26 38.6 319.26 47.12 305.5 47.12 305.5 54.99 318.61 54.99 318.61 62.85 305.5 62.85 305.5 72.68 319.92 72.68 319.92 80.54 297.64 80.54 297.64 38.6 319.26 38.6" fill="#fff"/>
  <path d="M367.43,117.89c8.72,1.12,12.07,14.6,4.93,19.99,6.25,4.35,7.27,16.14.87,20.54-.53.36-4.21,2.07-4.48,2.07h-16.38l-.98-.98v-40.63l.98-.98c4.76.44,10.45-.6,15.07,0ZM359.89,134.93c5.36.03,8.46.93,7.9-5.61-.41-4.8-4.03-3.38-7.9-3.57v9.17ZM359.89,153.27c4.77.27,9.71.54,9.7-5.57s-4.79-5.85-9.7-5.57v11.14Z" fill="#fff"/>
  <path d="M335.56,117.98l11.88,42.5-7.89-.3-2.01-7.49-13.12.31-1.98,7.4-7.77.08,11.14-42.58,9.74.08ZM334.99,145.41c.62-.62-2.58-12.38-3.19-14.18-.29-.86-.19-2-1.39-2.2l-3.82,15.42c.3,1.73,6.79.7,8.4.96Z" fill="#fff"/>
  <path d="M286.5,160.48l-7.9-.29-1.99-7.51-13.12.31-1.97,7.4-7.78.08,11.75-42.3,9.57.34,11.44,41.96ZM270.77,129.03c-1.75-.22-1.02.09-1.32.96-.61,1.73-3.63,12.87-3.66,14.07-.07,2.45,6.56.97,8.27,1.35l-3.28-16.38Z" fill="#fff"/>
  <path d="M298.95,152.62h13.76v7.86h-22.28v-42.59c2.72.38,6.43-.98,8.52.98v33.75Z" fill="#fff"/>
  <path d="M473.12,285.18c51.17-4.24,52.85,66.56,8.35,69.94-52.4,3.98-55.67-66.02-8.35-69.94ZM468.01,319.05c.98-6.07-4.96-8.07-10-7.05-5.2,1.05-6.72,8.68-2.87,7.62,2.13-.58,1.86-5.94,8.12-3.35,1.71.71,2.46,3.3,4.75,2.78ZM498.81,319.71c1.87-10.32-14.45-10.35-13.75-.66,3.24.16,4.27-3.53,7.54-3.35,3.09.17,2.73,4.47,6.22,4ZM466.05,328.89c1.03,9.55,17.01,9.54,20.88,2.2.62-1.17,1.41-3.79-.25-4.18-2.75-.64-7.03,9.7-13.75,5.24-2.54-1.68-2.78-4.99-6.88-3.27Z" fill="#fff"/>
  <path d="M400.19,117.89c9.06,1.17,11.04,14.53,5.83,20.9-.46.56-3.27,2.13-2.88,2.67,6.37,3.22,6.34,13.22,9.83,19.01l-8.55-.29c-3.11-5.52-3.09-17.04-11.77-15.42v15.73h-7.86v-42.59c4.85.45,10.68-.61,15.4,0ZM392.65,137.55c11.38,1.84,11.65-13.7,0-11.79v11.79Z" fill="#fff"/>
  <path d="M435.16,117.98l11.23,42.5h-7.86s-1.38-7.8-1.38-7.8l-13.12.31-1.97,7.4-7.78.08,11.45-41.95,9.43-.55ZM431.31,129.03c-1.65-.24-1.03.09-1.37.92-.65,1.56-3.56,12.68-3.62,14.11-.09,2.45,6.57.98,8.27,1.35l-3.28-16.38Z" fill="#fff"/>
  <path d="M544.45,391.37c2.82,2.8,4.16,7.05,4.46,10.94,6.44,2.03,15.4,3.08,16.12,11.4,1.11,12.79-13.37,14.38-22.54,10.29-6.03,6.09-12.84,9.6-21.18,5.26-2.03-1.06-5.8-5.05-6.58-5.26-1.31-.35-6.81,1.38-9.71,1.24-17.59-.82-16.66-23.29-.62-24.92,3.15-.32,6.37.16,9.49.35,2.61-3.18,3.62-6.82,6.9-9.52,6.13-5.03,17.83-5.58,23.66.22Z" fill="#fff"/>
  <path d="M194.67,117.98l11.88,42.5-8.49-.02-1.37-7.8-13.15.36-1.98,7.38-7.77.08,11.17-42.56,9.71.06ZM194.1,145.41c.48-.47-2.45-11.46-2.95-13.1-.27-.89-.58-3.13-1.63-3.27.23,3.15-4.37,13.21-3.86,15.34.45,1.89,6.8.73,8.44,1.03Z" fill="#fff"/>
  <path d="M158.06,152.62h13.76v7.86h-22.28v-42.59c2.72.38,6.43-.98,8.52.98v33.75Z" fill="#fff"/>
  <path d="M331.71,317.08c-.47.52-7.75-4.06-10.11-3.91-2.82.18-5.71,4.26-8.88,3.91-.71-2.92,1.92-7.45,1.2-10s-7.55-4.21-7.75-7.68l11.8-1.64,4.26-8.19c2.17-.5,2.95,7.01,5.57,8.18,1.38.62,11.24-.13,9.51,2.98-1.11,1.56-6.3,3.59-6.8,5.01-1.07,3.08,2.08,7.93,1.2,11.35Z" fill="#fff"/>
  <path d="M224.73,277.93c5.57-.84,8.45,1.64,12.39,5.03,20.18-14.03,25.41,4.2,9.06,17.73-6.12,5.06-8.31,7.15-15.32,2.26-6.58-4.59-21.3-22.72-6.12-25.01Z" fill="#fff"/>
  <path d="M156.74,49.09c-9.13-6.77-17.43-3.25-18.36,8.17-1.07,13.03,5.71,22.13,18.36,13.46-.42,3.86,1.66,7.62-2.62,9.5-8.75,3.85-17.97.29-21.74-8.4-6.27-14.46-.43-37.67,19.28-33.04,6.75,1.59,4.96,4.43,5.07,10.31Z" fill="#fff"/>
  <path d="M278.31,38.6c4.01.45,8.59,2.35,9.71,6.67,1.52,5.91.78,12.65-4.78,15.93,5.58,4.86,6.51,12.79,9.16,19.33l-8.42-.09c-2.4-4.95-3.88-19.33-11.89-14.65v14.74h-7.86v-41.94c4.5.36,9.68-.49,14.09,0ZM272.08,46.47v10.16c11.21,5.48,12.37-13.49,0-10.16Z" fill="#fff"/>
  <path d="M57.8,498.6c-3.2,4.24-6.71,7.3-4.59,13.09-5.59-1.67-10.03-2.22-15.06,1.31-.19-2.63,2.39-5.41,1.7-7.88-.8-2.88-5.58-3.36-6.29-6.53,6.79.71,10.26-.39,12.13-7.22,1.62.02,2.34,4.71,4.96,6.18,2.25,1.26,4.66,1.1,7.15,1.04Z" fill="#fff"/>
  <path d="M408.05,38.6c3.6.32,8.45,1.5,11.41,3.67,11.13,8.16,7.53,38.27-6.82,38.27h-16.05v-41.94c3.72.24,7.79-.33,11.47,0ZM404.45,72.68c18.36,3.63,18.53-29.55,0-25.55v25.55Z" fill="#fff"/>
  <path d="M241.79,38.13c22.37-.34,21.9,43.23.47,43.77-21.11.53-22.57-43.44-.47-43.77ZM239.81,45.98c-7.73,1.99-9.11,29.85,3.72,27.98,7.81-1.14,7.34-18.55,4.89-23.82-1.68-3.61-4.62-5.19-8.61-4.16Z" fill="#fff"/>
  <path d="M446.24,38.13c26.57-.91,19.86,55.48-6.65,41.68-13.01-6.78-12.63-41.02,6.65-41.68ZM452.07,71.82c4.59-5.57,4.84-28.61-7.19-25.86-7.53,1.72-7.25,21.83-2.43,26.4,2.67,2.53,7.28,2.29,9.62-.53Z" fill="#fff"/>
  <path d="M166.81,77.04c-7.79-8.71-7.27-34.17,5.65-38.13,20.19-6.19,25.53,20.13,18.94,34.01-4.49,9.47-17.42,12.14-24.59,4.11ZM175.57,45.96c-7.69,1.76-9.13,30.02,3.75,27.99,8.65-1.36,10.08-31.16-3.75-27.99Z" fill="#fff"/>
  <path d="M208.52,72.68h13.76v7.86h-22.28v-40.95l1.09-.88c2.36.03,5.68-.92,7.43.88v33.09Z" fill="#fff"/>
  <path d="M242.27,117.89c5.54.82,9.46,8.93,9.52,14.12.13,11.74-7.8,15.12-18.37,14.05v14.42h-7.86v-42.59c5.17.55,11.73-.74,16.71,0ZM233.42,138.2c5.94.08,9.94,1.15,9.88-6.22-.05-5.82-3.59-6.63-8.8-6.12l-1.09.88v11.47Z" fill="#fff"/>
  <path d="M471.29,710.57c-.13-.46-1.99-2.09-2.61-1.64l-1.64,19.66c-3.01,2.31-6.17,3.31-8.48,6.59-3.25,4.62-1.96,12.08-8.89,10.44l1.96-7.2c-5.4-.84-4.01,9.14-9.54,4.59-1.57-2.5,4.29-6.36,3.64-9.17-3.33-.03-6.5,3.29-6.56,6.55-7.47-6.14,7.93-12.4,9.05-16.19l1.45-32.95c6.04,1.09,7.81,6.02,13.97,8.63,10.6,4.5,11.04,1,19.8.51,2.59-.14,4.56,1.15,7.16,1.37,7.25.6,12.74.21,18.35-4.63,1.72-1.48,4.08-5.09,5.33-5.81,2.1-1.19,6.39-1.33,9.23-2.56,2.5-1.09,4.44-2.98,6.69-4.42,17.88,9.8,30.48,34.8,19.6,54.31-4.47,8.02-18.98,14.2-27.73,14.2h-19.33c-2.13-3.77,9.46-5.28,5.92-7.55s-9.3,3.21-9.59,6.95l-4.75-.79c-.76-8.88,8.18-11.39,15.36-12.32.35-4.04-1.88-7.88-1.74-12.17.39-11.52,12.81-22.01,24.29-19.99l-1.09-3.3c-17.42-1.47-29.91,15.18-25.82,31.71l-9.46,4.99c-1.41-.08-1.06-6.72-1.01-8.2.18-4.91,1.22-10.39,1.34-15.37h-3.28c-1.04,1.07-1.09,25.31-2.03,29.75-.45,2.11-1.11,4.26-2.88,5.64h-11.47l.65-7.86c-3.92-.17-4.2,4.15-3.93,7.21l-6.55-.66c-1.08-3.05,2.49-5.35,2.63-7.59.38-5.97-7.12,2.7-5.91,5.63-8.28-.54-3.31-12.11,1.09-14.97,2.05-1.33,6.77-2.2,6.77-5.68,0-3.77.75-15.01,0-17.69Z" fill="#fff"/>
  <path d="M479.58,597.77c.51.36.58,1.88,1.76,1.66,7.95-6.13,23.07-9.09,31.58-2.54,2.97,2.29,4.71,7.71,7.57,9.44,5.93,3.58,10.76.65,15.57,9.33s-.08,11.85.78,18.19c.84,6.15,6.65,8.54,5.79,18.98-.65,7.81-4.79,11.03-11.4,14.15-.64,8.22-1.95,16.53-10.92,19.22-2.56.77-5.5.49-7.98,1.85-4.06,2.22-4.28,7.05-10.25,9.41-9.7,3.85-10.91-1.04-18.02-1.03-5.29,0-6.85,3.67-13.99,2.25-7.53-1.49-9.3-6.59-14.7-9.54-4.92-2.69-10.65-1.35-15.3-6s-2.35-8.25-4.55-12.16c-1.29-2.3-5.04-3.83-6.83-5.81-5.64-6.25-6.07-15.56-1.98-22.77,1.12-1.97,4.88-5.38,5.1-7.28.17-1.52-2.31-5.77-2.47-8.45-.33-5.71,3.44-10.55,7.53-14.08,1.58-1.36,4.6-2.64,5.41-3.44.94-.94,1.54-4.15,2.5-5.69,8-12.96,22.82-14.19,34.8-5.69ZM519.85,633c3.11-.38,4.73-4.2,5.11-7.01,1.27-9.51-6.68-15.26-15.71-13.1-2.59.62-4.06,3.61-6.18,3.6-1.61-.01-6.72-2.9-8.86-3.54-6.01-1.78-13.7-2.19-19.96-1.64-3.11.27-7.76,2.18-10.51,2.01-2.24-.14-4.94-3.67-8.14-4.36-9.43-2.02-16.59,3.96-14.95,13.64.39,2.32,2.5,4.62,2.5,6.71s-4.34,9.47-5.11,13.27c-9.98,49.35,75.31,56.92,84.07,13.95,1.85-9.09-.14-14.98-2.25-23.55Z" fill="#fff"/>
  <path d="M558.77,664.38c6.06,4.7,9.08,15.22,1.96,20.3-2.63,1.88-4.57.24-6.12-2.39-3.27-5.56-.42-13.86,4.16-17.91Z" fill="#fff"/>
  <path d="M177.75,710.21c1.96,1.6,4.37-3.17,5.9-4.2,6.39-4.32,13.15,1.76,10.5,8.54-1.32,3.37-6.96,5.11-6.98,7.15.09,2.4,2.82,1.98,4.55,3.05,4.32,2.68,4.49,9.64.25,12.5-5.28,3.56-10.6,1.36-15.15-2.09-4.53,5.46-7.9,12.65-16.17,8.2s.15-12.96-.65-15.7c-.58-1.99-3.71-.35-5.36-.51-6.55-.66-10.96-10.07-4.4-13.94,4.68-2.76,8.3.62,13.08.3,1.1-1.1-5.02-16.48,8.03-14.27,6.34,1.08,5.46,10.18,6.42,10.96ZM164.85,715.71c-5.4,5.04-3.12,16.12,4.31,17.83,9.22,2.13,16.61-5.48,14.02-14.67-2.08-7.38-13.53-7.64-18.33-3.16Z" fill="#fff"/>
  <path d="M171.17,767.89c-5.63,1.3-13.59-1.13-18.69-3.91-4.04-2.2-8.58-6.66-9.69-11.28-.88-3.63-.32-3.84,3.39-4.07,9.27-.59,22.32,10.53,25,19.26Z" fill="#fff"/>
  <path d="M205.24,748.9c-2.64,12.72-15.85,19.9-28.18,19,2.14-12.88,15.68-20.19,28.18-19Z" fill="#fff"/>
  <path d="M298.29,703.69c3.78.77,3.84-2.13,5.92-3.58,7.87-5.52,15.76,4.84,9.82,11.13-1.65,1.74-5.13,1.58-4.62,3.9.64,2.86,7.72,2.2,7.95,8.53s-6.69,8.5-11.91,7.26c-2.38-.56-4.13-2.97-6.73-2.94-2.14.63-2.71,9.31-11.91,9.16-13.21-.21-4.84-14.41-5.56-15.11-7.55,1.86-17.6-6.4-10.14-13.1,5.62-5.06,10.22,1.51,12.8-.29,2.14-1.49-3.26-8.66,1.58-12.84,5.72-4.94,13.42.96,12.8,7.89ZM291.57,707.12c-12.51,2.16-10.48,22.61,5.45,19.21,6.66-1.42,11.38-11.31,6.22-16.78-2.84-3-7.82-3.1-11.67-2.43Z" fill="#fff"/>
  <path d="M289.77,758.72c-9.73,1.07-24.91-5.32-26.07-16.24-.27-2.52.24-2.84,2.81-2.82,10.5.09,21.59,8.5,23.27,19.05Z" fill="#fff"/>
  <path d="M319.82,743.09c.63,8.2-12.31,15.23-19.41,16.12-6.06.76-4.14-1.92-2-5.28,4.37-6.85,12.74-14.17,21.41-10.84Z" fill="#fff"/>
  <path d="M298.3,627.68c5.15.51,3.22-6.95,9.15-5.88,2.18,1.5-3.84,11.23-5.89,12.09-1.35.57-13.73.65-15.25.21-2.04-.82-7.68-9.68-6.36-11,3.89-.56,6.02,3.75,9.82,3.28.58-15.52,8.26-11.99,8.52,1.31Z" fill="#fff"/>
  <path d="M67.55,733.26c1.12.72,1.53,9.34,3.75,9.71,1.67.28,4.3-6.03,6.15-6.87,2.49-1.29,2.03,3.17,1.82,4.44-1.05,6.17-5.76,10.76-12.07,10.92-8.22.2-14.87-3.66-15.29-12.4,4.22-1.03,5.64,3.81,9.17,3.93.25-2.55,2.46-12.29,6.47-9.74Z" fill="#fff"/>
  <path d="M398.12,734.71c6.57-6.52,5.63,8.06-1.06,11.06-2.99,1.35-12.33,1.86-15.14.42s-10.17-13.06-4.78-11.61c1.69.46,4.01,5.16,6.6,5.1,1.68-1.06,5-9.55,5.97-9.78,2.84-.68,2.43,8.71,3.94,9.17,2.29.7,3.34-3.23,4.47-4.36Z" fill="#fff"/>
  <path d="M281.26,226.66v-19.66h5.9v30.8l-7.54-.65-7.53-18.35v19h-5.9v-30.8c1.96.27,5.47-.69,6.9.64,2.26,2.1,4.91,16.06,8.17,19.02Z"/>
  <path d="M215.73,237.8v-30.8h10.81c.5,0,4.02,1.42,4.73,1.83,7.71,4.41,8.17,20.2,2.09,25.96-.76.72-4.75,3.01-5.5,3.01h-12.12ZM221.62,231.9c5.59.69,8.64-1.14,9.21-6.85.72-7.27-.8-12.63-9.21-12.16v19Z"/>
  <path d="M255.02,207.03l7.89,30.76-5.81-.08-1.81-5.07c-1.44.07-8.18-.46-8.7-.02-.4.34-.35,4.19-1.34,4.89l-5.93.29,7.89-30.76h7.81ZM254.39,226.66l-2.94-10.48c-1.3,1-3.35,10.09-2.95,10.48h5.9Z"/>
  <path d="M204.56,207.03l7.89,30.76-5.83-.06-1.3-4.78-9.16-.31-1.48,5.07-5.81.08,7.89-30.76h7.81ZM203.28,226.66l-2.29-11.14c-1.24,1.19-3.39,10.69-2.95,11.13h5.25Z"/>
  <path d="M395.84,207.1l8.61,30.7h-6.54s-.73-5.17-.73-5.17l-9.73-.04-.72,5.17-6.52.03,8.44-30.41,7.19-.29ZM395.27,226.66c.35-.33-1.77-8.1-2.16-9.31-.22-.69-.17-1.98-1.11-1.82l-2.63,11.13h5.89Z"/>
  <path d="M353.34,207v5.9h-9.83v5.9h9.17v5.9h-9.17v7.21h9.5c1.71,1.4.8,3.92.98,5.9h-17.04v-30.8h16.38Z"/>
  <path d="M362.51,207.01l5.57,21.63,5.63-21.56,6.49-.06-8.95,30.82c-2.1-.38-6.22.96-7.3-1.14l-8-29.35,6.56-.33Z"/>
  <path d="M308.78,224.37l-8.52-17.36,7.14.06.9,3.35c1.06.83,2.79,7.55,4.07,7.07.53-.2,3.95-9.01,4.34-10.41l7.13-.07c-2.22,5.37-5.18,10.42-7.51,15.74-.37.84-1.66,2.13-1.66,2.27v12.78h-5.9v-13.43Z"/>
  <path d="M255.7,198.49c.49.42-4.53,7.86-7.2,5.89,1.78-3.33,2.57-6.93,7.2-5.89Z"/>
  <path d="M344.16,65.47h-8.52s4.26-16.37,4.26-16.37l4.25,16.37ZM340.88,62.85l-1.3-5.23-1.32,5.23h2.61Z"/>
  <path d="M359.89,153.27v-11.14c4.9-.28,9.69-.76,9.7,5.57s-4.93,5.84-9.7,5.57ZM367.01,145.5l-5.15-.75v5.9s5.17-.73,5.17-.73l-.02-4.42Z"/>
  <path d="M359.89,134.93v-9.17c3.87.19,7.49-1.24,7.9,3.57.56,6.54-2.54,5.63-7.9,5.61ZM365.72,129.09c-.21-.34-3.61-.97-3.86-.72v3.94s3.31-.29,3.31-.29c.69-.48.92-2.33.55-2.92Z"/>
  <path d="M334.99,145.41c-1.62-.26-8.11.77-8.4-.96l3.82-15.42c1.2.21,1.1,1.34,1.39,2.2.61,1.8,3.81,13.56,3.19,14.18ZM332.37,142.13l-1.96-4.58-.66,4.58h2.62Z"/>
  <path d="M270.77,129.03l3.28,16.38c-1.71-.38-8.34,1.1-8.27-1.35.03-1.2,3.06-12.34,3.66-14.07.3-.87-.42-1.18,1.32-.96ZM271.42,142.13l-1.96-4.58-.66,4.58h2.62Z"/>
  <path d="M466.05,328.89c4.1-1.72,4.34,1.59,6.88,3.27,6.72,4.46,11-5.89,13.75-5.24,1.67.39.87,3.01.25,4.18-3.87,7.34-19.85,7.35-20.88-2.2Z"/>
  <path d="M468.01,319.05c-2.29.53-3.04-2.07-4.75-2.78-6.26-2.59-6,2.77-8.12,3.35-3.85,1.06-2.34-6.57,2.87-7.62,5.05-1.02,10.99.98,10,7.05Z"/>
  <path d="M498.81,319.71c-3.49.47-3.13-3.83-6.22-4-3.27-.18-4.3,3.51-7.54,3.35-.69-9.69,15.62-9.66,13.75.66Z"/>
  <path d="M392.65,137.55v-11.79c11.65-1.9,11.38,13.64,0,11.79ZM398.45,129.12l-3.84-.1v5.25l3.84-.1c.92-1.67.91-3.39,0-5.05Z"/>
  <path d="M431.31,129.03l3.28,16.38c-1.7-.38-8.36,1.1-8.27-1.35.05-1.43,2.96-12.55,3.62-14.11.35-.83-.28-1.16,1.37-.92ZM431.97,142.13l-1.96-4.58-.66,4.58h2.62Z"/>
  <path d="M194.1,145.41c-1.63-.3-7.98.86-8.44-1.03-.51-2.13,4.09-12.19,3.86-15.34,1.05.14,1.36,2.38,1.63,3.27.5,1.64,3.43,12.63,2.95,13.1ZM190.82,142.14c.19-.18.08-4.59-1.3-4.58l-.66,4.58h1.96Z"/>
  <path d="M272.08,46.47c12.37-3.33,11.21,15.64,0,10.16v-10.16ZM277.88,49.18l-3.18-.1v5.25c4.37.63,4.71-1.65,3.18-5.15Z"/>
  <path d="M404.45,72.68v-25.55c18.53-3.99,18.36,29.19,0,25.55ZM406.42,49.74v19.33c0,2.34,8.16,1.04,9.12-5.96.93-6.8-.57-14.59-9.12-13.37Z"/>
  <path d="M239.81,45.98c3.99-1.03,6.93.55,8.61,4.16,2.45,5.27,2.92,22.68-4.89,23.82-12.83,1.86-11.45-25.99-3.72-27.98ZM241.11,48.55c-7.29,1.49-6.23,28.1,3.42,21.81,4.94-3.22,5.06-23.54-3.42-21.81Z"/>
  <path d="M452.07,71.82c-2.33,2.83-6.94,3.06-9.62.53-4.82-4.56-5.1-24.67,2.43-26.4,12.03-2.75,11.78,20.3,7.19,25.86ZM445.56,48.55c-6.23,1.3-6.5,23.29,1.76,22.81,7.21-.42,7.86-24.81-1.76-22.81Z"/>
  <path d="M175.57,45.96c13.83-3.16,12.4,26.64,3.75,27.99-12.88,2.02-11.44-26.24-3.75-27.99ZM180.81,49.28c-3.47-2.87-7.7,1.01-8.29,4.76-.69,4.36-1.07,20.28,6.99,16.83,5.54-2.37,5.26-18.31,1.3-21.59Z"/>
  <path d="M233.42,138.2v-11.47l1.09-.88c5.21-.51,8.75.29,8.8,6.12.06,7.37-3.94,6.3-9.88,6.22ZM236.04,135.59c4.62.98,6.82-2.58,3.94-6.23l-3.94-.32v6.56Z"/>
  <path d="M519.85,633c2.12,8.56,4.11,14.46,2.25,23.55-8.76,42.97-94.05,35.39-84.07-13.95.77-3.8,5.11-11.11,5.11-13.27s-2.11-4.39-2.5-6.71c-1.64-9.69,5.52-15.66,14.95-13.64,3.2.69,5.9,4.22,8.14,4.36,2.75.17,7.4-1.74,10.51-2.01,6.26-.55,13.95-.14,19.96,1.64,2.15.64,7.26,3.53,8.86,3.54,2.11.01,3.59-2.98,6.18-3.6,9.03-2.17,16.98,3.59,15.71,13.1-.37,2.81-2,6.64-5.11,7.01ZM458.02,613.42c-.94-.91-4.64-1.55-6.06-1.52-7.01.14-10.45,8.07-6.24,13.52.57.46,1.4-.41,1.93-.74,1.26-.81,10.03-7.69,10.6-8.44.68-.89.56-2.05-.23-2.81ZM475.09,614.77c-22.52,2.09-40.52,23.29-31.82,45.84,13.51,35.02,89.57,23.82,73.74-22.63-5.95-17.47-24.55-24.82-41.92-23.21ZM514.16,626.75c1.35,1.16,2.85,2.13,3.98,3.54,8.84-8.85-3.91-20.62-11.42-10.89.11.61,6.34,6.41,7.44,7.35Z"/>
  <path d="M164.85,715.71c4.8-4.48,16.26-4.22,18.33,3.16,2.59,9.19-4.8,16.8-14.02,14.67-7.43-1.71-9.7-12.79-4.31-17.83ZM171.66,716.28c-11.25,2.18-4.84,18.24,4.34,13.54,7.54-3.86,4.01-15.16-4.34-13.54Z"/>
  <path d="M291.57,707.12c3.85-.66,8.83-.57,11.67,2.43,5.16,5.47.44,15.35-6.22,16.78-15.93,3.4-17.96-17.05-5.45-19.21ZM292.22,710.4c-11.99,2.23-.7,20.95,8.03,9.34,4.83-6.42-1.52-10.55-8.03-9.34Z"/>
  <path d="M221.62,231.9v-19c8.41-.47,9.93,4.89,9.21,12.16-.57,5.71-3.61,7.53-9.21,6.85Z" fill="#fff"/>
  <path d="M254.39,226.66h-5.9c-.39-.39,1.65-9.48,2.95-10.48l2.94,10.48Z" fill="#fff"/>
  <path d="M203.28,226.66h-5.25c-.44-.44,1.72-9.95,2.95-11.14l2.29,11.14Z" fill="#fff"/>
  <path d="M395.27,226.66h-5.89s2.63-11.13,2.63-11.13c.94-.16.89,1.14,1.11,1.82.39,1.21,2.51,8.98,2.16,9.31Z" fill="#fff"/>
  <polygon points="340.88 62.85 338.27 62.85 339.58 57.61 340.88 62.85" fill="#fff"/>
  <polygon points="367.01 145.5 367.02 149.93 361.86 150.66 361.85 144.75 367.01 145.5" fill="#fff"/>
  <path d="M365.72,129.09c.37.59.14,2.44-.55,2.92l-3.31.29v-3.94c.25-.25,3.65.38,3.86.72Z" fill="#fff"/>
  <polygon points="332.37 142.13 329.75 142.13 330.41 137.55 332.37 142.13" fill="#fff"/>
  <polygon points="271.42 142.13 268.81 142.13 269.47 137.55 271.42 142.13" fill="#fff"/>
  <path d="M398.45,129.12c.91,1.66.92,3.38,0,5.05l-3.84.1v-5.25l3.84.1Z" fill="#fff"/>
  <polygon points="431.97 142.13 429.35 142.13 430.01 137.55 431.97 142.13" fill="#fff"/>
  <path d="M190.82,142.14h-1.96s.66-4.58.66-4.58c1.38,0,1.49,4.4,1.3,4.58Z" fill="#fff"/>
  <path d="M277.88,49.18c1.53,3.5,1.19,5.78-3.18,5.15v-5.25s3.18.1,3.18.1Z" fill="#fff"/>
  <path d="M406.42,49.74c8.55-1.21,10.05,6.58,9.12,13.37-.96,7-9.12,8.3-9.12,5.96v-19.33Z" fill="#fff"/>
  <path d="M241.11,48.55c8.48-1.73,8.36,18.58,3.42,21.81-9.65,6.3-10.71-20.32-3.42-21.81Z" fill="#fff"/>
  <path d="M445.56,48.55c9.62-2,8.98,22.39,1.76,22.81-8.26.48-8-21.52-1.76-22.81Z" fill="#fff"/>
  <path d="M180.81,49.28c3.96,3.28,4.24,19.22-1.3,21.59-8.06,3.45-7.68-12.47-6.99-16.83.59-3.75,4.82-7.63,8.29-4.76Z" fill="#fff"/>
  <path d="M236.04,135.59v-6.56l3.94.32c2.88,3.65.68,7.21-3.94,6.23Z" fill="#fff"/>
  <path d="M475.09,614.77c17.37-1.61,35.97,5.74,41.92,23.21,15.83,46.45-60.23,57.65-73.74,22.63-8.7-22.55,9.3-43.75,31.82-45.84ZM456.06,636.99c-5.92.98-7.72,9.17-2.47,6.73,1.35-.62,2.39-3.38,4.27-3.62,2.41,0,4.03,7.59,6.6,3.98,2.39-3.36-4.48-7.75-8.39-7.1ZM500.77,648.64c.22-9.65-15.21-12.14-14.36-1.36,3.61,1.01,2.96-3.91,7.32-3.12,3.38.62,2.4,5.82,7.04,4.48ZM477.02,648.81c-1.74-1.5-10.93-1.71-12.02,1.78-1.49,4.82,4.69,6.53,3.37,9.2s-4.88,2.17-6.64.05c-.93-1.12-.48-2.86-1.86-2.63-5.51,1.26.12,8.74,6.45,7.8,1.22-.18,2.37-1.3,3.34-1.29,1.19.02,1.98,1.59,3.12,2.1,4.69,2.08,11.31.7,10.95-5.38-.61-.67-10.16,6.44-11.69-1.14-.76-3.73,9.61-6.51,4.98-10.5Z" fill="#fff"/>
  <path d="M514.16,626.75c-1.1-.94-7.33-6.74-7.44-7.35,7.51-9.73,20.26,2.04,11.42,10.89-1.14-1.41-2.64-2.38-3.98-3.54Z" fill="#fff"/>
  <path d="M458.02,613.42c.79.76.91,1.93.23,2.81-.58.75-9.34,7.63-10.6,8.44-.52.33-1.35,1.2-1.93.74-4.21-5.45-.77-13.38,6.24-13.52,1.42-.03,5.11.61,6.06,1.52Z" fill="#fff"/>
  <path d="M171.66,716.28c8.36-1.62,11.89,9.67,4.34,13.54-9.19,4.71-15.59-11.35-4.34-13.54Z" fill="#fff"/>
  <path d="M292.22,710.4c6.51-1.21,12.86,2.91,8.03,9.34-8.73,11.62-20.03-7.11-8.03-9.34Z" fill="#fff"/>
  <path d="M477.02,648.81c4.63,3.99-5.73,6.77-4.98,10.5,1.54,7.58,11.08.47,11.69,1.14.36,6.08-6.27,7.46-10.95,5.38-1.14-.51-1.93-2.08-3.12-2.1-.97-.02-2.12,1.1-3.34,1.29-6.34.94-11.96-6.54-6.45-7.8,1.38-.24.93,1.51,1.86,2.63,1.77,2.12,5.36,2.55,6.64-.05s-4.87-4.37-3.37-9.2c1.08-3.5,10.28-3.28,12.02-1.78Z"/>
  <path d="M500.77,648.64c-4.63,1.34-3.65-3.86-7.04-4.48-4.36-.8-3.71,4.13-7.32,3.12-.85-10.78,14.58-8.29,14.36,1.36Z"/>
  <path d="M456.06,636.99c3.92-.65,10.78,3.74,8.39,7.1-2.57,3.61-4.19-3.99-6.6-3.98-1.88.24-2.92,2.99-4.27,3.62-5.25,2.44-3.45-5.76,2.47-6.73Z"/>
</svg>