<?xml version="1.0" encoding="UTF-8"?>
<svg id="Camada_1" xmlns="http://www.w3.org/2000/svg" version="1.1" viewBox="0 0 595.28 841.89">
  <!-- Generator: Adobe Illustrator 29.0.0, SVG Export Plug-In . SVG Version: 2.1.0 Build 186)  -->
  <path d="M.14,840.63V-.06h595v840.69H.14ZM591.85,3.23H3.43v647.44c14.39,5.15,27.33-6.56,41.77-5.94,11.88.51,22.8,10.66,35.15,9.22-4.62-12.57-10.26-24.77-12.94-38-1.44-7.1-4.39-28.38-2.02-34.46s29.16-16.42,36-18.9v-13.8c-11.85,6.96-28.95,10.72-40.78,1.66-7.13-5.46-12.38-20.38.96-18.7,5.38.68,8.85,5.41,15.07,1.82,8.71-5.03-2.43-5.89-5.29-6.99-29.38-11.3-16.8-65.11,14.49-63.84,4.5.18,17.52,8.01,18.82,2.23l-1.29-39.09c-9.58,1.07-17.46,4.51-26.26-1.68-16.11-11.35,1.69-35.74,10.31-46.62-12.6-11.72-1.29-24.61,10.01-11.16.64.67,1.25.28,1.67-.35.91-1.36,1.48-13.09,1.01-14.68-.19-.64-4.84-1.11-3.95-7.29,1.13-7.86,16.92-7.59,15.73,2.5-.25,2.15-2.21,3.55-2.57,5.36-1,5.02,2,7.98,2.23,12.82,5.53,3.69,8.3-8.94,8.27-12.24s-2.2-4.05-2.61-6.57c-2-12.28,18.84-11.51,14.79,1.72-.69,2.27-3.71,3.12-4.27,6.25-.87,4.94.66,11.12,1.28,16.06,1.65,1.3,10.79-9.72,18.34-5.52,9.19,5.11-3.65,20.55-12.43,18.02l2.12,16.28,15,5.13c.54-.42,2.07-11.48,1.95-12.53-.2-1.66-2.44-2.5-2.99-4.24-3.08-9.81,11.04-11.95,12.71-4.83,1.07,4.57-1.52,6.87-1.85,11.01-1.32,16.54,10.84,7.17,9.74-2.46-.18-1.56-1.56-2.75-1.8-4.14-1.44-8.59,11.69-9.92,13.47-2.91,1.68,6.61-5.61,7.87-5.61,11.52v12.16c6.56.36,13.76-8.44,19.88-3.3,8.17,6.86-4.54,17.17-11.99,15.79l2.3,20.36c8.41-8.92,17.53-17.09,26.34-25.59.8-.77.76-2.28,1.37-2.71,3.68-2.6,17.62,2.16,20.61-.93,2.38-2.45,2-14.44,1.9-18.01-9.06-.78-59.58-16.19-62.09-22.44-.65-1.62,1.1-3.01-.29-4.25-.59-.53-9.9-2.52-12.28-3.51-4.89-2.03-19.45-11.03-20.56-16.25-.93-4.39,1.7-3.73,1.91-4.59.52-2.05-6.99-6.25,1.16-8.69.95-.28,3.34-.03,3.46-.15.19-.18-.29-3.73.34-5.25,2.96-7.24,22.59,3.51,26.28,7.2,5.9-16.03,12.45-1.07,16.56,6.61,17.02,1.07,32.68,10.27,50.18,9.83l-3.25-21.92c-13.28.3-17.26-20.74-4.04-22.82-.88-6.62-1.47-13.36,3.35-18.68,3.17-3.5,8.23-4.21,11.32-6.9,2.88-2.5,4.83-7.72,8.71-11.2,17.25-15.48,55.17-15.94,72.02.33,3.73,3.6,5.21,9.05,8.27,12.11,5.18,5.18,13.55,5.29,14.08,15.55.12,2.29-1.53,7.62-1.27,8.43.39,1.19,5.93,1.67,7.01,8.13.92,5.52-.36,9.28-4.77,12.66-1.37,1.05-6.43,3.02-6.74,3.45-.65.9-3.66,20.68-3.45,21.85,6.74-.05,13.26-1.12,19.86-2.49,11.08-2.31,22.32-7.86,33.58-7.79,4.97-5.45,12.97-22.71,16.58-5.83,5.46-4.05,28.81-16.86,22.69-.66h5.26c-1.08-15.13,14.82-24.49,28.26-24.65,21.77-42.02,61.75-72.36,108.9-79.77,3.88-.61,9.35.2,12.74-1.72V3.23ZM591.85,232.63c-50.13,2.42-96.3,34.41-119.01,78.54,7.06-.44,11.97,3.84,18.36,5.55,16.44-31.07,48.29-55.88,82.77-63.51,5.88-1.3,12.35-1.38,17.88-3.16v-17.42ZM591.85,253.01c-41.67,2.8-80.03,29.29-99.16,65.95l5.2,9.6,11.12-2.26c12.34-26.8,40.4-47.35,69-53.93,4.38-1.01,9.96-.85,13.84-2.6v-16.76ZM328.63,272.96c-23.89-23.61-70.06-13.73-80.65,19.13-10.72,33.26,10.01,43.71,37.73,27.9,2.42,4.98,5.96,6.54,11.42,4.81,2.34-.74,5.04-4.56,5.86-4.68.45-.07,6.63,3.62,8.14,4.19,14.9,5.64,29.97,5.68,30.92-13.76.63-12.89-4.13-28.41-13.42-37.59ZM591.85,272.72c-33.66,2.46-64.62,23.65-80.21,53.23,6.68.04,10.69,5.48,16.37,7.85,13.49-23.75,37.18-39.18,63.84-44.33v-16.76ZM242.98,287.43c-3.96,3.85-8.24,13.71-4.12,18.42,5.31,6.05,6.36-12.84,6.8-15.4.64-3.72,3.95-9.47-2.69-3.01ZM341.37,285.87c1.27,3.98,1.61,17.54,3.97,20.04,1.73,1.84,3.95-.11,4.43-2.11,1.72-7.14-1.64-14.94-8.4-17.93ZM591.85,292.44c-19.5,2.35-39.63,14-52.58,28.61-5.92,6.68-13.37,15.11-7.93,24.32l15.14.97c5.82-21.2,26.4-31.74,45.37-39.11v-14.79ZM347.28,327.28c13.42-1.52,12.63-20.65-1.36-18.77l1.36,18.77ZM241.99,309.63c-15.43-6.15-16.3,16.4-3.23,17.63l3.23-17.63ZM591.85,310.85c-19.78,4.83-36.07,16.97-43.96,35.95,19.06,18.88-4.83,32.35-23.42,31.08-4.91-.34-12.61-4.64-15.82-4.49-2.13.1-6.77,3.54-9.32,4.36-7.8,2.51-20.24,2.15-27.92-.72-2.64-.99-6.01-3.97-8.81-4.36-4.13-.58-8.92,1.95-13.1,1.99-7.9.07-16.99-3.99-22.34-9.73-2.67,3.18-14.64,1.62-16.16,2.73-.62.45-.45,4.64-3.28,7.23-12.34,11.32-43.83,13.21-59.79,17.46l3.02,19.76,18.26-.79c6.08-16.8,29.84-21.22,33.7-.53l7.45-.08c4.19-21.13,32.75-12.89,26.98,7.26,5.67-1.67,13.86,10.53,16.25,11.08s7.24-3.98,9.72.1c2.11,8.83-8.56,12.24-13.46,17.42,5.18,5.86,28.06,24.31,28.77,31.03.17,1.58-1.63,7.56-1.16,8.07,9.2-2.86,20.52-4.19,28.88,1.69,2.1,1.48,5.71,7.15,6.4,7.4,2.51.88,5.38-.66,7.7-.51,9.67.61,19.11,14.29,16.54,23.67-.42,1.53-3.23,4.07-2.84,6.13.11.61,4.28,4.54,5.23,6.55,3.17,6.73,2.76,18.32-2.72,23.8-1.04,1.04-5.64,3.42-5.79,3.73-.66,1.32.04,8.33-.44,11.07-1.02,5.88-6.63,11.66-12.22,13.41-5.22,1.64-11.77-.93-13.14,4.6,5.66,4.06,16.75,1.84,17.1,10.54.21,5.29-2.38,17.05-3.58,22.69-2.48,11.68-6.66,22.82-10.21,34.16h13.48c3.33,0,14.34-6.1,19.05-7.25,19.94-4.87,31.8,8.14,50.97,5.28v-341.8ZM496.55,331.2c-3.64-19.43-34.1-22.87-46.47-10.25-1.29,1.32-5.44,7.94-5.84,9.6-1.09,4.5,1.38,6.36,1.02,8.85-.26,1.82-2.67,2.48-2.67,3.99,0,2.32,5.02,2.48,1.89,7.79-2.27,3.85-14.83,11.03-14.3,13.12,1.13,4.47,16.29,8.23,20.54,8.08,3.78-.13,8.78-2.7,11.87-2.35,2.59.29,7.07,4.17,9.92,5.25,6.58,2.5,17.29,2.75,24.15,1.11,3.81-.91,8.96-4.97,12.03-5.11,3.89-.18,11.4,4.42,17.06,4.66,2.76.12,6.31-.36,9.04-.86,27.12-5.07,21.19-33.1-4.74-27.42-3.11-18.36-17.25-22.5-33.5-16.46ZM343.98,320.05c-3.39,2.27-4.91,5.22-8.76,7.33-6.3,3.46-10.84,3.63-17.67,1.67-3.53-1.01-10.24-5.05-13.36-5.12-4.2-.1-6.66,5.8-14.14,3.69-1.69-.48-3.49-2.88-4.61-3.29-3.49-1.29-11.24,3.46-15.23,4.44-6.83,1.68-11.84,1.48-18.06-2.03-4.37-2.46-5.61-6.07-9.41-8.67-9.41,42.1,27.65,62.98,65.1,56.22,26.81-4.84,42.31-27.43,36.14-54.24ZM180.28,339.11c-1.16,1.36-19.99-13.32-27.14-11.03-.6.19-1.66,1.03-1.74,1.58-.54,3.6,19.62,10.11,17.05,12.73-3.75-.53-20.78-11.78-22.92-6.15-2.67,7.01,14.28,6.13,15.69,12.06-1.1.88-11.82-4.61-14.16-4.58-1.69.02-1.08,2.49-.82,3.46,1.93,6.98,23.03,16.59,30.33,16.84,3.76-7.64,7.09-14.9,12.91-21.28l-6.57-12.17c-4.39-.09-1.86,7.65-2.62,8.54ZM436.03,330.57c-6.83-3.36-20.83,9.66-23.99,9.87-2.19.14-.24-2.98-.34-4.29-.12-1.57-.59-4.78-2.85-4.19l-8.9,13.3c4.98,5.91,7.37,13.34,9.2,20.72,13.35.59,26.19-6.49,33.36-17.45l-1.63-2.05c-2.39-.46-9.21,4.93-11.21,5.02-3.4.15-.17-3.04,1.3-3.98,4.05-2.6,12.37-2.9,10.98-9.72-.59-.69-15.14,4.81-17.44,5.24-1.02.19-1.22,1.24-2.26-.32.18-2.45,14.92-7.13,13.79-12.16ZM127.7,373.94c-1.97-5.82-4.36-18.13-1.6-23.6.9-1.79,3.49-2.54,3.97-5.29,1-5.75-7.8-6.99-10.2-2.91s2.06,4.69,2.9,6.86c.91,2.37-2.69,15.8-4.98,17.35-1.84,1.24-7.16.94-8.75-.22-.62-.45-3.83-13.75-3.7-14.84.21-1.87,2.71-2.58,3.15-4.1,2.16-7.43-9.76-8.42-9.76-1.82,0,3.75,3.4,3.39,3.96,5.93.41,1.83-.97,14.74-1.81,16.57-1.7,3.69-10.71,9.84-13.93,13.68-4.47,5.31-6.96,11.88-10.53,17.73,4.96,1.46,9.62.96,14.87,2.21,9.22,2.2,16.54,8.29,14.06,18.49l11.82-8.54c-.28,4.97-11.05,9.37-11.81,12.84l1.95,41.06c10.5-2.51,20.42.08,30.88,1.29,3.54-11.59-10.33-8.12-11.83-19.35-1.83-13.7,9.53-19.84,9.89-28.97.27-6.99-4.5-6.98-5.23-11.18-1.26-7.15,3.6-6.57,3.97-9.81.35-3.04-4.29-15.87-3.36-16.78,5.57.25,17.34-3.78,16.42-10.78-1.48-11.33-19.12,4.95-20.35,4.2ZM239.45,411.41h109.14l-3.28-28.26,2.41,5.28c9.58,2.08,55.07-9.42,59.34-16.22,2.35-3.74-6.6-26.28-11.11-27.59-2.26-.66-34.52,8.42-40.64,9.42-3.96.65-8.8.48-12.86.95-23.26,30.86-75.62,30.6-98.22-.78-5.81-.2-11.62-1.06-17.28-2.29-6.67-1.45-29.21-9.19-33.69-8.05-6.13,1.55-14.2,19.2-14.66,25.46,17.85,11.27,39.31,18.47,60.43,20.29l3.04-7.14-2.62,28.92ZM86.5,373.05c.77.73,2.07,1.65,3.21,1.45,13.81-6.34-2.86-16.67-5.28-8.63-.69,2.36.33,5.53,2.07,7.18ZM159.39,387.89c.23-.47,2.1-.35,2.5-2.48,1.29-6.99-11.02-6.59-8.94.38.62,2.1,2.9,2.45,3.34,3.28.77,1.44-1.24,13.64-2.16,15.58-1.49,3.15-8.67,8.45-11.3,11.71-3.89,4.84-6.59,10.88-10.54,15.74,10.85,3.19,26.55,5.2,25.65,20.06,4.83-1.4,6.69-7.01,11.82-7.88,1.86,2.36-9.69,8.5-10.69,10.67-1.56,3.41.92,8.04.18,11.68l23.97-22.36-.22-25.2c1-2.75,14.39-.6,14.43-9.29.06-11.56-17.11,2.65-21,.23-1.36-8.83-2.6-17.96,4.92-24.21.58-2.55-3.78-4.15-5.96-3.97-4.76.71-1.9,10.22-2.64,14.5-.87,5.07-4.87,11.45-10.71,8.02-2.36-1.39-3.64-14.43-2.65-16.46ZM379.91,419.54c8.93,10.33-6.75,17.19-15.87,16.19-4.76-.52-11.93-5.9-15.92-5.8-.81.02-1.03.29-1.5.88,4.53,8.81,20.08,15.59,29.91,15.49,10.62-.11,23.37-8.37,24.6-19.5,1.06-9.59-6.46-8.17-6.46-12.43,0-2.88,2.83-3.79,5.22-3.93,1.79-1.16-1.99-5.91-2.96-6.93-6.8-7.09-16.32-4.93-21.65,2.7-7.34,10.5.11,8.09,4.64,13.32ZM136.06,401.03c-.81.23-2.12,1.52-2.34,2.33.11,10.04,11.59,12.86,14.7,2.82-2.04-2.84-9.14-6.07-12.36-5.15ZM420.08,401.05c-3.7.77-8.72,6.63-6.72,10.35.56,1.05,3.43,1.36,3.59,4.33.21,3.78-5.06,4.25-5.86,8.54-2.62,14,11.49,23.06,23.96,23.34,9.94.22,22.27-7.47,26.35-16.45.66-4.94-11.24,5.26-12.62,5.81-8.39,3.31-21.64,1.51-20.48-9.92.64-6.29,4.92-5.62,6.75-9.72,4.36-9.76-5.17-18.33-14.97-16.28ZM101.16,422.36c2.9-3.12,2.76-8.27.78-11.83-3.91-7.03-20.17-8.68-27.42-8.23-3.59,9.32-.89,18.7,8.97,22.08,5.11,1.75,13.67,2.28,17.67-2.02ZM399.03,412.81c-3.41.8-1.04,4.9,2.18,2.9,1.63-1.01-.53-3.29-2.18-2.9ZM425.84,474.51h25.31c-4.09-6.55-16.81-13.53-19.56-20.22-.73-1.78.74-6.28-3.5-5.14l-2.58,5.63c1.43-7.84-5.34-7.99-9.81-11.56-6.15-4.92-8.91-13.2-7.13-20.81.25-1.06,1.91-1.63,1.76-2.69-.06-.45-1.61-1.69-2.09-2.57-1.39-2.55.74-4.66-5.46-2.5-.94,6.69,1.4,11.44-.98,18.08-1.36,3.81-4.33,6.09-6.52,9.21l30.55,32.57ZM411.05,414.05c-1.53,1.57,1.88,6.4,3.65,2.63,1-2.14-3.07-3.22-3.65-2.63ZM139.98,417.14c2.48-2.73-4.49-4.59-1.76.85.1.07,1.56-.62,1.76-.85ZM243.73,414.7h-24.65l50.31,59.14c8.34.64,17.4-.11,25.95-.31l-51.61-58.83ZM322.95,474.51c-16.1-20.65-34.04-39.83-50.95-59.81h-24l50.62,59.81h24.33ZM295.67,414.7h-19.4l49.52,58.29,24.12,1.52-.33-1.96-53.9-57.85ZM380.81,474.51l-55.56-59.81h-25.31c17.7,20.67,36.58,40.31,55.56,59.81h25.31ZM370.29,414.7h-41.42l15.11,15.77c.53-6.42,7.42-1.09,10.5-2.29,1.85-.72,5.45-6.55,7.59-8.22,2.56-1.99,6.47-2.41,8.21-5.26ZM270.35,485.69c.78-13.31-14.01-22.41-22.03-31.54-10.86-12.36-20.48-25.85-32.21-37.46l-54.89,52.9,11.82.64,44.95-41.67c13.53,15.15,25.44,31.98,39.54,46.62,1.4,1.45,11.26,12.24,12.82,10.51ZM356.48,431.12c5.54,4.26,26.27,1.06,23.53-8.06-3.19-10.61-22.74-.15-23.53,8.06ZM432.28,422.78c-1.01,1.02-2.03,4.89-1.87,6.42.64,6.25,8.19,7,13.17,6.52,19.3-1.86-4.47-19.88-11.3-12.94ZM285.47,488.98h-16.11c-2.02,0-10.27-9.6-12.81-10.86l-38.57-46.28-42.97,40.69c8.48,2.11,13.47,9.6,18.15,16.38,10.26-5.18,21.7-6.66,32.83-3.26,3.35,1.03,11.19,6.52,12.51,6.62,1.44.11,6.25-2.96,9.15-3.3,22.73-2.66,36.2,21.43,31.7,41.55-.75,3.35-4.29,9.05-4.38,12.07-.07,2.52,2.05,5.44,2.52,7.9,2.36,12.59,2.98,25.05.73,37.72l7.24.66v-99.91ZM131.42,435.15c-2.84.9-2.77,9.75-2.37,12.04,2.44,14.33,34.22,13.22,24.57-2.88-2.49-4.16-18.33-10.39-22.2-9.17ZM384.09,474.51h38.13l-28.25-30.55c-.77-.26-8.3,2.41-9.04,3.14-2.36,2.33-.23,5-1.84,7.03l-1.26-5.29c-6.49-2.07-7.59-.55-9.25,5.29-2.3-1.12.17-5.27-.33-5.9-.64-.79-16.79-2.55-18.75-7.22l30.58,33.51ZM474.17,474.51l-25.42-26.88c-4.11-1.92-12.07,2.55-10.74,7.83l-1.32-.98c1.39-6.91-4.86-5.64-2,.02.81,1.61,14.14,15.12,16.12,16.74,8.58,7,13.25,2.54,23.36,3.26ZM156.61,457.43l-16.48,2.36c-.58,12.55,5.86,13.74,16.48,10.79v-13.15ZM97.44,467.95c-36.91-16.45-58.88,47.67-20.39,57.17-4.13-14.9-3.97-31.6,6.25-44.04,4.1-5,10.28-7.89,14.14-13.13ZM145.42,473.24c-31.1-17.73-72.29,1.08-68.28,39.64.23,2.18,3.29,15.26,5.49,14.87,1.47-.75,3.04-5.93,4.92-3.62-4.11,6.96-8.87,13.6-17.99,12.77-2.84-.26-10.89-4.32-12.79-3.14-4.35,12.87,11.41,19.63,21.93,19.68,16.85.08,25.96-9.67,34.85-22.4,3.52,3.21-7.09,11.4-6.89,12.81,6.95,3.54,20.21.3,26.5-3.73,2.18-1.4,3.96-4.44,6.39-5.44.88-.36,2.15-1.08,1.93.61-8.54,10.84-23.91,13.88-36.81,10.85l-1.31,14.46,22.63-7.86,28.64,14.44c-.58-3.77-2.11-12.69,2.66-14.08,6.97-2.04,16.71,11.41,22.71.23-2.6-7.37-11.49-5.25-17.47-7.52-27.46-10.43-15.3-62.58,16.4-54.52,4.84,1.23,6.95,5.49,10.92-1.03-6.61-17.91-29.27-23.15-44.75-13.12l.31-3.91ZM476.14,477.8h-203.15l-.04,8.13c.21.61,1.8.77,2.43.81,17.78,1.14,39.87-1.18,58.46-1.08,32.95.17,69.16,3.12,101.86.68,4.85-.36,10.9-2.57,15.14-2.67,7.18-.17,15.97,4,23.6,2.72l1.7-8.59ZM527.44,557.38c14.79-6.13,15.21-23.22,3.91-33.27,4.65-9.04,4.12-19.84-5.56-25.29-7.17-4.04-10.56-.34-13.7-1.39-.84-.28-4.41-7.27-9.51-9.59-12.12-5.51-23.43-1.23-32.72,7.08-14.08-17.87-50.76-4.62-43.82,18.83.32,1.07,1.9,2.7,1.9,3.16,0,.69-5.6,7.27-6.49,9.08-2.09,4.26-2.52,8.11-1.41,12.81.84,3.57,4.45,5.85,4.8,7.71.56,2.9-1.54,5.68-1.89,8.59-1.63,13.78,9.38,19.98,21.65,20.26,2.12,12.55,14.01,17.83,25.75,14.65,2.04-.55,3.03-2.42,5.42-2.47,2.58-.05,5.48,2.5,8.08,3.13,6.6,1.61,13.26-.25,18.32-4.67,1.11-.97,2.44-4.18,3.53-4.69,2.11-.99,7.49,0,10.56-.62,9.85-1.97,15.01-14.45,11.16-23.32ZM207.24,565.88h10.19c8.79,0,21.35-7.84,24.43-16.37,30.06,10.95,46.62-26.15,28.83-48.06-5.86-7.22-16.07-12.23-25.29-9.5-2.16.64-5.04,3.01-6.87,2.92-2.49-.11-8.16-5.2-11.38-6.41-32.08-12.06-66.83,24.16-50.49,55.08.7,1.32,3.59,6,4.61,6.59,2.47,1.43,2.62-5.25,5.58-1.67-3.91,7.28-9.31,13.24-18.39,11.18-3.18-.72-8.19-6.33-10.54-3.98-7.65,15.46,17.64,19.69,27.95,18.75,7.79-.71,15.04-5.02,20.05-10.85l7.25-10.16c.12,4.93-3.8,8.43-5.91,12.48ZM288.1,488.98v100.57l23.01.65c-5.48-4.15-10.25-5.77-11.16-13.48-.32-2.72.55-6.64-.16-9.05-.63-2.18-4.43-3.42-5.79-4.92-6.63-7.32-4.16-21.66,4.01-26.87-4.81-9.38-3.74-21.2,6.08-26.64,1.7-.94,3.91-.84,5.4-1.83,2.08-1.38,3-5.92,5.54-8.27,9.04-8.33,25.6-4.65,34.42,2.23,8.69-6.98,20.31-10.41,30.61-4.76,2.76,1.52,6.96,6.9,8.43,7.34,3.01.89,5.8-.64,8.38-.53,10.93.46,18.45,10.91,18.13,21.34-.11,3.47-2.92,8.46-2.64,11.16.4,3.91,6.66,8.17,6.62,15.83-.05,8.6-6.2,9.92-7.16,13.3-.76,2.68,1.17,5.24,1.18,7.73.03,6.03-6.66,13.96-12.14,16.12-3.87,1.53-10.71.44-10.86,5.25h16.44c.72-11.21,8.17-20.07,18.39-23.99-2.75-3.85-5.24-8.65-4.94-13.52.18-2.84,2.63-6.81,2.34-8.79-.21-1.49-3.85-4.47-4.46-8.09-.75-4.41-.33-12.36,1.68-16.41.83-1.69,4.29-4.55,4.63-5.94.49-1.96-1.1-3-1.17-4.48-.6-11.56,3.61-16.63,11.14-24.6l-145.96.65ZM174.36,545.5c-8.69-16.77-2.87-35.6,9.19-48.96-37.29-17.63-48.26,49.06-9.19,48.96ZM384.75,507.37c2.52-8.43-12.33-11.56-18.55-10.98-8.37.79-11.12,4.99-17.28,9.09-6.69-9.04-23.34-11.92-32.11-4.58-3.26,2.73-3.41,6.78-5.34,8.47-3.52,3.07-8.38.01-12,7.72-3.26,6.93-1.86,12.39,1.72,18.74-9.12,9.16-12.64,16.37-3.15,27.02,1.06,1.19,3.88,1.81,4.41,3.49.66,2.07-.72,6.19-.52,9.06.82,11.89,15.58,14.11,24.99,13.8,4.4,10.76,15.87,17.19,27.29,12.86,2.37-.9,5.82-4.5,7.91-4.62s6.13,2.71,8.66,3.12c5.46.9,11.33-.71,14.98-5.09,1.29-1.55,3.21-6.7,3.58-6.94,1.13-.73,5.21-.14,7.29-.6,6.81-1.5,13.05-8.73,13.16-15.8.03-2.18-1.35-5.83-1.23-6.49.17-.94,4.04-3.96,5.01-5.46,5.52-8.55,2.34-18.14-4.96-24.2,11.28-18.52-3.91-35.13-23.86-28.61ZM276.27,588.23c.23-14.23,2.67-29.18-2.64-42.73-6.25,4.07-12.88,8.39-20.7,8.39-2.39,0-7.15-1.73-9.08-1.06-.46.16-5.27,5.95-6.71,7.12-7.26,5.9-16.72,7.99-25.84,9.06-2.24.26-4.15-.94-6.88-.36-3.32.71-8.01,6.83-12.3,7.1l84.15,12.48ZM125.71,556.02c-.75-.72-12.26,2.96-13.42,4.01-3.11,2.82-.28,26.51.36,31.73,3.63,29.73,13.74,65.34,30.92,90.03,1.76,2.53,8.86,12.15,10.76,13.59,2.18,1.65,9.99-2.9,12.8-3.61-28.84-38.76-38.6-88.24-41.42-135.74ZM172.72,692.08c2.39.49,7.69,0,10.52,0,.11,0,2.24,1.67,1.64-.32-.54-1.77-5.34-8.09-6.68-10.42-20.67-35.97-32.08-73.78-32.76-115.65l-16.76-9.03c.8,28,5.82,57.38,14.6,84,3.32,10.08,18.81,49.24,29.44,51.41ZM107.3,561.94c-7.83,5.05-33.76,12.11-38.8,18.72-2.91,3.81-.74,17.03-.64,22.03l42.45-13.11-3.02-27.64ZM519.53,595.46h-20.38c4.37,16.5-18.35,21.96-26.63,9.87-8.6,11.18-29.31,7.02-30.01-7.8l-51.49-1.4c-5.67,3.04-10.87,7.27-17.7,7.13-3.84-.08-8.67-2.91-11.91-2.6-4.08.39-8.45,5.43-15.67,5.26-10.68-.26-12.4-7.53-19.57-10.72-13-5.79-55.23-4.85-71.91-6.32-35.79-3.15-73.22-8.73-106.51-22.35l2.3,24.49c1.63,3.67,57.22,13.51,64.94,14.76,45.14,7.32,91.48,11.66,137.19,14.02,54.79,2.83,110.18,3.42,164.68-2.69l2.67-21.66ZM496.52,593.49h13.48c.23,0,.79-.7,1.3-.66-5.58-7.43-12.59-.02-19.05.66-7.7.82-10.75-3.41-15.79-3.34-3.01.04-6.51,2.74-10.02,3.17-9.51,1.17-16.39-3.41-22.14-10.39-1.17-1.42-1.34-3.92-2.37-4.86-.75-.69-14.17-5.48-15.41-5.5-8.36-.16-17.42,13.94-18.09,21.58l20.59.55c2.93-2.6,3.81-7.86,8.33-8.43l-3.94,7.88c2.27.25,8.74-.59,10.35.83,2.77,2.42,3.23,16.37,13.91,13.57l2.04-9.13,1.31,9.2c9.27.28,10.52-6.8,8.55-14.46,4.26,2.26,2.7,7.9,5.35,11.41,4.75,6.3,13.29,2.19,11.74-5.5,4.68-1.34-.43,7.49.66,8.55,9.22.33,11.36-7.34,9.2-15.11ZM110.59,592.17l-42.74,12.5,5.93,26.95,41.12-12.45-4.32-26.99ZM516.24,619.12c-62.1,6.99-125.99,5.57-188.34,1.3-59.86-4.1-119.55-11.74-177.85-25.62l4.93,24.31c63.58,17.69,131.24,26.01,197.24,29.57,40.67,2.2,85.74,3.07,126.21-.65,5.24-.48,26.94-2.41,29.96-4.88,2.47-2.02,9.06-22.31,7.84-24.03ZM115.8,621.78l-39.97,12.55c-1.24,2.14,8.95,23.19,11.76,25.9l36.06-11.63-7.85-26.83ZM508.35,646.07c-54.69,7.68-110.21,7.97-165.34,4.58-62.86-3.87-125.43-13-186.4-28.24l9.04,27.6c85.66,19.7,173.88,31.2,262.18,28.29,12.56-.41,25.59-1.41,38.1-2.66,5.57-.56,29.06-2.74,32.19-5.94,1.48-1.51,11.23-22.72,10.22-23.63ZM3.43,653.96v183.39h588.43v-182.07c-14.28,3.64-25.13-7.09-39.12-7.09-15.47,0-30.12,11.42-46.27,9.14-6.81,17.41-17.76,33.15-30.97,46.25.75,1.09,1.01.89,2.11.83,6.82-.37,18.2-6.25,26-7.55,24.76-4.14,42.34,12.24,65.88,5.08,1.84,2.39-5.1,3.72-6.31,3.87-21.3,2.55-39.18-11.03-60.51-6.59-6.64,1.38-13.28,5.06-19.82,6.48-25.81,5.62-46.59-10.75-71.51-9.7-12.86.54-24.11,8.35-36.31,9.71-22.51,2.51-40.54-10.41-61.64-9.04-16.63,1.08-31.69,12.27-47.76,15.35-38.84,7.43-62.68-20.75-97.43-17.21-15.5,1.58-21.97,9.74-39.86,5.5-15.89-3.77-19.57-9.4-38.27-6.72-18.48,2.65-44.57,15.88-56.39-6.76,9.47,9.01,19.31,11.83,32.35,10.33,9.06-1.04,18.68-6.53,27.81-7.03,5.48-.3,10.67,1.3,16.09,1.29-11.18-9.57-19.69-21.68-27.23-34.22-18.58-1.1-29.6-12.74-49.04-8.83-10.04,2.02-19.1,8.8-30.24,5.59ZM151.35,697.33c-9.02-15.69-20.9-28.68-26.29-46.37l-35.48,11.58c-1.77,2.69,17.06,23.24,20.35,25.94,12.3,10.1,25.84,13.68,41.43,8.86ZM495.2,673.68c-109.61,15.63-221.3,2.76-328.72-20.37l12.15,23.67,48.65,11.18c.38-1.86,2.71-9.95,5.14-9.77,8.08,5.99,3.72,11.55,15.44,14.17,10.01,2.24,41.81,6.61,51.04,5.38,3-.4,6.39-2.43,9.45-3.04,22.28-4.41,42.29,10.65,66.13,8.27,9.71-.97,19.15-6.25,28.55-8.26,23.87-5.11,42.52,7.48,65.51,10.32,5.12-1.02,28.52-29.23,26.65-31.55ZM226.96,690.12l-45.03-9.22c1.23,3.25,3.45,8.15,5.69,10.74,3.42,3.95,24.3,11,30.45,12.94,26.25,8.31,48.79,9.47,73.97-3.31l-51.17-7.76c-3.11,11.12-17.42,8-13.92-3.4ZM233.46,682.3c-2.49-1.84-4.52,7.46-4.56,9.45-.12,4.82,2.43,8.58,7.26,5.25,4.95-3.42-1.52-10.7-2.69-14.69Z"/>
  <rect x=".14" y="840.63" width="595" height="1.31" fill="#fff"/>
  <path d="M591.85,3.23v226.44c-3.39,1.93-8.86,1.11-12.74,1.72-47.15,7.41-87.13,37.75-108.9,79.77-13.44.16-29.34,9.52-28.26,24.66h-5.26c6.12-16.21-17.23-3.4-22.69.65-3.61-16.89-11.61.38-16.58,5.83-11.26-.07-22.5,5.48-33.58,7.79-6.6,1.37-13.12,2.44-19.86,2.49-.2-1.17,2.8-20.96,3.45-21.85.31-.43,5.37-2.4,6.74-3.45,4.41-3.38,5.7-7.14,4.77-12.66-1.08-6.46-6.63-6.93-7.01-8.13-.27-.81,1.39-6.14,1.27-8.43-.53-10.26-8.9-10.37-14.08-15.55-3.06-3.06-4.54-8.5-8.27-12.11-16.85-16.27-54.78-15.81-72.02-.33-3.88,3.48-5.83,8.69-8.71,11.2-3.09,2.69-8.15,3.4-11.32,6.9-4.82,5.31-4.23,12.05-3.35,18.68-13.22,2.09-9.24,23.12,4.04,22.82l3.25,21.92c-17.5.44-33.16-8.76-50.18-9.83-4.1-7.68-10.66-22.65-16.56-6.61-3.7-3.69-23.33-14.44-26.28-7.2-.62,1.52-.15,5.07-.34,5.25-.13.12-2.52-.13-3.46.15-8.15,2.43-.64,6.63-1.16,8.69-.22.86-2.85.2-1.91,4.59,1.11,5.23,15.67,14.22,20.56,16.25,2.38.99,11.68,2.98,12.28,3.51,1.38,1.24-.36,2.63.29,4.25,2.51,6.26,53.03,21.66,62.09,22.44.1,3.56.48,15.55-1.9,18.01-2.99,3.09-16.93-1.67-20.61.93-.61.43-.58,1.94-1.37,2.71-8.81,8.5-17.93,16.68-26.34,25.59l-2.3-20.36c7.45,1.38,20.17-8.92,11.99-15.79-6.12-5.14-13.32,3.66-19.88,3.3v-12.16c0-3.65,7.28-4.91,5.61-11.52-1.78-7-14.91-5.68-13.47,2.91.23,1.39,1.62,2.58,1.8,4.14,1.1,9.63-11.06,19-9.74,2.46.33-4.14,2.92-6.43,1.85-11.01-1.67-7.12-15.79-4.98-12.71,4.83.55,1.74,2.79,2.59,2.99,4.24.13,1.05-1.41,12.11-1.95,12.53l-15-5.13-2.12-16.28c8.78,2.53,21.63-12.91,12.43-18.02-7.55-4.2-16.7,6.82-18.34,5.52-.62-4.94-2.16-11.12-1.28-16.06.55-3.13,3.57-3.98,4.27-6.25,4.04-13.23-16.79-14-14.79-1.72.41,2.52,2.59,3.24,2.61,6.57s-2.75,15.93-8.27,12.24c-.22-4.84-3.22-7.79-2.23-12.82.36-1.81,2.32-3.21,2.57-5.36,1.19-10.09-14.61-10.36-15.73-2.5-.89,6.18,3.76,6.64,3.95,7.29.47,1.59-.1,13.32-1.01,14.68-.42.63-1.03,1.02-1.67.35-11.3-13.45-22.61-.56-10.01,11.16-8.62,10.87-26.42,35.26-10.31,46.62,8.79,6.2,16.67,2.75,26.26,1.68l1.29,39.09c-1.29,5.78-14.32-2.05-18.82-2.23-31.29-1.26-43.88,52.54-14.49,63.84,2.86,1.1,14.01,1.97,5.29,6.99-6.22,3.59-9.68-1.14-15.07-1.82-13.34-1.68-8.08,13.24-.96,18.7,11.83,9.07,28.93,5.3,40.78-1.66v13.8c-6.84,2.47-33.64,12.85-36,18.9s.58,27.36,2.02,34.46c2.68,13.23,8.32,25.43,12.94,38-12.35,1.44-23.27-8.71-35.15-9.22-14.44-.62-27.38,11.09-41.77,5.94V3.23h588.43ZM145.33,31.66c-23.43,1.16-23.61,41.96-2.8,45.15,3.49.53,14.17-.15,15.72-3.91.83-2.01,1.26-11.01-1.95-11.14-2.66-.11-6.74,6.01-12.81,2.26-4.46-2.75-4.32-14.07-1.35-17.74,6.05-7.48,15.02,5.26,16.43-1.32,2.15-10.06-3.88-13.75-13.23-13.29ZM176.88,31.65c-23.07.87-23.17,41.81-3.34,45.03,30.09,4.89,29.56-46.02,3.34-45.03ZM241.3,31.64c-22.52,1.27-22.8,41.87-2.68,45.04,29.86,4.72,29.22-46.55,2.68-45.04ZM448.42,31.66c-22.98.98-22.84,41.3-3.86,44.89,30.55,5.79,30.33-46.02,3.86-44.89ZM209.87,32.81h-11.18l-.07,42.46,25.05.59c2.13-1.21,2.01-12.16-.99-12.16h-12.16v-29.25c0-.23-.85-1.01-.66-1.64ZM275.61,61.73c4.55.49,5.95,12.86,8.54,14.14,5.59-.1,12.75,3.24,10.87-4.96-.72-3.12-6.71-13.28-6.83-14.88-.08-1.16,4.65-5.87,3.55-12.74-.58-3.61-4.54-10.48-8.58-10.48h-19.07l-.99.99v41.74c3.11.64,12.49,2.39,12.49-2.3v-11.5ZM321.31,32.81h-23.67l-.99.99v40.75c0,.38.8,1.95,1.63,1.69l34.19-.07c2.84-.62,3-4.78,3.71-7.14l10.13.57,2.73,6.48c3.74-.29,9.39,1.89,11.07-2.53.27,4.17,8.8,3.07,11.51,1.65v-16.76c2.72,2.2,6.59,16.35,8.54,17.42,1.36.75,10.88.7,11.9-.59l-.07-42.46h-10.19l-.99.99v16.76l-8.88-17.75h-11.51l-.67,39.43-12.91-39.34-12.43.53-10.83,36.83-.76-4.81c-.21-.61-1.8-1.76-2.19-1.76h-11.51v-3.94h11.51l.99-.99v-10.85c-.64.2-1.42-.66-1.64-.66h-10.85v-1.97h11.51c3.12,0,3.12-11.64.66-12.49ZM396.59,75.53c21.13,3.77,36.66-2.56,33.47-26.56-.77-5.76-7.97-16.16-14.08-16.16h-18.41l-.99.99v41.74ZM159.24,136.66v-29.91c-1.76-2.43-10.82-2.43-11.72.11l.54,42.28h33.86l3.4-7.26,9.46.32,3.03,6.83c2.57-.17,9.71,1.36,10.63-1.68,1.08-3.59-10.92-34.85-12.08-40.91-1.82-1.99-11.02-1.87-12.62-.51-2.04,1.74-8.15,26.94-9.38,31.37-.7.25-1.42-.65-1.64-.65h-13.48ZM236.16,136c13.97,1.86,22.09-10.5,16.76-22.99-4.26-9.98-19.29-8.28-28.15-7.27l-.31,42.3c1.32,1.94,10.1,1.48,11.11.2l.59-12.23ZM314.73,136.66c-3.82-.58-8.85.42-12.82,0-1.5,0,1.25-26.31-.43-30.08-1.1-2.47-12.06-2.08-12.06.83v37.14l-12.2-38.09c-4.32-1.99-11.42-3.24-13.73,1.96-1.57,3.53-11.47,36.24-11.18,38.21.1.68.38,1.87.93,2.22l9.42.17,3.19-7,9.83.31c1.21,7.09,4.42,8.18,11.42,6.8,1.32-.26,2.63-2.13,2.96-1.95.11.06-.2,1.59,1.64,1.99,8.51,1.82,23.53-1.41,32.77,0l3.06-6.95,9.5-.35,3,6.95,9.91.03.45-5.14-11.63-37.49c-1.33-1.68-12.66-2.27-13.67,1.37l-8.74,30.38c-.7.06-1.29-1.26-1.64-1.31ZM351.22,106.76v40.75c0,.23.85,1.01.66,1.64h18.74c.97,0,5.56-2.43,6.57-3.29,5.36-4.57,4.48-13.16,1.87-18.92-.38-.84-1.59-.7-1.54-1.12.16-1.18,2.41-3.78,2.63-6.59.54-6.7-2.62-11.68-9.07-13.28-3.09-.77-18.86-2.1-19.87.8ZM396.59,147.51c.85-2.79-.62-9.52,0-12.82,4.77-.66,6.95,13.83,9,14.48,8.38-1.58,21.4,4.84,22.31-7.29l10.04.11c-1.42,7.98,10.75,10.3,13.28,4.2l-12.06-40.26c-1.31-1.24-11.91-1.26-13.04.26l-10.79,35.08c-.24-2.35-5.58-10.95-5.58-12.17,0-.75,2.99-5.7,3.27-8.54,1.74-17.56-15.65-16.47-28.1-14.63-.53.47-.63,1.48-.76,2.18-.78,4.44-.8,34.45.09,38.61.15.69.3,1.41.94,1.83,2.24.79,10.62,1.53,11.39-1.04ZM456.72,223.72c13.75-12.02,11.76-49.13-9.85-51.55-101,.76-202.47-1.59-303.19,1.18-19.76,6.94-18.16,51.97,3.41,54.67l300.49.04c3.78-.42,6.41-1.94,9.15-4.34ZM135.06,285.72c-.48-.62-.72-4.87-1.55-6.66-4.26-9.2-20.37-11.55-29.06-8.38-10.37-24.33-49.17-19.35-51.72,7.3-32.38-4.44-35.41,37.22-1.64,34.83,2.92-.21,10.67-3.27,12.26-2.93s3.1,3.01,4.56,3.89c8.06,4.87,18.52,6.22,27.58,3.34,3.13-.99,9.24-5.47,11.55-5.59,2.06-.1,7.06,2.84,9.87,3.22,12.42,1.65,35.12-2.03,32.32-19.17-1.72-10.53-12.57-7.79-14.16-9.84ZM185.71,264.01c-1.96-2.1-1.43-9.57-7.69-8.38-3.47.66-3.68,7.63-5.82,9.02-2.43,1.58-7.73-.23-10,2.16-3.21,5.65,5.46,7.43,6.14,9.68.63,2.09-3.18,8.63-.56,11.69,4.54,2.68,7.79-2.92,12.17-3.03,4.72-.11,7.27,5.84,12.23,2.43,2.15-3.21-1.13-7.5-.62-10.43.7-4,7.21-4.05,5.54-9.74-1.05-3.56-9.77-1.68-11.39-3.41ZM384.58,261.06c-18.2,3.11-.85,36.76,13.64,37.35,11.92.48,34.03-24.54,20.94-33.46-3.61-2.46-9.31-3.13-13.37-1.75-1.66.56-3.82,2.98-5.59,2.92-3.07-.11-6.04-6.69-15.61-5.05ZM61.13,342.55c-5.11-4.93-8.13,5.29-10.4,6.71-3.6,2.25-11.03-1.07-8.78,6.27.69,2.26,4.17,3.09,4.75,5.1.95,3.3-3.42,8.34.28,10.22,4.23,2.13,7.33-2.93,10.71-2.86,2.45.06,4.97,3.52,7.39,3.88,5.95.88,2.43-7.8,3.04-10.45.54-2.33,7.1-3.73,5.54-8.7-1.06-3.37-6.84-1.7-9.43-3.73-1.92-1.51-2.13-5.5-3.1-6.43Z" fill="#fff"/>
  <path d="M3.43,653.96c11.13,3.2,20.2-3.57,30.24-5.59,19.44-3.92,30.46,7.72,49.04,8.83,7.54,12.55,16.05,24.65,27.23,34.22-5.43.01-10.62-1.58-16.09-1.29-9.13.49-18.76,5.99-27.81,7.03-13.05,1.5-22.89-1.32-32.35-10.33,11.82,22.64,37.91,9.41,56.39,6.76,18.7-2.68,22.38,2.95,38.27,6.72,17.89,4.24,24.36-3.92,39.86-5.5,34.75-3.54,58.58,24.65,97.43,17.21,16.08-3.08,31.14-14.27,47.76-15.35,21.1-1.37,39.13,11.55,61.64,9.04,12.2-1.36,23.45-9.17,36.31-9.71,24.92-1.05,45.7,15.32,71.51,9.7,6.54-1.42,13.18-5.1,19.82-6.48,21.32-4.43,39.21,9.15,60.51,6.59,1.22-.15,8.15-1.48,6.31-3.87-23.55,7.16-41.13-9.21-65.88-5.08-7.8,1.3-19.18,7.19-26,7.55-1.11.06-1.36.26-2.11-.83,13.21-13.11,24.15-28.84,30.97-46.25,16.15,2.28,30.8-9.14,46.27-9.14,13.99,0,24.84,10.73,39.12,7.09v182.07H3.43v-183.39ZM539.17,671.8c-4.54-2.71-11.73,16.4-2.15,17.64,9.39,1.21,4.7-13.13,2.15-17.64ZM505.72,732.84c-7.36.37-12.57,4.87-20.23,5.73-12.46,1.39-19.78-1.28-30.39-7.04,11.37,14.67,37.24,11.72,50.62,1.31ZM151.35,751.24c-17.2,5.06-33.51-.98-47.01-11.67-14,17.09-40.28,23.87-59.18,10.36-2.82.33.74,3.48,1.7,4.22,15.93,12.22,46.26,2.66,58.79-11.29,12.61,11.29,28.86,15.53,45.32,10.41l.38-2.03ZM341.35,749.93c-11.85,3.19-24.23.89-33.19-7.73-14.85,10.65-28.5,14.56-46.34,8.69-.93-.31-7.7-4.66-7.9-2.6,15.97,12.98,38.03,8.78,53.59-2.97,8.13,6.11,18.54,10,28.74,7.72,1.74-.39,5.15-.74,5.1-3.11ZM426.16,769.64c-16.23,9.47-35.52,10.13-50.96-1.32-.87-.1-1.8.83-1.63,1.64.24,1.13,12.07,6.97,14.11,7.59,9.7,2.94,19.78,2.41,29.26-1.02,1.58-.57,11.02-4.56,9.21-6.89ZM555.03,770.96c-10.68,5.9-23.03,9.11-34.98,5.08-4.5-1.52-8.12-5.39-13.01-6.06,2.47,6.68,14.86,9.71,21.35,10.2,8.84.67,21.38-1.25,26.64-9.22ZM167.14,773.57c13.09,9.46,33.24,11.22,46,.34-.8-1.08-.85-.92-1.98-.7-2.78.55-7.33,3.91-11.67,4.78-6.94,1.39-14.15,1.15-20.87-1.1-3.86-1.29-6.98-4.49-11.15-4.63l-.33,1.31Z" fill="#fff"/>
  <path d="M591.85,310.85v341.8c-19.17,2.86-31.03-10.15-50.97-5.28-4.7,1.15-15.71,7.25-19.05,7.25h-13.48c3.55-11.34,7.73-22.48,10.21-34.16,1.2-5.64,3.8-17.41,3.58-22.69-.35-8.7-11.44-6.48-17.1-10.54,1.37-5.54,7.92-2.96,13.14-4.6,5.59-1.76,11.2-7.54,12.22-13.41.48-2.74-.22-9.75.44-11.07.15-.31,4.75-2.69,5.79-3.73,5.48-5.48,5.9-17.07,2.72-23.8-.95-2.01-5.12-5.94-5.23-6.55-.39-2.06,2.43-4.6,2.84-6.13,2.56-9.38-6.87-23.06-16.54-23.67-2.32-.15-5.19,1.4-7.7.51-.69-.24-4.3-5.92-6.4-7.4-8.36-5.88-19.68-4.55-28.88-1.69-.47-.51,1.33-6.49,1.16-8.07-.7-6.73-23.58-25.18-28.77-31.03,4.9-5.17,15.58-8.59,13.46-17.42-2.48-4.08-7.23.46-9.72-.1s-10.58-12.74-16.25-11.08c5.77-20.16-22.8-28.39-26.98-7.26l-7.45.08c-3.86-20.7-27.62-16.27-33.7.53l-18.26.79-3.02-19.76c15.96-4.25,47.44-6.15,59.79-17.46,2.83-2.59,2.66-6.78,3.28-7.23,1.52-1.1,13.49.46,16.16-2.73,5.35,5.74,14.44,9.8,22.34,9.73,4.18-.04,8.97-2.57,13.1-1.99,2.8.39,6.16,3.37,8.81,4.36,7.68,2.87,20.12,3.23,27.92.72,2.55-.82,7.19-4.27,9.32-4.36,3.21-.15,10.91,4.15,15.82,4.49,18.59,1.27,42.48-12.2,23.42-31.08,7.89-18.98,24.18-31.12,43.96-35.95ZM485.69,395.65c-4.1,3.66-8.22,17.67-3.94,21.65,16.32,5.93,11.14-15.44,3.94-21.65ZM535.07,399.03c-2.87.55-12.35,24.54,1.89,22.92,11.1-1.26,2.16-23.7-1.89-22.92ZM508.7,429.16c-3.83,4.92-11.24,17.7-3.6,21.99,6.48,3.64,11.13-2.26,10.52-8.51-.15-1.51-5.44-13.81-6.92-13.47Z" fill="#fff"/>
  <path d="M516.24,619.12c1.22,1.72-5.38,22.01-7.84,24.03-3.02,2.47-24.72,4.4-29.96,4.88-40.47,3.73-85.54,2.85-126.21.65-66-3.56-133.66-11.88-197.24-29.57l-4.93-24.31c58.3,13.88,117.99,21.52,177.85,25.62,62.35,4.27,126.24,5.69,188.34-1.3Z" fill="#fff"/>
  <path d="M508.35,646.07c1.02.91-8.74,22.12-10.22,23.63-3.14,3.2-26.62,5.38-32.19,5.94-12.51,1.25-25.54,2.25-38.1,2.66-88.3,2.91-176.52-8.59-262.18-28.29l-9.04-27.6c60.98,15.24,123.54,24.38,186.4,28.24,55.12,3.39,110.64,3.09,165.34-4.58Z" fill="#fff"/>
  <path d="M239.45,411.41l2.62-28.92-3.04,7.14c-21.12-1.82-42.57-9.02-60.43-20.29.46-6.26,8.53-23.91,14.66-25.46,4.48-1.14,27.02,6.61,33.69,8.05,5.66,1.23,11.47,2.08,17.28,2.29,22.59,31.37,74.96,31.64,98.22.78,4.06-.47,8.9-.3,12.86-.95,6.11-1,38.38-10.08,40.64-9.42,4.5,1.31,13.45,23.85,11.11,27.59-4.27,6.81-49.75,18.3-59.34,16.22l-2.41-5.28,3.28,28.26h-109.14ZM345.3,382.49c.47-.7-.31-1.8-.64-1.31-.47.7.31,1.8.64,1.31Z" fill="#fff"/>
  <path d="M519.53,595.46l-2.67,21.66c-54.5,6.11-109.89,5.52-164.68,2.69-45.71-2.36-92.05-6.7-137.19-14.02-7.73-1.25-63.31-11.1-64.94-14.76l-2.3-24.49c33.28,13.62,70.72,19.2,106.51,22.35,16.69,1.47,58.91.54,71.91,6.32,7.17,3.19,8.89,10.46,19.57,10.72,7.22.17,11.59-4.86,15.67-5.26,3.24-.31,8.07,2.52,11.91,2.6,6.82.14,12.03-4.09,17.7-7.13l51.49,1.4c.7,14.83,21.41,18.98,30.01,7.8,8.28,12.09,31,6.63,26.63-9.87h20.38Z" fill="#fff"/>
  <path d="M145.42,473.24l-.31,3.91c15.48-10.04,38.14-4.8,44.75,13.12-3.97,6.52-6.08,2.26-10.92,1.03-31.7-8.06-43.87,44.09-16.4,54.52,5.98,2.27,14.87.15,17.47,7.52-6,11.19-15.74-2.27-22.71-.23-4.77,1.39-3.24,10.31-2.66,14.08l-28.64-14.44-22.63,7.86,1.31-14.46c12.9,3.03,28.27,0,36.81-10.85.22-1.69-1.05-.97-1.93-.61-2.43,1-4.21,4.04-6.39,5.44-6.29,4.03-19.55,7.27-26.5,3.73-.2-1.41,10.4-9.59,6.89-12.81-8.89,12.73-18,22.48-34.85,22.4-10.52-.05-26.28-6.81-21.93-19.68,1.9-1.18,9.95,2.88,12.79,3.14,9.12.82,13.88-5.82,17.99-12.77-1.88-2.32-3.45,2.87-4.92,3.62-2.2.39-5.27-12.69-5.49-14.87-4.01-38.56,37.18-57.37,68.28-39.64ZM90.71,511.82c1.47-1.5,1.37-6.08-1.49-6.15-6.29-.16-3,10.71,1.49,6.15ZM124.88,508.81c-4.14.6-4.77,8.98,1.14,7.79,3.29-.66,3.67-8.5-1.14-7.79Z" fill="#fff"/>
  <path d="M207.24,565.88c2.11-4.05,6.03-7.56,5.91-12.48l-7.25,10.16c-5.01,5.83-12.25,10.14-20.05,10.85-10.31.94-35.6-3.29-27.95-18.75,2.35-2.35,7.35,3.26,10.54,3.98,9.09,2.06,14.49-3.9,18.39-11.18-2.95-3.58-3.11,3.1-5.58,1.67-1.02-.59-3.9-5.26-4.61-6.59-16.34-30.91,18.4-67.14,50.49-55.08,3.22,1.21,8.89,6.3,11.38,6.41,1.83.08,4.71-2.28,6.87-2.92,9.22-2.73,19.43,2.28,25.29,9.5,17.79,21.9,1.23,59.01-28.83,48.06-3.08,8.52-15.64,16.37-24.43,16.37h-10.19ZM186.3,533.57c4.23,1.68,8.9-4.43,4.77-7.06-5.04-3.21-7.44,3.18-4.77,7.06ZM228.11,529.89c-3.24-3.28-9.13,2.64-5.6,6.25,3.31,3.38,8.9-2.9,5.6-6.25Z" fill="#fff"/>
  <path d="M495.2,673.68c1.86,2.32-21.53,30.52-26.65,31.55-22.99-2.84-41.64-15.43-65.51-10.32-9.41,2.01-18.84,7.29-28.55,8.26-23.84,2.37-43.85-12.68-66.13-8.27-3.06.61-6.46,2.64-9.45,3.04-9.23,1.23-41.03-3.15-51.04-5.38-11.72-2.62-7.36-8.18-15.44-14.17-2.44-.19-4.76,7.9-5.14,9.77l-48.65-11.18-12.15-23.67c107.42,23.13,219.12,36,328.72,20.37Z" fill="#fff"/>
  <path d="M328.63,272.96c9.29,9.18,14.05,24.7,13.42,37.59-.95,19.44-16.02,19.4-30.92,13.76-1.5-.57-7.68-4.25-8.14-4.19-.82.12-3.52,3.94-5.86,4.68-5.46,1.73-9,.17-11.42-4.81-27.72,15.81-48.45,5.36-37.73-27.9,10.59-32.86,56.77-42.74,80.65-19.13ZM261.16,295.07c4.85-2.89,7.24-5.21,13.36-3.35,4.13-6.3-14.85-3.43-13.36,3.35ZM326.66,292.02c-2.94-2.77-11.94-5.97-14.24-1.23l7.28.63,8.18,3.65c.9-.6-.82-2.66-1.23-3.04ZM326.23,308.88c-4.23,1.08-2,6.03-6.82,7.36-6.76,1.88-7.97-6.73-9.29-6.69-2.8,2.01,1.08,7.86,3.12,8.7,6.65,2.74,14.33-1.82,12.98-9.36ZM264.43,309.53c-2.94.01-2.06,3.6-1.15,5.44,1.59,3.24,6.06,4.22,9.33,3.72,5.64-.86,8.96-9.1,5.32-8.49-3.56,7.76-11.89,8.74-13.49-.66Z" fill="#fff"/>
  <path d="M496.55,331.2c16.26-6.04,30.39-1.9,33.5,16.46,25.93-5.68,31.86,22.35,4.74,27.42-2.72.51-6.28.98-9.04.86-5.66-.25-13.17-4.85-17.06-4.66-3.07.15-8.22,4.21-12.03,5.11-6.86,1.63-17.57,1.39-24.15-1.11-2.85-1.08-7.33-4.96-9.92-5.25-3.09-.35-8.09,2.22-11.87,2.35-4.25.15-19.41-3.61-20.54-8.08-.53-2.09,12.03-9.28,14.3-13.12,3.13-5.31-1.89-5.46-1.89-7.79,0-1.5,2.41-2.17,2.67-3.99.36-2.49-2.11-4.34-1.02-8.85.4-1.66,4.55-8.28,5.84-9.6,12.37-12.62,42.83-9.18,46.47,10.25Z" fill="#fff"/>
  <path d="M384.75,507.37c19.95-6.53,35.14,10.09,23.86,28.61,7.3,6.06,10.48,15.65,4.96,24.2-.97,1.5-4.84,4.52-5.01,5.46-.12.66,1.26,4.31,1.23,6.49-.11,7.08-6.35,14.3-13.16,15.8-2.08.46-6.17-.13-7.29.6-.36.23-2.29,5.39-3.58,6.94-3.65,4.38-9.52,5.99-14.98,5.09-2.53-.42-6.5-3.25-8.66-3.12s-5.55,3.72-7.91,4.62c-11.42,4.33-22.89-2.1-27.29-12.86-9.41.31-24.17-1.92-24.99-13.8-.2-2.87,1.18-6.98.52-9.06-.53-1.68-3.35-2.29-4.41-3.49-9.5-10.65-5.98-17.86,3.15-27.02-3.58-6.35-4.98-11.81-1.72-18.74,3.63-7.7,8.48-4.64,12-7.72,1.93-1.68,2.08-5.74,5.34-8.47,8.77-7.34,25.42-4.46,32.11,4.58,6.16-4.1,8.91-8.3,17.28-9.09,6.23-.58,21.08,2.55,18.55,10.98ZM320.82,513.47c-7.39,1.06-11.04,8.09-8.86,15.08.75,2.42,3.07,4.4,3.12,6.74s-2.82,7.64-3.22,11.27c-3.81,34.34,33.01,50.58,61.85,41.46,21.68-6.85,32.25-28.93,22.93-50.03,14.47-7.81,2.13-28.43-12.36-22.23-1.98.84-4.66,4.62-5.77,4.78-1.74.25-7.63-2.69-10.03-3.15-5.43-1.05-14.68-1.31-20.2-.8-2.85.26-10.39,2.84-11.86,2.63-1.75-.25-1.93-2.45-3.26-3.32-3.36-2.18-8.37-3-12.34-2.44Z" fill="#fff"/>
  <path d="M527.44,557.38c3.85,8.87-1.31,21.35-11.16,23.32-3.07.62-8.45-.37-10.56.62-1.09.51-2.42,3.72-3.53,4.69-5.06,4.42-11.73,6.27-18.32,4.67-2.59-.63-5.5-3.18-8.08-3.13-2.4.05-3.39,1.92-5.42,2.47-11.75,3.18-23.63-2.1-25.75-14.65-12.27-.28-23.29-6.48-21.65-20.26.34-2.91,2.45-5.69,1.89-8.59-.36-1.86-3.96-4.14-4.8-7.71-1.11-4.7-.69-8.55,1.41-12.81.89-1.82,6.49-8.39,6.49-9.08,0-.45-1.58-2.09-1.9-3.16-6.94-23.45,29.75-36.7,43.82-18.83,9.29-8.31,20.6-12.58,32.72-7.08,5.1,2.32,8.67,9.31,9.51,9.59,3.13,1.05,6.52-2.66,13.7,1.39,9.67,5.45,10.21,16.25,5.56,25.29,11.31,10.05,10.88,27.14-3.91,33.27ZM497.73,509.91c-13.58-4.49-27.83-6.59-41.57-1.31-8.2-15.58-31.29-4.9-23.11,10.64,1,1.9,4.14,4.09,4.25,5.51.16,2-2.86,10.39-3.14,13.94-4.46,55.17,90.59,56.94,85.36-1.39-.24-2.67-3.27-12.35-3.14-13.07.15-.8,3.96-4.27,4.68-7.1,3.66-14.59-17.15-18.62-23.33-7.21Z" fill="#fff"/>
  <path d="M343.98,320.05c6.17,26.81-9.33,49.4-36.14,54.24-37.45,6.77-74.52-14.11-65.1-56.22,3.8,2.6,5.04,6.2,9.41,8.67,6.22,3.51,11.23,3.71,18.06,2.03,3.99-.98,11.75-5.73,15.23-4.44,1.12.41,2.92,2.82,4.61,3.29,7.48,2.11,9.94-3.8,14.14-3.69,3.12.07,9.83,4.11,13.36,5.12,6.83,1.96,11.37,1.78,17.67-1.67,3.85-2.11,5.37-5.07,8.76-7.33ZM303.97,334.61c-4.32,8.84-18,6.74-23.43-.08-3.4,6.03,8.71,8.72,13.15,8.57,3.65-.12,19.71-5.61,10.28-8.49Z" fill="#fff"/>
  <path d="M127.7,373.94c1.23.75,18.87-15.53,20.35-4.2.91,7-10.85,11.03-16.42,10.78-.93.9,3.71,13.74,3.36,16.78-.37,3.24-5.23,2.65-3.97,9.81.74,4.19,5.51,4.18,5.23,11.18-.36,9.13-11.72,15.27-9.89,28.97,1.5,11.23,15.37,7.77,11.83,19.35-10.46-1.21-20.37-3.8-30.88-1.29l-1.95-41.06c.76-3.47,11.52-7.87,11.81-12.84l-11.82,8.54c2.48-10.2-4.83-16.29-14.06-18.49-5.25-1.25-9.91-.75-14.87-2.21,3.58-5.85,6.07-12.42,10.53-17.73,3.22-3.83,12.24-9.99,13.93-13.68.84-1.83,2.21-14.74,1.81-16.57-.56-2.54-3.96-2.18-3.96-5.93,0-6.6,11.92-5.6,9.76,1.82-.45,1.53-2.94,2.23-3.15,4.1-.12,1.1,3.08,14.39,3.7,14.84,1.59,1.16,6.9,1.46,8.75.22,2.3-1.55,5.89-14.98,4.98-17.35-.83-2.17-5.41-2.59-2.9-6.86s11.2-2.84,10.2,2.91c-.48,2.76-3.07,3.5-3.97,5.29-2.76,5.47-.37,17.78,1.6,23.6ZM94.71,386.54c-.82-1.41-3.92-.55-3.91,2.19.03,4.78,6.14,1.66,3.91-2.19ZM112.37,389.83c-2.22.65-2.75,4.88-.12,5.2,3.69.44,4.37-6.44.12-5.2ZM121.76,437.71c-15.17-.08-11.58,20.98,1.97,20.37-1.35-5.46-8.62-1.99-9.21-10.2-.52-7.18,4.18-5.72,7.24-10.16Z" fill="#fff"/>
  <path d="M285.47,488.98v99.91l-7.24-.66c2.26-12.67,1.64-25.13-.73-37.72-.46-2.46-2.59-5.39-2.52-7.9.09-3.03,3.63-8.72,4.38-12.07,4.5-20.12-8.97-44.21-31.7-41.55-2.91.34-7.72,3.41-9.15,3.3-1.32-.1-9.16-5.59-12.51-6.62-11.14-3.41-22.57-1.92-32.83,3.26-4.68-6.78-9.67-14.27-18.15-16.38l42.97-40.69,38.57,46.28c2.54,1.26,10.79,10.86,12.81,10.86h16.11Z" fill="#fff"/>
  <path d="M288.1,488.98l145.96-.65c-7.53,7.97-11.74,13.04-11.14,24.6.08,1.48,1.66,2.52,1.17,4.48-.35,1.39-3.8,4.26-4.63,5.94-2,4.05-2.43,12-1.68,16.41.62,3.61,4.25,6.59,4.46,8.09.28,1.99-2.17,5.95-2.34,8.79-.3,4.86,2.19,9.67,4.94,13.52-10.23,3.92-17.67,12.78-18.39,23.99h-16.44c.15-4.8,6.99-3.72,10.86-5.25,5.48-2.16,12.17-10.09,12.14-16.12-.01-2.49-1.94-5.05-1.18-7.73.96-3.39,7.1-4.7,7.16-13.3.05-7.65-6.22-11.92-6.62-15.83-.28-2.7,2.53-7.69,2.64-11.16.33-10.43-7.2-20.88-18.13-21.34-2.58-.11-5.37,1.43-8.38.53-1.48-.44-5.67-5.82-8.43-7.34-10.29-5.65-21.91-2.22-30.61,4.76-8.82-6.88-25.39-10.56-34.42-2.23-2.54,2.34-3.45,6.89-5.54,8.27-1.49.99-3.7.89-5.4,1.83-9.82,5.43-10.89,17.26-6.08,26.64-8.17,5.21-10.64,19.55-4.01,26.87,1.36,1.5,5.15,2.74,5.79,4.92.7,2.41-.16,6.32.16,9.05.91,7.71,5.68,9.33,11.16,13.48l-23.01-.65v-100.57Z" fill="#fff"/>
  <path d="M591.85,232.63v17.42c-5.53,1.78-12,1.85-17.88,3.16-34.48,7.63-66.33,32.44-82.77,63.51-6.39-1.7-11.29-5.99-18.36-5.55,22.71-44.13,68.88-76.12,119.01-78.54Z" fill="#fff"/>
  <path d="M125.71,556.02c2.81,47.5,12.57,96.98,41.42,135.74-2.81.71-10.61,5.26-12.8,3.61-1.89-1.43-8.99-11.05-10.76-13.59-17.18-24.69-27.29-60.3-30.92-90.03-.64-5.22-3.47-28.91-.36-31.73,1.15-1.05,12.67-4.73,13.42-4.01Z" fill="#fff"/>
  <path d="M159.39,387.89c-.99,2.02.29,15.07,2.65,16.46,5.85,3.43,9.85-2.95,10.71-8.02.73-4.29-2.12-13.79,2.64-14.5,2.18-.18,6.54,1.42,5.96,3.97-7.52,6.25-6.28,15.38-4.92,24.21,3.9,2.42,21.06-11.79,21-.23-.04,8.7-13.43,6.54-14.43,9.29l.22,25.2-23.97,22.36c.74-3.64-1.75-8.27-.18-11.68.99-2.17,12.55-8.31,10.69-10.67-5.13.88-6.99,6.49-11.82,7.88.9-14.86-14.79-16.87-25.65-20.06,3.95-4.86,6.64-10.9,10.54-15.74,2.63-3.27,9.81-8.56,11.3-11.71.92-1.94,2.93-14.13,2.16-15.58-.44-.83-2.72-1.18-3.34-3.28-2.08-6.98,10.23-7.38,8.94-.38-.39,2.12-2.26,2-2.5,2.48ZM146.09,425.88c1.74,1.75,6.5-2.31,2.64-4.29-3.19-1.63-3.01,3.92-2.64,4.29ZM164.26,424.61c-2.79.41-1.85,6.13,1.2,5.2,2-.6.99-5.53-1.2-5.2Z" fill="#fff"/>
  <path d="M172.72,692.08c-10.63-2.17-26.12-41.33-29.44-51.41-8.78-26.62-13.8-56-14.6-84l16.76,9.03c.68,41.87,12.09,79.67,32.76,115.65,1.34,2.33,6.14,8.64,6.68,10.42.61,1.99-1.53.32-1.64.32-2.83,0-8.13.49-10.52,0Z" fill="#fff"/>
  <path d="M591.85,253.01v16.76c-3.88,1.75-9.46,1.59-13.84,2.6-28.59,6.59-56.66,27.13-69,53.93l-11.12,2.26-5.2-9.6c19.13-36.66,57.49-63.15,99.16-65.95Z" fill="#fff"/>
  <path d="M276.27,588.23l-84.15-12.48c4.29-.26,8.98-6.39,12.3-7.1,2.73-.58,4.64.62,6.88.36,9.11-1.07,18.58-3.16,25.84-9.06,1.44-1.17,6.25-6.96,6.71-7.12,1.94-.67,6.69,1.06,9.08,1.06,7.82,0,14.45-4.32,20.7-8.39,5.32,13.55,2.87,28.5,2.64,42.73Z" fill="#fff"/>
  <path d="M476.14,477.8l-1.7,8.59c-7.64,1.27-16.42-2.9-23.6-2.72-4.24.1-10.3,2.31-15.14,2.67-32.7,2.44-68.91-.51-101.86-.68-18.59-.09-40.67,2.23-58.46,1.08-.63-.04-2.22-.19-2.43-.81l.04-8.13h203.15Z" fill="#fff"/>
  <path d="M591.85,272.72v16.76c-26.66,5.14-50.35,20.57-63.84,44.33-5.68-2.37-9.69-7.81-16.37-7.85,15.59-29.59,46.55-50.77,80.21-53.23Z" fill="#fff"/>
  <path d="M380.81,474.51h-25.31c-18.97-19.5-37.85-39.14-55.56-59.81h25.31l55.56,59.81Z" fill="#fff"/>
  <path d="M243.73,414.7l51.61,58.83c-8.55.2-17.62.95-25.95.31l-50.31-59.14h24.65Z" fill="#fff"/>
  <path d="M151.35,697.33c-15.59,4.83-29.13,1.25-41.43-8.86-3.29-2.7-22.12-23.25-20.35-25.94l35.48-11.58c5.39,17.7,17.27,30.68,26.29,46.37ZM119.58,673.89c-.86-.85-2.7-1.86-3.94-1.47-3.03,2.4-5.07,12.26-.63,13.59,8.36,2.25,9.05-7.71,4.57-12.13Z" fill="#fff"/>
  <path d="M322.95,474.51h-24.33l-50.62-59.81h24c16.92,19.98,34.85,39.17,50.95,59.81Z" fill="#fff"/>
  <path d="M496.52,593.49c2.16,7.77.02,15.44-9.2,15.11-1.08-1.05,4.02-9.89-.66-8.55,1.55,7.69-6.99,11.8-11.74,5.5-2.65-3.51-1.09-9.15-5.35-11.41,1.96,7.66.71,14.75-8.55,14.46l-1.31-9.2-2.04,9.13c-10.67,2.8-11.14-11.15-13.91-13.57-1.62-1.41-8.09-.58-10.35-.83l3.94-7.88c-4.52.57-5.4,5.82-8.33,8.43l-20.59-.55c.67-7.63,9.73-21.73,18.09-21.58,1.24.02,14.65,4.82,15.41,5.5,1.03.94,1.21,3.44,2.37,4.86,5.75,6.98,12.63,11.55,22.14,10.39,3.52-.43,7.01-3.13,10.02-3.17,5.04-.07,8.09,4.16,15.79,3.34,6.46-.69,13.47-8.1,19.05-.66-.51-.03-1.07.66-1.3.66h-13.48Z" fill="#fff"/>
  <path d="M226.96,690.12c-3.5,11.4,10.8,14.52,13.92,3.4l51.17,7.76c-25.18,12.78-47.72,11.61-73.97,3.31-6.15-1.94-27.03-8.99-30.45-12.94-2.24-2.59-4.47-7.49-5.69-10.74l45.03,9.22Z" fill="#fff"/>
  <polygon points="295.67 414.7 349.57 472.55 349.9 474.51 325.79 472.99 276.27 414.7 295.67 414.7" fill="#fff"/>
  <path d="M591.85,292.44v14.79c-18.97,7.38-39.55,17.92-45.37,39.11l-15.14-.97c-5.43-9.21,2.02-17.64,7.93-24.32,12.95-14.62,33.08-26.26,52.58-28.61Z" fill="#fff"/>
  <path d="M270.35,485.69c-1.56,1.73-11.43-9.06-12.82-10.51-14.09-14.65-26.01-31.47-39.54-46.62l-44.95,41.67-11.82-.64,54.89-52.9c11.72,11.61,21.35,25.1,32.21,37.46,8.02,9.13,22.81,18.23,22.03,31.54Z" fill="#fff"/>
  <polygon points="110.59 592.17 114.9 619.16 73.78 631.61 67.85 604.67 110.59 592.17" fill="#fff"/>
  <path d="M115.8,621.78l7.85,26.83-36.06,11.63c-2.81-2.71-13-23.76-11.76-25.9l39.97-12.55Z" fill="#fff"/>
  <path d="M379.91,419.54c-4.52-5.23-11.97-2.82-4.64-13.32,5.33-7.63,14.85-9.79,21.65-2.7.97,1.02,4.75,5.76,2.96,6.93-2.39.14-5.23,1.05-5.22,3.93,0,4.26,7.52,2.84,6.46,12.43-1.23,11.13-13.98,19.39-24.6,19.5-9.83.1-25.38-6.67-29.91-15.49.47-.6.68-.86,1.5-.88,3.99-.1,11.17,5.28,15.92,5.8,9.12,1,24.8-5.87,15.87-16.19ZM388.55,408.25c-.78.07-2.86.79-3.11,1.57.5,6.3,8.21.63,5.26-1.4-.69-.51-1.4-.24-2.14-.17Z" fill="#fff"/>
  <path d="M107.3,561.94l3.02,27.64-42.45,13.11c-.09-5-2.26-18.22.64-22.03,5.03-6.61,30.97-13.67,38.8-18.72Z" fill="#fff"/>
  <path d="M97.44,467.95c-3.86,5.25-10.04,8.13-14.14,13.13-10.22,12.45-10.38,29.14-6.25,44.04-38.49-9.51-16.53-73.62,20.39-57.17Z" fill="#fff"/>
  <path d="M384.09,474.51l-30.58-33.51c1.96,4.67,18.11,6.42,18.75,7.22.5.62-1.98,4.78.33,5.9,1.66-5.83,2.75-7.35,9.25-5.29l1.26,5.29c1.61-2.04-.52-4.7,1.84-7.03.74-.73,8.27-3.39,9.04-3.14l28.25,30.55h-38.13Z" fill="#fff"/>
  <path d="M174.36,545.5c-39.07.1-28.1-66.59,9.19-48.96-12.06,13.36-17.88,32.19-9.19,48.96Z" fill="#fff"/>
  <path d="M420.08,401.05c9.8-2.05,19.33,6.52,14.97,16.28-1.83,4.09-6.11,3.43-6.75,9.72-1.17,11.43,12.09,13.23,20.48,9.92,1.38-.55,13.28-10.75,12.62-5.81-4.08,8.98-16.41,16.67-26.35,16.45-12.47-.28-26.57-9.34-23.96-23.34.8-4.29,6.07-4.76,5.86-8.54-.17-2.97-3.03-3.28-3.59-4.33-2-3.72,3.02-9.58,6.72-10.35ZM424.84,413.38c.96-.64.74-4.86-1.54-4.55-3.19.44-.64,6.02,1.54,4.55Z" fill="#fff"/>
  <path d="M425.84,474.51l-30.55-32.57c2.19-3.12,5.16-5.4,6.52-9.21,2.38-6.65.04-11.39.98-18.08,6.2-2.16,4.07-.05,5.46,2.5.48.88,2.03,2.12,2.09,2.57.15,1.07-1.52,1.64-1.76,2.69-1.77,7.62.98,15.89,7.13,20.81,4.47,3.58,11.24,3.72,9.81,11.56l2.58-5.63c4.24-1.14,2.77,3.36,3.5,5.14,2.74,6.68,15.47,13.67,19.56,20.22h-25.31Z" fill="#fff"/>
  <path d="M180.28,339.11c.76-.89-1.77-8.63,2.62-8.54l6.57,12.17c-5.82,6.38-9.15,13.64-12.91,21.28-7.3-.25-28.4-9.86-30.33-16.84-.27-.97-.88-3.44.82-3.46,2.34-.03,13.06,5.46,14.16,4.58-1.41-5.93-18.36-5.04-15.69-12.06,2.14-5.63,19.17,5.61,22.92,6.15,2.57-2.62-17.59-9.13-17.05-12.73.08-.55,1.15-1.39,1.74-1.58,7.14-2.3,25.98,12.39,27.14,11.03Z" fill="#fff"/>
  <path d="M436.03,330.57c1.13,5.03-13.61,9.71-13.79,12.16,1.04,1.55,1.24.51,2.26.32,2.3-.44,16.85-5.94,17.44-5.24,1.39,6.82-6.94,7.12-10.98,9.72-1.46.94-4.7,4.13-1.3,3.98,2-.09,8.82-5.48,11.21-5.02l1.63,2.05c-7.17,10.96-20.01,18.04-33.36,17.45-1.83-7.38-4.22-14.81-9.2-20.72l8.9-13.3c2.26-.59,2.74,2.62,2.85,4.19.1,1.31-1.85,4.44.34,4.29,3.16-.21,17.16-13.23,23.99-9.87Z" fill="#fff"/>
  <path d="M101.16,422.36c-4,4.3-12.56,3.77-17.67,2.02-9.86-3.38-12.56-12.76-8.97-22.08,7.25-.45,23.51,1.19,27.42,8.23,1.98,3.56,2.12,8.71-.78,11.83ZM80.09,408.84c-1.89.74-1.45,4.41,1.13,3.79,2.76-.67,2.03-5.03-1.13-3.79ZM92.77,410.83c-.17-.29-2.27-1.08-2.9-.1-2.74,4.27,5.26,4.02,2.9.1Z" fill="#fff"/>
  <path d="M474.17,474.51c-10.11-.72-14.77,3.74-23.36-3.26-1.99-1.62-15.31-15.14-16.12-16.74-2.86-5.66,3.39-6.94,2-.02l1.32.98c-1.33-5.27,6.63-9.75,10.74-7.83l25.42,26.88Z" fill="#fff"/>
  <path d="M131.42,435.15c3.87-1.23,19.71,5.01,22.2,9.17,9.65,16.09-22.13,17.21-24.57,2.88-.39-2.3-.46-11.15,2.37-12.04ZM136.88,444.27c1.08-1.63-2.58-2.35-3.28-1.3-1.08,1.63,2.58,2.35,3.28,1.3ZM145.43,444.28c-1.59-.21-4.57-.2-3.93,2.29.55,2.15,4.96-.12,3.93-2.29Z" fill="#fff"/>
  <path d="M370.29,414.7c-1.74,2.85-5.65,3.27-8.21,5.26-2.14,1.67-5.74,7.5-7.59,8.22-3.08,1.2-9.97-4.13-10.5,2.29l-15.11-15.77h41.42Z" fill="#fff"/>
  <path d="M356.48,431.12c.79-8.21,20.33-18.67,23.53-8.06,2.75,9.13-17.98,12.32-23.53,8.06Z" fill="#fff"/>
  <path d="M432.28,422.78c6.83-6.94,30.61,11.08,11.3,12.94-4.98.48-12.53-.27-13.17-6.52-.16-1.53.86-5.4,1.87-6.42Z" fill="#fff"/>
  <path d="M156.61,457.43v13.15c-10.62,2.96-17.06,1.76-16.48-10.79l16.48-2.36Z" fill="#fff"/>
  <path d="M241.99,309.63l-3.23,17.63c-13.07-1.23-12.2-23.79,3.23-17.63Z" fill="#fff"/>
  <path d="M347.28,327.28l-1.36-18.77c13.99-1.88,14.78,17.25,1.36,18.77Z" fill="#fff"/>
  <path d="M136.06,401.03c3.22-.92,10.33,2.31,12.36,5.15-3.12,10.03-14.6,7.22-14.7-2.82.22-.81,1.52-2.1,2.34-2.33Z" fill="#fff"/>
  <path d="M242.98,287.43c6.64-6.46,3.33-.71,2.69,3.01-.44,2.56-1.49,21.46-6.8,15.4-4.12-4.7.16-14.56,4.12-18.42Z" fill="#fff"/>
  <path d="M341.37,285.87c6.75,2.99,10.12,10.79,8.4,17.93-.48,2-2.7,3.95-4.43,2.11-2.36-2.5-2.7-16.06-3.97-20.04Z" fill="#fff"/>
  <path d="M233.46,682.3c1.17,3.99,7.64,11.27,2.69,14.69-4.82,3.34-7.37-.43-7.26-5.25.05-1.99,2.08-11.29,4.56-9.45Z" fill="#fff"/>
  <path d="M86.5,373.05c-1.74-1.65-2.76-4.82-2.07-7.18,2.42-8.04,19.09,2.29,5.28,8.63-1.15.2-2.44-.71-3.21-1.45Z" fill="#fff"/>
  <path d="M411.05,414.05c.58-.6,4.65.49,3.65,2.63-1.77,3.78-5.18-1.06-3.65-2.63Z" fill="#fff"/>
  <path d="M399.03,412.81c1.66-.39,3.81,1.89,2.18,2.9-3.23,2-5.6-2.1-2.18-2.9Z" fill="#fff"/>
  <path d="M139.98,417.14c-.21.23-1.66.91-1.76.85-2.73-5.43,4.24-3.58,1.76-.85Z" fill="#fff"/>
  <path d="M456.72,223.72c-2.74,2.4-5.37,3.92-9.15,4.34l-300.49-.04c-21.57-2.7-23.16-47.74-3.41-54.67,100.73-2.78,202.19-.42,303.19-1.18,21.61,2.42,23.61,39.54,9.85,51.55ZM146.58,176.26c-18.55,3.28-18.51,47.61,3.14,48.47h295.83c21.91-1.24,21.96-46.14,1.98-48.63l-300.95.16Z"/>
  <path d="M321.31,32.81c2.46.85,2.47,12.49-.66,12.49h-11.51v1.97h10.85c.23,0,1.01.85,1.64.66v10.85l-.99.99h-11.51v3.94h11.51c.38,0,1.97,1.14,2.19,1.76l.76,4.81,10.83-36.83,12.43-.53,12.91,39.34.67-39.43h11.51l8.88,17.75v-16.76l.99-.99h10.19l.07,42.46c-1.02,1.3-10.54,1.34-11.9.59-1.96-1.07-5.82-15.22-8.54-17.42v16.76c-2.7,1.42-11.24,2.52-11.51-1.65-1.68,4.42-7.33,2.23-11.07,2.53l-2.73-6.48-10.13-.57c-.7,2.35-.87,6.52-3.71,7.14l-34.19.07c-.83.25-1.63-1.31-1.63-1.69v-40.75l.99-.99h23.67ZM320.32,35.44h-21.7v38.12h22.35v-7.23h-14.46v-9.2h13.15v-7.23h-13.15v-7.23h13.81v-7.23ZM357.14,73.56l-10.84-37.48-10.13-.57-11.25,38.04,7.8-.09,2.47-7.05,12.35-.13,1.77,7.2,7.82.07ZM371.6,35.44h-9.86v38.12h7.89v-25.63l11.18,25.63h9.86v-38.12h-7.89v25.63l-11.18-25.63Z"/>
  <path d="M314.73,136.66c.35.05.93,1.38,1.64,1.31l8.74-30.38c1.01-3.64,12.34-3.05,13.67-1.37l11.63,37.49-.45,5.14-9.91-.03-3-6.95-9.5.35-3.06,6.95c-9.24-1.41-24.26,1.81-32.77,0-1.85-.39-1.53-1.92-1.64-1.99-.33-.18-1.64,1.69-2.96,1.95-7,1.38-10.2.28-11.42-6.8l-9.83-.31-3.19,7-9.42-.17c-.55-.34-.83-1.54-.93-2.22-.29-1.97,9.61-34.67,11.18-38.21,2.32-5.2,9.42-3.95,13.73-1.96l12.2,38.09v-37.14c0-2.91,10.96-3.3,12.06-.83,1.68,3.77-1.07,30.08.43,30.08,3.97.42,9-.58,12.82,0ZM275.53,107.83h-9.71s-11.25,38.69-11.25,38.69l7.82-.07,2.46-7.06,12.34-.13,2.33,6.97,7.91.3-11.92-38.69ZM299.94,107.74h-7.89v38.78h22.35v-7.23h-14.46v-31.55ZM337.38,107.78l-9.9.38-11.76,38.36,7.77-.12,2.53-7.14,12.78.42,1.99,6.75,7.79.09-11.21-38.74Z"/>
  <path d="M135.06,285.72c1.59,2.05,12.44-.7,14.16,9.84,2.8,17.14-19.9,20.82-32.32,19.17-2.81-.37-7.81-3.32-9.87-3.22-2.31.12-8.41,4.59-11.55,5.59-9.06,2.88-19.52,1.53-27.58-3.34-1.46-.88-2.9-3.54-4.56-3.89s-9.33,2.73-12.26,2.93c-33.77,2.39-30.74-39.27,1.64-34.83,2.55-26.65,41.35-31.63,51.72-7.3,8.7-3.17,24.8-.81,29.06,8.38.83,1.79,1.07,6.05,1.55,6.66ZM132.28,288.5c.36-15.7-16.14-20.28-28.49-14.52-3.31-4.63-3.92-8.72-8.77-12.32-15.44-11.48-40.2-.64-40.98,18.95-7.02-1.75-16.14-.03-20.94,5.69-4.51,5.37-5.5,10.52-1.41,16.33,4.88,6.93,13.47,8.28,21.35,7.55,2.6-.24,10.51-3.24,11.1-3.13,1.02.19,3.7,3.82,5.06,4.74,7.83,5.31,18.51,5.11,27.27,2.37,2.69-.84,9.22-5.21,9.84-5.28,2.71-.32,9.81,3.3,13.31,3.77,6.44.86,15.17-.48,20.75-3.88,12.4-7.55,6.1-22.82-8.11-20.26Z"/>
  <path d="M396.59,147.51c-.78,2.57-9.16,1.83-11.39,1.04-.64-.41-.79-1.14-.94-1.83-.89-4.16-.87-34.16-.09-38.61.12-.7.23-1.71.76-2.18,12.45-1.84,29.84-2.93,28.1,14.63-.28,2.84-3.27,7.79-3.27,8.54,0,1.22,5.34,9.82,5.58,12.17l10.79-35.08c1.13-1.52,11.73-1.5,13.04-.26l12.06,40.26c-2.53,6.1-14.7,3.78-13.28-4.2l-10.04-.11c-.91,12.14-13.93,5.71-22.31,7.29-2.05-.66-4.23-15.14-9-14.48-.62,3.3.85,10.02,0,12.82ZM401.52,107.74c-4.47-.63-10.17.46-14.79,0v38.78h7.89v-14.46c8.47-1.56,8.45,8.87,11.81,14.15l8.57.3c-3.07-5.87-4.09-14.22-9.86-18.07,8.96-4.87,7.82-19.1-3.62-20.7ZM449.18,146.52l-11.49-38.13-9.56-.34-11.81,38.47,7.79-.1,2.51-7.16,12.62.12,2.15,7.05,7.8.09Z"/>
  <path d="M159.24,136.66h13.48c.22,0,.94.9,1.64.65,1.23-4.43,7.34-29.63,9.38-31.37,1.6-1.37,10.8-1.48,12.62.51,1.15,6.06,13.16,37.32,12.08,40.91-.92,3.05-8.06,1.51-10.63,1.68l-3.03-6.83-9.46-.32-3.4,7.26h-33.86l-.54-42.28c.9-2.55,9.96-2.54,11.72-.11v29.91ZM157.27,107.74h-7.89v38.78h22.35v-7.23h-14.46v-31.55ZM194.65,107.84l-9.69-.02-11.25,38.7,7.82-.07,2.46-7.06,12.42.54,2.26,6.29,7.26.3-11.28-38.68Z"/>
  <path d="M145.33,31.66c9.35-.46,15.39,3.23,13.23,13.29-1.41,6.59-10.38-6.15-16.43,1.32-2.96,3.66-3.1,14.98,1.35,17.74,6.07,3.75,10.15-2.37,12.81-2.26,3.2.13,2.77,9.14,1.95,11.14-1.55,3.76-12.23,4.45-15.72,3.91-20.81-3.19-20.63-43.99,2.8-45.15ZM156.61,44.64c.37-5.8.71-8.6-5.74-9.7-27.32-4.66-27.83,37.72-6.44,39.3,7.63.56,14.19-.68,12.18-9.88-25.42,16.53-25.59-36.19,0-19.72Z"/>
  <path d="M275.61,61.73v11.5c0,4.69-9.38,2.94-12.49,2.3v-41.74l.99-.99h19.07c4.04,0,8,6.87,8.58,10.48,1.1,6.87-3.63,11.58-3.55,12.74.11,1.6,6.11,11.76,6.83,14.88,1.88,8.2-5.28,4.86-10.87,4.96-2.59-1.28-3.99-13.65-8.54-14.14ZM281.86,35.44c-4.85-.81-11.68.6-16.77,0v38.12h7.89v-13.47c7.38-4.12,9.64,8.49,11.93,13.38l8.45.09c-2.71-5.42-3.69-14.09-9.2-17.1,1.01-2.78,4.09-3.17,4.94-6.54,1.6-6.27-.12-13.29-7.25-14.48Z"/>
  <path d="M384.58,261.06c9.57-1.63,12.55,4.95,15.61,5.05,1.78.06,3.93-2.35,5.59-2.92,4.07-1.38,9.76-.71,13.37,1.75,13.09,8.92-9.02,33.94-20.94,33.46-14.49-.59-31.84-34.24-13.64-37.35ZM385.23,263.68c-16.79,3.17,3.46,32.61,13.65,32.61,5.14,0,16.9-11.04,19.1-15.64,7.09-14.79-8.97-21.86-17.12-9.31-6.19-4.18-6.79-9.33-15.63-7.66Z"/>
  <path d="M236.16,136l-.59,12.23c-1.01,1.28-9.79,1.75-11.11-.2l.31-42.3c8.86-1.01,23.89-2.71,28.15,7.27,5.33,12.5-2.79,24.85-16.76,22.99ZM234.19,133.38c11.37.94,19.21-2.81,17.75-15.45-.54-4.64-5.44-10.19-10.19-10.19h-15.45v38.78h7.89v-13.15Z"/>
  <path d="M351.22,106.76c1-2.9,16.77-1.57,19.87-.8,6.45,1.6,9.6,6.58,9.07,13.28-.23,2.81-2.47,5.41-2.63,6.59-.06.42,1.16.27,1.54,1.12,2.61,5.76,3.49,14.35-1.87,18.92-1.01.86-5.6,3.29-6.57,3.29h-18.74c.2-.64-.66-1.42-.66-1.64v-40.75ZM367.99,107.74c-4.54-.58-10.12.43-14.79,0v38.78h16.11c10.27,0,13.48-15.5,4.91-20.09v-1.22c6.98-6.8,3.84-16.19-6.22-17.47Z"/>
  <path d="M241.3,31.64c26.55-1.5,27.19,49.76-2.68,45.04-20.13-3.18-19.84-43.77,2.68-45.04ZM231.84,70.64c4.28,3.48,8.94,4.24,14.34,3.41,18.17-2.81,18.14-44.25-8.08-38.97-13.73,2.76-15.49,28.06-6.26,35.57Z"/>
  <path d="M396.59,75.53v-41.74l.99-.99h18.41c6.11,0,13.31,10.4,14.08,16.16,3.19,24-12.34,30.33-33.47,26.56ZM398.56,73.56h16.11c17.56,0,18.51-38.12-.66-38.12h-15.45v38.12Z"/>
  <path d="M176.88,31.65c26.23-.99,26.75,49.92-3.34,45.03-19.83-3.22-19.73-44.16,3.34-45.03ZM173.54,34.94c-17.19,2.97-18.12,43.67,8.23,39.12,17.37-3,18.05-43.66-8.23-39.12Z"/>
  <path d="M448.42,31.66c26.46-1.13,26.69,50.68-3.86,44.89-18.97-3.59-19.12-43.91,3.86-44.89ZM445.07,34.94c-17.27,3.09-17.82,43.62,8.23,39.12,17.6-3.04,18-43.8-8.23-39.12Z"/>
  <path d="M185.71,264.01c1.62,1.73,10.34-.15,11.39,3.41,1.68,5.68-4.84,5.74-5.54,9.74-.51,2.93,2.77,7.22.62,10.43-4.96,3.41-7.5-2.54-12.23-2.43-4.38.1-7.63,5.71-12.17,3.03-2.63-3.06,1.19-9.61.56-11.69-.68-2.24-9.35-4.02-6.14-9.68,2.27-2.39,7.57-.58,10-2.16,2.14-1.39,2.35-8.36,5.82-9.02,6.27-1.19,5.73,6.28,7.69,8.38ZM194.74,268.13c-2.86-1.17-7.65-.07-10.12-2.04-1.87-1.49-2.66-8.58-5.95-7.85-.36.08-1.96,4.26-2.7,5.24-3.02,3.99-7.21,5.15-12.11,5.31-.1,2.79,3.93,2.97,5.22,4.3,3.17,3.28-.12,9.37.7,13.44,4.68-1.4,7.89-5.15,13.17-3.64,2.09.6,3.79,3.69,6.54,2.98-2.3-8.41.33-11.68,5.26-17.74Z"/>
  <path d="M209.87,32.81c-.2.64.66,1.42.66,1.64v29.25h12.16c3,0,3.12,10.95.99,12.16l-25.05-.59.07-42.46h11.18ZM208.55,35.44h-8.55v38.12h22.35v-7.23h-13.81v-30.89Z"/>
  <path d="M61.13,342.55c.97.94,1.18,4.92,3.1,6.43,2.58,2.04,8.37.36,9.43,3.73,1.55,4.97-5.01,6.37-5.54,8.7-.61,2.64,2.91,11.32-3.04,10.45-2.43-.36-4.95-3.82-7.39-3.88-3.37-.08-6.48,4.99-10.71,2.86-3.71-1.87.66-6.92-.28-10.22-.58-2.01-4.06-2.84-4.75-5.1-2.25-7.33,5.19-4.01,8.78-6.27,2.27-1.42,5.3-11.64,10.4-6.71ZM71.8,353.58c-6.19-.05-11.38-2.95-13.15-9.2-5.26,4.17-6.02,10.27-14.45,8.55-.58,2.97,4.57,4.93,5.14,7.05.69,2.56-1.77,5.95-1.2,8.72,6.28-2.52,11.2-3.83,17.43-.02,2.11-2.46-.73-5.47.75-9.02.35-.83,6.67-4.92,5.48-6.07Z"/>
  <path d="M151.35,751.24l-.38,2.03c-16.45,5.12-32.7.88-45.32-10.41-12.53,13.95-42.86,23.51-58.79,11.29-.96-.74-4.52-3.89-1.7-4.22,18.9,13.51,45.18,6.73,59.18-10.36,13.5,10.69,29.81,16.73,47.01,11.67Z"/>
  <path d="M341.35,749.93c.05,2.37-3.36,2.72-5.1,3.11-10.2,2.28-20.61-1.61-28.74-7.72-15.56,11.75-37.62,15.95-53.59,2.97.2-2.06,6.97,2.29,7.9,2.6,17.84,5.87,31.49,1.95,46.34-8.69,8.96,8.62,21.34,10.92,33.19,7.73Z"/>
  <path d="M426.16,769.64c1.81,2.32-7.63,6.31-9.21,6.89-9.49,3.44-19.56,3.96-29.26,1.02-2.04-.62-13.87-6.46-14.11-7.59-.18-.81.75-1.74,1.63-1.64,15.44,11.45,34.73,10.79,50.96,1.32Z"/>
  <path d="M505.72,732.84c-13.38,10.4-39.25,13.35-50.62-1.31,10.61,5.76,17.93,8.43,30.39,7.04,7.66-.85,12.87-5.36,20.23-5.73Z"/>
  <path d="M555.03,770.96c-5.27,7.97-17.8,9.9-26.64,9.22-6.49-.5-18.88-3.52-21.35-10.2,4.89.67,8.51,4.54,13.01,6.06,11.95,4.04,24.31.83,34.98-5.08Z"/>
  <path d="M167.14,773.57l.33-1.31c4.17.14,7.28,3.34,11.15,4.63,6.73,2.25,13.94,2.49,20.87,1.1,4.34-.87,8.89-4.23,11.67-4.78,1.13-.22,1.18-.38,1.98.7-12.76,10.87-32.91,9.11-46-.34Z"/>
  <path d="M539.17,671.8c2.55,4.51,7.24,18.86-2.15,17.64-9.57-1.24-2.39-20.35,2.15-17.64ZM538.59,675.65c-4.37,1.16-6.58,11.14-.91,11.17,4.57.03,1.7-8.5.91-11.17Z"/>
  <path d="M508.7,429.16c1.48-.33,6.77,11.96,6.92,13.47.61,6.26-4.05,12.15-10.52,8.51-7.64-4.29-.23-17.07,3.6-21.99ZM509.66,433.76c-2.56-2.23-8.24,15.63-1.65,16.16,8.13.66,2.77-12.41,1.65-16.16Z"/>
  <path d="M535.07,399.03c4.06-.78,13,21.66,1.89,22.92-14.25,1.62-4.76-22.37-1.89-22.92ZM535.95,402.88c-1.68-.32-1.02.22-1.37.91-2.88,5.63-6.92,18.39,4.05,14.57,2.97-5.13-.13-10.93-2.68-15.48Z"/>
  <path d="M485.69,395.65c7.2,6.21,12.38,27.58-3.94,21.65-4.28-3.99-.16-18,3.94-21.65ZM486.65,400.24c-2.46-1.74-9.38,19.33,1.31,14.76,4.97-2.13-.67-11.31-1.31-14.76Z"/>
  <path d="M345.3,382.49c-.33.49-1.11-.6-.64-1.31.33-.49,1.11.6.64,1.31Z"/>
  <path d="M124.88,508.81c4.81-.7,4.43,7.14,1.14,7.79-5.92,1.18-5.28-7.19-1.14-7.79Z"/>
  <path d="M90.71,511.82c-4.49,4.56-7.78-6.31-1.49-6.15,2.86.07,2.96,4.66,1.49,6.15Z"/>
  <path d="M186.3,533.57c-2.67-3.88-.28-10.27,4.77-7.06,4.13,2.63-.53,8.74-4.77,7.06Z"/>
  <path d="M228.11,529.89c3.31,3.35-2.29,9.63-5.6,6.25-3.54-3.61,2.36-9.52,5.6-6.25Z"/>
  <path d="M326.23,308.88c1.34,7.54-6.33,12.1-12.98,9.36-2.04-.84-5.93-6.69-3.12-8.7,1.32-.04,2.53,8.57,9.29,6.69,4.82-1.34,2.59-6.29,6.82-7.36Z"/>
  <path d="M264.43,309.53c1.61,9.4,9.93,8.42,13.49.66,3.65-.61.32,7.63-5.32,8.49-3.27.5-7.74-.47-9.33-3.72-.9-1.84-1.78-5.43,1.15-5.44Z"/>
  <path d="M261.16,295.07c-1.49-6.78,17.49-9.65,13.36-3.35-6.12-1.86-8.51.46-13.36,3.35Z"/>
  <path d="M326.66,292.02c.41.39,2.13,2.45,1.23,3.04l-8.18-3.65-7.28-.63c2.3-4.74,11.3-1.54,14.24,1.23Z"/>
  <path d="M320.82,513.47c3.97-.57,8.98.26,12.34,2.44,1.34.87,1.52,3.07,3.26,3.32,1.47.21,9-2.37,11.86-2.63,5.52-.51,14.77-.25,20.2.8,2.4.47,8.29,3.4,10.03,3.15,1.11-.16,3.79-3.93,5.77-4.78,14.49-6.2,26.83,14.42,12.36,22.23,9.32,21.09-1.25,43.17-22.93,50.03-28.84,9.12-65.67-7.13-61.85-41.46.4-3.63,3.28-8.85,3.22-11.27s-2.37-4.32-3.12-6.74c-2.18-6.99,1.47-14.03,8.86-15.08ZM320.8,516.08c-9.26,1.84-8.87,13.14-1.79,17.89-30.48,60.81,86.71,77.17,77.38,12.72-.31-2.16-2.63-8.8-2.33-9.94.62-2.33,5.71-1.34,6.42-6.77,1.16-8.94-9.75-16.91-17.37-10.78-1.66,1.34-1.54,3.8-4.6,4.01-2.06.14-10.77-3.66-15.1-4.03-3.93-.34-11.18-.35-15.07.1-3.19.36-9.24,3.15-11.93,2.93-2.3-.19-4.9-5.14-8.18-5.98-2.02-.52-5.39-.56-7.43-.16Z"/>
  <path d="M497.73,509.91c6.18-11.41,26.99-7.38,23.33,7.21-.71,2.84-4.53,6.3-4.68,7.1-.13.72,2.9,10.4,3.14,13.07,5.22,58.33-89.82,56.56-85.36,1.39.29-3.54,3.3-11.93,3.14-13.94-.11-1.42-3.25-3.61-4.25-5.51-8.18-15.54,14.91-26.22,23.11-10.64,13.74-5.28,27.99-3.18,41.57,1.31ZM452.23,506.96c-7.92-8.28-22.51-.54-16.99,10.74.94,1.93,5.04,4.74,5.25,5.88.25,1.36-4.04,11.49-4.4,14.43-6.88,55.57,95.12,51.19,80.61-3.81-1.13-4.27-3.39-7.23-4.42-11.36,9.57-1.11,8.67-15.2-.33-16.82s-12.41,7.15-14.44,7.27c-13.43-6.66-28.62-6.71-42.68-1.9-.39-.08-1.72-3.49-2.62-4.42Z"/>
  <path d="M303.97,334.61c9.43,2.88-6.63,8.37-10.28,8.49-4.44.15-16.55-2.55-13.15-8.57,5.43,6.83,19.11,8.92,23.43.08Z"/>
  <path d="M121.76,437.71c-3.06,4.44-7.76,2.99-7.24,10.16.6,8.21,7.87,4.74,9.21,10.2-13.55.61-17.14-20.45-1.97-20.37Z"/>
  <path d="M112.37,389.83c4.24-1.24,3.56,5.64-.12,5.2-2.63-.32-2.1-4.55.12-5.2Z"/>
  <path d="M94.71,386.54c2.24,3.85-3.88,6.97-3.91,2.19-.02-2.75,3.09-3.61,3.91-2.19Z"/>
  <path d="M164.26,424.61c2.19-.32,3.2,4.6,1.2,5.2-3.05.92-3.99-4.79-1.2-5.2Z"/>
  <path d="M146.09,425.88c-.37-.37-.55-5.92,2.64-4.29,3.86,1.98-.9,6.04-2.64,4.29Z"/>
  <path d="M119.58,673.89c4.48,4.41,3.79,14.38-4.57,12.13-4.44-1.33-2.4-11.19.63-13.59,1.24-.39,3.08.62,3.94,1.47ZM116.52,674.99c-.49,2.49-3.23,5.86-1.38,8.27,6.12,4.3,4.29-10.18,1.38-8.27Z"/>
  <path d="M388.55,408.25c.74-.07,1.45-.34,2.14.17,2.96,2.03-4.75,7.7-5.26,1.4.26-.79,2.33-1.5,3.11-1.57Z"/>
  <path d="M424.84,413.38c-2.19,1.47-4.74-4.11-1.54-4.55,2.28-.32,2.5,3.91,1.54,4.55Z"/>
  <path d="M80.09,408.84c3.16-1.24,3.89,3.12,1.13,3.79-2.58.62-3.01-3.05-1.13-3.79Z"/>
  <path d="M92.77,410.83c2.36,3.93-5.64,4.17-2.9-.1.63-.98,2.73-.19,2.9.1Z"/>
  <path d="M145.43,444.28c1.03,2.17-3.39,4.44-3.93,2.29-.63-2.49,2.34-2.5,3.93-2.29Z"/>
  <path d="M136.88,444.27c-.7,1.05-4.36.33-3.28-1.3.7-1.05,4.36-.33,3.28,1.3Z"/>
  <path d="M146.58,176.26l300.95-.16c19.98,2.48,19.93,47.39-1.98,48.63H149.72c-21.65-.86-21.69-45.19-3.14-48.47ZM438.66,181.36c-4.1-1.08-5.2,1.95-6.57,5.25,3.29.69,6.03-2.13,6.57-5.25ZM272.86,190.68c-.27-.47-5.29-1.98-6.23-2.04-15.15-.93-17.9,23.18-5.75,28.8,5.6,2.59,14.49,1.45,12.08-6.5-18.14,10.88-17.6-25.77,0-14.46-.27-1.46.49-4.73-.11-5.8ZM408.27,188.73c-14.36,1.64-14.29,30.01,1.79,29.94,15.77-.06,16.3-32.01-1.79-29.94ZM169.1,189.25h-16.44v28.92h16.11c1.53-1.34,1.53-4.57,0-5.92h-9.53v-6.57h9.2v-5.26h-9.2v-5.26h9.86v-5.92ZM180.28,189.25h-5.92v28.92h16.44v-5.92h-10.52v-23.01ZM219,189.32l-7.77.96-7.94,27.88,5.83-.09,1.48-5.75,9.21.32,1.27,5.49,5.89.03-7.96-28.85ZM242.41,189.25c-3.52-.6-8.46.44-12.16,0v28.92l6.57-.99v-10.19c5.86.05,6.03,6.97,7.98,11.08l6.48.09c.56-.51-4.48-12.84-6.56-13.47,5.84-3.81,5.11-14.18-2.31-15.45ZM299.28,218.17l-7.93-27.89-7.78-.96-7.96,28.85,5.89-.03,1.27-5.49,8.87-.44,1.76,5.92,5.89.04ZM324.59,189.25c-3.28-.47-7.45.34-10.85,0v28.92h10.19c13.7,0,16.94-26.6.66-28.92ZM355.82,189.25h-15.78v28.92h16.44v-5.92h-10.52v-6.57h9.86v-5.26h-9.86v-5.26h9.86v-5.92ZM372.92,189.25v28.92h5.92v-17.75l8,17.63,6.46.12v-28.92h-5.92v17.75c-2.59-2.45-5.81-15.64-7.54-17.11-1.59-1.35-4.95-.36-6.92-.64ZM442.61,189.25h-16.44v28.92h16.44v-5.92h-10.52v-6.57h9.86v-5.26h-9.86v-5.26h10.52v-5.92Z" fill="#fff"/>
  <polygon points="371.6 35.44 382.78 61.07 382.78 35.44 390.67 35.44 390.67 73.56 380.81 73.56 369.63 47.93 369.63 73.56 361.74 73.56 361.74 35.44 371.6 35.44" fill="#fff"/>
  <path d="M357.14,73.56l-7.82-.07-1.77-7.2-12.35.13-2.47,7.05-7.8.09,11.25-38.04,10.13.57,10.84,37.48ZM345.3,59.76c.55-.53-2.95-13.22-4.59-14.46l-3.95,14.45h8.55Z" fill="#fff"/>
  <polygon points="320.32 35.44 320.32 42.67 306.51 42.67 306.51 49.9 319.66 49.9 319.66 57.13 306.51 57.13 306.51 66.33 320.98 66.33 320.98 73.56 298.62 73.56 298.62 35.44 320.32 35.44" fill="#fff"/>
  <path d="M337.38,107.78l11.21,38.74-7.79-.09-1.99-6.75-12.78-.42-2.53,7.14-7.77.12,11.76-38.36,9.9-.38ZM336.1,132.72l-3.61-15.11-4.28,15.11h7.89Z" fill="#fff"/>
  <path d="M275.53,107.83l11.92,38.69-7.91-.3-2.33-6.97-12.34.13-2.46,7.06-7.82.07,11.25-38.7h9.71ZM274.96,132.72l-4.6-15.77-3.91,14.74c.45,1.87,6.89.75,8.51,1.03Z" fill="#fff"/>
  <polygon points="299.94 107.74 299.94 139.29 314.4 139.29 314.4 146.52 292.05 146.52 292.05 107.74 299.94 107.74" fill="#fff"/>
  <path d="M132.28,288.5c14.21-2.56,20.51,12.71,8.11,20.26-5.59,3.4-14.31,4.74-20.75,3.88-3.5-.47-10.6-4.09-13.31-3.77-.62.07-7.16,4.45-9.84,5.28-8.76,2.73-19.44,2.94-27.27-2.37-1.37-.93-4.04-4.55-5.06-4.74-.6-.11-8.51,2.89-11.1,3.13-7.88.74-16.47-.62-21.35-7.55-4.09-5.81-3.1-10.96,1.41-16.33,4.8-5.71,13.91-7.44,20.94-5.69.78-19.59,25.54-30.43,40.98-18.95,4.85,3.6,5.45,7.69,8.77,12.32,12.35-5.76,28.85-1.18,28.49,14.52Z" fill="#fff"/>
  <path d="M401.52,107.74c11.44,1.6,12.58,15.83,3.62,20.7,5.77,3.85,6.78,12.2,9.86,18.07l-8.57-.3c-3.37-5.28-3.34-15.71-11.81-14.15v14.46h-7.89v-38.78c4.62.46,10.32-.63,14.79,0ZM394.61,114.97v9.86c11.13,2.71,11.26-12.57,0-9.86Z" fill="#fff"/>
  <path d="M449.18,146.52l-7.8-.09-2.15-7.05-12.62-.12-2.51,7.16-7.79.1,11.81-38.47,9.56.34,11.49,38.13ZM433.4,117.6c-1.59-.21-1.04.02-1.39.91-1.48,3.82-1.66,9.03-3.62,12.85l.84,1.26,8.09-.88-3.92-14.14Z" fill="#fff"/>
  <path d="M194.65,107.84l11.28,38.68-7.26-.3-2.26-6.29-12.42-.54-2.46,7.06-7.82.07,11.25-38.7,9.69.02ZM194.09,132.72l-4.6-15.77-3.92,14.74c.45,1.87,6.89.75,8.51,1.03Z" fill="#fff"/>
  <polygon points="157.27 107.74 157.27 139.29 171.73 139.29 171.73 146.52 149.38 146.52 149.38 107.74 157.27 107.74" fill="#fff"/>
  <path d="M156.61,44.64c-25.59-16.47-25.42,36.25,0,19.72,2.01,9.2-4.55,10.44-12.18,9.88-21.39-1.57-20.88-43.95,6.44-39.3,6.45,1.1,6.11,3.9,5.74,9.7Z" fill="#fff"/>
  <path d="M281.86,35.44c7.13,1.19,8.85,8.21,7.25,14.48-.86,3.37-3.94,3.76-4.94,6.54,5.5,3.01,6.48,11.68,9.2,17.1l-8.45-.09c-2.29-4.89-4.55-17.5-11.93-13.38v13.47h-7.89v-38.12c5.09.6,11.92-.81,16.77,0ZM272.98,42.01v9.53c11.24,4.91,12.29-12.38,0-9.53Z" fill="#fff"/>
  <path d="M385.23,263.68c8.84-1.67,9.44,3.48,15.63,7.66,8.15-12.55,24.21-5.48,17.12,9.31-2.21,4.6-13.96,15.64-19.1,15.64-10.2,0-30.44-29.44-13.65-32.61Z" fill="#fff"/>
  <path d="M234.19,133.38v13.15h-7.89v-38.78h15.45c4.75,0,9.65,5.55,10.19,10.19,1.46,12.64-6.38,16.39-17.75,15.45ZM234.19,126.8c12.92,1.79,13.39-14.53,0-11.83v11.83Z" fill="#fff"/>
  <path d="M367.99,107.74c10.06,1.28,13.2,10.67,6.22,17.47v1.22c8.57,4.59,5.36,20.09-4.91,20.09h-16.11v-38.78c4.67.43,10.25-.58,14.79,0ZM361.08,122.86l6.95-.62c4.87-6.02-1.02-8.96-6.95-7.93v8.55ZM361.08,139.95c13.69,2.57,13.67-13.09,0-10.52v10.52Z" fill="#fff"/>
  <path d="M231.84,70.64c-9.23-7.51-7.46-32.8,6.26-35.57,26.22-5.28,26.26,36.16,8.08,38.97-5.4.84-10.07.07-14.34-3.41ZM240.58,41.49c-7.95,1.79-7.9,23.6-.51,25.86,13.75,4.19,14.15-28.93.51-25.86Z" fill="#fff"/>
  <path d="M398.56,73.56v-38.12h15.45c19.16,0,18.22,38.12.66,38.12h-16.11ZM406.45,66.33c18.24,3.95,18.24-27.49,0-23.66v23.66Z" fill="#fff"/>
  <path d="M173.54,34.94c26.28-4.54,25.6,36.12,8.23,39.12-26.35,4.55-25.42-36.15-8.23-39.12ZM176.16,41.51c-9.13,1.72-9.19,26.59,1.8,26.18s10.8-28.56-1.8-26.18Z" fill="#fff"/>
  <path d="M445.07,34.94c26.23-4.68,25.83,36.08,8.23,39.12-26.05,4.5-25.5-36.03-8.23-39.12ZM447.7,41.51c-11.15,2.16-7.29,33.94,5.77,24.84,5.69-3.96,6.12-27.14-5.77-24.84Z" fill="#fff"/>
  <path d="M194.74,268.13c-4.93,6.06-7.56,9.33-5.26,17.74-2.75.71-4.46-2.38-6.54-2.98-5.28-1.51-8.49,2.24-13.17,3.64-.82-4.07,2.48-10.16-.7-13.44-1.29-1.33-5.32-1.51-5.22-4.3,4.91-.16,9.09-1.32,12.11-5.31.74-.98,2.34-5.16,2.7-5.24,3.29-.73,4.09,6.37,5.95,7.85,2.48,1.97,7.27.88,10.12,2.04Z" fill="#fff"/>
  <polygon points="208.55 35.44 208.55 66.33 222.36 66.33 222.36 73.56 200.01 73.56 200.01 35.44 208.55 35.44" fill="#fff"/>
  <path d="M71.8,353.58c1.19,1.15-5.13,5.23-5.48,6.07-1.48,3.55,1.35,6.56-.75,9.02-6.23-3.81-11.15-2.5-17.43.02-.57-2.77,1.89-6.16,1.2-8.72-.57-2.12-5.72-4.08-5.14-7.05,8.43,1.73,9.19-4.37,14.45-8.55,1.77,6.25,6.96,9.16,13.15,9.2Z" fill="#fff"/>
  <path d="M538.59,675.65c.79,2.67,3.66,11.2-.91,11.17-5.67-.03-3.46-10.02.91-11.17Z" fill="#fff"/>
  <path d="M509.66,433.76c1.13,3.75,6.49,16.82-1.65,16.16-6.59-.53-.91-18.39,1.65-16.16Z" fill="#fff"/>
  <path d="M535.95,402.88c2.55,4.54,5.65,10.35,2.68,15.48-10.97,3.83-6.94-8.94-4.05-14.57.35-.69-.31-1.23,1.37-.91Z" fill="#fff"/>
  <path d="M486.65,400.24c.63,3.46,6.28,12.64,1.31,14.76-10.69,4.57-3.77-16.5-1.31-14.76Z" fill="#fff"/>
  <path d="M320.8,516.08c2.03-.41,5.41-.36,7.43.16,3.29.84,5.89,5.8,8.18,5.98,2.69.22,8.74-2.57,11.93-2.93,3.88-.44,11.14-.43,15.07-.1,4.33.37,13.05,4.17,15.1,4.03,3.06-.22,2.93-2.67,4.6-4.01,7.62-6.14,18.52,1.84,17.37,10.78-.7,5.42-5.8,4.43-6.42,6.77-.3,1.13,2.02,7.77,2.33,9.94,9.33,64.45-107.86,48.09-77.38-12.72-7.08-4.75-7.47-16.04,1.79-17.89ZM324.08,520.65c-6.59.93-4.4,14.51-.51,3.44,9.37,1.92,5.59-4.16.51-3.44ZM387.39,527.1c5.34-2.63,2.54,4.26,4.28,4.6,3.94.76,2.49-10.6-3.67-7.6l-.61,3ZM341.2,546.32c-4.91-4.9-10.13,7.71-2.87,7.07,3.38-.3,4.94-5,2.87-7.07ZM376.7,546.98c-2.88-2.89-8.67,1.23-5.8,5.47,3.07,4.55,9.49-1.78,5.8-5.47ZM356.6,566c18.26-8.57-4.62-13.53-7.68-8.02-3.33,6,9.37,6.27,4.57,11.81-3.92,4.52-9.35-3.5-10.48-3.27-1.7,3.96,2.78,6.78,6.11,7.1,3.11.3,5.46-1.96,6.94-1.68.74.14,2.46,2.26,4.51,2.72,5.38,1.2,9.92-3.48,9.71-8.78-3.35-.65-2.87,3.87-4.99,5.19-3.69,2.31-9.58-.19-8.69-5.07Z" fill="#fff"/>
  <path d="M452.23,506.96c.89.93,2.23,4.34,2.62,4.42,14.06-4.81,29.25-4.76,42.68,1.9,2.03-.11,5.6-8.87,14.44-7.27s9.9,15.71.33,16.82c1.02,4.13,3.29,7.1,4.42,11.36,14.51,55-87.49,59.38-80.61,3.81.36-2.94,4.66-13.07,4.4-14.43-.21-1.13-4.31-3.95-5.25-5.88-5.53-11.28,9.07-19.02,16.99-10.74ZM449.84,515.26c-3.19-4.74-7.92-.03-6.57,4.61,2.06.27,1.44-2.08,2.94-3.3.94-.77,2.45-1.09,3.63-1.3ZM510.32,518.55c1.51-4.51-7.48-6.96-4.94-2.62.28.48,4.54,3.08,4.94,2.62ZM457.56,536.42c-3.46.72-4.01,4.73-1.13,6.77,6.15,4.36,9.25-8.46,1.13-6.77ZM490.16,538.49c-4.55,4.34,2.98,8.81,5.75,4.76,2.41-3.52-1.92-8.41-5.75-4.76ZM488.63,558c-.95-.97-10.46,9.84-12.34,2.15-1.74-7.11,5.78-3.45,5.79-9.67-1.03-5.25-12.95-4.51-13.15-.06-.15,3.47,8.25,6.06,3.96,9.91-3.13,2.8-6.01-1.37-8.9-2.35-2.6-.07-1.07,4.18,2.92,4.98,3.12.63,4.95-.65,6.9-.38,1.71.24,2.15,2.1,3.46,2.5,4.98,1.52,10.36-2.15,11.37-7.09Z" fill="#fff"/>
  <path d="M116.52,674.99c2.9-1.91,4.74,12.57-1.38,8.27-1.84-2.41.89-5.77,1.38-8.27Z" fill="#fff"/>
  <path d="M372.92,189.25c1.97.27,5.33-.71,6.92.64,1.73,1.47,4.95,14.66,7.54,17.11v-17.75h5.92v28.92l-6.46-.12-8-17.63v17.75h-5.92v-28.92Z"/>
  <path d="M324.59,189.25c16.29,2.32,13.04,28.92-.66,28.92h-10.19v-28.92c3.4.34,7.56-.47,10.85,0ZM319.66,212.25c12.99,2.58,12.81-19.88,0-17.09v17.09Z"/>
  <path d="M242.41,189.25c7.42,1.27,8.16,11.64,2.31,15.45,2.08.63,7.12,12.96,6.56,13.47l-6.48-.09c-1.95-4.11-2.12-11.03-7.98-11.08v10.19l-6.57.99v-28.92c3.7.44,8.64-.6,12.16,0ZM236.82,201.74c5.3.88,6.54-1.41,4.62-6.26l-4.62-.97v7.24Z"/>
  <path d="M408.27,188.73c18.09-2.07,17.56,29.88,1.79,29.94-16.08.07-16.15-28.3-1.79-29.94ZM405.99,211.4c8.22,9.48,14.51-14.96,4.94-17.12-7.21-1.63-8.31,13.23-4.94,17.12Z"/>
  <path d="M219,189.32l7.96,28.85-5.89-.03-1.27-5.49-9.21-.32-1.48,5.75-5.83.09,7.94-27.88,7.77-.96ZM215.78,197.79c-1.74-.22-1.03.09-1.33.96-.82,2.33-1.28,5.75-1.95,8.24h5.91s-2.64-9.2-2.64-9.2Z"/>
  <path d="M299.28,218.17l-5.89-.04-1.76-5.92-8.87.44-1.27,5.49-5.89.03,7.96-28.85,7.78.96,7.93,27.89ZM288.1,197.79c-1.67-.27-1.03.14-1.39.92-.44.96-2.37,7.82-1.9,8.28h5.26s-1.97-9.2-1.97-9.2Z"/>
  <path d="M169.1,189.25v5.92h-9.86v5.26h9.2v5.26h-9.2v6.57h9.53c1.53,1.34,1.53,4.57,0,5.92h-16.11v-28.92h16.44Z"/>
  <polygon points="442.61 189.25 442.61 195.16 432.09 195.16 432.09 200.42 441.95 200.42 441.95 205.68 432.09 205.68 432.09 212.25 442.61 212.25 442.61 218.17 426.17 218.17 426.17 189.25 442.61 189.25"/>
  <polygon points="355.82 189.25 355.82 195.16 345.96 195.16 345.96 200.42 355.82 200.42 355.82 205.68 345.96 205.68 345.96 212.25 356.48 212.25 356.48 218.17 340.04 218.17 340.04 189.25 355.82 189.25"/>
  <path d="M272.86,190.68c.61,1.06-.16,4.34.11,5.8-17.6-11.31-18.14,25.34,0,14.46,2.4,7.95-6.49,9.09-12.08,6.5-12.15-5.62-9.4-29.73,5.75-28.8.94.06,5.96,1.57,6.23,2.04Z"/>
  <polygon points="180.28 189.25 180.28 212.25 190.8 212.25 190.8 218.17 174.36 218.17 174.36 189.25 180.28 189.25"/>
  <path d="M438.66,181.36c-.53,3.12-3.28,5.94-6.57,5.25,1.37-3.3,2.46-6.33,6.57-5.25Z"/>
  <path d="M345.3,59.76h-8.55s3.95-14.46,3.95-14.46c1.64,1.24,5.15,13.93,4.59,14.46ZM342.67,57.13l-1.96-4.59c-.3,3.03-2.28,5.31,1.96,4.59Z"/>
  <path d="M336.1,132.72h-7.89s4.28-15.11,4.28-15.11l3.61,15.11ZM332.8,126.15c-2.02-.51-1.66,2.72-1.96,3.94h2.62l-.66-3.94Z"/>
  <path d="M274.96,132.72c-1.62-.28-8.06.84-8.51-1.03l3.91-14.74,4.6,15.77ZM272.32,130.09l-1.96-5.25c.35,3.94-3.74,5.98,1.96,5.25Z"/>
  <path d="M394.61,114.97c11.26-2.71,11.13,12.57,0,9.86v-9.86ZM400.53,117.6h-3.95s0,4.61,0,4.61l3.66-.62.29-3.99Z"/>
  <path d="M433.4,117.6l3.92,14.14-8.09.88-.84-1.26c1.95-3.81,2.13-9.03,3.62-12.85.35-.89-.2-1.12,1.39-.91ZM433.4,125.49c-2.44.43-3.07,6.28.66,4.6l-.66-4.6Z"/>
  <path d="M194.09,132.72c-1.62-.28-8.06.84-8.51-1.03l3.92-14.74,4.6,15.77ZM191.46,130.09l-1.96-5.25c.07,3.1-2.57,6.07,1.96,5.25Z"/>
  <path d="M272.98,42.01c12.29-2.85,11.24,14.44,0,9.53v-9.53ZM275.62,49.9l2.99-.62-.33-4.35-2.67-.29v5.26Z"/>
  <path d="M234.19,126.8v-11.83c13.39-2.7,12.92,13.62,0,11.83ZM241.32,122.76c.42-.68.29-4.31-.51-4.87l-4.65-.29v5.92c.29.28,4.8-.16,5.16-.76Z"/>
  <path d="M361.08,139.95v-10.52c13.67-2.58,13.69,13.09,0,10.52ZM363.05,137.32l4.99-.6c2.84-3.99-1.36-5.26-4.99-4.67v5.26Z"/>
  <path d="M361.08,122.86v-8.55c5.93-1.03,11.81,1.91,6.95,7.93l-6.95.62ZM363.05,120.23c6.26.88,6.36-4.15,0-3.29v3.29Z"/>
  <path d="M240.58,41.49c13.65-3.07,13.24,30.05-.51,25.86-7.39-2.25-7.44-24.07.51-25.86ZM240.58,44.13c-5.32,1.63-6.3,21.76,2.42,20.89,8.01-.8,7.54-23.93-2.42-20.89Z"/>
  <path d="M406.45,66.33v-23.66c18.24-3.82,18.24,27.61,0,23.66ZM408.42,63.7c12.72,2.12,12.88-20.43,0-18.4v18.4Z"/>
  <path d="M176.16,41.51c12.6-2.37,12.66,25.79,1.8,26.18s-10.93-24.46-1.8-26.18ZM180.75,44.84c-9.35-7.11-12.51,18.5-4.61,20.04,9.45,1.84,9-16.7,4.61-20.04Z"/>
  <path d="M447.7,41.51c11.89-2.3,11.45,20.87,5.77,24.84-13.06,9.1-16.92-22.68-5.77-24.84ZM447.69,44.11c-7.07,2.02-5.33,26.18,4.39,20.18,4.61-2.85,4.8-22.8-4.39-20.18Z"/>
  <path d="M356.6,566c-.89,4.87,5,7.37,8.69,5.07,2.12-1.32,1.64-5.84,4.99-5.19.21,5.3-4.33,9.98-9.71,8.78-2.05-.46-3.77-2.58-4.51-2.72-1.49-.28-3.83,1.98-6.94,1.68-3.32-.32-7.8-3.13-6.11-7.1,1.13-.24,6.56,7.78,10.48,3.27,4.8-5.53-7.9-5.81-4.57-11.81,3.06-5.51,25.94-.55,7.68,8.02Z"/>
  <path d="M341.2,546.32c2.07,2.07.51,6.77-2.87,7.07-7.26.64-2.05-11.96,2.87-7.07Z"/>
  <path d="M376.7,546.98c3.68,3.7-2.73,10.03-5.8,5.47-2.86-4.24,2.93-8.36,5.8-5.47Z"/>
  <path d="M324.08,520.65c5.08-.72,8.86,5.36-.51,3.44-3.89,11.07-6.08-2.51.51-3.44Z"/>
  <path d="M387.39,527.1l.61-3c6.16-3,7.61,8.36,3.67,7.6-1.74-.34,1.06-7.22-4.28-4.6Z"/>
  <path d="M488.63,558c-1.01,4.94-6.39,8.61-11.37,7.09-1.31-.4-1.75-2.27-3.46-2.5-1.95-.27-3.78,1-6.9.38-3.98-.8-5.52-5.04-2.92-4.98,2.89.98,5.78,5.15,8.9,2.35,4.29-3.85-4.11-6.44-3.96-9.91.2-4.45,12.12-5.18,13.15.06-.01,6.22-7.53,2.56-5.79,9.67,1.89,7.69,11.39-3.12,12.34-2.15Z"/>
  <path d="M457.56,536.42c8.12-1.69,5.02,11.13-1.13,6.77-2.88-2.04-2.34-6.05,1.13-6.77Z"/>
  <path d="M490.16,538.49c3.83-3.65,8.16,1.24,5.75,4.76-2.77,4.05-10.3-.42-5.75-4.76Z"/>
  <path d="M449.84,515.26c-1.19.21-2.69.53-3.63,1.3-1.49,1.22-.87,3.58-2.94,3.3-1.36-4.64,3.38-9.34,6.57-4.61Z"/>
  <path d="M510.32,518.55c-.4.46-4.65-2.13-4.94-2.62-2.54-4.34,6.45-1.89,4.94,2.62Z"/>
  <path d="M319.66,212.25v-17.09c12.81-2.79,12.99,19.67,0,17.09Z" fill="#fff"/>
  <path d="M236.82,201.74v-7.24s4.62.97,4.62.97c1.92,4.86.68,7.14-4.62,6.26Z" fill="#fff"/>
  <path d="M405.99,211.4c-3.37-3.89-2.28-18.74,4.94-17.12,9.58,2.16,3.28,26.6-4.94,17.12Z" fill="#fff"/>
  <path d="M215.78,197.79l2.64,9.2h-5.91c.67-2.49,1.13-5.91,1.95-8.24.3-.87-.41-1.18,1.33-.96Z" fill="#fff"/>
  <path d="M288.1,197.79l1.97,9.2h-5.26c-.47-.46,1.46-7.32,1.9-8.28.36-.77-.28-1.18,1.39-.92Z" fill="#fff"/>
  <path d="M342.67,57.13c-4.24.71-2.27-1.56-1.96-4.59l1.96,4.59Z" fill="#fff"/>
  <path d="M332.8,126.15l.66,3.94h-2.62c.3-1.22-.05-4.45,1.96-3.94Z" fill="#fff"/>
  <path d="M272.32,130.09c-5.71.73-1.61-1.31-1.96-5.25l1.96,5.25Z" fill="#fff"/>
  <polygon points="400.53 117.6 400.24 121.59 396.59 122.21 396.58 117.6 400.53 117.6" fill="#fff"/>
  <path d="M433.4,125.49l.66,4.6c-3.73,1.68-3.1-4.17-.66-4.6Z" fill="#fff"/>
  <path d="M191.46,130.09c-4.53.82-1.89-2.15-1.96-5.25l1.96,5.25Z" fill="#fff"/>
  <polygon points="275.62 49.9 275.62 44.64 278.28 44.93 278.61 49.28 275.62 49.9" fill="#fff"/>
  <path d="M241.32,122.76c-.37.6-4.88,1.04-5.16.76v-5.92s4.65.29,4.65.29c.8.56.93,4.2.51,4.87Z" fill="#fff"/>
  <path d="M363.05,137.32v-5.26c3.64-.59,7.84.68,4.99,4.67l-4.99.6Z" fill="#fff"/>
  <path d="M363.05,120.23v-3.29c6.36-.86,6.26,4.17,0,3.29Z" fill="#fff"/>
  <path d="M240.58,44.13c9.96-3.05,10.43,20.09,2.42,20.89-8.72.87-7.75-19.26-2.42-20.89Z" fill="#fff"/>
  <path d="M408.42,63.7v-18.4c12.88-2.03,12.72,20.52,0,18.4Z" fill="#fff"/>
  <path d="M180.75,44.84c4.39,3.34,4.84,21.88-4.61,20.04-7.91-1.54-4.74-27.15,4.61-20.04Z" fill="#fff"/>
  <path d="M447.69,44.11c9.18-2.63,9,17.33,4.39,20.18-9.71,6-11.46-18.15-4.39-20.18Z" fill="#fff"/>
</svg>