<?xml version="1.0" encoding="UTF-8"?>
<svg id="Camada_1" xmlns="http://www.w3.org/2000/svg" version="1.1" viewBox="0 0 595.28 841.89">
  <!-- Generator: Adobe Illustrator 29.0.0, SVG Export Plug-In . SVG Version: 2.1.0 Build 186)  -->
  <path d="M.14,841.29V-.06h595v841.34H.14ZM590.54,5.86H7.04l-.99.99v547.2l12.33-.83c1.7-1.43,2.95-17.84,3.67-21.63,3.84-20.42,9.48-40.53,18.21-59.36-.28-1.21-7.88,1.92-8.8,2.37-3.04,1.49-13.51,10.63-15.55,9.49-2.38-3.29,1.03-9.67,3.04-12.8,3.7-5.76,8.81-7.61,14.06-11.56-3.25-5.63-30.85-.32-22.03-9.55,7.36-7.71,21.97-6.02,30.58-1.29l-9.85-14.46h10.19c4.26,0,12.1,7.58,10.85,12.49,10.04-5.02,23.42-9.36,31.48,1.1.11,3.37-17.6,3.32-18.99,8.75,10.59.79,23.2,9.57,20.4,21.39-1.75,1.31-19.94-11.6-22.37-9.55,6.67,9.97,7.47,18.07,1.97,28.91,11.53-.34,12.65,14.16,10.48,22.64-1.09,4.25-4.77,7.05-5.89,11.28l3.06,3.47,13.37-24.58c7.8-12.5,18.98-23.46,32.9-28.9,4.56-1.78,24.6-5.62,25.96-6.91.61-.58,1.09-2.09,1-2.94l-1.34-1.99c-11.49-6.97-26.47-8.91-35.47-19.09-2.67-3.03-4.46-6.9-7.24-9.85-5.87-6.23-13.34-8.26-14.98-18.54-.77-4.85,1.73-8.77,1.13-12.28-.37-2.21-3.22-4.17-4.28-6.27-27.76-55.18,63.57-91.81,105.9-88.78,32.03,2.3,76.47,27.6,69.69,65.11-.79,4.37-6.92,17.09-6.88,18.06.06,1.72,5.27,7.8,5.48,14.02.49,14.4-7.46,13.12-11.99,20.26-2.23,3.52-3.05,11.12-5.26,15.78-3.46,7.31-11.83,14.7-18.57,18.9-3.24,2.02-15.17,6.78-16.38,7.94-1.07,1.03-.04,1.36.84,1.79,4.06,1.95,11.62,2.32,16.88,4.15,5.97,2.08,11.11,5.92,17,8.08,5.2-5.84,10.88-11.25,16.23-16.97,11.1-11.87,70.76-82.79,79.7-84.64,1.94-.4,4.85-.45,6.56.7l37.47,39.78,33.72-8.44c-.23-1.24-1.36-1.09-2.27-1.34-12.25-3.31-23.56-2.89-35.4-9.96-7.96-4.76-6.84-5.99-5.54-14.47,3.17-20.59,8.12-43.83,12.62-64.29,3.93-17.88,7.94-47.92,24.07-58.1,3.68-2.32,16.31-6.2,18.07-8.22,1.2-1.37,1.13-4.04,2.37-6.17,7.24-12.45,34.06-14.06,43.61-3.72,1.68,1.82,1.89,4.6,4.09,5.78,3.23,1.72,11.86,1.98,15.99,3.08,22.91,6.07,48.91,22.47,47.3,49.3-.37,6.15-3.3,13.56-3.29,19.7.02,11.15,6.63,25.43,8.89,36.5,9.5-17.51,26.15-24.85,45.69-19.7V5.86ZM464.21,286.44c2.45-12.69,18.12-27.75-.12-35.52-8.87-3.78-17.62-3.37-26.22.97-14.96,7.54-8.39,21.34-3.82,33.66l30.16.89ZM482.65,288.45c3.37-8.71,8.65-16.81,17.8-20-7.46-3.92-16.04-6.59-24.53-6.27l-8.31,24.03,15.03,2.25ZM426.82,266.15c-1.96,1.02-12.91,3.88-13.66,4.74-2.51,2.89,1.31,13.79,1.18,17.6l15.5-2.6-3.02-19.74ZM485.34,291.12l24.03,5.68c4.78-5.48,7.45-12.45,14.75-15.21-13.59-17.91-35.86-13.38-38.78,9.52ZM393.3,295.73l17.44-6.55-.36-16.46c-8.49,4.14-14.55,14.15-17.08,23ZM537.28,309.53c-1.79-9.02-3.53-21.88-12.5-26.04-3.21,1.02-13.42,11.94-11.74,14.78l24.24,11.26ZM391.99,309.53c47.37-11.95,98.61-5.62,141.68,17.07.74-.1,2.39-10.85,2.33-12.18-.15-3.15-10.21-8.31-13.17-9.84-30.35-15.6-88.41-23.36-120.3-10.48-8.16,3.29-11.68,5.61-10.54,15.42ZM474.17,391.37c.51,3.57,0,9.27,0,13.15,0,.21-1.72,2.07.31,1.63.44-.09,3.13-1.66,3.84-2.08,12.04-7.09,20.69-21.92,25.5-34.64,7.36.66,5.85,5.55,14.18,1.35,9.24-4.66,14.15-15.98,11.25-25.92s-12.84-9.72-19.27-3.13c-2.11,2.16-4.29,9.49-8.54,5.95-5.1-4.25-.69-30.45-4.94-33.83-2.34-1.85-18.93-4.83-22.84-5.43-24.05-3.72-49.42-4.23-73.14,1.44-6.41,24.17-8.93,50.93-2.6,75.28,3.62-.04,3.53-4.71,5.37-7.45,3.77-5.62,10.52-7.35,16.7-8.94-.24-11.74,4.86-22.79,11.45-32.25-.05,7.78-6.07,12.73-8.22,20.37-5.07,18.06,10.2,11.27,21.73,11.8,12.55.58,27.29,9.26,29.22,22.71ZM393.13,336.98l3.44-26.14c-10.91,2.56-8.12,16.83-11.21,25.22l7.77.91ZM500.46,314.79v23.99c0,.39,2.95,6.9,3.62,6.89,7.7-11.25,23.65-16.8,27.97-.01,1.54.11,3.72.46,3.88-1.55.09-1.12-2.71-14.62-3.23-15.2l-32.23-14.12ZM240.89,369.46l3.92,27.07c5.05,4.88,9.33-5.63,10.75-9.45,15.36-41.3-34.76-68.07-69.04-69.65-30.69-1.41-68.92,14.04-91.35,34.85-15.53,14.4-18.59,37.42-6.28,54.91.96.45,5.25-3.34,7.26-3.98,5.15-1.64,8.7-.82,13.33,1.76l7.68,6.43c2.41-3.64,9.84-28.17,7.28-29.94l-4.32-.29-.97-1.31c11.14-.28,24.33-4.56,31.89-13.14,1.43-1.63,6.14-9.68,7.24-9.86,2.79-.46,1.39,11.6,7.54,14.13,8.36,3.44,25.77-4.82,31.25-11.49,1.06-1.29,5.55-11.2,7.54-9.87,5.2,12.64,22.65,20.61,35.68,17.59,4.03-.94,5.44-3.5,9.03-4.44-.46,3.93-5.43,5.21-8.43,6.68ZM392.64,339.76c-2.15.71-6.96-1.69-8.25-.02l-4.2,22.98,11.78,2.02.67-24.98ZM536.45,348.49c-.8-.71-2.07-.86-3.11-.84-.92,10.04-4.97,20.68-14.55,25.23-3.93,1.87-9.09.25-7.84,6.67l32.25-1.66c1.12-1.11-4.81-27.67-6.75-29.4ZM590.54,349.63c-11.45-2.15-25.37-1.67-34.51,6.58-1.86,1.68-10.06,12.39-10.56,14.43-1.92,7.93,9.69,27.39,7.27,36.84-2.61,10.19-32.43,11.72-41.11,13.45,15.97,3.81,32.58,7.77,44.07,20.36,16.03,17.55,23.35,41.1,34.83,61.47v-153.15ZM207.52,358.54c-1.31-1.15-2.08-3.54-4.49-3.61-6.4,12-22.81,20.15-36.22,18.35-7.53-1.01-6.59-5.43-10.18-10.51-5.71,10.34-17.85,15.11-28.64,18.37-2.08,11.82-3.19,25.05-11.8,34.2-4.42-8.8-20.47-16.51-25.65-4.6-7.28,16.72,10.29,31.88,26.62,26.98,12.02,44.36,92.54,48.71,117.32,16.35,14.14-18.46,11.32-54.02,6.01-75.56-2.84-11.51-3.24-7.09-12.35-8.68-7.68-1.34-14.92-6.31-20.6-11.29ZM392.55,368.12l-13.06-2.72-3.24,20.62,22.96,5.68c-3.3-7.52-6.77-15.1-6.65-23.57ZM424.07,370.21c-24.53,2.29-30.89,24.26-8.43,36.29,12.41,6.64,37.85,9.74,50.64,3.28,11.27-5.7,4.8-26.05-2.98-32.52-8.35-6.94-28.7-8.03-39.23-7.05ZM492.11,403.05c.56-.74,2.82-1.41,4.03-2.87,3.16-3.79,6.92-9.57,8.94-14.07,1.02-2.29,6.75-15.32.38-14.19-3.01,4.68-4.68,10.18-7.51,14.95-14.94,25.16-45.26,33.76-72.71,25.92-10.52,23.77,26.25,24.48,40.55,21.46,7.83-1.65,24-9.12,25.43-17.96.58-3.61-1.35-10.3.89-13.25ZM547.71,397.52c1.24-1.98-2.28-16.81-4.28-17.57l-33.75.57-9.87,21.03c16.04.04,32.38.4,47.9-4.03ZM340.21,505.9c.86.96,6.26,1.64,6.95-.27,2.95-21.73,4.57-47.38,19.2-64.94,3.51-4.21,8.06-7.29,11.85-11.19l-39.82-41.56-95.67,102.67c13.15,13.1,20.79,29.47,26.33,46.99,1.07.96,2.96-3.18,3.14-3.75,3.47-10.93-3.92-8.06-5.03-11.15-.37-9.57,6.83-16.4,13.76-21.69.49-2.14-3.68-6.13-3.96-9.17s1.78-7.07,1.78-9.23c0-1.68-1.6-2.88-1.13-5.75s6.32-9.66,9.04-10.71c13.71-5.25,24.69,10.52,19.69,22.31-.98,2.31-6.05,7.84-5.61,9.96,6.55,5.36,13.98,8.98,13.69,18.81,1.17-1.28,5.18-6.23,5.22-7.55.03-1.04-1.23-2.34-1.31-3.94-.18-3.63,1.27-5.84,1.38-9.19.23-6.98-4.55-8.82,2.59-15.15,6.16-5.46,14.56-6.44,18.88,1.51,2.89,5.31,6.49,15.53-1.83,17.64-.24.73.36,4.77.87,5.34ZM400.99,394.52c-1.07-.76-24.4-5.87-25.67-5.51-1.59,3.59-3.76,10.88-1.1,14.19s17.87,8.66,22.34,9.87c3.52.96,24.76,5.39,26.05,3.63.43-.95-.12-4.62-.53-5.15-.44-.56-9.95-4.56-12.66-6.74-3.06-2.46-7.45-9.6-8.43-10.3ZM246.69,428.5c11.59-5.03,14.22-24.9.33-28.93l-.33,28.93ZM549.11,399.58c-17.07,5.07-35.16,4.38-52.77,3.39-4.01,2.79-3.01,8.33-3.13,12.6,13.86,4.76,29.72,2.81,43.56-1.06,8.16-2.28,16.97-4.19,12.34-14.93ZM454.44,437.71v14.46c20.2-.66,40.92-11.68,49.97-30.23l-11.22-2.96c-8.54,12.98-23.76,17.99-38.75,18.73ZM421.57,420.61l-15.32,2.11c-4.39,2.08,4.56,15.55,6.79,17.93,10.08,10.72,13.21,4.76,18.4-5.93-5.02-3.83-10.27-6.8-9.87-14.1ZM522.16,425.88c-4.12.29-12.28-4.79-15.77-2.95-.89.47-3.96,6.86-5.29,8.51-4.92,6.14-12.27,11.51-18.96,15.58.33,3.74,4.99,13.53,9.57,11.89,2.34-.84,11.5-7.99,13.7-10.01,2.43-2.23,18.73-20.92,16.75-23.02ZM402.41,424.65c-1.59-1.03-15.01,2.8-15.42,4.81,1.91,14.18,12.32,26.43,24.96,32.47l9.61-12.72c-9.68-5.19-17.28-13.39-19.14-24.56ZM535.24,429.89l-10.4-2.68c-20.94,42.67-86.79,62.95-124.31,29.9l-12.8-14.79c-8.54,8.09-11.98,20.38-12.82,31.89-.57,7.85.51,58.1,4.25,62.11,12.88,2.52,26.76,5.6,39.78,2.63-.45,1.29-2.11,1.12-2.92,2.66-1.61,3.1-2.52,23.21-.73,25.64,11.87,4.32,24.6.22,36.75,1.85,3.31-.92,3.14-24.45,1.09-28.18,5.26,1.96,11.73,1.49,17.41,1.29,7.87-.27,18.44-1.1,26.3-1.97,3.69-.41,17.43-2.15,19.77-3.89,4.34-3.22,7.6-30.99,11.47-36.83-21.14-10.13-14.44-39.48-3.27-54.88,1.8-2.49,12.12-12.01,10.44-14.73ZM374.16,573.7c2.25-4.77.69-8.95.7-13.38.04-10.1.54-20.94.05-30.94-1.29-26.47-9.22-57.62,5.36-82.02,3.61-6.04,10.05-8.82,4.11-17.51-24.18,10.89-29.54,37.96-33.63,61.61-3.1,17.89-6.23,39.64-7.4,57.67-.22,3.34-1.13,18.7.65,20.36,2.05,1.9,28.45,5.54,30.17,4.21ZM578.96,484.12c-7.5-14.97-15.67-32.39-27.88-44.1-2.77-2.66-10.31-9.55-14.17-6.95-1.27.86-13.27,18-14.51,20.33-6.26,11.8-9.26,32.08,2.38,41.5l-3.93-10.17,1.65-.36,20.68,33.89,3.97.97-19.72,28.25c11.95,1.46,22.57,11.51,25.65,23.01,2.17,1.52,36.21-31.95,37.31-37.29,4.23-20.55-2.91-32.07-11.42-49.07ZM451.73,452.08c-.83-2.7,2.25-13.94-.34-14.94l-16.88-1.31c-.65.23-7.52,10.84-7.59,11.53-.14,1.22,1.61,2.14,2.53,2.51,2.95,1.19,20.97,3.92,22.28,2.21ZM47.9,440.57c-2.83-3.12-8.16-4.3-12.25-4.17,2.98,6.19,10.46,9.9,11.17,17.08-9.33-4.14-18.05-9.11-28.62-5.29-1.5.54-5.67,2.98-6.21,4.31-.58,1.45,1.04.8,1.65.95,7.95,2,17.5,1.03,24.64,6.93l-13.49,7.53c-3.8,3.43-7.24,7.78-7.54,13.16,8.82-5.35,17.11-10.89,27.61-12.48l-6.57,14.45,7.82-.07,3.69-10.43c5.82,5.93,9.86,13.12,13.81,20.35,7.27-9.84.66-20.01-6.25-27.58,4.15.12,8.19,1.3,12.02,2.77,2.81,1.08,11.83,6.87,13.31,7.08,3.12.43-.85-7.1-1.66-8.2-4.91-6.71-14.19-8.23-21.69-9.86,1.75-4.99,20.91-7.93,21.69-8.89.06-.07.07-1.82-.02-1.93-11.63-5.17-20.05-1.04-30.22,4.57.31-3.58-.38-7.54-2.87-10.28ZM115.05,441.15l-10.37-.15c.01,5.31,17.99,20.07,21.69,17.08l-11.32-16.93ZM486,462.68l-7.02-13.73-23.8,6.92,1.23,15.36c10.66.05,19.78-5.42,29.59-8.55ZM452.47,454.79l-29.11-3.95-8.37,13.8c12.32,4.92,25.45,7.5,38.79,6.58l-1.31-16.43ZM302.56,474.51c-1.45-6.98-9.39-9.46-15.57-6.7-1.48.66-7.36,4.87-3.17,5.39,5.77.71,12.88-.52,18.74,1.31ZM203.27,474.51c-18.12,4.34-36.55,3.29-54.13-2.68-5.96,9.59,6.23,16.85,13.49,20.65,6.53,3.42,14.44,6.6,21.92,5.69,8.8-1.07,21.9-14.19,18.72-23.66ZM303.68,477.35c-3.49-2.82-18.47-3.82-22.8-1.51-1.01.97.11,1.17.97,1.3,7.42,1.17,15.24,1.14,22.69,1.96.08-.06-.66-1.6-.87-1.76ZM50.75,477.15c-1.59-.23-1.04.02-1.38.9-2.17,5.54-4.22,16.53-5.53,22.74-2.47,11.69-4.36,23.61-5.56,35.51,3.46-1.31,5.73-5.58,8.57-7.53,1.61-1.1,4.03-1.56,5.83-2.4.8-3.56-5.02-5.97-5.72-8.29-1.88-6.3,7.77-22.01,15.63-21.89l-11.85-19.05ZM144.78,477.8l-13.15,3.31c6.41,30.83,3.51,62.73,1.97,93.97l21.05.66c.08-25.46,2.46-51.18-.68-76.56-.34-2.72-.98-7.48-1.93-9.91-1.77-4.54-7.6-6.09-7.27-11.47ZM281.53,479.12v11.17c3.56-2.54,4.16-.22,6.28,0,1.62.16,3.11-1.29,4.48-1.15,1.51.15,2.96,2.69,5.88,1.84,2.59-2.96,1.63-7.01,1.77-10.55l-18.41-1.31ZM340.7,486.34c-1.88-6.85-10.84-9.96-15.76-4.27,0,2.02,13.51,3.99,15.76,4.27ZM226.31,575.08c.28-22.91-.21-45.91-3.38-68.6-.47-3.39-3.9-24.7-5.59-25.3l-11.63-1.45c-4.61,13.55,1.04,28.47,2.17,42.45,1.43,17.69.24,35.83,1.32,53.56l17.1-.66ZM129,480.43l-13.85,6.3c1.43,7.22,3.48,14.95,3.98,22.31,1.45,21.19-3.61,39.8-6.61,60.46.1,1.48.43,2.2,1.86,2.79,4.25,1.76,12.3.94,16.93,2.8,1.49-31.47,4.26-63.61-2.3-94.66ZM302.57,488.31c2.77-.18,4.57-4.67,2.3-6.55l-2.3,6.55ZM245.37,571.79c-1.48-12.98-1.91-26.1-3.3-39.09-1.14-10.65-2.84-32.15-5.79-41.54-1.42-4.53-10.3-7.21-14.58-8.09,4.71,30.03,7.46,60.26,7.88,90.71l15.78-1.98ZM44.84,485.69l-7.82.07c-.33,3.82-3.4,6.5-2.7,10.45l8.45-.1,2.07-10.42ZM340.7,490.28c-5.32-3.97-13.98-5.96-20.38-3.27l20.38,3.27ZM103.26,617.71c2.73-21.41,7.18-42.68,9.86-64.09s6.21-44.64-.9-65.96c-21.96,11.15-32.54,36.76-40.43,58.82-7.43,20.77-13.42,43.22-14.36,65.32,14.71,4.7,30.36,6.67,45.83,5.91ZM301.91,490.29c-2.19-.29-1.84,2.39-3.61,2.69-2.82.49-4.65-1.48-6.53-1.38-2.59.14-4.49,2.85-8.27,0-2.24,22.2,13.38,8.83,18.4-1.31ZM334.12,492.27l-11.83-1.98.66,11.17c4.27-1.57,5.72-3.53,9.68.55,3.43.97,8.48-11.79,2.15-9.09l.52,1.56c-.92,2.51-5.11.44-1.18-2.21ZM181.6,500.15c-10.17,1.29-17.69-6.84-26.96-9.19,2.5,22.52,3.77,45.33,3.31,68.05-.07,3.25-1.71,12.59-1.18,15.02.16.74.91,1.37,1.62,1.58l25.83.8-2.63-76.25ZM201.31,490.95l-16.45,9.65,1.34,76.45c3.43-1.62,19.72.78,20.95-2.38.32-28.11-2.08-55.94-5.84-83.72ZM280.86,494.23c.1-1.26.15-2.91-1.3-3.28l1.3,3.28ZM282.63,607.08c.8-.76,1.44-2.06,1.41-3.22-.13-5-3.51-17.29-4.8-22.88-2.89-12.51-6.75-26.38-10.69-38.61-5.77-17.91-13.07-40.13-29.44-50.75-1.27.79-.69,1.09-.69,1.96.08,11.58,4.82,27.7,6.19,39.85,1.97,17.5,2.25,35.2,2.05,52.82l-1.3-11.83c-43.91,5.93-89.23,6.99-133.07-.05l-2.3,16.41c25.93,3.97,52.9,5.18,79.18,4.7,8.66-.16,51.64-1.92,56.41-5.88.82-.68-.15-2.2,1.07-2.03,1.57,8.78.92,18.58,4.61,26.62,4.16,2.15,27.81-3.76,31.35-7.12ZM338.73,498.17c3.07.15,4.4-2.56,3.93-5.25-1.57-.17-4.5,4.71-3.93,5.25ZM41.55,498.18l-8.44.75-2.73,10.41,8.59.39,2.58-11.56ZM73.11,504.75c-3.73-7.96-17.1-7.74-19.72,1.32,6.58-1.59,12.98-2.6,19.72-1.32ZM298.62,500.15l-7.88,6.57c3.71.3,8.74-1.99,7.88-6.57ZM320.99,502.12c-.44,3.97,2.96,9.89,6.95,10.49,7.78,1.16,12.15-10.42,9.15-10.48-4.29,6.08-5.84-.29-8.65-.53-2.11-.18-4.62,3.8-7.45.51ZM301.26,502.12c-3.56,10.04-13.66,6.89-18.75.01-5.65,5.66-13.8,10.48-13.4,19.62l5.83,2.06,4.6-8.88c-1.54-.9-2.98-1.38-2.62-3.6,2.84-.2,4.5,2.44,6.87,3.32,2.55.95,14.93,2.38,16.95,1.27,1.53-.83.19-3.41,3.13-2.62v5.92s-10.87-.7-10.87-.7l-1.02,8.84c22.49,7.96,27.19-16.61,9.27-25.23ZM519.53,534v16.1c1.05.15,1.81-.44,2.57-1.05,2.9-2.34,19.67-23.43,19.85-26.23.3-4.7-8.88-14.2-10.52-18.98l-1.69-.4-10.2,30.56ZM74.43,509.35c-1.07-4.02-7.47-3.5-10.83-3.27-1.52.11-13.96,2.09-11.51,5.24,6.91-3.43,14.9-1.47,22.34-1.98ZM345.88,509.43c-8.09-4.4-10.72,5.5-16.12,5.81-3.18.18-7.34-4.05-9.99-2.49-.44.26-4.02,8.01-4.37,9.1-2.23,7.02-4.12,16.81,5.57,18.38-1.02-3.04-2.75-13.79.65-15.45s19.46,1.27,20.39.34v-4.6s2.62,1.31,2.62,1.31l1.24-12.41ZM74.43,511.33c-6.6.08-13.38-.63-19.71,1.62l3.28,7.93c3.22-1.17,7.07.91,8.87.91,2.25,0,3.97-3.71,6.9-1.93l-.28-5.3-3-.94,3.94-2.3ZM38.93,512.64h-9.86l-1.97,12.49h9.86l1.97-12.49ZM71.8,522.51c-1.84-.49-3.7,1.73-5.04,1.82-1.52.1-2.43-1.64-3.89-1.83-1.81-.23-3.64,1.18-5.72.54-2.86-.88-3.21-7.54-4.73-9.76l-3.05-.26c-2.64,7.61,2.53,4.56,3.95,5.6.73.54,2.26,11.08,8.59,12.78,6.31,1.7,8.04-4.22,9.89-8.89ZM289.91,518.06c-5.3-2.21-13.27.43-12.98,7.07,5.48-3,5.66,5.67,10.5,3.61,2.58-1.1,4.03-9.2,2.48-10.67ZM334.12,526.45c-8.19-1.09-14.82,2.01-10.91,11.23,2.74,2.68,5.17,1.63,8.29.58-2.16-5.1.06-7.87,2.62-11.82ZM36.96,527.1h-11.83l-.68,10.05c.14.45,1.44,1.12,1.67,1.12h10.19l.66-11.17ZM344.65,527.1c-6.08.08-13.92,1.41-10.9,9.25,7.6,3.37,12.01-1.59,10.9-9.25ZM67.84,549.44c1.97-4.36,7.58-12.14,1.02-15.1-8.38,5.58-11.24-.19-16.42-5.92-16.18,5.27-24.91,35.49,1.61,28.92-.9-2.1-1.21-8.4-2.32-9.84s-4.47-.5-4.22-2.26l2.92-3.66,1.38,3.98,8.45-4.64,1.96,3.32,5.62,5.21ZM293.36,530.39c-3.05-1.45-5.72,1.04-8.81.65-2.41-.31-3.83-3.29-6.28-2.32-3.63,3.02-8.77,12.34-4.59,16.42,3.34,3.26,19.69,3.9,19.69-1.94v-12.82ZM311.77,528.42l-5.29,1.75,3.7,20.62,2.91-.03c-.68-2.68.7-5.95.66-8.25-.09-5.5-3.38-9.07-1.98-14.09ZM272.98,547.48l5.88,22.71c4.8.93,26.54,2.14,28.64-2.34,1.4-5.23-.69-34.87-4.25-37.16l-7.91-.3c4.84,18.98-6.48,21.83-22.36,17.09ZM64.57,534.98l-5.26-1.3c.67,1.71,3.79,1.23,5.26,1.3ZM342.67,538.28l-26.67,3.24c-.67,11.18-3.88,22.65-.53,33.63,8.29,3,17.27-.43,25.89.6l1.31-37.47ZM412.36,565.88c.16-4.47-.21-9,.01-13.47.14-2.78,2.83-7.22.36-9.58l-33.89-4.56c-.75,7.58-2.65,15.63-.26,23.08l33.78,4.53ZM590.54,681.56v-143.29c-18.6,22.34-42.24,39.63-63.78,58.97l8.55,84.32h55.23ZM456.41,566.54c10.45-.57,22.78.96,33.04-.82,3.97-.69,8.92-4.44,13.61-5.46,3.08-.67,7.13.09,10.04-1.14,1.02-.43,4.45-4.26,4.45-4.75v-14.46l-61.14,4.27v22.35ZM34.99,540.24l-11.17-.64-1.71,13.18,12.88,1.27c-1.69-4.44-.07-9.25,0-13.8ZM58.31,544.38c-14.05,11.7,10.48,14.45,6.12,4.91-.95-2.07-4.01-4.16-6.12-4.91ZM538.6,582.31c.54.47,11.26-7.4,11.76-8.29,3.95-7.03-12.8-22.88-19.61-24.28-9.06-1.86-8.32,3.11-13.18,8.58,9.38,6.43,19.69,11.16,21.03,23.99ZM311.77,554.05c-4-.9-.89,4.88-.67,7.57.7,8.73-3.11,6.75-3.91,10.53-1.85,8.67,7.78,19.76-9.58,18.08-13.38-1.3-2.14-7.26-1.63-9.57,1.27-5.79-1.29-8.82-7.22-7.54l1.24,9.43-7.1,3.12c-.26,4.87,5.55,18.94,2.58,22.62-.82,1.02-4.61,1.37-5.18,3.42,2.33,9.74,3.86,26.66-2.18,35.24-3.52,5.01-4.89,2.69-9.12,4.03-1.41.45-3.38,2.71-4.36,2.84-3.21.42-6.34-6.91-5.47-9.72-2.72-.4-3.62,2.44-4.48,4.44l10.63,80.21c-1.07,2.2-21.86,5.45-24.78,7.47-.62.43-1.11.61-1.1,1.53l.15,52.45c2,6.81,47.7,22.13,18.27,30.38-14.12,3.96-37,2.03-51.3-1.29-4.58-1.07-10.12-2.33-13.78-5.28v-71.65l-.99-.99h-40.43l-6.55,53.51c1.17,8.36,41.74,27.05,9.42,31.85-11.61,1.72-25.66.46-37.07-2.19-4.7-1.09-19.61-5.69-21.6-9.96-2.35-5.06,3.68-32.33,4.5-40.02,1.35-12.63,1.2-25.45,2.63-38.09-1.12-5.29-19.36-4.53-21.62-11.14l13.09-78.13-2.63-1.79v9.53c0,.72-1.84,3.98-2.58,4.64-3.53,3.11-4.73.23-7.13-.19-5.37-.95-15.63-2.15-19.21-6.43-4.13-4.94-4.97-14.87-4.64-21.06.18-3.41,3.49-15.51,2.02-17.08-.88-.93-3.83-1.01-4.99-2.24-3.87-4.06,4.88-25.41,3.66-31.6-7.8-3.51-14.2,9.16-13.02,14.65.3,1.41,1.69,2.14,1.89,4.08.89,8.81-17.29,2.76-17.52-3.28-.12-3.11,6.98-11.46,7.62-15.19.26-2.35-2.59-2.31-3.46-4.37-2.69-6.36,3.49-14.06,3.15-20.21-2.51-4.91-25.21,1.33-30.3-.49l-.96.82v277.38l.99.99h441.48c-2.25-12.2,26.28-23.26,27.57-30.6s-.6-25.3-1.29-33.47c-1.23-14.69-3.87-29.35-6.03-43.92l-.95-1.02-43.05-1.03c-2.9,13.11-2.66,26.7-3.88,40.03s-4.33,26.53-3.26,40.76c.34,4.58,4.38,11.49.33,15.47-4.24,4.17-37.55,10.92-44.8,11.74-12.83,1.45-26.54,1.66-38.96-1.96-2.22-11.17,7.08-16.74,15.1-21.89,3.79-2.43,22.97-11.63,23.6-14.53l.58-74.83c-1.1-2.78-18.91-.91-19.59-11.36-.83-12.74,4.91-35.53,6.51-49.22.7-5.96,1.21-12.05,1.33-18.06h-14.79c-.62,0-5.8-4.98-6.53-5.96-5.13-6.9-6.41-18.79-5.62-27.22.47-5.05,5.25-16.3,4.65-19.74-.26-1.49-2.71-1.78-3.52-3.78s-.15-4.12-1.2-6.03l-5.26-.74c-1.47,9.86-3.68,13.95-14.57,12.02-3.14-.56-5.1-1.48-3.68-5.3.84-2.26,8.33-1.97,7.16-5.96-.14-.49-6.62-1.68-6.62-4.66v-20.05ZM63.9,564.56l2.63-9.2-5.31,2.39,2.68,6.81ZM58.65,557.33c-6.57,2.31-12.74,3.46-19.75,2.24-8.88,21.47,4.22,20.06,21.03,19.42-.28-3.28,2.71-7.12,2.62-10.09-.11-3.46-4.45-7.55-3.91-11.56ZM512.29,592.18c1.81,1.65-15.95,12.24-12.46,16.67l1.64,1.11c8.09-5.89,28.83-15.13,33.07-24.15,5.36-11.41-9.69-23.53-20.03-24.45-11.65-1.04-24.63,5.77-32.14,14.37-2.01,2.3-9.32,11.43-4.92,13.5,5.6,2.64,14.83-15.41,21.69-13.49-5.2,3.6-20.65,18.29-17.42,24.96,1.46,3.02,4.4-.11,5.93-1.29,5.22-4.05,8.78-13.11,16.09-13.15-4.87,6-19.79,12.41-11.52,21.46,4.02.63,14.34-16.06,20.07-15.55ZM401.19,567.2l-23.67-3.29-6.58,40.75c6.1-1.06,33.22-34.24,30.24-37.46ZM452.47,650.67h-37.8c-2.26,0-7.5-1.73-6.93-4.94l6.95-74.95c-.59-4.05-6.66-2.77-9.55-2.93l-9.39,89.23c.9,2.15,7.16,3.91,9.38,4.45,9.9,2.42,48.73,4.31,56.92.35.88-.43,1.7-.83,2.31-1.63l-4.37-90.46-8.83,2.01,1.32,78.87ZM473.5,588.88c-.94-9.28,8.27-14.08,12.49-21.03l-21.03,1.31c-1.67,1.64,5.99,17.89,8.54,19.72ZM448.53,571.13l-32.12-.55-5.4,77.15,39.49.97-1.97-77.57ZM286.71,573.19l-7.15-.73,1.95,6.92,5.29.31-.08-6.5ZM305.2,572.45l-7.19.7c.1,1.94-.73,6.03.88,7.26l6.97,1.25-.65-9.21ZM342.02,574.1c-.7,3.39.51,8.82,0,12.49,0,2.35,24.77,6.18,27.67,5.31,3.29-.99,2.68-12.07,3.9-15.16l-30.45-4.3c-.46.15-1.04,1.26-1.12,1.66ZM367,628.32c9.34-2.26,23.47-9.33,28.81-17.53,6.04-9.27,2.92-24.99,5.36-35.71-4.86,5.27-8.05,12.45-12.81,17.75-4.09,4.55-14.89,11.01-17.34,15.53-1.1,2.04-4.75,19.21-4.03,19.96ZM463.65,577.05v22.02c0,25.63,43.44,45.95,65.76,43.37l-1.63-13.49c-10.77-2.22-18.92-2.55-28.82-8-18.07-9.95-25.45-26.96-35.3-43.91ZM325.43,578.53c-5.6-4.99-7.63,7.07-1.17,4.13,1.22-.55,2.37-3.07,1.17-4.13ZM340.04,584.94l.37-5.26-3.65-1.32c-.13,2.72-.35,6.96,3.28,6.57ZM46.78,581.03l-7.08-.57-5.37,12.36,8.57.36c.87-2.08,5.24-10.54,3.88-12.15ZM284.16,582.32c-1.08-.44-3.55.27-2.62.64,1.08.44,3.55-.27,2.62-.64ZM305.86,583.63c-4.25-.57-9.7-2.23-11.84,2.93.59,2.77,13.51,2.6,11.84-2.93ZM326.89,586.24c1.96-3.07-12.85-3.32-13.79.34,3.68,3.4,9.58,1.02,13.79-.34ZM480.73,591.52c-3.62,1.49-4.45.21-7.21-1.65l3.94,8.22c1.75,1.17,3.76-5.42,3.27-6.57ZM345.96,619.45c-.32-3.48.23-7.33,0-10.85,4.21,2.22,2.16,10.46,2.7,14.71s6.63,19.51,12.42,16.54c6.24-3.2-4.44-24.92-2.64-30.6h3.29c.15,5.52-.41,13.46,3.28,17.75l5.94-32.51-30.19-4.23c-4.75,13.22-8.35,38.23,4.86,47.92,10.49,7.69,3.75-4.67,2.78-8.04s-2.14-7.39-2.44-10.7ZM128.35,594.8l-17.44-1.33c-1.01-.06-1.1.48-1.5,1.15-2.08,3.43-.94,22.93-4.73,24.85-.99.5-2.23.31-3.3.32-1.17,1.1,7.12,17.97.96,25.6-1.85,2.3-4.99,2.07-5.79,4.73l-12.58,73.46.64,2c2.18,2.81,24.9,8.83,25.96,7.91,5.78-46.23,13.81-92.21,17.77-138.68ZM245.29,593.57l-13.08.57c-1.86,12.47.93,24.81,1.96,37.15.25,3.03-.26,6.15.03,9.17,2.91,31.04,8.23,61.97,11.17,93.02,2.48-1.49,17.61-3.96,17.79-6.87l-17.87-133.05ZM44.77,601.95c3.31-6.41-11.82-8.13-12.41-5.5.73,3.29,10.04,6.79,12.41,5.5ZM228.28,595.45l-19.09,1.03,9.64,140.99c1.48.51,22.31-2.84,23.63-3.94.53-.44.91-.9.87-1.63l-15.05-136.44ZM151.02,596.77c-5.39-1.01-13.66.75-19.4,0l-19.07,137.37c5.04-.26,26.22,5.45,29.28,2.65l10.87-138.4c.29-.88-1.16-1.52-1.68-1.62ZM182.25,738.09l-.33-140.66h-26.63l-9.53,140.66h36.49ZM207.24,597.43h-22.35v140.66h29.59l-7.23-140.66ZM524.13,598.74c-1.45-1.2-17.31,12.69-20.76,13.13-5,.64-5.15-3.43-6.62-3.87-1.87-.56-3.66,2.68-6.62,1.49-2.11-.85-2.46-6.88-5.45-5.16-.93,2.92,5.47,7.79,7.59,9.5,9.83,7.96,22.38,12.59,35.15,11.85l-3.29-26.94ZM278.24,611.89l-26.86,5.68c-.61,1.52,1.2,22.59,2,24.77.85,2.32,2.16.56,3.06-.65,2.46-3.29,1.48-8.5,4.7-11.39,1.51,4.69-3.87,18.07,2.46,20.23,4.18,1.43,4.95-3.26,6.21-6.64,1.86-4.98,2.98-10.21,2.52-15.56,2.86-.13,2.13,5.45,1.96,7.55-.35,4.2-2.41,8.92-3.93,12.82,4.21.6,6.21-2.57,7.55-5.92,3.88-9.71,2.28-20.96.33-30.89ZM529.39,644.76h-10.19c-2.87,0-12.63-2.84-15.8-3.92-14.6-4.98-27.02-14.97-37.77-25.66,1.03,7.71.14,15.61.66,23.32,1.26,18.45,9.38,26.12-16.13,27.94-11.17.79-45.89.62-54.46-6-3.44-2.66-3.25-6.1-3.04-10.07.56-10.44,4.69-23.66,4.3-33.88-.03-.8.55-1.21-.71-1.96-9.19,6.95-18.91,12.63-29.54,17.12-5,26.72-9.29,54.06-9.45,81.36,2.77,4.82,63.82,10.28,72.51,10.66,22.22.95,48.28.84,70.36-1.35,4.39-.44,34.26-4.59,35.55-6.54l-6.28-71.01ZM77.71,640.16c.81,4.27,1.43,17.85,6.98,18.39,10.29,1,1.88-19.31,4.51-23.68l1.98.04c1.23,3.11.6,8,4.04,9.76,11.32,5.76,5.66-19.76,3.28-24.3-4.9-.54-32.4-5.36-34.93-3.23-4.44,3.72-6.62,37.78,6.26,37.48-1.59-2.06-6.48-20.06-2.3-19.7,3.59,7.79-1.2,21.88,11.5,22.99-1.72-6.03-4.46-11.36-1.32-17.74ZM590.54,683.54h-53.58c-3.66,7.22,5.4,27.26.12,33.31-2.92,3.34-16.44,3.69-16.91,5.25l2.01,78.1c.96,6.72,4.94,14.01,3.78,20.89s-12.89,9.34-16.94,14.28h81.52v-151.84ZM422.18,725.64l-45.33-4.64c-.27,13.9.36,27.86.03,41.76-.06,2.34-1.25,4.41-1.32,6.56-.2,6.23,2.39,24.25-1.81,28.62-2.18,2.28-13.08,6.74-16.81,9.3-.7.48-3.46,1.99-3.09,2.82,10.44,1.94,22.7,8.3,23.67,20.06,5.49-.2,38.67-7.99,39.99-11.61.22-7.98-2.5-15.6-2.55-23.57-.04-6.96,1.26-16.49,2.02-23.64.63-5.96,7.12-43.42,5.21-45.66ZM518.21,721.66l-46.01,5.26,7.23,77.24c1.57,3.6-12.66,10.96-11.18,12.14,13.78-.56,27.64,5.14,33.99,17.79,5.17-.89,20.29-7.75,21.19-12.9.98-5.62-3.37-16.82-3.93-23.6-1.55-18.97.96-38.79.05-57.89-.28-5.87-2.32-11.99-1.34-18.05ZM147.41,801.18c-2.96-2.59-4.8-3.76-5-8.09l6.69-51.74-44.42-5.89-7.56,77.53c1.16,2.94,15.33,8.45,18.36,7.92,2.42-.43,5.64-6.77,7.68-8.8,6.7-6.66,15.41-8.7,24.25-10.93ZM237.48,737.44l-42.73,3.94,2.36,72.39,24.15,5.1c4.57-9.79,11.48-18.52,22.8-20.3-1.55-5.09-6.76-2.92-7.83-10.24l1.25-50.88ZM262.89,809.31c-2.07-2.63-12.28-9.33-15.53-9.83-8.07-1.24-21.22,11.23-22.8,19.14.07.51.65,1.09,1.1,1.29,3.99,1.73,37.29-.6,39.3-4.39.71-2.29-.72-4.49-2.07-6.2ZM158.95,811.33c-1.43-1.55-7.41-7.14-9.09-7.66-7.92-2.48-29.27,9.27-30.71,18.53,14.22,4.02,31.41,4.19,45.05-1.29,1.51-2.94-3.37-7.55-5.25-9.58ZM349.73,811.86c-4.65.93-18.37,12.88-12.66,17.62,4.73,3.92,31.19,1.71,38.2.67-.25-9.19-17.08-19.98-25.54-18.29ZM499.15,835.37c-1.75-12.53-22.98-18.8-33.56-16.79-5.82,1.1-14.47,9.24-13.81,15.67.14.45,1.45,1.12,1.67,1.12h45.69Z"/>
  <rect x=".14" y="841.29" width="595" height=".66" fill="#fff"/>
  <path d="M590.54,5.86v341.8c-19.54-5.14-36.2,2.19-45.69,19.7-2.26-11.07-8.88-25.35-8.89-36.5,0-6.14,2.92-13.55,3.29-19.7,1.61-26.83-24.4-43.23-47.3-49.3-4.13-1.09-12.76-1.35-15.99-3.08-2.19-1.17-2.4-3.95-4.09-5.78-9.55-10.34-36.36-8.73-43.61,3.72-1.24,2.13-1.17,4.8-2.37,6.17-1.76,2.02-14.4,5.9-18.07,8.22-16.12,10.19-20.14,40.22-24.07,58.1-4.49,20.46-9.45,43.7-12.62,64.29-1.31,8.48-2.42,9.72,5.54,14.47,11.84,7.07,23.15,6.65,35.4,9.96.9.24,2.04.09,2.27,1.34l-33.72,8.44-37.47-39.78c-1.71-1.15-4.61-1.1-6.56-.7-8.94,1.85-68.6,72.77-79.7,84.64-5.35,5.72-11.03,11.13-16.23,16.97-5.89-2.16-11.03-6-17-8.08-5.27-1.83-12.83-2.21-16.88-4.15-.89-.43-1.92-.75-.84-1.79,1.21-1.16,13.15-5.92,16.38-7.94,6.75-4.2,15.11-11.59,18.57-18.9,2.2-4.66,3.02-12.26,5.26-15.78,4.53-7.14,12.48-5.86,11.99-20.26-.21-6.22-5.42-12.3-5.48-14.02-.04-.97,6.09-13.69,6.88-18.06,6.78-37.51-37.66-62.82-69.69-65.11-42.33-3.03-133.66,33.6-105.9,88.78,1.06,2.11,3.9,4.06,4.28,6.27.59,3.51-1.91,7.44-1.13,12.28,1.64,10.29,9.1,12.32,14.98,18.54,2.78,2.95,4.57,6.83,7.24,9.85,8.99,10.18,23.98,12.12,35.47,19.09l1.34,1.99c.1.85-.39,2.36-1,2.94-1.36,1.29-21.4,5.13-25.96,6.91-13.92,5.44-25.1,16.39-32.9,28.9l-13.37,24.58-3.06-3.47c1.12-4.23,4.8-7.03,5.89-11.28,2.18-8.48,1.05-22.98-10.48-22.64,5.5-10.84,4.7-18.94-1.97-28.91,2.43-2.05,20.62,10.86,22.37,9.55,2.8-11.83-9.81-20.6-20.4-21.39,1.39-5.43,19.1-5.38,18.99-8.75-8.06-10.46-21.44-6.12-31.48-1.1,1.25-4.91-6.59-12.49-10.85-12.49h-10.19l9.85,14.46c-8.62-4.73-23.22-6.42-30.58,1.29-8.82,9.23,18.77,3.93,22.03,9.55-5.25,3.95-10.36,5.8-14.06,11.56-2.01,3.12-5.41,9.5-3.04,12.8,2.04,1.14,12.51-8,15.55-9.49.92-.45,8.52-3.58,8.8-2.37-8.72,18.82-14.37,38.94-18.21,59.36-.71,3.8-1.96,20.21-3.67,21.63l-12.33.83V6.85l.99-.99h583.49ZM172.39,35.44c-21.21-11.57-31.51,9.65-26.76,28.39,3.16,12.46,16.66,18.3,26.76,9.4v-10.52c-2.18-2.69-4.55,1.59-7.04,2.15-15.45,3.51-11.3-31.52,4.85-17.09l2.19-.51v-11.83ZM200.96,37.1c-3.83-4.02-8.15-5.64-13.71-4.89-21.6,2.92-18.06,53.99,8.63,44.12,12.59-4.65,13.48-30.41,5.08-39.23ZM245.2,32.31c-17.89,2.91-17.97,39.21-2.45,44.19,28.12,9.03,29.81-48.65,2.45-44.19ZM386.72,34.45v40.75c0,2.25,10.19,1.83,12.18,1.66,12.8-1.09,16.57-7.8,18.39-19.75,1.06,8.64,4.51,18.97,14.64,20.21,23.31,2.85,24.07-39.1,7.53-44.34-13.9-4.4-21.22,7.42-22.17,19.54-1.42-11.43-5.52-18.67-17.73-19.75-2.32-.2-12.13-.69-12.84,1.66ZM219.07,33.47h-10.52v42.72c3.38.75,21.69,1.5,23.08-.26l-.03-11.28-12.53-.94v-30.24ZM277.59,75.21c.85-2.79-.62-9.52,0-12.82,4.83-.23,5.41,12.24,7.66,13.86,16.1,3.71,9.95-5.59,6.58-14.62-.47-1.27-2.93-5.18-2.92-5.5,0-.33,2.78-3.04,3.17-5.9,2.52-18.64-10.1-18.77-24.67-16.78-1.28,5.02-1.82,40.72-.16,42.56,1.99,1.21,9.61,1.63,10.36-.82ZM307.83,45.3h11.51l.99-.99v-9.86c0-.84-2.04-1.54-2.93-1.67-2.24-.35-18.95-.16-19.76.68-.72,1.34-.86,2.77-1.01,4.25-.82,8.52-.69,24.95,0,33.58.15,1.84.09,3.7,1.32,5.25,1.07.68,16.69.38,19.43.33,1.4-.03,2.44-1.06,3.25-1.07,1.36-.03,8.45,2.88,10.21-.1.6-1.01.86-5.83,1.72-6.12l8.71.13c1.31,6.89,2.9,8.38,10.15,6.99,1.87-.36,1.84-1.91,2.1-1.82.5.18,1.11,1.62,2.11,1.83,1.4.29,8.74.66,8.74-1.51v-16.76l7.5,17.81c1.66,1.06,10.91,1.16,10.91-1.05v-41.74l-8.79-.57c-.71.28-1.73,2.41-1.73,2.87v15.45l-7.51-17.8c-1.65-1.08-10.9-1.17-10.9,1.04v37.79c-2.87-4.42-9.58-38.43-12.3-39.3-1.86-.6-9.64-.82-10.63,1.59l-9.29,34.43-1.38-4.52c-2.47-.68-11.41,1.11-12.32-1.16l-.1-2.86h9.53c.28,0,1.48-.76,1.69-1.11.93-1.7,1.31-11.38-1.03-11.38h-10.19v-2.63ZM173.05,105.77h-9.53c-.97.56-.86,1.35-1.02,2.27-.81,4.63-.76,33.41,0,38.19.15.91.14,1.7.95,2.34,4.07.68,30.05,1.5,31.35-.5l1.67-6.17,8.72.11,3.16,7.03c3.37-.05,9.59,1.79,9.27-3.32l-11.15-39.83-11.41.55-8.85,30.64c-.48.29-.87-.4-1.01-.4h-11.51v-29.25c0-.23-.85-1.01-.66-1.64ZM242.74,136.01c12.5.81,17.32-7.95,15.79-19.4-.49-3.64-4.94-10.83-8.89-10.83h-17.09l-.99.99v40.75c0,2.15,11.18,2.95,11.18-.66v-10.85ZM313.75,136.66h-12.49v-29.91c-2.33-1.59-11.18-2.3-11.18,1.97v35.17l-10.56-37.09-11.35-1.06-11.47,39.96c-.51,5.04,7.56,3.56,10.63,2.86l1.79-6.57h9.06c.73,2.09.55,6.59,3.02,7.16.93.21,7,.18,7.82-.09,1.08-.36.79-1.78,1.39-1.89.54-.1.22,1.16.76,1.34,2.85.93,26.26,1.29,29.46.62,3.64-.77,3.26-7.03,4.02-7.25l8.73.13c.72,8.01,4.76,8.34,11.83,6.38l-10.48-41.58c-1.71-2.07-7.93-.74-10.68-.93l-10.3,30.78ZM346.95,105.77l-.99.99v40.75c0,2.38,13.77,1.85,16.03,1.57,9.27-1.18,12.19-8.59,10.76-17.18-.34-2.05-2.38-4.98-2.47-6.13-.2-2.67,2.16-7.21,1.16-12.28-.62-3.15-4.86-7.71-8.07-7.71h-16.44ZM393.63,105.77c-4.88-.9-12.24.67-17.42,0-.56,5.52-1.77,40.56.32,42.73,1.37,1.23,10.2,1.13,10.2-.99v-12.82c5.17,0,5.09,13.16,8.49,14.18,1.67.5,15.19.64,16.69.15,2.31-.74,1.91-4.54,2.75-6.45l9.54-.64,2.42,7.12c2.39-.07,8.45,1.23,9.32-1.68,1.22-4.11-9.91-34.85-11.05-41.28l-11.54.34-9.85,34.86c-.4-3.06-4.64-9.86-4.77-12.28-.07-1.36,2.87-5.99,3.06-9.2.31-5.27-2.29-12.94-8.15-14.03ZM52.59,171.69c-24.85,2.84-23.64,60.72-.84,63.57h491.78c23.04-2.88,23.96-61.31-1.33-63.74l-489.61.18ZM118.92,274.25c-4.82-5.9-12.4-3.49-18.85-4.48-6.44-20.34-40.2-21.94-46.1-.41-25.11-3.14-33.51,31.53-4.87,32.97,3.55.18,8.86-1.6,10.51-1.35.73.11,4.99,3.43,6.96,4.27,6.23,2.69,14.23,3.82,20.93,2.55,4.65-.88,8.77-5.01,12.9-5.51,6.66-.81,14.27,2.7,21.64,1.91s22.45-7.4,17.14-16.98c-4.09-7.37-12.65-3.36-16.46-5.89-1.39-.93-2.53-5.55-3.78-7.07ZM260.43,270.03c.62-5.95-5.83-4.35-9.17-5.5-4.33-1.48-4.44-9.69-7.55-10.25-5.53-1-5.87,7.23-8.23,8.87s-10.45.24-11.17,4c-.94,4.89,5.81,4.01,6.99,8.18.86,3.04-4.53,11.24.02,11.61,3.74.31,7.33-3.78,11.09-3.77,3.32,0,7.39,3.5,11.1,3.31,2.79-.75-3.57-10.41,2.4-14.71,1.33-.96,3.01-1.21,4.51-1.73ZM184.88,299.02v-9.53c0-1.07,6.59-3.62,4.97-6.89-1.01-2.04-6.11-.95-8.61-2.62-2.31-1.54-2.77-6.84-5.99-7.11-3.74-.31-3.51,6-5.27,7.13-2.16,1.39-7.6.33-9.28,3.55,3.85,5.24,7.18,8.35,5.11,15.46,3.59,1.26,7.25-2.06,10.14-1.93,2.54.11,5.49,3.2,8.93,1.93ZM332.48,277.05c-6.26,0-8.59,2.6-13.14,6.19-16.21-11.3-32.04,2.23-19.4,19.38,2.51,3.41,15.83,14.56,19.7,15.19,5.2.84,18.61-12.52,21.34-16.87,5.76-9.19,4.9-23.89-8.5-23.89ZM52.94,350.74c-1.23-1.07-2.3-4.53-3.81-5.72-6.11-4.81-5.09,4.16-7.85,5.97-2.25,1.48-7.3-.31-9.28,3.22-.86,2.33,5.31,4.74,5.61,5.75.96,3.26-1.71,7.47.09,10.61,3.32.95,5.69-2.4,8.8-2.59,3.64-.22,6.84,3.79,10.56,1.4,1.15-1.57-1.73-5.29-.91-8.11.71-2.45,6.57-4.38,5.14-8.37-2.38.2-6.54-.62-8.35-2.18ZM282.22,357.56c2.1,6.43,8.25,6.31,5.22,15.39l1.68,1.69c2.75.42,5.2-2.7,7.87-2.7s5.81,3.28,8.92,1.72c1.86-1.31-.27-6.96.07-8.45.38-1.69,3.78-2.72,4.53-4.03,3.39-5.87-4.79-3.74-7.65-5.6-1.73-1.12-1.97-4.25-3.29-5.91-5.04-6.34-5.75,3.55-8.87,5.51-2.09,1.31-6.09,1.12-8.48,2.38Z" fill="#fff"/>
  <path d="M311.77,554.05v20.05c0,2.98,6.47,4.18,6.62,4.66,1.17,3.99-6.32,3.7-7.16,5.96-1.42,3.82.54,4.74,3.68,5.3,10.89,1.92,13.09-2.16,14.57-12.02l5.26.74c1.05,1.91.4,4.04,1.2,6.03s3.26,2.29,3.52,3.78c.6,3.44-4.18,14.69-4.65,19.74-.79,8.43.49,20.31,5.62,27.22.73.98,5.9,5.96,6.53,5.96h14.79c-.12,6-.64,12.1-1.33,18.06-1.6,13.69-7.34,36.47-6.51,49.22.68,10.45,18.49,8.58,19.59,11.36l-.58,74.83c-.62,2.91-19.81,12.1-23.6,14.53-8.02,5.15-17.33,10.72-15.1,21.89,12.42,3.62,26.13,3.42,38.96,1.96,7.25-.82,40.56-7.57,44.8-11.74,4.05-3.98.01-10.89-.33-15.47-1.07-14.22,2-26.93,3.26-40.76s.98-26.92,3.88-40.03l43.05,1.03.95,1.02c2.16,14.57,4.8,29.23,6.03,43.92.68,8.17,2.57,26.19,1.29,33.47s-29.82,18.4-27.57,30.6H7.04l-.99-.99v-277.38l.96-.82c5.1,1.82,27.79-4.42,30.3.49.34,6.15-5.84,13.85-3.15,20.21.87,2.06,3.73,2.01,3.46,4.37-.64,3.73-7.74,12.08-7.62,15.19.23,6.04,18.41,12.08,17.52,3.28-.2-1.93-1.59-2.66-1.89-4.08-1.18-5.49,5.22-18.16,13.02-14.65,1.22,6.18-7.53,27.53-3.66,31.6,1.17,1.22,4.11,1.31,4.99,2.24,1.47,1.56-1.84,13.67-2.02,17.08-.33,6.2.5,16.12,4.64,21.06,3.58,4.27,13.84,5.48,19.21,6.43,2.4.42,3.6,3.3,7.13.19.75-.66,2.58-3.92,2.58-4.64v-9.53l2.63,1.79-13.09,78.13c2.26,6.62,20.5,5.85,21.62,11.14-1.44,12.63-1.28,25.45-2.63,38.09-.82,7.7-6.86,34.97-4.5,40.02,1.99,4.27,16.89,8.87,21.6,9.96,11.41,2.65,25.46,3.92,37.07,2.19,32.32-4.8-8.25-23.49-9.42-31.85l6.55-53.51h40.43l.99.99v71.65c3.66,2.95,9.2,4.21,13.78,5.28,14.31,3.33,37.18,5.25,51.3,1.29,29.43-8.25-16.27-23.57-18.27-30.38l-.15-52.45c-.01-.92.47-1.1,1.1-1.53,2.93-2.03,23.72-5.27,24.78-7.47l-10.63-80.21c.86-2,1.77-4.84,4.48-4.44-.86,2.8,2.26,10.14,5.47,9.72.99-.13,2.95-2.4,4.36-2.84,4.23-1.34,5.6.98,9.12-4.03,6.03-8.58,4.5-25.5,2.18-35.24.57-2.05,4.36-2.41,5.18-3.42,2.96-3.68-2.84-17.75-2.58-22.62l7.1-3.12-1.24-9.43c5.92-1.29,8.49,1.74,7.22,7.54-.51,2.32-11.75,8.27,1.63,9.57,17.36,1.68,7.72-9.41,9.58-18.08.81-3.78,4.61-1.8,3.91-10.53-.22-2.68-3.33-8.47.67-7.57ZM319.66,611.89h-13.81l2.31,1.97,11.49-1.97ZM27.09,630.3c-.62-.71-2.67,1.35-1.96,1.96,1.14.99,2.95-.85,1.96-1.96ZM38.27,630.96h-3.28v1.31h3.28v-1.31ZM317.03,661.84h-12.82c-.24,0-2.27,1.41-2.3,1.65l.99.35,14.13-1.99ZM59.31,679.6l-16.42-.34c3.29.98,9.97,1.79,13.47,1.71,1.14-.03,2.59,0,2.95-1.37ZM317.03,711.81c-.27-.11-3.66-.11-3.94,0-1.92.78,5.85.78,3.94,0ZM46.81,736.77c-.99-3.9-7.01-2.31-9.85-2.62l9.85,2.62ZM322.29,773.59l-7.88.64,6.24,1.33,1.64-1.97ZM56.02,787.39h11.18c.31-1.89-.41-1.08-1.52-1.41-2.68-.8-8.37-1.63-9.66,1.41Z" fill="#fff"/>
  <path d="M529.39,644.76l6.28,71.01c-1.29,1.95-31.15,6.1-35.55,6.54-22.09,2.19-48.14,2.3-70.36,1.35-8.69-.37-69.74-5.83-72.51-10.66.16-27.3,4.45-54.64,9.45-81.36,10.62-4.49,20.34-10.17,29.54-17.12,1.26.75.68,1.16.71,1.96.39,10.22-3.74,23.43-4.3,33.88-.21,3.97-.4,7.42,3.04,10.07,8.57,6.62,43.29,6.8,54.46,6,25.51-1.82,17.39-9.49,16.13-27.94-.53-7.71.37-15.61-.66-23.32,10.76,10.68,23.18,20.67,37.77,25.66,3.18,1.08,12.93,3.92,15.8,3.92h10.19Z" fill="#fff"/>
  <path d="M535.24,429.89c1.69,2.72-8.63,12.25-10.44,14.73-11.17,15.4-17.86,44.75,3.27,54.88-3.87,5.84-7.13,33.61-11.47,36.83-2.35,1.74-16.08,3.48-19.77,3.89-7.86.87-18.43,1.7-26.3,1.97-5.68.2-12.15.67-17.41-1.29,2.05,3.73,2.22,27.25-1.09,28.18-12.15-1.64-24.88,2.47-36.75-1.85-1.79-2.43-.88-22.54.73-25.64.8-1.54,2.47-1.37,2.92-2.66-13.01,2.97-26.9-.11-39.78-2.63-3.75-4.01-4.82-54.26-4.25-62.11.83-11.5,4.28-23.79,12.82-31.89l12.8,14.79c37.53,33.06,103.37,12.78,124.31-29.9l10.4,2.68ZM452.46,540.25c-9.95-3.12-20-2.52-30.23-1.97,8.65,3.01,18.67,2.1,27.92,2.65.72.04,2.49.43,2.31-.67Z" fill="#fff"/>
  <path d="M207.52,358.54c5.69,4.98,12.92,9.95,20.6,11.29,9.11,1.59,9.51-2.83,12.35,8.68,5.31,21.54,8.13,57.11-6.01,75.56-24.78,32.35-105.3,28.01-117.32-16.35-16.32,4.9-33.9-10.26-26.62-26.98,5.19-11.91,21.23-4.2,25.65,4.6,8.61-9.15,9.72-22.37,11.8-34.2,10.79-3.26,22.93-8.03,28.64-18.37,3.59,5.08,2.65,9.51,10.18,10.51,13.41,1.79,29.83-6.35,36.22-18.35,2.4.07,3.18,2.46,4.49,3.61ZM231.56,387.09c-.23-8.21-20.74-6.95-24.03-3.32-.82.91-2,3.47,0,3.32,8.54-1.21,15.49-1.03,24.02,0ZM166.47,389.07c3.45-13.2-26.99-1.19-22.34,3.28,7.6-.75,14.53-7.25,22.34-3.28ZM226.96,411.41c.05-7.11-6.32-13.06-13.39-9.77-3.18,1.48-7.07,9.86-2.39,11.09.71-5.17,2.32-10.69,8.74-9.05,3.74.95,3.47,6.74,7.04,7.74ZM169.1,414.7c1.33-15.73-19.23-14.3-17.15.28l1.99.36c-.29-6.24,5.75-13.55,11.24-7.55,1.86,2.03,1.23,6.57,3.92,6.92ZM110.58,427.19c1.16-8.24-3.57-16.02-12.48-15.76,6.51,4.49,9.61,8.33,12.48,15.76ZM192.93,430.63c-.7.58-1,1.95.2,2.47,10.78-.1,15.49-11.69,6.17-18.02-.63-.43-5.56-3.09-4.55-.71,3.55,3.33,10.2,9.05,4.57,13.78-1.89,1.59-5.19,1.49-6.38,2.48ZM209.21,441.66c-4.36,0-6.79,3.86-11.14,4.96-5.25,1.33-16.63.84-21.44-1.65-3.1-1.61-4.41-5.41-8.18-5.29-1.64,1.62,5.34,6.33,6.55,6.92,9.41,4.67,27.65,4.65,34.21-4.95Z" fill="#fff"/>
  <path d="M590.54,683.54v151.84h-81.52c4.05-4.95,15.84-7.74,16.94-14.28,1.16-6.88-2.82-14.17-3.78-20.89l-2.01-78.1c.47-1.56,13.99-1.91,16.91-5.25,5.29-6.05-3.78-26.09-.12-33.31h53.58ZM574.1,712.46c-.09-.06-1.87-.06-1.96,0-2.32,1.65,4.29,1.65,1.96,0ZM549.77,748.61h13.81c-4.09-2.05-9.91-3.32-13.81,0Z" fill="#fff"/>
  <path d="M240.89,369.46c3-1.47,7.97-2.75,8.43-6.68-3.59.94-5.01,3.5-9.03,4.44-13.03,3.03-30.48-4.95-35.68-17.59-1.99-1.33-6.48,8.58-7.54,9.87-5.48,6.68-22.89,14.94-31.25,11.49-6.16-2.53-4.75-14.6-7.54-14.13-1.09.18-5.8,8.23-7.24,9.86-7.56,8.58-20.75,12.86-31.89,13.14l.97,1.31,4.32.29c2.56,1.77-4.87,26.3-7.28,29.94l-7.68-6.43c-4.63-2.59-8.18-3.41-13.33-1.76-2.01.64-6.3,4.43-7.26,3.98-12.31-17.49-9.25-40.51,6.28-54.91,22.43-20.81,60.67-36.26,91.35-34.85,34.27,1.58,84.39,28.36,69.04,69.65-1.42,3.82-5.7,14.33-10.75,9.45l-3.92-27.07Z" fill="#fff"/>
  <path d="M474.17,391.37c-1.94-13.45-16.67-22.13-29.22-22.71-11.54-.53-26.81,6.25-21.73-11.8,2.15-7.64,8.17-12.59,8.22-20.37-6.6,9.46-11.7,20.51-11.45,32.25-6.18,1.59-12.93,3.32-16.7,8.94-1.83,2.73-1.75,7.41-5.37,7.45-6.32-24.36-3.81-51.11,2.6-75.28,23.73-5.67,49.09-5.16,73.14-1.44,3.91.6,20.5,3.58,22.84,5.43,4.25,3.38-.16,29.59,4.94,33.83,4.25,3.54,6.43-3.79,8.54-5.95,6.43-6.6,16.36-6.84,19.27,3.13s-2.01,21.26-11.25,25.92c-8.32,4.2-6.82-.69-14.18-1.35-4.81,12.73-13.46,27.55-25.5,34.64-.71.42-3.4,1.99-3.84,2.08-2.04.43-.31-1.42-.31-1.63,0-3.88.51-9.57,0-13.15ZM401.18,324.65c6.42-1.14,17.56.58,23.32-.68,2.84-.62,3.04-4.07,1.32-5.88-3.12-3.28-27.43-3.26-24.64,6.56ZM449.18,323.99h19.4c2.78,0,10.67,6.57,13.37,1.51,2.33-9.13-33.5-14.84-32.77-1.51ZM412.84,335.94c-4.14,1.2-4.13,12.64-1.52,14.39l4.66-.04c2.48-3.05,3.32-16.21-3.14-14.34ZM457.92,349.44c8.98,8.97,10.96-17.97,1.12-13.28-3.07,1.46-3.52,10.89-1.12,13.28ZM510.99,358.83c3.5-1.74,2.35-6.41,4.28-9.19.81-1.17,10.68-5.77,7.2-6.58-8.12.61-11.65,8.5-11.48,15.77Z" fill="#fff"/>
  <path d="M340.21,505.9c-.51-.56-1.11-4.61-.87-5.34,8.31-2.11,4.71-12.33,1.83-17.64-4.32-7.95-12.72-6.97-18.88-1.51-7.14,6.32-2.36,8.16-2.59,15.15-.11,3.35-1.56,5.56-1.38,9.19.08,1.6,1.34,2.9,1.31,3.94-.04,1.32-4.05,6.27-5.22,7.55.3-9.83-7.13-13.45-13.69-18.81-.44-2.11,4.63-7.65,5.61-9.96,5.01-11.79-5.98-27.56-19.69-22.31-2.72,1.04-8.57,7.9-9.04,10.71s1.13,4.08,1.13,5.75c0,2.16-2.07,6.05-1.78,9.23s4.46,7.03,3.96,9.17c-6.92,5.3-14.12,12.12-13.76,21.69,1.11,3.09,8.5.22,5.03,11.15-.18.57-2.07,4.71-3.14,3.75-5.54-17.53-13.18-33.9-26.33-46.99l95.67-102.67,39.82,41.56c-3.79,3.9-8.34,6.98-11.85,11.19-14.64,17.56-16.25,43.21-19.2,64.94-.69,1.92-6.09,1.23-6.95.27ZM336.76,415.36h-11.51l-.99,1.97h10.85c.72,0,2.19-1,1.64-1.97ZM326.89,438.36h-15.12v1.31h15.12v-1.31ZM334.78,458.08h-19.07v1.31h19.07v-1.31Z" fill="#fff"/>
  <path d="M590.54,681.56h-55.23l-8.55-84.32c21.54-19.34,45.18-36.63,63.78-58.97v143.29ZM576.73,606.63c.53-4.24-12.73-1.12-10.51.66l10.51-.66ZM560.95,636.21c.44.4,2.62-.3,2.61-.98-.01-1.98-3.85-.15-2.61.98ZM554.37,634.9h-3.28v1.31h3.28v-1.31Z" fill="#fff"/>
  <path d="M578.96,484.12c8.51,16.99,15.65,28.52,11.42,49.07-1.1,5.34-35.14,38.81-37.31,37.29-3.08-11.5-13.7-21.55-25.65-23.01l19.72-28.25-3.97-.97-20.68-33.89-1.65.36,3.93,10.17c-11.64-9.41-8.64-29.7-2.38-41.5,1.24-2.34,13.23-19.47,14.51-20.33,3.86-2.6,11.4,4.3,14.17,6.95,12.21,11.72,20.38,29.13,27.88,44.1Z" fill="#fff"/>
  <path d="M282.63,607.08c-3.54,3.35-27.19,9.26-31.35,7.12-3.69-8.04-3.04-17.84-4.61-26.62-1.22-.17-.25,1.35-1.07,2.03-4.77,3.96-47.75,5.72-56.41,5.88-26.28.48-53.25-.73-79.18-4.7l2.3-16.41c43.84,7.04,89.15,5.97,133.07.05l1.3,11.83c.19-17.62-.08-35.32-2.05-52.82-1.37-12.15-6.11-28.27-6.19-39.85,0-.87-.58-1.17.69-1.96,16.37,10.62,23.67,32.84,29.44,50.75,3.94,12.23,7.8,26.1,10.69,38.61,1.29,5.59,4.66,17.88,4.8,22.88.03,1.16-.61,2.46-1.41,3.22Z" fill="#fff"/>
  <path d="M590.54,349.63v153.15c-11.48-20.37-18.8-43.92-34.83-61.47-11.5-12.59-28.11-16.55-44.07-20.36,8.68-1.74,38.5-3.27,41.11-13.45,2.42-9.45-9.19-28.91-7.27-36.84.5-2.05,8.69-12.75,10.56-14.43,9.13-8.25,23.06-8.73,34.51-6.58Z" fill="#fff"/>
  <path d="M103.26,617.71c-15.48.76-31.13-1.21-45.83-5.91.94-22.1,6.94-44.55,14.36-65.32,7.89-22.06,18.46-47.67,40.43-58.82,7.11,21.32,3.63,44.13.9,65.96s-7.13,42.68-9.86,64.09Z" fill="#fff"/>
  <polygon points="182.25 738.09 145.76 738.09 155.3 597.43 181.93 597.43 182.25 738.09" fill="#fff"/>
  <path d="M422.18,725.64c1.92,2.24-4.57,39.7-5.21,45.66-.76,7.15-2.06,16.67-2.02,23.64.05,7.97,2.77,15.59,2.55,23.57-1.32,3.63-34.5,11.41-39.99,11.61-.97-11.76-13.24-18.11-23.67-20.06-.37-.83,2.39-2.34,3.09-2.82,3.74-2.56,14.63-7.02,16.81-9.3,4.2-4.38,1.61-22.39,1.81-28.62.07-2.15,1.27-4.22,1.32-6.56.34-13.9-.29-27.86-.03-41.76l45.33,4.64Z" fill="#fff"/>
  <path d="M518.21,721.66c-.98,6.06,1.06,12.17,1.34,18.05.91,19.11-1.6,38.92-.05,57.89.55,6.78,4.91,17.98,3.93,23.6-.9,5.14-16.02,12-21.19,12.9-6.35-12.65-20.21-18.35-33.99-17.79-1.47-1.18,12.76-8.54,11.18-12.14l-7.23-77.24,46.01-5.26Z" fill="#fff"/>
  <polygon points="207.24 597.43 214.47 738.09 184.88 738.09 184.88 597.43 207.24 597.43" fill="#fff"/>
  <path d="M151.02,596.77c.52.1,1.97.74,1.68,1.62l-10.87,138.4c-3.06,2.8-24.24-2.91-29.28-2.65l19.07-137.37c5.73.75,14.01-1.01,19.4,0Z" fill="#fff"/>
  <path d="M128.35,594.8c-3.97,46.47-12,92.44-17.77,138.68-1.06.92-23.78-5.1-25.96-7.91l-.64-2,12.58-73.46c.81-2.66,3.94-2.43,5.79-4.73,6.16-7.64-2.13-24.5-.96-25.6,1.07-.01,2.31.18,3.3-.32,3.8-1.92,2.65-21.42,4.73-24.85.4-.66.49-1.2,1.5-1.15l17.44,1.33Z" fill="#fff"/>
  <path d="M374.16,573.7c-1.72,1.33-28.12-2.3-30.17-4.21-1.79-1.66-.87-17.02-.65-20.36,1.17-18.04,4.3-39.78,7.4-57.67,4.09-23.65,9.45-50.71,33.63-61.61,5.94,8.69-.5,11.47-4.11,17.51-14.58,24.4-6.64,55.55-5.36,82.02.49,10-.01,20.84-.05,30.94-.02,4.42,1.54,8.61-.7,13.38Z" fill="#fff"/>
  <path d="M147.41,801.18c-8.84,2.24-17.55,4.27-24.25,10.93-2.04,2.03-5.27,8.37-7.68,8.8-3.04.54-17.21-4.98-18.36-7.92l7.56-77.53,44.42,5.89-6.69,51.74c.21,4.33,2.05,5.5,5,8.09Z" fill="#fff"/>
  <path d="M228.28,595.45l15.05,136.44c.04.73-.35,1.19-.87,1.63-1.32,1.11-22.15,4.46-23.63,3.94l-9.64-140.99,19.09-1.03Z" fill="#fff"/>
  <path d="M237.48,737.44l-1.25,50.88c1.06,7.33,6.28,5.16,7.83,10.24-11.33,1.78-18.24,10.51-22.8,20.3l-24.15-5.1-2.36-72.39,42.73-3.94Z" fill="#fff"/>
  <polygon points="448.53 571.13 450.5 648.7 411.01 647.73 416.41 570.59 448.53 571.13" fill="#fff"/>
  <path d="M452.47,650.67l-1.32-78.87,8.83-2.01,4.37,90.46c-.61.81-1.43,1.21-2.31,1.63-8.19,3.95-47.02,2.07-56.92-.35-2.22-.54-8.48-2.3-9.38-4.45l9.39-89.23c2.89.16,8.96-1.12,9.55,2.93l-6.95,74.95c-.57,3.22,4.67,4.94,6.93,4.94h37.8Z" fill="#fff"/>
  <path d="M424.07,370.21c10.53-.98,30.87.11,39.23,7.05,7.79,6.47,14.25,26.82,2.98,32.52-12.79,6.47-38.23,3.37-50.64-3.28-22.46-12.03-16.1-34,8.43-36.29ZM452.46,380.52c-11.71,2.87-24.23,2.97-35.48-1.65,6.93,6.74,20.85,6.68,29.73,4.76.56-.12,7.3-1.69,5.76-3.11Z" fill="#fff"/>
  <path d="M245.29,593.57l17.87,133.05c-.18,2.91-15.3,5.38-17.79,6.87-2.94-31.05-8.26-61.98-11.17-93.02-.28-3.02.23-6.14-.03-9.17-1.04-12.34-3.82-24.68-1.96-37.15l13.08-.57Z" fill="#fff"/>
  <path d="M391.99,309.53c-1.14-9.81,2.38-12.13,10.54-15.42,31.89-12.88,89.95-5.13,120.3,10.48,2.96,1.52,13.01,6.69,13.17,9.84.07,1.33-1.59,12.08-2.33,12.18-43.07-22.69-94.32-29.03-141.68-17.07Z" fill="#fff"/>
  <path d="M181.6,500.15l2.63,76.25-25.83-.8c-.71-.21-1.46-.84-1.62-1.58-.53-2.43,1.11-11.77,1.18-15.02.46-22.73-.81-45.53-3.31-68.05,9.26,2.36,16.78,10.49,26.96,9.19Z" fill="#fff"/>
  <path d="M144.78,477.8c-.33,5.39,5.49,6.94,7.27,11.47.95,2.42,1.59,7.18,1.93,9.91,3.14,25.38.76,51.1.68,76.56l-21.05-.66c1.54-31.25,4.44-63.14-1.97-93.97l13.15-3.31Z" fill="#fff"/>
  <path d="M512.29,592.18c-5.73-.51-16.04,16.18-20.07,15.55-8.26-9.06,6.65-15.47,11.52-21.46-7.31.04-10.87,9.11-16.09,13.15-1.52,1.18-4.46,4.31-5.93,1.29-3.23-6.67,12.21-21.36,17.42-24.96-6.86-1.92-16.09,16.13-21.69,13.49-4.41-2.08,2.9-11.2,4.92-13.5,7.51-8.59,20.49-15.41,32.14-14.37,10.34.92,25.39,13.04,20.03,24.45-4.24,9.02-24.98,18.26-33.07,24.15l-1.64-1.11c-3.49-4.43,14.27-15.02,12.46-16.67Z" fill="#fff"/>
  <path d="M201.31,490.95c3.76,27.78,6.15,55.61,5.84,83.72-1.22,3.17-17.52.77-20.95,2.38l-1.34-76.45,16.45-9.65Z" fill="#fff"/>
  <path d="M226.31,575.08l-17.1.66c-1.08-17.73.11-35.87-1.32-53.56-1.13-13.97-6.78-28.9-2.17-42.45l11.63,1.45c1.69.6,5.12,21.91,5.59,25.3,3.17,22.69,3.66,45.69,3.38,68.6Z" fill="#fff"/>
  <path d="M492.11,403.05c-2.24,2.95-.31,9.64-.89,13.25-1.43,8.84-17.6,16.3-25.43,17.96-14.31,3.02-51.07,2.31-40.55-21.46,27.45,7.83,57.78-.76,72.71-25.92,2.83-4.77,4.5-10.27,7.51-14.95,6.37-1.13.64,11.9-.38,14.19-2.01,4.5-5.78,10.28-8.94,14.07-1.21,1.46-3.47,2.13-4.03,2.87Z" fill="#fff"/>
  <path d="M47.9,440.57c2.49,2.74,3.19,6.7,2.87,10.28,10.17-5.61,18.59-9.74,30.22-4.57.08.11.08,1.85.02,1.93-.79.96-19.95,3.9-21.69,8.89,7.5,1.63,16.78,3.15,21.69,9.86.81,1.1,4.78,8.63,1.66,8.2-1.48-.2-10.5-6-13.31-7.08-3.83-1.47-7.87-2.64-12.02-2.77,6.91,7.58,13.51,17.75,6.25,27.58-3.94-7.23-7.98-14.42-13.81-20.35l-3.69,10.43-7.82.07,6.57-14.45c-10.5,1.6-18.78,7.13-27.61,12.48.29-5.38,3.74-9.73,7.54-13.16l13.49-7.53c-7.14-5.9-16.69-4.93-24.64-6.93-.6-.15-2.23.5-1.65-.95.54-1.34,4.71-3.77,6.21-4.31,10.57-3.82,19.29,1.15,28.62,5.29-.71-7.19-8.19-10.89-11.17-17.08,4.1-.13,9.42,1.05,12.25,4.17Z" fill="#fff"/>
  <path d="M129,480.43c6.56,31.05,3.79,63.19,2.3,94.66-4.63-1.86-12.67-1.03-16.93-2.8-1.42-.59-1.76-1.31-1.86-2.79,3.01-20.66,8.06-39.27,6.61-60.46-.5-7.35-2.55-15.08-3.98-22.31l13.85-6.3Z" fill="#fff"/>
  <path d="M464.21,286.44l-30.16-.89c-4.57-12.32-11.14-26.12,3.82-33.66,8.6-4.34,17.35-4.75,26.22-.97,18.24,7.77,2.57,22.83.12,35.52Z" fill="#fff"/>
  <path d="M456.41,566.54v-22.35l61.14-4.27v14.46c0,.48-3.43,4.32-4.45,4.75-2.91,1.23-6.97.47-10.04,1.14-4.69,1.02-9.64,4.77-13.61,5.46-10.26,1.78-22.59.24-33.04.82Z" fill="#fff"/>
  <path d="M77.71,640.16c-3.14,6.38-.4,11.71,1.32,17.74-12.71-1.11-7.92-15.2-11.5-22.99-4.18-.36.71,17.64,2.3,19.7-12.88.31-10.7-33.76-6.26-37.48,2.53-2.12,30.03,2.69,34.93,3.23,2.39,4.54,8.04,30.07-3.28,24.3-3.45-1.75-2.81-6.65-4.04-9.76l-1.98-.04c-2.64,4.36,5.78,24.68-4.51,23.68-5.55-.54-6.17-14.12-6.98-18.39Z" fill="#fff"/>
  <path d="M245.37,571.79l-15.78,1.98c-.42-30.45-3.17-60.68-7.88-90.71,4.28.88,13.16,3.57,14.58,8.09,2.94,9.39,4.65,30.9,5.79,41.54,1.39,12.99,1.82,26.11,3.3,39.09Z" fill="#fff"/>
  <path d="M463.65,577.05c9.85,16.95,17.23,33.96,35.3,43.91,9.9,5.45,18.05,5.78,28.82,8l1.63,13.49c-22.31,2.58-65.76-17.74-65.76-43.37v-22.02Z" fill="#fff"/>
  <path d="M345.96,619.45c.3,3.32,1.5,7.45,2.44,10.7s7.71,15.73-2.78,8.04c-13.21-9.68-9.61-34.7-4.86-47.92l30.19,4.23-5.94,32.51c-3.69-4.29-3.12-12.23-3.28-17.75h-3.29c-1.8,5.68,8.88,27.39,2.64,30.6-5.79,2.97-11.89-12.39-12.42-16.54s1.51-12.49-2.7-14.71c.23,3.52-.32,7.37,0,10.85Z" fill="#fff"/>
  <path d="M342.67,538.28l-1.31,37.47c-8.62-1.03-17.6,2.4-25.89-.6-3.36-10.98-.15-22.45.53-33.63l26.67-3.24Z" fill="#fff"/>
  <path d="M203.27,474.51c3.18,9.47-9.92,22.59-18.72,23.66-7.48.91-15.39-2.27-21.92-5.69-7.26-3.81-19.46-11.07-13.49-20.65,17.58,5.97,36.01,7.02,54.13,2.68Z" fill="#fff"/>
  <path d="M272.98,547.48c15.88,4.73,27.19,1.89,22.36-17.09l7.91.3c3.56,2.29,5.65,31.92,4.25,37.16-2.09,4.48-23.83,3.26-28.64,2.34l-5.88-22.71Z" fill="#fff"/>
  <path d="M547.71,397.52c-15.52,4.43-31.86,4.08-47.9,4.03l9.87-21.03,33.75-.57c1.99.76,5.51,15.58,4.28,17.57Z" fill="#fff"/>
  <path d="M412.36,565.88l-33.78-4.53c-2.38-7.45-.49-15.5.26-23.08l33.89,4.56c2.47,2.37-.22,6.81-.36,9.58-.22,4.47.14,9-.01,13.47Z" fill="#fff"/>
  <path d="M278.24,611.89c1.95,9.93,3.55,21.18-.33,30.89-1.34,3.35-3.35,6.52-7.55,5.92,1.52-3.9,3.58-8.62,3.93-12.82.17-2.09.9-7.68-1.96-7.55.46,5.35-.66,10.57-2.52,15.56-1.27,3.39-2.03,8.07-6.21,6.64-6.33-2.16-.94-15.53-2.46-20.23-3.22,2.89-2.24,8.1-4.7,11.39-.9,1.21-2.21,2.97-3.06.65-.8-2.18-2.61-23.25-2-24.77l26.86-5.68Z" fill="#fff"/>
  <path d="M367,628.32c-.72-.75,2.93-17.92,4.03-19.96,2.45-4.52,13.25-10.98,17.34-15.53,4.76-5.3,7.95-12.48,12.81-17.75-2.44,10.72.68,26.44-5.36,35.71-5.34,8.2-19.47,15.27-28.81,17.53Z" fill="#fff"/>
  <path d="M549.11,399.58c4.63,10.74-4.18,12.65-12.34,14.93-13.84,3.87-29.7,5.82-43.56,1.06.13-4.27-.88-9.81,3.13-12.6,17.61.99,35.7,1.68,52.77-3.39Z" fill="#fff"/>
  <path d="M400.99,394.52c.98.7,5.37,7.84,8.43,10.3,2.71,2.18,12.22,6.17,12.66,6.74.41.52.96,4.19.53,5.15-1.28,1.76-22.53-2.67-26.05-3.63-4.47-1.22-19.76-6.66-22.34-9.87s-.48-10.6,1.1-14.19c1.26-.36,24.6,4.75,25.67,5.51Z" fill="#fff"/>
  <path d="M454.44,437.71c14.99-.74,30.21-5.75,38.75-18.73l11.22,2.96c-9.05,18.54-29.77,29.57-49.97,30.23v-14.46Z" fill="#fff"/>
  <path d="M158.95,811.33c1.88,2.03,6.77,6.64,5.25,9.58-13.64,5.48-30.83,5.31-45.05,1.29,1.44-9.27,22.79-21.02,30.71-18.53,1.68.53,7.66,6.12,9.09,7.66Z" fill="#fff"/>
  <path d="M485.34,291.12c2.92-22.9,25.19-27.44,38.78-9.52-7.3,2.76-9.98,9.73-14.75,15.21l-24.03-5.68Z" fill="#fff"/>
  <path d="M522.16,425.88c1.98,2.1-14.32,20.79-16.75,23.02-2.2,2.02-11.36,9.17-13.7,10.01-4.57,1.65-9.23-8.15-9.57-11.89,6.69-4.07,14.04-9.44,18.96-15.58,1.33-1.66,4.39-8.04,5.29-8.51,3.5-1.84,11.65,3.24,15.77,2.95Z" fill="#fff"/>
  <path d="M402.41,424.65c1.86,11.17,9.47,19.36,19.14,24.56l-9.61,12.72c-12.64-6.04-23.05-18.29-24.96-32.47.42-2.01,13.83-5.83,15.42-4.81Z" fill="#fff"/>
  <path d="M499.15,835.37h-45.69c-.22,0-1.53-.67-1.67-1.12-.66-6.43,7.99-14.56,13.81-15.67,10.58-2.01,31.81,4.26,33.56,16.79Z" fill="#fff"/>
  <path d="M401.19,567.2c2.97,3.22-24.14,36.4-30.24,37.46l6.58-40.75,23.67,3.29Z" fill="#fff"/>
  <path d="M301.26,502.12c17.93,8.62,13.22,33.19-9.27,25.23l1.02-8.84,10.87.7v-5.92c-2.94-.79-1.61,1.79-3.14,2.62-2.02,1.11-14.4-.33-16.95-1.27-2.37-.88-4.03-3.51-6.87-3.32-.36,2.23,1.07,2.7,2.62,3.6l-4.6,8.88-5.83-2.06c-.41-9.14,7.74-13.96,13.4-19.62,5.08,6.87,15.19,10.03,18.75-.01Z" fill="#fff"/>
  <path d="M262.89,809.31c1.35,1.71,2.78,3.91,2.07,6.2-2.02,3.79-35.32,6.13-39.3,4.39-.45-.2-1.03-.78-1.1-1.29,1.59-7.91,14.73-20.38,22.8-19.14,3.25.5,13.46,7.2,15.53,9.83Z" fill="#fff"/>
  <path d="M452.47,454.79l1.31,16.43c-13.34.93-26.46-1.66-38.79-6.58l8.37-13.8,29.11,3.95Z" fill="#fff"/>
  <path d="M500.46,314.79l32.23,14.12c.52.58,3.31,14.09,3.23,15.2-.15,2-2.33,1.65-3.88,1.55-4.31-16.79-20.27-11.23-27.97.01-.67,0-3.62-6.5-3.62-6.89v-23.99Z" fill="#fff"/>
  <path d="M349.73,811.86c8.45-1.69,25.28,9.1,25.54,18.29-7.02,1.04-33.48,3.25-38.2-.67-5.71-4.74,8.02-16.69,12.66-17.62Z" fill="#fff"/>
  <path d="M524.13,598.74l3.29,26.94c-12.77.75-25.32-3.89-35.15-11.85-2.12-1.72-8.51-6.59-7.59-9.5,2.98-1.72,3.34,4.31,5.45,5.16,2.96,1.19,4.75-2.05,6.62-1.49,1.47.44,1.62,4.52,6.62,3.87,3.46-.45,19.32-14.33,20.76-13.13Z" fill="#fff"/>
  <path d="M519.53,534l10.2-30.56,1.69.4c1.65,4.78,10.83,14.29,10.52,18.98-.18,2.8-16.94,23.9-19.85,26.23-.75.61-1.51,1.2-2.57,1.05v-16.1Z" fill="#fff"/>
  <path d="M67.84,549.44l-5.62-5.21-1.96-3.32-8.45,4.64-1.38-3.98-2.92,3.66c-.25,1.77,3.07.77,4.22,2.26s1.42,7.74,2.32,9.84c-26.53,6.58-17.79-23.65-1.61-28.92,5.18,5.73,8.04,11.51,16.42,5.92,6.57,2.96.95,10.75-1.02,15.1Z" fill="#fff"/>
  <path d="M538.6,582.31c-1.34-12.83-11.65-17.56-21.03-23.99,4.86-5.48,4.12-10.45,13.18-8.58,6.81,1.4,23.56,17.26,19.61,24.28-.5.89-11.22,8.76-11.76,8.29Z" fill="#fff"/>
  <path d="M50.75,477.15l11.85,19.05c-7.87-.12-17.52,15.59-15.63,21.89.69,2.32,6.51,4.73,5.72,8.29-1.8.83-4.22,1.29-5.83,2.4-2.85,1.95-5.11,6.21-8.57,7.53,1.2-11.9,3.1-23.82,5.56-35.51,1.31-6.21,3.37-17.19,5.53-22.74.34-.88-.21-1.13,1.38-.9Z" fill="#fff"/>
  <path d="M342.02,574.1c.08-.4.66-1.51,1.12-1.66l30.45,4.3c-1.23,3.09-.61,14.17-3.9,15.16-2.9.87-27.67-2.96-27.67-5.31.51-3.67-.7-9.1,0-12.49Z" fill="#fff"/>
  <path d="M536.45,348.49c1.94,1.73,7.87,28.29,6.75,29.4l-32.25,1.66c-1.25-6.42,3.91-4.8,7.84-6.67,9.58-4.55,13.63-15.19,14.55-25.23,1.04-.02,2.31.13,3.11.84Z" fill="#fff"/>
  <path d="M482.65,288.45l-15.03-2.25,8.31-24.03c8.48-.32,17.06,2.35,24.53,6.27-9.15,3.19-14.43,11.29-17.8,20Z" fill="#fff"/>
  <path d="M58.65,557.33c-.54,4.01,3.8,8.1,3.91,11.56.09,2.97-2.9,6.82-2.62,10.09-16.81.64-29.92,2.05-21.03-19.42,7.01,1.23,13.18.07,19.75-2.24Z" fill="#fff"/>
  <path d="M486,462.68c-9.81,3.13-18.93,8.61-29.59,8.55l-1.23-15.36,23.8-6.92,7.02,13.73Z" fill="#fff"/>
  <path d="M345.88,509.43l-1.24,12.41-2.61-1.31v4.6c-.93.93-17.01-1.99-20.4-.34s-1.67,12.41-.65,15.45c-9.69-1.57-7.8-11.37-5.57-18.38.35-1.09,3.93-8.85,4.37-9.1,2.65-1.56,6.81,2.67,9.99,2.49,5.39-.31,8.02-10.22,16.12-5.81Z" fill="#fff"/>
  <path d="M421.57,420.61c-.4,7.3,4.85,10.27,9.87,14.1-5.18,10.69-8.32,16.65-18.4,5.93-2.23-2.37-11.18-15.85-6.79-17.93l15.32-2.11Z" fill="#fff"/>
  <path d="M392.55,368.12c-.12,8.47,3.35,16.05,6.65,23.57l-22.96-5.68,3.24-20.62,13.06,2.72Z" fill="#fff"/>
  <path d="M537.28,309.53l-24.24-11.26c-1.68-2.84,8.53-13.76,11.74-14.78,8.96,4.16,10.71,17.01,12.5,26.04Z" fill="#fff"/>
  <path d="M451.73,452.08c-1.31,1.71-19.32-1.02-22.28-2.21-.93-.37-2.67-1.29-2.53-2.51.08-.69,6.94-11.3,7.59-11.53l16.88,1.31c2.59,1-.49,12.24.34,14.94Z" fill="#fff"/>
  <path d="M293.36,530.39v12.82c0,5.84-16.35,5.19-19.69,1.94-4.18-4.08.96-13.4,4.59-16.42,2.46-.97,3.87,2.01,6.28,2.32,3.1.39,5.76-2.1,8.81-.65Z" fill="#fff"/>
  <path d="M426.82,266.15l3.02,19.74-15.5,2.6c.13-3.81-3.69-14.71-1.18-17.6.75-.86,11.7-3.72,13.66-4.74Z" fill="#fff"/>
  <path d="M392.64,339.76l-.67,24.98-11.78-2.02,4.2-22.98c1.29-1.67,6.09.73,8.25.02Z" fill="#fff"/>
  <path d="M393.3,295.73c2.54-8.86,8.59-18.87,17.08-23l.36,16.46-17.44,6.55Z" fill="#fff"/>
  <path d="M246.69,428.5l.33-28.93c13.89,4.03,11.26,23.9-.33,28.93Z" fill="#fff"/>
  <path d="M473.5,588.88c-2.56-1.83-10.21-18.08-8.54-19.72l21.03-1.31c-4.22,6.96-13.43,11.75-12.49,21.03Z" fill="#fff"/>
  <path d="M393.13,336.98l-7.77-.91c3.09-8.39.3-22.67,11.21-25.22l-3.44,26.14Z" fill="#fff"/>
  <path d="M281.53,479.12l18.41,1.31c-.14,3.53.81,7.59-1.77,10.55-2.92.85-4.37-1.69-5.88-1.84-1.36-.14-2.86,1.31-4.48,1.15-2.12-.21-2.72-2.53-6.28,0v-11.17ZM286.13,483.05l-.99-1.3h-1.63s0,1.3,0,1.3h2.63ZM295.33,482.41h-4.28s-.97,1.31-.97,1.31h4.28s.97-1.31.97-1.31Z" fill="#fff"/>
  <path d="M34.99,540.24c-.07,4.55-1.69,9.36,0,13.8l-12.88-1.27,1.71-13.18,11.17.64Z" fill="#fff"/>
  <path d="M115.05,441.15l11.32,16.93c-3.7,2.99-21.68-11.77-21.69-17.08l10.37.15Z" fill="#fff"/>
  <path d="M74.43,511.33l-3.94,2.3,3,.94.28,5.3c-2.93-1.78-4.64,1.93-6.9,1.93-1.81,0-5.65-2.08-8.87-.91l-3.28-7.93c6.33-2.25,13.11-1.54,19.71-1.62ZM63.92,513.3h-3.95v1.97h3.95v-1.97Z" fill="#fff"/>
  <path d="M71.8,522.51c-1.84,4.67-3.57,10.59-9.89,8.89-6.33-1.7-7.86-12.24-8.59-12.78-1.42-1.04-6.59,2.01-3.95-5.6l3.05.26c1.52,2.22,1.87,8.88,4.73,9.76,2.08.64,3.91-.78,5.72-.54,1.45.19,2.36,1.93,3.89,1.83,1.34-.09,3.2-2.31,5.04-1.82ZM65.88,526.45c-.27-.11-3.01-.11-3.28,0-1.86.76,5.14.76,3.28,0Z" fill="#fff"/>
  <path d="M36.96,527.1l-.66,11.17h-10.19c-.23,0-1.53-.67-1.67-1.12l.68-10.05h11.83Z" fill="#fff"/>
  <path d="M301.91,490.29c-5.01,10.14-20.64,23.51-18.4,1.31,3.78,2.86,5.67.14,8.27,0,1.88-.1,3.7,1.86,6.53,1.38,1.77-.3,1.42-2.98,3.61-2.69ZM292.05,494.24l-5.91,1.63c2.33,2.57,6.1,2.21,5.91-1.63Z" fill="#fff"/>
  <polygon points="38.93 512.64 36.96 525.13 27.09 525.13 29.07 512.64 38.93 512.64" fill="#fff"/>
  <path d="M334.12,492.27c-3.94,2.66.26,4.73,1.18,2.21l-.52-1.56c6.34-2.7,1.28,10.06-2.15,9.09-3.96-4.08-5.4-2.12-9.68-.55l-.66-11.17,11.83,1.98ZM326.89,492.92h-3.94s0,2.62,0,2.62c1.72.3,4.02-.45,3.94-2.62Z" fill="#fff"/>
  <path d="M289.91,518.06c1.55,1.47.1,9.57-2.48,10.67-4.84,2.06-5.02-6.61-10.5-3.61-.29-6.64,7.68-9.28,12.98-7.07Z" fill="#fff"/>
  <path d="M46.78,581.03c1.36,1.61-3.01,10.06-3.88,12.15l-8.57-.36,5.37-12.36,7.08.57Z" fill="#fff"/>
  <path d="M334.12,526.45c-2.56,3.94-4.78,6.72-2.62,11.82-3.12,1.05-5.55,2.09-8.29-.58-3.91-9.23,2.72-12.33,10.91-11.23Z" fill="#fff"/>
  <path d="M320.99,502.12c2.84,3.29,5.34-.69,7.45-.51,2.81.24,4.35,6.61,8.65.53,3,.06-1.37,11.64-9.15,10.48-3.99-.6-7.39-6.52-6.95-10.49ZM330.84,507.38c.57-2.53-6.09-3.06-6.57-2.62-.73,3.52,4.21,2.48,6.57,2.62ZM326.9,511.32c.5.48,2.89-.23,2.62-1.63-.46-2.43-3.94.36-2.62,1.63Z" fill="#fff"/>
  <path d="M311.77,528.42c-1.4,5.03,1.9,8.59,1.98,14.09.04,2.3-1.34,5.57-.66,8.25l-2.91.03-3.7-20.62,5.29-1.75Z" fill="#fff"/>
  <path d="M302.56,474.51c-5.86-1.83-12.97-.6-18.74-1.31-4.19-.52,1.7-4.72,3.17-5.39,6.17-2.76,14.12-.28,15.57,6.7Z" fill="#fff"/>
  <polygon points="41.55 498.18 38.97 509.74 30.38 509.35 33.11 498.93 41.55 498.18" fill="#fff"/>
  <path d="M344.65,527.1c1.11,7.67-3.3,12.62-10.9,9.25-3.02-7.84,4.81-9.17,10.9-9.25Z" fill="#fff"/>
  <path d="M44.84,485.69l-2.07,10.42-8.45.1c-.69-3.94,2.37-6.63,2.7-10.45l7.82-.07Z" fill="#fff"/>
  <path d="M58.31,544.38c2.12.75,5.18,2.85,6.12,4.91,4.36,9.54-20.18,6.79-6.12-4.91Z" fill="#fff"/>
  <path d="M73.11,504.75c-6.74-1.28-13.14-.27-19.72,1.32,2.61-9.06,15.98-9.28,19.72-1.32Z" fill="#fff"/>
  <path d="M340.7,486.34c-2.25-.28-15.77-2.25-15.76-4.27,4.92-5.69,13.88-2.58,15.76,4.27Z" fill="#fff"/>
  <path d="M303.68,477.35c.2.17.94,1.7.87,1.76-7.45-.82-15.27-.79-22.69-1.96-.87-.14-1.99-.33-.97-1.3,4.33-2.31,19.32-1.32,22.8,1.51Z" fill="#fff"/>
  <path d="M305.2,572.45l.65,9.21-6.97-1.25c-1.6-1.23-.78-5.32-.88-7.26l7.19-.7Z" fill="#fff"/>
  <path d="M74.43,509.35c-7.44.5-15.43-1.46-22.34,1.98-2.44-3.15,9.99-5.14,11.51-5.24,3.36-.24,9.76-.76,10.83,3.27Z" fill="#fff"/>
  <path d="M44.77,601.95c-2.37,1.29-11.68-2.21-12.41-5.5.59-2.63,15.73-.91,12.41,5.5Z" fill="#fff"/>
  <path d="M305.86,583.63c1.67,5.53-11.25,5.69-11.84,2.93,2.14-5.15,7.58-3.49,11.84-2.93Z" fill="#fff"/>
  <path d="M340.7,490.28l-20.38-3.27c6.4-2.69,15.06-.7,20.38,3.27Z" fill="#fff"/>
  <polygon points="286.71 573.19 286.79 579.69 281.51 579.38 279.56 572.46 286.71 573.19" fill="#fff"/>
  <path d="M326.89,586.24c-4.21,1.36-10.11,3.74-13.79.34.94-3.66,15.75-3.41,13.79-.34Z" fill="#fff"/>
  <path d="M480.73,591.52c.49,1.15-1.52,7.74-3.27,6.57l-3.94-8.22c2.76,1.87,3.59,3.15,7.21,1.65Z" fill="#fff"/>
  <path d="M325.43,578.53c1.2,1.07.04,3.58-1.17,4.13-6.46,2.94-4.43-9.13,1.17-4.13Z" fill="#fff"/>
  <polygon points="63.9 564.56 61.23 557.75 66.53 555.36 63.9 564.56" fill="#fff"/>
  <path d="M298.62,500.15c.86,4.58-4.18,6.87-7.88,6.57l7.88-6.57Z" fill="#fff"/>
  <path d="M340.04,584.94c-3.63.39-3.41-3.85-3.28-6.57l3.65,1.32-.37,5.26Z" fill="#fff"/>
  <path d="M302.57,488.31l2.3-6.55c2.28,1.89.48,6.38-2.3,6.55Z" fill="#fff"/>
  <path d="M338.73,498.17c-.56-.55,2.36-5.42,3.93-5.25.46,2.7-.86,5.4-3.93,5.25Z" fill="#fff"/>
  <path d="M64.57,534.98c-1.46-.07-4.59.41-5.26-1.3l5.26,1.3Z" fill="#fff"/>
  <path d="M280.86,494.23l-1.3-3.28c1.45.37,1.4,2.03,1.3,3.28Z" fill="#fff"/>
  <path d="M284.16,582.32c.92.38-1.55,1.08-2.62.64-.92-.38,1.55-1.08,2.62-.64Z" fill="#fff"/>
  <path d="M52.59,171.69l489.61-.18c25.28,2.43,24.36,60.86,1.33,63.74H51.75c-22.8-2.85-24-60.73.84-63.57ZM550.85,227.79c3.11-2.88,5.58-8.49,6.07-12.66,1.43-12.09,2.26-37.65-14.05-39.68l-489.83-.03c-5.94.25-11.03,5.3-13.12,10.55-2.28,5.73-2.43,24.59-1.35,30.92.98,5.77,6.24,13.56,12.51,14.44,165.31-.68,330.98,1.3,496.07-.99,1.2-.73,2.68-1.61,3.7-2.55Z"/>
  <path d="M307.83,45.3v2.63h10.19c2.34,0,1.96,9.68,1.03,11.38-.22.35-1.42,1.11-1.69,1.11h-9.53l.1,2.86c.91,2.27,9.86.48,12.32,1.16l1.38,4.52,9.29-34.43c1-2.41,8.78-2.18,10.63-1.59,2.72.87,9.43,34.88,12.3,39.3v-37.79c0-2.21,9.25-2.12,10.9-1.04l7.51,17.8v-15.45c0-.46,1.02-2.59,1.73-2.87l8.79.57v41.74c0,2.21-9.25,2.1-10.91,1.05l-7.5-17.81v16.76c0,2.17-7.33,1.8-8.74,1.51-1-.21-1.62-1.65-2.11-1.83-.26-.09-.22,1.45-2.1,1.82-7.25,1.4-8.83-.1-10.15-6.99l-8.71-.13c-.86.3-1.12,5.11-1.72,6.12-1.77,2.98-8.85.07-10.21.1-.81.02-1.85,1.05-3.25,1.07-2.74.05-18.36.35-19.43-.33-1.23-1.55-1.18-3.41-1.32-5.25-.68-8.63-.81-25.05,0-33.58.14-1.48.28-2.92,1.01-4.25.81-.85,17.52-1.03,19.76-.68.88.14,2.93.83,2.93,1.67v9.86l-.99.99h-11.51ZM318.35,35.44h-19.72v38.78h19.72v-7.89h-12.49v-8.54h11.83v-7.23h-11.83l.99-7.89h11.51v-7.23ZM341.32,35.48c-2.51.33-7.58-1.09-9.07,1.05l-9.97,37.69,6.58-.32,2.04-6.83c8.54.46,12.22-4.21,13.7,6.86l7.26.29-10.55-38.74ZM355.82,35.44v38.78h6.57v-25.63l10.64,25.51,8.43.12v-38.78h-7.23v25.63l-10.17-24.99-8.24-.64Z"/>
  <path d="M313.75,136.66l10.3-30.78c2.75.19,8.97-1.13,10.68.93l10.48,41.58c-7.07,1.96-11.11,1.63-11.83-6.38l-8.73-.13c-.76.23-.37,6.49-4.02,7.25-3.2.67-26.61.31-29.46-.62-.54-.18-.23-1.44-.76-1.34-.6.11-.32,1.53-1.39,1.89-.81.27-6.89.31-7.82.09-2.47-.57-2.29-5.07-3.02-7.17h-9.06s-1.79,6.57-1.79,6.57c-3.07.69-11.14,2.18-10.63-2.86l11.47-39.96,11.35,1.06,10.56,37.09v-35.17c0-4.27,8.85-3.57,11.18-1.97v29.91h12.49ZM278.17,108.47h-9.05s-10.6,38.04-10.6,38.04l7.26-.29,1.86-6.55,11.82-.29,2.04,6.83,6.6.3-9.94-38.04ZM299.28,108.4h-7.23v38.12h20.38v-7.23h-12.16l-.99-.99v-29.91ZM333.4,108.47l-9.1-.04-10.55,38.08h7.88c.29-.28.06-7.39,2.29-7.27l10.8.12,1.42,7.12,7.86.03-10.59-38.04Z"/>
  <path d="M393.63,105.77c5.87,1.08,8.46,8.76,8.15,14.03-.19,3.21-3.13,7.84-3.06,9.2.13,2.42,4.37,9.22,4.77,12.28l9.85-34.86,11.54-.34c1.14,6.43,12.26,37.18,11.05,41.28-.86,2.91-6.92,1.61-9.32,1.68l-2.42-7.12-9.54.64c-.84,1.92-.44,5.71-2.75,6.45-1.5.48-15.02.35-16.69-.15-3.4-1.02-3.31-14.17-8.49-14.18v12.82c0,2.12-8.83,2.22-10.2.99-2.09-2.17-.89-37.21-.32-42.73,5.18.67,12.54-.9,17.42,0ZM393.63,108.4c-4.37-.89-11.41.65-16.11,0v38.12h7.23v-14.46c7.93-1.41,8.29,9.04,10.61,14.37l7.8.08c-2.36-6.13-3.61-13.32-8.53-18.07,6.83-3.2,6.43-18.54-1-20.05ZM434.06,146.52l-10.17-37.48-8.93-.35-10.48,37.83,7.16-.07,2.46-7.07,11.1.56,1.73,6.49,7.14.09Z"/>
  <path d="M118.92,274.25c1.24,1.52,2.38,6.15,3.78,7.07,3.81,2.53,12.37-1.48,16.46,5.89,5.31,9.58-9.75,16.19-17.14,16.98s-14.98-2.71-21.64-1.91c-4.13.5-8.25,4.63-12.9,5.51-6.7,1.27-14.7.14-20.93-2.55-1.96-.85-6.23-4.16-6.96-4.27-1.65-.25-6.96,1.53-10.51,1.35-28.64-1.44-20.24-36.11,4.87-32.97,5.9-21.53,39.66-19.92,46.1.41,6.45.99,14.03-1.42,18.85,4.48ZM97.61,270.58c-.63-.54-2.18-5.16-3.78-7.06-10.02-11.93-36.15-8.76-37.81,8.55-14.61-4.39-31.16,13.85-17.4,24.95,9.31,7.51,14.84.83,22.29,2.02,3.81.61,8.83,5.83,14.51,6.54,13.06,1.64,17.13-5.57,25.04-5.84,3.52-.12,8.24,2.3,12.4,2.59,5.97.41,21.85-.94,23.71-7.9,3.45-12.89-9.76-7.93-14.77-10.9-2.24-1.33-3.52-6.43-5.29-8.33-5.38-5.77-16.32-2.4-18.91-4.62Z"/>
  <path d="M173.05,105.77c-.2.64.66,1.42.66,1.64v29.25h11.51c.14,0,.53.69,1.01.4l8.85-30.64,11.41-.55,11.15,39.83c.32,5.11-5.9,3.27-9.27,3.32l-3.16-7.03-8.72-.11-1.67,6.17c-1.3,2-27.29,1.18-31.35.5-.81-.64-.8-1.43-.95-2.34-.77-4.78-.82-33.55,0-38.19.16-.92.05-1.7,1.02-2.27h9.53ZM171.73,108.4h-7.23v38.12h19.72v-7.23h-12.49v-30.89ZM205.18,108.49l-9.05-.02-9.94,38.05,6.58-.32,2.35-6.95,11.03.13,2.35,6.86,7.27.28-10.6-38.03Z"/>
  <path d="M386.72,34.45c.71-2.36,10.52-1.87,12.84-1.66,12.21,1.08,16.31,8.31,17.73,19.75.95-12.12,8.27-23.94,22.17-19.54,16.54,5.23,15.78,47.19-7.53,44.34-10.13-1.24-13.57-11.57-14.64-20.21-1.81,11.95-5.58,18.65-18.39,19.75-2,.17-12.18.58-12.18-1.66v-40.75ZM431.26,34.94c-16.63,2.71-16.63,42.47,5.04,39.87,17.59-2.11,17.47-43.55-5.04-39.87ZM388.7,74.22h12.16c18.74,0,19.48-38.78,0-38.78h-12.16v38.78Z"/>
  <path d="M172.39,35.44v11.83l-2.19.51c-16.15-14.42-20.3,20.6-4.85,17.09,2.5-.57,4.86-4.84,7.04-2.15v10.52c-10.1,8.9-23.59,3.06-26.76-9.4-4.75-18.74,5.55-39.96,26.76-28.39ZM170.41,44.64c1.87-8.65-3.75-10.85-11.34-9.69-17.88,2.73-17.13,41.94,4.44,39.93,6.84-.64,7.62-3.51,6.9-9.86-22.15,14.27-22.46-34.72,0-20.38Z"/>
  <path d="M277.59,75.21c-.74,2.45-8.37,2.02-10.36.82-1.66-1.84-1.12-37.54.16-42.56,14.57-1.99,27.19-1.86,24.67,16.78-.39,2.86-3.16,5.56-3.17,5.9,0,.31,2.45,4.23,2.92,5.5,3.37,9.03,9.53,18.33-6.58,14.62-2.24-1.62-2.82-14.09-7.66-13.86-.62,3.3.85,10.02,0,12.82ZM282.52,35.44c-4.22-.63-9.75.46-14.14,0v38.78h7.23v-14.46c7.82-1.71,8.55,9.02,10.59,14.39l7.82.07c-2.33-6.07-3.38-13.72-8.53-18.07,7.48-4.75,7.01-19.21-2.97-20.7Z"/>
  <path d="M332.48,277.05c13.41,0,14.27,14.7,8.5,23.89-2.73,4.35-16.14,17.71-21.34,16.87-3.87-.63-17.19-11.78-19.7-15.19-12.64-17.15,3.2-30.68,19.4-19.38,4.55-3.59,6.88-6.19,13.14-6.19ZM318.46,287.06c-1.26-.64-4.17-4.67-7.32-5.48-8.39-2.14-14.39,4.05-13.12,12.46.97,6.46,17.05,21.79,23.89,20.74,2.92-.45,14.37-11.72,16.43-14.51,12.74-17.19-7.14-29.98-18.01-13.4-.61.35-1.2.52-1.87.18Z"/>
  <path d="M260.43,270.03c-1.5.52-3.18.77-4.51,1.73-5.97,4.3.39,13.97-2.4,14.71-3.72.19-7.78-3.31-11.1-3.31-3.76,0-7.35,4.09-11.09,3.77-4.55-.38.84-8.57-.02-11.61-1.18-4.17-7.93-3.29-6.99-8.18.72-3.76,8.79-2.35,11.17-4s2.7-9.87,8.23-8.87c3.11.56,3.22,8.77,7.55,10.25,3.35,1.14,9.79-.45,9.17,5.5ZM257.86,268.13c-2.89-.87-7.43.04-9.85-1.67-2.75-1.94-1.94-8.42-6.25-9.52-2.66,6.48-6.39,11.32-14.14,10.52-.1,2.94,5.73,3.63,6.45,5.7,1.29,3.65-2.02,7.7-1.85,11.38.88.93,8.32-4.59,10.86-4.52,2.14.06,6.9,4.26,8.88,2.91l-1.22-9.08,7.12-5.74Z"/>
  <path d="M242.74,136.01v10.85c0,3.61-11.18,2.8-11.18.66v-40.75l.99-.99h17.09c3.95,0,8.4,7.19,8.89,10.83,1.53,11.46-3.3,20.22-15.79,19.4ZM240.77,133.38c12.1,1.64,18.2-6.13,15.47-17.76-.51-2.18-4.35-7.21-6.59-7.21h-16.11v38.12h7.23v-13.15Z"/>
  <path d="M245.2,32.31c27.36-4.45,25.67,53.23-2.45,44.19-15.53-4.99-15.45-41.28,2.45-44.19ZM245.2,34.94c-16.47,2.7-16.46,42.45,5.04,39.87,17.62-2.11,17.66-43.59-5.04-39.87Z"/>
  <path d="M200.96,37.1c8.4,8.82,7.5,34.58-5.08,39.23-26.69,9.87-30.24-41.2-8.63-44.12,5.57-.75,9.89.87,13.71,4.89ZM181.15,72.03c.96.81,4.91,2.47,6.19,2.68,21.06,3.43,22.07-34.93,7.12-39.32-21.02-6.17-24.32,27.45-13.31,36.64Z"/>
  <path d="M346.95,105.77h16.44c3.21,0,7.45,4.56,8.07,7.71,1,5.07-1.36,9.61-1.16,12.28.09,1.15,2.12,4.08,2.47,6.13,1.43,8.59-1.49,16-10.76,17.18-2.26.29-16.03.81-16.03-1.57v-40.75l.99-.99ZM364.04,108.4c-4.54-.92-11.88.68-16.77,0v38.12h15.45c8.97,0,11.67-17.09,3.62-20.39,5.19-4,4.61-16.33-2.3-17.73Z"/>
  <path d="M52.94,350.74c1.81,1.56,5.97,2.38,8.35,2.18,1.43,3.98-4.43,5.91-5.14,8.37-.81,2.82,2.06,6.54.91,8.11-3.71,2.39-6.92-1.62-10.56-1.4-3.11.19-5.48,3.53-8.8,2.59-1.79-3.14.87-7.34-.09-10.61-.3-1.01-6.47-3.42-5.61-5.75,1.98-3.54,7.03-1.74,9.28-3.22,2.76-1.81,1.74-10.78,7.85-5.97,1.51,1.19,2.58,4.65,3.81,5.72ZM58.65,354.89c-6.14.74-8.77-3.13-12.16-7.22-2,5.5-5.16,6.94-10.85,7.22,4.41,4.4,5.86,5.93,4.94,12.49,4.82-2.64,8.02-2.42,12.81-.01-.66-5.56.61-9.31,5.26-12.48Z"/>
  <path d="M282.22,357.56c2.39-1.25,6.39-1.06,8.48-2.38,3.11-1.95,3.83-11.84,8.87-5.51,1.32,1.67,1.56,4.79,3.29,5.91,2.86,1.85,11.04-.27,7.65,5.6-.76,1.31-4.15,2.33-4.53,4.03-.34,1.49,1.79,7.15-.07,8.45-3.11,1.56-6.3-1.72-8.92-1.72s-5.12,3.12-7.87,2.7l-1.68-1.69c3.03-9.08-3.12-8.96-5.22-15.39ZM297.3,350.95l-4.36,6.47-7.46,1.42c3.83,4.02,6.25,7.18,5.27,13.14,4.33-2.9,8.47-1.92,13.14-.66-1.35-6.75-.92-8.25,4.6-12.16-7.36.13-9.05-1.45-11.19-8.21Z"/>
  <path d="M184.88,299.02c-3.44,1.27-6.39-1.82-8.93-1.93-2.89-.13-6.55,3.18-10.14,1.93,2.07-7.1-1.26-10.21-5.11-15.46,1.67-3.22,7.12-2.17,9.28-3.55,1.76-1.13,1.53-7.44,5.27-7.13,3.23.27,3.69,5.57,5.99,7.11,2.49,1.66,7.59.57,8.61,2.62,1.62,3.27-4.97,5.83-4.97,6.89v9.53ZM186.19,283.24c-2.23.03-4.05.3-6.16-.74-2.98-1.47-2.89-6.8-4.68-6.49-2.13,1.28-2.63,5.01-4.28,6.24-2.45,1.83-5.15-.02-7.22,1.97,4.13,3.33,6.15,6.76,4.59,12.16,5-1.51,8.81-1.88,13.8,0,.56-2.34-1.46-5.21-1.03-7.28.46-2.22,5.8-2.57,4.98-5.86Z"/>
  <path d="M219.07,33.47v30.24l12.53.94.03,11.28c-1.39,1.76-19.7,1.01-23.08.26v-42.72h10.52ZM217.76,35.44h-7.89v38.78h20.38v-7.89h-12.49v-30.89Z"/>
  <path d="M59.31,679.6c-.36,1.38-1.82,1.35-2.95,1.37-3.5.08-10.18-.73-13.47-1.71l16.42.34Z"/>
  <path d="M56.02,787.39c1.29-3.04,6.98-2.21,9.66-1.41,1.1.33,1.82-.48,1.52,1.41h-11.18Z"/>
  <polygon points="319.66 611.89 308.17 613.86 305.86 611.89 319.66 611.89"/>
  <path d="M317.03,661.84l-14.13,1.99-.99-.35c.02-.24,2.06-1.65,2.3-1.65h12.82Z"/>
  <path d="M46.81,736.77l-9.85-2.62c2.84.31,8.86-1.28,9.85,2.62Z"/>
  <polygon points="322.29 773.59 320.65 775.56 314.41 774.23 322.29 773.59"/>
  <rect x="34.99" y="630.96" width="3.28" height="1.31"/>
  <path d="M27.09,630.3c.98,1.12-.83,2.95-1.96,1.96-.71-.61,1.34-2.67,1.96-1.96Z"/>
  <path d="M317.03,711.81c1.92.78-5.85.78-3.94,0,.27-.11,3.66-.11,3.94,0Z"/>
  <path d="M452.46,540.25c.17,1.1-1.59.72-2.31.67-9.25-.54-19.27.37-27.92-2.65,10.23-.54,20.28-1.14,30.23,1.97Z"/>
  <path d="M231.56,387.09c-8.52-1.03-15.48-1.2-24.02,0-2.01.14-.83-2.41,0-3.32,3.29-3.64,23.8-4.89,24.03,3.32Z"/>
  <path d="M166.47,389.07c-7.82-3.96-14.74,2.54-22.34,3.28-4.65-4.48,25.8-16.48,22.34-3.28Z"/>
  <path d="M209.21,441.66c-6.56,9.59-24.8,9.62-34.21,4.95-1.2-.6-8.18-5.31-6.55-6.92,3.77-.12,5.08,3.68,8.18,5.29,4.81,2.49,16.19,2.98,21.44,1.65,4.35-1.1,6.78-4.97,11.14-4.96Z"/>
  <path d="M192.93,430.63c1.19-.99,4.49-.89,6.38-2.48,5.64-4.73-1.02-10.46-4.57-13.78-1.01-2.37,3.92.29,4.55.71,9.32,6.33,4.62,17.91-6.17,18.02-1.2-.52-.9-1.89-.2-2.47Z"/>
  <path d="M226.96,411.41c-3.57-1-3.3-6.78-7.04-7.74-6.42-1.64-8.03,3.88-8.74,9.05-4.68-1.22-.79-9.61,2.39-11.09,7.07-3.29,13.44,2.66,13.39,9.77Z"/>
  <path d="M169.1,414.7c-2.69-.35-2.06-4.89-3.92-6.92-5.49-5.99-11.53,1.31-11.24,7.55l-1.99-.36c-2.08-14.57,18.49-16,17.15-.28Z"/>
  <path d="M110.58,427.19c-2.88-7.44-5.97-11.28-12.48-15.76,8.91-.26,13.65,7.52,12.48,15.76Z"/>
  <path d="M549.77,748.61c3.89-3.32,9.72-2.05,13.81,0h-13.81Z"/>
  <path d="M574.1,712.46c2.32,1.65-4.29,1.65-1.96,0,.09-.06,1.87-.06,1.96,0Z"/>
  <path d="M449.18,323.99c-.74-13.33,35.1-7.61,32.77,1.51-2.7,5.06-10.59-1.51-13.37-1.51h-19.4Z"/>
  <path d="M401.18,324.65c-2.79-9.83,21.53-9.84,24.64-6.56,1.72,1.81,1.52,5.26-1.32,5.88-5.76,1.26-16.9-.45-23.32.68Z"/>
  <path d="M457.92,349.44c-2.4-2.39-1.95-11.82,1.12-13.28,9.84-4.69,7.85,22.25-1.12,13.28Z"/>
  <path d="M412.84,335.94c6.46-1.87,5.62,11.29,3.14,14.34l-4.66.04c-2.62-1.75-2.62-13.19,1.52-14.39Z"/>
  <path d="M510.99,358.83c-.18-7.27,3.36-15.16,11.48-15.77,3.48.81-6.39,5.41-7.2,6.58-1.93,2.78-.77,7.45-4.28,9.19Z"/>
  <rect x="315.72" y="458.08" width="19.07" height="1.31"/>
  <path d="M336.76,415.36c.55.97-.92,1.97-1.64,1.97h-10.85l.99-1.97h11.51Z"/>
  <rect x="311.77" y="438.36" width="15.12" height="1.31"/>
  <path d="M576.73,606.63l-10.51.66c-2.22-1.77,11.04-4.89,10.51-.66Z"/>
  <rect x="551.09" y="634.9" width="3.28" height="1.31"/>
  <path d="M560.95,636.21c-1.24-1.14,2.6-2.96,2.61-.98,0,.68-2.17,1.38-2.61.98Z"/>
  <path d="M452.46,380.52c1.54,1.42-5.19,2.99-5.76,3.11-8.88,1.92-22.79,1.98-29.73-4.76,11.25,4.62,23.77,4.52,35.48,1.65Z"/>
  <polygon points="295.33 482.41 294.36 483.72 290.08 483.71 291.05 482.4 295.33 482.41"/>
  <polygon points="286.13 483.05 283.51 483.06 283.51 481.75 285.14 481.75 286.13 483.05"/>
  <rect x="59.96" y="513.3" width="3.95" height="1.97"/>
  <path d="M65.88,526.45c1.86.76-5.14.76-3.28,0,.27-.11,3.01-.11,3.28,0Z"/>
  <path d="M292.05,494.24c.2,3.83-3.58,4.2-5.91,1.63l5.91-1.63Z"/>
  <path d="M326.89,492.92c.08,2.17-2.22,2.92-3.94,2.62v-2.62s3.94,0,3.94,0Z"/>
  <path d="M330.84,507.38c-2.37-.15-7.31.9-6.57-2.62.48-.44,7.14.09,6.57,2.62Z"/>
  <path d="M326.9,511.32c-1.32-1.27,2.16-4.06,2.62-1.63.26,1.4-2.12,2.11-2.62,1.63Z"/>
  <path d="M550.85,227.79c-1.01.94-2.49,1.82-3.7,2.55-165.09,2.29-330.76.31-496.07.99-6.27-.89-11.53-8.67-12.51-14.44-1.08-6.33-.93-25.19,1.35-30.92,2.09-5.24,7.18-10.3,13.12-10.55l489.83.03c16.31,2.02,15.48,27.58,14.05,39.68-.49,4.17-2.96,9.78-6.07,12.66ZM123.08,181.37c-4.91-.96-5.31,1.07-6.57,5.25,3.53.61,4.69-3.11,6.57-5.25ZM74.27,188.74c-11.76,1.75-12.33,25.42-1.53,28.81,17.91,5.61,19.07-31.42,1.53-28.81ZM105.26,189.97c-7.36-2.55-15.13-2.17-15.11,7.49.03,11.19,11.07,6.78,11.21,12.42.14,5.34-8.63,1.83-11.16.4l.41,5.98c9.16,5.96,20.84-2.06,14.85-12.37-2.82-4.86-12.79-2.95-9.7-8.76,3.04-2.84,6.27.23,9.56.68l-.07-5.84ZM257.7,188.74c-11.53,1.72-12.09,25.3-1.52,28.8,17.73,5.86,19.31-31.45,1.52-28.8ZM334.78,215.21v-13.47c-6.81-2.13-13.9,3.96-4.6,5.26l-.09,5.18c-15.12,4-11.26-27.38,4.02-15.69.54-5,.28-6.97-5.08-7.73-22-3.14-16.81,41.3,5.75,26.46ZM347.1,188.74c-12.26,2.32-11.98,29.82,2.45,29.45,14.66-.38,13.74-32.51-2.45-29.45ZM504.23,188.74c-12.64,2.39-12.07,30.65,3.05,29.39,14.1-1.18,12.96-32.42-3.05-29.39ZM61.28,189.25l-5.82,1.08c-.85,4.41,1.14,26.99-.9,29-1.8,1.77-4.23-1.01-3.14,6.07,4.44,1.08,9.86-3.16,9.86-7.56v-28.59ZM125.71,189.25h-14.46v28.26h15.12v-5.26h-9.86v-6.58s8.55,0,8.55,0v-5.54s-8.55-.38-8.55-.38v-4.6h9.21v-5.92ZM151.35,217.51h10.19c12.64,0,12.69-28.26,0-28.26h-10.19v28.26ZM189.16,189.25h-14.14v28.26h15.12v-5.26h-9.2v-6.58s8.55,0,8.55,0l-.62-5.63-7.94-.67v-4.22s8.46-.09,8.46-.09c.76-1.31,1.44-5.19-.23-5.82ZM209.87,189.25h-5.26v28.26h5.26v-11.83h7.89v11.83l5.63-.62.19-26.57-5.82-1.08v10.52h-7.89v-10.52ZM234.19,217.51v-27.28c-1.41-1.71-3.94-.81-5.92-.99v28.26h5.92ZM244.71,189.25l-5.82,1.08c-.85,4.34,1.07,26.95-.73,28.85-1.61,1.7-4.87-.6-3.02,5.6,3.02,2.76,9.57-3.14,9.57-5.63v-29.91ZM295.92,189.32l-6.58.32-7.81,27.86,5.88-.03c-.18-6.67,3.64-5.34,8.82-5.14l1.8,5.1,5.19.07-7.3-28.18ZM363.71,217.51h12.16c5.01,0,5.64-8.63,4.44-12.32-.31-.95-1.96-1.87-2.06-2.56s2.7-3.72,1.74-8.29c-.39-1.83-3.01-5.08-4.77-5.08h-10.52l-.99.99v27.28ZM399.87,189.25h-14.46v28.26h15.12v-5.26h-9.2v-6.58c12.08,2.19,12.08-8.1,0-5.91v-4.61s8.55,0,8.55,0v-5.92ZM415.98,189.25c-3.05-.58-7.59.42-10.85,0v28.26h5.26v-10.52c5.59-1.11,5.95,6.65,7.3,10.44l5.84.07c1.39-1.25-5.05-11.94-5.17-12.94s1.88-2.15,2.49-3.86c1.46-4.13.23-10.49-4.88-11.46ZM426.83,189.25v28.26h5.26v-18.4l7.33,18.31,6.48.1v-28.26h-5.26v17.75l-7.31-17.66-6.49-.09ZM470.22,217.51l-7.33-27.17-6.5-.78-7.86,27.95,5.29-.29,1.35-4.89h8.41s1.35,4.89,1.35,4.89l5.29.29ZM472.85,217.51h10.19c12.67,0,12.67-28.26,0-28.26h-10.19v28.26ZM531.69,189.25c-3.06-.58-7.59.42-10.85,0v28.26h5.92v-10.52c5.14-1.52,5.66,9.15,7.19,10.23l5.95.28-5.89-12.85c2.68-3.15,4.02-5.85,2.98-10.2-.55-2.29-3.02-4.78-5.3-5.21ZM136.23,210.28h-5.27s-1.31,13.15-1.31,13.15c4.55,1.89,7.91-11.81,6.57-13.15Z" fill="#fff"/>
  <polygon points="355.82 35.44 364.06 36.08 374.23 61.07 374.23 35.44 381.46 35.44 381.46 74.22 373.03 74.1 362.4 48.59 362.4 74.22 355.82 74.22 355.82 35.44" fill="#fff"/>
  <path d="M341.32,35.48l10.55,38.74-7.26-.29c-1.48-11.07-5.16-6.4-13.7-6.86l-2.04,6.83-6.58.32,9.97-37.69c1.49-2.15,6.56-.72,9.07-1.05ZM340.7,59.75l-3.61-14.45-4.28,14.45h7.89Z" fill="#fff"/>
  <polygon points="318.35 35.44 318.35 42.67 306.84 42.67 305.86 50.56 317.69 50.56 317.69 57.79 305.86 57.79 305.86 66.33 318.35 66.33 318.35 74.22 298.62 74.22 298.62 35.44 318.35 35.44" fill="#fff"/>
  <path d="M278.17,108.47l9.94,38.04-6.6-.3-2.04-6.83-11.82.29-1.86,6.55-7.26.29,10.6-38.03h9.05ZM277.58,132.71l-3.61-15.11c-1.28.12-3.98,12.97-4.27,15.11h7.88Z" fill="#fff"/>
  <path d="M333.4,108.47l10.59,38.04-7.86-.03-1.42-7.12-10.8-.12c-2.23-.12-1.99,6.99-2.29,7.27h-7.88s10.55-38.08,10.55-38.08l9.1.04ZM332.81,132.72l-3.61-15.11c-1.37.26-3.96,12.98-4.27,15.11h7.88Z" fill="#fff"/>
  <polygon points="299.28 108.4 299.28 138.31 300.27 139.29 312.43 139.29 312.43 146.52 292.05 146.52 292.05 108.4 299.28 108.4" fill="#fff"/>
  <path d="M393.63,108.4c7.43,1.51,7.83,16.85,1,20.05,4.92,4.75,6.17,11.94,8.53,18.07l-7.8-.08c-2.32-5.33-2.68-15.79-10.61-14.37v14.46h-7.23v-38.12c4.7.65,11.73-.89,16.11,0ZM384.75,124.83c10.62,2.69,10.62-12.55,0-9.86v9.86Z" fill="#fff"/>
  <path d="M434.06,146.52l-7.14-.09-1.73-6.49-11.1-.56-2.46,7.07-7.16.07,10.48-37.83,8.93.35,10.17,37.48ZM422.89,132.72c.56-.55-2.48-13.78-3.94-15.11l-3.3,15.11h7.24Z" fill="#fff"/>
  <path d="M97.61,270.58c2.59,2.23,13.53-1.14,18.91,4.62,1.77,1.9,3.04,7,5.29,8.33,5.01,2.97,18.22-1.99,14.77,10.9-1.86,6.96-17.74,8.31-23.71,7.9-4.17-.29-8.88-2.71-12.4-2.59-7.91.28-11.98,7.48-25.04,5.84-5.68-.71-10.7-5.93-14.51-6.54-7.45-1.2-12.98,5.48-22.29-2.02-13.76-11.1,2.79-29.35,17.4-24.95,1.66-17.31,27.79-20.48,37.81-8.55,1.6,1.9,3.15,6.52,3.78,7.06Z" fill="#fff"/>
  <path d="M205.18,108.49l10.6,38.03-7.27-.28-2.35-6.86-11.03-.13-2.35,6.95-6.58.32,9.94-38.05,9.05.02ZM204.61,132.72l-3.61-15.11-4.27,15.11h7.89Z" fill="#fff"/>
  <polygon points="171.73 108.4 171.73 139.29 184.23 139.29 184.23 146.52 164.5 146.52 164.5 108.4 171.73 108.4" fill="#fff"/>
  <path d="M388.7,74.22v-38.78h12.16c19.48,0,18.74,38.78,0,38.78h-12.16ZM395.93,66.33c16.06,3.43,16.15-26.09,0-23.66v23.66Z" fill="#fff"/>
  <path d="M431.26,34.94c22.51-3.67,22.63,37.77,5.04,39.87-21.67,2.6-21.67-37.16-5.04-39.87ZM431.9,42.16c-6.97,2.06-7.78,27.93,3.78,25.47,7.79-1.66,8.47-29.1-3.78-25.47Z" fill="#fff"/>
  <path d="M170.41,44.64c-22.46-14.34-22.15,34.65,0,20.38.73,6.34-.06,9.22-6.9,9.86-21.57,2.01-22.32-37.2-4.44-39.93,7.59-1.16,13.21,1.04,11.34,9.69Z" fill="#fff"/>
  <path d="M282.52,35.44c9.99,1.49,10.45,15.95,2.97,20.7,5.16,4.35,6.21,12,8.53,18.07l-7.82-.07c-2.04-5.36-2.78-16.1-10.59-14.39v14.46h-7.23v-38.78c4.38.46,9.92-.63,14.14,0ZM275.61,52.53c10.86,2.44,10.86-12.3,0-9.86v9.86Z" fill="#fff"/>
  <path d="M318.46,287.06c.67.34,1.26.17,1.87-.18,10.87-16.58,30.74-3.8,18.01,13.4-2.06,2.79-13.52,14.06-16.43,14.51-6.83,1.05-22.92-14.28-23.89-20.74-1.26-8.41,4.73-14.6,13.12-12.46,3.15.8,6.06,4.84,7.32,5.48Z" fill="#fff"/>
  <path d="M257.86,268.13l-7.12,5.74,1.22,9.08c-1.97,1.35-6.74-2.85-8.88-2.91-2.53-.07-9.98,5.45-10.86,4.52-.17-3.68,3.14-7.73,1.85-11.38-.73-2.07-6.56-2.75-6.45-5.7,7.75.8,11.48-4.04,14.14-10.52,4.31,1.09,3.5,7.58,6.25,9.52,2.42,1.71,6.96.8,9.85,1.67Z" fill="#fff"/>
  <path d="M240.77,133.38v13.15h-7.23v-38.12h16.11c2.24,0,6.08,5.03,6.59,7.21,2.73,11.63-3.37,19.41-15.47,17.76ZM240.77,114.97v11.17c11.66,2.72,11.9-13.92,0-11.17Z" fill="#fff"/>
  <path d="M245.2,34.94c22.7-3.72,22.66,37.77,5.04,39.87-21.5,2.57-21.51-37.17-5.04-39.87ZM252.37,66.1c4.95-4.74,4.82-27.3-6.53-23.94-6.63,1.96-6.46,23.41,0,25.34,2.18.65,4.88.18,6.53-1.4Z" fill="#fff"/>
  <path d="M181.15,72.03c-11.01-9.19-7.71-42.81,13.31-36.64,14.95,4.39,13.94,42.75-7.12,39.32-1.29-.21-5.23-1.88-6.19-2.68ZM187.99,42.15c-7.46,1.7-8.41,27.15,3.08,25.47,8.09-1.18,8.93-28.21-3.08-25.47Z" fill="#fff"/>
  <path d="M364.04,108.4c6.91,1.4,7.49,13.73,2.3,17.73,8.06,3.3,5.35,20.39-3.62,20.39h-15.45v-38.12c4.88.68,12.22-.92,16.77,0ZM362.21,115.81c-1.13-1.4-5.28-1.69-7.05-1.5v8.55s6.31-.6,6.31-.6c1.41-1.46,2.02-4.85.74-6.45ZM355.17,139.95c11.87,2.46,11.82-13,0-10.52v10.52Z" fill="#fff"/>
  <path d="M58.65,354.89c-4.65,3.17-5.92,6.91-5.26,12.48-4.79-2.41-7.99-2.63-12.81.01.92-6.56-.52-8.09-4.94-12.49,5.69-.28,8.85-1.72,10.85-7.22,3.38,4.09,6.02,7.96,12.16,7.22Z" fill="#fff"/>
  <path d="M297.3,350.95c2.14,6.76,3.83,8.34,11.19,8.21-5.53,3.91-5.95,5.41-4.6,12.16-4.67-1.26-8.8-2.24-13.14.66.98-5.96-1.43-9.12-5.27-13.14l7.46-1.42,4.36-6.47Z" fill="#fff"/>
  <path d="M186.19,283.24c.82,3.28-4.52,3.63-4.98,5.86-.42,2.07,1.6,4.95,1.03,7.28-4.98-1.88-8.8-1.51-13.8,0,1.56-5.4-.46-8.83-4.59-12.16,2.07-1.99,4.77-.14,7.22-1.97,1.65-1.23,2.16-4.96,4.28-6.24,1.79-.31,1.69,5.02,4.68,6.49,2.11,1.04,3.93.77,6.16.74Z" fill="#fff"/>
  <polygon points="217.76 35.44 217.76 66.33 230.25 66.33 230.25 74.22 209.87 74.22 209.87 35.44 217.76 35.44" fill="#fff"/>
  <polygon points="426.83 189.25 433.32 189.33 440.64 206.99 440.64 189.25 445.89 189.25 445.89 217.51 439.42 217.41 432.09 199.11 432.09 217.51 426.83 217.51 426.83 189.25"/>
  <path d="M363.71,217.51v-27.28l.99-.99h10.52c1.76,0,4.39,3.26,4.77,5.08.97,4.57-1.84,7.6-1.74,8.29s1.76,1.62,2.06,2.56c1.2,3.69.57,12.32-4.44,12.32h-12.16ZM369.63,200.42l4.94-1.31c.68-1.18.5-3.16-.6-4.02l-4.34-.59v5.92ZM374.79,205.78l-5.16-.1v6.58c5.17.91,7.16-1.79,5.16-6.48Z"/>
  <path d="M151.35,217.51v-28.26h10.19c12.69,0,12.64,28.26,0,28.26h-10.19ZM157.27,212.25c10.86,1.53,11.19-19.6,0-17.09v17.09Z"/>
  <path d="M472.85,217.51v-28.26h10.19c12.67,0,12.67,28.26,0,28.26h-10.19ZM478.77,212.25c11.28,1.82,10.76-20.76,0-16.76v16.76Z"/>
  <path d="M504.23,188.74c16.01-3.03,17.15,28.21,3.05,29.39-15.12,1.26-15.69-27-3.05-29.39ZM508.81,212.04c3.48-2.59,3.75-18.98-3.26-18.08s-5.08,24.29,3.26,18.08Z"/>
  <path d="M74.27,188.74c17.54-2.62,16.38,34.42-1.53,28.81-10.8-3.39-10.24-27.05,1.53-28.81ZM75.57,193.96c-6.4.83-6.24,18.88.51,18.9,7.31-.8,6.45-19.8-.51-18.9Z"/>
  <path d="M531.69,189.25c2.28.43,4.75,2.92,5.3,5.21,1.05,4.35-.29,7.05-2.98,10.2l5.89,12.85-5.95-.28c-1.53-1.08-2.06-11.75-7.19-10.23v10.52h-5.92v-28.26c3.26.42,7.79-.58,10.85,0ZM531.27,195.26l-4.5-.76v7.24s4.32-.62,4.32-.62l.19-5.86Z"/>
  <polygon points="209.87 189.25 209.87 199.76 217.76 199.76 217.76 189.25 223.58 190.33 223.39 216.9 217.76 217.51 217.76 205.68 209.87 205.68 209.87 217.51 204.61 217.51 204.61 189.25 209.87 189.25"/>
  <path d="M257.7,188.74c17.79-2.65,16.22,34.65-1.52,28.8-10.58-3.49-10.02-27.08,1.52-28.8ZM259,193.96c-6.4.83-6.24,18.88.51,18.9,7.31-.8,6.45-19.8-.51-18.9Z"/>
  <path d="M347.1,188.74c16.19-3.06,17.12,29.07,2.45,29.45-14.43.37-14.72-27.13-2.45-29.45ZM351.67,212.04c3.82-2.84,4.23-18.1-3.26-18.08-7.75,1.97-4.61,23.94,3.26,18.08Z"/>
  <path d="M415.98,189.25c5.11.97,6.33,7.33,4.88,11.46-.6,1.71-2.6,2.89-2.49,3.86s6.55,11.69,5.17,12.94l-5.84-.07c-1.36-3.79-1.71-11.55-7.3-10.44v10.52h-5.26v-28.26c3.25.42,7.8-.58,10.85,0ZM410.39,201.74c7.34,1.55,7.39-8.77,0-7.24v7.24Z"/>
  <path d="M334.78,215.21c-22.55,14.83-27.75-29.6-5.75-26.46,5.36.76,5.62,2.73,5.08,7.73-15.28-11.68-19.15,19.69-4.02,15.69l.09-5.18c-9.3-1.29-2.21-7.39,4.6-5.26v13.47Z"/>
  <path d="M470.22,217.51l-5.29-.29-1.35-4.89h-8.41s-1.35,4.89-1.35,4.89l-5.29.29,7.86-27.95,6.5.78,7.33,27.17ZM461.67,206.99l-2.62-9.85-2.64,9.85h5.26Z"/>
  <path d="M295.92,189.32l7.3,28.18-5.19-.07-1.8-5.1c-5.19-.2-9-1.53-8.82,5.14l-5.88.03,7.81-27.86,6.58-.32ZM295.33,206.99l-3.28-10.51-1.98,10.51h5.25Z"/>
  <path d="M189.16,189.25c1.67.63.99,4.51.23,5.82l-8.45.09v4.22s7.93.67,7.93.67l.62,5.63h-8.55s0,6.57,0,6.57h9.2v5.26h-15.12v-28.26h14.14Z"/>
  <path d="M399.87,189.25v5.92s-8.55,0-8.55,0v4.61c12.09-2.19,12.09,8.1,0,5.91v6.58h9.21v5.26h-15.12v-28.26h14.46Z"/>
  <polygon points="125.71 189.25 125.71 195.16 116.51 195.16 116.5 199.77 125.07 200.15 125.06 205.68 116.5 205.68 116.51 212.25 126.37 212.25 126.37 217.51 111.25 217.51 111.25 189.25 125.71 189.25"/>
  <path d="M105.26,189.97l.07,5.84c-3.28-.45-6.52-3.52-9.56-.68-3.09,5.81,6.88,3.9,9.7,8.76,5.99,10.31-5.69,18.33-14.85,12.37l-.41-5.98c2.53,1.44,11.29,4.94,11.16-.4-.14-5.64-11.18-1.24-11.21-12.42-.03-9.65,7.75-10.04,15.11-7.49Z"/>
  <path d="M61.28,189.25v28.59c0,4.4-5.42,8.64-9.86,7.56-1.09-7.08,1.34-4.3,3.14-6.07,2.04-2.01.05-24.59.9-29l5.82-1.08Z"/>
  <path d="M244.71,189.25v29.91c0,2.49-6.56,8.39-9.57,5.63-1.85-6.2,1.41-3.9,3.02-5.6,1.8-1.9-.12-24.51.73-28.85l5.82-1.08Z"/>
  <path d="M234.19,217.51h-5.92v-28.26c1.98.18,4.51-.72,5.92.99v27.28Z"/>
  <path d="M136.23,210.28c1.33,1.34-2.02,15.04-6.57,13.15l1.31-13.15h5.27Z"/>
  <path d="M123.08,181.37c-1.88,2.13-3.04,5.86-6.57,5.25,1.26-4.17,1.66-6.2,6.57-5.25Z"/>
  <path d="M340.7,59.75h-7.89s4.28-14.45,4.28-14.45l3.61,14.45ZM338.07,57.12l-.98-3.93-1.65,3.93h2.63Z"/>
  <path d="M277.58,132.71h-7.88c.3-2.14,3-14.99,4.27-15.11l3.61,15.11ZM274.29,125.49c-2.3-.51-.84,2.66-1.97,3.94h2.63l-.66-3.94Z"/>
  <path d="M332.81,132.72h-7.88c.31-2.13,2.91-14.85,4.27-15.11l3.61,15.11ZM329.52,126.15l-1.48.81-.48,2.47h2.62s-.66-3.28-.66-3.28Z"/>
  <path d="M384.75,124.83v-9.86c10.62-2.69,10.62,12.55,0,9.86ZM386.72,122.21l3.66-.61-.34-3.7-3.32-.29v4.61Z"/>
  <path d="M422.89,132.72h-7.24s3.3-15.11,3.3-15.11c1.46,1.33,4.5,14.56,3.94,15.11ZM420.25,129.43c.16-.16,0-3.96-1.3-3.94-.97,1.69-.59,5.87,1.3,3.94Z"/>
  <path d="M204.61,132.72h-7.89s4.27-15.11,4.27-15.11l3.61,15.11ZM201.98,129.43l-1.3-3.93-1.32,3.93h2.63Z"/>
  <path d="M395.93,66.33v-23.66c16.15-2.43,16.06,27.09,0,23.66ZM397.9,63.7c10.97,1.69,10.8-18.9,0-18.4v18.4Z"/>
  <path d="M431.9,42.16c12.25-3.63,11.57,23.81,3.78,25.47-11.56,2.46-10.75-23.41-3.78-25.47ZM437.18,45.47c-1.17-1-3.65-1.13-5.07-.49-4.6,3.09-4.34,19.09,1.01,20.04,8.01,1.42,7.25-16.83,4.06-19.54Z"/>
  <path d="M275.61,52.53v-9.86c10.86-2.44,10.86,12.3,0,9.86ZM280.81,45.36c-4.81-1.85-4.81,6.33,0,4.48v-4.48Z"/>
  <path d="M240.77,114.97c11.9-2.75,11.66,13.89,0,11.17v-11.17ZM246.58,117.7c-.75-.46-2.8.06-3.85-.1v5.92c4.61,2.33,5.77-4.66,3.85-5.82Z"/>
  <path d="M252.37,66.1c-1.65,1.58-4.35,2.05-6.53,1.4-6.46-1.93-6.63-23.38,0-25.34,11.35-3.36,11.48,19.21,6.53,23.94ZM251.1,64.16c3.1-2.43,3.05-17.34-.48-19.18-11.21-5.82-9.82,27.26.48,19.18Z"/>
  <path d="M187.99,42.15c12.01-2.74,11.17,24.29,3.08,25.47-11.49,1.68-10.54-23.77-3.08-25.47ZM192.58,64.16c3.19-2.31,3.28-17.42-.47-19.19-10.87-5.14-9.49,26.41.47,19.19Z"/>
  <path d="M355.17,139.95v-10.52c11.82-2.48,11.87,12.98,0,10.52ZM361.64,132.82c-.32-.51-4.23-1.03-4.5-.76v5.26s3.99-.29,3.99-.29c.77-.54.93-3.54.51-4.22Z"/>
  <path d="M362.21,115.81c1.28,1.6.67,4.99-.74,6.45l-6.31.6v-8.55c1.76-.19,5.92.1,7.05,1.5ZM360.43,120.23c1.91-1.86-4.47-6.77-3.29,0,.73-.12,3.1.19,3.29,0Z"/>
  <path d="M374.79,205.78c2,4.68,0,7.39-5.16,6.48v-6.58s5.16.1,5.16.1Z" fill="#fff"/>
  <path d="M369.63,200.42v-5.92s4.34.59,4.34.59c1.1.86,1.28,2.84.6,4.02l-4.94,1.31Z" fill="#fff"/>
  <path d="M157.27,212.25v-17.09c11.19-2.51,10.86,18.62,0,17.09Z" fill="#fff"/>
  <path d="M478.77,212.25v-16.76c10.76-4,11.28,18.58,0,16.76Z" fill="#fff"/>
  <path d="M508.81,212.04c-8.34,6.21-10.48-17.16-3.26-18.08s6.74,15.49,3.26,18.08Z" fill="#fff"/>
  <path d="M75.57,193.96c6.96-.9,7.81,18.11.51,18.9-6.75-.02-6.91-18.07-.51-18.9Z" fill="#fff"/>
  <polygon points="531.27 195.26 531.08 201.12 526.76 201.74 526.76 194.5 531.27 195.26" fill="#fff"/>
  <path d="M259,193.96c6.96-.9,7.81,18.11.51,18.9-6.75-.02-6.91-18.07-.51-18.9Z" fill="#fff"/>
  <path d="M351.67,212.04c-7.87,5.86-11.01-16.11-3.26-18.08,7.49-.02,7.08,15.24,3.26,18.08Z" fill="#fff"/>
  <path d="M410.39,201.74v-7.24c7.39-1.53,7.34,8.79,0,7.24Z" fill="#fff"/>
  <polygon points="461.67 206.99 456.41 206.99 459.05 197.14 461.67 206.99" fill="#fff"/>
  <polygon points="295.33 206.99 290.08 206.99 292.06 196.48 295.33 206.99" fill="#fff"/>
  <polygon points="338.07 57.12 335.44 57.12 337.09 53.19 338.07 57.12" fill="#fff"/>
  <path d="M274.29,125.49l.66,3.94h-2.63c1.13-1.28-.33-4.45,1.97-3.94Z" fill="#fff"/>
  <polygon points="329.52 126.15 330.18 129.43 327.56 129.43 328.03 126.96 329.52 126.15" fill="#fff"/>
  <polygon points="386.72 122.21 386.72 117.6 390.05 117.89 390.38 121.59 386.72 122.21" fill="#fff"/>
  <path d="M420.25,129.43c-1.9,1.94-2.27-2.25-1.3-3.94,1.29-.02,1.46,3.77,1.3,3.94Z" fill="#fff"/>
  <polygon points="201.98 129.43 199.35 129.43 200.67 125.49 201.98 129.43" fill="#fff"/>
  <path d="M397.9,63.7v-18.4c10.8-.49,10.97,20.09,0,18.4Z" fill="#fff"/>
  <path d="M437.18,45.47c3.19,2.72,3.95,20.97-4.06,19.54-5.35-.95-5.62-16.94-1.01-20.04,1.43-.64,3.9-.5,5.07.49Z" fill="#fff"/>
  <path d="M280.81,45.36v4.48c-4.81,1.85-4.81-6.33,0-4.48Z" fill="#fff"/>
  <path d="M246.58,117.7c1.92,1.16.76,8.15-3.85,5.82v-5.92c1.04.17,3.09-.36,3.85.1Z" fill="#fff"/>
  <path d="M251.1,64.16c-10.3,8.08-11.69-25-.48-19.18,3.53,1.83,3.58,16.74.48,19.18Z" fill="#fff"/>
  <path d="M192.58,64.16c-9.95,7.22-11.33-24.32-.47-19.19,3.75,1.77,3.65,16.88.47,19.19Z" fill="#fff"/>
  <path d="M361.64,132.82c.42.68.26,3.68-.51,4.22l-3.99.29v-5.26c.27-.27,4.19.25,4.51.76Z" fill="#fff"/>
  <path d="M360.43,120.23c-.2.19-2.56-.11-3.29,0-1.18-6.78,5.21-1.87,3.29,0Z" fill="#fff"/>
</svg>