<?xml version="1.0" encoding="UTF-8"?>
<svg id="Camada_1" xmlns="http://www.w3.org/2000/svg" version="1.1" viewBox="0 0 595.28 841.89">
  <!-- Generator: Adobe Illustrator 29.0.0, SVG Export Plug-In . SVG Version: 2.1.0 Build 186)  -->
  <path d="M.14,841.29V-.06h595v841.34H.14ZM589.88,5.86H6.05v502.83l30.24-1.98c-5.3-12.11-13.32-23.13-18.06-35.51-1.73-4.52-5.02-10.53-2.57-15.14,4.16-1.46,10.56,5.82,13.08,8.58,8.39,9.23,14.52,20.34,22.01,30.24-7.58-25.79-19.44-51.7-24.79-78.08-1.08-5.34-3.15-11.89-.2-16.95,3.6-2.04,13.51,13.15,15.01,15.94,9.33,17.32,14.28,38.97,24.43,56.08-2.61-17.29-3.21-34.67-4.07-52.13-1.45-2.34-4.18-2.45-6.14-4.38-6.92-6.79-13.46-49.16-8.85-56.88.88-1.48,4-3.19,4.46-4.74,1.01-3.38-3.15-11.06,3.1-11.43,5.55-.33,3.96,7.04,5.92,9.92,2.76,4.04,6.58.88,9.86,10.52,4.2,12.38,8.81,45.51-1.97,54.57,1.2,24.37,5.51,48.87,7.54,73.29.18,2.17-.83,20.79,2.96,20.04l7.99-49.11c-9.6-12.39-4.77-41.27,3.17-53.46,2.67-4.1,7.1-5.26,8.18-6.94,1.88-2.93-.02-10.04,6.13-9.35,7.76.87,2.29,8.26,2.53,11.43.15,1.89,3.8,3.4,4.41,6.01,1.99,8.51-5.2,43.22-11.72,49.13-3.3,2.99-3.9.09-5.58,6.91-3.04,12.32-2.13,26.44-6.22,38.8,5.73-8.93,10.56-18.19,17.11-26.6,4.77-6.13,13.77-18.85,22.25-16.7,2.42,3.18-9.96,28.68-10.11,34.09,5.19-7.71,12.59-14.15,21.39-17.4s20.25-2.93,26-10.82c.11-.72-6.94-9.99-7.62-10.25-1.26-.48-6.05.89-8.02.81-9.4-.38-14.87-4.23-17.8-13.09-14.88-44.92,1.83-83.24,47.67-97.34,34.17-10.51,88.14-1.84,96.32,39.49.81,4.11.34,12.72,1.66,15.43.71,1.46,3.7,2.63,5,4.2,5.69,6.86,3.89,19.11-2.97,24.43-2.07,1.61-5.87,2.56-7.11,4.06-2.1,2.54-2.72,12.64-5.71,17.3-1.17,1.83-15.69,15.55-14.35,16.87l36.81,11.18c0-6.04-5.35-31.01-2.32-34.85,3.69-4.67,12.47,10.04,13.84,12.5,3.33,5.99,6.67,14.34,8.68,20.9,1.01,3.3.34,7.89,3.14,10.65,7.64-12.98,12.52-33.26,28.6-38.11,1.01,13.28-3.3,25.95-5.91,38.77,1.78,1.58,13.77-13.24,18.33-10.43,2.33,8.58-3.07,16.74-4.91,24.91l31.94,16.42,2.63-17.74c-10.82.69-19.65-5.16-20.95-16.2-2.22-18.87,4.42-38.67,12.97-55.14-5.04-3.13-9.22-7.48-10.91-13.31-.89-3.08-.65-6.76-1.83-10-.75-2.04-2.64-3.48-3.33-5.88-3.53-12.29,5.95-29.17,8.63-41.43,4.69-21.45,3.92-51.43,18.37-69.05,32.65-39.8,102.06-47.49,129.96,1.54,4.95,8.7,11.12,21.57,10.37,31.62-.43,5.77-.24,5.71.04,11.21.2,3.77-.58,8.7.28,12.21.94,3.85,6.94,6.85,9.56,10.16,4.75,5.99,5.76,13.9,5.93,21.35,14.64-1.35,28.84,3.03,40.43,11.83,3.04,2.31,5.63,5.98,8.88,7.88V5.86ZM516.24,304.27c-10.55-44.52-73.66-52.94-107.75-31.15-2.86,1.83-16.04,12.42-16.49,15.07-.2,1.2-.01.95.93.94,2.42-.04,5.96-1.21,8.57-1.31,4.9-.18,11.11.64,15.74-.04,7.24-1.06,7.4-8.43,19.05-7.09,6.3.73,7.43,4.99,12.37,6.69,6.68,2.29,21.02,2.67,29.59,4.6,12.99,2.92,25.58,7.62,38,12.29ZM432.62,282.73c-22.23,1.2-16.87,38.06,7.16,29.56,15.83-5.6,10.27-30.5-7.16-29.56ZM418.28,289.16c-1.65-1.31-28.51,2.46-31.73,4.09-4.62,2.33-7.56,11.33-7.43,16.3l37.85-1.99c-.99-6.7-2.84-12.23,1.31-18.4ZM522.16,325.97c1.55-18.67-9.17-21.58-23.98-26.31-15.86-5.06-32.53-7.75-48.98-10.18,4.02,6.17,2.44,12.41-.02,18.73l72.97,17.76ZM416.31,310.2c-1.25-2.1-30.69.21-34.99,1.49-7.04,2.09-8.37,14.24-9.52,20.72-1.93,10.88-2,22.22-4.45,33.02-2.95,12.99-11.48,24.33-6.58,38.08.83,2.34,2.77,4.32,3.43,6.43,1.73,5.49.41,11.73,5.66,16.36,7.07,6.23,9.54-3.89,13.55-8,7.43-7.62,21.66-13.08,32.23-13.46-2.95-5.26-9.97-6.56-14.8-10.5-20.25-16.53-18.74-49.33-13.15-72.33,9.7-3.28,21.95-2.82,28.61-11.81ZM538.44,380.36c2.7-2.85-1.34-13.51-3.02-16.71-3.07-5.86-7.04-8.46-12.49-11.83l-2.08-23.56c-17.72-5.13-35.34-10.98-53.38-14.99-3.27-.73-20.49-5.11-21.96-3.12-.63,7.53,10.71,12.78,16.84,14.81,4.17,1.38,16.21,2.81,18.74,4.92,1.5,1.25,2.92,7.01,4.37,9.43.89,1.49,6.6,8.2,7.8,8.69,2.62,1.07,5.17-2.93,7.68-3.49,21.99-4.94,23.48,30.75,1.63,31.92-4.08.22-7.77-2.19-11.85-1.71-3.57,7.04-9.47,13.32-15.22,18.62-3,2.77-9.26,4.66-7.28,9.25,2.7,6.26,23.58,8.02,28.57,15.37,3.34-4.21,4.15-9.87,7.1-14.64,4.37-7.09,14.62-16.58,22.44-19.63,2.62-1.02,11.29-2.45,12.12-3.33ZM479.3,331.35c-13.65-2.42-27.75-6.26-36.5-17.77-8.04,2.31-16.03,1.99-22.88-3.23-7.75,8.39-19.25,10.73-29.89,13.33-1.25.72-2.27,6.71-2.57,8.6-4.06,25.64-.64,55.94,26.25,66.95s63.92.95,75.69-27.79c7.47.09,10.21,5.46,18.31,1.54,12.56-6.08,10.63-28.5-5.56-25.93-2.83.45-4.26,2.82-7.95,2.65-5.9-.26-13.91-12.84-14.91-18.35ZM57.24,352.16c1.25-2.01-.94-8.17-4.15-7.79-1.88.56-1,7.09,0,8.55.54.92,4.05-.58,4.16-.76ZM269.14,402.76c8.32,1.87,2.88-14.76,1.53-18.94-14.61-44.95-75.36-47.84-110.71-26.58-24,14.43-43.69,47.34-28.97,74.54l1.36-.4c3.78-9.13,16.23-8.09,23.6-4.19l1.39-16.37c15.71-2.85,28.48-14.99,30.84-30.96.95-1.03,1.18.12,1.31.98.92,5.87-4.63,12.06,5.64,13.42,13.63,1.81,29.3-8.87,28.54-23.6,6.84,1.64,12.02,6.83,18.73,9.21,4.8,1.7,16.36,2.75,19.39,4.93,3.51,2.53,4.6,14.05,7.34,17.96ZM54.54,355.05c-4.07.7-6.25,3.4-7.16,7.3-2.08,8.88,2.49,47.24,10,52.64,6.58,4.74,12.48-1.43,13.71-7.9,1.62-8.52-.76-41.84-5.85-48.59-2.61-3.46-6.6-4.15-10.7-3.45ZM157.23,430.44c-3.2-.46-5.09-2.96-8.48-3.6-17.38-3.28-23.63,19.49-9.02,26.77,8.17,4.07,12.21-.48,16.4.65,2.19.59,7.02,8.09,9.11,10,15.19,13.91,46.92,14.63,65.81,9.42,34.12-9.42,43.49-39.18,35.69-71.46-5.22-21.61-8.42-14.95-25.45-20.56-5.21-1.72-9.59-5.69-15.22-6.44-4.15,16.41-24.44,27.74-39.55,17.9-6.09,9.64-14.79,16.06-25.67,19.58l-3.61,17.75ZM589.88,437.05v-32.54c0-1.26-8-9.59-9.53-10.84-23.16-18.96-59.31-15.3-74.73,11.39-3.48,6.02-9.12,17.56-1.21,22.13l3.31-12.81c11.49-2.87,22.79-7.54,30.56-16.76,5.8,8.87,10.44,17.37,20.27,22.45,1.66.86,8.68,2.95,9.06,3.43.69.86,1.05,5.47,1.78,7.42,4.15,11.06,11.72,2.95,20.5,6.13ZM103.92,402.11c5.41-10.34-5.31-10.89-3.85.1l3.85-.1ZM464.64,401.07c-9.86,3.63-21.69,5.6-32.21,5.07-6.63-.33-19.1-6.26-14.95,5.09,3.38,9.24,17.35,12.04,26.03,11.27,9.03-.8,34.15-9.87,21.14-21.44ZM539.24,401.56c-9.64,6.52-18.82,11.27-30.07,14.62-4.31,11.68-.92,23.76-.13,35.64.55,8.4-3.13,10.1,4.35,16.65,17.42,15.24,50.38,11.31,58.73-12.04,5.97-.34,15.24,2.83,17.55-4.78,1.94-6.39,1.25-14.18-7.16-13.78-5.51.26-5.97,4.66-11.37-.16s-3.32-10.18-5.28-12.47c-.83-.96-8.01-3.11-10.18-4.28-7.49-4.01-13.84-11.28-16.44-19.4ZM77.72,534.99c-4.72-36.83-17.75-76.58-34.6-109.68-3.97-7.81-8.39-17.81-16.01-22.43-1.5.95,1.17,12.23,1.63,14.47,8.07,38.94,25.43,76.98,36.81,115.03.16.9,1.99,2.62,2.64,2.62h9.53ZM96.59,404.33c-9.94,2.37-14.02,33.76-13.65,42.29.34,7.9,4.28,17.56,13.19,10.5,6.85-5.43,13.77-36.79,12.32-45.21-1.07-6.19-5.75-9.03-11.87-7.57ZM271.67,431.13c12.98-2.69,14.03-31.45-1.92-25.2l1.92,25.2ZM414.31,406.84c-9.3.23-10.33,1.94-7.33,10.28,1.72,4.78,7.73,13.98,12.79,15.48,2.64.78,4.91.29,7.6.95,4.54,1.11,6.11,5.02,11.64,5.45,16.94,1.33,35.11-12.39,43.06-26.6-11.7-6.11-9.46-2.45-16.8,3.58-15.01,12.32-46.18,14.12-50.96-9.15ZM408.41,446.91c-7.32.76-1.62,11.43-3.92,14.15l-32.57,12.78-.67-1.97,17.81-7.83c-.04-12.8,1.87-25.67,7.43-37.27,1.29-2.69,9.97-14.03,6.71-16.39-1.14-.7-2.07-.09-3.14.23-39.96,12.11-61.2,125.76,4.36,78.63,2.86-2.05,14.69-11.31,15.87-13.71,4.01-8.08-10.95-20.5-11.88-28.63ZM410.39,446.91c-2.09,1.99,7.23,11.67,8.44,13.58,2.95,4.68,4.63,10.62,7.73,15.28,7.35,11.03,36.69,26.5,49.91,26.4,28.76-.21,34.26-48.75,26.94-69.05-2.16-5.98-10.85-18.31-17.4-19.46-8.23-1.44-4.05,13.27-3.93,16.46.53,13.71-.74,26.81-6.49,39.37.47,2.56,10.87,4.12,10.41,8.3-.74.77-16.87-8.67-18.93-9.66-4.21-2.03-12.31-3.73-15.59-6.11s-7.75-12.76-11.83-17.1c-6.34-6.74-13.09-10.55-22.69-7.87-.8,3.01,3.11,2.36,5.44,3.42,4.51,2.07,9.45,4.94,11.65,9.71-6.56-3.25-16.72-15.78-23.63-7.51-.21,1.29,15.06,8.12,15.09,12.76-5.75-1.86-8.25-9.68-15.12-8.54ZM71.8,493.57l-7.55-75.58-2.08,1.59c3.5,20.56,2.38,41.74,5.88,62.31.51,2.99,1.37,7.36,2.36,10.16.35,1-.56,1.87,1.4,1.52ZM392.65,462.03l10.19-3.94c1.03-3.52-.61-7.32,1.06-10.77.96-1.97,3.59-2.87,4.88-4.32,2.86-3.21,4.54-6.41,8.83-8.91-5.99-4.52-8.7-10.13-12.92-16.04-2.18-.54-5.06,6.86-6.04,8.9-5.75,11.93-7.42,21.82-6,35.07ZM479.43,421.93c-4.5,1.11-7.47,6.57-11.23,9.47-8.12,6.27-18.66,9.37-28.87,9.6,3.77,4.07,8.99,15.04,12.69,18.19.78.67,17.69,8.54,18.71,8.64,2.62.23,2.75-.93,3.97-2.97.85-1.41,4.73-11.87,4.73-13.02v-29.91ZM306.51,487c1.48-1.98-8.2-27.52-10.14-30.93-.8-1.4-8-10.9-9.57-9.16l3.6,32.87,16.11,7.22ZM337.41,454.14c-1.69-.19-2.6-.1-4,.93-1.6,1.18-8.36,10.49-9.69,12.66s-10.76,20.97-9.98,21.89l17.1,5.27,6.57-40.75ZM589.88,508.04v-51.93c-4.2,4.6-12.04,1.19-16.28,3.11-2.4,1.09-9.66,17.16-17.25,16.62,4.76,2.63,10.01,3.69,14.66,6.7,9.33,6.03,14.54,13.88,15.5,25.12l3.37.38ZM17.56,458.1c-1.6.06.24,4.59.48,5.42,6.84,23.58,24.93,46.19,34.14,69.07,1.59,3.55,11.85,3.4,11.63-.39-.16-2.79-4.8-13.61-6.17-16.91-3.67-8.86-8.17-17.44-13.18-25.6-3.41-5.55-21.05-31.82-26.9-31.59ZM90.87,461.37h-3.29s-8.54,66.39-8.54,66.39c7.52-21.3,8.59-44.16,11.83-66.39ZM123.73,462.03c-18.53,10.72-30.58,33.03-37.64,52.73-1.62,4.51-5.12,13.75-5.6,18.1-.12,1.11-.56,2.23.51,3.12l11.38,1.5,1.4-1.22c7.93-20.37,19.07-39.44,26.97-59.8,1.01-2.61,5.85-12.57,2.97-14.43ZM518.21,475.16c-1.24-1.26-10.3-9.92-11.17-9.19l-1.97,13.15,13.14-3.95ZM168.44,467.95c-10.22,2.26-18.53,16.83-22.19,26.12s-8.12,31.93-3.95,41.1c.97,2.12,14.56,11.62,16.62,11.66,1.42.03,1.09-.33.86-1.52-.36-1.84-2.61-4.83-3.35-7.17-6.2-19.57-6.44-40.54,4.26-58.56.96-1.62,8.48-10.95,7.76-11.63ZM221.37,478.46c-3.6.41-7.82-.3-11.51,0-.27,1.27.39,1.27,1.15,1.81,5.14,3.66,14.83,6.83,20.75,10.14,3.94,2.2,7.02,5.77,11.27,7.45,12.16-2.25,23.63-4.91,35.85-1,3.4-3.5-18.04-20.24-20.95-22.1-4.14-2.65-7.39-5.45-12.46-4.39-7.68,1.61-14.82,7.04-24.12,8.09ZM291.72,515.92c5.8-.69,12.8.51,18.74,0-4.97-7.57-15.87-12.85-24.47-15.3-31.46-8.97-63.07,2.83-88.82,20.68-7.53,5.22-14.22,11.44-21.49,16.96,3.62-7.23,11.43-12.57,17.94-17.23,2.61-1.87,13.22-7.46,14.28-8.72.58-.69.78-.98.69-1.94-.72-7.32-35.1-18.62-41.48-22.37-.86-.51-1.63.07-1.28-1.65,16.85,2.29,31.45,12.95,45.19,22.21,1.37.24,21.2-7.35,24-8.58.75-.33,3.64-1.01,3.12-2.13-11.4-7-24.09-16.18-37.32-19.23-4.3-.99-9.58-.91-13.86-1.91-6.38-1.49-13.89-8.15-19.59-3.28-15.32,13.09-15.45,56.17-5.51,72.41,3.79,6.19,28.28,15.62,36.02,18.55,37.97,14.34,115.34,32.01,153.33,16.26,5.89-2.44,7.18-7.75,7.83-13.86,1.74-16.23-8.84-32.37-22.33-40.63-29.77-18.23-70.37-3.97-95.59,16.07-5.3,4.21-9.75,11.2-16.79,13.12,13.08-14.42,29.52-26.36,47.83-33.35,4.71-1.8,14.94-5.53,19.56-6.08ZM387.66,534.7c-11.84-14.05-31.11-24.47-47.6-32.27-24.27-11.47-50-19.4-75.62-27.26-.74.88,9.95,11.13,11.37,11.96,11.59,6.78,35.59,12.66,49.55,18.82,20.41,9.01,81.34,38.92,47.5,66.77-27.11,22.31-86.63,16.47-118.96,9.94-30.56-6.17-110.21-30.61-125.66-58.41-6.34-11.4-3.97-25.34,7.54-32.12,8.18-4.82,15-4.43,18.21-16.3-38.66,4.75-58.01,41.31-25.95,70.31,44.1,39.88,157.41,65.37,214.78,54.39,30.89-5.91,74.11-31.11,44.84-65.83ZM431.43,525.46c.56,4.57-.41,10.1,0,14.79,4.9-7.12,8.4-15.08,14.13-21.7,1.21-1.4,12.67-13.76,14.16-8.75-.04,11.98-7.12,22.9-9.88,34.39,5.72-5.02,12.12-11.35,18.86-14.99,1.54-.83,7.62-4.67,8.69-1.69,1.98,5.54-17.89,27.48-15.03,31.1l22.98,2.01c-1.09-12.42,2.33-18.39,13.48-9.21l-8.23-49.95c-10.69,5.69-21.14,2.5-31.73-1.47-13.41-5.04-25.57-13.53-35.8-23.43-1.89-.43-6.9,5.93-8.73,7.49-9.23,7.85-18.12,14.49-29.91,18.08l-4.27,19.33,17.08,22.07-.62-32.84c10.55,2.25,11.61,16.19,15.74,24.3,1.36-6.65,1.78-13.82,3.64-20.35.83-2.92,3.98-14.36,8.13-10.13,1.57,1.6,6.97,18.26,7.3,20.96ZM555.09,479.17c-2.62,17.51-33.26,21.33-29.92-.68l-.81-1.24c-3.59-1.04-17.49,1.99-20.3,4.48-1.85,1.63-2.83,6.33-4.38,8.77-1.8,2.83-6.09,6.24-6.49,9.31-.29,2.27,2.66,16.31,3.9,17.7l3.6.3c.83-.34,3.64-13.08,4.71-15.67.26-.64,2.46-6.53,3.6-5.27l-7.23,31.55,50.01,4.97,3.58-29.96c1.49,0,1.52,1.16,1.67,2.28.75,5.73-1.14,13.04-2.01,18.76l26.96,4.94c8.99-21.74-2.31-47.29-26.9-50.23ZM553.06,478.46c-8.87.89-17.37,1.98-26.3.65-1.38,19.15,24.29,13.82,26.3-.65ZM349.9,481.75c-1.66-1.84-19.73,12.81-17.48,15.8,3.51.35,9.54,5.43,12.61,3.31,1.82-1.26,5.82-18.05,4.87-19.11ZM145.44,490.3c-21.45,4.79-23.71,29.2-7.55,42.05,1.52.24.9-.5.81-1.47-1.36-14.63.72-27.21,6.74-40.59ZM358.45,577.7c14.95-5.55,26.9-17.32,18.52-33.95-9.46-18.79-60.35-39.45-80.34-47.19-2.41-.93-16.39-6.59-17.73-5.6,2.73,9.83,10.45,7.33,17.95,11.3,5.5,2.91,13.48,12.05,17.75,13.8,2.87,1.17,5.8.75,8.23,1.63,25.88,9.31,46.34,30.84,35.62,60.02ZM114.86,496.86v.66l.33-.33-.33-.33ZM113.22,500.81h-1.3s-.66,2.62-.66,2.62c1.62.49,1.74-1.17,1.97-2.62ZM111.25,506.07c-2.19-.1-2.91,2.22-2.63,3.93,2.3.18,1.83-2.57,2.63-3.93ZM423.53,506.73c-2.57-1.68-5.51,8.27-6.01,10.08-2.12,7.77-3.07,18.91-3.21,27.02-.05,3.2.71,23.31,1.81,24.04l6.34.55c8.49-19.06,8.32-42.01,1.07-61.69ZM589.88,510.01h-3.28c1,5.79,1.07,12.09-1.14,17.6-1.41,3.52-5.12,6.53-6.95,10.18-5.88,11.75-1.55,12.3-1.11,23.2.17,4.13-1.89,9.31-.09,13.69l12.56,3.03v-67.7ZM6.05,510.67v230.05l19.06,1.97c-.66-6.98-2.69-15.64-1.15-22.52.81-3.62,2.37-7.26,6.72-6.39,6.89,1.38,11,25.26,13.44,31.15l2.02.39c1.63-8.47,3.08-17.45,7.56-24.99,3.47-5.84,10.91-13.18,12.2-1.66,1.09,9.75-.92,20.88-1.99,30.59,6.76-4.96,9.62-16.56,19.62-15.68,2.45,7.77-1.76,15.45-3.19,22.9,46.44,6.39,89.82,38.98,115.22,77.4,15.76,5.43,21.24-8.7,30.38-17.62,16.87-16.47,44.58-35.53,67.08-42.7,7.8-2.49,15.44-3.3,23.28-5.32,1.28-2.07-16.69-32.51-18.65-38.07-1.29-3.66-5.79-24.3,1.13-23.55,8.11.88,19.28,24.72,25.47,30.14-.28-13.76-9.4-37.53-3.17-50.17,5.18-10.51,12.44,3.77,14.65,8.78,4.63,10.49,6.42,20.84,8.91,31.85.21.93-.03,2.04,1.3,2.31,1.05-11.7,3.59-24.02,8.25-34.81,1.86-4.3,8.33-18.25,14.45-13.17,8.23,6.84-1.42,41.49-.98,51.93,5.87-4.31,15.14-26.84,23.89-23.57,4.16,1.55-.24,16.4-1.25,19.6-1.47,4.65-16.08,34.73-14.77,36.18l25.65,2.64.61-8.26c12.38-2.59,20.9,5.9,29.63,12.86v-20.7c0-.41-4.87-4.84-3.95-6.9-14.82,9.77-30.01,3.03-13.16-12.16-15.47-6.42-10.94-20.64,5.93-16.11-4.37-18.21,12.83-22.72,17.44-4.6,1.33.32,10.11-11.14,17.56-4.61,6.11,5.36-4.13,14.52-2.78,15.78,21.36,1.09,14.45,21.19-3.94,16.44,1.31,8.55,1.08,15.57-8.47,18.12.73,1.06.82,15.14,2.54,14.09,2.05-6.79,19.71-22.11,26.33-20.11.71.21,1.49.82,1.89,1.45l.72,7.49,29.56-4.63c-1.73-15-10.33-28.95-12.28-43.87-.69-5.26-1.51-10.88,2.07-15.31,4.94-3.38,11.96,6.94,14.06,10.37,7.25,11.84,10.08,25.58,15.24,38.32,3.08-15.44,6.49-32.2,15.26-45.55,3.03-4.61,7-10.09,12.59-11.49.81.17,1.51.58,2.05,1.2,6.42,7.3-6.9,37.06-7.53,46.64,6.7-4.84,12.37-14.82,20.22-17.57,3.53-1.24,7.09-2.07,7.42,2.8.59,8.63-17.52,33.49-16.47,35.14l36.16,1.98v-178.79c-17.1-5.83-35.28-6.49-52.92-9.85-4.67,2.93-6.25,8.19-11.06,11.29-16,10.31-37.07-.77-39.86-18.91l-25.69-1.27-6.57,12.82h10.85c.22,0,4.76-1.75,2.29,1.3-.47.58-10.57,2.05-12.16,2.04-12.61-.12-27.15-6.66-40.07-7.31-4.15-.21-17,.62-19.9,3.5-1.92,1.92-4.99,19.09-6.46,23.45-6.82,20.13-22.01,37.9-37.77,51.63,10.41.75,20.38,4.85,30.89,2.96.2,1.46-1.12,2.22-2.25,2.67-6.1,2.46-19.15-3.61-26.31-3.34-10.75.4-21.45,9.9-32.34,11.09-7.45.82-14.08-1.34-20.95-1.28-10.57.09-22.2,4.82-32.89,5.3-23.14,1.04-37.45-12.31-58.58-16.35-10.16-1.94-19.05-1.17-28.97-5.87-10.74-5.08-20.33-16.04-30.77-21.82-9.32-5.16-18.39-5.06-28.61-2.62-1.43-4.14,11.4-3.45,11.17-4.92-13.3-18.12-20.89-45.28-19.71-67.69.25-4.72,2.17-10.52,2-15.13-.24-6.51-5.54-12.71-3.34-19.39-.91-.08-1.76-.07-2.61.34-2.38,1.14-12.22,22.95-10.92,24.68l5.64,1.28c2.8,4.62-26.91-1.85-28.61-1.97-12.83-.9-24.87,1.7-37.46,3.28,1.08-3.74,15.78-2.72,16.09-4.93l-13.93-25.16-32.07.51ZM458.39,511.99c-4.63-3.35-16.47,14.48-18.52,17.96-7.02,11.91-11.53,26.31-14.3,39.81l11.11,2.03,21.71-59.8ZM413.68,567.85c-2.49-18.42-.78-39.54-14.79-53.88-1.54.09-1.06,14.62-.97,16.73.53,12.67,2.94,25.36,5.28,37.77l10.48-.62ZM500.46,521.19h-3.29s.67,8.53.67,8.53l2.62-8.53ZM577.26,531.16l-20.92-3.12c-3.08,6.82-4.65,14.27-7.96,21-1.24,2.51-11.65,17.67-10.79,18.83,3.55.92,18.88,4.2,21.11,2.66.61-.42,7.07-10.72,8.04-12.34,2.3-3.83,4.81-8.38,6.61-12.45.94-2.12,6.04-13.21,3.92-14.58ZM474.17,529.08c-17.42,7.76-32.85,24.86-35.51,44.03l13.05,1.2,22.46-45.23ZM549.77,536.96c-7.42-.58-14.66-2.28-22.03-3.28-8.43-1.14-18.28.03-25.95-4.61-1.75,10.54-.33,21.23,2.01,31.51.71-.02,2.07.27,2.51-.05.84-.61,3.62-17.43,10.38-16.83,5.78-.12,5.72,13.8,5.48,17.57.76.95,16.31-16.14,17.04-3.01l1.64.33,8.93-21.63ZM390.66,579.03c-41.8,36.68-102.27,28.91-152.4,17.3-37.77-8.74-83.58-23.29-112.55-49.83-1.21-1.1-10.43-11.7-11.17-10.85-2.21,22.22,1.05,45.21,10.4,65.51,1.06,2.31,6.84,13.46,8.19,14.48s7.61,1.25,10.19,1.98c13.77,3.89,23.93,19.12,37.63,24.82,11.56,4.81,24.37,4.25,36.29,7.76,12.65,3.72,25.78,12.83,39.06,14.19,13.36,1.36,23.02-2.95,35.4-3.88,22.42-1.68,27.41,4.72,48.94-8.25,26.78-16.13,44.08-42.67,50.02-73.23ZM516.24,572.44c3.41-7.97,5.54-18.69.31-26.29-5.93.69-9.36,21.24-11.16,21.69-3.97-6.73-6.86-19.89-17.13-17.78-6.43,40.14,47.17,46.59,49.02,5.3-10.84.65-13.17,12.21-21.03,17.08ZM574.76,573.11v-12.82c0-1.01-1.3-8.18-2.3-8.2l-11.5,19.7,13.81,1.32ZM402.5,568.5l-2.62-5.25-2.64,6.56,5.26-1.31ZM213.81,834.06h376.07v-71.65l-3.59-1.35-33.43-1.16-13.6,17.62c7.01-19.68,26.02-34.21,28.26-55.87-25.26,5.66-31.22,35.12-36.1,56.79l-2.03.39c3.01-22.79,13.89-44.62,18.21-66.91,1.48-7.65,5.58-30-7.37-15.25-11.56,13.17-19.36,47.53-18.06,64.73.43,5.63,3.23,11.01,1.29,16.78-1.81.21-1.03-.09-1.3-.98-2.54-8.46-2.43-20.6-4.39-29.8s-13.63-42.76-21.29-47.07c-.96-.54-1.74-1.11-2.94-1.06l-1.99.67c-1.98,9.49.92,19.6,3.48,28.8,4.07,14.61,11.84,29.52,14.96,44.2.22,1.06,1.97,7.22,0,7.21l-7.55-21.35c-10.55-.58-19.74,5.79-30.76,4.71-13.19,28.96-50.54,31.13-70.18,7.47-7.89,1.49-19.68-4.19-26.92-2.63-3.46.75-5.42,12.03-8.23,9.83,7.3-17.23,17.33-34.63,22.65-52.61,3.59-12.12,3.76-20.98-8.17-7.51-7.29,8.24-13.09,20.69-16.14,31.19-1.92,6.63-3.14,19.75-5.76,25.14-.5,1.03-1.12,2.02-2.45,1.81,2.35-16.51,7.09-32.7,9.67-49.15,1.39-8.86,5.65-36.49,1.65-43.34-2.87-4.91-8.69,5.68-9.92,8.13-8.87,17.62-11.05,41.58-10.64,61.06.11,5.42,2.12,14.05,1.37,19.07-.21,1.39-.56,2.41-2,2.92-2.19-26.19-1.88-55.57-13.25-79.77-1.66-3.53-4.36-10.28-8.69-10.23-4.14,1.49-1.63,31.15-.99,36.35,2.28,18.63,9.31,35.91,12.41,54.3-1.79.45-2.23-2.98-2.65-4.25-6.85-20.72-11.19-38.44-26.6-55.57-1.64-1.83-6.99-8.11-9.75-5.97-2.05,3.48-.44,8.26.41,12.03,4.35,19.27,18.43,37.31,26.76,55.07-2.13,1.63-4.4-5.27-4.69-6.47-42.41,4.71-79.73,31.09-105.76,63.67ZM444.58,738.75h11.51c2.39,0,7.7-3.84,7.61-6.92-.08-2.67-4.98-5.57-6.96-5.57h-9.53c2.59-5.75,10.7-9.65,7.07-16.93-8.97-4.76-12.67,5.05-18.9,9.04.39-5.79-.58-13.15-6.97-15.11-10.55,1.28-4.45,11.01-4.21,17.74-5.89-1.6-14.4-6.26-17.64,1.8-.69,5.13,10.86,9.86,15.02,9.39-2.85,3.84-7.95,2.79-10.81,7.26-4.78,7.46,1.04,9.02,7.7,7.7,4.39-.87,6.95-5.62,11-5.77,2.03,18,23.61,17.98,15.13-2.63ZM6.05,743.02v91.04h187.38c-25.71-38.51-67.4-68.95-113.97-75.51-2.53.96-6.2,21.18-10.94,22.93,2.33-11.61,8.83-21.85,11.64-33.38.44-1.79,3.25-13.04,1.18-13.27-9.5,5.72-15.88,15.47-18.44,26.25-1.26,5.29-1.07,13.9-2.57,18.46-.33,1.01-1.06,2.19-2.33,1.94.18-16.96,5-34.18,5.9-50.95.13-2.39.64-14.09-1.06-14.73-4.84-1.83-10.34,11.5-11.43,14.73-5.85,17.34-3.49,32.57-1.97,50.29-1.73.45-2.05-4-2.32-5.23-3.69-17.12-4.4-33.12-11.17-49.96-1.09-2.72-5.71-14.69-8.91-7.62-6.25,13.82,7.59,45.93,7.29,61.2-.03,1.49-1.44,5.07-2.49,2.46l-7.05-36.99c-.61-.63-16.26-2.49-17.4-2.35-.66.08-.87-.06-1.35.71ZM367.33,736.78v.66l.33-.33-.33-.33ZM469.46,754.63c-7.11-4.41-30.94,20.23-28.17,29.47,12.04-.44,22.9-8.74,26.96-20.04,1.07-2.97,2.84-6.36,1.2-9.44ZM438.66,782.13v-23.99c0-.71-3.48-2.81-4.6-2.3v18.73c0,.55,3.56,8.88,4.6,7.56ZM436.03,785.41c-5.51-13.34-18.83-23.66-33.53-24.31,1.13,16.55,18.75,24.29,33.53,24.31Z"/>
  <rect x=".14" y="841.29" width="595" height=".66" fill="#fff"/>
  <path d="M589.88,5.86v393.72c-3.25-1.9-5.84-5.57-8.88-7.88-11.59-8.81-25.79-13.18-40.43-11.83-.17-7.45-1.18-15.36-5.93-21.35-2.62-3.31-8.62-6.31-9.56-10.16-.86-3.51-.08-8.44-.28-12.21-.29-5.5-.48-5.44-.04-11.21.75-10.05-5.42-22.92-10.37-31.62-27.9-49.03-97.31-41.34-129.96-1.54-14.46,17.62-13.68,47.6-18.37,69.05-2.68,12.26-12.16,29.14-8.63,41.43.69,2.4,2.58,3.84,3.33,5.88,1.19,3.24.94,6.92,1.83,10,1.69,5.82,5.87,10.18,10.91,13.31-8.55,16.47-15.19,36.27-12.97,55.14,1.3,11.04,10.13,16.89,20.95,16.2l-2.63,17.74-31.94-16.42c1.84-8.17,7.24-16.32,4.91-24.91-4.56-2.81-16.55,12.01-18.33,10.43,2.61-12.82,6.92-25.49,5.91-38.77-16.07,4.84-20.95,25.12-28.6,38.11-2.8-2.76-2.13-7.34-3.14-10.65-2.01-6.57-5.35-14.91-8.68-20.9-1.37-2.46-10.15-17.17-13.84-12.5-3.04,3.84,2.31,28.82,2.32,34.85l-36.81-11.18c-1.34-1.32,13.18-15.04,14.35-16.87,2.98-4.66,3.6-14.76,5.71-17.3,1.24-1.5,5.04-2.46,7.11-4.06,6.86-5.32,8.66-17.57,2.97-24.43-1.3-1.57-4.3-2.74-5-4.2-1.31-2.71-.84-11.33-1.66-15.43-8.18-41.32-62.14-50-96.32-39.49-45.84,14.1-62.56,52.41-47.67,97.34,2.93,8.85,8.4,12.71,17.8,13.09,1.97.08,6.77-1.29,8.02-.81.68.26,7.74,9.53,7.62,10.25-5.75,7.89-17.48,7.68-26,10.82s-16.2,9.69-21.39,17.4c.15-5.41,12.53-30.91,10.11-34.09-8.47-2.15-17.47,10.57-22.25,16.7-6.55,8.41-11.37,17.66-17.11,26.6,4.09-12.35,3.18-26.47,6.22-38.8,1.68-6.82,2.28-3.92,5.58-6.91,6.52-5.91,13.7-40.62,11.72-49.13-.61-2.62-4.26-4.12-4.41-6.01-.25-3.16,5.23-10.56-2.53-11.43-6.15-.69-4.25,6.42-6.13,9.35-1.08,1.68-5.51,2.85-8.18,6.94-7.94,12.19-12.78,41.07-3.17,53.46l-7.99,49.11c-3.79.75-2.78-17.88-2.96-20.04-2.02-24.43-6.34-48.92-7.54-73.29,10.77-9.05,6.17-42.19,1.97-54.57-3.27-9.64-7.1-6.48-9.86-10.52-1.96-2.87-.37-10.25-5.92-9.92-6.25.37-2.09,8.05-3.1,11.43-.46,1.55-3.58,3.26-4.46,4.74-4.61,7.72,1.93,50.09,8.85,56.88,1.97,1.93,4.7,2.04,6.14,4.38.86,17.46,1.45,34.84,4.07,52.13-10.15-17.11-15.11-38.76-24.43-56.08-1.51-2.8-11.42-17.99-15.01-15.94-2.96,5.06-.89,11.62.2,16.95,5.35,26.38,17.2,52.29,24.79,78.08-7.49-9.91-13.62-21.01-22.01-30.24-2.51-2.77-8.91-10.04-13.08-8.58-2.45,4.61.84,10.62,2.57,15.14,4.74,12.38,12.75,23.4,18.06,35.51l-30.24,1.98V5.86h583.82ZM157.93,38.73c-23.31-12.07-34.36,10.38-29.4,31.03,3.27,13.62,18.39,20.03,29.4,10.7v-12.16c-5.19.1-7.08,5-13.34,3.14s-9.03-25.74,5.74-22.82c.89.18,7.59,5.37,7.59,2.26v-12.16ZM173.54,35.6c-19.94,3.47-20.42,51.91,6.34,49.06,22.68-2.42,22.28-54.05-6.34-49.06ZM254.86,41.06c-4.47-4.95-9.57-6.61-16.35-5.58-21.74,3.31-20.13,58.39,10.49,47.96,14-4.77,14.5-32.8,5.85-42.38ZM460.71,79.85c17.32-19.02-1.63-63.45-26.34-36.54l-4.9,14.48c.37-11.66-6.14-20.49-18.1-21.67-2.59-.26-13.54-.56-14.73,1.01l.4,46.35c16.48,3.15,32.86-1.81,32.44-21.09,2.38,4.45,1.87,8.85,4.47,13.59,5.23,9.54,19.24,12.13,26.77,3.87ZM222.69,70.28c-2.63-.81-9.04.59-12.16,0v-31.88c0-3.25-9.11-2.44-11.2-1.99-.55.35-.82,1.6-1.01,2.28-1.33,4.92-.82,33.39-.32,39.83.12,1.51.18,2.97.69,4.41.89,1.49,22.41,1.77,24.34.83,2.91-1.42,2.63-12.57-.34-13.48ZM274.96,81.78c.78-3.86-.57-9.99,0-14.13,5.46.42,5.64,13.63,8.94,15.71,1.84,1.16,10.03,1.29,11.13-.59,2-3.45-6.81-17.17-6.92-20.77-.04-1.45,2.97-6.06,3.29-9.14,1.99-18.82-14.41-18.15-28.11-15.94l-.68,44.06,1.57,2.38c2.43,1.07,10.11,1.76,10.78-1.58ZM308.49,49.24h12.16c2.6-1.64,2.01-11.78.35-12.84l-24.02.34.1,46.73c1.47,1.06,18.4.69,21.63.64,2.39-.04,4.42-.04,6.58-.08,8.05-.15,9.17,1.55,10.19-7.81l10.57.35c-1.02,8.4,9.45,10.38,13.4,4.87.52,3.83,11.09,3.07,11.53,1.53l.96-18.62c.97-.27,6.11,17.32,7.57,18.73,1.53,1.48,10.78,1.58,11.88-.1l.58-44.56c-.43-3.74-11.81-3.18-11.81-.02v17.42l-8.16-19.12-11.63.32-1.9,41.81-11.24-41.68c-1.34-1.6-13.55-2.55-13.58,2.09l-10.04,37.62c-1.36-1.32.06-6.57-2.95-6.57h-12.16v-4.6h11.51c2.42,0,2.42-13.15,0-13.15h-11.51v-3.29ZM535.97,69.29c.42-3.12-.3-6.97,0-10.19-4.18,4.1-2.44,10.94-3.96,16.09,2.5.96,3.75-4.39,3.96-5.91ZM507.69,82.1c.48-.51-4.36-12.46-4.96-13.11-.79-.87-1.15-.78-2.27-.68-1.02,1.07,3.79,14.11,7.22,13.8ZM559.64,86.7c.91.95,13.28-11.87,12.48-14.46-2.63.18-13.34,13.55-12.48,14.46ZM522,80.31c-50.53,6.29-45.54,83.9,11.58,77.96,53.41-5.55,46.31-85.17-11.58-77.96ZM487.26,98.6c-.47-.61-12.54-4.53-14.41-5.31.89,2.76,12.92,8.65,14.46,7.22-.08-.57.18-1.6-.06-1.91ZM585.28,108.4h-11.51c-.13,0-1.05.91-.99,1.31h12.49v-1.31ZM159.24,150.47v-33.19c-3.06-1.94-8.33-1.02-11.83-.33v45.68c1.01,1.19,2.13,1.46,3.61,1.65,8.89,1.19,19.77-1.1,28.9-.06,5.22-.99,3.46-7.15,4.93-8.21l9.99.1,2.05,7.35c9.36,1.75,12.28,2.25,10.16-7.86-2.63-12.57-7.85-24.87-10.49-37.49-.85-2.94-11.74-2.21-13.02-.87l-9.83,34.55c-.44.28-1.39-1.31-1.63-1.31h-12.82ZM236.17,160.65c.52-3.44-.38-7.93,0-11.5,21.25,3.97,24.9-31.01,4.3-32.89-2.59-.24-15.49-.6-16.47,1.34l-.18,44.22c1.1,3.78,8.61,2.58,11.55,1.64,0-.96.69-2.06.8-2.81ZM277.76,163.43c14.37,3.54,11.25-2.7,8.83-12.44-2.81-11.31-6.85-22.44-9.6-33.78l-11.95-.62-12.83,45.75c6.39,4.99,12.78,1.8,13.51-6.32l9.45-.32,2.59,7.73ZM301.25,150.47v-33.19l-.99-.99h-10.19l.16,47.17,33.78.28,3.32-8.04,9.3.15c2.22,7.96,2.23,9.77,11.36,8.13,1.93-.35,2.08-1.71,2.24-1.7,1.35.12,1.68,1.62,3.3,1.97,3.53.77,14.94-.01,18.6-1.09,9.11-2.66,9.35-12.82,7.68-20.59-.29-1.37-2.03-3.06-2.13-4.37-.13-1.71,1.83-5.54,1.85-8.45.06-7.46-3.4-12.43-10.98-13.4-2.31-.29-18-.84-18,1.57v41.74l-11.5-40.76c-.58-4.03-12.03-3.12-13.42-1.57-2.92,3.26-7.98,32.67-9.92,34.13l-14.47-1ZM402.83,116.29c-5.22-.87-12.6.65-18.08,0l-.54,46.23c.9,2.55,9.96,2.54,11.72.11v-14.79c6.64.44,5.21,14.77,10.48,16.15,2.52.66,17.34.64,18.74-1.07,3.58-4.34-1.46-9.55,11.55-6.87,1.59.92,1.65,5.76,2.57,7.12,1.05,1.55,10.66,2.25,11.24-1.21l-12.16-45.03h-12.52s-11.49,38.8-11.49,38.8c.19-3.18-5.31-12.1-5.23-14.14.05-1.24,1.74-2.49,2.08-3.79,2.08-7.86,1.86-19.79-8.36-21.51ZM566.96,144.46c.97,1.36,12.35,5.29,14.04,7.96l1.62-2.29c-5.87-1.66-9.62-7.73-15.76-7.55.07.59-.19,1.48.1,1.88ZM501.77,154.41c-1.84-1.87-9.65,9.93-8.54,12.48,2.16-.42,9.49-11.52,8.54-12.48ZM557,173.46c-1.39-2.63-5.29-15.71-8.86-15.11-1.42.24-.59,1.04-.36,1.65.57,1.56,5.8,11.55,6.68,12.4s1.04,1.37,2.55,1.06ZM524.78,161.64c-3.99,2.74-4.09,10.75-4.14,15.26,0,.96-1.05,1.51.53,2.47l3.61-17.73ZM523.24,247.5c14.69-11.4,14.22-56.16-9.98-58.24l-431.29-.04c-27.35,1.18-26.36,58.82-2.61,61.8l439.04-.79c1.45-.92,3.54-1.73,4.84-2.74ZM540.37,271.86c-2.56,1.74-8.83-.52-10.06,4.14-.93,3.52,4.33,6.45,4.35,8.21.01,1.57-8.99,12.08,2.25,11.46,3.14-.17,4.94-3.49,7.86-3.24,3.54.31,5.5,6.79,10.92,4.27,3.73-2.68.95-8.54,2.08-11.72.53-1.48,5.24-2.4,6.5-4.68,3.16-5.71-7.98-5.56-10.26-7.56-2.04-1.79-1.71-7.22-5.67-8.15-5.56-1.31-5.84,5.8-7.97,7.25ZM106.65,285.21c-2.33-27.02-43.44-25.83-47.97-.29-29.08-3.82-30.58,37.64-1.19,34.3,3.78-.43,8.82-3.91,12.16-2.63,1.26.48,2.37,2.32,4.12,3.14,5.31,2.49,11.16,1.96,16.6.15,1.97-.66,4.28-3.07,6.15-3.12s6.42,2.95,10.56,3.02c27.6.47,30-38.29-.43-34.58ZM161.87,272.4c-.57,2.54.41,6.76,0,9.53-3.93-4.29-5.44-8.94-12.52-7.6-11.44,2.16-1.95,18.4,4.63,10.57-2.02-1.81-4.45-.32-6.61-2.6-4.44-4.68,2.34-6.65,6.65-5.33,4.05,1.24,7.54,10.78,7.85,14.82-27.56-3.77-22.34,22.53.65,22.35-3.26,9.22,4.02,15.81,12.76,11.76,3.37-1.56,9.69-9.29,12.06-9.69s7.47,1.33,10.36,1.27c15.81-.3,19.49-18.97,2.31-19.13,20.16-37.67-25.65-43.35-28.28-7.23-6.54-1.22-11.11-16.45-6.27-19.78,4.06-2.8,4.03,4.39,5.95,4.01,2.95-6.64-8.34-8.27-9.53-2.97ZM270.17,276.2c-3.89-3.27-10.35,4.98-9.71,8.98-15.02-.7-21.79,1.03-8.16,13.12.44,2.34-8.2,10.25-1.52,13.38,5.33,2.5,9.53-3.52,13.35-3.39,3.25.12,5.63,5.66,11.68,3.74,4.8-2.68.77-8.13,1.92-11.88.82-2.7,9.34-5.38,7.64-11.17-1.15-3.93-9.48-1.76-12.43-2.73-.94-.67-.67-8.28-2.77-10.05ZM337.42,329.25c.05-15.14-25.47-18.92-27.62-3.28-21.79-7.19-25.79,27.24-4.31,26.31,2.18-.09,5.97-2.16,7.13-1.9,1.79.39,2.86,5.03,7.42,5.78,6.33,1.04,6.77-1.81,10.51-2.54,3.28-.64,6.23.77,9.16.67,19.12-.63,17.31-28.76-2.29-25.03ZM117.83,346.34c-4.94-14.4-18.37-8.11-12.51,5.91-5.05.61-10.01,5.18-6.57,10.2,4,5.85,8.24,1.07,11.36,1.76s8.48,10.6,13.57,4.77c3.04-3.49-.66-7.8.46-10.62.48-1.22,5.1-2.6,6.47-4.8,4.94-7.92-7.64-11.93-12.79-7.21ZM309.37,410.33c-7.69,7.6,1.26,17.35,7.35,22.1s10.26,8.98,16.42,2.66c5.36-5.5,13.5-18.02,8.11-25.21-6.73-8.99-12.24.65-16.06.88s-9.73-6.45-15.83-.42Z" fill="#fff"/>
  <path d="M6.05,510.67l32.07-.51,13.93,25.16c-.31,2.21-15.01,1.18-16.09,4.93,12.59-1.58,24.63-4.18,37.46-3.28,1.7.12,31.41,6.59,28.61,1.97l-5.64-1.28c-1.3-1.72,8.54-23.54,10.92-24.68.85-.41,1.7-.42,2.61-.34-2.2,6.68,3.09,12.88,3.34,19.39.17,4.6-1.75,10.41-2,15.13-1.18,22.41,6.41,49.58,19.71,67.69.23,1.47-12.6.78-11.17,4.92,10.22-2.44,19.29-2.54,28.61,2.62,10.44,5.79,20.03,16.74,30.77,21.82,9.92,4.7,18.81,3.93,28.97,5.87,21.13,4.04,35.43,17.39,58.58,16.35,10.69-.48,22.32-5.22,32.89-5.3,6.86-.06,13.5,2.1,20.95,1.28,10.88-1.19,21.59-10.69,32.34-11.09,7.16-.27,20.22,5.8,26.31,3.34,1.13-.46,2.45-1.22,2.25-2.67-10.51,1.89-20.48-2.21-30.89-2.96,15.76-13.74,30.95-31.5,37.77-51.63,1.47-4.35,4.54-21.53,6.46-23.45,2.89-2.89,15.75-3.71,19.9-3.5,12.92.65,27.47,7.19,40.07,7.31,1.58.01,11.69-1.46,12.16-2.04,2.47-3.05-2.08-1.3-2.29-1.3h-10.85l6.57-12.82,25.69,1.27c2.79,18.14,23.86,29.22,39.86,18.91,4.81-3.1,6.39-8.36,11.06-11.29,17.64,3.36,35.82,4.02,52.92,9.85v178.79l-36.16-1.98c-1.04-1.65,17.06-26.51,16.47-35.14-.33-4.86-3.89-4.04-7.42-2.8-7.85,2.75-13.52,12.73-20.22,17.57.63-9.58,13.95-39.34,7.53-46.64-.54-.62-1.24-1.03-2.05-1.2-5.59,1.4-9.56,6.88-12.59,11.49-8.77,13.34-12.18,30.11-15.26,45.55-5.16-12.74-7.99-26.47-15.24-38.32-2.1-3.43-9.12-13.74-14.06-10.37-3.58,4.44-2.75,10.06-2.07,15.31,1.95,14.92,10.55,28.87,12.28,43.87l-29.56,4.63-.72-7.49c-.39-.63-1.18-1.24-1.89-1.45-6.61-2-24.28,13.32-26.33,20.11-1.72,1.05-1.81-13.03-2.54-14.09,9.56-2.55,9.78-9.56,8.47-18.12,18.39,4.75,25.29-15.34,3.94-16.44-1.35-1.26,8.89-10.42,2.78-15.78-7.45-6.53-16.23,4.93-17.56,4.61-4.61-18.11-21.81-13.61-17.44,4.6-16.86-4.53-21.4,9.69-5.93,16.11-16.85,15.19-1.67,21.93,13.16,12.16-.92,2.06,3.95,6.5,3.95,6.9v20.7c-8.73-6.96-17.25-15.44-29.63-12.86l-.61,8.26-25.65-2.64c-1.32-1.44,13.3-31.53,14.77-36.18,1.01-3.19,5.41-18.04,1.25-19.6-8.75-3.27-18.02,19.26-23.89,23.57-.44-10.43,9.22-45.09.98-51.93-6.11-5.08-12.59,8.88-14.45,13.17-4.66,10.79-7.2,23.11-8.25,34.81-1.33-.27-1.09-1.37-1.3-2.31-2.49-11.01-4.28-21.36-8.91-31.85-2.21-5.01-9.47-19.3-14.65-8.78-6.23,12.64,2.89,36.41,3.17,50.17-6.19-5.42-17.36-29.26-25.47-30.14-6.92-.75-2.42,19.89-1.13,23.55,1.96,5.56,19.93,36.01,18.65,38.07-7.84,2.02-15.48,2.83-23.28,5.32-22.5,7.17-50.21,26.23-67.08,42.7-9.14,8.92-14.62,23.05-30.38,17.62-25.4-38.43-68.78-71.02-115.22-77.4,1.43-7.45,5.64-15.13,3.19-22.9-10-.88-12.86,10.72-19.62,15.68,1.07-9.7,3.08-20.83,1.99-30.59-1.29-11.52-8.73-4.18-12.2,1.66-4.48,7.54-5.93,16.52-7.56,24.99l-2.02-.39c-2.45-5.88-6.55-29.77-13.44-31.15-4.35-.87-5.91,2.77-6.72,6.39-1.54,6.89.49,15.54,1.15,22.52l-19.06-1.97v-230.05ZM88.9,579.02c2.75-14.95-12.35-18.05-17.79-5.27-2.79.3-2.82-2.68-5.43-4.05-9.34-4.92-14.35,5.36-11.64,13.27-7.17-.16-13.5-1.04-13.19,8.23.22,6.68,3.54,5.82,7.88,9.19-7.89,8.92-1.29,18.07,9.92,14.79-.42,8.44,4.67,11.46,12.49,9.87l-3.61,21.67c-5.36-4.8-10.19-11.78-17.08-14.46-22.48-8.73-17.27,13.83-3.83,22.89,15.67,10.57,43.99,10.65,55.98-5.58,9.22-12.49,6.21-22.08-10.4-15-6.92,2.95-10.54,8.58-15.77,13.47l1.31-24.97c9.63,3.19,18.1.52,16.53-11.08,13.51-.5,17.55-12.11,3.85-17.2l.43-1.31c13.34-4.87.44-19.63-9.63-14.46ZM405.79,665.79h17.09c.36,0,2.98,4.25,4.66,5.53,13.03,9.95,42.49,11.62,57.94,8.09,5.23-1.2,11.79-5.32,16.63-5.73,6.87-.58,13.19,3.58,20.05,2.62-1.01-5.14-17.64-2.53-17.74-4.92,8.44-9.97,20.74-24.6,14.91-38.25-6.35-4.77-16.94,7.32-21.05,7.52s-15.99-5.35-21.34-6.23c-1.92-.32-12.76-.45-13.31-.84,27.28-37.38-30.87-58.29-44.54-20.36-4.2,2.5-17.97-3.96-17.92,5.58.03,5.38,4.18,5.34,6.62,7.84,1.59,1.63,1.55,3.36,3.96,5.25,4.52,3.54,10.92,3.02,16.37,3.02-.19,3.5-3.39,4.67-5.37,8.1-3.79,6.6-4.49,13.5-2.52,20.8-1.05,1.74-13.88-3.06-14.46,1.99ZM547.14,617.81c4.24-5.65-18.63-1.96-19.94-2.04-10.36-.6-21.32-12.33-31.99-3.54-.33,1.54,1.36,1.05,2.29.98,3.14-.26,5.32-2.02,9-1.82,6.48.35,11.38,5.54,17.36,6.36,8,1.09,15.69-2.88,23.27.06ZM96.78,698c-4.55,4.69-16.85,18.04-8.52,23.95,9.02,6.41,22.43-9.61,27.26-16.06,8.78,8.74,19.91,12.98,31.61,16.39,1.02,1.47-1.98,4.17-2.3,6.33-1.53,10.29,12.69,7.26,17.64,2.52,2.22-2.13,3.65-6.97,6.03-8.43,3.83-2.35,15.13-3.48,20.97-5.99,24.79-10.64,32.24-39.69,3.95-51.23-10.95-4.47-18.47-2.33-29.07-3.8-11.17-1.55-17.08-8.82-31.38-4.08-12.13,4.02-1.54,13.34-2.28,15.4l-17.23,15.1c-6.84-3.66-22.45-22.27-30.18-10.5-5.65,8.6,5.83,18.35,13.5,20.41ZM294.67,687.48c-8.36,2.35-17.13,4.07-25.88,3.2-10.53-1.05-19.37-7.71-30.99-3.22-.98.38-1.53-.14-.98,1.66.15.49,8.32-1.03,10.18-.97,8.32.27,16.34,4.39,24.42,5.16,5.98.57,17.3-.4,22.43-3.68.94-.6,1.38-1.58.82-2.15ZM65.23,692.09c-10.03,2.02-23.16-9.65-30.9-.02,3.22-.08,6.17-1.76,9.43-1.7,6.68.13,16.66,8.58,21.47,1.71ZM276.27,730.87c-.49-.52-12.66-2.71-14.13-2.69-5.7.1-11.82,3.71-17.74,3.34-9.01-.57-18.09-11.19-27.31-2.3,4.46,1.17,8.24-1.48,12.77-.93,5.04.61,8.9,5.2,15.19,5.24,5.31.04,11.95-3.36,17.09-3.31,2.43.02,13.12,3.57,14.14,2.61.07-.07.07-1.89,0-1.96ZM167.9,759.03c3.43,4.96,25.69-1.23,32.42-.55,7.08.72,15.79,6.83,22.02.31-9.6,3.08-18.44-3.75-27.93-3.66-8.48.08-17.61,4.95-26.62,2.03.06.6-.19,1.44.11,1.87Z" fill="#fff"/>
  <path d="M213.81,834.06c26.03-32.57,63.35-58.95,105.76-63.67.29,1.21,2.56,8.1,4.69,6.47-8.33-17.76-22.41-35.8-26.76-55.07-.85-3.76-2.46-8.55-.41-12.03,2.76-2.14,8.11,4.15,9.75,5.97,15.4,17.12,19.74,34.84,26.6,55.57.42,1.27.86,4.7,2.65,4.25-3.1-18.4-10.13-35.67-12.41-54.3-.64-5.2-3.15-34.86.99-36.35,4.33-.05,7.03,6.7,8.69,10.23,11.37,24.19,11.06,53.58,13.25,79.77,1.44-.51,1.79-1.53,2-2.92.75-5.02-1.26-13.65-1.37-19.07-.41-19.48,1.77-43.44,10.64-61.06,1.23-2.44,7.05-13.03,9.92-8.13,4,6.85-.26,34.48-1.65,43.34-2.58,16.45-7.32,32.64-9.67,49.15,1.33.21,1.95-.78,2.45-1.81,2.62-5.39,3.84-18.51,5.76-25.14,3.04-10.5,8.85-22.96,16.14-31.19,11.92-13.48,11.75-4.61,8.17,7.51-5.32,17.98-15.35,35.38-22.65,52.61,2.82,2.2,4.78-9.09,8.23-9.83,7.25-1.57,19.03,4.12,26.92,2.63,19.65,23.65,57,21.48,70.18-7.47,11.02,1.08,20.21-5.29,30.76-4.71l7.55,21.35c1.97,0,.22-6.16,0-7.21-3.12-14.67-10.9-29.58-14.96-44.2-2.56-9.2-5.46-19.31-3.48-28.8l1.99-.67c1.21-.05,1.98.52,2.94,1.06,7.65,4.31,19.32,37.88,21.29,47.07s1.85,21.35,4.39,29.8c.27.9-.51,1.19,1.3.98,1.94-5.76-.86-11.15-1.29-16.78-1.31-17.21,6.5-51.56,18.06-64.73,12.94-14.75,8.85,7.61,7.37,15.25-4.31,22.29-15.19,44.12-18.21,66.91l2.03-.39c4.88-21.67,10.84-51.13,36.1-56.79-2.24,21.66-21.25,36.19-28.26,55.87l13.6-17.62,33.43,1.16,3.59,1.35v71.65H213.81Z" fill="#fff"/>
  <path d="M291.72,515.92c-4.62.55-14.85,4.29-19.56,6.08-18.31,6.99-34.76,18.93-47.83,33.35,7.03-1.92,11.49-8.9,16.79-13.12,25.22-20.05,65.82-34.3,95.59-16.07,13.49,8.26,24.07,24.39,22.33,40.63-.66,6.11-1.94,11.42-7.83,13.86-37.99,15.75-115.36-1.92-153.33-16.26-7.74-2.92-32.23-12.36-36.02-18.55-9.94-16.24-9.81-59.33,5.51-72.41,5.7-4.87,13.21,1.79,19.59,3.28,4.28,1,9.56.93,13.86,1.91,13.23,3.04,25.91,12.22,37.32,19.23.53,1.11-2.36,1.8-3.12,2.13-2.8,1.23-22.63,8.82-24,8.58-13.75-9.26-28.35-19.92-45.19-22.21-.36,1.72.42,1.14,1.28,1.65,6.39,3.75,40.77,15.05,41.48,22.37.09.96-.11,1.25-.69,1.94-1.06,1.26-11.67,6.86-14.28,8.72-6.5,4.66-14.31,10-17.94,17.23,7.27-5.52,13.96-11.74,21.49-16.96,25.75-17.85,57.36-29.66,88.82-20.68,8.6,2.45,19.5,7.74,24.47,15.3-5.94.51-12.94-.69-18.74,0ZM339.39,539.59c-1.92-4.72-12.87-3.12-17.41-2.61-15.51,1.71-34.47,9.63-47.24,18.5-2.3,1.6-13.27,10.3-14.28,12.02-.59,1.01-1.54,3.11.37,3,1.44-.08,6.53-6.15,8.27-7.51,9.59-7.55,36.4-23.39,48.27-23.39h22.02Z" fill="#fff"/>
  <path d="M6.05,743.02c.47-.77.68-.63,1.35-.71,1.14-.14,16.79,1.72,17.4,2.35l7.05,36.99c1.04,2.61,2.46-.97,2.49-2.46.3-15.27-13.53-47.38-7.29-61.2,3.2-7.08,7.82,4.9,8.91,7.62,6.77,16.85,7.48,32.84,11.17,49.96.27,1.23.59,5.69,2.32,5.23-1.52-17.72-3.88-32.95,1.97-50.29,1.09-3.24,6.59-16.56,11.43-14.73,1.7.64,1.19,12.34,1.06,14.73-.9,16.77-5.72,33.99-5.9,50.95,1.27.25,2-.93,2.33-1.94,1.51-4.56,1.32-13.17,2.57-18.46,2.56-10.78,8.93-20.53,18.44-26.25,2.07.23-.74,11.48-1.18,13.27-2.81,11.53-9.31,21.77-11.64,33.38,4.74-1.75,8.41-21.97,10.94-22.93,46.57,6.56,88.26,37,113.97,75.51H6.05v-91.04Z" fill="#fff"/>
  <path d="M390.66,579.03c-5.94,30.56-23.24,57.1-50.02,73.23-21.53,12.97-26.52,6.57-48.94,8.25-12.37.93-22.04,5.25-35.4,3.88-13.29-1.36-26.41-10.46-39.06-14.19-11.92-3.51-24.73-2.95-36.29-7.76-13.7-5.7-23.86-20.93-37.63-24.82-2.57-.73-8.82-.94-10.19-1.98s-7.13-12.17-8.19-14.48c-9.35-20.31-12.61-43.29-10.4-65.51.74-.85,9.96,9.74,11.17,10.85,28.98,26.54,74.78,41.08,112.55,49.83,50.14,11.61,110.6,19.38,152.4-17.3ZM183.57,617.48c-.86-4.31.64-11.15,0-15.78l1.36-.73,28.78,8.2.11-2.87c-4.52-2.28-25-5.58-27.64-7.87-.98-.85-1.13-7.2-1.3-8.89-3.55.21-.71,5.48-3.6,7.14-5.43-4.23-27.65-10.36-30.9-15.04-2.52-3.64,1.56-7.66-1.33-11.15l-3.29,8.52-22.69-16.74c6.07,8.45,15.56,13.42,23.34,20.05l.99,17.08c-.66.89-14.64-12.24-18.06-12.51-.97-.08-1.94-.38-1.65,1,5.03,6.61,18.24,9.25,21.34,16.79,1.45,3.53.98,8.43,3.96,11.15.41-3.08-.93-6.42-.33-9.54.15-.76-.38-1.25.97-.96.82.17,11.75,7.61,14.14,8.88,10.31,5.49,15.59,2.8,15.8,18.06l1.31-10.51c7.55,2.61,14.4,7.62,22.65,7.9.59.02.47-1.42.36-1.66-.53-1.23-23.46-6.11-24.34-10.52ZM354.51,606.64c-4.43-.1-3.15,5.68-4.57,8.08-2.85,4.81-36.88,6.86-43.42,7.03-.88-.76,4.02-6.08.31-7.22-1.69-.52-1.7,4.66-2.65,5.87-1.88,2.4-11.78.13-15.06.01-4.72-.17-26.78.43-28.96-3.91l.33-8.55c-4.27,1.26-1.04,8.86-4.26,9.21-7.47.37-25.41-8.51-31.55-7.25-1.12.23-1.87.68-1.66,1.97l32.83,7.27-1.34,19.61-30.56-6.46c-1.41-.57-1.08,2.01-.96,2.24.7,1.37,26.72,4.44,30.3,5.91l-.02,12.18,5.03-10.57c12.14,3.07,24.6,2.83,37.04,2.69.37.27-5.09,6.47-5.25,7.57s-.05,1.09.99.99c4.19.08,5.2-7.7,7.33-8.46,12.01.18,23.94-1.19,35.72-3.39.35,3.92-4.93,5.36-6.23,7.89-.43.83-.98,2.21.64,1.96,4.12-1,8.17-9.96,9.94-11.1,3.3-2.13,14.08-1.12,16.39-4.65.48-.73,1.14-1.86-.62-1.94-3.43-.15-8.74,3.23-12.21,3.9-.74-.75,7.83-18.6,8.57-19.36,2.2-2.28,20.35-6.7,20.94-7.65.49-.78.1-2.64-.91-3.2-2.66,1.01-16.16,8.89-18.09,7.2l1.97-7.88Z" fill="#fff"/>
  <path d="M157.23,430.44l3.61-17.75c10.88-3.51,19.58-9.94,25.67-19.58,15.11,9.84,35.4-1.49,39.55-17.9,5.63.76,10.01,4.73,15.22,6.44,17.04,5.61,20.23-1.04,25.45,20.56,7.8,32.28-1.57,62.04-35.69,71.46-18.89,5.21-50.62,4.49-65.81-9.42-2.08-1.91-6.92-9.41-9.11-10-4.19-1.14-8.23,3.42-16.4-.65-14.6-7.28-8.35-30.04,9.02-26.77,3.39.64,5.28,3.15,8.48,3.6ZM251.94,397.61c-2.22-6.64-15.69-4.87-17.74,1.31,6.26-1.3,11.36-3.73,17.74-1.31ZM197.37,408.78c-1.28-7.53-17.21,2.99-14.45,6.58,4.77-3.37,7.87-7.1,14.45-6.58ZM255.89,413.39c-3.16-.53-3.13,3.66-5.09,5.27-6.36,5.22-9.55-2.02-15.28-2.32,4.1,9.62,20.14,7.79,20.37-2.95ZM205.26,424.56c-4.93,3.32-4.89,8.41-12.65,6.4-1.42-.37-8.41-7.35-6.13-1.09,2.03,5.54,21.46,5.43,18.78-5.31ZM225.65,439.03c3.11,6.87,11.64-2.12,5.84-7.49-1.78-1.65-8.09-4.08-8.47-.41,2.74.68,7.6,1.34,7.8,4.94,0,2.98-2.81,2.76-5.18,2.96ZM235.84,448.9c-5.1,2.39-8.74,6.16-14.68,4.79-1.28-.3-7.91-4.71-7.35-1.2.64,3.97,19.21,3.8,22.35-1.96.45-.83.8-1.64-.33-1.62Z" fill="#fff"/>
  <path d="M479.3,331.35c.99,5.5,9.01,18.09,14.91,18.35,3.68.16,5.11-2.2,7.95-2.65,16.19-2.57,18.11,19.84,5.56,25.93-8.1,3.93-10.84-1.45-18.31-1.54-11.78,28.74-48.1,39.08-75.69,27.79s-30.31-41.3-26.25-66.95c.3-1.89,1.32-7.88,2.57-8.6,10.64-2.59,22.14-4.94,29.89-13.33,6.85,5.22,14.84,5.54,22.88,3.23,8.75,11.51,22.85,15.35,36.5,17.77ZM414.93,329.97c-1.93-2.6-15.88-2.13-16.38,3.87,5.82-3.09,10.01-2.94,16.44-1.97-.08-.57.18-1.58-.06-1.9ZM462.98,337.8c.93-7.2-15.61-8.5-17.72-4.25-.28.57-.38,1.97.96,1.62,6.62-3.93,11.13-1.23,16.76,2.62ZM416.31,347c-5.17.57-5.03,5.37-11.2,3.63-.87-.24-5.63-4.65-5.87-2-.51,5.65,16.83,7.3,17.07-1.63ZM461.49,354.05c.89-.99,1.3-2.92-.14-3.75-3.65,2.53-7.65,5.73-12.15,2.92-1.99-1.24-2.59-4.76-5.28-4.9-1.81,8.78,13.96,9.76,17.57,5.74ZM426.17,359.5c-8.97.25-8.66,14.06.65,10.18l-4.47-3.27,3.82-6.9ZM441.29,378.55c-4.28.06-7.8,3.45-12.14,3.31-4.92-.16-7.01-4.35-11.52-4.62,1.91,8.26,20.39,7.9,23.66,1.31Z" fill="#fff"/>
  <path d="M387.66,534.7c29.26,34.72-13.95,59.92-44.84,65.83-57.37,10.98-170.68-14.52-214.78-54.39-32.07-29-12.71-65.56,25.95-70.31-3.21,11.87-10.02,11.48-18.21,16.3-11.51,6.78-13.88,20.72-7.54,32.12,15.46,27.8,95.11,52.24,125.66,58.41,32.34,6.53,91.86,12.37,118.96-9.94,33.85-27.85-27.09-57.76-47.5-66.77-13.96-6.16-37.96-12.04-49.55-18.82-1.42-.83-12.11-11.08-11.37-11.96,25.62,7.86,51.35,15.8,75.62,27.26,16.49,7.79,35.76,18.21,47.6,32.27Z" fill="#fff"/>
  <path d="M269.14,402.76c-2.75-3.91-3.83-15.43-7.34-17.96-3.03-2.18-14.6-3.23-19.39-4.93-6.71-2.37-11.88-7.57-18.73-9.21.76,14.73-14.91,25.41-28.54,23.6-10.27-1.36-4.72-7.55-5.64-13.42-.13-.86-.37-2.01-1.31-.98-2.37,15.97-15.13,28.1-30.84,30.96l-1.39,16.37c-7.37-3.9-19.82-4.94-23.6,4.19l-1.36.4c-14.72-27.2,4.96-60.11,28.97-74.54,35.35-21.25,96.1-18.37,110.71,26.58,1.36,4.18,6.8,20.8-1.53,18.94Z" fill="#fff"/>
  <path d="M431.43,525.46c-.33-2.7-5.73-19.35-7.3-20.96-4.15-4.23-7.3,7.21-8.13,10.13-1.86,6.53-2.29,13.7-3.64,20.35-4.13-8.1-5.19-22.05-15.74-24.3l.62,32.84-17.08-22.07,4.27-19.33c11.79-3.58,20.69-10.22,29.91-18.08,1.83-1.56,6.84-7.93,8.73-7.49,10.23,9.91,22.39,18.4,35.8,23.43,10.58,3.98,21.03,7.16,31.73,1.47l8.23,49.95c-11.15-9.18-14.57-3.21-13.48,9.21l-22.98-2.01c-2.86-3.62,17-25.56,15.03-31.1-1.06-2.98-7.15.86-8.69,1.69-6.73,3.63-13.14,9.97-18.86,14.99,2.75-11.48,9.83-22.41,9.88-34.39-1.49-5.01-12.95,7.34-14.16,8.75-5.73,6.62-9.23,14.57-14.13,21.7-.41-4.69.56-10.22,0-14.79Z" fill="#fff"/>
  <path d="M410.39,446.91c6.87-1.14,9.37,6.68,15.12,8.54-.03-4.65-15.3-11.48-15.09-12.76,6.91-8.27,17.07,4.25,23.63,7.51-2.2-4.77-7.13-7.64-11.65-9.71-2.33-1.07-6.24-.41-5.44-3.42,9.6-2.68,16.35,1.13,22.69,7.87,4.08,4.34,8.52,14.69,11.83,17.1s11.37,4.08,15.59,6.11c2.05.99,18.18,10.43,18.93,9.66.45-4.18-9.94-5.74-10.41-8.3,5.76-12.56,7.02-25.66,6.49-39.37-.12-3.19-4.3-17.9,3.93-16.46,6.55,1.14,15.24,13.48,17.4,19.46,7.32,20.3,1.83,68.83-26.94,69.05-13.21.1-42.56-15.37-49.91-26.4-3.1-4.65-4.79-10.59-7.73-15.28-1.2-1.91-10.53-11.59-8.44-13.58Z" fill="#fff"/>
  <path d="M539.24,401.56c2.6,8.12,8.94,15.39,16.44,19.4,2.18,1.17,9.36,3.32,10.18,4.28,1.97,2.29.11,7.86,5.28,12.47s5.86.42,11.37.16c8.41-.4,9.1,7.39,7.16,13.78-2.31,7.61-11.59,4.44-17.55,4.78-8.36,23.35-41.32,27.28-58.73,12.04-7.48-6.54-3.8-8.25-4.35-16.65-.78-11.87-4.17-23.95.13-35.64,11.25-3.35,20.43-8.1,30.07-14.62ZM527.98,422.03c-4.27-1.74-10.9-3.09-13.71,1.86,2.55.5,5.19-1.34,7.51-1.25,3.75.15,7.29,5.78,6.2-.61ZM560.29,429.81c-1.59-4.8-9.16-5.89-13.15-3.6l13.15,3.6ZM518.38,438.85c-1.04-.91-1.35-5.35-4.11-5.08-.13,5.23,3.8,10.45,9.45,7.8,2.07-.97,4.98-4.85,1.07-5.17.52,3.05-4.37,4.24-6.41,2.45ZM555.86,440.53c-.92.99-.81,4.12-4.29,3.64-3.69-.52-2.01-5.72-5.74-5.14-.62,8.66,11.55,10.37,12.49,1.65-.64-1.17-1.74-.92-2.46-.15ZM533.34,444.29c-8.26-2.55-5.53,8.85-.33,8.55,3.38-.19-3.16-4.06-2.92-5.53l3.26-3.02ZM543.85,459.4c-6.78,1.41-10.29,2.67-17.09,0,1.62,7.07,14.52,5.82,17.09,0Z" fill="#fff"/>
  <path d="M555.09,479.17c24.59,2.94,35.89,28.49,26.9,50.23l-26.96-4.94c.87-5.71,2.76-13.03,2.01-18.76-.15-1.12-.18-2.27-1.67-2.28l-3.58,29.96-50.01-4.97,7.23-31.55c-1.14-1.26-3.34,4.63-3.6,5.27-1.06,2.59-3.87,15.33-4.71,15.67l-3.6-.3c-1.24-1.39-4.2-15.43-3.9-17.7.4-3.07,4.69-6.48,6.49-9.31,1.55-2.44,2.53-7.14,4.38-8.77,2.81-2.49,16.71-5.52,20.3-4.48l.81,1.24c-3.34,22.01,27.3,18.19,29.92.68Z" fill="#fff"/>
  <path d="M538.44,380.36c-.83.87-9.5,2.31-12.12,3.33-7.82,3.05-18.08,12.53-22.44,19.63-2.94,4.77-3.75,10.43-7.1,14.64-4.99-7.35-25.87-9.11-28.57-15.37-1.98-4.58,4.28-6.48,7.28-9.25,5.75-5.31,11.65-11.58,15.22-18.62,4.08-.48,7.77,1.93,11.85,1.71,21.85-1.17,20.36-36.86-1.63-31.92-2.5.56-5.05,4.56-7.68,3.49-1.2-.49-6.9-7.2-7.8-8.69-1.45-2.42-2.87-8.18-4.37-9.43-2.53-2.12-14.57-3.54-18.74-4.92-6.13-2.03-17.47-7.28-16.84-14.81,1.46-1.99,18.69,2.39,21.96,3.12,18.04,4.02,35.66,9.86,53.38,14.99l2.08,23.56c5.46,3.37,9.42,5.97,12.49,11.83,1.68,3.2,5.72,13.86,3.02,16.71Z" fill="#fff"/>
  <path d="M416.31,310.2c-6.66,8.98-18.91,8.52-28.61,11.81-5.59,23-7.1,55.81,13.15,72.33,4.83,3.94,11.86,5.24,14.8,10.5-10.57.38-24.8,5.84-32.23,13.46-4.01,4.11-6.49,14.23-13.55,8-5.25-4.63-3.93-10.87-5.66-16.36-.67-2.11-2.6-4.09-3.43-6.43-4.9-13.75,3.63-25.1,6.58-38.08,2.45-10.79,2.52-22.14,4.45-33.02,1.15-6.48,2.48-18.63,9.52-20.72,4.3-1.28,33.74-3.59,34.99-1.49Z" fill="#fff"/>
  <path d="M408.41,446.91c.93,8.13,15.89,20.55,11.88,28.63-1.19,2.39-13.02,11.65-15.87,13.71-65.56,47.12-44.32-66.52-4.36-78.63,1.07-.32,2-.93,3.14-.23,3.26,2.36-5.42,13.7-6.71,16.39-5.56,11.6-7.47,24.47-7.43,37.27l-17.81,7.83.67,1.97,32.57-12.78c2.3-2.72-3.4-13.39,3.92-14.15Z" fill="#fff"/>
  <path d="M589.88,437.05c-8.77-3.18-16.34,4.94-20.5-6.13-.73-1.95-1.09-6.56-1.78-7.42-.38-.48-7.4-2.57-9.06-3.43-9.83-5.08-14.47-13.58-20.27-22.45-7.77,9.22-19.08,13.89-30.56,16.76l-3.31,12.81c-7.91-4.57-2.27-16.11,1.21-22.13,15.42-26.69,51.57-30.35,74.73-11.39,1.53,1.25,9.53,9.58,9.53,10.84v32.54Z" fill="#fff"/>
  <path d="M516.24,304.27c-12.41-4.67-25.01-9.37-38-12.29-8.56-1.93-22.91-2.31-29.59-4.6-4.94-1.7-6.07-5.96-12.37-6.69-11.65-1.34-11.82,6.03-19.05,7.09-4.63.68-10.84-.14-15.74.04-2.6.09-6.14,1.27-8.57,1.31-.94.02-1.14.26-.93-.94.45-2.64,13.63-13.24,16.49-15.07,34.1-21.78,97.2-13.37,107.75,31.15Z" fill="#fff"/>
  <path d="M77.72,534.99h-9.53c-.65,0-2.49-1.71-2.64-2.62-11.38-38.05-28.74-76.09-36.81-115.03-.46-2.23-3.13-13.52-1.63-14.47,7.62,4.62,12.04,14.62,16.01,22.43,16.85,33.11,29.88,72.85,34.6,109.68Z" fill="#fff"/>
  <path d="M358.45,577.7c10.72-29.19-9.74-50.71-35.62-60.02-2.44-.88-5.37-.45-8.23-1.63-4.27-1.75-12.26-10.9-17.75-13.8-7.5-3.97-15.21-1.47-17.95-11.3,1.33-.99,15.31,4.67,17.73,5.6,20,7.74,70.88,28.41,80.34,47.19,8.38,16.63-3.56,28.4-18.52,33.95Z" fill="#fff"/>
  <path d="M522.16,325.97l-72.97-17.76c2.46-6.33,4.04-12.56.02-18.73,16.45,2.43,33.12,5.12,48.98,10.18,14.81,4.73,25.54,7.63,23.98,26.31Z" fill="#fff"/>
  <path d="M444.58,738.75c8.48,20.61-13.1,20.63-15.13,2.63-4.05.14-6.6,4.89-11,5.77-6.66,1.32-12.48-.24-7.7-7.7,2.86-4.47,7.96-3.42,10.81-7.26-4.16.47-15.71-4.26-15.02-9.39,3.24-8.06,11.75-3.39,17.64-1.8-.24-6.73-6.33-16.45,4.21-17.74,6.39,1.96,7.36,9.32,6.97,15.11,6.23-3.99,9.93-13.8,18.9-9.04,3.63,7.28-4.48,11.18-7.07,16.93h9.53c1.98,0,6.88,2.9,6.96,5.57.09,3.08-5.22,6.92-7.61,6.92h-11.51ZM441.72,723.2c-8.32-8.21-23.26,2.79-14.58,12.94,8.62,10.09,24.03-3.6,14.58-12.94Z" fill="#fff"/>
  <path d="M54.54,355.05c4.1-.71,8.08-.02,10.7,3.45,5.1,6.75,7.47,40.07,5.85,48.59-1.23,6.47-7.13,12.64-13.71,7.9-7.51-5.41-12.08-43.76-10-52.64.91-3.89,3.09-6.59,7.16-7.3Z" fill="#fff"/>
  <path d="M123.73,462.03c2.88,1.86-1.96,11.83-2.97,14.43-7.9,20.36-19.04,39.43-26.97,59.8l-1.4,1.22-11.38-1.5c-1.07-.9-.63-2.01-.51-3.12.47-4.35,3.98-13.59,5.6-18.1,7.07-19.7,19.12-42.01,37.64-52.73Z" fill="#fff"/>
  <path d="M516.24,572.44c7.86-4.87,10.19-16.43,21.03-17.08-1.85,41.29-55.45,34.84-49.02-5.3,10.27-2.11,13.16,11.05,17.13,17.78,1.8-.45,5.23-21,11.16-21.69,5.23,7.59,3.1,18.32-.31,26.29Z" fill="#fff"/>
  <path d="M414.31,406.84c4.78,23.27,35.95,21.47,50.96,9.15,7.34-6.03,5.1-9.69,16.8-3.58-7.95,14.21-26.12,27.92-43.06,26.6-5.53-.43-7.1-4.34-11.64-5.45-2.68-.66-4.96-.17-7.6-.95-5.06-1.5-11.07-10.7-12.79-15.48-3-8.34-1.97-10.05,7.33-10.28Z" fill="#fff"/>
  <path d="M96.59,404.33c6.12-1.46,10.8,1.39,11.87,7.57,1.45,8.42-5.47,39.78-12.32,45.21-8.91,7.06-12.85-2.59-13.19-10.5-.37-8.52,3.71-39.92,13.65-42.29Z" fill="#fff"/>
  <path d="M221.37,478.46c9.29-1.06,16.44-6.49,24.12-8.09,5.07-1.06,8.32,1.74,12.46,4.39,2.91,1.86,24.35,18.6,20.95,22.1-12.22-3.91-23.69-1.25-35.85,1-4.25-1.68-7.34-5.25-11.27-7.45-5.92-3.31-15.61-6.49-20.75-10.14-.76-.54-1.42-.53-1.15-1.81,3.68-.3,7.9.41,11.51,0Z" fill="#fff"/>
  <path d="M479.43,421.93v29.91c0,1.15-3.88,11.61-4.73,13.02-1.22,2.04-1.35,3.2-3.97,2.97-1.03-.09-17.93-7.97-18.71-8.64-3.7-3.16-8.93-14.12-12.69-18.19,10.21-.23,20.75-3.33,28.87-9.6,3.76-2.9,6.73-8.37,11.23-9.47Z" fill="#fff"/>
  <path d="M17.56,458.1c5.85-.23,23.49,26.04,26.9,31.59,5.01,8.16,9.52,16.75,13.18,25.6,1.37,3.3,6,14.12,6.17,16.91.22,3.78-10.04,3.94-11.63.39-9.21-22.87-27.3-45.48-34.14-69.07-.24-.83-2.08-5.36-.48-5.42Z" fill="#fff"/>
  <path d="M577.26,531.16c2.13,1.37-2.98,12.46-3.92,14.58-1.8,4.07-4.31,8.63-6.61,12.45-.97,1.61-7.43,11.92-8.04,12.34-2.24,1.54-17.57-1.74-21.11-2.66-.87-1.16,9.55-16.32,10.79-18.83,3.32-6.73,4.88-14.18,7.96-21l20.92,3.12Z" fill="#fff"/>
  <path d="M549.77,536.96l-8.93,21.63-1.64-.33c-.73-13.13-16.28,3.95-17.04,3.01.24-3.78.3-17.7-5.48-17.57-6.76-.59-9.54,16.23-10.38,16.83-.44.32-1.8.03-2.51.05-2.34-10.28-3.75-20.97-2.01-31.51,7.67,4.64,17.52,3.47,25.95,4.61,7.38,1,14.61,2.7,22.03,3.28Z" fill="#fff"/>
  <path d="M589.88,508.04l-3.37-.38c-.96-11.24-6.17-19.09-15.5-25.12-4.65-3.01-9.9-4.07-14.66-6.7,7.58.55,14.84-15.53,17.25-16.62,4.24-1.92,12.08,1.48,16.28-3.11v51.93Z" fill="#fff"/>
  <path d="M464.64,401.07c13.02,11.56-12.11,20.63-21.14,21.44-8.67.77-22.64-2.03-26.03-11.27-4.16-11.35,8.32-5.42,14.95-5.09,10.53.53,22.35-1.44,32.21-5.07Z" fill="#fff"/>
  <path d="M168.44,467.95c.73.68-6.8,10.01-7.76,11.63-10.7,18.01-10.46,38.99-4.26,58.56.74,2.34,2.99,5.33,3.35,7.17.23,1.19.57,1.55-.86,1.52-2.06-.04-15.65-9.54-16.62-11.66-4.17-9.17.22-31.67,3.95-41.1s11.97-23.86,22.19-26.12Z" fill="#fff"/>
  <path d="M423.53,506.73c7.26,19.68,7.43,42.63-1.07,61.69l-6.34-.55c-1.1-.72-1.86-20.84-1.81-24.04.14-8.11,1.09-19.25,3.21-27.02.49-1.81,3.44-11.76,6.01-10.08Z" fill="#fff"/>
  <path d="M458.39,511.99l-21.71,59.8-11.11-2.03c2.77-13.51,7.28-27.9,14.3-39.81,2.05-3.48,13.89-21.31,18.52-17.96Z" fill="#fff"/>
  <path d="M589.88,510.01v67.7l-12.56-3.03c-1.8-4.37.26-9.56.09-13.69-.44-10.91-4.77-11.46,1.11-23.2,1.82-3.64,5.54-6.65,6.95-10.18,2.21-5.51,2.14-11.81,1.14-17.59h3.28Z" fill="#fff"/>
  <path d="M418.28,289.16c-4.15,6.17-2.29,11.7-1.31,18.4l-37.85,1.99c-.13-4.98,2.81-13.97,7.43-16.3,3.22-1.63,30.08-5.4,31.73-4.09Z" fill="#fff"/>
  <path d="M474.17,529.08l-22.46,45.23-13.05-1.2c2.66-19.17,18.08-36.27,35.51-44.03Z" fill="#fff"/>
  <path d="M413.68,567.85l-10.48.62c-2.34-12.41-4.75-25.1-5.28-37.77-.09-2.11-.57-16.65.97-16.73,14.01,14.34,12.3,35.46,14.79,53.88Z" fill="#fff"/>
  <path d="M392.65,462.03c-1.42-13.25.26-23.14,6-35.07.98-2.04,3.85-9.44,6.04-8.9,4.22,5.91,6.93,11.51,12.92,16.04-4.28,2.5-5.96,5.7-8.83,8.91-1.29,1.45-3.92,2.35-4.88,4.32-1.67,3.45-.03,7.25-1.06,10.77l-10.19,3.94Z" fill="#fff"/>
  <path d="M432.62,282.73c17.44-.94,23,23.97,7.16,29.56-24.04,8.5-29.4-28.37-7.16-29.56ZM433.06,289.48c-6.85.22-13.89,9.85-5.54,15.09,15.04,9.44,19.29-15.54,5.54-15.09Z" fill="#fff"/>
  <path d="M337.41,454.14l-6.57,40.75-17.1-5.27c-.77-.92,8.7-19.79,9.98-21.89s8.08-11.49,9.69-12.66c1.4-1.03,2.31-1.11,4-.93Z" fill="#fff"/>
  <path d="M469.46,754.63c1.64,3.08-.14,6.47-1.2,9.44-4.06,11.3-14.93,19.59-26.96,20.04-2.77-9.24,21.06-33.88,28.17-29.47Z" fill="#fff"/>
  <path d="M436.03,785.41c-14.78-.03-32.4-7.76-33.53-24.31,14.7.65,28.02,10.98,33.53,24.31Z" fill="#fff"/>
  <path d="M306.51,487l-16.11-7.22-3.6-32.87c1.57-1.74,8.77,7.76,9.57,9.16,1.95,3.41,11.63,28.95,10.14,30.93Z" fill="#fff"/>
  <path d="M145.44,490.3c-6.01,13.38-8.1,25.96-6.74,40.59.09.97.71,1.71-.81,1.47-16.16-12.85-13.9-37.26,7.55-42.05Z" fill="#fff"/>
  <path d="M553.06,478.46c-2.01,14.47-27.68,19.8-26.3.65,8.93,1.33,17.44.23,26.3-.65Z" fill="#fff"/>
  <path d="M90.87,461.37c-3.24,22.23-4.31,45.09-11.83,66.39l8.54-66.39h3.29Z" fill="#fff"/>
  <path d="M271.67,431.13l-1.92-25.2c15.95-6.25,14.9,22.51,1.92,25.2Z" fill="#fff"/>
  <path d="M349.9,481.75c.95,1.05-3.06,17.85-4.87,19.11-3.07,2.12-9.1-2.96-12.61-3.31-2.25-3,15.82-17.64,17.48-15.8Z" fill="#fff"/>
  <path d="M71.8,493.57c-1.95.35-1.04-.52-1.4-1.52-.99-2.8-1.85-7.17-2.36-10.16-3.5-20.57-2.38-41.75-5.88-62.31l2.08-1.59,7.55,75.58Z" fill="#fff"/>
  <path d="M574.76,573.11l-13.81-1.32,11.5-19.7c1.01.02,2.3,7.19,2.3,8.2v12.82Z" fill="#fff"/>
  <path d="M438.66,782.13c-1.05,1.32-4.6-7.01-4.6-7.56v-18.73c1.12-.51,4.6,1.59,4.6,2.3v23.99Z" fill="#fff"/>
  <path d="M518.21,475.16l-13.14,3.95,1.97-13.15c.87-.73,9.93,7.94,11.17,9.19Z" fill="#fff"/>
  <path d="M57.24,352.16c-.11.18-3.62,1.68-4.16.76-.99-1.46-1.87-7.99,0-8.55,3.21-.38,5.4,5.78,4.15,7.79Z" fill="#fff"/>
  <path d="M103.92,402.11l-3.85.1c-1.46-10.99,9.26-10.44,3.85-.1Z" fill="#fff"/>
  <polygon points="402.5 568.5 397.24 569.82 399.88 563.25 402.5 568.5" fill="#fff"/>
  <polygon points="500.46 521.19 497.84 529.72 497.17 521.18 500.46 521.19" fill="#fff"/>
  <path d="M111.25,506.07c-.79,1.37-.33,4.11-2.63,3.93-.29-1.71.44-4.03,2.63-3.93Z" fill="#fff"/>
  <path d="M113.22,500.81c-.23,1.45-.35,3.11-1.97,2.62l.66-2.62h1.3Z" fill="#fff"/>
  <polygon points="114.86 496.86 115.19 497.19 114.86 497.52 114.86 496.86" fill="#fff"/>
  <polygon points="367.33 736.78 367.66 737.11 367.33 737.43 367.33 736.78" fill="#fff"/>
  <path d="M523.24,247.5c-1.3,1.01-3.38,1.81-4.84,2.74l-439.04.79c-23.75-2.98-24.74-60.63,2.61-61.8l431.29.04c24.2,2.08,24.66,46.84,9.98,58.24ZM80.18,193.35c-21.59,3.37-21.66,52.25,1.81,54.4h430.64c23.69-2.57,23.78-51.84.66-54.56l-433.1.16Z"/>
  <path d="M308.49,49.24v3.29h11.51c2.42,0,2.42,13.15,0,13.15h-11.51v4.6h12.16c3.01,0,1.59,5.24,2.95,6.57l10.04-37.62c.02-4.64,12.24-3.69,13.58-2.09l11.24,41.68,1.9-41.81,11.63-.32,8.16,19.12v-17.42c0-3.16,11.38-3.72,11.81.02l-.58,44.56c-1.1,1.69-10.35,1.58-11.88.1s-6.6-19-7.57-18.73l-.96,18.62c-.44,1.54-11.01,2.3-11.53-1.53-3.94,5.51-14.42,3.53-13.4-4.87l-10.57-.35c-1.02,9.36-2.14,7.67-10.19,7.81-2.16.04-4.18.04-6.58.08-3.23.05-20.16.42-21.63-.64l-.1-46.73,24.02-.34c1.66,1.05,2.25,11.19-.35,12.84h-12.16ZM320.32,38.73h-22.35v42.72h23.01v-8.54h-14.46v-9.86h13.15v-7.89h-13.15v-8.54h13.81v-7.89ZM345.89,38.8l-10.42-.04-11.21,42.69,8.51-.03,2.43-7.76,12.15.29,1.99,7.41,7.8.09-11.25-42.65ZM370.94,38.73h-9.2v42.72h7.89v-27.61l10.84,26.96,9.54.65v-42.72h-7.89v27.61l-11.18-27.61Z"/>
  <path d="M301.25,150.47l14.47,1c1.94-1.46,7-30.87,9.92-34.13,1.39-1.55,12.84-2.46,13.42,1.57l11.5,40.76v-41.74c0-2.41,15.69-1.86,18-1.57,7.58.97,11.05,5.94,10.98,13.4-.02,2.91-1.99,6.73-1.85,8.45.1,1.3,1.84,3,2.13,4.37,1.66,7.77,1.42,17.93-7.68,20.59-3.67,1.07-15.07,1.85-18.6,1.09-1.63-.35-1.96-1.85-3.3-1.97-.16-.01-.31,1.35-2.24,1.7-9.13,1.64-9.14-.17-11.36-8.13l-9.3-.15-3.32,8.04-33.78-.28-.16-47.17h10.19l.99.99v33.19ZM299.28,118.92h-7.89v42.72h22.35v-8.54h-14.46v-34.18ZM325.68,153.85h11.95s3.05,7.48,3.05,7.48l7.87-.73-12.22-41.6-9-.12-12.26,41.77,7.88.66,2.72-7.47ZM352.54,161.64h16.11c10.96,0,13.94-17.26,5.6-22.72,5.6-4.21,3.41-20-3.63-20h-18.08v42.72Z"/>
  <path d="M161.87,272.4c1.18-5.31,12.48-3.67,9.53,2.97-1.92.38-1.88-6.81-5.95-4.01-4.83,3.33-.26,18.56,6.27,19.78,2.64-36.12,48.44-30.44,28.28,7.23,17.18.16,13.5,18.82-2.31,19.13-2.88.06-7.91-1.68-10.36-1.27s-8.7,8.12-12.06,9.69c-8.73,4.05-16.02-2.54-12.76-11.76-22.99.17-28.21-26.13-.65-22.35-.31-4.04-3.81-13.58-7.85-14.82-4.31-1.32-11.09.65-6.65,5.33,2.16,2.28,4.59.79,6.61,2.6-6.58,7.83-16.07-8.41-4.63-10.57,7.08-1.34,8.59,3.31,12.52,7.6.41-2.77-.57-6.99,0-9.53ZM194.09,300.99c.8-5.07,6.15-7.13,7.44-12.61,1.22-5.19,1.25-15.08-4.21-17.9-12.25-6.31-24.06,10.68-23.57,21.58l13.58,22.59c6.25,2.42,25.13-.04,21.28-10.1-2.17-5.68-9.87-4.57-14.51-3.57ZM183.5,316.69c2.8-1.52-8.64-18.54-10.47-20.61-2.27-2.56-5.95-6.92-9.74-4.85-2.18,3.6,6.62,15.07,9.12,17.95,2.03,2.33,7.84,9.27,11.08,7.51ZM168.45,311.5c-12.68,9.77,3.8,19.5,10.35,7.55-3.26-3.63-6.97-7.03-9.95-10.91-5.4-7.02-8.43-20.49-19.43-13.37-7.09,4.59-1.86,16.73,4.24,16.73h14.79Z"/>
  <path d="M402.83,116.29c10.22,1.71,10.44,13.65,8.36,21.51-.34,1.3-2.04,2.55-2.08,3.79-.08,2.04,5.43,10.96,5.23,14.14l11.49-38.79h12.52s12.16,45.02,12.16,45.02c-.58,3.46-10.19,2.76-11.24,1.21-.92-1.36-.98-6.2-2.57-7.12-13.01-2.67-7.97,2.53-11.55,6.87-1.41,1.71-16.23,1.73-18.74,1.07-5.27-1.38-3.83-15.71-10.48-16.15v14.79c-1.76,2.43-10.82,2.43-11.72-.11l.54-46.23c5.48.65,12.86-.87,18.08,0ZM403.49,118.92c-4.62-.94-12.12.7-17.09,0l-.33,42.73h7.89v-15.45c7.99-5.75,9.88,14.09,11.93,15.35l8.45.09c-2.21-6.78-3.71-15.15-9.19-20.04,7.68-3.96,7.15-20.88-1.66-22.68ZM437.25,119.02l-10.1.55-10.87,41.77h7.29s1.98-7.55,1.98-7.55l13.2.35,1.99,7.41,7.8.09-11.28-42.62Z"/>
  <path d="M159.24,150.47h12.82c.24,0,1.19,1.6,1.63,1.31l9.83-34.55c1.28-1.34,12.17-2.07,13.02.87,2.64,12.62,7.86,24.92,10.49,37.49,2.12,10.11-.8,9.62-10.16,7.86l-2.05-7.35-9.99-.1c-1.47,1.06.29,7.22-4.93,8.21-9.13-1.04-20.01,1.25-28.9.06-1.48-.2-2.59-.46-3.61-1.65v-45.68c3.5-.69,8.77-1.62,11.83.33v33.19ZM157.27,118.92h-7.89v42.72h22.35v-8.54h-14.46v-34.18ZM194.65,119l-10.13.54-10.82,42.1,7.26-.31,1.95-7.58,13.42-.03,2.34,7.6,7.24.32-11.27-42.64Z"/>
  <path d="M460.71,79.85c-7.53,8.27-21.54,5.67-26.77-3.87-2.6-4.75-2.09-9.14-4.47-13.59.42,19.28-15.96,24.24-32.44,21.09l-.4-46.35c1.19-1.57,12.14-1.27,14.73-1.01,11.96,1.18,18.47,10.02,18.1,21.67l4.9-14.48c24.72-26.9,43.66,17.52,26.34,36.54ZM460.76,76.59c7.08-9.59,6.4-33.89-7.11-38.06-24.01-7.4-27.26,34.19-12.32,41.89,6.38,3.29,15.04,2.11,19.42-3.83ZM397.9,81.45h14.79c19.95,0,20.72-42.72,0-42.72h-14.79v42.72Z"/>
  <path d="M522,80.31c57.89-7.2,64.99,72.41,11.58,77.96-57.11,5.94-62.11-71.68-11.58-77.96ZM523.99,82.29c-43.09,4.87-48.08,65.25-3.18,73.14,60.56,10.65,61.57-79.74,3.18-73.14Z"/>
  <path d="M106.65,285.21c30.43-3.72,28.03,35.04.43,34.58-4.14-.07-8.77-3.07-10.56-3.02s-4.18,2.46-6.15,3.12c-5.44,1.81-11.29,2.33-16.6-.15-1.74-.82-2.86-2.65-4.12-3.14-3.34-1.28-8.38,2.2-12.16,2.63-29.39,3.35-27.89-38.12,1.19-34.3,4.53-25.55,45.64-26.74,47.97.29ZM105.38,287.79c-3.07-27.03-40.91-26.6-45.4-.22-23.65-6.86-30.85,28.88-6.15,29.79,5.28.19,10.49-3.26,14.37-3.1,5.84.23,7.51,6.83,18.09,4.83,3.62-.68,6.92-4.11,10.17-4.34s6.89,2.33,10.69,2.48c26.15,1.04,25.8-35.88-1.77-29.44Z"/>
  <path d="M274.96,81.78c-.67,3.34-8.35,2.64-10.78,1.58l-1.57-2.38.68-44.06c13.7-2.21,30.09-2.88,28.11,15.94-.33,3.08-3.34,7.69-3.29,9.14.11,3.6,8.93,17.32,6.92,20.77-1.09,1.88-9.28,1.75-11.13.59-3.3-2.08-3.48-15.29-8.94-15.71-.57,4.14.78,10.28,0,14.13ZM281.2,38.73c-4.73-.75-11.17.55-16.11,0v42.72h7.89v-15.78c8.71-1.64,8.37,10.12,11.81,15.47l8.56.3c-2.93-6.62-3.43-15.65-9.86-20.05,8.8-3.94,8.15-21.02-2.3-22.67Z"/>
  <path d="M337.42,329.25c19.6-3.73,21.4,24.41,2.29,25.03-2.93.1-5.89-1.31-9.16-.67-3.74.73-4.18,3.58-10.51,2.54-4.56-.75-5.63-5.38-7.42-5.78-1.16-.26-4.95,1.81-7.13,1.9-21.48.93-17.48-33.5,4.31-26.31,2.15-15.65,27.67-11.86,27.62,3.28ZM315.63,347.74c.85,6.1,4.78,7.59,10.5,6.05,2.08-.56,4.6-3.22,6.41-3.5,2.8-.42,5.49,1.58,8.97,1.16,15.95-1.92,8.97-26.03-6.07-19.89-1.29-8.26-3.52-13.82-13-13.95-7.8-.11-9.7,3.64-10.62,10.71-3.26.45-5.37-1.44-8.93-1.06-10.34,1.08-13.25,17.15-3.31,21.09,6.55,2.59,9.7-.48,16.05-.6Z"/>
  <path d="M157.93,38.73v12.16c0,3.11-6.71-2.09-7.59-2.26-14.77-2.92-11.8,21.03-5.74,22.82s8.15-3.05,13.34-3.14v12.16c-11,9.33-26.13,2.91-29.4-10.7-4.96-20.65,6.09-43.1,29.4-31.03ZM156.61,49.24c3.02-12.03-10.03-13.72-18.19-9.31-13.71,7.4-12.18,39.51,4.89,42.01,8.59,1.26,15.36-1.06,13.3-11-14.2,8.86-19.94-.96-18.43-14.82,1.24-11.32,9.98-12.82,18.43-6.88Z"/>
  <path d="M277.76,163.43l-2.59-7.73-9.45.32c-.73,8.12-7.12,11.31-13.51,6.32l12.83-45.75,11.95.62c2.75,11.35,6.79,22.47,9.6,33.78,2.42,9.75,5.54,15.99-8.83,12.44ZM275.52,119.01l-10.11.56-11.49,42.07,7.92-.29,2.32-7.64,12.35.13,2.48,7.71,7.8.09-11.27-42.63Z"/>
  <path d="M270.17,276.2c2.11,1.77,1.84,9.38,2.77,10.05,2.95.98,11.28-1.2,12.43,2.73,1.69,5.79-6.82,8.47-7.64,11.17-1.14,3.75,2.88,9.2-1.92,11.88-6.05,1.92-8.44-3.62-11.68-3.74-3.82-.14-8.01,5.89-13.35,3.39-6.68-3.13,1.96-11.04,1.52-13.38-13.63-12.09-6.86-13.81,8.16-13.12-.64-4,5.82-12.25,9.71-8.98ZM268.87,278.81c-.37-.45-1.45-.74-2.03-.66-3.67.25-3.79,8.81-6.14,9.61-2.45-.15-13.34-1.87-13.99,1.12l8.41,8.59c-1.89,4.14-4.67,7.86-3.84,12.72,5.74.85,8.87-3.66,13.49-5.72,2.95,2.41,6.24,7.39,10.55,5.1,1.55-2.86-1.36-8.15-.54-10.38,1.04-2.85,9.73-5.26,8.72-10.03l-12.73-1.26c-1.61-1.17-.56-7.47-1.91-9.09Z"/>
  <path d="M222.69,70.28c2.97.91,3.24,12.07.34,13.48-1.93.94-23.44.66-24.34-.83-.51-1.43-.57-2.9-.69-4.41-.5-6.44-1.01-34.91.32-39.83.18-.68.45-1.93,1.01-2.28,2.09-.45,11.2-1.25,11.2,1.99v31.88c3.13.59,9.53-.81,12.16,0ZM208.55,38.73h-8.55v42.72h23.01v-8.54h-14.46v-34.18Z"/>
  <path d="M236.17,160.65c-.11.75-.79,1.85-.8,2.81-2.94.94-10.45,2.14-11.55-1.64l.18-44.22c.97-1.94,13.88-1.58,16.47-1.34,20.6,1.88,16.95,36.86-4.3,32.89-.38,3.58.52,8.06,0,11.5ZM243.73,118.92c-4.85-1-12.86.74-18.08,0v41.74c1.91,1.61,6.77,1.57,8.55,0v-13.47c10.71.68,17.95-3.29,17.8-14.8-.06-5.1-2.69-12.31-8.27-13.47Z"/>
  <path d="M254.86,41.06c8.65,9.58,8.15,37.61-5.85,42.38-30.63,10.43-32.24-44.65-10.49-47.96,6.78-1.03,11.88.63,16.35,5.58ZM241.92,37.59c-20.89.69-20.45,40.01-4.33,44.07,27.21,6.85,28.12-44.86,4.33-44.07Z"/>
  <path d="M173.54,35.6c28.63-4.99,29.03,46.64,6.34,49.06-26.76,2.85-26.28-45.59-6.34-49.06ZM167.37,78.59c3.65,3.21,9.05,4.16,13.74,3.36,17.45-2.97,18.26-43.66-3.3-44.36-18.78-.61-21.24,31.5-10.45,40.99Z"/>
  <path d="M540.37,271.86c2.13-1.45,2.41-8.56,7.97-7.25,3.96.93,3.63,6.36,5.67,8.15,2.28,2,13.42,1.85,10.26,7.56-1.26,2.27-5.97,3.2-6.5,4.68-1.14,3.18,1.65,9.04-2.08,11.72-5.42,2.52-7.38-3.96-10.92-4.27-2.92-.25-4.72,3.06-7.86,3.24-11.24.62-2.24-9.89-2.25-11.46-.02-1.76-5.27-4.69-4.35-8.21,1.23-4.66,7.5-2.4,10.06-4.14ZM555.03,294.41v-10.19c0-1.86,9.01-3.08,7.17-6.84-2.3-1.65-9.28-.85-10.71-1.96-1.22-.94-1.06-12.92-6.32-6.97-1.29,1.46-2.68,6.22-3.26,6.6-1.97,1.27-9.11-1.06-9.25,1.3-.17,3.06,3.68,5.07,5.23,7.32-8.33,9.62-1.9,13.69,6.18,4.93,4.04,2,5.58,6.71,10.96,5.82Z"/>
  <path d="M117.83,346.34c5.15-4.72,17.73-.71,12.79,7.21-1.37,2.19-5.98,3.58-6.47,4.8-1.12,2.82,2.58,7.13-.46,10.62-5.08,5.83-10.35-4.05-13.57-4.77s-7.36,4.09-11.36-1.76c-3.44-5.03,1.52-9.59,6.57-10.2-5.87-14.02,7.56-20.3,12.51-5.91ZM128.17,347.82c-2.89-2.56-9.91,1.44-11.04.84-5.42-13.16-14.36-9.99-8.55,3.85-14.4,4.77-9.08,14.93,4.24,8.9,4.53,11.35,14.77,6.34,7.66-4.22,2.79-.72,12.05-5.52,7.7-9.36Z"/>
  <path d="M309.37,410.33c6.1-6.03,12.11.64,15.83.42s9.33-9.87,16.06-.88c5.39,7.2-2.75,19.71-8.11,25.21-6.16,6.33-10.49,1.96-16.42-2.66s-15.04-14.49-7.35-22.1ZM318.64,430.85c1.9,1.53,7.86,6.64,9.91,5.6,5.21-2.66,20.3-25.7,6.38-27.53-5.33-.7-6.34,4.88-8.99,5.08-4.49-1.61-10.26-6.98-14.87-2.3-6.34,6.44,2.85,15.34,7.57,19.15Z"/>
  <path d="M557,173.46c-1.51.31-1.68-.21-2.55-1.06s-6.11-10.84-6.68-12.4c-.23-.61-1.06-1.41.36-1.65,3.57-.6,7.47,12.48,8.86,15.11Z"/>
  <path d="M566.96,144.46c-.29-.4-.03-1.29-.1-1.88,6.14-.18,9.89,5.88,15.76,7.55l-1.62,2.29c-1.69-2.67-13.07-6.6-14.04-7.96Z"/>
  <path d="M559.64,86.7c-.86-.91,9.85-14.27,12.48-14.46.8,2.58-11.57,15.41-12.48,14.46Z"/>
  <path d="M507.69,82.1c-3.43.31-8.25-12.73-7.22-13.8,1.12-.1,1.47-.19,2.27.68.59.65,5.44,12.6,4.96,13.11Z"/>
  <path d="M535.97,69.29c-.2,1.52-1.45,6.87-3.96,5.91,1.52-5.15-.23-11.99,3.96-16.09-.3,3.22.42,7.07,0,10.19Z"/>
  <path d="M501.77,154.41c.95.97-6.38,12.06-8.54,12.48-1.11-2.55,6.69-14.36,8.54-12.48Z"/>
  <path d="M524.78,161.64l-3.61,17.73c-1.57-.97-.54-1.51-.53-2.47.04-4.51.15-12.52,4.14-15.26Z"/>
  <path d="M487.26,98.6c.24.31-.02,1.34.06,1.91-1.54,1.43-13.57-4.46-14.46-7.22,1.87.78,13.94,4.7,14.41,5.31Z"/>
  <path d="M585.28,108.4v1.31h-12.49c-.06-.4.86-1.31.99-1.31h11.51Z"/>
  <path d="M88.9,579.02c10.07-5.17,22.98,9.59,9.63,14.46l-.43,1.31c13.7,5.09,9.65,16.7-3.85,17.2,1.57,11.59-6.9,14.27-16.53,11.08l-1.31,24.97c5.23-4.9,8.86-10.52,15.77-13.47,16.61-7.08,19.63,2.51,10.4,15-11.98,16.23-40.31,16.15-55.98,5.58-13.43-9.06-18.65-31.62,3.83-22.89,6.9,2.68,11.73,9.66,17.08,14.46l3.61-21.67c-7.83,1.6-12.91-1.43-12.49-9.87-11.21,3.28-17.81-5.87-9.92-14.79-4.34-3.37-7.66-2.52-7.88-9.19-.31-9.27,6.03-8.39,13.19-8.23-2.71-7.91,2.3-18.19,11.64-13.27,2.61,1.38,2.64,4.36,5.43,4.05,5.43-12.78,20.53-9.67,17.79,5.27ZM88.89,607.95c17.37,4.01,21.17-8.09,3.96-12.83-.03-1.09,13.42-4.71,7.12-12.39-3.45-4.21-9.5.2-13.75-.71-1.84-1.28,2.66-8.23-.97-12.84-4.77-6.07-12.93,5.11-15.11,9.18-1.8.4-2.45-5.24-4.94-6.22-2.31-.92-8.78-.81-9.71,2.08-1.37,4.69,1.98,7.91,3.15,12.03-15.94-6.87-23.82,10.85-4.6,11.18,2.38,2.31-10.37,7.46-5.18,14.05,3.92,4.98,12.3-2.45,13.06-1.56-5.4,15.48,9.33,17.88,14.14,4.61,2.38,6.05,6.32,9.58,13.31,6.72,5.5-2.25.79-9.58-.49-13.3ZM73.11,657.24l2.63-35.49c-1.4.52-1.96,1.85-2.45,3.13-1.67,4.33-3.78,27.7-1.98,31.22.46.89.66,1.37,1.8,1.15ZM69.17,660.53c-.73-11.62-10.04-22.36-20.69-26.3-5.07-1.88-10.27-4.4-10.6,3.07-.61,13.59,19.54,23.18,31.3,23.23ZM75.09,660.53c10.23.94,23.53-6.57,27.87-15.85,1.43-3.06,4.16-9.31-.73-10.31-9.39-1.92-27.76,16.17-27.13,26.16Z"/>
  <path d="M96.78,698c-7.67-2.05-19.15-11.81-13.5-20.41,7.73-11.77,23.34,6.84,30.18,10.5l17.23-15.1c.74-2.06-9.85-11.38,2.28-15.4,14.3-4.74,20.21,2.53,31.38,4.08s18.12-.67,29.07,3.8c28.28,11.54,20.83,40.59-3.95,51.23-5.83,2.5-17.14,3.64-20.97,5.99-2.38,1.46-3.81,6.3-6.03,8.43-4.95,4.75-19.18,7.78-17.64-2.52.32-2.16,3.32-4.85,2.3-6.33-11.7-3.41-22.83-7.65-31.61-16.39-4.83,6.45-18.24,22.47-27.26,16.06-8.33-5.92,3.97-19.26,8.52-23.95ZM157.93,661.19c-7.44-1.51-19.1-5.49-25.65-.35-5.53,4.34-1.68,11,3.58,10.16,1.22-.19,17.34-6.32,19.13-7.19,1.07-.52,3.33-1.01,2.95-2.63ZM118.9,704.81c.84.74,1.31,2.04,2.56,3.03,15.66,12.4,35.63,15,54.9,10.88,1.08-.8.24-.85.1-1.44-.62-2.55-4.05-6.52-5.2-9.28-4.71-11.31-4.45-25.99-.31-37.42.61-1.67,3.64-4.59,2.48-6.15-13.23-1.74-29.23,4.18-40.68,10.68-8.09,4.59-13.32,9.94-19.97,16.2-6.56-4.45-18.69-20.55-27.5-12.39-7.38,6.83,11.38,16.57,15.45,20.06-5.13,1.81-16.7,16.24-11.15,21.01,6.58,5.65,23.62-11.7,24.31-18.71.53-.46,4.33,2.92,5.02,3.52ZM192.12,698.65c14.86,6.76,20.81-4.07,15.13-17.44-4.56-10.72-18.77-16.4-29.78-16.76-10.97,14.37-10.72,40.46,3.17,52.59,4.51,1.71,24.17-11.85,23.96-14.79-4.46-.22-10.78,2.3-12.48-3.61ZM165.16,722.32c-7.81.7-20.7-2.76-17.8,10.07,2.87,4.33,18.9-3.95,17.8-10.07Z"/>
  <path d="M405.79,665.79c.58-5.05,13.41-.25,14.46-1.99-1.96-7.29-1.27-14.2,2.52-20.8,1.97-3.44,5.17-4.6,5.37-8.1-5.46,0-11.85.52-16.37-3.02-2.41-1.89-2.36-3.62-3.96-5.25-2.44-2.5-6.59-2.46-6.62-7.84-.05-9.54,13.72-3.08,17.92-5.58,13.67-37.93,71.82-17.02,44.54,20.36.54.39,11.39.52,13.31.84,5.35.89,17.38,6.43,21.34,6.23s14.7-12.29,21.05-7.52c5.83,13.66-6.47,28.29-14.91,38.25.1,2.39,16.72-.22,17.74,4.92-6.86.95-13.18-3.21-20.05-2.62-4.84.41-11.39,4.53-16.63,5.73-15.45,3.53-44.91,1.86-57.94-8.09-1.68-1.28-4.3-5.53-4.66-5.53h-17.09ZM457.73,634.25c24.38-14.78,6.74-44.93-19.11-38.5-17.79,4.42-23.29,29.9-5.89,38.82-34.2,38.49,18.25,46.07,47,43.69,16.19-1.34,30.43-11.63,36.16-26.95,8.85-23.65-4.91-18.36-17.06-7.22-9.03-4.93-19.46-6.86-29.62-7.87-1.15-.11-13.23.94-11.49-1.97ZM419.6,616.49c-4.12.86-18.96-4.18-16.32,4.14,1.04,3.28,13.67,5.22,16.97,5.07l-.66-9.21ZM424.85,632.92c-.34-7.09-9.36-5.83-14.46-5.9,3.08,5.06,9.14,5.34,14.46,5.9Z"/>
  <path d="M167.9,759.03c-.3-.43-.05-1.27-.11-1.87,9,2.92,18.13-1.95,26.62-2.03,9.49-.08,18.34,6.74,27.93,3.66-6.23,6.52-14.94.41-22.02-.31s-28.99,5.51-32.42.55Z"/>
  <path d="M294.67,687.48c.57.57.12,1.55-.82,2.15-5.14,3.28-16.45,4.25-22.43,3.68-8.09-.77-16.11-4.9-24.42-5.16-1.86-.06-10.03,1.46-10.18.97-.55-1.8,0-1.28.98-1.66,11.62-4.48,20.46,2.17,30.99,3.22,8.75.87,17.52-.85,25.88-3.2Z"/>
  <path d="M276.27,730.87c.07.07.07,1.9,0,1.96-1.02.96-11.71-2.58-14.14-2.61-5.15-.05-11.78,3.35-17.09,3.31-6.29-.05-10.15-4.63-15.19-5.24-4.52-.55-8.3,2.1-12.77.93,9.22-8.89,18.31,1.73,27.31,2.3,5.92.37,12.04-3.24,17.74-3.34,1.47-.03,13.64,2.16,14.13,2.69Z"/>
  <path d="M547.14,617.81c-7.59-2.94-15.27,1.03-23.27-.06-5.98-.82-10.88-6.01-17.36-6.36-3.68-.2-5.86,1.56-9,1.82-.93.08-2.62.56-2.29-.98,10.67-8.79,21.63,2.94,31.99,3.54,1.31.08,24.18-3.61,19.94,2.04Z"/>
  <path d="M65.23,692.09c-4.81,6.87-14.79-1.59-21.47-1.71-3.25-.06-6.21,1.61-9.43,1.7,7.74-9.64,20.87,2.03,30.9.02Z"/>
  <path d="M339.39,539.59h-22.02c-11.87,0-38.68,15.84-48.27,23.39-1.74,1.37-6.83,7.43-8.27,7.51-1.91.11-.96-2-.37-3,1.01-1.71,11.98-10.42,14.28-12.02,12.77-8.87,31.74-16.79,47.24-18.5,4.54-.5,15.48-2.11,17.41,2.61Z"/>
  <path d="M354.51,606.64l-1.97,7.88c1.92,1.69,15.42-6.19,18.09-7.2,1,.56,1.4,2.42.91,3.2-.59.94-18.74,5.37-20.94,7.65-.74.76-9.31,18.61-8.57,19.36,3.48-.67,8.78-4.05,12.21-3.9,1.75.08,1.09,1.21.62,1.94-2.3,3.53-13.08,2.52-16.39,4.65-1.77,1.14-5.82,10.1-9.94,11.1-1.62.26-1.06-1.13-.64-1.96,1.31-2.54,6.58-3.97,6.23-7.89-11.77,2.2-23.71,3.57-35.72,3.39-2.12.76-3.14,8.54-7.33,8.46-1.04.09-1.14.05-.99-.99s5.62-7.29,5.25-7.57c-12.44.14-24.9.38-37.04-2.69l-5.03,10.57.02-12.18c-3.57-1.47-29.59-4.54-30.3-5.91-.12-.23-.44-2.8.96-2.24l30.56,6.46,1.34-19.61-32.83-7.27c-.2-1.29.55-1.75,1.66-1.97,6.13-1.26,24.07,7.62,31.55,7.25,3.21-.35-.01-7.95,4.26-9.21l-.33,8.55c2.17,4.34,24.24,3.74,28.96,3.91,3.28.12,13.19,2.39,15.06-.01.95-1.22.96-6.39,2.65-5.87,3.71,1.14-1.19,6.46-.31,7.22,6.55-.17,40.57-2.22,43.42-7.03,1.42-2.39.13-8.18,4.57-8.08ZM338.55,637.34c1.84-1.42,9.91-17.29,8.72-18.87-13.07,4.6-27.16,5.3-40.97,5.23l-7.02,19.08c1.66,1.19,36.68-3.45,39.26-5.44ZM302.49,623.79l-42.03-3.1c-3.09.72-2.93,15.59-3.88,18.77l38.96,3.19c2.04-.65,8.23-17.15,6.95-18.86Z"/>
  <path d="M183.57,617.48c.88,4.41,23.81,9.28,24.34,10.52.1.24.22,1.68-.36,1.66-8.26-.27-15.1-5.29-22.65-7.9l-1.31,10.51c-.21-15.26-5.49-12.57-15.8-18.06-2.38-1.27-13.32-8.7-14.14-8.88-1.35-.29-.83.21-.97.96-.6,3.12.74,6.46.33,9.54-2.98-2.73-2.51-7.62-3.96-11.15-3.1-7.54-16.32-10.18-21.34-16.79-.28-1.37.68-1.08,1.65-1,3.41.27,17.4,13.4,18.06,12.51l-.99-17.08c-7.78-6.63-17.27-11.6-23.34-20.05l22.69,16.74,3.29-8.52c2.89,3.49-1.19,7.51,1.33,11.15,3.24,4.68,25.47,10.81,30.9,15.04,2.89-1.66.05-6.93,3.6-7.14.18,1.68.32,8.04,1.3,8.89,2.64,2.29,23.12,5.59,27.64,7.87l-.11,2.87-28.78-8.2-1.36.73c.64,4.63-.86,11.47,0,15.78ZM150.04,583.63v12.82c0,1.58,1.65,5.6,3.05,6.81,1.17,1.01,25.97,13.48,27.54,13.88,1.35.34.71.2.66-.65-.2-3.46.69-16.43-.82-17.77l-30.43-15.08Z"/>
  <path d="M205.26,424.56c2.68,10.74-16.75,10.85-18.78,5.31-2.29-6.26,4.71.72,6.13,1.09,7.76,2.01,7.72-3.09,12.65-6.4Z"/>
  <path d="M255.89,413.39c-.24,10.74-16.28,12.57-20.37,2.95,5.73.3,8.92,7.54,15.28,2.32,1.96-1.61,1.93-5.8,5.09-5.27Z"/>
  <path d="M225.65,439.03c2.37-.2,5.17.01,5.18-2.96-.2-3.61-5.06-4.26-7.8-4.94.38-3.67,6.69-1.24,8.47.41,5.8,5.37-2.73,14.36-5.84,7.49Z"/>
  <path d="M251.94,397.61c-6.39-2.41-11.48.01-17.74,1.31,2.06-6.19,15.52-7.96,17.74-1.31Z"/>
  <path d="M235.84,448.9c1.12-.02.78.8.33,1.62-3.14,5.77-21.71,5.93-22.35,1.96-.57-3.51,6.07.91,7.35,1.2,5.94,1.37,9.59-2.4,14.68-4.79Z"/>
  <path d="M197.37,408.78c-6.59-.52-9.68,3.2-14.45,6.58-2.76-3.59,13.18-14.11,14.45-6.58Z"/>
  <path d="M461.49,354.05c-3.61,4.03-19.38,3.05-17.57-5.74,2.68.14,3.29,3.66,5.28,4.9,4.49,2.81,8.49-.39,12.15-2.92,1.44.83,1.03,2.76.14,3.75Z"/>
  <path d="M441.29,378.55c-3.27,6.59-21.75,6.95-23.66-1.31,4.51.27,6.6,4.47,11.52,4.62,4.34.14,7.86-3.25,12.14-3.31Z"/>
  <path d="M416.31,347c-.24,8.94-17.58,7.28-17.07,1.63.24-2.65,5.01,1.76,5.87,2,6.17,1.74,6.03-3.06,11.2-3.63Z"/>
  <path d="M462.98,337.8c-5.63-3.86-10.14-6.55-16.76-2.62-1.34.34-1.24-1.05-.96-1.62,2.11-4.25,18.65-2.95,17.72,4.25Z"/>
  <path d="M414.93,329.97c.24.33-.02,1.33.06,1.9-6.43-.97-10.61-1.12-16.44,1.97.5-6,14.45-6.48,16.38-3.87Z"/>
  <path d="M426.17,359.5l-3.82,6.9,4.47,3.27c-9.32,3.88-9.62-9.93-.65-10.18Z"/>
  <path d="M543.85,459.4c-2.57,5.82-15.47,7.08-17.09,0,6.8,2.66,10.31,1.41,17.09,0Z"/>
  <path d="M518.38,438.85c2.05,1.79,6.94.6,6.41-2.45,3.91.32.99,4.2-1.07,5.17-5.65,2.65-9.58-2.56-9.45-7.8,2.76-.27,3.06,4.17,4.11,5.08Z"/>
  <path d="M555.86,440.53c.72-.77,1.82-1.02,2.46.15-.94,8.71-13.11,7.01-12.49-1.65,3.73-.58,2.04,4.63,5.74,5.14,3.48.49,3.37-2.64,4.29-3.64Z"/>
  <path d="M527.98,422.03c1.1,6.39-2.45.76-6.2.61-2.32-.09-4.96,1.76-7.51,1.25,2.81-4.96,9.44-3.61,13.71-1.86Z"/>
  <path d="M560.29,429.81l-13.15-3.6c3.99-2.29,11.55-1.19,13.15,3.6Z"/>
  <path d="M533.34,444.29l-3.26,3.02c-.24,1.47,6.3,5.34,2.92,5.53-5.19.3-7.93-11.1.33-8.55Z"/>
  <path d="M441.72,723.2c9.45,9.33-5.96,23.02-14.58,12.94-8.68-10.15,6.27-21.15,14.58-12.94ZM433.24,723.13c-10.54,1.56-6.14,18.17,5.22,12.46,6.74-3.39,3.84-13.8-5.22-12.46Z"/>
  <path d="M433.06,289.48c13.74-.45,9.5,24.54-5.54,15.09-8.35-5.24-1.3-14.87,5.54-15.09ZM437.81,302.77c6.52-7.98-8.05-14.98-11.29-7.03-2.97,7.31,7.94,11.13,11.29,7.03Z"/>
  <path d="M80.18,193.35l433.1-.16c23.12,2.72,23.03,51.98-.66,54.56H81.99c-23.47-2.15-23.4-51.02-1.81-54.4ZM190.14,200.43c-4.08-.83-5.83,1.59-6.57,5.25,3.53.61,4.69-3.11,6.57-5.25ZM123.57,208.46c-11.54,2.43-12.25,28.7.29,31.6,19,4.4,20.26-35.92-.29-31.6ZM170.99,209.72c-9.75-3.33-17.78-1.97-16.38,10.13,1.19,10.27,14.98,4.35,10.94,14.16-3.72,1.77-7.65-.29-10.91-2.04l.07,6.5c5.03,1.33,9.9,3.83,14.62-.03,3.53-2.89,4.04-10.18,1.66-13.94-2.97-4.67-12.29-3.02-11.55-7.89,1-6.62,11-.36,11.63-1.07l-.09-5.82ZM215.12,215.54c-.23-1.57.43-4.15-.08-5.5-.96-2.5-15.14-4.2-16.36,5.16-1.29,9.94,4.13,10.63,11.66,13.66,1.06,1.21,1.12,4.24-.26,5.14-4.25,1.82-7.68-.27-11.39-2.02l.07,6.5c19.43,9.46,25.94-16.09,6.01-19.15-3.17-8.04,5.71-5.98,10.35-3.79ZM366.33,216.2c.38-4.77.45-7.25-4.91-7.9-22.91-2.79-17.88,41.93,4.82,30.15l.09-6.48c-18.29,13.31-18.29-28.57,0-15.78ZM462.9,209.72c-10.06-5.68-22.05,3.33-15.31,13.66,2.5,3.84,11.66,3.68,11.31,8.16-.43,5.56-9.54,2.32-12.34.44l.07,6.5c9.61,4.29,19.65,1.58,17.63-10.73-1.39-8.47-12.18-5.77-12.51-10.56-.42-5.96,8.12-3.09,11.24-1.65l-.09-5.82ZM84.95,208.97v30.89h5.26v-21.69l4.92,15.13,3.88.69,5.66-16.47v22.35h5.26v-30.89l-7.57.65-5.24,15.13-4.6-15.14-7.57-.64ZM148.72,208.97h-5.92v30.89h5.92v-30.89ZM193.43,208.97h-15.78v30.89h16.44v-5.92h-10.52v-7.23s8.59-.28,8.59-.28l.62-5.63h-9.2v-6.57h9.86v-5.26ZM249.31,208.97h-16.44v30.89h16.44v-5.92h-10.52v-7.23s9.78-.73,9.78-.73l.08-5.18h-9.86v-6.57h10.52v-5.26ZM254.57,208.97v30.89h5.26v-20.38c4.17,5.46,6.14,13.69,8.62,20.3l6.5.07v-30.89h-5.26v19.72l-7.96-19.65-7.16-.07ZM297.97,208.97h-5.92v29.91l.99.99h15.45v-5.92h-10.52v-24.98ZM325.51,209.04l-7.78.96-7.93,29.86,5.82-.09,1.33-5.45,8.86-.29,1.74,5.82h5.91s-7.96-30.82-7.96-30.82ZM386.82,239.77l5.8-.89-7.99-28.8-7.36-1.15-8.95,30.93,5.95-.29,1.67-5.66,9.41.11,1.48,5.75ZM395.93,208.97v30.89h5.26v-20.38l8.66,20.26,6.46.12v-30.89h-5.26v20.38l-8.21-19.73-6.91-.65ZM435.28,209.06l-7.22.3-8.47,30.49,5.84-.07,2.34-5.88,8.87.08,1.32,5.58,5.3.29-7.98-30.8ZM487.97,208.97h-21.04v5.26s7.89,0,7.89,0v25.63l5.92-.99v-24.65h7.24s0-5.26,0-5.26ZM504.34,209.04l-7.82-.07-7.89,30.89,5.84-.07,1.04-5.21c.65-.83,9.84-.98,10.21-.63.93.89-1.51,8.07,6.58,5.91l-7.96-30.82Z" fill="#fff"/>
  <polygon points="370.94 38.73 382.12 66.33 382.12 38.73 390.01 38.73 390.01 81.45 380.47 80.8 369.63 53.84 369.63 81.45 361.74 81.45 361.74 38.73 370.94 38.73" fill="#fff"/>
  <path d="M345.89,38.8l11.25,42.65-7.8-.09-1.99-7.41-12.15-.29-2.43,7.76-8.51.03,11.21-42.69,10.42.04ZM344.65,65.67l-3.61-16.43-4.28,16.43h7.89Z" fill="#fff"/>
  <polygon points="320.32 38.73 320.32 46.61 306.51 46.61 306.51 55.16 319.66 55.16 319.66 63.05 306.51 63.05 306.51 72.91 320.98 72.91 320.98 81.45 297.97 81.45 297.97 38.73 320.32 38.73" fill="#fff"/>
  <path d="M352.54,161.64v-42.72h18.08c7.04,0,9.22,15.79,3.63,20,8.34,5.47,5.36,22.72-5.6,22.72h-16.11ZM361.08,126.15v9.2c6.12,1.04,11.2-2.76,6.79-8.6l-6.79-.61ZM361.08,153.75c7.78,1.65,12.43-3.24,7.86-10.15l-7.86-1.02v11.17Z" fill="#fff"/>
  <path d="M325.68,153.85l-2.72,7.47-7.88-.66,12.26-41.77,9,.12,12.22,41.6-7.87.73-3.05-7.47h-11.95ZM336.1,145.2l-4.59-15.77-3.95,15.77h8.54Z" fill="#fff"/>
  <polygon points="299.28 118.92 299.28 153.1 313.75 153.1 313.75 161.64 291.39 161.64 291.39 118.92 299.28 118.92" fill="#fff"/>
  <path d="M194.09,300.99c4.64-1,12.33-2.11,14.51,3.57,3.85,10.06-15.02,12.52-21.28,10.1l-13.58-22.59c-.48-10.9,11.33-27.89,23.57-21.58,5.46,2.82,5.43,12.7,4.21,17.9-1.29,5.48-6.63,7.54-7.44,12.61Z" fill="#fff"/>
  <path d="M168.45,311.5h-14.79c-6.1,0-11.33-12.14-4.24-16.73,11-7.12,14.03,6.35,19.43,13.37,2.98,3.88,6.7,7.27,9.95,10.91-6.55,11.95-23.03,2.22-10.35-7.55Z" fill="#fff"/>
  <path d="M183.5,316.69c-3.24,1.76-9.05-5.17-11.08-7.51-2.51-2.88-11.3-14.34-9.12-17.95,3.79-2.07,7.46,2.28,9.74,4.85,1.83,2.06,13.27,19.09,10.47,20.61Z" fill="#fff"/>
  <path d="M403.49,118.92c8.81,1.8,9.34,18.72,1.66,22.68,5.48,4.9,6.97,13.27,9.19,20.04l-8.45-.09c-2.05-1.26-3.94-21.11-11.93-15.35v15.45h-7.89s.33-42.72.33-42.72c4.98.7,12.48-.94,17.09,0ZM393.96,127.13v9.86c11.55,4.98,11.37-15,0-9.86Z" fill="#fff"/>
  <path d="M437.25,119.02l11.28,42.62-7.8-.09-1.99-7.41-13.2-.35-1.98,7.55h-7.29s10.87-41.77,10.87-41.77l10.1-.55ZM436.69,145.2l-4.59-15.76-3.95,15.77h8.54Z" fill="#fff"/>
  <path d="M194.65,119l11.27,42.64-7.24-.32-2.34-7.6-13.42.03-1.95,7.58-7.26.31,10.82-42.1,10.13-.54ZM194.09,145.2l-4.59-15.1-3.95,15.11h8.55Z" fill="#fff"/>
  <polygon points="157.27 118.92 157.27 153.1 171.73 153.1 171.73 161.64 149.38 161.64 149.38 118.92 157.27 118.92" fill="#fff"/>
  <path d="M397.9,81.45v-42.72h14.79c20.72,0,19.95,42.72,0,42.72h-14.79ZM406.45,72.91c17.69,3.06,17.42-28.57,0-26.29v26.29Z" fill="#fff"/>
  <path d="M460.76,76.59c-4.39,5.94-13.05,7.11-19.42,3.83-14.94-7.7-11.69-49.29,12.32-41.89,13.51,4.17,14.19,28.47,7.11,38.06ZM444.15,47.5c-5.28,5.05-5.22,29.37,6.53,26.57,7.64-1.82,7.77-24.92.96-27.62-2.51-.99-5.5-.85-7.49,1.05Z" fill="#fff"/>
  <path d="M523.99,82.29c58.39-6.59,57.38,83.79-3.18,73.14-44.9-7.89-39.91-68.28,3.18-73.14ZM520.84,116.94c1.02-11.08-18.4-4.55-17.08.95,1.01,4.22,5.13-3.49,5.87-3.96,4.62-2.94,7.6.58,11.22,3ZM552.4,122.2c.91-11.12-16.81-9.98-17.1-2.3-.14,3.6,6.13-3.73,6.6-3.92,6.29-2.61,5.75,6.14,10.5,6.22ZM521.49,129.44l-1.31.33c.15,9.61,15.55,9.23,15.47.32-4.41,5.16-11.07,6.7-14.15-.65Z" fill="#fff"/>
  <path d="M105.38,287.79c27.58-6.44,27.93,30.48,1.77,29.44-3.79-.15-7.28-2.72-10.69-2.48s-6.56,3.66-10.17,4.34c-10.57,2-12.25-4.61-18.09-4.83-3.87-.15-9.08,3.3-14.37,3.1-24.7-.91-17.5-36.65,6.15-29.79,4.48-26.39,42.32-26.81,45.4.22Z" fill="#fff"/>
  <path d="M281.2,38.73c10.45,1.66,11.1,18.73,2.3,22.67,6.42,4.4,6.92,13.42,9.86,20.05l-8.56-.3c-3.44-5.35-3.11-17.11-11.81-15.47v15.78h-7.89v-42.72c4.94.55,11.38-.75,16.11,0ZM272.98,57.79c11.46,2.01,11.23-13.6,0-11.17v11.17Z" fill="#fff"/>
  <path d="M315.63,347.74c-6.36.12-9.5,3.2-16.05.6-9.93-3.93-7.03-20.01,3.31-21.09,3.56-.37,5.67,1.51,8.93,1.06.93-7.07,2.83-10.81,10.62-10.71,9.48.13,11.7,5.69,13,13.95,15.04-6.14,22.02,17.97,6.07,19.89-3.48.42-6.17-1.58-8.97-1.16-1.82.27-4.34,2.94-6.41,3.5-5.72,1.54-9.65.05-10.5-6.05Z" fill="#fff"/>
  <path d="M156.61,49.24c-8.45-5.94-17.19-4.44-18.43,6.88-1.51,13.85,4.23,23.68,18.43,14.82,2.06,9.94-4.72,12.26-13.3,11-17.07-2.5-18.6-34.61-4.89-42.01,8.17-4.41,21.21-2.71,18.19,9.31Z" fill="#fff"/>
  <path d="M275.52,119.01l11.27,42.63-7.8-.09-2.48-7.71-12.35-.13-2.32,7.64-7.92.29,11.49-42.07,10.11-.56ZM274.3,145.21l-3.61-15.11-4.27,15.11h7.89Z" fill="#fff"/>
  <path d="M268.87,278.81c1.35,1.62.3,7.92,1.91,9.09l12.73,1.26c1.01,4.76-7.68,7.18-8.72,10.03-.82,2.24,2.09,7.52.54,10.38-4.31,2.29-7.6-2.7-10.55-5.1-4.62,2.07-7.75,6.58-13.49,5.72-.83-4.87,1.95-8.58,3.84-12.72l-8.41-8.59c.65-2.99,11.54-1.28,13.99-1.12,2.35-.79,2.48-9.36,6.14-9.61.58-.08,1.66.21,2.03.66Z" fill="#fff"/>
  <polygon points="208.55 38.73 208.55 72.91 223.02 72.91 223.02 81.45 200.01 81.45 200.01 38.73 208.55 38.73" fill="#fff"/>
  <path d="M243.73,118.92c5.59,1.16,8.21,8.37,8.27,13.47.14,11.51-7.09,15.48-17.8,14.8v13.47c-1.78,1.57-6.64,1.61-8.55,0v-41.74c5.22.74,13.23-1,18.08,0ZM234.19,126.15v12.49l7.44-.61c4.34-6.67.9-13.41-7.44-11.88Z" fill="#fff"/>
  <path d="M241.92,37.59c23.8-.79,22.88,50.92-4.33,44.07-16.13-4.06-16.57-43.38,4.33-44.07ZM239.92,46.1c-7.51,1.88-8.64,30.11,3.76,28.08,9.03-1.47,9.79-31.47-3.76-28.08Z" fill="#fff"/>
  <path d="M167.37,78.59c-10.79-9.49-8.33-41.6,10.45-40.99,21.56.7,20.75,41.38,3.3,44.36-4.69.8-10.1-.15-13.74-3.36ZM175.49,46.1c-7.88,1.84-8.84,30.78,3.78,28.1,8.34-1.77,9.56-31.22-3.78-28.1Z" fill="#fff"/>
  <path d="M555.03,294.41c-5.38.89-6.92-3.81-10.96-5.82-8.08,8.76-14.51,4.69-6.18-4.93-1.55-2.25-5.4-4.26-5.23-7.32.13-2.36,7.28-.03,9.25-1.3.59-.38,1.97-5.14,3.26-6.6,5.26-5.95,5.11,6.03,6.32,6.97,1.44,1.11,8.42.31,10.71,1.96,1.84,3.76-7.17,4.98-7.17,6.84v10.19Z" fill="#fff"/>
  <path d="M128.17,347.82c4.35,3.84-4.9,8.64-7.7,9.36,7.12,10.56-3.13,15.57-7.66,4.22-13.32,6.03-18.64-4.12-4.24-8.9-5.81-13.83,3.13-17,8.55-3.85,1.12.6,8.14-3.4,11.04-.84Z" fill="#fff"/>
  <path d="M318.64,430.85c-4.72-3.81-13.9-12.71-7.57-19.15,4.61-4.68,10.38.7,14.87,2.3,2.65-.2,3.66-5.78,8.99-5.08,13.92,1.83-1.18,24.87-6.38,27.53-2.05,1.05-8.02-4.07-9.91-5.6Z" fill="#fff"/>
  <path d="M88.89,607.95c1.28,3.72,5.99,11.05.49,13.3-6.99,2.86-10.93-.67-13.31-6.72-4.81,13.27-19.54,10.87-14.14-4.61-.76-.89-9.14,6.54-13.06,1.56-5.19-6.59,7.56-11.74,5.18-14.05-19.23-.33-11.34-18.05,4.6-11.18-1.16-4.12-4.52-7.33-3.15-12.03.92-2.9,7.39-3,9.71-2.08,2.49.99,3.15,6.62,4.94,6.22,2.19-4.07,10.34-15.25,15.11-9.18,3.63,4.62-.88,11.57.97,12.84,4.25.91,10.3-3.51,13.75.71,6.3,7.68-7.16,11.31-7.12,12.39,17.21,4.73,13.41,16.84-3.96,12.83ZM71.64,584.46c-12.93,2.09-12.92,20.78.49,22.17,19.36,2.01,20.03-25.49-.49-22.17Z" fill="#fff"/>
  <path d="M69.17,660.53c-11.76-.05-31.9-9.64-31.3-23.23.33-7.48,5.53-4.95,10.6-3.07,10.65,3.94,19.97,14.68,20.69,26.3Z" fill="#fff"/>
  <path d="M75.09,660.53c-.63-9.99,17.74-28.09,27.13-26.16,4.9,1,2.16,7.25.73,10.31-4.34,9.29-17.64,16.8-27.87,15.85Z" fill="#fff"/>
  <path d="M73.11,657.24c-1.14.22-1.35-.26-1.8-1.15-1.81-3.51.31-26.88,1.98-31.22.49-1.28,1.06-2.61,2.45-3.13l-2.63,35.49Z" fill="#fff"/>
  <path d="M118.9,704.81c-.69-.6-4.48-3.98-5.02-3.52-.69,7.01-17.73,24.36-24.31,18.71-5.55-4.76,6.02-19.2,11.15-21.01-4.07-3.49-22.83-13.23-15.45-20.06,8.81-8.15,20.94,7.94,27.5,12.39,6.65-6.26,11.88-11.61,19.97-16.2,11.45-6.51,27.46-12.42,40.68-10.68,1.16,1.56-1.88,4.48-2.48,6.15-4.14,11.43-4.39,26.11.31,37.42,1.15,2.76,4.59,6.73,5.2,9.28.14.58.98.64-.1,1.44-19.26,4.12-39.23,1.52-54.9-10.88-1.25-.99-1.72-2.29-2.56-3.03ZM159.9,673.68c-7.67-.47-11.14,8.26-7.61,14.51.87,1.55,3.5,2.87,3.45,4.22-.1,2.53-6.33,5.68-3.26,13.35,2.78,6.97,10.45,5.83,8.74,3.42-9.47-1.15-9.49-12.56-1.72-15.72,2.08-3.82-3.57-3.65-5.17-6-2.88-4.24-.45-12.28,5.57-11.18v-2.61ZM144.77,678.28c-6-.99-11.48,7.04-9.36,12.32.57,1.43,2.56,2.13,2.81,3.82.55,3.72-6.57,11.61,3.63,14.74l1.59-.97c-6.54-5.96-6.42-6.45-1.4-13.71-4.52-4.03-7.22-8.95-1.02-13.06,1.42-.94,4.41.08,3.76-3.14ZM129,688.8c-5.66-.01-6.88,10.67-2.29,12.48,2.32.91-1.15-4.58-.89-6.08.35-2.07,3.51-3.87,3.18-6.4Z" fill="#fff"/>
  <path d="M192.12,698.65c1.69,5.91,8.02,3.39,12.48,3.61.21,2.93-19.45,16.5-23.96,14.79-13.89-12.13-14.14-38.21-3.17-52.59,11.01.35,25.23,6.04,29.78,16.76,5.68,13.36-.27,24.2-15.13,17.44ZM185.05,679.76c-1.81,1.66-1.08,7.39,2.16,7.73,6.98.73,2.72-12.19-2.16-7.73Z" fill="#fff"/>
  <path d="M157.93,661.19c.38,1.61-1.88,2.11-2.95,2.63-1.79.86-17.91,6.99-19.13,7.19-5.26.84-9.1-5.83-3.58-10.16,6.56-5.14,18.22-1.16,25.65.35Z" fill="#fff"/>
  <path d="M165.16,722.32c1.1,6.13-14.93,14.4-17.8,10.07-2.9-12.83,9.99-9.37,17.8-10.07Z" fill="#fff"/>
  <path d="M457.73,634.25c-1.74,2.91,10.34,1.86,11.49,1.97,10.16,1.01,20.59,2.93,29.62,7.87,12.15-11.14,25.91-16.43,17.06,7.22-5.73,15.32-19.97,25.61-36.16,26.95-28.76,2.37-81.2-5.2-47-43.69-17.4-8.92-11.9-34.39,5.89-38.82,25.85-6.43,43.49,23.72,19.11,38.5ZM438.5,610.68c-4.12.69-4.18,6.59-.67,7.64,7.8,2.32,6.78-8.66.67-7.64ZM451.81,646.73c-6.15.46-6.1,9.74-4.65,14.17,2.53,7.75,18.73,11.57,25.88,10,3.48-.77,5.07-5.1,6.86-5.64,2.37-.71,4.31.65,6.41.55,9.84-.47,16.82-13.66,3.64-15.14l4.48,6.4c-.57,6.98-11,7.6-15.63,4.41-1.84-1.27-2.2-4.05-4.62-4.24-.05,4.72,6.31,6.64.6,10.13-11.42,6.97-36.13-6.72-22.95-20.64Z" fill="#fff"/>
  <path d="M419.6,616.49l.66,9.21c-3.31.15-15.93-1.78-16.97-5.07-2.64-8.32,12.2-3.29,16.32-4.14Z" fill="#fff"/>
  <path d="M424.85,632.92c-5.32-.56-11.38-.85-14.46-5.9,5.1.07,14.12-1.19,14.46,5.9Z" fill="#fff"/>
  <path d="M302.49,623.79c1.28,1.71-4.91,18.21-6.95,18.86l-38.96-3.19c.96-3.18.79-18.06,3.88-18.77l42.03,3.1Z" fill="#fff"/>
  <path d="M338.55,637.34c-2.58,1.99-37.6,6.63-39.26,5.44l7.02-19.08c13.81.07,27.9-.63,40.97-5.23,1.19,1.58-6.89,17.46-8.72,18.87Z" fill="#fff"/>
  <path d="M150.04,583.63l30.43,15.08c1.51,1.35.62,14.31.82,17.77.05.85.69.99-.66.65-1.57-.4-26.37-12.87-27.54-13.88-1.39-1.21-3.05-5.23-3.05-6.81v-12.82Z" fill="#fff"/>
  <path d="M433.24,723.13c9.06-1.34,11.96,9.08,5.22,12.46-11.36,5.71-15.76-10.91-5.22-12.46Z" fill="#fff"/>
  <path d="M437.81,302.77c-3.35,4.1-14.26.28-11.29-7.03,3.23-7.95,17.81-.95,11.29,7.03Z" fill="#fff"/>
  <polygon points="84.95 208.97 92.52 209.61 97.12 224.75 102.36 209.61 109.93 208.97 109.93 239.86 104.67 239.86 104.67 217.51 99.01 233.98 95.13 233.3 90.21 218.17 90.21 239.86 84.95 239.86 84.95 208.97"/>
  <path d="M254.57,208.97l7.16.07,7.96,19.65v-19.72h5.26v30.89l-6.5-.07c-2.47-6.62-4.45-14.85-8.62-20.3v20.38h-5.26v-30.89Z"/>
  <polygon points="395.93 208.97 402.84 209.61 411.05 229.34 411.05 208.97 416.31 208.97 416.31 239.86 409.85 239.74 401.19 219.48 401.19 239.86 395.93 239.86 395.93 208.97"/>
  <path d="M123.57,208.46c20.55-4.32,19.29,36,.29,31.6-12.54-2.9-11.83-29.17-.29-31.6ZM125.54,213.68c-7.48,1.49-6.06,26.03,3.71,20.18,4.49-2.69,4.96-21.91-3.71-20.18Z"/>
  <path d="M325.51,209.04l7.96,30.82h-5.91s-1.74-5.82-1.74-5.82l-8.86.29-1.33,5.45-5.82.09,7.93-29.86,7.78-.96ZM324.92,228.68l-2.95-11.82-3.59,10.85c.23,1.55,5.3.86,6.54.97Z"/>
  <path d="M504.34,209.04l7.96,30.82c-8.1,2.16-5.65-5.02-6.58-5.91-.37-.36-9.55-.21-10.21.63l-1.04,5.21-5.84.07,7.89-30.89,7.82.07ZM501.12,216.85c-1.82-.2-1.03.09-1.3.99-1.57,5.29-5.3,14.47,3.81,9.88l-2.52-10.87Z"/>
  <path d="M386.82,239.77l-1.48-5.75-9.41-.11-1.67,5.66-5.95.29,8.95-30.93,7.36,1.15,7.99,28.8-5.8.89ZM383.44,228.68c.46-.46-2.01-11.4-3.28-12.48l-2.63,12.48h5.92Z"/>
  <path d="M435.28,209.06l7.98,30.8-5.3-.29-1.32-5.58-8.87-.08-2.34,5.88-5.84.07,8.47-30.49,7.22-.3ZM434.72,228.68l-2.95-11.82-2.96,11.82h5.92Z"/>
  <polygon points="249.31 208.97 249.31 214.22 238.8 214.22 238.8 220.8 248.66 220.8 248.58 225.98 238.79 226.71 238.8 233.94 249.31 233.94 249.31 239.86 232.88 239.86 232.88 208.97 249.31 208.97"/>
  <polygon points="193.43 208.97 193.43 214.22 183.57 214.22 183.57 220.8 192.77 220.8 192.16 226.43 183.57 226.71 183.57 233.94 194.09 233.94 194.09 239.86 177.65 239.86 177.65 208.97 193.43 208.97"/>
  <path d="M462.9,209.72l.09,5.82c-3.12-1.44-11.66-4.31-11.24,1.65.33,4.79,11.12,2.09,12.51,10.56,2.02,12.31-8.02,15.02-17.63,10.73l-.07-6.5c2.8,1.89,11.91,5.13,12.34-.44.35-4.49-8.81-4.33-11.31-8.16-6.74-10.34,5.25-19.34,15.31-13.66Z"/>
  <path d="M215.12,215.54c-4.64-2.19-13.53-4.25-10.35,3.79,19.93,3.06,13.43,28.61-6.01,19.15l-.07-6.5c3.7,1.75,7.14,3.84,11.39,2.02,1.39-.9,1.32-3.93.26-5.14-7.54-3.03-12.96-3.72-11.66-13.66,1.22-9.36,15.4-7.65,16.36-5.16.52,1.35-.15,3.93.08,5.5Z"/>
  <path d="M170.99,209.72l.09,5.82c-.64.71-10.63-5.54-11.63,1.07-.74,4.87,8.58,3.22,11.55,7.89,2.39,3.76,1.87,11.05-1.66,13.94-4.72,3.86-9.58,1.36-14.62.03l-.07-6.5c3.26,1.74,7.19,3.81,10.91,2.04,4.04-9.82-9.75-3.89-10.94-14.16-1.41-12.1,6.63-13.46,16.38-10.13Z"/>
  <path d="M366.33,216.2c-18.29-12.8-18.29,29.08,0,15.78l-.09,6.48c-22.7,11.78-27.73-32.94-4.82-30.15,5.35.65,5.28,3.13,4.91,7.9Z"/>
  <polygon points="487.97 208.97 487.98 214.23 480.74 214.22 480.74 238.87 474.82 239.86 474.82 214.22 466.93 214.23 466.93 208.97 487.97 208.97"/>
  <polygon points="297.97 208.97 297.97 233.94 308.49 233.94 308.49 239.86 293.04 239.86 292.05 238.87 292.05 208.97 297.97 208.97"/>
  <rect x="142.81" y="208.97" width="5.92" height="30.89"/>
  <path d="M190.14,200.43c-1.88,2.13-3.04,5.86-6.57,5.25.75-3.65,2.49-6.08,6.57-5.25Z"/>
  <path d="M344.65,65.67h-7.89s4.28-16.43,4.28-16.43l3.61,16.43ZM342.67,63.04l-1.64-5.9-1.64,5.91h3.28Z"/>
  <path d="M361.08,153.75v-11.17l7.86,1.02c4.58,6.91-.08,11.8-7.86,10.15ZM363.05,151.13l4.97-.62-.33-5.01-4.65-.29v5.92Z"/>
  <path d="M361.08,126.15l6.79.61c4.41,5.84-.67,9.63-6.79,8.6v-9.2ZM366.89,132.62c3.83-2.29-5.42-8.11-3.84.11,1.05-.16,3.06.36,3.84-.11Z"/>
  <path d="M336.1,145.2h-8.54s3.95-15.77,3.95-15.77l4.59,15.77ZM333.47,143.23l-1.96-5.9c-.63,2.99-2.27,6.92,1.96,5.9Z"/>
  <path d="M393.96,127.13c11.37-5.14,11.55,14.84,0,9.86v-9.86ZM399.77,134.59c2.93-7.04-5.71-8.52-3.85.1l3.85-.1Z"/>
  <path d="M436.69,145.2h-8.54s3.95-15.76,3.95-15.76l4.59,15.76ZM433.4,143.23c.35-.33-.51-5.07-.98-5.91l-1.64,5.91c.64-.09,2.45.17,2.62,0Z"/>
  <path d="M194.09,145.2h-8.55s3.95-15.1,3.95-15.1l4.59,15.1ZM188.17,143.23l3.17-.96-1.21-4.29-1.96,5.25Z"/>
  <path d="M406.45,72.91v-26.29c17.42-2.28,17.69,29.35,0,26.29ZM408.42,49.24v21.03c12.53,1.64,12.53-21.68,0-21.03Z"/>
  <path d="M444.15,47.5c1.99-1.9,4.98-2.04,7.49-1.05,6.81,2.69,6.68,25.8-.96,27.62-11.75,2.8-11.81-21.52-6.53-26.57ZM446.34,48.71c-4.91,1.73-5.97,25.24,3.8,22.87,6.22-1.22,7.36-26.8-3.8-22.87Z"/>
  <path d="M552.4,122.2c-4.75-.08-4.21-8.83-10.5-6.22-.47.19-6.74,7.52-6.6,3.92.29-7.68,18.02-8.82,17.1,2.3Z"/>
  <path d="M520.84,116.94c-3.62-2.42-6.6-5.95-11.22-3-.74.47-4.85,8.18-5.87,3.96-1.32-5.5,18.11-12.04,17.08-.95Z"/>
  <path d="M521.49,129.44c3.08,7.36,9.74,5.81,14.15.65.09,8.91-15.32,9.28-15.47-.32l1.31-.33Z"/>
  <path d="M272.98,57.79v-11.17c11.23-2.43,11.46,13.19,0,11.17ZM278.8,49.34l-3.84-.1v5.92s3.9-1.04,3.9-1.04l-.06-4.78Z"/>
  <path d="M274.3,145.21h-7.89s4.27-15.11,4.27-15.11l3.61,15.11ZM271.66,143.23l-.98-5.25-1.64,5.25h2.62Z"/>
  <path d="M234.19,126.15c8.35-1.53,11.78,5.21,7.44,11.88l-7.44.61v-12.49ZM240.61,129.59l-4.44-.82v7.24c5.43,1.07,6.34-1.76,4.44-6.42Z"/>
  <path d="M239.92,46.1c13.56-3.39,12.79,26.61,3.76,28.08-12.4,2.02-11.27-26.2-3.76-28.08ZM238.98,49.44c-4.03,3.11-4.69,24.27,4.71,22.14,7.77-2.37,5.37-29.94-4.71-22.14Z"/>
  <path d="M175.49,46.1c13.33-3.11,12.12,26.33,3.78,28.1-12.62,2.68-11.66-26.26-3.78-28.1ZM175.48,48.72c-5.22,1.69-6.33,24.76,3.13,22.86,6.96-1.4,7.55-26.33-3.13-22.86Z"/>
  <path d="M71.64,584.46c20.52-3.31,19.85,24.18.49,22.17-13.41-1.39-13.42-20.08-.49-22.17ZM72.97,586.42c-14.02,1.57-10.54,20.67,4.93,17.43,10.45-2.19,8.86-18.97-4.93-17.43Z"/>
  <path d="M159.9,673.68v2.61c-6.02-1.1-8.46,6.94-5.58,11.18,1.59,2.35,7.24,2.17,5.17,6-7.77,3.15-7.75,14.57,1.72,15.72,1.7,2.41-5.96,3.54-8.74-3.42-3.07-7.67,3.17-10.82,3.26-13.35.05-1.35-2.57-2.67-3.45-4.22-3.53-6.25-.06-14.98,7.61-14.51Z"/>
  <path d="M144.77,678.28c.66,3.22-2.34,2.2-3.76,3.14-6.2,4.11-3.5,9.03,1.02,13.06-5.01,7.26-5.13,7.75,1.4,13.71l-1.59.97c-10.21-3.12-3.08-11.02-3.63-14.74-.25-1.69-2.24-2.39-2.81-3.82-2.12-5.28,3.36-13.31,9.36-12.32Z"/>
  <path d="M129,688.8c.33,2.53-2.83,4.33-3.18,6.4-.25,1.5,3.21,6.99.89,6.08-4.6-1.81-3.38-12.49,2.29-12.48Z"/>
  <path d="M185.05,679.76c4.88-4.46,9.14,8.46,2.16,7.73-3.23-.34-3.97-6.07-2.16-7.73Z"/>
  <path d="M451.81,646.73c-13.18,13.92,11.53,27.61,22.95,20.64,5.71-3.48-.64-5.41-.6-10.13,2.43.19,2.78,2.97,4.62,4.24,4.63,3.19,15.06,2.57,15.63-4.41l-4.48-6.4c13.18,1.48,6.2,14.67-3.64,15.14-2.09.1-4.04-1.26-6.41-.55-1.79.54-3.38,4.87-6.86,5.64-7.15,1.57-23.34-2.25-25.88-10-1.45-4.43-1.5-13.71,4.65-14.17Z"/>
  <path d="M438.5,610.68c6.11-1.02,7.12,9.95-.67,7.64-3.5-1.04-3.45-6.95.67-7.64Z"/>
  <path d="M125.54,213.68c8.67-1.72,8.2,17.5,3.71,20.18-9.77,5.85-11.19-18.7-3.71-20.18Z" fill="#fff"/>
  <path d="M324.92,228.68c-1.24-.11-6.31.58-6.54-.97l3.59-10.85,2.95,11.82Z" fill="#fff"/>
  <path d="M501.12,216.85l2.52,10.87c-9.11,4.59-5.39-4.59-3.81-9.88.27-.9-.52-1.19,1.3-.99Z" fill="#fff"/>
  <path d="M383.44,228.68h-5.92s2.63-12.48,2.63-12.48c1.27,1.08,3.74,12.03,3.28,12.48Z" fill="#fff"/>
  <polygon points="434.72 228.68 428.8 228.68 431.76 216.86 434.72 228.68" fill="#fff"/>
  <polygon points="342.67 63.04 339.39 63.04 341.03 57.13 342.67 63.04" fill="#fff"/>
  <polygon points="363.05 151.13 363.05 145.21 367.7 145.49 368.03 150.51 363.05 151.13" fill="#fff"/>
  <path d="M366.89,132.62c-.78.46-2.79-.06-3.84.11-1.58-8.22,7.68-2.4,3.84-.11Z" fill="#fff"/>
  <path d="M333.47,143.23c-4.23,1.01-2.59-2.92-1.96-5.9l1.96,5.9Z" fill="#fff"/>
  <path d="M399.77,134.59l-3.85.1c-1.86-8.62,6.78-7.14,3.85-.1Z" fill="#fff"/>
  <path d="M433.4,143.23c-.17.16-1.99-.1-2.62,0l1.64-5.91c.47.84,1.33,5.58.98,5.91Z" fill="#fff"/>
  <polygon points="188.17 143.23 190.13 137.98 191.34 142.27 188.17 143.23" fill="#fff"/>
  <path d="M408.42,49.24c12.53-.65,12.53,22.68,0,21.03v-21.03Z" fill="#fff"/>
  <path d="M446.34,48.71c11.16-3.92,10.02,21.65,3.8,22.87-9.77,2.37-8.71-21.15-3.8-22.87Z" fill="#fff"/>
  <polygon points="278.8 49.34 278.85 54.13 274.96 55.16 274.95 49.24 278.8 49.34" fill="#fff"/>
  <polygon points="271.66 143.23 269.04 143.23 270.69 137.98 271.66 143.23" fill="#fff"/>
  <path d="M240.61,129.59c1.9,4.66.99,7.49-4.45,6.42v-7.24s4.45.82,4.45.82Z" fill="#fff"/>
  <path d="M238.98,49.44c10.09-7.8,12.48,19.78,4.71,22.14-9.4,2.13-8.74-19.03-4.71-22.14Z" fill="#fff"/>
  <path d="M175.48,48.72c10.69-3.47,10.09,21.47,3.13,22.86-9.46,1.9-8.35-21.17-3.13-22.86Z" fill="#fff"/>
  <path d="M72.97,586.42c13.79-1.54,15.38,15.24,4.93,17.43-15.47,3.24-18.95-15.86-4.93-17.43Z" fill="#fff"/>
</svg>