<?xml version="1.0" encoding="UTF-8"?>
<svg id="Camada_1" xmlns="http://www.w3.org/2000/svg" version="1.1" viewBox="0 0 595.28 841.89">
  <!-- Generator: Adobe Illustrator 29.0.0, SVG Export Plug-In . SVG Version: 2.1.0 Build 186)  -->
  <path d="M594.48-.06v840.69S.14,839.97.14,839.97V272.51c1.1-1.01,1.1-4.21,0-5.25v-32.84c1.11-1.43,1.11-5.12,0-6.57V-.06h594.34ZM589.88,3.89H5.06l-.99.99v222.32c2.89-.39,5.33-5.92,5.75-8.37,1.32-7.68-2.81-13.23.3-22.03,2.6-7.33,10.44-11.39,12.65-18.21,1.97-6.06.4-13.34,1.82-19.86,2.86-13.13,16.07-19.8,28.61-20.32,6.05-29.71,43-38.67,64.9-19.72,4.06-1.08,7.4-3.37,11.74-3.8,17.55-1.74,26.95,2.93,38.43,15.41,9.1,9.89,13,21.82,29.9,13.52,5.06.27,3.13,16.35,2.23,19.96-1.52,6.04-5.05,11.28-9.74,15.24,2.03,4.67,2.33,11.2,1.93,16.35-.63,8.24-4.61,12.86-3.24,22.23.87,5.94,4.41,4.98,9.13,7.35,2.25-5.19,2.9-8.66,6.57-13.16,16.31-19.99,46.45-9.71,49.92,14.74,3.5.1,6.71-1.68,10.13-1.98,12.86-1.14,25.9,7.99,25.31,21.71,13.59-1.53,22.5,6.75,26.78,18.86,4.17,11.79-2.82,23.95-10.37,32.68,1.87,1.06,3.45,1.98,4.88,3.67,3.69,4.38,7.35,14.4,6.97,20.01-.82,11.98-10.74,24-21.59,28.64,2.13,11.62,2.64,21.62-5.34,31.12-7.51,8.94-17.56,11.28-28.79,12.26-4.12,21.42-26.98,35.75-48.1,31.11-3.21-.71-6.04-2.56-9.35-2.89-15.69,18.3-42.04,20.73-61.09,5.92-18.88,16.54-47.45,14.19-62.65-5.93-19.54,7.62-43.26-2.08-50.84-21.67-9.24.75-17.32-.31-25.31-5.25-.51-.35-1.53.72-1.53.89v35.47c2,1.84,5.39.72,8.12,1.07,38.74,4.93,65.96,31.46,94.14,55.65,19.55-5.41,37.62-15.89,56.98-22.25,20.07-6.59,29.95-6.98,49.38,1.87,14.93,6.8,28.35,17.21,42.89,24.76,3.25,1.69,12.09,6.78,15.29,6.12l20.84-11.72c-2.44-6.77-9.77-12.84-10.5-20.03-3.52-34.79,32.53-62.13,61.72-72.58-1.57-3.6-5.68-5.04-8.01-8.73-4.6-7.32-3.48-18.29,0-25.87,1.79-3.9,7.99-10.04,8.55-13.18.3-1.72-.52-2.85-.4-4.28.16-1.97,2.18-4.37,1.85-6.68-.29-2.02-2.06-1.8-2.69-2.79-6.23-9.84,10.97-15.89,14.83-21.86,1.34-2.07,5.28-10.05,5.52-12.24.7-6.48-4.43-8.61-1.31-18.35,4.83-15.06,22.83-23.88,37.8-23.94,15.51-.06,61.68,16.9,71.53,28.95l9.92,17.04c28.86-9.87,49.83-33.84,75.82-48.3,10.02-5.58,21.82-10.86,33.51-10.17V3.89ZM182.06,229.82c7.02-5.43,2.39-14.83,3.33-21.95s4.04-9.36,3.22-18.44c-.3-3.33-2.31-7.63-1.84-10.99.53-3.81,4.61-4.83,6.73-7.77,3.89-5.4,5-14.55,4.01-21-.72-1.18-4.4.59-5.94.68-22.33,1.34-24.21-23.87-42.66-30.23-11.35-3.91-21.1-1.78-31.52,3.33-2.99-1.68-4.58-4.36-7.63-6.2-10.58-6.41-26.07-5.91-36.73-.07-10.05,5.5-14.99,14.76-16.44,25.92-14.3-1-24.3,3.56-28.54,17.76-2.21,7.4.44,12.38-1.33,18.38-2.13,7.22-10.43,11.99-12.93,18.59-2.85,7.54,1.48,15.07,0,22.33-1.09,5.33-8.32,11.74-9.41,17.51-1.85,9.77,1.21,21.61.38,31.57,16.39-12.6,36.45-19.1,56.41-23.7-.65-3.53,1.63-8.06,1.26-11.26s-3.73-4.71-5.42-7.11c-3.37-4.8-3.07-11.12-.63-16.31,4.74-10.1,17.78-9.16,23.54-17.18,4.25-5.94,5.74-15.83,6.28-22.95,16.65,1.17,35.71-.5,46.52-14.89,1.09-1.45,4.65-8.69,5.15-8.8,2.9-.61,6.65,4.57,8.82,6.22,9.09,6.91,18.24,8.91,29.41,10.32.35,4.44-.2,8.98.05,13.42.23,4.13,1.22,8.99,1.37,13.08.3,8.08-.92,17.91-.02,25.64.38,3.26,1.88,3.71,2.61,5.93.84,2.56,1.14,5.59,1.99,8.19ZM141.63,154.66c-.49-.43-.71-1.36-1.33-1.62h-1.52c-8.54,17.68-29.86,22.48-47.93,21.7-.94.61-1.86,10.51-2.86,12.6-.45.94-1.54,1.04-1.83,1.6-1.94,3.6-3.88,7.28-5.61,10.99,3.12,10.55,3.17,27.22,13.31,33.71,10.48,6.7,8.88.71,16.84-3.92,2.61-1.52,13.37-6.26,15.96-6.45,2.18-.16,6.05,3.26,8.79,4.24,4.35,1.56,9.6,2.72,13.74-.02,5.1-3.38,1.99-10.6.15-15.19-1.38-3.45-8.16-14.13-7.27-16.86,3.39-4.13,6.68,5.56,7.92,8.32,1.48,3.29,5.62,12.46,6.28,15.4.39,1.76-.25,5.1.47,6.1.49.7,3.27.89,4.47,1.44,3.29,1.51,6.93,5.72,9.59,2.02,4.35-6.06,2.79-8.03,2.7-14.31-.22-15.93.74-31.81-2.01-47.58-10.71-1.79-21.58-4.97-29.85-12.17ZM99.3,240.34c-18.12-4.89-18.2-21.48-21.7-36.43-.66-2.81-3.71-1.5-5.68-.49-3.72,1.91-1.86,2.51-2.23,4.94-2.81,18.36-6.64,43.57.87,61.04,3.28,7.64,10.86,12.7,14.83,19.97,3.1,5.67,3.51,14.09,7.98,18.29,1.97,1.85,13.63,8.57,15.7,6.81.88-8.03,6.68,1.06,9.61,3.34,12,9.37,28.75,8.62,38.76-3.24.77-.91,1.08-2.66,1.58-3.03,1.09-.79,3.69.66,5.95.08,1.13-.29,3.5-1.93,4.53-2.72,9.34-7.17,5.75-15.52,6.71-25.47.7-7.25,4.5-14.73,5.16-21.77,1.13-12.08-1.34-22.87-3.94-34.47-12,5.45,1.83,13.33-2.3,21.01-2.21.46-3.2-5.7-3.93-7.22-2.36-4.89-9.57-11.52-15.19-11.78-3.47-.16-5.03,2.13-7.97,3.06-4.41,1.39-8.66,1.09-12.97-.45-5.08-1.81-4.45-4.87-10.85-3.66-7.41,1.39-18.48,8.64-22,15.43-2.19,4.21-2.16,9.49-6.53,12.5-3.47-5.57,1.56-10.79,3.61-15.74ZM19.51,340.16c-4.4.78-10.79-.57-15.43,0v48.93c5.57,3.86,11.73,7.49,18.75,7.58,2.36.03,8.2-1.71,10.17-.38,4.03,13,20.24,24.7,33.8,24.7,5.27,0,11.06-3.32,16.3-3.89,11.94,16.08,31.66,23.39,50.14,13.15,2.42-1.34,9.58-7.41,11.05-7.4,2.37,0,7.39,5.12,9.97,6.52,13.19,7.12,32.21,5.15,43.24-5.12,1.93-1.8,5.12-7.21,6.81-7.58,1.43-.31,8.45,3.54,11.08,4.11,20.17,4.43,42.86-9.65,43.57-31.29,18.5,2.32,35.39-8.12,35.26-27.98-.02-3.67-3.59-11.53-3.08-13.04.43-1.26,4.85-1.93,6.52-2.7,14.57-6.73,22.97-30.68,10.51-42.74-1.58-1.53-7.55-3.97-7.81-5.32-.44-2.31,5.53-4.99,7.13-6.67,9.78-10.27,7.99-34.24-6.38-40.07-5.38-2.18-9.21-1-14.67-1.1-.74-.46.2-5.62.03-7.25-1.12-10.76-13.76-15.32-23.25-14.06-2.92.39-9.99,4.66-10.55,4.54-1.52-.31-.82-4.21-1.07-5.52-6.06-31.52-47.23-29.04-49.22,2.86-5.19.4-8.66-6.88-14.1-3.91-.36,3.58-4.81,6.91-4.96,10.19-.1,2.08,1.16,3.55,1.3,5.3.33,4.05-.65,10.46,1.08,14.03.91,1.89,9.77,7.72,12.45,10.54,4.47,4.7,9.05,11.06,11.49,17.08,1.04.75,10.7-8.6,12.65-10,6.61-4.74,20.56-12.59,28.75-10.07,2.81.86,4.54,5.3,5.87,5.95,2.75,1.34,7.84-1.12,10.53,3.26.96,1.56.76,3.51,1.65,4.91.94,1.48,4.18,2.47,4.76,4.43.7,2.36-.48,4.25-.36,6.27.1,1.67,1.24,3.34,1.18,5.39-.14,4.63-6.85,10.12-10.59,12.45-2.33,1.46-6.55,2.67-8.2,4.28-2.33,2.29-3.04,7.84-5.64,10.78-1.24,1.4-4.32,2.67-4.83,3.71-1.12,2.31-.04,14.14-.41,17.98-1.52,15.98-12.23,34.94-28.35,39.73-7.58-8.26-17.84-13.35-29.23-9.96-1.84.55-11.95,6.14-12.6,5.45-2.91-16.56-21.97-25.07-37.43-20.69-2.2.62-7.58,4.17-9.43,3.56-2.47-3.88-2.32-8.91-4.44-13.33-5.99-12.45-23.53-20.17-36.84-16.65-3.43.91-9.1,5.5-11.97,5.09-1.8-.26-5.43-5.14-7.28-6.57-10.69-8.33-30.95-6.79-40.39,2.92-2.28,2.34-4.05,6.96-7.53,7.57ZM65.15,207.49c-6.51,3.17-9.99,14-3.61,19.03,2.17-1.92,1.24-5.03,1.79-7.39.9-3.83,2.88-6.98,1.81-11.65ZM589.88,246.9c-25.17.54-43.22,18.43-62.18,32.06-14.43,10.37-29.61,19.78-45.86,27.05-.3,4.96,1.39,9.55.99,14.77-.38,4.86-2.75,10.3-3.19,15.2-1.11,12.25,7.39,21.7.83,34.32-1.4,2.69-5.57,6.42-6.04,9.11-.44,2.52,1.02,4.65,1.18,7.06.57,8.3-.62,14.72-5.25,21.66l30.55-10.17c1.72-6.7,3.29-13.46,4.73-20.23,3.45-16.28,5.44-34.95,9.71-50.71,1.82-6.7,5.89-10.09,13.08-9.13,9.98,1.33,11.08,11.76,8.78,19.83-.48,1.67-1.78,2.77-2.29,4.93-3.84,16.21-4.92,33.16-8.72,49.39,23.89-7.29,36.68-34.11,63.7-34.15v-111ZM42.5,321.11c4.16-.57,10.63,0,15.1,0,.48,0,7.9,3.05,8.89,3.59,3.26,1.74,5.6,4.6,8.88,6.29,4.33-.58,8.29-3.21,12.61-3.79,17.05-2.3,33.71,5.73,40.07,21.98.91,2.32.51,5.04,2.44,6.72,4.77.34,22.67-25.4,25.56-30.24,1.33-2.22,3.1-4.55,3.35-7.16-9.79,10.68-28.49,12.06-40.35,4.21-1.12-.74-5.14-4.68-5.72-4.79-.88-.16-1.82,1.05-3.06,1.05-3.42,0-14.78-4.97-17.75-7.17-9.68-7.18-7.88-18.9-14.9-27.79s-13.29-12.75-15.01-25.71c-.27-2.05.69-8.15-1.16-8.73-1.49-.47-13.53,2.84-15.99,3.56-14.96,4.36-29.76,11.91-41.38,22.33v60.42l.99.99h14.45c3.46-7.42,9.95-10.6,16.8-14.23,1.56-3.03,1.7-20.13,3.32-21.15.63-.4,2.31.04,3.2-.09l-1.31,20.36c.24.33.79-.63.98-.66ZM459.62,400.16c2.15,1.88,4.24,7.3,8.07,4.66,3.51-2.42,5.01-12.91,4.57-16.98-.3-2.76-2.33-6.44-1.79-9.11.81-3.96,8.04-10.22,9.03-17.29,1.05-7.48-3.12-13.08-3.8-20.38-.78-8.32,4.35-17.77,3.84-22.87-.11-1.09-1.49-2.94-1.78-4.8-2.59-16.33-5.09-25.51-20.74-33.77-10.29-5.44-41.94-18.66-52.67-19.58-19.43-1.66-43.32,9.29-38.4,32.17,2.98-4.78,7.55-4.24,12.16-5.89,2.3-.82,11.57-5.01,13-4.56,3.29,5.15,4.22,9.53,8.97,14.06,5.16,4.92,7.96,4.74,13.59,7.43,6.53,3.11-.15,9.22-.94,14.39-2.73,17.95,20.58,19.64,13.99,35.01-1.54,3.58-5.31,6.22-8.88,7.54-5.02,1.85-6.25-.5-7.17,7.28-3.86,32.71,32.91,18.66,48.95,32.67ZM141.66,353.3c2.46.63,10.56,0,13.79,0,1.68,0,13.11,6.63,14.79,8.2,1.9,1.77,6.99,10.57,7.65,10.79,1.69.55,6.21-2.44,8.61-3.04,10.14-2.5,18.96.23,27.29,5.84,1.13.76,2.68,2.86,3.53,3.08,1.13.29,8.96-2.68,4.45-4.5-9.26-3.74-11.56-7.91-15.08-17.1-4.76-12.42-6.45-23.88-7.56-37.1-.19-2.28.12-4.61-.01-6.89-1.53-.33-1.06.2-1.47.84-2.09,3.26-7.08,12.85-8.51,16.42-1.34,3.35-1.67,10.16-3.22,12.54-.99,1.52-3.3,2.24-3.72-.01-.22-1.18,2.66-10.93,3.32-12.86,4.02-11.81,9.31-17.1,15.05-26.98,2.68-4.61,4.36-10.61,6.96-15.36-4.18-8.01-10.17-17.59-17.66-22.81-1.2-.83-4.71-3.86-5.18-1.37-1.47,7.83-3.77,15.76-4.6,23.66-.95,8.96,1.42,16.63-6.57,23.64-2.65,2.32-6.71,3.5-8.84,6.27-3.2,4.16-6.05,12.5-9.29,17.64-3.98,6.32-9.07,12.58-14.4,17.79-.62.35.49,1.27.66,1.31ZM224.11,300.82c3.73-1.23,16.41-5.64,14.99-10.76-1.76-5.78-18.76,1.84-18.94-1.45.48-.42.57-1.23.99-1.63,1.6-1.54,11.02-2.9,14.54-4.5,3.02-1.37,13.34-7.35,15.55-9.4s2.12-4.56-.85-5.53c-6.03-1.98-14.29,2.59-19.52,5.51-26.88,15-30.48,34.13-25.62,63.28,1.12,6.7,3.13,13.11,5.05,19.58,1.23.89,7.22-6.68,8.14-7.94,4.46-6.15,7.87-13.21,11.87-19.65,6.54-3.66,13.03-3.77,17.57-10.67,1.99-3.02,2.89-7.48,5.72-10.04,3.87-3.51,17.12-6.56,16.47-13.75-.09-.98.26-1.15-1-.99-2.85,1.88-18,10.82-20.28,10.36-2.58-.52-1.67-2.51.02-3.69,4.04-2.81,18.99-7.75,20.28-11.89.47-1.52.3-3.09.3-4.64-2.7-2.68-20.25,11.08-24.96,9.85.99-7.37,20.64-9.52,21.02-16.14.2-3.5-4.51-3.24-6.87-2.86-1.85.3-17.78,8.74-18.46,9.79-1.19,1.83,2.42,3.44,2.63,6.49.67,9.5-9.68,9.02-13.08,12.6s-1.3,14.09-10.21,13.1c1.83-5.11,6.18-9.2,4.62-15.03ZM390.21,286.33c-2.35-.45-4.1,1.32-6.19,1.97-3.49,1.09-10.29,1.96-12.88,4.2-4.26,3.68-7.5,17.05-12.44,22.37-3.4,3.67-13.42,7.41-13.77,13.19-.35,5.67,8.33,3.89,11.96,4.39,9.88,1.35,17.86,7.43,25.89,12.2,7.6,4.52,13.89,1.12,19.28-4.8,1.04-1.14,8.21-10.65,8.41-11.33.85-2.85-1.45-3.79-1.83-5.8-1.11-5.82,2.42-9.51,3.15-15.02-8.68-5.2-19.79-10.11-21.6-21.38ZM511.07,449.18c2.14-17.45,6.87-34.5,10.32-51.74,3.89-19.44,10.91-47.1,12-66.15.29-5.13.01-9.71-6.31-10.15-4.79-.33-7.24,2.95-8.6,7.05-3.13,9.43-3.72,24.06-5.64,34.42-5.15,27.8-12.14,55.21-16.74,83.12.09,2.31,3.63,1.25,5.37,1.56,3.35.6,6.27,2.11,9.6,1.88ZM241.15,328.34c-10.97.63-10.79,9.8-15.53,16.9l-12.63,15.09c4.09,9.62,13.01,15.41,20.17,4.35,6.7-10.35,9.49-24.09,7.99-36.33ZM364.62,355.26c-4.51,1.5-9.82-.85-14.04-2.7-1.98-.87-3.93-3.55-6.03-1.95-.48.36-5.51,9.08-6.11,10.33-14.32,30.14,24.74,40.27,46.71,31.6,15.85-6.25,21.45-23.99,26.11-38.91,1.11-3.56,5.16-15.32,4.3-18.1-.48-1.57-1.89-3.11-3.65-2.3-1.57.73-7.9,10.09-10.2,12.17-3.5,3.17-8.34,5.15-13.11,5.29-6.47.19-7.41-3.22-12.23-6.22s-19.99-9.75-25.56-8.63c-4.18.84-4.92,7.25-2.64,10.38,3.38,4.64,13.13,4.57,15.77,6.74.87.72.74,1.26.66,2.28ZM413.88,357.23c7.8-.25,14.37-8.59,8.24-15.13-2.75-2.93-3.47-2.57-4.49.82-1.4,4.7-2.3,9.62-3.75,14.31ZM589.88,361.18c-7.25,1.08-13.71,2.88-20.14,6.46-10.93,6.08-19.65,16.63-30.48,22.72-4.64,2.61-9.8,3.98-14.44,6.57l-9.8,53.24c.17,1.66,4.33,4.62,5.53,6.29,4.3,5.94,3.91,12.69,3.34,19.67,21.53-8.72,42.03-22.8,65.99-23.65v-91.29ZM412.98,391.15c.31-.47.73-.82.75-1.49l-7.72-12.06c-5.01,9.75-14.29,17.21-24.83,20.16-1.55.44-7.78.54-7.35,2.49,5.06,5.98,20.98,7.45,26.96,3.33,1.54-1.06,11.19-10.88,12.19-12.43ZM455.13,401.34c-.17-.28-4.96-2.71-5.8-3.04-9.91-3.98-21.45-3.15-31.71-6.15-6.62,5.49-11.73,12.38-17.27,18.87-3.14,3.67-12.63,10.1-5.76,15.02,5.94-1.02,11.47-4.71,17.39-1.55,2.5,1.34,2.15,4.02,3.48,5.05,1.62,1.24,4.12.05,6.31,2.89,1.34,1.73,1.15,2.93,1.63,4.93,7.26-7.85,12.02-17.49,19.7-24.96.88-.86,2.35-1.11,3.3-1.96,2.52-2.25,4.59-6.53,8.79-7.3.1-.56.23-1.31-.06-1.8ZM396.15,409.12h-12.15c-3.08,0-9.91-3.23-12.18-5.56-1.08-1.11-2.31-3.85-3.11-4.28-2.18-1.19-6.25-.4-8.84-.84-4.4-.75-9.08-3.79-13.51-2.67-28.04,7.11-80.59,52.39-54.31,83.63,10.98,13.05,37.65,19.95,54.19,20.35-7.38-20.48-3.55-43.04,5.25-62.39-6.55.05-13.56-1.79-20-2-4.99-.16-9.55.92-14.47.67-1.46-.07-7.98-.51-7.56-2.28,7.84-4.18,17.79-.69,26.28-1.31,1.54-.79,2.88-10.14,3.73-12.69.35-1.05,3.45-8.36,3.79-8.68.82-.76,3.3-1.42,3,.36l-6.59,21.33c5.4-.56,13.36,2.65,18.41,1.7,4.27-.8,12.06-8.43,16.8-10.81,3.86-1.94,11.91-3.04,14.01-4.38.87-.56,7.76-9.78,7.26-10.15ZM500.57,402.56c-1.35-1.26-26.53,6.46-28.84,10.24l18.76,34.34c1.86.5,2.18-1.11,2.56-2.52,3.58-13.33,3.75-28.61,7.52-42.06ZM485.39,449.11c1.2-1.85-4.87-13.93-6.15-16.35-2.83-5.33-7.68-13.56-11.22-18.33-1.73-2.33-7.02-8.63-9.81-8.62-4.91.01-14.5,11.33-17.66,15.21-8.01,9.81-14.27,21.01-22.65,30.55.09,9.9-7.54,10.5-12.24,16-2.09,2.44-3.52,6.14-5.58,8.87-7.41,9.83-18.17,17.8-27.55,25.63.62.95,1.26.91,2.25,1.02,8.59.94,22.63-.02,31.55-.7,13.42-1.01,26.65-3.68,39.74-6.56.23-2.8-2.37-4.32-3.54-6.64-3.21-6.35-5.95-16.5-7.32-23.55-.7-3.57-3.85-12.89,1.66-12.5,1.8,8.29,2.69,16.34,5.45,24.44,5.5,16.13,17.14,33.13,34.2,37.91l3.55-9.63.19-6.34c-3.86-.81-6.6-7.95-5.24-11.17.86-2.03,3-2.77,2.31-5.02-.63-2.04-5.29-4.44-6.86-6.99-4.02-6.51-1.23-14.59,4.52-18.91,1.16-.87,2.73-.9,3.96-1.95,2.1-1.79,2.5-6.03,6.45-6.37ZM388.75,423.72c-3.29-2.93-17.53,6.65-20.79,8.77-1.26.82-2.13,2.3-3.38,3.18-2.89,2.03-7.93,3.78-10.17,6.25-3.88,4.28-7.87,19.53-8.18,25.35-.26,4.74,2.27,3.73,6.24,3.57,6.99-.27,10.94-.2,17.75,0,10.97.32,32.82-2.9,40.73-11.13.77-.8,3.76-4.32,1.29-4.64-3.85-.49-11.14,4.53-15.26,5.13-1.38.2-2.5.52-3.44-.84.58-.87.77-1.58,1.75-2.18,6.08-3.72,22.2-3.26,21.88-13.26-2.26-2.26-18.59,6.52-22.16,7.07-1.49.23-3.07.62-4.09-.83.67-1.83,2.01-2.16,3.59-2.96,4.72-2.37,22.42-5.93,24.3-9.85.39-.81.65-3.2.24-3.86-2.16-3.52-28.12,9.75-30.12,7.79-.3-1.93.72-2.57,2.16-3.41,2.95-1.71,20.42-6.02,20.79-8.15.14-.85-1.31-2.13-1.99-2.5-6.69-3.66-23.83,7.55-28.4,6.1-5.23-1.66,7.24-4.9,7.8-5.81s.24-3.12-.52-3.79ZM4.08,436.38v279.46l33.21-24.3c.69-1.36-2.08-3.44-3.05-4.21-2.04-1.6-10.17-4.65-10.45-5.98-.7-3.35,7.46.08,8.98.88,2.86,1.5,6.1,5.77,8.05,6.4,1.3.42,1.8.48,2.65-.7-2.21-4.27-6.42-7.48-8.93-11.41-.47-.73-2.38-2.98-.56-3.37s6.61,4.54,7.81,5.97c.83.98,4.05,7.52,5.63,5.86.03-3.61,2.47-16.38,5.87-17.45,1.28-.4,1.81-.48,2.65.7l-5.24,13.46c4.39.59,7.3-3.39,10.71-5.38,46.32-26.93,101.33-29.22,151.51-45.51,1.06-.64-.94-3.6-1.45-4.47-2.12-3.65-6.29-6.74-6.43-10.96,2.77-2.76,11.25,11.41,12.47,13.13,1.42-5.24-.99-16.7,5.91-17.73l-2.62,17.07c3.11.62,4.36-1.32,6.25-3.28,2.09-2.17,8.94-12.2,12.74-9.81,3.15,1.98-7.82,7.29-7.82,9.8,9.56-2.22,18.73-6.02,28.1-8.99,13.82-4.38,31.88-8.07,44.78-13.67,4.47-1.94,6.94-3.18,5.84-8.78-18.56-5.98-32.55-20.34-48.97-30.16-39.68-23.73-87.32-28.3-127.39-50.59-42.75-23.78-74.1-74.94-127.33-76.98-1.2-.05-2.2-.08-2.92,1.01ZM419.79,441.3c1.24.26,1.78-.83,2.61-1.64-.69-.41-2.99,1.35-2.61,1.64ZM482.84,460.35h16.75c1.55,0,7.85,2.58,6.89,5.25-.91.88-20.45-6.17-24.21,1.07-4.74,9.12,9.67,5.42,14.54,6.31,2.19.4,5.04,2.55,7.63,2.55l.08,2.55c-5.46.9-19.66-5.15-23.3.02-5.13,7.29,8.72,6.5,12.94,7.39,2.44.51,7.63,1.21,7.07,4.41-5.22,1.04-18.86-4.96-22.83-1.16s5.37,8.75,7.93,9.83c23.45,9.89,32.58.55,33.98-23.42.65-11.21-.36-18.45-11.67-22.54-7.78-2.81-28.23-5.42-25.79,7.73ZM589.88,455.1c-23.79,2.53-44.9,15.82-66.16,25.78-.92,6.02-3.7,11.51-5.38,17.28-2.69,9.24-2.01,19.13-11.65,24.47-2.06,1.15-7.96,2.37-8.63,3.85l-5.38,28.11c-.05.99,4.62-.46,5.25-.67,8.55-2.85,17.53-7.92,26.12-11.31,21.08-8.33,43.26-16.23,65.84-19.21v-68.31ZM479.55,460.36c-7.73-.72-10.03,15.2-3.56,16.42,4.15.78.88-6.64,1.09-8.72.25-2.53,3.4-4.63,2.48-7.69ZM266.11,500.42c-32.83-10.99-61.3-47.3-99.01-32.37l-55.97,22.51c-.23,1.15.6,1.62,1.3,2.3,14.27,13.8,40.04,26.06,58.76,32.53,6.95,2.4,25.85,8.74,32.3,8.95,4.12.13,24.62-10.82,29.57-13.46,8.95-4.77,24.34-12.67,31.96-18.61.73-.57,1.36-.65,1.09-1.85ZM399.43,470.21c-11.08,3.13-21.29,4.51-32.87,4.23-1.64,3.64-1.29,7.96-4.02,11.09l-6.45,15.55c11.86,2.48,21.28-6.24,29.24-13.78l14.11-17.08ZM346.24,475.13v15.11c0,1,4.19,6.85,3.95,8.87,1.86,1.39,6.3-7.95,6.87-9.22,2.3-5.14,3.66-10.6,4.96-16.06l-14.13.32-1.64.98ZM331.04,501.82c-9.17-2.23-19.05-4.69-27.52-8.93-2.7-1.35-5.66-4.92-8.67-4.16-25.92,14.57-51.24,31.38-78.2,43.99-2.4,1.12-5.29,1.18-7,3.49,9.88,4.09,20.19,7.03,29.98,11.38s20.43,10.14,29.45,15.86c13.93,8.83,26.2,20.8,41.99,26.28l19.97-87.91ZM445.24,499.23c-6.36.84-14.32,3.9-21.37,4.95-15.39,2.29-30.92,2.32-46.47,2.18l-42.05-3.78c-6.31,7.48,8.85,10.72,14.02,12.1,25.13,6.74,66.01,7.18,90.63-1.6,4.2-1.5,7.48-2.13,8.02-7.08.34-3.09.98-7.27-2.78-6.77ZM497.92,506.38c-.42-.57-12.53-4.59-13.5-4.64-1.32-.06-1.17.76-1.4,1.8-1.18,5.26-1.41,11.39-2.34,16.73-12.22,69.57-27.17,138.75-41.78,207.82-1.19,5.58,5.08,9.06,9.96,7.98,3.48-.77,4.68-5.36,5.43-8.37,9.07-36.31,15.82-75.34,23.08-112.21,7.16-36.31,13.94-72.7,20.53-109.11ZM513.7,503.04c-3.71,2.89-7.92,2.59-11.86,4.23l-2.6,13.85c9.78.31,10.36-8.06,12.82-14.8.47-1.28,1.77-1.88,1.64-3.28ZM468.24,563.97l7.94-43.38c-.55-2.07-7.65-4.17-9.78-5.38-5.01-2.84-10.59-7.07-14.1-11.5-3.28,4.69-.45,7.43.52,11.29,1.19,4.75,1.14,9.82,3.57,14.16l4.2,37.18c.28.67.42.96,1.27.82.45-.08,6.16-2.89,6.37-3.18ZM348.86,617.32c-3.37,2.47-2.67-10.99-2.61-12.14.73-15.31,4.39-28.34,7.03-42.88,1.65-9.07,2.33-18.31,4.21-27.32.74-3.55,3.63-10.57,3.75-13.37.03-.61.03-.8-.53-1.17l-28.32-7.18c-5.65,23.63-11.93,47.09-16.15,71.08-3.35,18.99-7.55,42.53-8.72,61.55-.13,2.15-.38,10.04.32,11.49,12.33,7.55,27.91,10.87,42.15,13.02,21.64,3.27,45.68,4.34,67.53,2.73,3.81-.28,28.12-2.96,29.56-4.59,4.01-12.79,4.74-26.45,7.84-39.44.49-2.03,2-3.86,2.69-6.51,5.2-20.08-.13-55.95-2.98-77.19-1.44-10.72-3.59-21.31-5.91-31.86-26.51,10.39-55.26,10.46-83.31,7.98-2.57,12.02-6.31,23.75-8.45,35.88-3.48,19.82-4.15,40.21-8.07,59.91ZM589.88,526.69c-28.22,4.56-56.54,15.3-82.73,26.62-2.54,1.1-14.67,5.91-15.45,7.53-6.27,21.99-8.68,44.72-13,67.13-4.05,20.99-9.38,41.75-13.43,62.75-1.87,9.69-4.43,38.83-9.79,45.3-3.79,4.57-10.3,4.22-15.14,1.62-1.16-.63-3.61-3.13-4.47-3.18-1.15-.07-13.68,5.47-17.25,6.15-14.1,2.67-53.94,5.15-45.8-19.53,1.21-3.68,4.16-6.28,6.9-8.87,5.84-5.52,15.91-11.9,20.8-17.62,1.63-1.92,2.72-6.23,2.78-8.72.02-.79-.55-6.59-.69-7.04-.92-2.83-11.14-1.55-14.04-1.72-3.39-.2-22.41-2.52-23.66-.73-1.22,5.2.67,10.39,1.02,15.48.18,2.61-.09,5.25.02,7.87.22,5.33,2.15,14.61-2.31,18.72-6.07,5.59-29.01,10.77-37.51,11.74-13.51,1.55-55.01,2.8-46.9-20.64,3.96-11.46,30.83-18.76,41.19-25.14,7.14-4.4,4.29-7.62,5.17-15.22-7.62-4.03-17.95-4.95-23.36-12.18,1.57-7.35.91-15.6,2.06-22.88.44-2.75,1.8-4.43,2.38-6.81,1.7-7.03,1.38-15.88,2.8-23.14-5.75,1.91-11.7,3.35-17.48,5.15-31.05,9.65-63.07,21.56-94.81,29.99-34.38,9.14-70.71,12.4-103.95,25.43s-61.46,35.39-89.14,57.32v113.62l.99.99h584.82v-310ZM466.41,570.04l-5.19,2.41,1.26,14.01c1.21-.21,1.1-1.35,1.39-2.21.6-1.75,3.15-13.56,2.54-14.2ZM360.68,675.13l-29.91-5.09c-1.69.3-.6,9.14-1.57,11.23.23.69,6.19,2.52,7.85,3.36,6.9,3.49,11.73,10.33,17.39,15.43.59,0,6.54-8.66,6.76-9.65.8-3.65-1.55-11.03-.53-15.29ZM442.78,673.81v13.14l2.49-4.41,1.46-9.37-3.94.65ZM438.83,673.81l-32.84,3.6c-1.81,1.55.04,10.09.1,12.72,12.71,1.31,23.84,4.08,33.73,12.56,2.64.04-.84-11.32-.98-12.8-.49-5.13.35-10.88,0-16.08ZM339.06,717.11c6.58,1.44,11.42-6.13,12.32-11.62.4-2.44-3.51-7.79-5.16-9.66-4.75-5.4-15.36-11.64-22.68-9.57-1.03.29-10.41,4.49-8.83,5.94,12.26,1.91,21.86,13.06,24.34,24.91ZM334.99,718.39c.17-10.42-15.3-24.31-25.21-24.08-3.32.08-6.26,2.71-9.51,3.16-.25,1.17.34,1.3,1.08,1.86,2.31,1.75,5.61,2.76,8.04,5.1,4.65,4.46,5.63,10.28,8.6,15.7l17-1.73ZM435.36,722.21c1.96-2.11,4.05-11.55,3.31-14.42-1.77-6.88-23.21-13.71-29.71-13.67-5.15.03-6.9,3.03-10.18,6.3-.29,1.48.64.83,1.54,1.07,11.54,2.97,19.81,1.78,28.35,11.73,2.14,2.49,5.34,6.49,4.92,9.86.06.08,1.57-.63,1.77-.85ZM362,696.8c-1.58-.35-1.06.26-1.47.86-1.69,2.48-7.38,11.5-7.74,13.92-.13.86.06,1.33.98.98,2.28-.86,5.83-3.72,8.22-4.92v-10.84ZM313.4,721.09c-.51-9.62-12.83-23.14-22.8-18.52-2.2,1.02-6.54,4.95-7.13,7.36-.35,1.4-.42,4.36,1.68,3.94-.19-1.89,5.52-10.28,7.23-8.53.87,1.6-7.7,14.56-1.64,12.47.69-.24,4.76-11.19,9.84-9.85,1.06.22.81.95.47,1.76-.87,2.04-7.36,6.5-5.76,8.79,1.07,1.53,17.36,3.34,18.11,2.59ZM425.47,714.76c-5.97-6.35-22.41-10.99-30.81-9.28-1.28.26-6.63,3.82-7.04,4.78-.58,1.38.97.86,1.61.99,9.02,1.92,20.12,2.99,27.3,9.49,3.59,3.25,5.73,11.03,12.07,6.19,3.56-2.72-.84-9.75-3.13-12.18ZM281.88,717.16c-.35,1.88,1.15,2.87,2.31,3.92,11.96,10.78,47.95,5.94,62.54,1.51,1.96-.59,17.24-6,14.6-9.37-19.24,8.94-44.02,14.18-65.03,9.55-5.62-1.24-9.13-4.22-14.42-5.6ZM418.48,730.29c-2.47-10.55-26.98-18.08-35.5-15.46-3.84,1.18-10.09,10.95-3.72,13.66,5.49,2.34,2.53-9.43,9.01-8.04l-2.67,9.45,6.61,1.06c-.81-2.07,1.64-10.1,3.62-10.51,3.9-.8-1.73,8.7-.26,10.44l5.89.44c1.28-.92-.02-8.28,4.22-8.26l-.32,8.54,13.14-1.32ZM377.11,730.95c-.29,1.7.82,2.62,1.95,3.63,7.95,7.03,36.71,3.76,46.61.62,3.95-1.25,10.64-3.11,9.87-8.18-18.32,9.94-38.85,10.61-58.44,3.94Z"/>
  <polygon points="594.48 -.06 595.14 -.06 595.14 841.94 .14 841.94 .14 839.97 594.48 840.63 594.48 -.06" fill="#fff"/>
  <path d="M.14,234.42v-6.57c1.11,1.45,1.11,5.14,0,6.57Z" fill="#fff"/>
  <path d="M.14,272.51v-5.25c1.1,1.04,1.1,4.24,0,5.25Z" fill="#fff"/>
  <path d="M589.88,526.69v310H5.06l-.99-.99v-113.62c27.68-21.92,55.88-44.27,89.14-57.32s69.56-16.29,103.95-25.43c31.74-8.44,63.76-20.34,94.81-29.99,5.78-1.8,11.73-3.24,17.48-5.15-1.41,7.26-1.1,16.11-2.8,23.14-.58,2.39-1.94,4.06-2.38,6.81-1.15,7.28-.49,15.53-2.06,22.88,5.42,7.24,15.74,8.15,23.36,12.18-.88,7.6,1.97,10.82-5.17,15.22-10.36,6.38-37.22,13.68-41.19,25.14-8.1,23.43,33.39,22.19,46.9,20.64,8.5-.98,31.44-6.15,37.51-11.74,4.46-4.11,2.53-13.39,2.31-18.72-.11-2.62.16-5.26-.02-7.87-.34-5.1-2.24-10.29-1.02-15.48,1.25-1.79,20.26.53,23.66.73,2.9.17,13.13-1.11,14.04,1.72.15.45.71,6.25.69,7.04-.06,2.49-1.15,6.8-2.78,8.72-4.89,5.73-14.96,12.1-20.8,17.62-2.74,2.59-5.68,5.18-6.9,8.87-8.14,24.69,31.7,22.2,45.8,19.53,3.58-.68,16.1-6.22,17.25-6.15.86.05,3.3,2.55,4.47,3.18,4.83,2.6,11.35,2.95,15.14-1.62,5.36-6.48,7.93-35.62,9.79-45.3,4.05-21,9.39-41.77,13.43-62.75,4.32-22.4,6.73-45.14,13-67.13.79-1.62,12.91-6.43,15.45-7.53,26.19-11.33,54.5-22.07,82.73-26.62ZM551.13,573.32c-8.34-.67-6.61,13.44-7.22,19.05h2.62c-1.49-7.53,2.99-12.18,4.6-19.05ZM542.6,594.99c2.02-1.93-6.44-15.96-10.81-15.1-4.06.8,4.16,6.76,4.55,7.24,1.24,1.54,3.72,10.28,6.26,7.86ZM561.64,580.55c-3.33.36-5.83,2.43-7.86,4.94-.93,1.15-5.47,8.28-2.96,8.85s3.55-4.51,4.92-6.23c2.02-2.54,6.17-3.51,5.91-7.55ZM533.4,627.84c-3.3-.11-4.81,3.65-6.02,6.12-2.42,4.97-3.76,9.96-3.17,15.54.84-.19,2.97-.36,3.29-1.12.9-2.17.91-6.83,1.61-9.41,1.17-4.27,4.02-6.96,4.29-11.14ZM509.45,629.15c-1.09.16-.77.96-.45,1.74,1.16,2.85,4.57,5.44,5.93,7.88,1.05,1.88,3.56,12.49,5.67,12.05,2.82-.59-1.87-12.41-2.83-14.23-1.2-2.26-5.55-7.85-8.31-7.44ZM543.25,635.72c-5.73,1.86-13.72,8.41-11.81,15.1,2.4-1.51,3.01-4.53,4.89-6.59,2.16-2.36,6.72-4.38,6.92-8.51ZM266.77,646.88c-2.91-2.83-8.49,8.36-8.54,10.5-3.48-2.77-7.21-13.53-12.46-8.21,7.39,3.03,7.05,9.17,10.33,14.6,1.06,1.76,4.13-.47,4.75-1.64.86-1.63.44-4.23.98-6.07.57-1.95,5.87-8.27,4.94-9.17ZM263.5,664.59c.08.11,2.18.82,2.63.42.79-1.63,1.1-2.84,2.26-4.35,1.58-2.05,7.8-4.53,7.57-5.56-1.43-6.29-14.67,6.52-12.46,9.49ZM251.01,665.27c.54-3.38-1.52-5.59-4-7.49-1.21-.93-7.92-4.96-8.46-2.03-.27,1.46,3.78,2.69,4.91,3.62s6.29,7.23,7.55,5.9ZM177.45,673.81c-9.43,1.5-18.87,15.23-19.55,24.17-.19,2.53.78,7.37,3.01,3.61,1.05-1.77,1.64-7.57,2.74-10.4,1.27-3.26,4.35-7.8,6.88-10.2,2.34-2.22,6.91-3.46,6.92-7.19ZM155.12,702.05c-1.79-9.6-7.01-19.17-15.97-23.76-2.4-1.23-7.34-3.8-7.01.77,8.06,1.85,13.93,8.71,17.2,15.98,1.44,3.2.87,8.1,5.78,7.02ZM182.71,686.95c-7.94-.07-16.19,6.9-19.04,14.1.52.58.77,1.03,1.65,1.02,2.05-.01,6.7-7.74,9.57-9.5s8.03-1.86,7.83-5.62ZM147.9,702.05c2.96-5.78-12.7-16.34-15.09-11.48l7.23,4.57c.96,1.06,6.49,8.28,7.86,6.91ZM556.39,692.86c-2.75-2.65-10.94,9.66-12.16,11.81-3.98,7.03-6.3,15.6-6.22,23.66l2.96-.65c1.6-5.91,1.79-11.82,4.14-17.54,2.05-4.99,7.06-10.12,10.33-14.63.65-.9,1.25-1.32.95-2.65ZM514.36,698.11c3.95,7.91,11.14,10.86,13.97,19.84.65,2.06,1.65,11.99,4.73,11.02,3.76-1.19-2.85-16.66-4.39-19.24-1.39-2.32-11.75-13.96-14.31-11.62ZM234.58,721.09c1.69-1.23.87-20.3-5.24-19.7.03,3.6,2.1,6.74,2.55,10.25.4,3.15-1.44,8.91,2.69,9.45ZM247.07,705.34c-1.52-1.29-5.99,4.8-6.68,6.13-.73,1.41-3.94,9.1-1.52,9.63,1.78.39,3.83-7.2,4.81-8.97s4.92-5.48,3.39-6.79ZM564.07,711.71c.51-.66,1.37-2.41.54-3.08-8.81,2.66-17.84,11.42-20.04,20.35,5.37-.27,6.67-6.64,9.83-10.19,2.66-2.99,8.19-5.16,9.66-7.08ZM217.52,709.93c-.3,2.95,2.9,3.76,4.61,5.56,1.6,1.68,3.11,4.38,4.89,5.61.89.62,1,1.19,1.99,0,2.26-3.4-7.89-11.46-11.5-11.17ZM523.72,728.15c1.03,1,3.6,1.31,4.41-.15-1.89-5.28-6.04-9.88-10.69-12.94-2.19-1.44-10.16-6.1-10.31-1.19,5.35,2.13,10.59,4.45,14.08,9.25.95,1.31,1.79,4.35,2.51,5.04ZM72.37,753.94c1.4-5.71.39-12.68-.96-18.41s-4.02-13.59-10.86-13.77c.02,2.71,2.95,4.04,4.22,5.95,4,5.98,4.19,24.63,5.41,25.61.32.26,1.91.8,2.18.62ZM95.93,734.81c.5-.89-.03-1.98-.88-2.52-9.3,3.05-17.56,11.09-18.72,20.98,4.28.56,5.59-5.54,7.6-8.48,1.04-1.52,1.85-2.73,3.21-4.01,1.45-1.36,8.53-5.51,8.79-5.98ZM63.18,753.93c-.49-9.94-10.85-18.92-20.35-20.36-1.79,1.95,7.37,6.69,8.84,7.9,1.25,1.03,3.32,3,4.29,4.25,1.17,1.5,4.89,10.52,7.22,8.21ZM528.82,820.93c.25.16,1.62.09,2-.29,1.74-1.29-1.06-13.48-1.97-15.83-1.46-3.75-3.93-6.5-7.59-8.16-.96.77-1.04.82-.71,2,.65,2.3,4.44,5.59,5.47,8.34.82,2.17,2.21,13.56,2.8,13.95ZM67.59,801.33c-1.32.19-4.22,3.05-5.06,4.16-1.45,1.92-7.79,14.98-4.26,16.08,1.3.21,1.56-.06,2.17-1.1,1.16-1.97,1.3-6.66,2.85-9.63.94-1.79,6.35-7.49,6.46-7.99.27-1.25-1.1-1.68-2.16-1.53ZM547.19,801.88c-6.28.67-13.28,10.05-14.18,15.76-.44,2.76,1.2,4.86,3.37,2.65,1.15-1.17,2.79-7.72,4.36-10.09.86-1.29,7.62-7.15,6.45-8.32ZM53.33,822.24c.48-4.31-.02-5.73-2.61-8.88-3.24-3.93-8.36-8.85-13.81-8.19,1.61,4.33,5.96,4.46,8.88,7.86.64.75,6.16,10.79,7.53,9.21ZM522.89,821.58c.41-7.47-5.16-17.51-13.78-15.75,1.35,3.4,5.63,3.69,7.88,6.89,2.17,3.08,1.7,8.57,5.9,8.87ZM305.9,815.42c.75-1.54,1.42-3.19,2.23-4.69.58-1.08,4.16-4.25,1.63-4.9-5.26-1.36-11.51,14.93-7.51,19.04,2.65,1.99,2.5-8.13,2.63-8.74.11-.51.94-.53,1.02-.71ZM81.54,811.69c.21-.32.13-1.56-.27-1.96-1.22-1.71-7.47,1.14-9.11,2.12-3.13,1.85-6.94,5.76-6.35,9.73,1.1,1.19,6.76-6.21,8.3-7.13,1.22-.72,7.2-2.41,7.42-2.76ZM288.58,812.94c.17.29,4.02,2.95,5.1,4.4,1.55,2.07,3.56,8.93,5.6,8.83,2.61-.13-1.36-8.84-2.31-10.16-1.06-1.49-4.78-4.9-6.5-5.25-1.51-.3-2.77.67-1.89,2.18ZM553.08,814.98c0-7.51-15.16,4.1-13.1,5.94,4.65-.56,8.15-5.06,13.1-5.94ZM320.62,813.71c-4.01-3.51-13.95,7.3-12.84,9.83l1.98,1.32c.88-.21,2.89-4.85,3.93-5.94,1.21-1.27,7.98-3.78,6.93-5.21Z" fill="#fff"/>
  <path d="M589.88,3.89v239.73c-11.69-.69-23.48,4.59-33.51,10.17-25.99,14.46-46.96,38.43-75.82,48.3l-9.92-17.04c-9.84-12.05-56.02-29.01-71.53-28.95-14.96.06-32.96,8.87-37.8,23.94-3.12,9.74,2,11.87,1.31,18.35-.24,2.19-4.18,10.17-5.52,12.24-3.86,5.97-21.06,12.02-14.83,21.86.63.99,2.4.76,2.69,2.79.33,2.31-1.69,4.71-1.85,6.68-.12,1.43.71,2.56.4,4.28-.56,3.14-6.76,9.28-8.55,13.18-3.48,7.58-4.6,18.55,0,25.87,2.32,3.69,6.43,5.13,8.01,8.73-29.19,10.44-65.24,37.78-61.72,72.58.73,7.18,8.06,13.26,10.5,20.03l-20.84,11.72c-3.21.67-12.04-4.43-15.29-6.12-14.53-7.55-27.96-17.96-42.89-24.76-19.43-8.85-29.32-8.46-49.38-1.87-19.36,6.36-37.43,16.84-56.98,22.25-28.18-24.19-55.41-50.72-94.14-55.65-2.73-.35-6.12.77-8.12-1.07v-35.47c0-.17,1.01-1.24,1.53-.89,8,4.94,16.07,6,25.31,5.25,7.59,19.59,31.31,29.29,50.84,21.67,15.2,20.13,43.77,22.48,62.65,5.93,19.05,14.81,45.4,12.38,61.09-5.92,3.31.33,6.14,2.19,9.35,2.89,21.12,4.64,43.98-9.69,48.1-31.11,11.22-.97,21.28-3.32,28.79-12.26,7.98-9.49,7.47-19.49,5.34-31.12,10.86-4.64,20.78-16.66,21.59-28.64.38-5.61-3.27-15.63-6.97-20.01-1.43-1.7-3.02-2.61-4.88-3.67,7.55-8.74,14.53-20.89,10.37-32.68-4.28-12.11-13.2-20.39-26.78-18.86.59-13.72-12.44-22.85-25.31-21.71-3.42.3-6.62,2.08-10.13,1.98-3.47-24.44-33.61-34.73-49.92-14.74-3.68,4.51-4.32,7.97-6.57,13.16-4.73-2.37-8.26-1.4-9.13-7.35-1.38-9.37,2.6-13.99,3.24-22.23.39-5.15.1-11.68-1.93-16.35,4.7-3.96,8.23-9.2,9.74-15.24.9-3.6,2.83-19.69-2.23-19.96-16.9,8.3-20.79-3.62-29.9-13.52-11.48-12.48-20.88-17.15-38.43-15.41-4.35.43-7.68,2.72-11.74,3.8-21.9-18.95-58.84-9.99-64.9,19.72-12.54.52-25.74,7.19-28.61,20.32-1.42,6.51.15,13.79-1.82,19.86-2.21,6.83-10.06,10.89-12.65,18.21-3.12,8.8,1.01,14.35-.3,22.03-.42,2.45-2.86,7.98-5.75,8.37V4.87l.99-.99h584.82ZM519.38,80.5c13.72-13.27,14.52-61.43-8.63-67.41l-426.24-.02c-17.76,5.78-18.58,29.34-17.38,45,.84,10.99,6.8,26.23,19.38,27.25l422.29.03c3.8-.11,7.9-2.26,10.58-4.86ZM538.67,115.54c-4.6-28.74-47.76-30.66-53.21-1.31-12.38-4.16-23.94.21-26.89,13.49-2.33.81-4.24-.35-6.72-.21-7.03.42-14.29,5.76-16.45,12.51-3.94,12.35,3.83,9.21,12.29,9.68,24.48,1.36,48.49-.27,72.88-.69,16.08-.28,34.25,1.29,49.96.05,5.16-.41,6.75-.76,7.47-6.32,2.72-21.08-20.07-38.36-39.34-27.2ZM290.09,172.02c3.63-.61,8.66.44,12.48,0,2.92-2.09-2.4-3.52-4.1-3.78-8.75-1.33-20.94,3.65-24.16,12.34-3.38-1.11-5.49-3.9-9.06-5.4-6.7-2.81-17.42-2.97-22.76,2.41.05,2.89,10.69-.97,12.79-.98,1.68,0,7.31.98,8.86,1.63,3.42,1.44,8.47,9.27,10.78,8.91.5-.08,3.47-7.24,4.96-8.93,1.74-1.99,7.73-5.81,10.2-6.22ZM443.68,201.34c-1.65-2.33-2.52-4.06-4.9-5.94-14.92-11.81-41.71-6.36-47.85,12.48-11.61-3.41-23.43,0-26.38,12.67-7.61-.09-13.44-.5-19.84,4.13-4.37,3.16-9.44,10.36-5.7,15.32,39.62-.07,79.57,1.2,119.23.36,1.87-.04,3.46-.67,5.2-.71,4.6-.13,16.14.93,19.6-.1,5.47-1.64,1.07-16.5-1.1-20.32-6.74-11.88-22.08-18.85-34.55-11.08-.05-3.33-2.3-4.82-3.7-6.8Z" fill="#fff"/>
  <path d="M4.08,436.38c.72-1.09,1.72-1.06,2.92-1.01,53.22,2.04,84.58,53.2,127.33,76.98,40.07,22.29,87.71,26.85,127.39,50.59,16.43,9.82,30.41,24.19,48.97,30.16,1.1,5.6-1.37,6.84-5.84,8.78-12.9,5.6-30.96,9.29-44.78,13.67-9.37,2.97-18.54,6.78-28.1,8.99,0-2.5,10.98-7.81,7.82-9.8-3.8-2.39-10.65,7.64-12.74,9.81-1.89,1.96-3.13,3.9-6.25,3.28l2.62-17.07c-6.9,1.03-4.5,12.49-5.91,17.73-1.22-1.72-9.69-15.89-12.47-13.13.15,4.22,4.31,7.31,6.43,10.96.51.87,2.51,3.83,1.45,4.47-50.18,16.29-105.2,18.59-151.51,45.51-3.41,1.98-6.32,5.96-10.71,5.38l5.24-13.46c-.84-1.18-1.37-1.1-2.65-.7-3.41,1.07-5.85,13.85-5.87,17.45-1.58,1.67-4.8-4.87-5.63-5.86-1.2-1.42-6-6.35-7.81-5.97s.1,2.64.56,3.37c2.52,3.93,6.72,7.14,8.93,11.41-.85,1.18-1.35,1.12-2.65.7-1.95-.63-5.19-4.9-8.05-6.4-1.52-.8-9.68-4.23-8.98-.88.28,1.32,8.41,4.38,10.45,5.98.97.76,3.74,2.85,3.05,4.21l-33.21,24.3v-279.46ZM43.48,545.08c.25-3.54-.22-18.69-2.65-20.67-.57-.47-1.84-.55-2.59-1.01l1.4,20.6c.49,1.51,2.58,1.06,3.85,1.08ZM34.94,546.39c-.26-7.12-7.7-15.75-15.1-15.76-.15,1.01,0,1.53.61,2.34,1.46,1.93,6.57,4.57,8.92,7.5,1.81,2.26,2.23,6.22,5.56,5.92ZM50.94,538.73c1.02-1.52,4.15-3.75,5.3-5.52.74-1.13,1.48-1.61.04-2.58-6.18,2.27-10.47,8.51-10.16,15.1,3.37.36,3.1-4.43,4.82-7ZM141.9,579.79c2.04-1.24-1.92-15.3-3.54-17.61-1.33-1.91-4.61-4.03-4.24-.38.11,1.04,2.48,4.34,3.1,6.12,1.34,3.85,1.35,7.96,2.22,11.9l2.46-.02ZM156.44,564.78c-6.52,1.66-11.24,9.18-10.5,15.76,3.51-.66,3.69-5.48,5.36-8.1s5.65-4.08,5.14-7.66ZM134.76,581.86c1.92-1.9-6.54-12.7-9.15-13.5-1.52-.47-3.08-.31-4.63-.29,1.84,2.88,5.16,4.21,7.22,6.89s2.6,7.58,6.57,6.89ZM55.3,621.26v-15.43c0-.87-2.24-7.35-3-8.17-1.06-1.15-2.6-2.01-3.55-.34,1.76,7.73,5,16.04,3.92,23.94h2.62ZM72.37,602.88c-5.17-.55-17.16,16.83-14.44,19.7,3.78.09,4.02-5.17,6.01-8.1,1.13-1.66,3.55-4.69,4.86-6.3s4.36-1.95,3.56-5.3ZM39.31,609.68c-1.3-1.3-9.65-6.79-10.93-5.49-.09.09-.08,1.77.08,2.21.36,1.04,3.97,1.79,5.44,3.09,1.16,1.03,4.93,5.25,5.91,6.57,2,2.7,2.37,5.6,4.66,7.81,4.3.06-3.89-12.93-5.16-14.2Z" fill="#fff"/>
  <path d="M19.51,340.16c3.49-.62,5.26-5.23,7.53-7.57,9.44-9.71,29.7-11.25,40.39-2.92,1.84,1.44,5.48,6.31,7.28,6.57,2.87.41,8.54-4.19,11.97-5.09,13.31-3.52,30.86,4.19,36.84,16.65,2.12,4.42,1.97,9.45,4.44,13.33,1.85.61,7.23-2.93,9.43-3.56,15.46-4.38,34.52,4.12,37.43,20.69.66.69,10.76-4.91,12.6-5.45,11.4-3.38,21.65,1.7,29.23,9.96,16.12-4.78,26.82-23.75,28.35-39.73.37-3.85-.72-15.67.41-17.98.51-1.04,3.59-2.31,4.83-3.71,2.6-2.94,3.31-8.48,5.64-10.78,1.65-1.62,5.87-2.83,8.2-4.28,3.73-2.33,10.45-7.81,10.59-12.45.06-2.05-1.08-3.73-1.18-5.39-.12-2.02,1.06-3.91.36-6.27-.58-1.96-3.81-2.95-4.76-4.43-.89-1.4-.69-3.35-1.65-4.91-2.69-4.38-7.78-1.92-10.53-3.26-1.33-.65-3.06-5.09-5.87-5.95-8.19-2.52-22.14,5.33-28.75,10.07-1.95,1.4-11.61,10.75-12.65,10-2.44-6.02-7.02-12.38-11.49-17.08-2.68-2.82-11.54-8.65-12.45-10.54-1.72-3.57-.74-9.98-1.08-14.03-.14-1.74-1.4-3.22-1.3-5.3.15-3.28,4.6-6.61,4.96-10.19,5.43-2.97,8.91,4.31,14.1,3.91,1.98-31.9,43.16-34.38,49.22-2.86.25,1.31-.46,5.21,1.07,5.52.56.12,7.63-4.16,10.55-4.54,9.5-1.26,22.13,3.3,23.25,14.06.17,1.63-.77,6.79-.03,7.25,5.46.1,9.3-1.08,14.67,1.1,14.37,5.83,16.16,29.79,6.38,40.07-1.6,1.68-7.58,4.36-7.13,6.67.26,1.35,6.23,3.79,7.81,5.32,12.46,12.06,4.06,36-10.51,42.74-1.67.77-6.09,1.44-6.52,2.7-.52,1.51,3.05,9.37,3.08,13.04.13,19.86-16.75,30.3-35.26,27.98-.71,21.64-23.4,35.72-43.57,31.29-2.63-.58-9.65-4.43-11.08-4.11-1.69.37-4.87,5.78-6.81,7.58-11.03,10.27-30.05,12.24-43.24,5.12-2.58-1.39-7.6-6.51-9.97-6.52-1.47,0-8.63,6.06-11.05,7.4-18.48,10.24-38.21,2.92-50.14-13.15-5.24.57-11.03,3.89-16.3,3.89-13.56,0-29.76-11.7-33.8-24.7-1.97-1.33-7.81.41-10.17.38-7.02-.09-13.18-3.71-18.75-7.58v-48.93c4.65-.57,11.03.78,15.43,0Z" fill="#fff"/>
  <path d="M348.86,617.32c3.92-19.7,4.59-40.09,8.07-59.91,2.13-12.13,5.88-23.87,8.45-35.88,28.05,2.49,56.8,2.42,83.31-7.98,2.32,10.55,4.47,21.14,5.91,31.86,2.85,21.23,8.18,57.11,2.98,77.19-.69,2.65-2.2,4.48-2.69,6.51-3.11,12.99-3.83,26.66-7.84,39.44-1.44,1.63-25.75,4.31-29.56,4.59-21.85,1.61-45.89.54-67.53-2.73-14.23-2.15-29.82-5.48-42.15-13.02-.7-1.44-.45-9.34-.32-11.49,1.17-19.02,5.38-42.57,8.72-61.55,4.23-23.99,10.51-47.45,16.15-71.08l28.32,7.18c.56.37.56.56.53,1.17-.12,2.79-3.01,9.82-3.75,13.37-1.88,9.01-2.55,18.26-4.21,27.32-2.65,14.55-6.3,27.57-7.03,42.88-.06,1.15-.76,14.61,2.61,12.14ZM386.79,578.09c-1.05-1.28-3.13-.74-3.65.95-.37,1.23.34,7.32.6,8.98,2.25,14.62,11.72,37.79,20.67,49.6,1.3,1.71,7.88,9.22,9.4,9.6.71.18,1.34-.38,2.04-.35-.6-4.63-5.41-7.13-8.22-10.5-8.87-10.62-15.47-30.48-18.41-43.98-.56-2.56-1.41-13.07-2.43-14.31Z" fill="#fff"/>
  <path d="M182.06,229.82c-.86-2.61-1.15-5.64-1.99-8.19-.73-2.22-2.23-2.67-2.61-5.93-.9-7.73.32-17.56.02-25.64-.15-4.1-1.13-8.96-1.37-13.08-.25-4.44.31-8.98-.05-13.42-11.18-1.41-20.32-3.41-29.41-10.32-2.17-1.65-5.92-6.83-8.82-6.22-.5.1-4.06,7.35-5.15,8.8-10.81,14.39-29.86,16.05-46.52,14.89-.54,7.12-2.03,17.01-6.28,22.95-5.75,8.03-18.8,7.09-23.54,17.18-2.44,5.2-2.74,11.51.63,16.31,1.69,2.4,5.04,3.86,5.42,7.11s-1.91,7.73-1.26,11.26c-19.96,4.6-40.02,11.1-56.41,23.7.84-9.96-2.23-21.8-.38-31.57,1.1-5.77,8.32-12.19,9.41-17.51,1.49-7.26-2.85-14.78,0-22.33,2.5-6.6,10.8-11.37,12.93-18.59,1.77-6-.88-10.97,1.33-18.38,4.24-14.2,14.24-18.76,28.54-17.76,1.45-11.16,6.39-20.42,16.44-25.92,10.67-5.84,26.15-6.35,36.73.07,3.05,1.85,4.64,4.52,7.63,6.2,10.43-5.11,20.17-7.24,31.52-3.33,18.45,6.36,20.32,31.57,42.66,30.23,1.55-.09,5.22-1.86,5.94-.68.99,6.46-.12,15.61-4.01,21-2.12,2.94-6.2,3.96-6.73,7.77-.47,3.36,1.54,7.66,1.84,10.99.82,9.08-2.29,11.41-3.22,18.44s3.68,16.51-3.33,21.95Z" fill="#fff"/>
  <path d="M589.88,246.9v111c-27.02.03-39.81,26.86-63.7,34.15,3.8-16.23,4.89-33.18,8.72-49.39.51-2.16,1.82-3.26,2.29-4.93,2.3-8.06,1.21-18.49-8.78-19.83-7.19-.96-11.26,2.43-13.08,9.13-4.27,15.76-6.26,34.43-9.71,50.71-1.44,6.77-3.01,13.53-4.73,20.23l-30.55,10.17c4.64-6.94,5.82-13.36,5.25-21.66-.16-2.41-1.62-4.54-1.18-7.06.47-2.69,4.64-6.42,6.04-9.11,6.56-12.62-1.94-22.08-.83-34.32.44-4.9,2.81-10.34,3.19-15.2.4-5.22-1.29-9.82-.99-14.77,16.26-7.26,31.43-16.68,45.86-27.05,18.96-13.63,37.02-31.52,62.18-32.06Z" fill="#fff"/>
  <path d="M459.62,400.16c-16.04-14.02-52.81.04-48.95-32.67.92-7.79,2.15-5.43,7.17-7.28,3.58-1.32,7.34-3.95,8.88-7.54,6.6-15.37-16.72-17.06-13.99-35.01.79-5.17,7.47-11.28.94-14.39-5.62-2.68-8.43-2.51-13.59-7.43-4.75-4.53-5.68-8.91-8.97-14.06-1.43-.46-10.7,3.73-13,4.56-4.61,1.65-9.18,1.11-12.16,5.89-4.92-22.88,18.97-33.83,38.4-32.17,10.72.92,42.38,14.14,52.67,19.58,15.64,8.26,18.14,17.44,20.74,33.77.29,1.85,1.67,3.71,1.78,4.8.51,5.11-4.62,14.56-3.84,22.87.69,7.31,4.85,12.9,3.8,20.38-.99,7.07-8.22,13.33-9.03,17.29-.54,2.66,1.49,6.35,1.79,9.11.44,4.06-1.06,14.56-4.57,16.98-3.83,2.64-5.92-2.78-8.07-4.66Z" fill="#fff"/>
  <path d="M99.3,240.34c-2.05,4.95-7.08,10.17-3.61,15.74,4.37-3.01,4.34-8.29,6.53-12.5,3.53-6.79,14.6-14.03,22-15.43,6.4-1.2,5.77,1.85,10.85,3.66,4.31,1.54,8.56,1.84,12.97.45,2.95-.93,4.5-3.22,7.97-3.06,5.63.26,12.83,6.9,15.19,11.78.73,1.52,1.73,7.68,3.93,7.22,4.13-7.68-9.69-15.56,2.3-21.01,2.6,11.6,5.07,22.39,3.94,34.47-.66,7.03-4.46,14.52-5.16,21.77-.96,9.95,2.63,18.31-6.71,25.47-1.03.79-3.4,2.43-4.53,2.72-2.26.58-4.86-.87-5.95-.08-.51.37-.82,2.12-1.58,3.03-10.02,11.86-26.76,12.6-38.76,3.24-2.93-2.28-8.73-11.37-9.61-3.34-2.07,1.76-13.73-4.96-15.7-6.81-4.48-4.2-4.88-12.62-7.98-18.29-3.97-7.27-11.55-12.33-14.83-19.97-7.51-17.47-3.68-42.68-.87-61.04.37-2.42-1.49-3.03,2.23-4.94,1.97-1.01,5.02-2.32,5.68.49,3.5,14.95,3.58,31.54,21.7,36.43ZM141.11,239.8c-4.26,2.5-8.3,5.41-12.77,7.56-2.89,1.39-10.59,3.62-12.21,4.87-.87.67-1.3.95-1.06,2.21,3.73,2.97,8.1-2.2,12.17-2.32s8.75,2.54,15.07,1.99c4.87-.42,10.08-4.15,12.47-4.27,3.72-.19,8.68,3.83,11.5,0-.04-1.78-12.2-3.82-14.42-4.61-2.09-.75-9.84-5.52-10.75-5.44Z" fill="#fff"/>
  <path d="M266.11,500.42c.27,1.2-.37,1.29-1.09,1.85-7.62,5.94-23.01,13.84-31.96,18.61-4.94,2.64-25.45,13.59-29.57,13.46-6.45-.2-25.36-6.55-32.3-8.95-18.73-6.47-44.49-18.72-58.76-32.53-.71-.68-1.53-1.15-1.3-2.3l55.97-22.51c37.71-14.93,66.18,21.38,99.01,32.37Z" fill="#fff"/>
  <path d="M42.5,321.11c-.19.03-.74.99-.98.66l1.31-20.36c-.89.13-2.57-.31-3.2.09-1.62,1.02-1.76,18.13-3.32,21.15-6.85,3.62-13.34,6.81-16.8,14.23H5.06l-.99-.99v-60.42c11.62-10.42,26.42-17.96,41.38-22.33,2.46-.72,14.5-4.03,15.99-3.56,1.86.58.89,6.68,1.16,8.73,1.71,12.96,7.88,16.7,15.01,25.71s5.23,20.6,14.9,27.79c2.96,2.2,14.33,7.17,17.75,7.17,1.24,0,2.19-1.21,3.06-1.05.58.1,4.6,4.04,5.72,4.79,11.86,7.85,30.56,6.47,40.35-4.21-.24,2.6-2.02,4.94-3.35,7.16-2.89,4.84-20.79,30.58-25.56,30.24-1.93-1.68-1.53-4.4-2.44-6.72-6.36-16.25-23.02-24.28-40.07-21.98-4.32.58-8.28,3.21-12.61,3.79-3.27-1.69-5.61-4.55-8.88-6.29-1-.53-8.41-3.59-8.89-3.59-4.48,0-10.94-.57-15.1,0Z" fill="#fff"/>
  <path d="M331.04,501.82l-19.97,87.91c-15.79-5.48-28.06-17.45-41.99-26.28-9.02-5.72-19.69-11.53-29.45-15.86s-20.1-7.29-29.98-11.38c1.71-2.32,4.6-2.37,7-3.49,26.96-12.61,52.28-29.42,78.2-43.99,3.01-.75,5.96,2.81,8.67,4.16,8.47,4.24,18.35,6.7,27.52,8.93Z" fill="#fff"/>
  <path d="M589.88,361.18v91.29c-23.96.86-44.46,14.93-65.99,23.65.57-6.98.96-13.72-3.34-19.67-1.21-1.67-5.37-4.63-5.53-6.29l9.8-53.24c4.64-2.59,9.8-3.96,14.44-6.57,10.83-6.09,19.54-16.64,30.48-22.72,6.43-3.58,12.89-5.37,20.14-6.46Z" fill="#fff"/>
  <path d="M485.39,449.11c-3.95.34-4.35,4.58-6.45,6.37-1.23,1.05-2.8,1.08-3.96,1.95-5.75,4.33-8.54,12.41-4.52,18.91,1.57,2.55,6.23,4.94,6.86,6.99.69,2.25-1.45,2.98-2.31,5.02-1.36,3.21,1.37,10.36,5.24,11.17l-.19,6.34-3.55,9.63c-17.06-4.78-28.7-21.78-34.2-37.91-2.76-8.1-3.65-16.14-5.45-24.44-5.51-.39-2.35,8.93-1.66,12.5,1.37,7.04,4.11,17.2,7.32,23.55,1.17,2.32,3.77,3.84,3.54,6.64-13.09,2.89-26.32,5.55-39.74,6.56-8.91.67-22.95,1.64-31.55.7-.99-.11-1.63-.07-2.25-1.02,9.39-7.83,20.14-15.8,27.55-25.63,2.06-2.73,3.49-6.43,5.58-8.87,4.71-5.49,12.33-6.1,12.24-16,8.38-9.54,14.64-20.74,22.65-30.55,3.17-3.88,12.75-15.2,17.66-15.21,2.78,0,8.07,6.29,9.81,8.62,3.55,4.77,8.4,13,11.22,18.33,1.29,2.42,7.35,14.5,6.15,16.35Z" fill="#fff"/>
  <path d="M396.15,409.12c.5.37-6.39,9.59-7.26,10.15-2.09,1.34-10.14,2.45-14.01,4.38-4.74,2.38-12.54,10.01-16.8,10.81-5.05.95-13.01-2.26-18.41-1.7l6.59-21.33c.3-1.77-2.18-1.12-3-.36-.35.32-3.44,7.63-3.79,8.68-.86,2.55-2.19,11.9-3.73,12.69-8.48.62-18.44-2.87-26.28,1.31-.43,1.77,6.09,2.21,7.56,2.28,4.91.25,9.48-.83,14.47-.67,6.44.21,13.45,2.05,20,2-8.81,19.35-12.64,41.9-5.25,62.39-16.54-.4-43.21-7.3-54.19-20.35-26.28-31.24,26.27-76.52,54.31-83.63,4.43-1.12,9.11,1.92,13.51,2.67,2.59.44,6.66-.35,8.84.84.8.44,2.03,3.17,3.11,4.28,2.26,2.32,9.09,5.56,12.18,5.56h12.15Z" fill="#fff"/>
  <path d="M589.88,455.1v68.31c-22.58,2.99-44.75,10.88-65.84,19.21-8.59,3.39-17.57,8.47-26.12,11.31-.62.21-5.29,1.66-5.25.67l5.38-28.11c.67-1.48,6.56-2.7,8.63-3.85,9.63-5.35,8.96-15.23,11.65-24.47,1.68-5.78,4.46-11.26,5.38-17.28,21.26-9.96,42.38-23.25,66.16-25.78Z" fill="#fff"/>
  <path d="M141.63,154.66c8.27,7.2,19.14,10.38,29.85,12.17,2.75,15.77,1.79,31.65,2.01,47.58.09,6.28,1.64,8.26-2.7,14.31-2.65,3.69-6.3-.51-9.59-2.02-1.2-.55-3.97-.74-4.47-1.44-.71-1.01-.07-4.34-.47-6.1-.65-2.94-4.8-12.11-6.28-15.4-1.24-2.76-4.53-12.46-7.92-8.32-.89,2.72,5.89,13.41,7.27,16.86,1.84,4.59,4.95,11.81-.15,15.19-4.14,2.74-9.39,1.58-13.74.02-2.75-.99-6.62-4.4-8.79-4.24-2.58.19-13.35,4.93-15.96,6.45-7.96,4.62-6.35,10.62-16.84,3.92-10.14-6.48-10.18-23.16-13.31-33.71,1.73-3.71,3.67-7.39,5.61-10.99.3-.55,1.38-.66,1.83-1.6,1.01-2.08,1.93-11.99,2.86-12.6,18.07.79,39.39-4.02,47.93-21.69h1.52c.63.25.84,1.19,1.33,1.62ZM170.8,181.31c-5.75-2.19-28-5.8-21.15,5.85,3.35-.52,20.45,2.63,21.9.62l-.75-6.47ZM130.74,181.31c-6.91-2.31-14.52-1.67-21.43.4-5.16,1.55-8.01,2.36-7.39,8.71l26.96-1.61c3.09-.95,1.79-4.9,1.85-7.5ZM160.86,196.42c-4.77,1.29-3.2,13.5,1.15,13.68,5.99.24,4.75-15.27-1.15-13.68ZM119.47,197.74c-3.28,1-4.69,11.04-1.37,12.95,8.89,5.1,9.23-15.33,1.37-12.95Z" fill="#fff"/>
  <path d="M141.66,353.3c-.18-.05-1.28-.97-.66-1.31,5.33-5.21,10.42-11.47,14.4-17.79,3.23-5.14,6.09-13.48,9.29-17.64,2.13-2.77,6.19-3.95,8.84-6.27,8-7.01,5.63-14.68,6.57-23.64.83-7.9,3.14-15.83,4.6-23.66.47-2.49,3.98.54,5.18,1.37,7.49,5.23,13.48,14.8,17.66,22.81-2.6,4.76-4.28,10.76-6.96,15.36-5.74,9.88-11.03,15.17-15.05,26.98-.66,1.94-3.54,11.69-3.32,12.86.42,2.25,2.73,1.53,3.72.01,1.55-2.38,1.88-9.19,3.22-12.54,1.43-3.57,6.42-13.17,8.51-16.42.42-.65-.06-1.18,1.47-.84.13,2.28-.18,4.61.01,6.89,1.11,13.22,2.8,24.69,7.56,37.1,3.52,9.19,5.82,13.36,15.08,17.1,4.51,1.82-3.32,4.79-4.45,4.5-.85-.22-2.4-2.32-3.53-3.08-8.33-5.61-17.15-8.34-27.29-5.84-2.4.59-6.92,3.58-8.61,3.04-.65-.21-5.75-9.01-7.65-10.79-1.68-1.57-13.11-8.2-14.79-8.2-3.23,0-11.33.63-13.79,0Z" fill="#fff"/>
  <path d="M497.92,506.38c-6.6,36.41-13.38,72.81-20.53,109.11-7.27,36.87-14.01,75.91-23.08,112.21-.75,3-1.96,7.6-5.43,8.37-4.89,1.08-11.16-2.39-9.96-7.98,14.61-69.07,29.56-138.26,41.78-207.82.94-5.34,1.17-11.47,2.34-16.73.23-1.04.08-1.85,1.4-1.8.97.04,13.07,4.06,13.5,4.64Z" fill="#fff"/>
  <path d="M364.62,355.26c.07-1.02.21-1.56-.66-2.28-2.64-2.17-12.39-2.1-15.77-6.74-2.28-3.14-1.53-9.55,2.64-10.38,5.57-1.12,20.54,5.5,25.56,8.63s5.76,6.41,12.23,6.22c4.76-.14,9.61-2.12,13.11-5.29,2.29-2.08,8.63-11.44,10.2-12.17,1.76-.82,3.17.73,3.65,2.3.86,2.78-3.19,14.54-4.3,18.1-4.66,14.92-10.27,32.66-26.11,38.91-21.96,8.67-61.03-1.47-46.71-31.6.6-1.25,5.63-9.97,6.11-10.33,2.1-1.6,4.05,1.07,6.03,1.95,4.21,1.85,9.53,4.2,14.04,2.7Z" fill="#fff"/>
  <path d="M224.11,300.82c1.56,5.84-2.8,9.93-4.62,15.03,8.91.99,6.93-9.64,10.21-13.1s13.74-3.1,13.08-12.6c-.21-3.05-3.82-4.66-2.63-6.49.68-1.05,16.61-9.48,18.46-9.79,2.35-.39,7.07-.65,6.87,2.86-.39,6.62-20.03,8.78-21.02,16.14,4.71,1.23,22.26-12.53,24.96-9.85,0,1.55.18,3.12-.3,4.64-1.29,4.14-16.25,9.08-20.28,11.89-1.7,1.18-2.6,3.18-.02,3.69,2.28.46,17.43-8.48,20.28-10.36,1.26-.17.91.01,1,.99.64,7.19-12.6,10.24-16.47,13.75-2.83,2.56-3.73,7.03-5.72,10.04-4.55,6.89-11.03,7.01-17.57,10.67-4,6.44-7.42,13.5-11.87,19.65-.92,1.26-6.91,8.83-8.14,7.94-1.93-6.47-3.94-12.88-5.05-19.58-4.86-29.15-1.26-48.28,25.62-63.28,5.24-2.92,13.5-7.49,19.52-5.51,2.96.97,3.03,3.5.85,5.53s-12.53,8.03-15.55,9.4c-3.52,1.6-12.94,2.96-14.54,4.5-.42.4-.51,1.2-.99,1.63.17,3.29,17.17-4.33,18.94,1.45,1.42,5.12-11.26,9.53-14.99,10.76Z" fill="#fff"/>
  <path d="M388.75,423.72c.76.68,1.09,2.87.52,3.79s-13.03,4.15-7.8,5.81c4.58,1.46,21.71-9.75,28.4-6.1.69.38,2.14,1.65,1.99,2.5-.36,2.14-17.84,6.44-20.79,8.15-1.45.84-2.46,1.48-2.16,3.41,2,1.96,27.96-11.31,30.12-7.79.41.66.15,3.05-.24,3.86-1.89,3.92-19.59,7.48-24.3,9.85-1.59.8-2.92,1.13-3.59,2.96,1.02,1.45,2.6,1.06,4.09.83,3.57-.55,19.9-9.33,22.16-7.07.33,10-15.8,9.54-21.88,13.26-.98.6-1.17,1.3-1.75,2.18.93,1.36,2.06,1.04,3.44.84,4.12-.6,11.41-5.62,15.26-5.13,2.48.32-.52,3.84-1.29,4.64-7.91,8.23-29.76,11.45-40.73,11.13-6.81-.2-10.76-.27-17.75,0-3.97.15-6.5,1.17-6.24-3.57.32-5.82,4.31-21.06,8.18-25.35,2.24-2.47,7.27-4.23,10.17-6.25,1.26-.88,2.12-2.36,3.38-3.18,3.26-2.12,17.5-11.7,20.79-8.77Z" fill="#fff"/>
  <path d="M390.21,286.33c1.81,11.27,12.92,16.18,21.6,21.38-.73,5.51-4.26,9.2-3.15,15.02.38,2.01,2.68,2.95,1.83,5.8-.2.68-7.37,10.19-8.41,11.33-5.39,5.92-11.68,9.32-19.28,4.8-8.04-4.77-16.02-10.85-25.89-12.2-3.64-.5-12.31,1.28-11.96-4.39.35-5.77,10.37-9.51,13.77-13.19,4.93-5.32,8.18-18.69,12.44-22.37,2.58-2.24,9.38-3.11,12.88-4.2,2.09-.65,3.84-2.42,6.19-1.97ZM372.96,297.59c-1.47.45-2.7,3.32-2.99,4.71l.86,1.1c4.36.67,17.38,12.56,20.78,8.25,2.42-3.06-1.25-6.13-3.4-7.89-3.09-2.53-11.35-7.37-15.25-6.17ZM371.66,313.37c-3.59,1.08-6.97,9.56-2.07,10.37,6.77,1.12,11.71-13.28,2.07-10.37Z" fill="#fff"/>
  <path d="M511.07,449.18c-3.33.23-6.24-1.29-9.6-1.88-1.74-.31-5.28.75-5.37-1.56,4.59-27.91,11.59-55.32,16.74-83.12,1.92-10.36,2.51-24.99,5.64-34.42,1.36-4.1,3.82-7.38,8.6-7.05,6.32.44,6.6,5.02,6.31,10.15-1.09,19.05-8.11,46.71-12,66.15-3.45,17.24-8.18,34.3-10.32,51.74Z" fill="#fff"/>
  <path d="M482.84,460.35c-2.44-13.16,18.01-10.54,25.79-7.73,11.3,4.08,12.32,11.33,11.67,22.54-1.4,23.97-10.52,33.3-33.98,23.42-2.55-1.08-11.7-6.21-7.93-9.83,3.96-3.8,17.61,2.19,22.83,1.16.55-3.21-4.64-3.9-7.07-4.41-4.21-.89-18.07-.1-12.94-7.39,3.64-5.17,17.84.88,23.3-.02l-.08-2.55c-2.59,0-5.44-2.15-7.63-2.55-4.87-.89-19.28,2.81-14.54-6.31,3.76-7.24,23.29-.19,24.21-1.07.96-2.67-5.34-5.25-6.89-5.25h-16.75Z" fill="#fff"/>
  <path d="M455.13,401.34c.29.49.16,1.24.06,1.8-4.19.77-6.27,5.06-8.79,7.3-.95.85-2.42,1.1-3.3,1.96-7.69,7.47-12.44,17.11-19.7,24.96-.48-2-.29-3.2-1.63-4.93-2.19-2.83-4.69-1.64-6.31-2.89-1.33-1.03-.99-3.71-3.48-5.05-5.92-3.16-11.45.53-17.39,1.55-6.87-4.92,2.62-11.35,5.76-15.02,5.55-6.49,10.65-13.38,17.27-18.87,10.26,3,21.8,2.16,31.71,6.15.83.34,5.63,2.76,5.8,3.04Z" fill="#fff"/>
  <path d="M445.24,499.23c3.77-.5,3.12,3.68,2.78,6.77-.54,4.95-3.82,5.59-8.02,7.08-24.61,8.78-65.5,8.33-90.63,1.6-5.17-1.39-20.33-4.62-14.02-12.1l42.05,3.78c15.55.14,31.08.11,46.47-2.18,7.05-1.05,15.01-4.11,21.37-4.95Z" fill="#fff"/>
  <path d="M468.24,563.97c-.21.29-5.92,3.1-6.37,3.18-.85.14-.99-.15-1.27-.82l-4.2-37.18c-2.43-4.34-2.38-9.41-3.57-14.16-.97-3.86-3.8-6.61-.52-11.29,3.51,4.44,9.1,8.66,14.1,11.5,2.13,1.21,9.22,3.31,9.78,5.38l-7.94,43.38Z" fill="#fff"/>
  <path d="M500.57,402.56c-3.77,13.45-3.94,28.73-7.52,42.06-.38,1.41-.69,3.02-2.56,2.52l-18.76-34.34c2.31-3.79,27.48-11.51,28.84-10.24Z" fill="#fff"/>
  <path d="M438.83,673.81c.36,5.2-.48,10.95,0,16.08.14,1.48,3.62,12.84.98,12.8-9.89-8.48-21.01-11.25-33.73-12.56-.06-2.63-1.91-11.16-.1-12.72l32.84-3.6Z" fill="#fff"/>
  <path d="M241.15,328.34c1.5,12.24-1.29,25.98-7.99,36.33-7.17,11.07-16.08,5.28-20.17-4.35l12.63-15.09c4.74-7.1,4.56-16.28,15.53-16.9Z" fill="#fff"/>
  <path d="M399.43,470.21l-14.11,17.08c-7.96,7.54-17.38,16.26-29.24,13.78l6.45-15.55c2.73-3.13,2.38-7.45,4.02-11.09,11.58.28,21.79-1.1,32.87-4.23Z" fill="#fff"/>
  <path d="M360.68,675.13c-1.02,4.25,1.33,11.63.53,15.29-.22,1-6.17,9.66-6.76,9.65-5.66-5.1-10.49-11.94-17.39-15.43-1.66-.84-7.62-2.67-7.85-3.36.97-2.09-.12-10.93,1.57-11.23l29.91,5.09Z" fill="#fff"/>
  <path d="M339.06,717.11c-2.48-11.85-12.09-23-24.34-24.91-1.58-1.45,7.8-5.65,8.83-5.94,7.32-2.07,17.93,4.17,22.68,9.57,1.65,1.88,5.56,7.22,5.16,9.66-.9,5.48-5.73,13.06-12.32,11.62Z" fill="#fff"/>
  <path d="M334.99,718.39l-17,1.73c-2.97-5.41-3.95-11.23-8.6-15.7-2.43-2.33-5.72-3.35-8.04-5.1-.75-.56-1.34-.7-1.08-1.86,3.25-.44,6.19-3.08,9.51-3.16,9.91-.23,25.38,13.66,25.21,24.08Z" fill="#fff"/>
  <path d="M412.98,391.15c-1,1.55-10.65,11.37-12.19,12.43-5.98,4.12-21.9,2.65-26.96-3.33-.42-1.95,5.8-2.05,7.35-2.49,10.54-2.95,19.83-10.41,24.83-20.16l7.72,12.06c-.02.67-.44,1.02-.75,1.49Z" fill="#fff"/>
  <path d="M418.48,730.29l-13.14,1.32.32-8.54c-4.23-.02-2.94,7.34-4.22,8.26l-5.89-.44c-1.46-1.74,4.16-11.24.26-10.44-1.98.41-4.43,8.44-3.62,10.51l-6.61-1.06,2.67-9.45c-6.48-1.39-3.52,10.38-9.01,8.04-6.37-2.71-.12-12.48,3.72-13.66,8.52-2.61,33.03,4.91,35.5,15.46Z" fill="#fff"/>
  <path d="M435.36,722.21c-.21.22-1.71.93-1.77.85.42-3.37-2.79-7.37-4.92-9.86-8.54-9.95-16.81-8.76-28.35-11.73-.9-.23-1.83.42-1.54-1.07,3.28-3.27,5.03-6.27,10.18-6.3,6.51-.04,27.94,6.79,29.71,13.67.74,2.87-1.35,12.31-3.31,14.42Z" fill="#fff"/>
  <path d="M425.47,714.76c2.29,2.43,6.69,9.47,3.13,12.18-6.34,4.84-8.48-2.95-12.07-6.19-7.18-6.5-18.28-7.57-27.3-9.49-.64-.14-2.19.38-1.61-.99.41-.97,5.76-4.52,7.04-4.78,8.4-1.71,24.84,2.93,30.81,9.28Z" fill="#fff"/>
  <path d="M313.4,721.09c-.75.75-17.04-1.06-18.11-2.59-1.61-2.29,4.89-6.75,5.76-8.79.34-.8.59-1.54-.47-1.76-5.08-1.34-9.15,9.61-9.84,9.85-6.06,2.09,2.51-10.88,1.64-12.47-1.71-1.75-7.42,6.64-7.23,8.53-2.1.42-2.03-2.54-1.68-3.94.6-2.41,4.94-6.34,7.13-7.36,9.97-4.62,22.29,8.9,22.8,18.52Z" fill="#fff"/>
  <path d="M346.24,475.13l1.64-.98,14.13-.32c-1.3,5.46-2.66,10.92-4.96,16.06-.57,1.26-5.01,10.6-6.87,9.22.24-2.01-3.95-7.87-3.95-8.87v-15.11Z" fill="#fff"/>
  <path d="M281.88,717.16c5.3,1.39,8.81,4.36,14.42,5.6,21.02,4.64,45.8-.6,65.03-9.55,2.64,3.37-12.64,8.77-14.6,9.37-14.59,4.43-50.58,9.27-62.54-1.51-1.17-1.05-2.67-2.04-2.31-3.92Z" fill="#fff"/>
  <path d="M377.11,730.95c19.58,6.67,40.11,6,58.44-3.94.76,5.08-5.92,6.93-9.87,8.18-9.9,3.14-38.66,6.41-46.61-.62-1.13-1-2.24-1.92-1.95-3.63Z" fill="#fff"/>
  <path d="M513.7,503.04c.13,1.4-1.17,2-1.64,3.28-2.46,6.73-3.04,15.11-12.82,14.8l2.6-13.85c3.94-1.64,8.14-1.34,11.86-4.23Z" fill="#fff"/>
  <path d="M413.88,357.23c1.45-4.69,2.35-9.61,3.75-14.31,1.02-3.4,1.74-3.75,4.49-.82,6.14,6.54-.44,14.89-8.24,15.13Z" fill="#fff"/>
  <path d="M65.15,207.49c1.07,4.67-.91,7.81-1.81,11.65-.55,2.35.37,5.46-1.79,7.39-6.38-5.03-2.91-15.86,3.61-19.03Z" fill="#fff"/>
  <path d="M479.55,460.36c.92,3.07-2.22,5.17-2.48,7.69-.21,2.08,3.06,9.5-1.09,8.72-6.47-1.21-4.17-17.14,3.56-16.42Z" fill="#fff"/>
  <path d="M362,696.8v10.84c-2.39,1.2-5.94,4.06-8.22,4.92-.92.35-1.11-.12-.98-.98.36-2.42,6.04-11.44,7.74-13.92.41-.59-.11-1.2,1.47-.86Z" fill="#fff"/>
  <path d="M466.41,570.04c.61.64-1.94,12.45-2.54,14.2-.29.86-.18,2.01-1.39,2.21l-1.26-14.01,5.19-2.41Z" fill="#fff"/>
  <polygon points="442.78 673.81 446.72 673.16 445.26 682.53 442.78 686.94 442.78 673.81" fill="#fff"/>
  <path d="M419.79,441.3c-.38-.3,1.93-2.05,2.61-1.64-.84.81-1.37,1.91-2.61,1.64Z" fill="#fff"/>
  <path d="M556.39,692.86c.29,1.33-.3,1.75-.95,2.65-3.27,4.51-8.28,9.64-10.33,14.63-2.34,5.71-2.54,11.63-4.14,17.54l-2.96.65c-.07-8.06,2.25-16.63,6.22-23.66,1.21-2.14,9.41-14.46,12.16-11.81Z"/>
  <path d="M514.36,698.11c2.57-2.34,12.92,9.3,14.31,11.62,1.54,2.58,8.16,18.05,4.39,19.24-3.08.98-4.08-8.95-4.73-11.02-2.83-8.99-10.03-11.93-13.97-19.84Z"/>
  <path d="M266.77,646.88c.93.9-4.37,7.23-4.94,9.17s-.13,4.45-.98,6.07c-.62,1.18-3.69,3.4-4.75,1.64-3.28-5.43-2.94-11.57-10.33-14.6,5.25-5.32,8.97,5.44,12.46,8.21.05-2.15,5.63-13.33,8.54-10.5Z"/>
  <path d="M72.37,753.94c-.27.18-1.85-.36-2.18-.62-1.22-.98-1.42-19.64-5.41-25.61-1.27-1.91-4.21-3.24-4.22-5.95,6.83.17,9.55,8.23,10.86,13.77s2.36,12.7.96,18.41Z"/>
  <path d="M155.12,702.05c-4.91,1.08-4.34-3.82-5.78-7.02-3.27-7.27-9.14-14.13-17.2-15.98-.32-4.57,4.61-1.99,7.01-.77,8.95,4.58,14.18,14.16,15.97,23.76Z"/>
  <path d="M177.45,673.81c-.01,3.74-4.58,4.98-6.92,7.19-2.53,2.4-5.61,6.93-6.88,10.2-1.1,2.83-1.69,8.63-2.74,10.4-2.23,3.76-3.2-1.09-3.01-3.61.68-8.94,10.12-22.68,19.55-24.17Z"/>
  <path d="M63.18,753.93c-2.33,2.31-6.06-6.71-7.22-8.21-.97-1.24-3.04-3.22-4.29-4.25-1.47-1.21-10.63-5.95-8.84-7.9,9.5,1.44,19.86,10.42,20.35,20.36Z"/>
  <path d="M95.93,734.81c-.26.46-7.34,4.62-8.79,5.98-1.37,1.28-2.18,2.49-3.21,4.01-2.01,2.94-3.32,9.05-7.6,8.48,1.16-9.9,9.43-17.94,18.72-20.98.85.54,1.39,1.63.88,2.52Z"/>
  <path d="M564.07,711.71c-1.47,1.92-7,4.09-9.66,7.08-3.16,3.55-4.46,9.92-9.83,10.19,2.2-8.92,11.23-17.69,20.04-20.35.83.67-.03,2.42-.54,3.08Z"/>
  <path d="M523.72,728.15c-.72-.69-1.55-3.73-2.51-5.04-3.48-4.8-8.73-7.12-14.08-9.25.15-4.91,8.12-.25,10.31,1.19,4.65,3.07,8.8,7.66,10.69,12.94-.81,1.46-3.38,1.15-4.41.15Z"/>
  <path d="M528.82,820.93c-.6-.39-1.99-11.78-2.8-13.95-1.03-2.74-4.82-6.03-5.47-8.34-.33-1.18-.25-1.22.71-2,3.66,1.66,6.13,4.42,7.59,8.16.92,2.35,3.72,14.54,1.97,15.83-.38.38-1.75.45-2,.29Z"/>
  <path d="M509.45,629.15c2.76-.41,7.11,5.18,8.31,7.44.97,1.82,5.65,13.64,2.83,14.23-2.11.44-4.62-10.18-5.67-12.05-1.36-2.43-4.77-5.02-5.93-7.88-.32-.78-.63-1.58.45-1.74Z"/>
  <path d="M547.19,801.88c1.17,1.17-5.6,7.03-6.45,8.32-1.57,2.36-3.21,8.92-4.36,10.09-2.17,2.21-3.81.11-3.37-2.65.91-5.71,7.9-15.08,14.18-15.76Z"/>
  <path d="M533.4,627.84c-.27,4.18-3.12,6.87-4.29,11.14-.71,2.57-.71,7.24-1.61,9.41-.32.76-2.45.93-3.29,1.12-.59-5.59.75-10.57,3.17-15.54,1.21-2.48,2.72-6.24,6.02-6.12Z"/>
  <path d="M53.33,822.24c-1.37,1.58-6.89-8.46-7.53-9.21-2.92-3.4-7.27-3.52-8.88-7.86,5.44-.66,10.57,4.26,13.81,8.19,2.59,3.15,3.09,4.57,2.61,8.88Z"/>
  <path d="M67.59,801.33c1.06-.16,2.43.27,2.16,1.53-.11.5-5.52,6.2-6.46,7.99-1.56,2.97-1.69,7.66-2.85,9.63-.61,1.04-.87,1.31-2.17,1.1-3.52-1.11,2.82-14.17,4.26-16.08.84-1.12,3.74-3.97,5.06-4.16Z"/>
  <path d="M182.71,686.95c.2,3.76-4.89,3.82-7.83,5.62s-7.52,9.49-9.57,9.5c-.88,0-1.13-.44-1.65-1.02,2.86-7.21,11.1-14.18,19.04-14.1Z"/>
  <path d="M305.9,815.42c-.09.18-.92.2-1.02.71-.13.61.02,10.73-2.63,8.74-4-4.11,2.25-20.39,7.51-19.04,2.53.65-1.04,3.82-1.63,4.9-.81,1.5-1.48,3.15-2.23,4.69Z"/>
  <path d="M522.89,821.58c-4.21-.3-3.73-5.78-5.9-8.87-2.25-3.2-6.53-3.49-7.88-6.89,8.63-1.75,14.2,8.29,13.78,15.75Z"/>
  <path d="M147.9,702.05c-1.37,1.37-6.9-5.85-7.86-6.91l-7.23-4.57c2.39-4.86,18.06,5.7,15.09,11.48Z"/>
  <path d="M551.13,573.32c-1.61,6.86-6.08,11.52-4.6,19.05h-2.62c.61-5.6-1.12-19.72,7.22-19.05Z"/>
  <path d="M81.54,811.69c-.23.35-6.21,2.05-7.42,2.76-1.55.91-7.2,8.32-8.3,7.13-.59-3.97,3.23-7.88,6.35-9.73,1.64-.97,7.88-3.82,9.11-2.12.4.39.47,1.64.27,1.96Z"/>
  <path d="M234.58,721.09c-4.13-.54-2.29-6.3-2.69-9.45-.45-3.51-2.52-6.65-2.55-10.25,6.11-.6,6.93,18.47,5.24,19.7Z"/>
  <path d="M542.6,594.99c-2.54,2.42-5.02-6.32-6.26-7.86-.39-.48-8.61-6.44-4.55-7.24,4.37-.86,12.83,13.17,10.81,15.1Z"/>
  <path d="M288.58,812.94c-.87-1.51.39-2.49,1.89-2.18,1.73.35,5.44,3.76,6.5,5.25.94,1.32,4.92,10.03,2.31,10.16-2.04.1-4.06-6.77-5.6-8.83-1.08-1.44-4.93-4.1-5.1-4.4Z"/>
  <path d="M543.25,635.72c-.2,4.13-4.76,6.15-6.92,8.51-1.88,2.06-2.5,5.09-4.89,6.59-1.91-6.69,6.08-13.24,11.81-15.1Z"/>
  <path d="M561.64,580.55c.27,4.05-3.89,5.01-5.91,7.55-1.37,1.73-2.45,6.79-4.92,6.23s2.03-7.7,2.96-8.85c2.03-2.51,4.53-4.58,7.86-4.94Z"/>
  <path d="M247.07,705.34c1.53,1.3-2.45,5.07-3.39,6.79s-3.03,9.36-4.81,8.97c-2.42-.53.79-8.23,1.52-9.63.69-1.33,5.16-7.42,6.68-6.13Z"/>
  <path d="M263.5,664.59c-2.22-2.96,11.02-15.78,12.46-9.49.23,1.03-5.99,3.5-7.57,5.56-1.16,1.51-1.47,2.71-2.26,4.35-.46.41-2.55-.31-2.63-.42Z"/>
  <path d="M251.01,665.27c-1.26,1.33-6.42-4.98-7.55-5.9s-5.18-2.16-4.91-3.62c.54-2.92,7.25,1.1,8.46,2.03,2.48,1.91,4.53,4.11,4,7.49Z"/>
  <path d="M320.62,813.71c1.05,1.44-5.71,3.94-6.93,5.21-1.04,1.09-3.05,5.73-3.93,5.94l-1.98-1.32c-1.11-2.53,8.83-13.34,12.84-9.83Z"/>
  <path d="M217.52,709.93c3.61-.29,13.76,7.77,11.5,11.17-.99,1.18-1.1.61-1.99,0-1.78-1.23-3.3-3.94-4.89-5.61-1.71-1.8-4.92-2.61-4.61-5.56Z"/>
  <path d="M553.08,814.98c-4.95.88-8.45,5.39-13.1,5.94-2.05-1.84,13.1-13.45,13.1-5.94Z"/>
  <path d="M519.38,80.5c-2.68,2.59-6.78,4.74-10.58,4.86l-422.29-.03c-12.57-1.02-18.53-16.26-19.38-27.25-1.2-15.66-.39-39.22,17.38-45l426.24.02c23.16,5.99,22.35,54.15,8.63,67.41ZM84.02,17.83c-5.7,1.89-9.98,7.47-11.96,13-4.54,12.7-4.46,47.83,13.78,49.9h424.27c7-1.42,11.29-7.76,13.45-14.12,4.2-12.33,4.19-46.93-13.47-48.94l-426.07.15Z"/>
  <path d="M538.67,115.54c19.27-11.16,42.06,6.13,39.34,27.2-.72,5.56-2.31,5.91-7.47,6.32-15.72,1.24-33.88-.33-49.96-.05-24.39.42-48.4,2.05-72.88.69-8.46-.47-16.23,2.67-12.29-9.68,2.15-6.75,9.42-12.09,16.45-12.51,2.48-.15,4.39,1.02,6.72.21,2.95-13.28,14.51-17.65,26.89-13.49,5.45-29.35,48.61-27.43,53.21,1.31ZM534.75,122.73c-.85-9.33-1.89-18.02-10.74-23.08-16.59-9.49-35.03,2.42-35.92,20.49-5.9-1.65-10.21-5.83-16.68-3.22-7.7,3.1-7.91,9.08-9.55,16.09-.82.61-6.97-1.56-8.9-1.56-7.98,0-14.24,6.45-14.77,14.3l134.21-.74c5.45-8.03-3.23-22.98-10.96-26.96-5.43-2.8-13.58-3.63-18.79-.16-2.54,1.69-4.02,5.6-7.89,4.85Z"/>
  <path d="M443.68,201.34c1.41,1.99,3.65,3.48,3.7,6.8,12.47-7.77,27.82-.8,34.55,11.08,2.17,3.82,6.57,18.68,1.1,20.32-3.46,1.04-15-.03-19.6.1-1.73.05-3.33.68-5.2.71-39.66.84-79.61-.43-119.23-.36-3.74-4.96,1.33-12.17,5.7-15.32,6.4-4.63,12.23-4.22,19.84-4.13,2.94-12.67,14.77-16.08,26.38-12.67,6.14-18.84,32.93-24.29,47.85-12.48,2.38,1.88,3.25,3.61,4.9,5.94ZM341.64,236.39h139.56c1.49-1.31,1.14-4.32.98-6.23-1.11-12.86-18.91-27.38-31.08-19.27-1.26.84-4.1,4.46-5.07,4.23-3.24-.78-3.18-7.04-4.44-10.04-7.33-17.52-40.24-15.42-47.09,3.07-.79,2.14.37,5.85-3.01,5.62-9.49-8.35-25.19-1.1-22.92,12.13-3.53.4-6.64-1.8-10.18-1.83-7.89-.06-14.99,4.51-16.75,12.34Z"/>
  <path d="M290.09,172.02c-2.47.41-8.46,4.23-10.2,6.22-1.49,1.7-4.46,8.86-4.96,8.93-2.31.36-7.36-7.47-10.78-8.91-1.56-.66-7.19-1.64-8.86-1.63-2.1,0-12.75,3.87-12.79.98,5.34-5.39,16.06-5.23,22.76-2.41,3.57,1.5,5.68,4.28,9.06,5.4,3.22-8.7,15.41-13.67,24.16-12.34,1.7.26,7.02,1.69,4.1,3.78-3.82.44-8.85-.61-12.48,0Z"/>
  <path d="M43.48,545.08c-1.27-.02-3.36.43-3.85-1.08l-1.4-20.6c.75.46,2.02.54,2.59,1.01,2.43,1.98,2.9,17.12,2.65,20.67Z"/>
  <path d="M55.3,621.26h-2.62c1.08-7.9-2.15-16.21-3.92-23.94.94-1.67,2.48-.81,3.55.34.75.81,3,7.3,3,8.17v15.43Z"/>
  <path d="M39.31,609.68c1.27,1.27,9.46,14.26,5.16,14.2-2.28-2.21-2.65-5.11-4.66-7.81-.98-1.32-4.75-5.54-5.91-6.57-1.48-1.31-5.09-2.06-5.44-3.09-.15-.45-.17-2.12-.08-2.21,1.28-1.3,9.63,4.19,10.93,5.49Z"/>
  <path d="M72.37,602.88c.8,3.35-2.22,3.66-3.56,5.3s-3.73,4.64-4.86,6.3c-2,2.93-2.23,8.19-6.01,8.1-2.72-2.86,9.27-20.24,14.44-19.7Z"/>
  <path d="M34.94,546.39c-3.34.29-3.75-3.66-5.56-5.92-2.35-2.93-7.46-5.57-8.92-7.5-.61-.8-.76-1.33-.61-2.34,7.4,0,14.83,8.63,15.1,15.76Z"/>
  <path d="M141.9,579.79l-2.46.02c-.87-3.93-.87-8.05-2.22-11.9-.62-1.78-2.99-5.08-3.1-6.12-.37-3.65,2.91-1.53,4.24.38,1.62,2.32,5.58,16.37,3.54,17.61Z"/>
  <path d="M134.76,581.86c-3.97.69-4.6-4.34-6.57-6.89-2.06-2.68-5.39-4.01-7.22-6.89,1.55-.02,3.11-.18,4.63.29,2.61.8,11.07,11.6,9.15,13.5Z"/>
  <path d="M156.44,564.78c.51,3.58-3.44,4.98-5.14,7.66s-1.85,7.44-5.36,8.1c-.74-6.58,3.98-14.09,10.5-15.76Z"/>
  <path d="M50.94,538.73c-1.73,2.57-1.46,7.37-4.82,7-.31-6.6,3.98-12.84,10.16-15.1,1.45.97.7,1.45-.04,2.58-1.16,1.77-4.28,4-5.3,5.52Z"/>
  <path d="M386.79,578.09c1.01,1.24,1.87,11.74,2.43,14.31,2.95,13.5,9.54,33.36,18.41,43.98,2.81,3.36,7.61,5.87,8.22,10.5-.7-.03-1.33.53-2.04.35-1.52-.38-8.1-7.88-9.4-9.6-8.95-11.8-18.42-34.98-20.67-49.6-.26-1.66-.97-7.75-.6-8.98.51-1.69,2.6-2.23,3.65-.95Z"/>
  <path d="M141.11,239.8c.9-.09,8.66,4.69,10.75,5.44,2.22.8,14.38,2.83,14.42,4.61-2.82,3.82-7.78-.19-11.5,0-2.4.12-7.6,3.84-12.47,4.27-6.32.55-10.8-2.12-15.07-1.99s-8.44,5.29-12.17,2.32c-.24-1.26.19-1.54,1.06-2.21,1.62-1.25,9.32-3.48,12.21-4.87,4.47-2.15,8.51-5.06,12.77-7.56ZM149.87,247.56c-2.8.02-6.35-3.42-8.81-3.28-1.2.07-6.92,3.48-8.09,4.4-.54.42-1.2,0-.83,1.5,5.65,1.21,13.61,2.45,17.73-2.61Z"/>
  <path d="M130.74,181.31c-.07,2.6,1.23,6.55-1.85,7.5l-26.96,1.61c-.62-6.35,2.23-7.16,7.39-8.71,6.9-2.07,14.52-2.71,21.43-.4Z"/>
  <path d="M170.8,181.31l.75,6.47c-1.45,2.01-18.56-1.14-21.9-.62-6.85-11.66,15.4-8.04,21.15-5.85Z"/>
  <path d="M119.47,197.74c7.86-2.38,7.52,18.05-1.37,12.95-3.32-1.91-1.91-11.95,1.37-12.95Z"/>
  <path d="M160.86,196.42c5.9-1.59,7.14,13.92,1.15,13.68-4.34-.18-5.91-12.39-1.15-13.68Z"/>
  <path d="M372.96,297.59c3.9-1.2,12.15,3.64,15.25,6.17,2.15,1.76,5.82,4.83,3.4,7.89-3.4,4.31-16.42-7.58-20.78-8.25l-.86-1.1c.29-1.39,1.52-4.26,2.99-4.71Z"/>
  <path d="M371.66,313.37c9.65-2.9,4.71,11.49-2.07,10.37-4.9-.81-1.52-9.29,2.07-10.37Z"/>
  <path d="M84.02,17.83l426.07-.15c17.66,2.01,17.67,36.6,13.47,48.94-2.16,6.35-6.46,12.69-13.45,14.13H85.84c-18.23-2.09-18.31-37.22-13.78-49.92,1.98-5.53,6.26-11.11,11.96-13ZM150.53,43.29c1.55-7.36-2.74-9.55-9.48-8.49-8.21,1.29-9.2,16.09-3.82,20.33,2.75,2.17,9.48,1.98,9.33,6.81-.28,9.03-11.92.48-12.44,1.06l.4,7.29c12.11,5.33,19.1.47,17.27-12.82-1.5-10.88-14.89-4.82-11.81-15.06,3.4-2.64,7.11-.15,10.55.87ZM257.58,69.56v-17.73h-9.19v5.91s3.29,0,3.29,0l-.08,7.81c-5.46,1.96-9.17-1.32-9.78-6.82-.78-7.01-.94-19.39,9.37-17.25,1.97.41,3.15,2.26,5.07,2.47l-.11-7.11c-28.91-13.88-28.09,49.52,1.42,32.73ZM303.54,43.95c.2-5.97,1.11-8.3-5.63-9.14-9.65-1.2-13.03,6.61-11.12,15.05s12.41,5.97,12.21,12.12c-.24,7.29-9.26,3.23-12.52.35l.1,7.77c4.14,2.32,12.87,3.79,15.95-.58,3.51-4.98,3.31-14.61-2.05-18.25-3.17-2.15-9.1-1.79-8.82-6.35.37-5.99,8.78-3.35,11.88-.99ZM422.42,69.24v-17.4h-9.19v5.91s3.94,0,3.94,0l-.33,7.23c-4.59,3.67-9.44-1.59-10.14-6.29-1.7-11.36,2.42-23.46,15.05-14.08.36-5.79.72-8.6-5.73-9.69-20.16-3.42-19.68,34.98-5.71,37.23,4.06.66,8.92-.16,12.11-2.91ZM492.51,34.91c-5.81,1.21-8.6,8.7-9.04,13.94-.82,9.86.48,25.49,14.1,23.29,13.24-2.14,13.3-41.05-5.06-37.24ZM95.36,35.41h-5.91v36.12h16.42v-6.57h-10.51v-29.56ZM122.88,35.48h-7.09s-8.6,36.05-8.6,36.05l5.95-.28,1.3-6.25,9.44-.07,1.04,6.61h6.57s-8.6-36.06-8.6-36.06ZM180.41,35.41c-3.3-.58-8.01.43-11.49,0v36.12h5.25v-11.49c1.65-1.84,4.44-.62,6.76-1.12,8.87-1.93,8.83-21.85-.52-23.51ZM191.9,35.41v36.12h15.76v-6.57h-9.85l-.65-29.56h-5.26ZM233.28,71.53l-8.18-35.49-7.51-.56-7.95,36.05,5.29-.29,2.35-6.19,8.4-.12,1.76,6.54,5.84.06ZM275.22,35.5l-7.11-.06-8.56,36.09,6.53-.03.69-6.53,9.93.38,1.33,6.1,5.82.09-8.62-36.03ZM332.12,35.41c-3.17-.53-7.51.38-10.84,0v36.12h12.15c.23,0,3.72-1.89,4.07-2.18,8.38-6.9,7.34-31.84-5.38-33.95ZM363.31,35.41h-15.76v36.12h16.42v-6.57h-10.51v-8.54h9.19v-7.22h-9.19v-7.22h9.85v-6.57ZM396.15,35.41h-15.76v36.12h16.42c-.24-2.16.81-5-.99-6.57h-9.52v-8.54s8.58-.28,8.58-.28l.62-6.94h-9.19v-7.22h9.85v-6.57ZM433.58,35.41h-5.91v36.12h5.91v-36.12ZM445.4,59.06c9.82,1.44,13.74-4.25,13.15-13.49-.22-3.45-2.89-10.15-6.92-10.15h-12.15v36.12h5.91v-12.48ZM481.52,35.41h-21.67v6.57s7.88,0,7.88,0v29.56h5.91v-29.56l7.27-.29.62-6.28Z" fill="#fff"/>
  <path d="M534.75,122.73c3.88.75,5.35-3.16,7.89-4.85,5.21-3.46,13.35-2.64,18.79.16,7.72,3.98,16.41,18.92,10.96,26.96l-134.21.74c.53-7.85,6.8-14.3,14.77-14.3,1.93,0,8.08,2.16,8.9,1.56,1.64-7.01,1.85-12.98,9.55-16.09,6.47-2.61,10.77,1.58,16.68,3.22.9-18.07,19.34-29.98,35.92-20.49,8.85,5.06,9.9,13.76,10.74,23.08Z" fill="#fff"/>
  <path d="M341.64,236.39c1.75-7.82,8.86-12.4,16.75-12.34,3.54.03,6.66,2.23,10.18,1.83-2.27-13.24,13.43-20.49,22.92-12.13,3.38.23,2.22-3.48,3.01-5.62,6.85-18.49,39.76-20.58,47.09-3.07,1.26,3,1.2,9.27,4.44,10.04.97.23,3.81-3.39,5.07-4.23,12.17-8.11,29.97,6.41,31.08,19.27.17,1.92.51,4.93-.98,6.23h-139.56Z" fill="#fff"/>
  <path d="M149.87,247.56c-4.12,5.07-12.08,3.82-17.73,2.61-.37-1.51.28-1.08.83-1.5,1.18-.92,6.89-4.33,8.09-4.4,2.46-.13,6.01,3.3,8.81,3.28Z" fill="#fff"/>
  <path d="M332.12,35.41c12.72,2.11,13.76,27.05,5.38,33.95-.34.28-3.84,2.18-4.07,2.18h-12.15v-36.12c3.33.38,7.66-.53,10.84,0ZM326.53,42.96c-.8,2.58,0,16.99,0,21.02,11.19,6.16,12.33-16.35,7.03-20.49-1.25-.97-6.4-2.54-7.03-.53Z"/>
  <path d="M492.51,34.91c18.36-3.82,18.31,35.1,5.06,37.24-13.62,2.2-14.92-13.44-14.1-23.29.44-5.24,3.23-12.74,9.04-13.94ZM493.83,41.44c-5.72,1.18-5.15,17.07-3.15,21.27,1.62,3.4,4.86,4.86,7.64,1.64,3.74-4.34,4.18-24.71-4.48-22.91Z"/>
  <path d="M257.58,69.56c-29.51,16.79-30.34-46.61-1.42-32.73l.11,7.11c-1.92-.21-3.1-2.06-5.07-2.47-10.31-2.13-10.15,10.24-9.37,17.25.61,5.5,4.31,8.78,9.78,6.82l.08-7.81h-3.29s0-5.91,0-5.91h9.19v17.73Z"/>
  <path d="M422.42,69.24c-3.19,2.75-8.05,3.57-12.11,2.91-13.97-2.26-14.44-40.66,5.71-37.23,6.45,1.09,6.09,3.9,5.73,9.69-12.63-9.38-16.75,2.72-15.05,14.08.7,4.7,5.56,9.95,10.14,6.29l.33-7.23h-3.95s0-5.91,0-5.91h9.19v17.4Z"/>
  <path d="M275.22,35.5l8.62,36.03-5.82-.09-1.33-6.1-9.93-.38-.69,6.53-6.53.03,8.56-36.09,7.11.06ZM274.65,58.4l-.97-7.24-2.31-5.89-2.64,13.13h5.91Z"/>
  <path d="M122.88,35.48l8.6,36.05h-6.57s-1.04-6.6-1.04-6.6l-9.44.07-1.3,6.25-5.95.28,8.6-36.05h7.09ZM122.29,58.4c-.66-3.74-1.15-7.63-2.17-11.3-.19-.67-.16-1.99-1.1-1.83l-2.64,13.13h5.91Z"/>
  <path d="M233.28,71.53l-5.84-.06-1.76-6.54-8.4.12-2.35,6.19-5.29.29,7.95-36.05,7.51.56,8.18,35.49ZM224.09,58.4c.42-.42-1.61-10.03-1.97-11.5-.23-.91,0-2.05-1.31-2.3l-2.63,13.79h5.91Z"/>
  <path d="M445.4,59.06v12.48h-5.91v-36.12h12.15c4.02,0,6.7,6.7,6.92,10.15.59,9.24-3.33,14.93-13.15,13.49ZM445.4,52.49l5.64-.6c3.38-5.33,1.48-11.49-5.64-9.91v10.51Z"/>
  <polygon points="363.31 35.41 363.31 41.98 353.46 41.98 353.46 49.2 362.65 49.2 362.65 56.43 353.46 56.43 353.46 64.97 363.97 64.97 363.97 71.53 347.55 71.53 347.55 35.41 363.31 35.41"/>
  <path d="M396.15,35.41v6.57h-9.85v7.22h9.19l-.62,6.94-8.58.28v8.54h9.53c1.8,1.56.74,4.4.99,6.57h-16.42v-36.12h15.76Z"/>
  <path d="M303.54,43.95c-3.1-2.36-11.52-5-11.88.99-.28,4.56,5.65,4.2,8.82,6.35,5.36,3.64,5.57,13.27,2.05,18.25-3.08,4.36-11.81,2.9-15.95.58l-.1-7.77c3.26,2.88,12.28,6.93,12.52-.35.21-6.15-10.24-3.46-12.21-12.12s1.47-16.25,11.12-15.05c6.73.83,5.83,3.17,5.63,9.14Z"/>
  <path d="M150.53,43.29c-3.45-1.03-7.16-3.52-10.55-.87-3.07,10.24,10.32,4.18,11.81,15.06,1.83,13.29-5.15,18.15-17.27,12.82l-.4-7.29c.52-.58,12.16,7.97,12.44-1.06.15-4.83-6.58-4.64-9.33-6.81-5.37-4.24-4.38-19.05,3.82-20.33,6.74-1.06,11.03,1.13,9.48,8.49Z"/>
  <path d="M180.41,35.41c9.35,1.65,9.39,21.58.52,23.51-2.31.5-5.11-.72-6.76,1.12v11.49h-5.25v-36.12c3.49.43,8.19-.58,11.49,0ZM174.17,52.49c10.04,2.35,9.97-12.89,0-10.51v10.51Z"/>
  <polygon points="481.52 35.41 480.91 41.69 473.64 41.98 473.64 71.53 467.73 71.53 467.73 41.98 459.85 41.98 459.85 35.41 481.52 35.41"/>
  <polygon points="95.36 35.41 95.36 64.97 105.87 64.97 105.87 71.53 89.45 71.53 89.45 35.41 95.36 35.41"/>
  <polygon points="191.9 35.41 197.16 35.41 197.81 64.97 207.67 64.97 207.67 71.53 191.9 71.53 191.9 35.41"/>
  <rect x="427.67" y="35.41" width="5.91" height="36.12"/>
  <path d="M326.53,42.96c.63-2.01,5.78-.44,7.03.53,5.3,4.13,4.16,26.65-7.03,20.49,0-4.03-.8-18.43,0-21.02Z" fill="#fff"/>
  <path d="M493.83,41.44c8.67-1.79,8.23,18.58,4.48,22.91-2.77,3.21-6.02,1.76-7.64-1.64-2-4.21-2.56-20.09,3.15-21.27Z" fill="#fff"/>
  <polygon points="274.65 58.4 268.74 58.4 271.38 45.27 273.68 51.16 274.65 58.4" fill="#fff"/>
  <path d="M122.29,58.4h-5.91s2.64-13.13,2.64-13.13c.94-.16.92,1.16,1.1,1.83,1.01,3.67,1.51,7.56,2.17,11.3Z" fill="#fff"/>
  <path d="M224.09,58.4h-5.91s2.63-13.79,2.63-13.79c1.31.25,1.08,1.39,1.31,2.3.37,1.46,2.39,11.07,1.97,11.5Z" fill="#fff"/>
  <path d="M445.4,52.49v-10.51c7.12-1.58,9.02,4.58,5.64,9.91l-5.64.6Z" fill="#fff"/>
  <path d="M174.17,52.49v-10.51c9.97-2.38,10.04,12.86,0,10.51Z" fill="#fff"/>
</svg>