<?xml version="1.0" encoding="UTF-8"?>
<svg id="Camada_1" xmlns="http://www.w3.org/2000/svg" version="1.1" viewBox="0 0 595.28 841.89">
  <!-- Generator: Adobe Illustrator 29.0.0, SVG Export Plug-In . SVG Version: 2.1.0 Build 186)  -->
  <path d="M.14,840.63V-.06h595v840.69H.14ZM572.78,504.75c5.97,1.79,12.34,3.11,18.41,4.6V3.89H4.74v474.57c7.13-1.84,14.38-3.06,21.7-3.94-7.25,1.9-15.03,3.4-21.7,6.9v99.58c6.57-1,13.19-2.1,19.72-3.29-6.58,1.6-13.12,3.71-19.72,5.26v253.72h586.45v-184.7c-9.46,13.66-24.39,20.83-39.4,27.02,3.39,14.77-.08,29.87-13.85,37.75,8.83,10.26,21,18.95,23.72,33.11,19.6-4.84,23.06,23.09,2.9,24.43-2.2.15-4.06-1.08-6.41-.59-1.97.41-4.01,3.2-5.82,4.07-7.58,3.62-24.26,7.67-31.94,3.83-1.45-.72-3.87-3.87-4.47-3.91-.66-.05-8.4,4.18-12.47,4.46-7.56.51-8.1-2.56-12.02-3.2-3.18-.52-13.91,2.66-15.66-2.69-.63-1.93.14-5.64-.39-6.51-.69-1.14-9.98-1.37-9.51-6.71-7.9.75-38.49,7.06-41.85-2.13-2.16-5.89,16.16-13.32,19.8-16.67-.35-5.13,1.32-34.55-1.19-36.72-7.89-2.6-18.96-2.06-16.96-13.64.29-1.68,1.55-2.99,1.93-4.65,2.81-12.27,6-24.4,9.09-36.58-28.12,5.45-18.77-26.33-10.64-40.55,3.44-6.01,9.85-9.36,13.27-15.32-14.03-3.31-24.28-16.1-20.38-30.89l-57.19-5.92,9.82,69.63-28.82,6.68c-2.45,12.27,9.49,12.44,17.11,17.26,22.26,14.1,5.73,25.96-14.2,24.72-7.62-.48-35.64-6.63-39.05-13.54-2.05-4.14.79-4.78,1.18-7.85.72-5.55-.91-11.81.7-17.37h-30.9c-1.54,5.8,4.34,22.59,1.12,26.76-3.73,4.83-30.34,10.93-36.97,11.35-12.71.81-36.94-4.25-21.64-20.98,4.19-4.58,27.89-11.49,22.99-19.77-1.36-2.29-25.05-5.22-25.92-7.66l11.76-69.9-62.38,5.33c-1.28,13.33-9.4,24.21-21.75,29.18,16.06,6.98,26.45,17.95,31.35,35.03,4.63,16.13.38,32.53-19.52,25.11-.67.92,4.24,18.21,2.54,22.6-.51,1.32-2.32.68-2.59,1.47-1.14,3.32,1.16,7.28,1.39,9.75.52,5.62,1.5,18.04-.9,22.83-1.72,3.42-5.95,3.59-6.4,4.26-1.95,2.9-1.87,22.86-3.85,27.55,5.62,5.82,19.47,11.21,16.07,22-1.95,6.2-24.2,5.54-29.6,5.21-2.78-.17-8.55-2.27-10.5-1.97-1.55.24-4.45,3.85-7.22,4.66-8.57,2.48-32.6-.2-40.03-5.41-8.29-5.81,0-20.17.26-29.13.19-6.48-1.06-15.26-1.35-21.71l-6.6-2.08c-2.09-10.81,2.06-22.64.67-33.41-.61-4.75-3.41-2.21-3.98-5.87-.73-4.73,2.74-29.98.68-31.26l-5.9,1.97c-6.06-23.89,10.18-47.59,34.18-51.6-.13-.61-9.23-4.95-10.84-6.25-2.02-1.63-6.11-7.84-6.9-8.22-2.23-1.04-7.39.1-10.54-.64-3.86-.91-7.21-6.12-7.69-6.26-1.88-.56-13.72,1.48-16.62,1.98,1.86-.4,15.65-3.46,15.76-4.27-5.72-4.81,1.43-13.06,1.19-15.68-.1-1.15-3.95-7.93-4.67-11.06-7.62-32.85,26.13-57.74,56.09-57.39-25.81-12.79-54.47-14.95-82.84-11.51,4.38-1.15,8.85-1.86,13.22-3.03,7.69-27.99,13.09-59.14,34.77-80.13l-.8-1.13c-2.88-1.38-13.51.83-16.95,1.8-4.22,1.2-19.73,9.77-21.36,9.57-4.77-.59,1.28-13.82,3.26-16.48,7.43-9.93,20.83-12.7,32.56-11.17-5.56-6.97-15.68-6.23-23.66-7.88,10.04-13.43,38.36-14.63,44.05,3.95.62.51,7.36-3.91,9.01-4.46,10.04-3.34,22.01-1.34,29.13,6.74,1,1.14,6.25,8.24,3.49,8.94-7.9-1.23-16.09-2.46-23.89-.04-.32,1.81.3,1,.97,1.31,3.71,1.75,6.56,2.15,9.89,5.23,7.51,6.95,9.05,20.42,3.27,28.92-1.38.04-15.16-19.15-20.71-17.73,4.22,8.88,2.05,24.82-9.2,26.94.1-6.37-1.75-13.41-3.94-19.4-.44-1.21-3.93-11.3-6.25-8.87-10.41,23.51-17.22,48.65-20.06,74.28,18.08,1.35,35.29,7.55,52.72,12.04,7.15,1.84,14.62,2.5,21.72,4.58,15.16,4.45,31.44,14.54,32.08,32.02,22.63-9.16,45.25-20.52,70.27-21.12l2.05-11.09c-22.84,3.6-45.22,3.4-67.84-1.53-3.09-.67-18.17-3.86-18.8-6.77l2.49-12.08c-10.83-2.25-33.27-7.32-41.09-15.13-2.77-2.77-5.29-8.04.33-8.55-3.66-5.65-3.11-9.45,4.6-8.54l-1.88-5.06c6.51-8.3,16.84.39,24.89,1.12l.33-5.26c8.46-5.4,11.37,6.12,16.09,10.21,5.28,4.59,30,7.79,37.93,8.75,9.66,1.17,19.43,1.83,29.15,2.07-.5-3.42-.92-6.6-.57-10.1.27-2.64,3.13-8.69,3.08-9.17-.09-.91-3.88-6.78-4.32-9.48-2.67-16.37,9.2-28.82,15.08-43.1,1.45-3.53,1.75-7.73,3.24-11.22,1.15-2.7,9.93-15.04,9.69-16.41-2.55-2.15-4.44-7.29-7.5-8.27-7.36-2.36-40.39.87-43.06-.99l-.33-35.25c6.55-2.31,39.53,1.43,43.08-1.62.46-.39,4.42-8.65,5.79-10.64,5.57-8.06,13.47-14.22,23.07-16.7.79-1.05-.49-19.79.06-23.28.17-1.08.22-2.04,1.34-2.6l43.73.32,1.07,25.55c13.14,4,24.18,14.76,29,27.54l43.23,1.48v36.15h-45.04l-6.76,10.72c3.96,5.57,7.88,11.39,10.5,17.75,2.44,5.91,3.02,11.78,5.01,17.34,4.77,13.31,15.85,18.46,11.76,35.17-.76,3.13-4.13,7.74-4.39,10.13-.49,4.61,2.3,11.6,1.34,16.65,17.98,2.39,35.84-.71,53.56-3.23,2.46-.35,5.17.32,7.72-.17,7.27-1.41,11.82-12.79,17.89-13.06,5.27-.24,4.7,4.15,3.63,7.95.88.79,16.93-7.34,23.01-4.27,2.41,1.22.57,5.05,1.63,6.91.58,1.02,3.59,1.18,4.17,3.09.93,3.03-1.99,3.81-1.82,5.03.29,2.1,6.7,2.73.64,9.32-7.73,8.4-32.27,12.59-43.37,14.15l.49,12.33c-26.39,11.19-55.65,7.71-83.38,4.71l2.61,16.78c27.78,5.39,53.85,15.69,78.51,29.29,5.56-10.41,7.04-20.61,14.89-29.94,20.74-24.66,59.45-24.64,86.1-10.21-.36-24.58-2.32-49.32-9.21-72.95-8.61,6.04-13.05,17.58-15.78,27.6-13.7-5.89-12.22-24.1-3.94-34.17l-30.9,12.48v-9.53c0-8.29,15.75-22.02,24-22.02h9.86c.27,0,1.15,1.69.98-.32-6.19-7.16-15.77-10.37-24.98-11.52-.13-3.13,3.33-4.64,5.69-5.82,14.95-7.48,33.19-3.81,40.01,12.38,12.53-12.96,37.58-13.01,47.01,2.95-.49,1.65-11.73.89-14.49,1.3-2.19.32-15.02,4.72-15.08,6.61,16.67.29,30.95,13.54,28.92,30.88-1.14,9.71-7.08.72-10.21-1.62-7.93-5.93-17.21-11.96-27.26-13.16,11.35,24.64,18.61,51.78,18.5,79.11.29.79,13.13,5.08,15.03,5.68-10.7-3.07-23.92-5.2-34.84-3.62,24.04,19.2,16.88,50.53,19,77.47l36.22,10.28v-75.26c-5.38-3.24-12.43-6.35-18.41-8.22ZM392.64,305.59h-71.33c-.16,0-2.3-2.14-2.3-2.3v-51.93l-.99-.99h-40.43v52.91c0,.14-2.05,1.64-2.3,1.64h-70.02v32.21h64.1c.59,0,8.59-4.69,10.4-5.38,11.84-4.47,27.51-4.56,39.23.45,2.03.87,8.36,5.58,8.88,5.58h64.1l.66-32.21ZM275.61,276.67c-12.22,3.21-23.26,13.95-26.3,26.29h26.3v-26.29ZM348.59,302.96c-3.98-12.46-14.48-22.52-26.96-26.29v26.29h26.96ZM342.02,376.25v15.45c12.32-3.71,15.24,9.72,8.89,17.76-2.13,2.7-7.88,5.37-8.82,6.96-1.18,1.99-1.34,7.85-3,11.46-2.44,5.29-7.59,9.25-10.21,14.43l35.4,3.85c2.45-5.68-1.84-11.55-1.23-17.33.43-4.07,4-8.42,4.54-13.21,1.49-13.29-6.25-17.78-11.21-28.08-6.71-13.92-6.21-25.06-17.3-37.91-29.18-33.81-75.99-20.84-93.15,17.32-2.95,6.55-3.51,13.31-6.14,19.5-5.06,11.91-15.52,17-10.87,32.56.91,3.04,3.78,6.69,3.93,9.26.27,4.64-4.36,8.29-3.22,14.35.31,1.63,2.26,2.93,1.94,4.97l34.83-4.61c1.17-1-10.47-12.82-11.31-14.65-1.56-3.39-1.61-12.67-2.65-14.11-.76-1.05-6.99-3.45-9.05-6.41-5.96-8.58.1-21.87,11.17-18.74l2.09-16.31c15.37-4.24,32.76-9.35,41.24-24.03l1.37-.41c6.52,18.41,28.4,19.24,42.75,27.93ZM263.78,339.77h-12.49l4.33,6.62c1.39.26,7.11-5.06,8.16-6.62ZM344.65,339.77h-11.83l7.55,7.89,4.29-7.89ZM298.61,352.26c-.8-.47-5.79,6.27-7.21,7.56-9.34,8.42-22.33,10.6-33.6,15.22-1.77,9.98-3.87,25.05,2.15,33.96,9.04,13.39,20.59-3.88,31.07-4.86l5.64-13.09c2.18,4.38-2.18,9.39-3.19,13.6.15,3.81,13.96.2,17.82,1.01,6.07,1.27,11.46,10.85,19.79,6.99s10.25-28.59,8.67-36.76c-14.95-4.76-32.75-8.9-41.14-23.62ZM90.22,373.95c-1.59-16.29-20.88-19.07-33.33-13.27-.72.33-6.79,3.64-5.46,4.72,8.66-.47,20.24,2.2,23.66,11.17-16.3-4.24-37.98,2.27-38.78,21.69,12.91-4.87,28.02-14.57,42.06-8.21l-10.5,11.49,10.19,3.94c1.32-.19,3.07-14.46,7.92-11.21,3.86,2.4,9.81,23.75,8.84,28.97,7.7-3.45,10.39-14.93,6.7-22.15-1.37-2.67-5.15-4.12-5.39-7.42,10.84,2.96,19.63,10.52,26.62,19.04,5.4-8.11.8-22.24-7.77-26.39-1.34-.65-12.87-3.26-12.28-4.48,8.81-4.81,19.32-3.5,28.92-2.64-4.09-12.58-23.15-16.71-33.76-10.41-2.43,1.44-4.25,5.31-7.65,5.16ZM559.31,394.98c4.09-.56,9.25.41,13.48,0-7.22-10.58-22.92-12.83-34.21-7.58-4.71,2.19-6.72,6.21-10.81,8.9-4.94-18.55-27.48-23.09-41.76-12.5,9.62,3.54,22.26,6.46,26.29,17.1-17.56-6.28-37.64,5.99-38.12,24.98,11.47-4.26,22.09-11.62,34.84-11.82-.96,3.15-4.4,4.62-6.05,7.42-6.24,10.58-3.83,17.72,3.42,26.76,2.53-10.63,8.4-20.05,15.8-27.97,3.04-1.24,4.45,8.48,4.63,10.18l11.8-1.28-5.26-12.48c15.15.72,27.26,10.32,38.78,19.05,2.84-11.72-4.4-24.61-15.79-28.57-5.15-1.79-10.27-1.06-15.09-3.3-.18-2.28,15.55-8.53,18.06-8.87ZM253.25,412.07c-.94-3.86,3.55-18.68.01-20.7-14.44-2.25-11.96,19.31-.01,20.7ZM342.68,413.39c7.55-.63,13.41-18.24,5.44-20.23-10.41-2.61-4.36,15.1-5.44,20.23ZM76.4,406.16l-9.86-2.35-5.92,11.53,11.86,2.35,3.92-11.54ZM340.7,404.18c-1.53-.39-1.1.35-1.52.83-2.01,2.34-2.34,5.72-5.04,8.07-10.19,8.86-18.37-6.13-27.96-6.11-2.96,0-5.49,1.91-8.55,1.89-3.28-.03-3.72-1.64-5.96-2.01-9.89-1.62-17.05,14.95-29.97,6.97l-5.82-6.34c-8.92,40.39,51.42,54.91,74.27,29.23,4-4.49,10.54-16.37,10.54-22.33v-10.19ZM72.46,419.97c-3.01.25-10.95-4.27-13.15-2.99l-6.57,15.47,15.11,2.64,4.61-15.12ZM157.89,465.93l5.07-25.31c-3.78-1.26-11.94-16.48-15.6-13.81-1.33.97.42,10.97,1.03,12.87.25.77,5.84,9.13,2.63,8.55-3.52-.63-3.55-8.7-4.59-11.19-1.81-4.35-18.76-9.74-23.36-6.91-5.22,5.55,14.3,7.9,16.17,8.85.93.47,1.87.63,1.6,2.01-3.33,1.03-24.21-8.03-24.36-1.65.88,5.43,20.12,7.18,19.75,10.52-.17,1.51-1.71.42-2.27.33-5.38-.92-12.5-7.32-17.8-3.27-2.36,4.67,12.13,10.38,15.3,11.68,3.36,1.38,24.78,8.74,26.43,7.34ZM540.47,431.23l-12.39,1.22,2.63,13.8,13.81-1.98-4.04-13.04ZM447.21,433.11c-8.26,1.72-11.81,12.92-21.02,13.16l6.32,24.88c8.43.34,40.94-7.32,43.7-15.35,2.59-7.53-13.05-.44-15.98-.12-1.11.12-1.52.96-2.49-.54,5.83-3.77,15.66-2.15,18.3-9.98.26-.71-.39-1.21-1-1.41-5.56-1.85-15.25,4.19-21.26,3.83,2.3-3.95,18.43-3.75,17.8-9.51-.38-3.5-9.94-.81-12.16-.3-2.35.54-9.52,2.64-11.14,3.98-3.6,2.99-1.2,11.73-6.98,12.4l5.91-21.03ZM67.2,436.39l-15.16-1.68-3.21,14.79,15.64,1.91,2.73-15.02ZM350.01,487.56c19.71,3.79,39.96,5.03,59.96,2.64,3.55-.43,21.08-2.8,21.98-5.62s-2.83-21.48-3.88-25.44c-.77-2.91-3.52-12.45-5.98-13.14-4.09-1.14-24.64,3.8-31.11,4.18-11.85.7-27.5-.47-39.35-2.05-6.69-.89-19.91-5.19-25.66-4.5-4.08.48-9.27,10.91-12.25,14.1-10.42,11.16-28.06,8.37-36.55-3.5-2.39-3.34-2.79-8.19-7.12-9.35-5.86-1.57-20.76,2.7-27.65,3.34-25.76,2.38-51.48-1.64-76.49-7.13-1.53,4.25-2.7,8.64-3.72,13.04s-4.54,20.32-4.29,24.06c.06.95.06,1.16.69,1.93,1.54,1.88,21.83,6.14,25.5,6.71,19.36,3.01,38.91,2.62,58.23-.45l3.72-18.76,1.23.76-28.18,160.61c49.4,12.51,101.06,11.38,150.55-.03l-24.25-158.3,2.56-.74,2.08,17.64ZM545.79,446.95l-13.78,1.27,1.28,14.18,15.17-1.03-2.67-14.42ZM317.69,448.88c-13.57,3.04-27.26,2.83-40.77-.32,8.35,19.38,31.46,18.89,40.77.32ZM42.22,471.23h19.07l1.98-17.75c-4.6.57-11.52-3.63-15.78-1.64-3.03,1.41-4.04,15.87-5.26,19.39ZM551.7,479.73c.58-5.48-.37-10.42-2.57-15.43l-15.8.35,1.33,16.44,17.04-1.36ZM534.65,482.4v15.78l19.73.66c.6-5.81-1-11.36-1.32-17.1l-18.41.66ZM81.66,537.29c.42-2.88-.3-6.54,0-9.53l2.58,6.29c5.48,1.28,11.77-1.79,15.18-5.94,2.72-3.31,3.09-8.88,7.21-9.54l.95,10.55c9.17,1.44,18.43-6.83,22.44-14.54,8.93,4.61,17.82,12.36,28.54,7.92.67.56,2.71,14.55,3.79,16.93.41.9.11,1.02,1.47.82,9.8-19.72,1.52-38.74-17.96-47.43-38.6-17.22-111.66,7.41-86.57,59.66,5.58-2.72,10.26.43,15.78-.06,1.81-.86,6.24-12.84,6.57-15.12ZM505.72,592.16c10.46,2.15,19.44,7.03,25.94,15.51,8.06-1.28,19.18-6.31,20.56-15.35,2.3-15.02,2.03-49.22-1.58-63.8-10.71-43.26-64.5-52.78-96.21-26.08-13.1,11.03-23.71,37.95-29.22,54.27-4.34,12.84-8.42,22.9,3.57,33.17,11.97,10.24,19.54,3.15,32.88,1.63-7.74-6.01-17.49-9.09-21.6-18.82-5.18-12.26.37-21.54,3.52-33.1.72-2.63,2.17-15.08,4.04-15.73,11.69,2.59,22.95-3.02,32.9-8.47,2.33-1.27,3.16-4.11,6.34-3.46,2.92,6.9,5.18,14.31,12.07,18.32.64.37,6.16,3.57,6.13,1.11-.02-1.8-6.08-12.61-4.61-14.13.07-.07,1.89-.07,1.96,0,.3.29,1.42,6.35,2.13,8.06,2.17,5.24,5.62,11.98,9.68,15.95,5.14,5.02,12.02,6.13,11.89,15.41,17.98-5.84,21.03,17.78,5.38,22.18-3.9,1.1-7.96-.22-10.93.9-2.6.98-7.3,7.05-9.93,9.14-1.59,1.26-3.89,1.49-4.93,3.28ZM240.11,501.47c-18.12.61-36.58,6.38-53.04,13.68-2.21.98-15.77,7.32-16.48,8.17-1.19,1.41-1.3,7.86-1.94,10.22-.98,3.63-4.52,7.9-4.84,10.3-.7,5.37,4.11,12.84,2.66,18.76l62.5-4.9,11.14-56.23ZM360.52,558.56l59.44,5.17,10.72-24.4c-23.03-15.04-50.06-25.81-77.49-29.32l7.32,48.55ZM486.65,515.27c-12.79,3.97-23.66,13.21-38.06,11.25-3.72,19.47-17.42,41,2.34,56.34,15.78,12.24,48.59,13.28,64.11.06,1.37-1.17,5.05-6.29,5.58-6.45.86-.26,4.91,1.51,7.71,1.19,15.42-1.73,15.54-25.72-3.49-18.38-1.71-2.75-1.24-6.96-2.66-9.53-1.32-2.38-7.89-5.96-10.15-8.26-1.45-1.48-3.1-5.66-4.62-6.55-1.75-1.02-5.56-.95-7.97-1.89-5.96-2.35-11.84-11.45-12.8-17.78ZM157.85,525.86c-9.82.4-18.72-2.59-26.46-8.57-6.51,7.8-14.95,15.83-25.99,14.33l-1.34-4.79-1.35-.38c-3.8,7.36-11.9,9.47-19.41,11.17-1.38,6.22-3.3,12.53-7.57,17.44-3.41,1.6-8.73-5.89-15.48.27-5.02,4.59-3.32,14.27,1.03,18.76,5.42,5.6,11.37,1.22,15.77,3.29,1.05.49,2.94,4.85,4.25,6.27,12.96,13.97,45.9,15.75,62.6,8.64,29.42-12.52,18.76-42.23,13.94-66.43ZM591.19,590.2l-36.16-9.2v10.19c0,.34-2.08,5.28-2.5,6.05-3.76,6.95-12.75,11.61-20.52,12.03-.76.71,2.63,6.53,2.63,7.56v13.47c6.12-4.03,19.81-19.6,27.39-11.6,12.01,12.67-16.76,35.6-24.45,43.8l1.33,2.63c10.91-11.24,29.03-29.06,46.05-26.97,2.88.35,3.87,1.31,6.21,2.66v-50.61ZM498.48,592.83c-9.25,1.88-19,1.89-28.26,0,.32,16.61,25.33,13.22,28.26,0ZM468.18,593.56c-18.45-2.1-36.01,7.3-42.66,24.9,5.23-.08,15.75,8.74,19.1,2.34s1.56-11.69,8.63-18.98c13.43-13.84,20.64,11.72,26.56,19.23,3.82,4.84,12.21,8.49,18.03,9.91.66-6.92,2.51-14,6.57-19.72l-3.22,16.37,30.83,8.6c5-17.36-3.24-35.86-21.03-41.09-14.53-4.27-9.33,3.62-19.05,8.58-10.2,5.2-22.17,2.3-23.77-10.14ZM155.3,626.35c2.33.46,16.68-.92,17.04-2.94-4.59-13.7-24.13-32.82-39.59-26.5-7.21,2.95-6.56,16.34-21.51,12.03-12.89-3.72-5.88-15.42-21.82-11.96-19.68,4.26-31.97,25.87-28.76,45.13l15.08-3.91-9.25,3.66c4.8,36.25,48.48,8.93,63.17-4.65,5.46-5.05,14.22-21.78,14.47-28.93.35-9.89-9.69,8.44-11.84,8.21.18-5.37,6.56-8.3,8.54-13.13l-3,.61-8.83,8.58c.15-5.22,5.86-8.36,9.2-11.5-13.29.84-16.75,19.71-24.36,25.6-1.8,1.39-26.9,11.49-28.63,11.52l-6.83-1.28,13.53-3.93c.62-.92-1.39-11.57-1.4-13.84,0-1.04-.79-1.69.7-2.61,2.6-.5,2.41,13.26,3.67,15.05,1.75,1.11,16.05-5.47,18.01-7.17,8.6-7.49,14.71-32.1,31.18-22.62,11.65,6.71,4.62,15.04,9.92,23.94-2.86-.41-3.14.77-3.96,3.28-3.97-1.13.22-8.02.02-12.13-.13-2.71-1.84-8.42-3.95-10.22-.9,10.35-7.23,18.87-10.41,28.49,6.4,8.71,23.12,23.21,34.65,17.78,8.11-3.82,7.15-21.21,1.42-26.85l-8.58,1.62,2.95,3.29c-3.59-.97-7.46-3.51-10.84-4.61ZM127.02,598.09l-25.63-1.97c2.68,12.59,22.81,16.66,25.63,1.97ZM478.35,623.48c-5.38-5.6-7.7-22.96-17.99-23.75,3.98,3.81,8.32,7.66,9.19,13.48-4.63-2.94-6.26-12.79-13.15-10.86-1.4.79,3.59,4.78,4.24,5.64.81,1.07,5.06,7.43,4.98,8.16-1.18,1.47-.93.85-1.99.03-.85-.65-9.41-16.66-9.87-7.28-.23,4.67,6.16,19.81,8.94,23.99,9.25,13.88,35.8,31.75,52.18,20.7,3.93-2.65,11.04-11.77,9.64-16.77-.8-2.84-18.81-6.82-22.39-7.2-6.19,3.6,5.23,4.83,1.95,7.89-6.11-6.04-20.04-8.11-25.72-14.03ZM451.81,608.61c-4.89,1.57-2.97,10.88-4.96,13.77s-14.8,5.99-17.72,9.88c-3.16-3.34,8.43-5.6,7.56-7.54-15.86-14.02-21.55,20.52-11.77,25.57,11.96,6.17,27.96-9.46,33.8-18.71.66-2.15-2.54-5.23-3.43-7.72-1.7-4.76-2.61-10.27-3.48-15.25ZM524.88,659.13c2.41.06,7.79,3.55,9.73,3.06,3.06-.77,19.2-18.28,21.61-21.83,5.08-7.48,12.99-27.38-4.27-20.7-11.29,4.37-26.92,27.16-27.07,39.48ZM497.83,659.22c-17.09-3.09-25.83-16.68-38.78-26.3-3.64,8.78-11.95,14.63-20.05,19.08-2.69,16.3-10.97,31.98-10.53,48.62,2.27,4.85,43.57,10.38,50.29,7.88-11.14-15.15-4.07-30.43,8.9-41.38,1.34-1.13,10.98-6.96,10.17-7.9ZM67.21,653.96c.43,5.44-2.09,15.65-.53,20.57.77,2.41,7.36,3.53,9.71,4.1,25.39,6.07,56.73,4.87,81.44-3.35.31-1.07-3.58-20.9-4.21-21.94-.8-1.33-6.07-3.84-7.84-5.31-4.21-3.49-7.99-7.37-11.99-11.08-18.52,11.6-44.93,38.16-66.58,17.02ZM275.61,639.5l-29.58-2.63c.5,6.93-4.42,10.71-10.52,12.5,3.36,3.47,8.72,4.1,12.43,6.95,2.34,1.8,7.27,9.36,9.17,9.78,6.32-.94,13.12-3.02,18.5-6.55v-20.05ZM340.7,636.87l-29.49,2.72c-1.22.75-2.77,16.6-1.73,18.98l20.7,7.58c4.4-7.51,9.83-12.79,18.41-15.15-5.58-4.01-8.41-6.61-7.88-14.13ZM529.39,638.18l-2.58.05c.36,8.79-8.98,11.93-11.88,19.01l7.88.65,6.58-19.71ZM583.06,658.98c5.4-5.32,12.29-19.72-.63-19.42-15.68.36-32.6,17.1-42.99,27.45-4.55-1.35-8.3-4.53-12.82-6.01-16.99-5.55-31.62-.64-42.93,12.67-19.67,23.14-4.37,38.43,20.16,44.27.98.23,13.29,1.17,11.07,3.06l-20.69-2.66c-7.68,13.8-5.13,29.83-5.7,44.96-2.89,2.21-5.8,1.59-8.7,4.44-2.51,2.47-5.37,8.28.25,8.47.35-.39-.74-5.92,1.97-5.25-.64,6.8,2,10.35,6.25,3.29.61-.08-.1,3.65,1.96,3.28.8-.14,9.75-10.89,10.54-12.48.94-1.87,4.4-13.1,4.13-14.64-3.11-5.98-13.29-10.26-9.39-18.24,1.21,6.43,5.07,11.54,9.87,15.78l5.02-10.08,1.88-.75c-3.8,8.5-5.87,21.36-10.19,29.25-1.9,3.47-13.02,11.68-4.94,13.14.89-8.62,6.64-7.23,1.32.65h5.26s0-3.94,0-3.94c2.86-.52,1.87.93,1.97,3.29,10.06.34,10.68-12.82,14.11-19.75,2.6-5.26,8.06-12.36,13.48-14.79,2.3-1.03,6.67-3.17,8.57-.31-9.67-.08-21.27,11.48-16.27,21.2,1.55,3.02,5.02.93,5.09,3.78-6.57-2.64-18.08,8.72-7.89,10.24l3.28-4.97-1.96,5.91c30.49,3.75,47.16-16.73,29.46-44.23-5.42-8.41-12.77-13.45-20.21-19.77,2.79-2.94,6.78-3.04,9.81-6.01,3.2-3.13,8.58-15.25,8.49-19.64-.05-2.53-4.35-11.97-3.17-13.48,11.09-3.37,26.25-10.52,34.55-18.7ZM224.33,656.58c5.57.86,11.69,2.14,15.81,6.22,5.86,5.82,3.84,8.65,15.08,3.98-6.2-8.69-21.51-21.34-30.88-10.2ZM359.76,656.58c1.23-1.9-5.93-3.8-7-3.88-8.37-.61-18.45,6.87-19.96,15.06,3,.13,7.12,2.15,10.06,1.19,1.44-.47,5.64-7.69,8.38-9.37,2.53-1.55,5.8-1.8,8.51-3ZM239.88,664.71c-4.85-5.28-22.98-11.47-20.81,1.74,4.26.99,3.78-1.36,6.57-3.29l-1.3,5.25,7.88-2.62c-2.51,5.92,5.57,4.19,9.2,2.94,1.14-.67-.97-3.41-1.54-4.02ZM364.86,659.39c-4.83-4.09-18.58,4.07-18.89,10.34h7.88s-1.3-3.94-1.3-3.94c3.41.72,4.71,4.72,8.56,2.98,1.74-.99-3.39-5.01-.99-6.26,3.66-.48,2.75,6.52,6.17,4.53,1.07-.62-.42-6.79-1.42-7.64ZM217.76,668.43c8.42,13.77,49.11,5.13,58.47-3.01,1.27-1.1,4.63-5.37.92-4.36-5.67,1.56-12.05,5.46-18.49,7.17-13.86,3.69-27.02,3.87-40.9.2ZM367.65,668.42c-12.15,5.16-24.56,3.56-36.95.47-7.18-1.79-14.38-5.58-21.13-7.16-3.03-.71-1.09,2.95.06,4.09,4.73,4.69,25.15,9.11,32.07,9.82,8.1.83,23.06,2.47,25.95-7.21ZM154.64,678.93c-27.49,6.46-56.7,7.08-84.15,0,.78,9.81-2.21,22.37-.7,31.91.57,3.63,9,3.84,12.22,4.22,6.74.8,25.5,2.38,31.26.38,6.05-2.1-.56-21.38,9.48-22.07,1.64,2.64-2.18,2.57-3,3.74-1.24,1.77-2.91,15.89-1.3,17.02,11.67-.03,25.74,2.19,36.2-3.33v-31.88ZM445.89,708.51v36.48c5.68,6.07,14.3,8.93,22.05,4.95l.96-38.79-23-2.64ZM477.45,710.48l-5.9.67c-3.9,14.65-.82,29.72-1.32,44.69l10.36-6.31-3.13-39.04ZM491.91,716.43l-11.16-5.95.67,34.49c.35,2.16,2.76,2.53,4.28,3.61l6.21-32.15ZM148.07,715.08l-28.27,1.32c2.74,8.51,1.21,18.79.01,27.58,7.97,1.95,16.83,2.23,24.67-.61l3.59-28.3ZM107.31,717.72l-29.58-1.96-1.02,28.93c1.7,2.65,22.31,2.77,26,.98l4.59-27.95ZM117.82,715.74l-8.56,2.44-3.95,26.85c.16,3.41,7.55,6.45,10.2,8.18,3.2-.75,3.65-33.01,2.31-37.47ZM149.38,746.65l-29.16.08c-1.78.67-2.64,7.61-2.26,9.29,2.46,11.08,34.09,4.79,42.18,4.32,2.7-.75-2.6-7.7-4.21-8.74-6.24-4.03-12.68.07-18.37,2.92-2.18-2.79,9.63-5.85,10.9-6.51.69-.35,1.23.32.92-1.37ZM107.96,749.93l-31.53-2.62-2.71,11.39c11.94,5.54,26,8.12,39.19,7.01,6.5-.55,7.63-1.25,4.17-7.5-6.11-11.04-18.48-.13-20.3-1.73,1.07-3.48,7.4-3.67,10.34-5.1l.83-1.46ZM468.24,751.9c-3.85,1.01-8.06,2.57-12.11,1.92-4.29-.68-8.45-6.68-12.38-6.38-3.35.25-23.51,11.55-16,15.04,5.04,2.35,37.84,2.11,40.16-3.37.87-2.06.1-4.99.34-7.21ZM486.66,751.24c-6.03-1.9-25.98,11.21-14.69,15.67,6.71,2.65,8.19-4.36,14.69-4.5v-11.17ZM573.21,768.75c4.83-4.6,3.75-14.45-2.67-16.9-9.43-3.6-7.42,4.97-8.48,11.34-.5,3.02-1.38,5.84-2.37,8.71.82,3.26,11.59-1.3,13.53-3.14ZM523.47,760.44c-3.34-.32-6.36,9.38-5.25,10.51,6.89.02,5.17-5.49,5.25-10.51ZM119.13,766.36c-10.42,2.49-21.32,1.43-31.68-.86-4.07-.9-8.77-3.27-12.53-3.93s-.88,2.33.61,3.36c4.55,3.13,23.67,6.57,29.49,6.67,4.46.07,12.68-.12,14.12-5.24ZM121.12,762.41c-.26,4.21,6.91,4.98,10.16,5.28,4.2.38,29.82.22,30.59-4.3l-1.02-1.58c-12.96,2.5-26.73,2.88-39.74.61ZM517.55,775.55c.06-.08.27-1.95-.32-1.96-2.06,1.22-.38,2.95.32,1.96Z"/>
  <path d="M572.78,504.75c-.7-.21-1.32-.45-1.97-.66.73.21,1.31.45,1.97.66Z"/>
  <path d="M155.3,626.35c-.51-.1-.97-.24-1.31-.66.59.08.96.54,1.31.66Z"/>
  <path d="M34.33,575.74c-3.22.55-6.58,1.38-9.86,1.97,3.51-.85,6.67-1.24,9.86-1.97Z"/>
  <path d="M40.9,574.42c-2.17.47-4.46.83-6.57,1.31,2.02-.34,4.25-.92,6.57-1.31Z"/>
  <rect x=".14" y="840.63" width="595" height="1.31" fill="#fff"/>
  <path d="M26.44,474.51c-7.31.89-14.57,2.11-21.7,3.94V3.89h586.45v505.46c-6.06-1.49-12.44-2.81-18.41-4.6-.66-.21-1.25-.45-1.97-.66-1.9-.6-14.73-4.89-15.03-5.68.11-27.33-7.15-54.47-18.5-79.11,10.05,1.2,19.33,7.23,27.26,13.16,3.13,2.34,9.07,11.33,10.21,1.62,2.03-17.34-12.25-30.59-28.92-30.88.06-1.89,12.9-6.29,15.08-6.61,2.76-.41,14,.35,14.49-1.3-9.43-15.96-34.48-15.91-47.01-2.95-6.82-16.19-25.06-19.86-40.01-12.38-2.36,1.18-5.82,2.68-5.69,5.82,9.21,1.15,18.79,4.35,24.98,11.52.17,2.01-.71.32-.98.32h-9.86c-8.24,0-24,13.73-24,22.02v9.53l30.9-12.48c-8.29,10.07-9.77,28.29,3.94,34.17,2.73-10.02,7.17-21.56,15.78-27.6,6.89,23.63,8.85,48.37,9.21,72.95-26.65-14.43-65.36-14.45-86.1,10.21-7.85,9.33-9.33,19.52-14.89,29.94-24.66-13.6-50.73-23.9-78.51-29.29l-2.61-16.78c27.73,2.99,56.99,6.48,83.38-4.71l-.49-12.33c11.1-1.56,35.64-5.75,43.37-14.15,6.07-6.59-.34-7.21-.64-9.32-.17-1.21,2.75-1.99,1.82-5.03-.59-1.92-3.59-2.07-4.17-3.09-1.06-1.87.78-5.69-1.63-6.91-6.08-3.07-22.13,5.06-23.01,4.27,1.07-3.8,1.63-8.19-3.63-7.95-6.08.27-10.62,11.65-17.89,13.06-2.55.49-5.26-.18-7.72.17-17.71,2.52-35.57,5.62-53.56,3.23.95-5.06-1.84-12.05-1.34-16.65.26-2.39,3.63-7,4.39-10.13,4.09-16.71-7-21.85-11.76-35.17-1.99-5.56-2.57-11.42-5.01-17.34-2.62-6.36-6.53-12.18-10.5-17.75l6.76-10.72h45.04v-36.15l-43.23-1.48c-4.81-12.78-15.85-23.54-29-27.54l-1.07-25.55-43.73-.32c-1.12.56-1.17,1.53-1.34,2.6-.55,3.49.73,22.23-.06,23.28-9.59,2.48-17.5,8.64-23.07,16.7-1.38,1.99-5.34,10.24-5.79,10.64-3.56,3.06-36.54-.69-43.08,1.62l.33,35.25c2.67,1.86,35.7-1.37,43.06.99,3.07.98,4.95,6.11,7.5,8.27.25,1.37-8.53,13.71-9.69,16.41-1.49,3.49-1.79,7.69-3.24,11.22-5.88,14.28-17.76,26.73-15.08,43.1.44,2.69,4.23,8.56,4.32,9.48.05.48-2.81,6.53-3.08,9.17-.35,3.5.07,6.68.57,10.1-9.73-.24-19.5-.91-29.15-2.07-7.92-.96-32.65-4.16-37.93-8.75-4.72-4.1-7.63-15.62-16.09-10.21l-.33,5.26c-8.06-.73-18.38-9.42-24.89-1.12l1.88,5.06c-7.7-.91-8.26,2.89-4.6,8.54-5.62.51-3.1,5.79-.33,8.55,7.82,7.81,30.26,12.88,41.09,15.13l-2.49,12.08c.63,2.91,15.71,6.1,18.8,6.77,22.62,4.92,45,5.13,67.84,1.53l-2.05,11.09c-25.02.6-47.64,11.96-70.27,21.12-.64-17.48-16.92-27.57-32.08-32.02-7.1-2.08-14.56-2.74-21.72-4.58-17.43-4.49-34.64-10.69-52.72-12.04,2.85-25.63,9.66-50.77,20.06-74.28,2.32-2.43,5.81,7.67,6.25,8.87,2.19,5.98,4.04,13.02,3.94,19.4,11.25-2.12,13.42-18.05,9.2-26.94,5.55-1.42,19.33,17.77,20.71,17.73,5.78-8.5,4.24-21.97-3.27-28.92-3.33-3.08-6.18-3.48-9.89-5.23-.67-.32-1.29.5-.97-1.31,7.8-2.42,15.99-1.19,23.89.04,2.76-.69-2.49-7.8-3.49-8.94-7.12-8.08-19.09-10.08-29.13-6.74-1.66.55-8.4,4.96-9.01,4.46-5.69-18.58-34.01-17.38-44.05-3.95,7.99,1.65,18.1.91,23.66,7.88-11.73-1.53-25.13,1.23-32.56,11.17-1.99,2.66-8.04,15.89-3.26,16.48,1.63.2,17.13-8.37,21.36-9.57,3.43-.97,14.07-3.19,16.95-1.8l.8,1.13c-21.68,20.99-27.08,52.14-34.77,80.13-4.37,1.17-8.84,1.88-13.22,3.03,28.36-3.44,57.03-1.28,82.84,11.51-29.96-.35-63.72,24.55-56.09,57.39.73,3.13,4.57,9.91,4.67,11.06.24,2.63-6.91,10.87-1.19,15.68-.11.81-13.9,3.87-15.76,4.27-2.32.39-4.56.97-6.57,1.31-3.2.73-6.35,1.12-9.86,1.97-6.54,1.19-13.15,2.28-19.72,3.29v-99.58c6.67-3.5,14.45-5,21.7-6.9ZM157.84,45.87c2.37-8.55,1-13.12-8.19-14.31-31.15-4.02-29.07,51.32,2.49,43.12,1.04-.27,4.47-1.54,5.11-2.12,1.99-1.82,2.54-11.86-.97-11.89-19.45,14.62-22.41-22.57-5.32-17.27,2.51.78,3.95,3.37,6.88,2.47ZM174.21,31.67c-19.1,2.79-20.39,37.89-1.95,43.01,30.38,8.44,32.82-47.52,1.95-43.01ZM229.17,70.04c3.24,3.64,9.7,5.71,14.53,5.48,27.07-1.28,21.11-55.35-9.44-42.32-11.94,5.09-12.94,28.01-5.09,36.84ZM445.74,31.67c-18.77,2.75-20.1,37.25-2.45,42.86,30.37,9.65,33.78-47.44,2.45-42.86ZM210.52,63.05v-28.59c0-3.43-11.47-3.11-12.38-.54l.32,39.5c.68,1.51,2.51,1.36,3.81,1.49,6.68.66,15.32-.04,22.05-.68v-10.19l-.99-.99h-12.82ZM274.96,73.23c.78-2.59-.58-8.76,0-11.83,1.31-1.92,2.53-.42,3.58,1.02,4.79,6.55,1.5,15.3,14.47,12.43,5.92-1.31-3.3-16.06-4.8-19.49,11.16-21.24-6.53-26.03-24.17-22.62-.81.64-.8,1.43-.95,2.34-.71,4.43-.68,33.29.19,37.37.15.69.3,1.41.94,1.83,2.16.81,9.97,1.49,10.74-1.04ZM371.6,73.23v-16.1c6.6,8.64,5.19,23.7,20.61,16.28l.32-39.5c-.98-2.76-9.31-1.86-11.72-1.1v17.09c-2.7-2.03-6.87-16.24-8.33-17.14-2.08-1.28-12.7-1.82-12.7,2.35v36.48l-11.83-38.29c-1-1.7-11.88-1.73-13.21-.22l-11.13,36.53-1.64-6.57h-12.49c-1.47-1.13-1.47-3.47,0-4.6h11.18l.99-.99v-10.19l-12.05-.77-1.09-2.52h12.16c.34,0,1.37-.74,1.69-1.11,1.08-1.76,1.06-9.83-1.13-10.63l-23.97.83c-.59,4.95-1.57,39.58.44,41.1,1.61,1.22,17.65.79,21.03.74,2.64-.04,4.69,0,7.18-.02,6.82-.07,8.89,1.02,10.13-6.87l9.98-.09c.83.58,1.27,5.23,2.1,6.1,1.1,1.16,12.32,2.13,11.01-1.79,2.08-.61.81,1.44,1.7,2.03,1.61,1.07,10.05,1.09,10.79-1.05ZM396.59,33.8v39.44c0,2.33,11.3,1.8,13.46,1.63,28.44-2.25,26.55-40.6,1.35-42.73-2.56-.22-14.09-.72-14.82,1.67ZM524.35,70.06c1.15,1.47,6.51,4.04,6.93,5.27.98,2.88-4.51,10.2.09,12.36,4.26,2.01,9.25-3.65,12.82-3.65,3.77,0,7.43,5.11,12.49,3.98,6.45-2.63-.09-10.4.42-12.68.67-2.96,10.76-6.53,6.84-11.02-2.56-2.94-8.48-1.02-12.16-3.61-3.62-2.54-3.57-10.32-8.86-9.52-4.04.61-4.25,7.58-6.95,9.54-3.85,2.79-11.26.21-13.12,5.9-.04.75.98,2.75,1.51,3.42ZM159.24,134.03v-29.25c-2.73-2.5-9.12-2.49-11.83,0v40.1c4.57,3.46,11.15.89,16.11.92,3.23.02,17.97,1.63,19.46-.36.61-.83,1.15-5.53,2.03-6.03,2.28.09,8.63-.86,10.1.52,2.65,2.48-1.67,7.16,8.55,6.62,3.1-.17,5.18-.32,4.65-3.97-.67-4.6-9.23-32.71-11.24-36.81-1.66-3.39-11.52-3.81-13.52-1.5-2.28,2.64-8.5,30.93-10.15,31.07-1.65-2.77-13.3-.47-14.14-1.3ZM224.33,104.78v40.1c2.81,2.61,8.84,2.28,11.83,0v-12.16c19.15,5.18,24.63-24.71,8.7-28.74-3.13-.79-19.54-2.07-20.53.81ZM288.76,145.87c.37-1.24.55-1.96.39-3.29-1.27-10.82-9.65-25.86-11.52-37.19-.79-3.43-11.98-2.74-13.24-1.14l-12.11,39.73c5,4.85,13.09,3.63,13.43-4.39,2.14-.27,9-.95,10.24.36.65.68,1.39,5.92,2.62,5.92h10.19ZM290.08,103.8v42.07l33.06.51c3.27-.74,3.18-4.38,3.83-7.01l10.49.21,2.26,6.29h9.86l1.01-1.66-12.67-40.63c-2.95-.46-9.9-1.38-11.99.9-2.75,3-8.32,29.77-9.56,30.87-.68.07-1.36-1.31-1.64-1.31h-12.82v-28.59c0-.28-.76-1.48-1.11-1.69l-10.72.05ZM351.22,104.78v40.1l.99.99h19.72c.83,0,5.11-2.52,5.91-3.3,3.36-3.29,3.65-9.59,2.82-13.97-.38-2.02-2.9-4.92-2.91-5.4-.01-.58,2.4-4.58,2.46-7.24.08-3.76-1.89-8.64-5.28-10.55-3.63-2.05-22.53-4.03-23.7-.62ZM396.59,144.22c.66-3.39-.48-8.54,0-12.16l2.52.12,6.47,13.57c.87.32,17.62.65,18.5.37,3.64-1.17,2.29-6.39,3.85-6.86l10.01.1,2.47,6.41,10.1-.23.7-1.94c-2.22-5.19-10.14-38.03-12.93-39.73-2.16-1.32-10.47-1.32-12.13.89l-10.82,33.89c-.32-1.98-6.04-11.49-6.04-12.17,0-.51,3.64-5.07,3.79-9.2.57-16.52-16.4-14.95-28.15-13.31l-.8,39.58c.73,3.54,11.8,4.14,12.47.68ZM108.46,169.04c-23.73,3.54-23.54,53.5,2.47,55.02,126.22-.74,252.82,1.57,378.81-1.16,20.35-6.97,19.34-51.4-4.09-54.02l-377.2.16ZM255.89,264.18l-10.49-12.18-4.62-2.27c.37,2.39,13.67,15.83,15.12,14.45ZM359.11,249.73c-1.75-1.41-15.64,11.88-15.11,15.11,6.38-3.49,10.87-9.43,15.11-15.11ZM414.2,261.4c-2.68.38-11.59-.42-12.36,3.12-1.3,5.96,6.19,6.5,7.11,9.32,1.39,4.3-2.76,9.15.1,13.06,2.75,3.02,9.37-3.5,12.24-3.64,3.25-.16,10.22,6.48,13.39,3.58,3.47-3.17-1.05-9.18.16-12.99,1.32-4.16,20.97-10.28-5.39-12.61-11.26-22.86-12.34-1.26-15.26.17ZM100.74,274.04c-6.69-25.7-44.4-25.85-48.01,1.98-27.68-8.27-32.61,34.15-4.26,31.54,2.95-.27,8.76-3.48,10.49-3.3.7.07,6.2,4.1,8.26,4.93,9.33,3.77,16.69,2.61,25.66-1.26,1.71-.74,2.61-2.68,4.27-2.99,3.15-.6,7.86,1.92,11.18,1.98,29.61.61,19.83-45.28-7.59-32.88ZM162.4,257.09c-9.23.8-12.33,9.55-8.53,17.39,1.99,4.1,15.84,15.09,20.18,15.37,6.19.4,20.64-12.85,21.86-18.92,1.84-9.16-4.9-15.49-13.94-13.93-2.87.49-6.55,4.56-7.82,4.44-1.94-.19-5.74-4.87-11.76-4.35ZM238.79,285.87c.18-1.57.15-1.69-1.14-2.47-1.55-.94-8.73-4.27-10.7-5.08-.91-.37-5.45-2.06-5.9-1.65-.3,1.38.7,1.5,1.51,2.09,1.34.97,15.62,7.74,16.23,7.1ZM378.17,277.33c-5.65,1.71-13.14,4.11-17.09,8.53,4.98-1.72,11.4-4.07,15.8-6.9.78-.5,1.68.13,1.29-1.64ZM534.66,300.33c-2.01-30.59-51.14-30.31-53.26-.66-32.22-4.68-34.36,38.61-1.83,35.3,3.39-.35,8.41-3.21,10.66-3.07,4.49.27,9.35,6.79,19.14,6.58,9.06-.2,13.49-6.19,17.79-6.59,3.46-.32,10.58,3.13,15.17,3.21,33.87.62,23.48-48.28-7.66-34.78ZM162.7,329.73c-2.49-2.11-1.6-11.12-8.36-9.68-3.78.8-4.2,8.22-6.66,9.79-3.46,2.21-10.09.04-13.14,4.01-1.04,2.25,7,8.73,8.97,9.66-8.24,24.25,6.29,8.54,12.79,8.69,2.21.05,6.53,3.9,9.48,4.36,7.57,1.18,1.95-9.91,2.78-13.03.69-2.62,8.95-5.51,7.69-9.88-1.06-3.65-11.4-2.11-13.55-3.93ZM417.45,350.44c-6.12,1.2-8.16,8.31-6.92,13.83,1.01,4.46,13.97,17.06,18.66,17.55,8.73.9,30.92-22.17,16.92-30.12-8.41-4.78-14.06,2.62-16.21,2.41-2.68-.26-4.74-5.18-12.46-3.67ZM237.48,352.92c-6.55,1.95-13.41,5.83-18.4,10.5,6.97-.84,12.49-6.96,18.4-10.5ZM379.49,366.05c-5.05-5.42-13.19-10.17-20.38-11.82,5.48,5.44,13.3,8.73,20.38,11.82Z" fill="#fff"/>
  <path d="M570.81,504.09c.65.21,1.27.45,1.97.66,5.98,1.87,13.03,4.98,18.41,8.22v75.26l-36.22-10.28c-2.12-26.94,5.04-58.27-19-77.47,10.92-1.58,24.14.55,34.84,3.62Z" fill="#fff"/>
  <path d="M40.9,574.42c2.9-.49,14.74-2.53,16.62-1.98.48.14,3.83,5.36,7.69,6.26,3.15.74,8.31-.41,10.54.64.79.37,4.89,6.59,6.9,8.22,1.61,1.3,10.71,5.64,10.84,6.25-23.99,4.01-40.24,27.71-34.18,51.6l5.9-1.97c2.06,1.28-1.42,26.52-.68,31.26.57,3.66,3.36,1.12,3.98,5.87,1.4,10.77-2.75,22.6-.67,33.41l6.6,2.08c.29,6.45,1.54,15.23,1.35,21.71-.27,8.97-8.55,23.32-.26,29.13,7.43,5.21,31.46,7.9,40.03,5.41,2.77-.8,5.68-4.42,7.22-4.66,1.95-.3,7.72,1.8,10.5,1.97,5.4.33,27.65.99,29.6-5.21,3.4-10.79-10.46-16.18-16.07-22,1.97-4.7,1.89-24.66,3.85-27.55.45-.67,4.68-.84,6.4-4.26,2.4-4.78,1.42-17.2.9-22.83-.23-2.47-2.53-6.43-1.39-9.75.27-.79,2.08-.15,2.59-1.47,1.7-4.39-3.22-21.68-2.54-22.6,19.91,7.42,24.15-8.98,19.52-25.11-4.9-17.08-15.29-28.05-31.35-35.03,12.35-4.96,20.47-15.85,21.75-29.18l62.38-5.33-11.76,69.9c.88,2.43,24.57,5.37,25.92,7.66,4.9,8.28-18.8,15.19-22.99,19.77-15.3,16.73,8.93,21.79,21.64,20.98,6.63-.42,33.24-6.51,36.97-11.35,3.22-4.18-2.66-20.96-1.12-26.76h30.9c-1.61,5.57.02,11.82-.7,17.37-.4,3.07-3.23,3.71-1.18,7.85,3.41,6.91,31.43,13.06,39.05,13.54,19.93,1.25,36.47-10.62,14.2-24.72-7.62-4.82-19.56-4.99-17.11-17.26l28.82-6.68-9.82-69.63,57.19,5.92c-3.9,14.8,6.35,27.58,20.38,30.89-3.41,5.96-9.83,9.31-13.27,15.32-8.14,14.22-17.48,46,10.64,40.55-3.09,12.18-6.28,24.32-9.09,36.58-.38,1.65-1.64,2.96-1.93,4.65-2,11.57,9.07,11.03,16.96,13.64,2.51,2.16.83,31.58,1.19,36.72-3.64,3.35-21.96,10.78-19.8,16.67,3.37,9.19,33.96,2.88,41.85,2.13-.47,5.34,8.83,5.58,9.51,6.71.53.87-.24,4.58.39,6.51,1.75,5.35,12.48,2.17,15.66,2.69,3.92.64,4.46,3.71,12.02,3.2,4.07-.28,11.81-4.51,12.47-4.46.6.05,3.02,3.19,4.47,3.91,7.67,3.84,24.36-.2,31.94-3.83,1.81-.87,3.86-3.66,5.82-4.07,2.35-.49,4.21.74,6.41.59,20.16-1.34,16.7-29.27-2.9-24.43-2.72-14.16-14.89-22.86-23.72-33.11,13.77-7.88,17.24-22.99,13.85-37.75,15.01-6.19,29.94-13.36,39.4-27.02v184.7H4.74v-253.72c6.6-1.55,13.14-3.66,19.72-5.26,3.28-.6,6.64-1.43,9.86-1.97,2.12-.49,4.41-.85,6.57-1.31ZM45.52,687.48c-2.19-5.01-9.5-6.2-13.78-2.91-4.85,3.73-1.17,8.49-2.3,10.17-1.27,1.9-7.65.73-7.65,8.19s7.55,6.33,8.53,7.63c.21.28,0,4.42.68,6.23,2.05,5.53,9.86,5.18,13.85,2.25l1.31,21.69c-5.42-7.45-12.34-14.32-22.35-13.81-1.11,17.34,15.82,25.43,30.9,20.04,6.58-2.35,15.48-10.08,11.88-17.78-7.14-2.18-11.94,4.21-17.78,6.94l-.66-15.12c5.03,1.92,9.43.06,11.02-5.08.43-1.39-.21-3.98.24-4.69.79-1.27,7.73.41,6.5-8.97-.67-5.16-4.66-4.59-5.64-6.23s2.73-7.64-2.95-10.81c-4.21-2.35-8.66-1.16-11.79,2.27ZM401.19,729.22c.64,3.7-.47,8.92,0,12.82-6.59-6.41-14.53-12.3-24.3-9.16,2.8,26.48,51.01,24.08,49.28-3.33-6.17.04-11.4,2.05-16.09,5.93-1,.83-6.28,7.34-6.92,6.55l-.66-15.77c6.07.72,7.02-4.62,9.16-8.9,10.29,2.61,15.96-8.54,5.91-13.84-.4-2.32,6.06-5.3,1.4-10.5-3.17-3.55-8.09-3.45-12.13-1.69-3.85-9.2-16.36-9.38-16.84,1.4-7.47-2.95-15.21,4.09-11.07,11.4.66,1.16,3,2.75,3.11,3.48.24,1.56-4.97,5.31-1.25,11.08,4.2,6.51,13.17.57,13.8.98.75,4.49,5.75,4.72,6.58,9.53ZM180.94,733.49c.71,1.25-.53,11.43,0,13.8-3.67-2.57-12.94-12.73-18-11.7-5.4,1.1-1.28,12.22,1.56,15.31,11.68,12.71,39.23,6.14,40-12.06-7.66-2.59-15.15,2.72-20.93,7.13.02-3.1-1.85-9.6-.06-12.21,1.17-1.71,7.86-2.5,7.3-7.51,10.9,3.9,17.42-6.06,8.55-13.47,8.23-8.57.63-17.49-9.87-14.13-.64-9.98-15.47-10.59-15.13,0-10.05-3.57-19.71,6.5-9.89,14.13-9.21,9.34-1.41,16.99,9.89,13.47-1.79,4.47,6.32,6.78,6.58,7.23ZM282.83,737.43c-5.57-2.59-7.66-10.57-15.1-9.19.63,3.26,5.18,2.62,7.57,4.58s3.16,8.01,6.57,7.97c1.26-.01,7.15-10.46,10.52-10.57l1.64,9.85h2.62c3.23-15.72-9.26-14.37-13.81-2.64Z" fill="#fff"/>
  <path d="M350.01,487.56l-2.08-17.64-2.56.74,24.25,158.3c-49.49,11.4-101.14,12.53-150.55.03l28.18-160.61-1.23-.76-3.72,18.76c-19.32,3.07-38.87,3.46-58.23.45-3.67-.57-23.96-4.83-25.5-6.71-.63-.77-.62-.98-.69-1.93-.26-3.74,3.22-19.47,4.29-24.06s2.19-8.79,3.72-13.04c25.02,5.49,50.74,9.52,76.49,7.13,6.89-.64,21.79-4.9,27.65-3.34,4.33,1.16,4.74,6.01,7.12,9.35,8.49,11.88,26.13,14.67,36.55,3.5,2.98-3.19,8.18-13.61,12.25-14.1,5.76-.68,18.97,3.62,25.66,4.5,11.84,1.57,27.5,2.74,39.35,2.05,6.47-.38,27.02-5.33,31.11-4.18,2.47.69,5.21,10.22,5.98,13.14,1.05,3.96,4.78,22.63,3.88,25.44s-18.43,5.2-21.98,5.62c-20,2.39-40.25,1.15-59.96-2.64Z" fill="#fff"/>
  <path d="M583.06,658.98c-8.3,8.18-23.46,15.33-34.55,18.7-1.18,1.51,3.11,10.95,3.17,13.48.09,4.39-5.3,16.52-8.49,19.64-3.04,2.97-7.02,3.06-9.81,6.01,7.44,6.32,14.8,11.36,20.21,19.77,17.7,27.5,1.03,47.98-29.46,44.23l1.96-5.91-3.28,4.97c-10.2-1.52,1.31-12.88,7.89-10.24-.07-2.85-3.54-.76-5.09-3.78-5-9.72,6.6-21.28,16.27-21.2-1.9-2.85-6.27-.72-8.57.31-5.42,2.43-10.88,9.53-13.48,14.79-3.43,6.93-4.05,20.09-14.11,19.75-.1-2.36.89-3.81-1.97-3.29v3.95s-5.26,0-5.26,0c5.32-7.89-.44-9.28-1.32-.65-8.07-1.46,3.04-9.67,4.94-13.14,4.33-7.88,6.39-20.75,10.19-29.25l-1.88.75-5.02,10.08c-4.8-4.24-8.67-9.34-9.87-15.78-3.9,7.98,6.28,12.26,9.39,18.24.27,1.54-3.19,12.76-4.13,14.64-.79,1.59-9.73,12.33-10.54,12.48-2.06.37-1.35-3.36-1.96-3.28-4.26,7.06-6.89,3.52-6.25-3.29-2.71-.67-1.62,4.86-1.97,5.25-5.62-.19-2.76-6-.25-8.47,2.9-2.85,5.82-2.24,8.7-4.44.57-15.13-1.99-31.16,5.7-44.96l20.69,2.66c2.22-1.89-10.09-2.82-11.07-3.06-24.53-5.84-39.83-21.13-20.16-44.27,11.31-13.31,25.94-18.22,42.93-12.67,4.53,1.48,8.28,4.65,12.82,6.01,10.39-10.35,27.31-27.09,42.99-27.45,12.92-.3,6.03,14.1.63,19.42ZM570.81,651.99c-4.65-1.38-26.28,20.19-24.98,21.68l24.98-21.68ZM488.63,686.82c8.05,2.68,8.18-9.8,2.62-8.29-3.72,1.01-2.48,5.39-2.62,8.29ZM514.37,690.67c6.94,2.49,8.13-10.29,1.69-8.34-2.78.84-3.02,6.11-1.69,8.34ZM500.93,695.19c1.89-2.17-.21-6.03-3.27-5.62-5.31.72.01,9-2.42,10.78-3.88,1.05-3.24-2.23-4.96-4.31-5.88,8.18,19.8,9.69,15.45,4.59-2.04,1.04-6.79,2.75-7.78-.48-1.26-4.13,2.21-4.08,2.98-4.96Z" fill="#fff"/>
  <path d="M392.64,305.59l-.66,32.21h-64.1c-.52,0-6.86-4.71-8.88-5.58-11.72-5.02-27.38-4.92-39.23-.45-1.82.69-9.82,5.38-10.4,5.38h-64.1v-32.21h70.02c.25,0,2.3-1.5,2.3-1.64v-52.91h40.43l.99.99v51.93c0,.16,2.14,2.3,2.3,2.3h71.33Z" fill="#fff"/>
  <path d="M505.72,592.16c1.03-1.8,3.33-2.02,4.93-3.28,2.64-2.09,7.33-8.16,9.93-9.14,2.97-1.12,7.03.2,10.93-.9,15.65-4.4,12.6-28.03-5.38-22.18.13-9.28-6.75-10.39-11.89-15.41-4.06-3.97-7.51-10.71-9.68-15.95-.71-1.71-1.83-7.78-2.13-8.06-.07-.07-1.9-.06-1.96,0-1.47,1.52,4.58,12.33,4.61,14.13.03,2.45-5.49-.74-6.13-1.11-6.88-4.01-9.15-11.42-12.07-18.32-3.19-.65-4.02,2.18-6.34,3.46-9.95,5.45-21.21,11.06-32.9,8.47-1.88.64-3.33,13.1-4.04,15.73-3.15,11.56-8.7,20.83-3.52,33.1,4.11,9.73,13.86,12.81,21.6,18.82-13.33,1.52-20.91,8.61-32.88-1.63-11.99-10.26-7.91-20.33-3.57-33.17,5.51-16.32,16.12-43.24,29.22-54.27,31.71-26.7,85.5-17.18,96.21,26.08,3.61,14.58,3.88,48.78,1.58,63.8-1.38,9.04-12.51,14.07-20.56,15.35-6.5-8.48-15.48-13.36-25.94-15.51Z" fill="#fff"/>
  <path d="M157.85,525.86c4.82,24.2,15.48,53.9-13.94,66.43-16.7,7.11-49.64,5.33-62.6-8.64-1.31-1.42-3.2-5.78-4.25-6.27-4.4-2.07-10.35,2.31-15.77-3.29-4.34-4.49-6.05-14.16-1.03-18.76,6.74-6.17,12.06,1.33,15.48-.27,4.26-4.91,6.19-11.23,7.57-17.44,7.51-1.69,15.61-3.81,19.41-11.17l1.35.38,1.34,4.79c11.05,1.5,19.49-6.53,25.99-14.33,7.74,5.98,16.63,8.97,26.46,8.57ZM151.35,538.93c.23-5.11-10.1-7.13-11.82-2.94-.8,1.93,4.52-.16,5.79.1,2.16.45,3.58,3.08,6.03,2.84ZM112.56,538.93c-.6-6.11-13.87,1.08-11.83,3.29,4.18-1.23,7.06-4.27,11.83-3.29ZM148.08,555.36c3.66-.38,1.73-4.4-.84-5.41-8.29-3.25-9.6,5.53-7.39,5.4,2.3-4.38,6.95-5.77,8.23.01ZM112.58,557.99c4.73-.58-.06-6.07-2.42-6.39-2.65-.36-9.4,3.78-5.81,7.04,2.18-5.24,5.76-6.63,8.23-.65ZM129.66,565.21c10.03.06,6.11-9.22-1.31-9.84l3.93,5.56-2.61,4.28ZM138.86,573.11c-3.52.52-4.17,3.43-8.2,3.95-5.62.73-9.53-1.91-14.8-2.31,4.09,5.97,21.76,6.67,23-1.64Z" fill="#fff"/>
  <path d="M342.02,376.25c-14.34-8.69-36.23-9.52-42.75-27.93l-1.37.41c-8.48,14.68-25.88,19.79-41.24,24.03l-2.09,16.31c-11.07-3.13-17.13,10.15-11.17,18.74,2.05,2.96,8.29,5.36,9.05,6.41,1.04,1.44,1.09,10.72,2.65,14.11.85,1.83,12.48,13.65,11.31,14.65l-34.83,4.61c.32-2.04-1.64-3.33-1.94-4.97-1.14-6.06,3.49-9.71,3.22-14.35-.15-2.57-3.03-6.22-3.93-9.26-4.65-15.56,5.81-20.65,10.87-32.56,2.63-6.19,3.19-12.94,6.14-19.5,17.15-38.16,63.97-51.12,93.15-17.32,11.09,12.85,10.6,23.99,17.3,37.91,4.96,10.29,12.71,14.79,11.21,28.08-.54,4.78-4.11,9.13-4.54,13.21-.61,5.79,3.68,11.66,1.23,17.33l-35.4-3.85c2.63-5.18,7.77-9.14,10.21-14.43,1.67-3.6,1.82-9.47,3-11.46.94-1.59,6.69-4.26,8.82-6.96,6.35-8.04,3.43-21.47-8.89-17.76v-15.45Z" fill="#fff"/>
  <path d="M486.65,515.27c.96,6.33,6.84,15.43,12.8,17.78,2.41.95,6.21.87,7.97,1.89,1.52.89,3.17,5.08,4.62,6.55,2.26,2.3,8.82,5.88,10.15,8.26,1.43,2.56.95,6.77,2.66,9.53,19.03-7.34,18.91,16.65,3.49,18.38-2.81.31-6.86-1.45-7.71-1.19-.52.16-4.21,5.28-5.58,6.45-15.52,13.22-48.33,12.18-64.11-.06-19.76-15.34-6.06-36.87-2.34-56.34,14.4,1.97,25.27-7.28,38.06-11.25ZM466.93,531.04c-.47-5.2-16.65.55-9.65,2.52,2.77-3.06,5.83-2.64,9.65-2.52ZM508.14,539.13c-1.89-2.43-8.63-5.07-11.62-3.48,1.84,1.44,9.85,6.33,11.52,6.55,1.96.27.66-2.36.1-3.08ZM454.45,549.44l4.37-4.53c3.47-.84,2.81,3.62,5.82,4.51,3.91-8.53-12.06-8.94-10.19.01ZM503.09,556.02c.43-8.07-11.04-9.16-11.84-.99,2.09,1.49,2.02-1.14,3.3-1.94,3.53-2.22,5.74-2.11,6.55,2.49l1.98.45ZM474.82,550.77c-9.21-.23-9.55,14.28,0,10.84-.34-1.32-8.35-2.8-3.9-7.2,1.52-1.5,4.64-.81,3.9-3.65ZM487.31,571.15c-6.32,1.51-12.68,3.88-18.64-.1-1.4-.94-2.07-3.47-4.36-3.85,1.62,9.35,17.86,11.66,23,3.95Z" fill="#fff"/>
  <path d="M81.66,537.29c-.33,2.28-4.77,14.26-6.57,15.12-5.53.49-10.21-2.67-15.78.06-25.09-52.25,47.98-76.88,86.57-59.66,19.48,8.69,27.76,27.71,17.96,47.43-1.36.2-1.06.08-1.47-.82-1.08-2.38-3.12-16.37-3.79-16.93-10.73,4.43-19.61-3.32-28.54-7.92-4.01,7.71-13.28,15.98-22.44,14.54l-.95-10.55c-4.13.66-4.49,6.23-7.21,9.54-3.42,4.15-9.7,7.22-15.18,5.94l-2.58-6.29c-.3,2.99.42,6.65,0,9.53Z" fill="#fff"/>
  <path d="M155.3,626.35c-.35-.11-.73-.57-1.31-.66-5.29-8.89,1.74-17.23-9.92-23.94-16.46-9.48-22.58,15.13-31.18,22.62-1.96,1.71-16.26,8.29-18.01,7.17-1.26-1.79-1.08-15.55-3.67-15.05-1.49.92-.7,1.57-.7,2.61.01,2.27,2.02,12.91,1.4,13.84l-13.53,3.93,6.83,1.28c1.73-.03,26.83-10.13,28.63-11.52,7.61-5.89,11.07-24.76,24.36-25.6-3.34,3.14-9.04,6.29-9.2,11.5l8.83-8.58,3-.61c-1.98,4.83-8.36,7.76-8.54,13.13,2.15.23,12.19-18.1,11.84-8.21-.25,7.15-9.01,23.88-14.47,28.93-14.69,13.58-58.37,40.9-63.17,4.65l9.25-3.66-15.08,3.91c-3.22-19.26,9.08-40.86,28.76-45.13,15.94-3.45,8.93,8.25,21.82,11.96,14.95,4.31,14.3-9.08,21.51-12.03,15.46-6.32,35,12.8,39.59,26.5-.36,2.02-14.72,3.4-17.04,2.94ZM77.71,637.53c-.7-.47-1.8.31-1.31.64.7.47,1.8-.31,1.31-.64Z" fill="#fff"/>
  <path d="M155.3,626.35c3.38,1.1,7.25,3.64,10.84,4.61l-2.95-3.29,8.58-1.62c5.73,5.64,6.69,23.03-1.42,26.85-11.54,5.43-28.26-9.06-34.65-17.78,3.18-9.63,9.51-18.14,10.41-28.49,2.11,1.8,3.82,7.51,3.95,10.22.19,4.1-4,11-.02,12.13.81-2.52,1.1-3.69,3.96-3.28.35.42.8.56,1.31.66ZM167.46,630.95v.66l.33-.33-.33-.33Z" fill="#fff"/>
  <path d="M240.11,501.47l-11.14,56.23-62.5,4.9c1.45-5.91-3.36-13.39-2.66-18.76.31-2.39,3.85-6.67,4.84-10.3.64-2.37.75-8.81,1.94-10.22.72-.85,14.27-7.19,16.48-8.17,16.46-7.3,34.92-13.08,53.04-13.68Z" fill="#fff"/>
  <path d="M298.61,352.26c8.39,14.72,26.19,18.86,41.14,23.62,1.58,8.17-.11,32.8-8.67,36.76s-13.73-5.73-19.79-6.99c-3.86-.81-17.66,2.8-17.82-1.01,1.01-4.21,5.37-9.22,3.19-13.6l-5.64,13.09c-10.48.99-22.03,18.26-31.07,4.86-6.02-8.92-3.92-23.98-2.15-33.96,11.27-4.62,24.25-6.8,33.6-15.22,1.43-1.29,6.41-8.03,7.21-7.56ZM312.43,378.55c4.48-2.27,8.75,3.35,12.47.99-.01-1.74-12.24-6.42-12.47-.99ZM284.16,376.58c-2.04-1.01-16.06.7-12.49,4.59.44.48,9.88-4.68,12.49-2.63v-1.97ZM284.15,395.64c1.97-7.63-10.12-6.61-9.87-.34.14,3.62,4.68-3.49,6.17-2.84l3.7,3.17ZM315.24,393.19c.56-.46,2.41-.78,3.15-.56,2.21.54,2.9,5.48,5.2,2.69-1.71-6.37-11.85-6.59-11.15.97,2.21.33,1.9-2.36,2.8-3.1Z" fill="#fff"/>
  <path d="M559.31,394.98c-2.52.34-18.25,6.59-18.06,8.87,4.82,2.24,9.93,1.51,15.09,3.3,11.39,3.96,18.63,16.85,15.79,28.57-11.52-8.73-23.63-18.33-38.78-19.05l5.26,12.48-11.8,1.28c-.18-1.7-1.59-11.42-4.63-10.18-7.4,7.91-13.26,17.34-15.8,27.97-7.24-9.04-9.65-16.18-3.42-26.76,1.65-2.8,5.09-4.27,6.05-7.42-12.74.2-23.36,7.56-34.84,11.82.49-18.99,20.56-31.26,38.12-24.98-4.03-10.63-16.67-13.56-26.29-17.1,14.28-10.59,36.82-6.05,41.76,12.5,4.09-2.69,6.1-6.7,10.81-8.9,11.29-5.25,26.99-3,34.21,7.58-4.23.41-9.38-.56-13.48,0Z" fill="#fff"/>
  <path d="M497.83,659.22c.81.94-8.83,6.77-10.17,7.9-12.97,10.95-20.04,26.23-8.9,41.38-6.72,2.5-48.02-3.03-50.29-7.88-.43-16.64,7.85-32.32,10.53-48.62,8.09-4.45,16.41-10.3,20.05-19.08,12.94,9.62,21.68,23.21,38.78,26.3Z" fill="#fff"/>
  <path d="M360.52,558.56l-7.32-48.55c27.43,3.5,54.46,14.27,77.49,29.32l-10.72,24.4-59.44-5.17Z" fill="#fff"/>
  <path d="M154.64,678.93v31.88c-10.46,5.51-24.53,3.3-36.2,3.33-1.61-1.12.06-15.24,1.3-17.02.82-1.17,4.64-1.1,3-3.74-10.04.7-3.43,19.97-9.48,22.07s-24.52.41-31.26-.38c-3.21-.38-11.64-.59-12.22-4.22-1.51-9.54,1.48-22.1.7-31.91,27.45,7.07,56.66,6.46,84.15,0Z" fill="#fff"/>
  <path d="M67.21,653.96c21.65,21.14,48.06-5.41,66.58-17.02,4,3.71,7.78,7.6,11.99,11.08,1.77,1.47,7.04,3.98,7.84,5.31.63,1.04,4.51,20.87,4.21,21.94-24.71,8.22-56.05,9.43-81.44,3.35-2.35-.56-8.94-1.68-9.71-4.1-1.56-4.92.96-15.14.53-20.57Z" fill="#fff"/>
  <path d="M90.22,373.95c3.4.15,5.22-3.72,7.65-5.16,10.61-6.29,29.67-2.16,33.76,10.41-9.61-.86-20.11-2.17-28.92,2.64-.59,1.22,10.94,3.83,12.28,4.48,8.58,4.15,13.18,18.28,7.77,26.39-6.99-8.52-15.78-16.08-26.62-19.04.23,3.3,4.02,4.75,5.39,7.42,3.69,7.22,1,18.69-6.7,22.15.97-5.22-4.98-26.57-8.84-28.97-4.85-3.26-6.61,11.02-7.92,11.21l-10.19-3.94,10.5-11.49c-14.03-6.36-29.15,3.35-42.06,8.21.8-19.42,22.48-25.93,38.78-21.69-3.42-8.97-15-11.65-23.66-11.17-1.34-1.08,4.74-4.39,5.46-4.72,12.46-5.8,31.75-3.02,33.33,13.27Z" fill="#fff"/>
  <path d="M340.7,404.18v10.19c0,5.95-6.55,17.83-10.54,22.33-22.85,25.68-83.18,11.16-74.27-29.23l5.82,6.34c12.92,7.98,20.08-8.59,29.97-6.97,2.23.37,2.67,1.98,5.96,2.01,3.06.03,5.59-1.88,8.55-1.89,9.59-.01,17.77,14.98,27.96,6.11,2.7-2.35,3.03-5.73,5.04-8.07.41-.48,0-1.22,1.52-.83ZM283.51,415.36c2.55,18.34,23.68,14.81,29.56.32-.27-2.14-7.75.26-9.49.35-6.63.34-13.48,0-20.07-.67Z" fill="#fff"/>
  <path d="M591.19,590.2v50.61c-2.34-1.35-3.33-2.31-6.21-2.66-17.03-2.09-35.14,15.72-46.05,26.97l-1.33-2.63c7.68-8.2,36.45-31.13,24.45-43.8-7.58-7.99-21.27,7.58-27.39,11.6v-13.47c0-1.03-3.39-6.84-2.63-7.56,7.76-.42,16.75-5.08,20.52-12.03.42-.77,2.5-5.71,2.5-6.05v-10.19l36.16,9.2Z" fill="#fff"/>
  <path d="M468.18,593.56c1.6,12.44,13.56,15.34,23.77,10.14,9.72-4.95,4.52-12.85,19.05-8.58,17.79,5.23,26.03,23.73,21.03,41.09l-30.83-8.6,3.22-16.37c-4.06,5.72-5.91,12.8-6.57,19.72-5.82-1.42-14.21-5.07-18.03-9.91-5.92-7.51-13.13-33.07-26.56-19.23-7.07,7.29-5.15,12.32-8.63,18.98s-13.86-2.42-19.1-2.34c6.65-17.59,24.22-26.99,42.66-24.9Z" fill="#fff"/>
  <path d="M478.35,623.48c5.69,5.92,19.62,8,25.72,14.03,3.28-3.06-8.14-4.3-1.95-7.89,3.58.39,21.59,4.37,22.39,7.2,1.41,5-5.7,14.11-9.64,16.77-16.38,11.05-42.93-6.82-52.18-20.7-2.78-4.18-9.18-19.32-8.94-23.99.47-9.37,9.03,6.63,9.87,7.28,1.06.82.81,1.44,1.99-.03.08-.73-4.17-7.08-4.98-8.16-.65-.87-5.64-4.86-4.24-5.64,6.89-1.94,8.52,7.92,13.15,10.86-.87-5.82-5.21-9.66-9.19-13.48,10.29.79,12.61,18.15,17.99,23.75Z" fill="#fff"/>
  <path d="M447.21,433.11l-5.91,21.03c5.79-.67,3.39-9.41,6.98-12.4,1.62-1.34,8.79-3.44,11.14-3.98,2.22-.51,11.78-3.2,12.16.3.63,5.75-15.5,5.56-17.8,9.51,6.01.36,15.7-5.68,21.26-3.83.6.2,1.26.7,1,1.41-2.64,7.83-12.47,6.21-18.3,9.98.97,1.5,1.38.66,2.49.54,2.93-.32,18.57-7.4,15.98.12-2.77,8.04-35.28,15.7-43.7,15.35l-6.32-24.88c9.21-.24,12.76-11.44,21.02-13.16Z" fill="#fff"/>
  <path d="M157.89,465.93c-1.65,1.4-23.08-5.96-26.43-7.34-3.17-1.3-17.66-7.01-15.3-11.68,5.3-4.05,12.41,2.36,17.8,3.27.56.1,2.11,1.18,2.27-.33.37-3.33-18.87-5.09-19.75-10.52.15-6.38,21.03,2.68,24.36,1.65.27-1.38-.67-1.54-1.6-2.01-1.87-.95-21.39-3.3-16.17-8.85,4.61-2.83,21.55,2.56,23.36,6.91,1.04,2.49,1.07,10.56,4.59,11.19,3.22.58-2.38-7.78-2.63-8.55-.61-1.91-2.36-11.9-1.03-12.87,3.65-2.67,11.82,12.55,15.6,13.81l-5.07,25.31Z" fill="#fff"/>
  <path d="M445.89,708.51l23,2.64-.96,38.79c-7.74,3.98-16.37,1.12-22.05-4.95v-36.48Z" fill="#fff"/>
  <path d="M451.81,608.61c.87,4.98,1.79,10.5,3.48,15.25.89,2.49,4.09,5.57,3.43,7.72-5.84,9.25-21.84,24.88-33.8,18.71-9.78-5.04-4.09-39.59,11.77-25.57.87,1.94-10.72,4.2-7.56,7.54,2.92-3.89,15.67-6.9,17.72-9.88s.07-12.19,4.96-13.77Z" fill="#fff"/>
  <path d="M524.88,659.13c.15-12.32,15.78-35.11,27.07-39.48,17.26-6.67,9.35,13.23,4.27,20.7-2.41,3.55-18.56,21.06-21.61,21.83-1.94.49-7.32-3-9.73-3.06Z" fill="#fff"/>
  <path d="M107.31,717.72l-4.59,27.95c-3.7,1.8-24.31,1.67-26-.98l1.02-28.93,29.58,1.96Z" fill="#fff"/>
  <path d="M275.61,639.5v20.05c-5.38,3.53-12.18,5.62-18.5,6.55-1.9-.42-6.83-7.98-9.17-9.78-3.71-2.85-9.07-3.48-12.43-6.95,6.1-1.8,11.02-5.57,10.52-12.5l29.58,2.63Z" fill="#fff"/>
  <path d="M340.7,636.87c-.53,7.53,2.29,10.12,7.88,14.13-8.58,2.36-14.01,7.64-18.41,15.15l-20.7-7.58c-1.03-2.38.52-18.23,1.73-18.98l29.49-2.72Z" fill="#fff"/>
  <path d="M148.07,715.08l-3.59,28.3c-7.83,2.83-16.7,2.55-24.67.61,1.2-8.79,2.72-19.07-.01-27.58l28.27-1.32Z" fill="#fff"/>
  <path d="M107.96,749.93l-.83,1.46c-2.95,1.42-9.28,1.61-10.34,5.1,1.82,1.6,14.19-9.31,20.3,1.73,3.46,6.25,2.32,6.95-4.17,7.5-13.19,1.11-27.25-1.46-39.19-7.01l2.71-11.39,31.53,2.62Z" fill="#fff"/>
  <path d="M149.38,746.65c.31,1.69-.23,1.02-.92,1.37-1.28.65-13.08,3.71-10.9,6.51,5.69-2.85,12.13-6.95,18.37-2.92,1.61,1.04,6.92,7.99,4.21,8.74-8.09.46-39.72,6.75-42.18-4.32-.37-1.68.48-8.62,2.26-9.29l29.16-.08Z" fill="#fff"/>
  <path d="M348.59,302.96h-26.96v-26.29c12.47,3.77,22.98,13.83,26.96,26.29Z" fill="#fff"/>
  <path d="M275.61,276.67v26.29h-26.3c3.04-12.35,14.08-23.08,26.3-26.29Z" fill="#fff"/>
  <path d="M468.24,751.9c-.23,2.22.54,5.15-.34,7.21-2.32,5.48-35.12,5.72-40.16,3.37-7.51-3.5,12.66-14.79,16-15.04,3.93-.3,8.09,5.7,12.38,6.38,4.06.65,8.27-.91,12.11-1.92Z" fill="#fff"/>
  <path d="M477.45,710.48l3.13,39.04-10.36,6.31c.5-14.96-2.58-30.04,1.32-44.69l5.9-.67Z" fill="#fff"/>
  <path d="M117.82,715.74c1.33,4.46.89,36.71-2.31,37.47-2.65-1.72-10.04-4.77-10.2-8.18l3.95-26.85,8.56-2.44Z" fill="#fff"/>
  <path d="M317.69,448.88c-9.31,18.56-32.42,19.06-40.77-.32,13.5,3.15,27.2,3.37,40.77.32Z" fill="#fff"/>
  <path d="M42.22,471.23c1.22-3.52,2.23-17.98,5.26-19.39,4.26-1.99,11.19,2.21,15.78,1.64l-1.98,17.75h-19.07Z" fill="#fff"/>
  <path d="M534.65,482.4l18.41-.66c.32,5.74,1.92,11.29,1.32,17.1l-19.73-.66v-15.78Z" fill="#fff"/>
  <path d="M551.7,479.73l-17.04,1.36-1.33-16.44,15.8-.35c2.19,5,3.15,9.95,2.57,15.43Z" fill="#fff"/>
  <path d="M367.65,668.42c-2.89,9.68-17.84,8.04-25.95,7.21-6.92-.71-27.34-5.13-32.07-9.82-1.15-1.14-3.09-4.8-.06-4.09,6.75,1.58,13.95,5.37,21.13,7.16,12.4,3.09,24.8,4.69,36.95-.47Z" fill="#fff"/>
  <path d="M217.76,668.43c13.88,3.68,27.05,3.49,40.9-.2,6.44-1.71,12.82-5.61,18.49-7.17,3.7-1.02.35,3.25-.92,4.36-9.36,8.14-50.05,16.78-58.47,3.01Z" fill="#fff"/>
  <path d="M573.21,768.75c-1.94,1.84-12.71,6.41-13.53,3.14.99-2.87,1.87-5.69,2.37-8.71,1.06-6.36-.95-14.93,8.48-11.34,6.42,2.45,7.5,12.3,2.67,16.9Z" fill="#fff"/>
  <path d="M491.91,716.43l-6.21,32.15c-1.52-1.08-3.93-1.45-4.28-3.61l-.67-34.49,11.16,5.95Z" fill="#fff"/>
  <polygon points="67.2 436.39 64.47 451.41 48.83 449.5 52.04 434.71 67.2 436.39" fill="#fff"/>
  <path d="M72.46,419.97l-4.61,15.12-15.11-2.64,6.57-15.47c2.2-1.29,10.14,3.24,13.15,2.99Z" fill="#fff"/>
  <path d="M498.48,592.83c-2.93,13.22-27.93,16.61-28.26,0,9.26,1.89,19.01,1.88,28.26,0Z" fill="#fff"/>
  <polygon points="545.79 446.95 548.46 461.37 533.29 462.39 532.02 448.22 545.79 446.95" fill="#fff"/>
  <path d="M359.76,656.58c-2.71,1.2-5.98,1.45-8.51,3-2.74,1.68-6.94,8.9-8.38,9.37-2.94.96-7.07-1.06-10.06-1.19,1.5-8.19,11.59-15.67,19.96-15.06,1.07.08,8.23,1.98,7,3.88Z" fill="#fff"/>
  <path d="M224.33,656.58c9.37-11.14,24.68,1.51,30.88,10.2-11.23,4.67-9.21,1.84-15.08-3.98-4.12-4.09-10.24-5.37-15.81-6.22Z" fill="#fff"/>
  <path d="M486.66,751.24v11.17c-6.5.13-7.98,7.15-14.69,4.5-11.29-4.46,8.66-17.57,14.69-15.67Z" fill="#fff"/>
  <path d="M127.02,598.09c-2.82,14.69-22.96,10.62-25.63-1.97l25.63,1.97Z" fill="#fff"/>
  <polygon points="540.47 431.23 544.52 444.27 530.7 446.26 528.08 432.45 540.47 431.23" fill="#fff"/>
  <path d="M253.25,412.07c-11.95-1.39-14.43-22.95.01-20.7,3.54,2.02-.95,16.84-.01,20.7Z" fill="#fff"/>
  <path d="M239.88,664.71c.56.61,2.68,3.35,1.54,4.02-3.63,1.25-11.71,2.98-9.2-2.94l-7.88,2.62,1.3-5.25c-2.78,1.93-2.3,4.28-6.57,3.29-2.17-13.21,15.96-7.02,20.81-1.74Z" fill="#fff"/>
  <path d="M342.68,413.39c1.08-5.13-4.97-22.84,5.44-20.23,7.97,2,2.11,19.61-5.44,20.23Z" fill="#fff"/>
  <path d="M119.13,766.36c-1.44,5.12-9.65,5.32-14.12,5.24-5.82-.1-24.94-3.54-29.49-6.67-1.49-1.02-4.2-3.99-.61-3.36s8.46,3.03,12.53,3.93c10.37,2.29,21.26,3.35,31.68.86Z" fill="#fff"/>
  <path d="M121.12,762.41c13.01,2.27,26.77,1.89,39.74-.61l1.02,1.58c-.77,4.52-26.39,4.68-30.59,4.3-3.26-.29-10.42-1.07-10.16-5.28Z" fill="#fff"/>
  <polygon points="76.4 406.16 72.48 417.7 60.62 415.35 66.55 403.82 76.4 406.16" fill="#fff"/>
  <path d="M364.86,659.39c1.01.85,2.49,7.02,1.42,7.64-3.42,1.99-2.51-5.01-6.17-4.53-2.4,1.26,2.73,5.27.99,6.26-3.85,1.74-5.15-2.26-8.56-2.98l1.3,3.94h-7.88c.31-6.26,14.07-14.42,18.89-10.34Z" fill="#fff"/>
  <path d="M529.39,638.18l-6.58,19.71-7.88-.65c2.89-7.08,12.23-10.22,11.88-19.01l2.58-.05Z" fill="#fff"/>
  <polygon points="344.65 339.77 340.36 347.66 332.81 339.77 344.65 339.77" fill="#fff"/>
  <path d="M263.78,339.77c-1.05,1.56-6.77,6.88-8.16,6.62l-4.33-6.62h12.49Z" fill="#fff"/>
  <path d="M523.47,760.44c-.08,5.02,1.63,10.53-5.25,10.51-1.1-1.14,1.91-10.83,5.25-10.51Z" fill="#fff"/>
  <path d="M517.55,775.55c-.7.99-2.38-.75-.32-1.96.59.02.38,1.88.32,1.96Z" fill="#fff"/>
  <path d="M108.46,169.04l377.2-.16c23.43,2.62,24.44,47.05,4.09,54.02-125.99,2.74-252.59.42-378.81,1.16-26.02-1.52-26.21-51.48-2.47-55.02ZM99.03,178.32c-8.7,11.15-7.35,38.9,9.92,41.82,113.91-.67,228.42.92,341.85-.02,8.57-.07,33.85,1.53,40.01-1.41,15.81-7.56,14.34-45.34-6.46-46.54l-372.79-.03c-4.63.27-9.68,2.54-12.52,6.19Z"/>
  <path d="M371.6,73.23c-.74,2.14-9.18,2.12-10.79,1.05-.89-.59.39-2.65-1.7-2.03,1.31,3.92-9.91,2.95-11.01,1.79-.83-.87-1.27-5.52-2.1-6.1l-9.98.09c-1.24,7.89-3.31,6.8-10.13,6.87-2.49.03-4.54-.02-7.18.02-3.38.04-19.42.48-21.03-.74-2.01-1.52-1.03-36.16-.44-41.1l23.97-.83c2.19.8,2.21,8.87,1.13,10.63-.32.37-1.35,1.11-1.69,1.11h-12.16l1.09,2.52,12.05.77v10.19l-.99.99h-11.18c-1.47,1.13-1.47,3.47,0,4.6h12.49l1.64,6.57,11.13-36.53c1.33-1.52,12.21-1.49,13.21.22l11.83,38.29v-36.48c0-4.18,10.63-3.63,12.7-2.35,1.47.9,5.64,15.11,8.33,17.14v-17.09c2.41-.76,10.74-1.67,11.72,1.1l-.32,39.5c-15.41,7.42-14.01-7.64-20.61-16.28v16.1ZM320.32,34.12h-20.71l-.99.99v37.14h22.35v-7.23h-14.46v-8.54h13.15v-7.89h-13.15v-6.57h13.81v-7.89ZM357.79,72.24l-11.49-37.47-9.55-.32-11.83,37.8,7.79-.1,2.49-6.39,12.35-.13,1.79,6.52,8.45.09ZM361.74,35.11v37.14h7.89v-24.98l11.18,24.98h9.86v-37.14c-1.6-1.54-6.11-1.62-7.89,0v24.65c-3.38-3.61-8.89-22.9-11.5-24.98-1.35-1.08-8.99-1.16-9.54.33Z"/>
  <path d="M396.59,144.22c-.67,3.46-11.74,2.86-12.47-.68l.8-39.58c11.75-1.64,28.72-3.21,28.15,13.31-.14,4.13-3.79,8.7-3.79,9.2,0,.68,5.73,10.19,6.04,12.17l10.82-33.89c1.66-2.21,9.97-2.21,12.13-.89,2.79,1.7,10.71,34.54,12.93,39.73l-.7,1.94-10.1.23-2.47-6.41-10.01-.1c-1.56.47-.21,5.68-3.85,6.86-.88.28-17.63-.05-18.5-.37l-6.47-13.57-2.52-.12c-.48,3.62.66,8.77,0,12.16ZM403.49,105.77c-4.99-.86-12.17.64-17.42,0v38.12h8.55v-14.46c7.67-1.39,9.33,8.93,11.18,14.46h9.2c-2.32-5.48-4.07-14.06-9.2-17.1v-1.29c8.22-3.29,6.5-18.21-2.31-19.73ZM437.93,105.85l-10.4.96-11.22,37.09,7.92-.29,2.01-6.86,11.98.03,3.03,6.83,7.92.29-11.25-38.04Z"/>
  <path d="M534.66,300.33c31.14-13.5,41.53,35.4,7.66,34.78-4.59-.08-11.71-3.54-15.17-3.21-4.3.4-8.72,6.39-17.79,6.59-9.79.21-14.65-6.3-19.14-6.58-2.25-.14-7.26,2.72-10.66,3.07-32.53,3.31-30.39-39.98,1.83-35.3,2.12-29.65,51.25-29.93,53.26.66ZM532.68,303.61c-.6-31.4-48.21-33.3-50.03-.7-31-7.71-33.81,34.47-.45,29.45,2.58-.39,7.96-3.57,8.71-3.53.65.04,5.76,4.51,8.06,5.51,5.78,2.52,12.22,3.09,18.17.73,2.57-1.02,7.97-5.71,9.99-5.83,1.89-.11,6.07,2.7,8.56,3.22,10.21,2.16,24.18-2.28,25.85-14.13,2.28-16.17-16.99-22.13-28.86-14.73Z"/>
  <path d="M159.24,134.03c.83.83,12.48-1.47,14.14,1.3,1.65-.14,7.87-28.43,10.15-31.07,2-2.32,11.87-1.9,13.52,1.5,2,4.1,10.56,32.2,11.24,36.81.53,3.65-1.54,3.81-4.65,3.97-10.21.55-5.9-4.13-8.55-6.62-1.47-1.38-7.81-.43-10.1-.52-.88.5-1.41,5.2-2.03,6.03-1.48,1.99-16.23.39-19.46.36-4.95-.04-11.54,2.54-16.11-.92v-40.1c2.71-2.49,9.1-2.5,11.83,0v29.25ZM157.27,105.77h-7.89v38.12h22.35v-7.89s-12.98.53-12.98.53l-1.48-.86v-29.91ZM194.63,105.89l-9.82.28-11.76,37.72,8.45-.08,1.99-6.75,12.15-.3,2.46,7.06,8.47.07-11.95-38Z"/>
  <path d="M100.74,274.04c27.42-12.4,37.2,33.48,7.59,32.88-3.32-.07-8.03-2.59-11.18-1.98-1.66.32-2.56,2.25-4.27,2.99-8.97,3.88-16.33,5.04-25.66,1.26-2.07-.84-7.57-4.86-8.26-4.93-1.73-.18-7.54,3.03-10.49,3.3-28.34,2.61-23.42-39.81,4.26-31.54,3.61-27.82,41.32-27.68,48.01-1.98ZM55.37,277.99c-7.65-.62-15.01-1.66-21.06,4.25-13.45,13.12,12.02,32.19,24.03,18.89,7.82,7.18,19.72,10.66,29.9,6.75,2.35-.9,7.72-5.63,9.14-5.92,1.81-.36,4.39,1.94,6.37,2.27,13.13,2.18,26.1-7.76,19.47-21.43-4.61-9.51-15.61-10.55-24.04-5.5-1.19-.37-1.69-5.93-2.35-7.55-8.4-20.73-42.4-15.01-41.44,8.24Z"/>
  <path d="M290.08,103.8l10.72-.05c.35.22,1.11,1.42,1.11,1.69v28.59h12.82c.27,0,.95,1.39,1.64,1.31,1.24-1.1,6.82-27.87,9.56-30.87,2.09-2.28,9.03-1.36,11.99-.9l12.67,40.63-1.01,1.66h-9.86l-2.26-6.29-10.49-.21c-.65,2.63-.56,6.27-3.83,7.01l-33.06-.51v-42.07ZM299.94,105.77l-8.55.99v36.15l.99.99h22.02l-.62-7.6-13.85.37v-30.89ZM337.32,105.86l-10.11.56-11.5,37.47,7.91-.3,2.36-6.96,12.82.42,1.87,6.54,7.91.3-11.27-38.03Z"/>
  <path d="M157.84,45.87c-2.93.9-4.37-1.69-6.88-2.47-17.09-5.3-14.13,31.89,5.32,17.27,3.51.02,2.96,10.07.97,11.89-.64.59-4.07,1.85-5.11,2.12-31.57,8.2-33.64-47.15-2.49-43.12,9.19,1.19,10.56,5.76,8.19,14.31ZM156.61,43.98l-.32-7.23c-30.76-17.52-38.7,41.67-5.42,35.99,6.46-1.1,6.1-3.9,5.74-9.7-25.14,15.98-25.49-35.08,0-19.07Z"/>
  <path d="M274.96,73.23c-.77,2.53-8.57,1.85-10.74,1.04-.64-.41-.79-1.14-.94-1.83-.87-4.07-.9-32.94-.19-37.37.15-.91.14-1.7.95-2.34,17.64-3.41,35.34,1.38,24.17,22.62,1.5,3.43,10.72,18.18,4.8,19.49-12.97,2.87-9.69-5.88-14.47-12.43-1.05-1.44-2.28-2.94-3.58-1.02-.58,3.07.78,9.24,0,11.83ZM278.57,34.12c-3.94-.42-8.47.31-12.49,0l-.99.99v37.14l8.55-.99v-12.82c7.83-1.67,8.19,8.74,11.29,13.69l8.43.11c-2.34-5.85-3.72-13.74-9.19-17.41,9.94-7.06,7.11-19.35-5.6-20.7Z"/>
  <path d="M524.35,70.06c-.53-.67-1.55-2.67-1.51-3.42,1.86-5.69,9.27-3.11,13.12-5.9,2.7-1.96,2.91-8.92,6.95-9.54,5.29-.8,5.24,6.98,8.86,9.52,3.68,2.59,9.6.67,12.16,3.61,3.92,4.49-6.17,8.06-6.84,11.02-.51,2.28,6.03,10.04-.42,12.68-5.05,1.13-8.72-3.98-12.49-3.98-3.56,0-8.56,5.66-12.82,3.65-4.6-2.17.89-9.49-.09-12.36-.42-1.23-5.77-3.8-6.93-5.27ZM545.68,54.65c-.35-.28-3.28-.8-3.8-.51-1.99,1.96-2.49,7.84-4.63,9.21s-11.33,1.19-11.81,1.67c-1.43,4.81,6.86,6.53,7.62,9.14,1.15,3.97-2.17,7.76-1.69,11.89,1.69,1.65,10.28-4.6,12.83-4.52,2.35.07,9.93,6.14,11.57,4.15,1.97-3.7-1.75-8.03-.61-11.65.71-2.24,7.4-3.83,7.07-7.27-.6-2.07-9.21-2.48-11.77-4.06-3.4-2.11-3.86-7.32-4.78-8.04Z"/>
  <path d="M288.76,145.87h-10.19c-1.23,0-1.97-5.24-2.62-5.92-1.23-1.3-8.09-.62-10.24-.36-.35,8.02-8.44,9.24-13.43,4.39l12.11-39.73c1.26-1.6,12.46-2.29,13.24,1.14,1.87,11.33,10.25,26.37,11.52,37.19.16,1.33-.02,2.05-.39,3.29ZM275.5,105.89l-9.82.28-11.1,37.72,7.79-.1,1.99-6.75,12.15-.29,2.46,7.06,8.47.07-11.95-38Z"/>
  <path d="M162.7,329.73c2.15,1.82,12.49.28,13.55,3.93,1.26,4.36-7,7.26-7.69,9.88-.83,3.12,4.79,14.2-2.78,13.03-2.95-.46-7.28-4.31-9.48-4.36-6.5-.15-21.04,15.56-12.79-8.69-1.97-.93-10.01-7.41-8.97-9.66,3.05-3.97,9.68-1.8,13.14-4.01,2.46-1.57,2.88-8.99,6.66-9.79,6.76-1.44,5.87,7.57,8.36,9.68ZM167.79,354.23c1.28-3.43-2.43-8.53-1.71-11.19.59-2.17,8.03-6.33,7.63-8.19-2.92-3.52-9.22-1.17-12.19-3.61-2.09-1.72-2.42-7.84-4.92-8.91-3.07-1.31-3.35,3.78-4.7,5.82-3.29,4.94-9.3,4.4-14.35,6.37-1.67,2.56,7.02,5.76,7.75,8.35.87,3.09-2.19,7.84-1.19,11.35,4.27.56,8.29-4.14,12.14-3.99s7.1,5.17,11.52,3.99Z"/>
  <path d="M414.2,261.4c2.91-1.44,4-23.04,15.26-.17,26.36,2.34,6.71,8.45,5.39,12.61-1.21,3.81,3.32,9.82-.16,12.99-3.17,2.9-10.14-3.74-13.39-3.58-2.87.14-9.49,6.66-12.24,3.64-2.86-3.9,1.29-8.76-.1-13.06-.91-2.82-8.4-3.35-7.11-9.32.77-3.54,9.68-2.73,12.36-3.12ZM426.38,261.35c-1.69-1.86-1.83-8.02-5.1-7.72-3.69.9-3.39,7.56-6.02,9.17s-8.33.2-11.38,2.09c-2,3.06,6.75,6.02,7.57,9.13.61,2.32-2.78,9.76-1.08,10.9,4.23,1.18,7.27-3.86,11.52-3.7,3.64.14,7.46,4.83,11.52,3.99,1.29-3.19-2.39-9.01-1.86-11.37.56-2.49,7.61-4.78,8.41-8.03-3.4-3.67-10.38-.95-13.57-4.47Z"/>
  <path d="M396.59,33.8c.72-2.38,12.26-1.88,14.82-1.67,25.2,2.13,27.08,40.48-1.35,42.73-2.16.17-13.46.7-13.46-1.63v-39.44ZM409.41,34.12c-3.58-.27-7.27.2-10.85,0v38.12h15.45c6.71,0,13.19-7.18,14.07-13.54,2.04-14.71-3.68-23.45-18.68-24.59Z"/>
  <path d="M162.4,257.09c6.01-.52,9.82,4.15,11.76,4.35,1.27.13,4.95-3.94,7.82-4.44,9.04-1.56,15.77,4.77,13.94,13.93-1.22,6.08-15.66,19.33-21.86,18.92-4.34-.28-18.2-11.27-20.18-15.37-3.8-7.84-.7-16.59,8.53-17.39ZM182.74,259.08c-3.44.6-6.19,3.68-8.04,6.4-9.24-12.24-27.75-4.49-17.04,10.48,1.89,2.64,13.7,11.34,16.56,11.77,4.74.71,16.93-10.88,18.5-15.4,2.53-7.31-1.74-14.69-9.97-13.25Z"/>
  <path d="M351.22,104.78c1.18-3.41,20.07-1.43,23.7.62,3.39,1.91,5.36,6.79,5.28,10.55-.06,2.66-2.47,6.66-2.46,7.24,0,.48,2.52,3.39,2.91,5.4.83,4.37.54,10.67-2.82,13.97-.79.78-5.08,3.3-5.91,3.3h-19.72l-.99-.99v-40.1ZM370.62,105.77c-4.99-.86-12.17.64-17.42,0v38.12h17.42c9.35,0,11.52-16.42,3.62-20.71,6.68-4.27,4.08-16.09-3.62-17.41Z"/>
  <path d="M210.52,63.05h12.82l.99.99v10.19c-6.74.65-15.37,1.34-22.05.68-1.31-.13-3.13.01-3.81-1.49l-.32-39.5c.91-2.57,12.38-2.88,12.38.54v28.59ZM208.55,65.02v-29.91c-1.78-1.57-6.64-1.61-8.55,0v37.14h23.01v-7.23h-14.46Z"/>
  <path d="M229.17,70.04c-7.85-8.83-6.85-31.75,5.09-36.84,30.54-13.02,36.51,41.04,9.44,42.32-4.83.23-11.29-1.84-14.53-5.48ZM241.32,33.63c-21.08,1.16-21.8,43.1,4.98,39.22,17.41-2.53,17.97-40.48-4.98-39.22Z"/>
  <path d="M174.21,31.67c30.87-4.51,28.43,51.45-1.95,43.01-18.44-5.12-17.15-40.22,1.95-43.01ZM166.71,69.38c7.45,6.55,21.16,4.39,25.34-4.77,6.62-14.52-1.81-36.38-20.2-30.05-12.43,4.28-13.92,27.1-5.14,34.82Z"/>
  <path d="M445.74,31.67c31.33-4.58,27.92,52.51-2.45,42.86-17.65-5.61-16.32-40.11,2.45-42.86ZM438.24,69.38c3.7,3.34,9.72,4.16,14.5,3.46,20.39-2.97,16.74-46.26-8.85-38.42-12.79,3.92-14.43,27.05-5.65,34.96Z"/>
  <path d="M417.45,350.44c7.72-1.51,9.78,3.41,12.46,3.67,2.15.21,7.81-7.19,16.21-2.41,14,7.95-8.19,31.02-16.92,30.12-4.7-.49-17.66-13.09-18.66-17.55-1.24-5.52.79-12.63,6.92-13.83ZM418.11,352.41c-15.28,2.87,3.78,29.36,13.93,26.43,2.68-.77,11.13-7.76,12.82-10.19,9.27-13.37-4.38-22.58-14.41-11.09-1.55.03-5.22-6.49-12.34-5.15Z"/>
  <path d="M224.33,104.78c.99-2.88,17.4-1.6,20.53-.81,15.93,4.03,10.45,33.92-8.7,28.74v12.16c-2.99,2.28-9.03,2.61-11.83,0v-40.1ZM234.19,130.75c11.46.77,18.99-1.92,17.78-14.82-.37-3.92-4.06-10.16-8.24-10.16h-17.09l-.99.99v36.15l8.55.99v-13.15Z"/>
  <path d="M359.11,249.73c-4.24,5.69-8.74,11.62-15.11,15.11-.52-3.23,13.37-16.52,15.11-15.11Z"/>
  <path d="M379.49,366.05c-7.08-3.09-14.9-6.38-20.38-11.82,7.19,1.64,15.33,6.39,20.38,11.82Z"/>
  <path d="M255.89,264.18c-1.45,1.38-14.75-12.06-15.12-14.45l4.62,2.27,10.49,12.18Z"/>
  <path d="M238.79,285.87c-.61.64-14.89-6.13-16.23-7.1-.81-.59-1.81-.72-1.51-2.09.46-.41,4.99,1.28,5.9,1.65,1.97.81,9.15,4.13,10.7,5.08,1.28.78,1.31.9,1.14,2.47Z"/>
  <path d="M237.48,352.92c-5.92,3.54-11.44,9.66-18.4,10.5,4.99-4.67,11.85-8.55,18.4-10.5Z"/>
  <path d="M378.17,277.33c.39,1.77-.51,1.13-1.29,1.64-4.4,2.83-10.81,5.18-15.8,6.9,3.95-4.42,11.44-6.82,17.09-8.53Z"/>
  <path d="M401.19,729.22c-.83-4.81-5.83-5.04-6.58-9.53-.63-.41-9.6,5.52-13.8-.98-3.72-5.77,1.48-9.52,1.25-11.08-.11-.73-2.46-2.32-3.11-3.48-4.14-7.31,3.6-14.35,11.07-11.4.47-10.78,12.99-10.6,16.84-1.4,4.04-1.76,8.96-1.86,12.13,1.69,4.66,5.21-1.81,8.18-1.4,10.5,10.06,5.3,4.38,16.46-5.91,13.84-2.14,4.27-3.09,9.61-9.16,8.9l.66,15.77c.64.79,5.91-5.72,6.92-6.55,4.69-3.88,9.93-5.89,16.09-5.93,1.73,27.41-46.49,29.81-49.28,3.33,9.78-3.14,17.71,2.75,24.3,9.16-.47-3.89.64-9.12,0-12.82ZM404.48,696.02c-.13-12.83-14.61-13.27-11.5.64-11.54-7.45-20.34,6.63-5.6,10.54l-.38,1.35c-12.95,4.5-.49,17.87,7.29,7.2,3.84,10.17,15.42,11.65,14.8-1.33,13.77,4.44,15.57-8.2,2.64-11.5,14.01-5.49,1.96-16.6-7.24-6.9ZM424.19,731.52c-9.59,1.38-17.79,8.3-20.37,17.74,9.91-.94,20.75-6.36,20.37-17.74ZM401.84,749.26c-3.2-9.79-12.19-15.47-22.35-15.77-.09,10.75,12.88,17.06,22.35,15.77Z"/>
  <path d="M180.94,733.49c-.26-.46-8.37-2.76-6.58-7.23-11.3,3.52-19.1-4.13-9.89-13.47-9.82-7.63-.17-17.7,9.89-14.13-.34-10.59,14.49-9.98,15.13,0,10.5-3.36,18.1,5.56,9.87,14.13,8.87,7.4,2.35,17.37-8.55,13.47.56,5.01-6.13,5.8-7.3,7.51-1.78,2.61.08,9.12.06,12.21,5.78-4.41,13.27-9.72,20.93-7.13-.77,18.2-28.33,24.77-40,12.06-2.84-3.1-6.96-14.21-1.56-15.31,5.06-1.03,14.33,9.13,18,11.7-.53-2.37.71-12.56,0-13.8ZM187.52,703.25c2.59-12.75-12.75-14.35-11.19-1.32-11.62-5.22-21.45,5.16-7.22,10.86.48,1.15-5.31,2.68-6.23,4.94-1.09,2.68-.32,6.34,2.76,7.07,4.63,1.11,6.61-2.45,10.7-3.14-3.34,11.37,13.27,14.05,11.84,1.31,4.5,1.93,10.53,3.85,13.02-1.8,1.24-5.46-4.83-7.02-5.07-8.48,1.66-4.46,8.03-6.51,2.52-11.04-3.93-3.23-7.51-.81-11.11,1.59ZM180.28,755.18c-2.49-7.99-8.62-16.74-17.75-17.09-1.45,9.7,8.45,18.2,17.75,17.09ZM201.97,739.41c-8.54,1.69-19.17,6.23-19.06,16.43,8.47-1.44,19.22-6.43,19.06-16.43Z"/>
  <path d="M45.52,687.48c3.13-3.43,7.58-4.62,11.79-2.27,5.67,3.17,2.01,9.24,2.95,10.81s4.97,1.08,5.64,6.23c1.22,9.39-5.71,7.7-6.5,8.97-.44.71.19,3.3-.24,4.69-1.59,5.14-5.99,7-11.02,5.08l.66,15.12c5.84-2.73,10.64-9.12,17.78-6.94,3.6,7.7-5.29,15.43-11.88,17.78-15.08,5.38-32-2.7-30.9-20.04,10.01-.52,16.93,6.36,22.35,13.81l-1.31-21.69c-3.99,2.93-11.8,3.28-13.85-2.25-.67-1.8-.46-5.94-.68-6.23-.97-1.3-8.53.18-8.53-7.63s6.38-6.3,7.65-8.19c1.13-1.68-2.56-6.44,2.3-10.17,4.28-3.29,11.59-2.1,13.78,2.91ZM44.87,690.75c-3.83-11.66-20.56-4.06-10.55,5.93-12.59-.64-14.45,12.2-.65,12.5-3.06,9.18,4.13,13.22,10.73,6.67,3.64,2.36,7.89,5.08,11.92,1.85,2.84-3.29-.94-7.23-.3-8.52,11.23,1.26,10.24-11.35,0-11.84,5.76-5.04,1.42-13.7-6.13-11.05-1.85.65-2.1,5.32-5.02,4.46ZM45.5,746.63c-2.73-8.86-9.53-16.45-19.06-17.74-1.28,10.66,9.32,18.21,19.06,17.74ZM65.89,730.86c-8.88-1.01-18.27,6.46-17.75,15.77,8.16-.92,17.29-6.92,17.75-15.77Z"/>
  <path d="M282.83,737.43c4.55-11.73,17.04-13.08,13.81,2.64h-2.62s-1.64-9.84-1.64-9.84c-3.37.11-9.26,10.56-10.52,10.57-3.41.03-4.12-5.96-6.57-7.97s-6.94-1.33-7.57-4.58c7.44-1.37,9.54,6.6,15.1,9.19Z"/>
  <path d="M500.93,695.19c-.77.88-4.25.83-2.98,4.96.99,3.23,5.74,1.52,7.78.48,4.36,5.1-21.33,3.59-15.45-4.59,1.73,2.08,1.09,5.37,4.96,4.31,2.43-1.78-2.88-10.07,2.42-10.78,3.06-.41,5.16,3.45,3.27,5.62Z"/>
  <path d="M570.81,651.99l-24.98,21.68c-1.3-1.49,20.32-23.06,24.98-21.68Z"/>
  <path d="M514.37,690.67c-1.33-2.22-1.1-7.49,1.69-8.34,6.45-1.95,5.25,10.82-1.69,8.34Z"/>
  <path d="M488.63,686.82c.14-2.9-1.1-7.27,2.62-8.29,5.56-1.52,5.43,10.97-2.62,8.29Z"/>
  <path d="M138.86,573.11c-1.24,8.31-18.91,7.6-23,1.64,5.28.4,9.18,3.04,14.8,2.31,4.03-.52,4.68-3.43,8.2-3.95Z"/>
  <path d="M112.58,557.99c-2.47-5.99-6.05-4.59-8.23.65-3.59-3.26,3.16-7.4,5.81-7.04,2.36.32,7.15,5.81,2.42,6.39Z"/>
  <path d="M148.08,555.36c-1.28-5.78-5.92-4.4-8.23-.01-2.21.13-.9-8.65,7.39-5.4,2.57,1.01,4.5,5.03.84,5.41Z"/>
  <path d="M129.66,565.21l2.61-4.28-3.93-5.56c7.43.62,11.35,9.9,1.31,9.84Z"/>
  <path d="M151.35,538.93c-2.46.24-3.87-2.39-6.03-2.84-1.27-.27-6.59,1.83-5.79-.1,1.73-4.19,12.05-2.16,11.82,2.94Z"/>
  <path d="M112.56,538.93c-4.77-.99-7.65,2.06-11.83,3.29-2.05-2.21,11.22-9.4,11.83-3.29Z"/>
  <path d="M487.31,571.15c-5.14,7.71-21.38,5.4-23-3.95,2.29.37,2.96,2.91,4.36,3.85,5.96,3.98,12.32,1.61,18.64.1Z"/>
  <path d="M454.45,549.44c-1.87-8.96,14.1-8.55,10.19-.01-3.01-.9-2.35-5.36-5.82-4.51l-4.37,4.53Z"/>
  <path d="M474.82,550.77c.74,2.84-2.38,2.15-3.9,3.65-4.45,4.39,3.56,5.88,3.9,7.2-9.55,3.44-9.21-11.07,0-10.84Z"/>
  <path d="M503.09,556.02l-1.98-.45c-.81-4.59-3.02-4.71-6.55-2.49-1.28.8-1.21,3.43-3.3,1.94.8-8.17,12.26-7.08,11.84.99Z"/>
  <path d="M508.14,539.13c.55.71,1.86,3.34-.1,3.08-1.66-.23-9.68-5.11-11.52-6.55,2.99-1.59,9.74,1.05,11.62,3.48Z"/>
  <path d="M466.93,531.04c-3.82-.12-6.88-.54-9.65,2.52-7-1.97,9.18-7.72,9.65-2.52Z"/>
  <path d="M77.71,637.53c.49.33-.6,1.11-1.31.64-.49-.33.6-1.11,1.31-.64Z"/>
  <path d="M284.15,395.64l-3.7-3.17c-1.49-.65-6.03,6.46-6.17,2.84-.24-6.27,11.85-7.29,9.87.34Z"/>
  <path d="M315.24,393.19c-.91.74-.59,3.43-2.8,3.1-.69-7.56,9.44-7.35,11.15-.97-2.3,2.79-3-2.14-5.2-2.69-.73-.22-2.59.1-3.15.56Z"/>
  <path d="M284.16,376.58v1.97c-2.61-2.05-12.05,3.11-12.49,2.63-3.57-3.9,10.45-5.6,12.49-4.59Z"/>
  <path d="M312.43,378.55c.23-5.43,12.46-.75,12.47.99-3.73,2.36-8-3.26-12.47-.99Z"/>
  <path d="M283.51,415.36c6.59.68,13.44,1.01,20.07.67,1.75-.09,9.22-2.49,9.49-.35-5.89,14.49-27.02,18.02-29.56-.32ZM309.14,417.34c-7.68,2.21-15.17.14-22.73.02-1.01-.02-1.07-.27-.93.94,5.09,9.99,19.86,10.38,23.66-.96Z"/>
  <polygon points="167.46 630.95 167.79 631.28 167.46 631.61 167.46 630.95"/>
  <path d="M99.03,178.32c2.84-3.64,7.89-5.92,12.52-6.19l372.79.03c20.81,1.2,22.27,38.98,6.46,46.54-6.16,2.94-31.44,1.34-40.01,1.41-113.43.94-227.94-.64-341.85.02-17.27-2.92-18.61-30.67-9.92-41.82ZM406.36,186.71c-18.02-7.45-24.04,14.43-4.97,16.95,3.76,8.22-7,5.72-11.37,3.33l.1,5.16c8.62,5.1,22.65.24,16.91-11.32-2.52-5.07-12.43-3.02-11.75-7.95.72-5.18,10.76-.55,11.17-1.01l-.09-5.16ZM431.42,192.53c.55-4.69-.09-6.58-4.99-7.17-18.7-2.24-19.36,28.56-2.54,28.87,5.02.09,8.96-1.59,7.52-7.24-17.65,11.71-18.56-25.54,0-14.46ZM119.8,185.96h-5.92v27.61h16.44v-4.6s-10.52-.65-10.52-.65v-22.35ZM147.32,186.05l-7.48.56-8.21,26.95,5.83-.08,2.35-5.22c5.75.3,8.74-1.85,10.2,5l5.28.3-7.98-27.51ZM182.58,185.96c-3.71-.63-8.92.46-12.82,0v27.61h5.92s.28-9.24.28-9.24c1.14-1.64,10.14,1.53,12.36-5.39,1.6-4.99.14-11.97-5.74-12.97ZM205.59,185.96c-3.41-.65-8.53.47-12.16,0v27.61h5.92v-10.52c5.38-.64,6.82,6.47,7.96,10.44l6.5.07-6.56-12.81c5.72-2.96,4.97-13.54-1.66-14.79ZM223.67,185.96h-5.92v27.61h5.92v-27.61ZM229.59,185.96v27.61h5.26v-19.06c3.07,2.36,3.41,13.87,7.56,13.87l2.25-1.11,4.65-12.11v18.4h5.92v-27.61l-7.81.09-4.69,14.37-5.56-13.82-7.58-.63ZM276.93,185.96h-15.78v27.61h16.44l-1.07-5.2-9.44.59-.05-6.93,9.25-.67v-4.88s-9.59-.61-9.59-.61l.7-4.64h9.53v-5.26ZM295.01,185.96c-3.42-.65-8.53.47-12.16,0v27.61h5.26v-9.53c8.85-4.03,4.61,13.18,15.12,9.53.41-2.78-6.54-12.09-6.54-12.81,0-.68,5.18-3.01,3.64-9.58-.54-2.29-3.04-4.78-5.31-5.21ZM320.29,186l-7.78.04-7.96,27.53,5.84-.07c.12-7.32,4.66-4.98,10.17-5.1l1.8,5.1,5.84.07-7.92-27.57ZM348.59,203.71c8.87,2.12,16.5-4.92,11.96-13.6-.68-1.3-3.94-4.15-5.06-4.15h-12.82v27.61h5.92v-9.86ZM378.73,186.06c-.56-.34-6.67-.32-7.21.29l-8.47,27.21c5.36.36,6.84.6,7.3-5.18l9.38-.11c1.34,5.62,1.67,5.78,7.64,5.29-2.02-3.1-7.41-26.75-8.65-27.5ZM442.61,185.96h-5.92v20.7c0,7.2,13.64,10.55,18.03,3.56.25-.41,1.7-3.99,1.7-4.22v-20.05h-5.92v19.39c0,2.53-3.45,4.8-5.9,3.27-.41-.36-1.99-1.76-1.99-1.95v-20.7ZM475.41,186.03l-7.79-.04-7.92,27.57,5.84-.07c.12-7.32,4.66-4.98,10.17-5.1l1.8,5.1,5.84.07-7.96-27.53Z" fill="#fff"/>
  <path d="M361.74,35.11c.55-1.5,8.19-1.41,9.54-.33,2.61,2.08,8.12,21.38,11.5,24.98v-24.65c1.78-1.62,6.29-1.54,7.89,0v37.14h-9.86l-11.18-24.98v24.98h-7.89v-37.14Z" fill="#fff"/>
  <path d="M357.79,72.24l-8.45-.09-1.79-6.52-12.35.13-2.49,6.39-7.79.1,11.83-37.8,9.55.32,11.49,37.47ZM345.3,58.44c-.18-1.26-3.57-14.46-4.59-13.8l-3.95,13.79h8.54Z" fill="#fff"/>
  <polygon points="320.32 34.12 320.32 42.01 306.51 42.01 306.51 48.59 319.66 48.59 319.66 56.47 306.51 56.47 306.51 65.02 320.98 65.02 320.98 72.25 298.62 72.25 298.62 35.11 299.61 34.12 320.32 34.12" fill="#fff"/>
  <path d="M403.49,105.77c8.81,1.52,10.52,16.44,2.31,19.73v1.29c5.13,3.05,6.88,11.63,9.2,17.1h-9.2c-1.85-5.53-3.5-15.85-11.18-14.46v14.46h-8.55v-38.12c5.25.64,12.43-.86,17.42,0ZM394.61,122.86c10.88,2.2,11.42-12.68,0-9.86v9.86Z" fill="#fff"/>
  <path d="M437.93,105.85l11.25,38.04-7.92-.29-3.03-6.83-11.98-.03-2.01,6.86-7.92.29,11.22-37.09,10.4-.96ZM433.4,115.63c-1.77-.25-1.01.17-1.33.96-.45,1.11-3.75,12.38-3.27,12.84h7.89s-3.29-13.8-3.29-13.8Z" fill="#fff"/>
  <path d="M532.68,303.61c11.87-7.4,31.14-1.44,28.86,14.73-1.67,11.85-15.64,16.3-25.85,14.13-2.49-.53-6.67-3.33-8.56-3.22-2.02.12-7.42,4.81-9.99,5.83-5.94,2.35-12.38,1.78-18.17-.73-2.3-1-7.4-5.48-8.06-5.51-.76-.04-6.13,3.14-8.71,3.53-33.36,5.02-30.56-37.16.45-29.45,1.82-32.6,49.43-30.7,50.03.7Z" fill="#fff"/>
  <path d="M194.63,105.89l11.95,38-8.47-.07-2.46-7.06-12.15.3-1.99,6.75-8.45.08,11.76-37.72,9.82-.28ZM194.09,129.43l-4.59-14.45-3.95,14.45h8.54Z" fill="#fff"/>
  <polygon points="157.27 105.77 157.27 135.68 158.75 136.53 171.74 136 171.73 143.89 149.38 143.89 149.38 105.77 157.27 105.77" fill="#fff"/>
  <path d="M55.37,277.99c-.96-23.26,33.04-28.97,41.44-8.24.66,1.62,1.16,7.18,2.35,7.55,8.43-5.05,19.43-4.01,24.04,5.5,6.63,13.67-6.34,23.61-19.47,21.43-1.97-.33-4.56-2.63-6.37-2.27-1.42.29-6.79,5.02-9.14,5.92-10.18,3.91-22.08.42-29.9-6.75-12.01,13.29-37.48-5.78-24.03-18.89,6.06-5.9,13.42-4.87,21.06-4.25Z" fill="#fff"/>
  <path d="M337.32,105.86l11.27,38.03-7.91-.3-1.87-6.54-12.82-.42-2.36,6.96-7.91.3,11.5-37.47,10.11-.56ZM336.1,129.43l-3.94-13.79-3.95,13.79h7.89Z" fill="#fff"/>
  <polygon points="299.94 105.77 299.94 136.66 313.79 136.29 314.4 143.89 292.38 143.89 291.39 142.91 291.39 106.76 299.94 105.77" fill="#fff"/>
  <path d="M156.61,43.98c-25.49-16.01-25.13,35.05,0,19.07.36,5.8.71,8.6-5.74,9.7-33.28,5.68-25.34-53.52,5.42-35.99l.32,7.23Z" fill="#fff"/>
  <path d="M278.57,34.12c12.71,1.36,15.54,13.65,5.6,20.7,5.46,3.67,6.85,11.57,9.19,17.41l-8.43-.11c-3.1-4.95-3.46-15.36-11.29-13.69v12.82l-8.55.99v-37.14l.99-.99c4.02.31,8.55-.42,12.49,0ZM273.64,51.21c10.86,2,10.88-11.71,0-9.86v9.86Z" fill="#fff"/>
  <path d="M545.68,54.65c.92.73,1.38,5.93,4.78,8.04,2.55,1.59,11.16,1.99,11.77,4.06.33,3.44-6.36,5.03-7.07,7.27-1.14,3.62,2.58,7.95.61,11.65-1.64,1.99-9.21-4.08-11.57-4.15-2.56-.08-11.14,6.18-12.83,4.52-.48-4.13,2.84-7.92,1.69-11.89-.76-2.62-9.05-4.33-7.62-9.14.48-.49,9.74-.34,11.81-1.67s2.64-7.25,4.63-9.21c.52-.28,3.45.24,3.8.51Z" fill="#fff"/>
  <path d="M275.5,105.89l11.95,38-8.47-.07-2.46-7.06-12.15.29-1.99,6.75-7.79.1,11.1-37.72,9.82-.28ZM274.95,129.43c-1.68-4.36-1.96-10.09-4.59-13.8l-3.3,13.8h7.89Z" fill="#fff"/>
  <path d="M167.79,354.23c-4.43,1.18-7.55-3.84-11.52-3.99s-7.87,4.55-12.14,3.99c-1-3.52,2.06-8.26,1.19-11.35-.73-2.6-9.43-5.8-7.75-8.35,5.05-1.97,11.06-1.43,14.35-6.37,1.35-2.04,1.63-7.13,4.7-5.82,2.5,1.07,2.83,7.19,4.92,8.91,2.97,2.44,9.27.09,12.19,3.61.4,1.86-7.04,6.02-7.63,8.19-.72,2.66,2.99,7.76,1.71,11.19Z" fill="#fff"/>
  <path d="M426.38,261.35c3.2,3.52,10.18.8,13.57,4.47-.8,3.25-7.84,5.54-8.41,8.03s3.14,8.18,1.86,11.37c-4.06.83-7.88-3.86-11.52-3.99-4.24-.16-7.29,4.88-11.52,3.7-1.7-1.14,1.69-8.58,1.08-10.9-.81-3.11-9.56-6.07-7.57-9.13,3.05-1.9,8.87-.56,11.38-2.09s2.33-8.27,6.02-9.17c3.27-.3,3.41,5.85,5.1,7.72Z" fill="#fff"/>
  <path d="M409.41,34.12c14.99,1.13,20.72,9.88,18.68,24.59-.88,6.36-7.37,13.54-14.07,13.54h-15.45v-38.12c3.58.2,7.27-.27,10.85,0ZM406.45,43v21.03c17.82,7.13,18.24-28.12,0-21.03Z" fill="#fff"/>
  <path d="M182.74,259.08c8.24-1.44,12.5,5.95,9.97,13.25-1.57,4.52-13.76,16.11-18.5,15.4-2.86-.43-14.67-9.13-16.56-11.77-10.71-14.98,7.81-22.72,17.04-10.48,1.85-2.72,4.6-5.8,8.04-6.4Z" fill="#fff"/>
  <path d="M370.62,105.77c7.7,1.33,10.3,13.15,3.62,17.41,7.9,4.28,5.73,20.71-3.62,20.71h-17.42v-38.12c5.25.64,12.43-.86,17.42,0ZM361.08,120.23l7.63-.59c3.34-5.59-1.76-8.55-7.01-7.01l-.62,7.6ZM362.16,126.9c-1.95.75-1.02,7.81-.79,9.81,13.82,4.51,11.36-13.9.79-9.81Z" fill="#fff"/>
  <path d="M208.55,65.02h14.46v7.23h-23.01v-37.14c1.91-1.61,6.77-1.57,8.55,0v29.91Z" fill="#fff"/>
  <path d="M241.32,33.63c22.94-1.26,22.39,36.69,4.98,39.22-26.78,3.89-26.05-38.05-4.98-39.22ZM241.27,40.82c-8.98,1.49-8.36,23.02-1.19,25.21,13.49,4.12,14-27.34,1.19-25.21Z" fill="#fff"/>
  <path d="M166.71,69.38c-8.78-7.71-7.29-30.54,5.14-34.82,18.38-6.33,26.81,15.53,20.2,30.05-4.17,9.16-17.88,11.32-25.34,4.77ZM176.17,40.84c-9.17,1.59-8.83,25.93,1.79,25.54,10.47-.39,10.88-27.73-1.79-25.54Z" fill="#fff"/>
  <path d="M438.24,69.38c-8.78-7.91-7.14-31.05,5.65-34.96,25.59-7.83,29.23,35.45,8.85,38.42-4.78.7-10.8-.12-14.5-3.46ZM444.8,64.8c13.51,10.89,18.15-26.72,2.91-23.96-8.12,1.47-8.02,19.83-2.91,23.96Z" fill="#fff"/>
  <path d="M418.11,352.41c7.13-1.34,10.8,5.18,12.34,5.15,10.03-11.49,23.67-2.28,14.41,11.09-1.69,2.44-10.14,9.42-12.82,10.19-10.15,2.93-29.22-23.56-13.93-26.43Z" fill="#fff"/>
  <path d="M234.19,130.75v13.15l-8.55-.99v-36.15l.99-.99h17.09c4.18,0,7.87,6.24,8.24,10.16,1.21,12.9-6.32,15.59-17.78,14.82ZM234.19,113v10.19c11.9,4.75,13.64-13.5,0-10.19Z" fill="#fff"/>
  <path d="M404.48,696.02c9.2-9.7,21.25,1.41,7.24,6.9,12.92,3.3,11.13,15.94-2.64,11.5.62,12.98-10.96,11.5-14.8,1.33-7.78,10.68-20.24-2.7-7.29-7.2l.38-1.35c-14.75-3.91-5.94-18,5.6-10.54-3.11-13.91,11.37-13.47,11.5-.64ZM394.85,710.25c6.89,5.78,18.16-2.89,11.62-9.97s-18.08,2.4-11.62,9.97Z" fill="#fff"/>
  <path d="M401.84,749.26c-9.48,1.29-22.45-5.01-22.35-15.77,10.16.3,19.15,5.98,22.35,15.77Z" fill="#fff"/>
  <path d="M424.19,731.52c.37,11.38-10.46,16.8-20.37,17.74,2.58-9.44,10.78-16.36,20.37-17.74Z" fill="#fff"/>
  <path d="M187.52,703.25c3.61-2.4,7.18-4.82,11.11-1.59,5.51,4.53-.86,6.57-2.52,11.04.24,1.46,6.31,3.01,5.07,8.48-2.49,5.65-8.52,3.74-13.02,1.8,1.43,12.73-15.17,10.06-11.84-1.31-4.09.69-6.07,4.25-10.7,3.14-3.08-.74-3.85-4.4-2.76-7.07.92-2.26,6.71-3.78,6.23-4.94-14.23-5.7-4.4-16.08,7.22-10.86-1.56-13.03,13.78-11.44,11.19,1.32ZM180.81,705.37c-9.61,1.01-8.25,15.06,1.7,14.29,9.54-.74,9.43-15.46-1.7-14.29Z" fill="#fff"/>
  <path d="M180.28,755.18c-9.3,1.11-19.2-7.39-17.75-17.09,9.13.35,15.26,9.1,17.75,17.09Z" fill="#fff"/>
  <path d="M201.97,739.41c.16,9.99-10.58,14.99-19.06,16.43-.11-10.19,10.52-14.74,19.06-16.43Z" fill="#fff"/>
  <path d="M44.87,690.75c2.92.86,3.16-3.81,5.02-4.46,7.55-2.65,11.9,6,6.13,11.05,10.25.49,11.24,13.1,0,11.84-.65,1.29,3.13,5.23.3,8.52-4.04,3.22-8.29.51-11.92-1.85-6.6,6.55-13.8,2.51-10.73-6.67-13.8-.3-11.93-13.15.65-12.5-10.01-9.99,6.72-17.59,10.55-5.93ZM43.38,694.83c-11,1.47-6.56,18.84,4.56,13.15,7.92-4.06,3.9-14.28-4.56-13.15Z" fill="#fff"/>
  <path d="M45.5,746.63c-9.74.47-20.34-7.08-19.06-17.74,9.53,1.29,16.33,8.88,19.06,17.74Z" fill="#fff"/>
  <path d="M65.89,730.86c-.46,8.85-9.59,14.86-17.75,15.77-.52-9.31,8.87-16.78,17.75-15.77Z" fill="#fff"/>
  <path d="M309.14,417.34c-3.8,11.34-18.56,10.96-23.66.96-.13-1.21-.07-.96.93-.94,7.56.12,15.04,2.19,22.73-.02Z" fill="#fff"/>
  <path d="M229.59,185.96l7.58.63,5.56,13.82,4.69-14.37,7.81-.09v27.61h-5.92v-18.4l-4.65,12.11-2.25,1.11c-4.15,0-4.49-11.51-7.56-13.87v19.06h-5.26v-27.61Z"/>
  <path d="M205.59,185.96c6.62,1.25,7.37,11.83,1.66,14.79l6.56,12.81-6.5-.07c-1.14-3.97-2.58-11.08-7.96-10.44v10.52h-5.92v-27.61c3.64.47,8.75-.65,12.16,0ZM204.45,197.63c2.96-2.96-.71-8.69-5.1-7.08v7.89c1.39-.01,4.09.19,5.1-.82Z"/>
  <path d="M295.01,185.96c2.26.43,4.77,2.93,5.31,5.21,1.54,6.57-3.64,8.9-3.64,9.58,0,.73,6.95,10.03,6.54,12.81-10.51,3.65-6.27-13.56-15.12-9.53v9.53h-5.26v-27.61c3.64.47,8.75-.65,12.16,0ZM293.85,197.62c4.62-5.1-8.16-13.78-5.75.83,1.47-.04,4.74.29,5.75-.83Z"/>
  <path d="M442.61,185.96v20.7c0,.19,1.58,1.6,1.99,1.95,2.46,1.54,5.9-.74,5.9-3.27v-19.39h5.92v20.05c0,.23-1.44,3.81-1.7,4.22-4.39,6.99-18.03,3.64-18.03-3.56v-20.7h5.92Z"/>
  <path d="M475.41,186.03l7.96,27.53-5.84-.07-1.8-5.1c-5.52.12-10.05-2.22-10.17,5.1l-5.84.07,7.92-27.57,7.79.04ZM472.19,193.19c-1.74-.21-1.03.08-1.33.96-.44,1.28-2.53,8.98-1.95,9.56h5.92s-2.63-10.52-2.63-10.52Z"/>
  <path d="M378.73,186.06c1.23.75,6.62,24.4,8.65,27.5-5.97.49-6.3.33-7.64-5.29l-9.38.11c-.46,5.78-1.94,5.54-7.3,5.18l8.47-27.21c.54-.61,6.65-.63,7.21-.29ZM378.17,203.7l-3.28-10.51-2.64,10.51h5.91Z"/>
  <path d="M320.29,186l7.92,27.57-5.84-.07-1.8-5.1c-5.52.12-10.05-2.22-10.17,5.1l-5.84.07,7.96-27.53,7.78-.04ZM317.03,193.19c-1.82-.32-1,.33-1.31.98-1.27,2.63-1.5,6.69-2.62,9.53h5.92s-1.98-10.51-1.98-10.51Z"/>
  <path d="M147.32,186.05l7.98,27.51-5.28-.3c-1.46-6.86-4.45-4.7-10.2-5l-2.35,5.22-5.83.08,8.21-26.95,7.48-.56ZM146.75,203.7l-2.95-10.51-2.96,10.51h5.92Z"/>
  <path d="M182.58,185.96c5.88,1,7.34,7.98,5.74,12.97-2.21,6.93-11.21,3.75-12.36,5.39l-.28,9.25h-5.92v-27.61c3.9.46,9.11-.63,12.82,0ZM175.68,199.11c5.7,1.33,9.78-3.1,5.53-7.82l-5.24-.11-.29,7.93Z"/>
  <path d="M348.59,203.71v9.86h-5.92v-27.61h12.82c1.12,0,4.38,2.85,5.06,4.15,4.54,8.69-3.09,15.72-11.96,13.6ZM354.31,191.42c-1.62-1.25-3.87-.8-5.73-.86v8.55c5.15,1.85,10.11-4.32,5.73-7.69Z"/>
  <polygon points="276.93 185.96 276.93 191.22 267.39 191.22 266.7 195.86 276.27 196.47 276.28 201.35 267.03 202.02 267.07 208.96 276.52 208.36 277.59 213.57 261.15 213.57 261.15 185.96 276.93 185.96"/>
  <path d="M406.36,186.71l.09,5.16c-.41.46-10.45-4.16-11.17,1.01-.68,4.92,9.23,2.88,11.75,7.95,5.74,11.56-8.29,16.42-16.91,11.32l-.1-5.16c4.37,2.38,15.12,4.89,11.37-3.33-19.06-2.52-13.04-24.4,4.97-16.95Z"/>
  <path d="M431.42,192.53c-18.56-11.08-17.65,26.17,0,14.46,1.43,5.65-2.5,7.34-7.52,7.24-16.83-.32-16.16-31.12,2.54-28.87,4.89.59,5.54,2.48,4.99,7.17Z"/>
  <polygon points="119.8 185.96 119.8 208.31 130.32 208.96 130.31 213.57 113.88 213.57 113.88 185.96 119.8 185.96"/>
  <rect x="217.76" y="185.96" width="5.92" height="27.61"/>
  <path d="M345.3,58.44h-8.54s3.95-13.8,3.95-13.8c1.02-.67,4.41,12.53,4.59,13.8ZM342.67,55.81l-1.96-3.93-1.32,3.94h3.28Z"/>
  <path d="M394.61,122.86v-9.86c11.42-2.82,10.88,12.06,0,9.86ZM396.59,120.23l3.66-.62-.33-4.36-3.33-.29v5.26Z"/>
  <path d="M433.4,115.63l3.29,13.8h-7.89c-.48-.46,2.82-11.73,3.27-12.84.32-.79-.44-1.22,1.33-.96ZM433.4,122.86c-2.91.13-2.25,7.2.66,4.6.35-.31-.95-3.68-.66-4.6Z"/>
  <path d="M194.09,129.43h-8.54s3.95-14.45,3.95-14.45l4.59,14.45ZM191.46,127.46l-1.96-5.25c-.28,3.04-2.41,6.09,1.96,5.25Z"/>
  <path d="M336.1,129.43h-7.89s3.95-13.79,3.95-13.79l3.94,13.79ZM333.47,127.46l-.98-4.59c-1.75,2.44-3.11,5.49.98,4.59Z"/>
  <path d="M273.64,51.21v-9.86c10.88-1.85,10.86,11.86,0,9.86ZM279.45,44.09c-.3-.49-3.1-1.07-3.88-.49l-.62,4.99,3.99-.29c.77-.54.93-3.53.51-4.21Z"/>
  <path d="M274.95,129.43h-7.89s3.3-13.8,3.3-13.8c2.63,3.71,2.91,9.44,4.59,13.8ZM272.32,127.46l-1.96-5.25c.35,3.94-3.74,5.98,1.96,5.25Z"/>
  <path d="M406.45,43c18.24-7.09,17.82,28.16,0,21.03v-21.03ZM408.42,43.98v18.08c12.39,4.38,13.18-20.42,0-18.08Z"/>
  <path d="M362.16,126.9c10.57-4.1,13.02,14.31-.79,9.81-.23-1.99-1.15-9.05.79-9.81ZM368.87,130.19l-5.82-.76v5.26s5.31-.29,5.31-.29l.51-4.22Z"/>
  <path d="M361.08,120.23l.62-7.6c5.25-1.54,10.35,1.42,7.01,7.01l-7.63.59ZM367.66,114.98h-4.61s0,3.29,0,3.29l3.99-.29.62-2.99Z"/>
  <path d="M241.27,40.82c12.81-2.13,12.3,29.33-1.19,25.21-7.17-2.19-7.79-23.72,1.19-25.21ZM245.84,62.85c4.18-3.24,4.14-20.74-3.93-20.04-7.42.64-6.34,18.64-1.79,20.55,1.6.67,4.32.58,5.72-.51Z"/>
  <path d="M176.17,40.84c12.67-2.19,12.26,25.16,1.79,25.54-10.62.39-10.96-23.95-1.79-25.54ZM176.83,42.77c-7.16,1.21-6.3,19.27-1.33,20.78,11.33,3.45,10.46-22.33,1.33-20.78Z"/>
  <path d="M444.8,64.8c-5.11-4.12-5.21-22.49,2.91-23.96,15.24-2.76,10.6,34.85-2.91,23.96ZM452.94,44.17c-10.29-10.36-14.7,24.85-1.14,19.18,4.53-1.89,4.16-16.14,1.14-19.18Z"/>
  <path d="M234.19,113c13.64-3.31,11.9,14.94,0,10.19v-10.19ZM241.26,120.73c.89-.87,1.15-3.16.21-4.15l-5.31-1.61v6.58c1.4-.02,4.06.2,5.1-.82Z"/>
  <path d="M394.85,710.25c-6.46-7.58,5.32-16.8,11.62-9.97s-4.73,15.76-11.62,9.97ZM396.09,709.01c2.73,2.62,11.79.26,9.35-5.74-2.87-7.07-15.12.21-9.35,5.74Z"/>
  <path d="M180.81,705.37c11.13-1.17,11.24,13.55,1.7,14.29-9.95.77-11.3-13.28-1.7-14.29ZM180.78,707.32c-6.92,1.15-5.52,10.45,1.04,10.19,7.79-.31,7.45-11.6-1.04-10.19Z"/>
  <path d="M43.38,694.83c8.46-1.13,12.48,9.09,4.56,13.15-11.11,5.69-15.56-11.68-4.56-13.15ZM42.69,697.48c-5.38,1.22-4.86,9,1.16,9.13,9.2.2,7.74-11.16-1.16-9.13Z"/>
  <path d="M204.45,197.63c-1.01,1.01-3.72.8-5.1.82v-7.89c4.39-1.62,8.06,4.12,5.1,7.08Z" fill="#fff"/>
  <path d="M293.85,197.62c-1.01,1.12-4.29.79-5.75.83-2.41-14.61,10.37-5.93,5.75-.83Z" fill="#fff"/>
  <path d="M472.19,193.19l2.63,10.51h-5.92c-.58-.57,1.51-8.28,1.95-9.55.3-.88-.4-1.17,1.33-.96Z" fill="#fff"/>
  <polygon points="378.17 203.7 372.26 203.7 374.9 193.2 378.17 203.7" fill="#fff"/>
  <path d="M317.03,193.19l1.98,10.52h-5.92c1.12-2.84,1.35-6.91,2.62-9.54.32-.65-.51-1.3,1.31-.98Z" fill="#fff"/>
  <polygon points="146.75 203.7 140.83 203.71 143.8 193.19 146.75 203.7" fill="#fff"/>
  <path d="M175.68,199.11l.29-7.93,5.24.11c4.26,4.73.17,9.15-5.53,7.82Z" fill="#fff"/>
  <path d="M354.31,191.42c4.38,3.37-.58,9.54-5.73,7.69v-8.55c1.85.06,4.1-.39,5.73.86Z" fill="#fff"/>
  <polygon points="342.67 55.81 339.39 55.81 340.71 51.87 342.67 55.81" fill="#fff"/>
  <polygon points="396.59 120.23 396.59 114.97 399.91 115.26 400.24 119.62 396.59 120.23" fill="#fff"/>
  <path d="M433.4,122.86c-.29.92,1.01,4.29.66,4.6-2.91,2.6-3.57-4.47-.66-4.6Z" fill="#fff"/>
  <path d="M191.46,127.46c-4.37.85-2.24-2.21-1.96-5.25l1.96,5.25Z" fill="#fff"/>
  <path d="M333.47,127.46c-4.09.9-2.73-2.15-.98-4.59l.98,4.59Z" fill="#fff"/>
  <path d="M279.45,44.09c.42.69.26,3.67-.51,4.21l-3.99.29.62-4.99c.78-.58,3.58,0,3.88.49Z" fill="#fff"/>
  <path d="M272.32,127.46c-5.71.73-1.61-1.31-1.96-5.25l1.96,5.25Z" fill="#fff"/>
  <path d="M408.42,43.98c13.18-2.34,12.39,22.46,0,18.08v-18.08Z" fill="#fff"/>
  <polygon points="368.87 130.19 368.36 134.41 363.05 134.69 363.05 129.43 368.87 130.19" fill="#fff"/>
  <polygon points="367.66 114.98 367.04 117.97 363.05 118.26 363.05 114.97 367.66 114.98" fill="#fff"/>
  <path d="M245.84,62.85c-1.4,1.08-4.11,1.18-5.72.51-4.55-1.91-5.64-19.9,1.79-20.55,8.07-.7,8.11,16.8,3.93,20.04Z" fill="#fff"/>
  <path d="M176.83,42.77c9.13-1.55,10,24.24-1.33,20.78-4.96-1.51-5.82-19.57,1.33-20.78Z" fill="#fff"/>
  <path d="M452.94,44.17c3.02,3.04,3.39,17.29-1.14,19.18-13.56,5.67-9.15-29.55,1.14-19.18Z" fill="#fff"/>
  <path d="M241.26,120.73c-1.04,1.02-3.7.8-5.1.82v-6.58s5.31,1.61,5.31,1.61c.94,1,.68,3.28-.21,4.15Z" fill="#fff"/>
  <path d="M396.09,709.01c-5.77-5.53,6.49-12.81,9.35-5.74,2.44,6-6.62,8.36-9.35,5.74Z" fill="#fff"/>
  <path d="M180.78,707.32c8.49-1.41,8.83,9.89,1.04,10.19-6.56.26-7.96-9.05-1.04-10.19Z" fill="#fff"/>
  <path d="M42.69,697.48c8.9-2.02,10.36,9.34,1.16,9.13-6.02-.13-6.54-7.91-1.16-9.13Z" fill="#fff"/>
</svg>