<?xml version="1.0" encoding="UTF-8"?>
<svg id="Camada_1" xmlns="http://www.w3.org/2000/svg" version="1.1" viewBox="0 0 595.28 841.89">
  <!-- Generator: Adobe Illustrator 29.0.0, SVG Export Plug-In . SVG Version: 2.1.0 Build 186)  -->
  <path d="M.14,840.63V-.06h595v840.69H.14ZM591.19,3.89H4.08v513.35l6.92-2.61c31.45-34.57,59.8-80.86,96.3-110.12,15.64-12.54,28.85.92,40.46,11.49,4.66,4.25,30.1,32.26,32.33,32.81,1.57.39,13.72-12.33,16.32-14.37,3.62-2.84,7.71-5.88,12.14-7.26-4.02-4.77-7.26-8.25-7.94-14.79-.16-1.5,1.1-4.11.45-4.95-1.62-2.08-6.55-.49-8.65-8.47-4.06-15.44,6.04-19.38,11.24-30.25,1.76-3.67,2.43-7.82,3.47-11.73-1.48-4.31-5.35-6.64-6.96-11.11-3.54-9.82-.96-18.58,4.31-26.96,1.01-1.61,5.08-5.07,5.16-6.42.05-.87-2.66-6.21-2.96-8.62-1.65-13.3,7.59-25.32,19.96-29.19,2.94-.92,9.9-1.35,11.49-2.31.87-.52,3.62-5.49,4.96-6.87,12.8-13.27,34.62-17.4,51.98-11.86,2.5.8,7.45,4.27,9.26,4.44,2.44.23,10.62-2.73,14.47-3,16.11-1.13,36.71,5.18,44.2,20.7.92,1.92,3.03,10.16,3.53,10.61.43.39,7.48,2.5,9.91,4.22,5.48,3.88,9.5,11.35,9.6,18.06.05,3.93-2.95,9.12-2.46,11.56.44,2.19,3.85,4.24,5.08,6.8,2.72,5.69,2.51,13.79-.07,19.51-1.19,2.64-3.52,3.68-4.18,6.33-3.44,13.88,18.37,27.59,8.39,43.88-1.27,2.08-4.74,4.05-5.05,5.38-.56,2.36,2.18,5.26.46,10.41-1.57,4.7-5.35,6.95-8.02,10.7,40.65,20.91,66.34,64.16,74.91,108.18l39.82-1.03,1.64-1.64-5.22-34.87c-.62-.58-1.35-.37-2.02.02-3.36,1.98-9.79,24.26-14.46,13.82-3.03-6.79-1.58-12.52,0-19.39-1.78-1.7-17.27,9.11-20.95,5.82.39-10.26,11.92-20.22,22.26-18.97,1.78-2.55-24.98-14.9-10.21-16.46,11.35-1.2,17.76,2.54,25.01,10.57,6.73-5.41,12.14-10.36,21.53-9.05,19.44,2.72-10.93,13.22-8.04,15.6,10.53-.86,18.51,8.18,17.75,18.41-2.01,2-15.81-5.32-18.87-5.79-.99-.15-1.76-.59-1.5.85,2.8,2.85,4.02,7.93,5.27,11.83s6.89,27.25,8.04,28.43c1.29,1.33,15.21,3.05,16.77,1.32,2.77-30.81-1.39-61.97-3.88-92.74-.5-1.85-2.67-.02-3.86.54-7.3,3.49-14.66,10.56-22.11,13.39-1.41.54-2.91,1.73-4.4.7-3.4-1.97-1.79-11.68-.07-15.02,3.45-6.67,11.16-7.43,16.72-11.21l-21.68-8.27c8.17-12.94,24.08-11.31,34.82-2.25,1.45-7.88,11.23-17.74,19.44-17.77,11.42-.04-4.42,14.91-2.33,17.77.48.17.78-.66.98-.66h11.18c6.11,0,17.26,9.4,14.83,16.14l-19.1-1.02c-.98.88,4.22,6.43,4.96,7.85,3.12,5.93,3.78,11.52.86,17.69-3.91,2.42-12.58-10.6-16.34-11.74l13.58,87.93,35.72,6.72V3.89ZM366.35,340.42c.08-3.2,6.35-2.06,8.37-1.47,4.19,1.23,6.8,5.97,9.05,9.34,5.3-5.98,5.12-13.48,2.1-20.49-.92-2.13-5.26-7.47-5.43-8.35-.09-.46,2.82-6.36,2.99-8.94.85-12.55-9.48-19.66-20.05-23.32-1.73-19.72-23.49-30.58-41.41-30.3-5.66.09-12.98,3.8-17.75,3.37-2.9-.26-6.94-3.32-10.19-4.31-19.83-6.04-44.63-.62-54.05,19.25-14.65-.55-31.17,9.48-31.34,25.52-.04,4.19,3.63,10.43,3.06,12.89-.35,1.53-5.25,6.5-6.68,9.14-5.2,9.63-5.77,21.46,2.55,29.49l4.63-7.84c2.89-3.2,10.19-6.49,14.07-3.66-2.96,4.49-6.8.27-11.51,4.91-6.74,6.65-6.17,19.15,1.31,25.03,3.32,2.61,7.68,3.06,11.19,5.24,2.18,8.08-.37,18.93,4.93,25.96,1.06,1.41,2.94,1.73,3.82,3.41,1.84,3.5,1.61,9,4.45,13.3,5.26,7.95,10.82,4.19,16.04,7.62,5.79,3.8,5.31,10.11,15.65,13.28,12.78,3.91,13.82-1.52,22.19-1.84,2.82-.11,7.56,3.1,11.79,3.35,7.37.44,18.68-3.02,23.95-8.31,1.54-1.55,2.89-5.17,4.48-6.04,4.5-2.47,8.27.88,13.34-5.06,6.58-7.71,3.51-13.62,6.27-19.37.84-1.76,5.82-3.84,6.73-6.41,1.39-3.9,2.15-20.4,3.55-22.41,19.72-2.28,25.53-32.41,1.86-32.99ZM234.75,415.26c1.14-8.29-6.34-12.8-8.15-20.25-1.37-5.63-.59-11.46-1.26-17.14-7.34-2.24-13.84-6.61-17.11-13.78-5.36,12.32-27.92,35.34-3.69,41.48-1.1,6.87-1.01,13.28,4.47,18.24l25.74-8.55ZM383.43,364.09c-5.15,4.04-8.7,9.85-16.33,10.62-1.18,7.89-.19,16.64-5.07,23.52-1.53,2.16-5.3,4-5.6,4.42-.91,1.3-.98,8.9-.63,11.08.75.77,19.06,7.49,20.13,7.54,7.63.36,12.42-15.14,8.17-21,9.56-3.69,10-13.52,6.59-22.07-1.94-4.85-6.9-8.62-7.26-14.11ZM548.13,428.5c6.2-.89,14.29.66,20.71,0-2.54-12.89-18.51-11.48-28.27-9.21l7.88-19.05c-10.16,1.38-18.74,9.26-19.06,19.72-4.27-.11-6.48-4.37-9.84-6.27-7.3-4.11-18.73-3.17-23.7,3.96,8.42,1.7,16.71,4.68,23.66,9.87-10.24,4.68-25.21,7.62-21.01,22.68l33.09-16.97,25.41,20.25c2.67-10.13-2.54-18.52-11.16-23.34-.48-1.03,1.86-1.57,2.29-1.63ZM111.84,431.85c2.17,13,17.66,14.83,24.05,3.96,7.12,5.44,23.85,2.47,19.78-8.67-11.75-9.03-26.3-31.96-43.72-23.25-3.62,1.81-25.7,22.31-25.7,24.94,6.27,11.62,16.14,5.8,25.59,3.02ZM406.45,590.2h10.85c3.72,0,20.64-8.52,23.36-11.48,2.96-3.22,1.64-6.47,3.35-9.8,1.25-2.44,5.18-4.5,6.83-7.64,13.84-26.43-16.05-83.09-32.95-104.44-15.98-20.19-37.49-33.84-62.4-40.59-1.91.25-6.91,10.74-13.29,12.1-2.15.46-4.94-.37-6.75.48-.94.44-3.33,4.72-4.58,5.94-6.67,6.51-18.13,9.19-27.23,8.12-2.98-.35-6.53-2.37-9.27-2.42-3.17-.05-6.72,2.13-9.87,2.49-9.35,1.07-21.62-3.19-27.17-10.95-.83-1.16-1.33-3.95-1.5-4.08-.53-.4-4.47.12-6.01-.24-6.37-1.5-9.04-5.43-13.32-9.73-31.82,6.15-57.76,33.38-74.22,59.9-7.94,12.8-26.19,48.76-21.94,63.23,11.42,10.74,21.79,23.08,21.65,39.81,3.27,1.89,22.73,7.34,24.61,4.74l-1.73-18.41c-20.05,2.93-24.76-28.2-12.6-38.83,2.95-2.58,12.17-4.42,7.1-9.62-2.69.12-6.02,1.07-8.58,1.11-.58,0-2.29.26-1.65-1,.72-1.41,8.6-2.65,10.51-2.97-11.75-48.3,34.87-95.51,82.97-70.79,34.96,17.97,27.98,54.97,34.34,87.26.22,1.13.65,4.01,1.67,4.56,6.15-35.27.97-82.22,43.07-95.97,39.1-12.76,73.67,16.84,74.66,56.17.17,6.85-1.38,13.8-.65,20.71,1.98-1.33,12.23,4.48,7.01,3.84-2.5-.31-5.28-1.86-7.93-1.89-3.87,5.96,4,6.8,7.47,9.57,11.33,9.04,8.98,34.2-5.29,38.78-1.72.55-7.78.95-8.25,1.61l-2.26,20.42ZM111.23,435.08c-9.3,2.35-19.56,7.03-25.98-3.29l-71.31,83.47c42.86-9.71,87.03-10.19,130.72-6.69,5.26-14.62,12.37-28.67,21.56-41.22,2.19-2.99,12.41-13,11.82-15.86l-17.9-19c-4.97,5-9.17,9.45-17.02,8.51-1.9-.23-4.59-2.05-5.81-1.83-.94.17-4.41,3.74-5.99,4.47-7.66,3.53-18.99,1.05-20.09-8.56ZM530.05,435.74l.96,15.16c.38.62,7.78-.62,8.26-1,3.67-2.95-4.14-15.13-9.22-14.15ZM404.41,521.11c5.05-24.35,11.08-50.46-10.45-68.62-23.38-19.73-60.38-14.61-77.45,10.65-9.25,13.68-15.91,59.87-17.21,77.44-1.46,19.7,3.83,36.83,6.48,55.94.85,6.14.67,12.43,1.48,18.58l83.35,7.22,9.02-56.81c-6.57-4.88-27.15-8.8-12.89-19.37-7.97-9.69,3.21-10.26,4.56-12.55.53-.89-1.22-4.12-1.17-5.54.2-5.83,9.87-6.88,14.3-6.95ZM304.46,615.09c-1.46-12.75-2.43-25.6-3.87-38.36-3.3-29.04-6.31-71.25-13.99-98.41-15.35-54.28-97.16-47.61-100.42,7.67-.65,11.01,1.44,22.78,3.92,33.43,7.79,3.06,19.5,1.45,13.2,13.58,7.06,1.28,8.29,7.11,3.95,12.48,13.06,8.8-3.24,15.37-11.2,18.21l7.91,60.02,100.5-8.63ZM539.85,452.24l-7.83.59,1.27,13.51c1.29.89,8.87-.04,9.6-1.66l-3.04-12.45ZM481.4,477.14h-10.19c-4.49,0-14.65,9.78-13.47,15.11,4.2-1.47,17.21-8.39,21.05-6.25.4,1.99-1.95,3.79-2.68,5.89-1.77,5.04-1.6,11.06,1.69,15.47l15.23-23.58,27.18,7.81c-2.25-10.72-11.28-15.17-21.7-13.8-.16-3.8,19.33-12.65,17.75-14.45-6.43-2-12.08-1.56-17.69,2.35-2.21,1.54-7.09,8.35-8.91,8.18-4.11-10.47-14.41-15.49-25.33-12.5-2.12,3.33,17.72,10.37,17.09,15.77ZM542.87,467.94h-9.53l1.31,13.99c1.06,1.79,10.5,1.37,11.09-.55l-2.87-13.43ZM184.24,478.46c-4.65,5.83-5.22,39.6-1.05,42.78,1.67,1.28,4.35.16,4.7-1.67.59-3.07-3.32-18.71-3.64-23.71v-17.4ZM544.84,484.37c-2.85-.55-7.14.4-10.19,0v14.13c2.01,1.98,12.9,1.18,14.18-.99l-2.34-11.99c-.26-.48-1.16-1.07-1.64-1.16ZM494.31,486.42c-2.79,1.06-.39,11.33.55,12.43,1.42,1.66,6.27-.03,8.25-.32l-3.67-9.51c-1.19-1.55-2.92-3.43-5.13-2.59ZM407.21,522.39l4.24.18c3.01-2.51,2.41-29.78,1.57-34.91l-5.81,34.73ZM534.65,501.46v12.82c0,4.13,13.21,1.72,15.1-.02,2.75-2.54-.16-10.36-.61-13.82l-14.49,1.03ZM504.34,500.86l-8.41,1.33,1.25,9.78,9.85-.65-2.7-10.46ZM4.08,519.21v317.48h27.61c4.76-25.42,8.9-51.01,14-76.38,3.15-15.68,7-17.77,3.25-34.54-.29-1.3.03-5.14-.2-5.4s-3.02.51-3.77-1.81c-.65-1.99.31-11.59-.13-12.03-15.21.23-28.85-7.9-24.52-24.84,1.38-5.38,5.82-9.46,4.48-15.27-.55-2.4-3.37-5.33-4.12-7.71-3.88-12.44,5.1-19.37,6.33-30.14.83-7.3-1.95-12.85-2.54-19.66-5.49-64.01,59.82-95.1,113.06-69.99l5.26-27.6c-46.32-5.39-93.31-1.96-138.72,7.88ZM511.61,529.7c-2.07-9.14-.49-21.74-13.68-14.99l2.18,15.04,11.49-.05ZM534.65,518.55v13.15l17.74,1.31c.5-5.31-.86-10.48-.65-15.78l-17.1,1.32ZM202.49,525.92c-10.28-8.34-31.28.71-33.21,13.51-1.12,7.4-.09,23.48,9.41,25.08,8.13,1.37,43.72-10.61,26.74-16.87-7.43-2.74-12.61,3.25-19.21.81-.13-3.3,21.37-2.74,21.66-8.53-3.15-10.8-16.51-2.94-24.3-3.64-.34-1.86.44-1.09,1.44-1.48,3.28-1.3,20.48-3.04,17.48-8.9ZM410.39,538.27c-1.3,1.24-23.31-7.8-22.8,2.21.37,7.29,16.24,4.45,19.51,9.29-.8,3.64-20.14-5.98-22.23.81-1.58,5.14,4.56,7.1,7.98,8.85,6.74,3.42,15.42,6.87,23.06,5.74,12.54-1.86,13.2-24.68,6.3-32.47-4.68-5.28-22.29-12.91-28.3-7.28-8.51,7.98,14.39,9.49,15.81,10.57.92.69.7,1.28.66,2.29ZM159.24,588.23v-14.79c0-4.71-5.64-13.91-8.56-17.73-35.14-45.88-119.39-20.54-124.23,36.81-1.08,12.79,4.23,23.49,3.25,34.15s-9.71,17.27-7.06,30.1c.43,2.07,2.63,4.22,3.46,6.4,3.77,9.89-1.07,9.96-3.26,17.77-4.63,16.48,7.7,24.15,22.59,22.91,3.09-19.54,16.08-39.16,35.57-45.29l-.42-1.37c-4.61-1.02-12.03-10.14-14.87-11.27-3.08-1.22-6.57.37-10.01.15-6.56-.43-13.1-6.19-15.48-12.14-4.23-10.58,6.32-23.47,17.65-18.96,2.34.93,5.53,3.79,1.39,3.88-18.68-10.93-24.14,20.09-6.12,24.51,4.77,1.17,9.97-1.28,12.92-.45,1.99.56,4.2,4.85,5.72,6.14,16.69,14.2,36.27,15.48,56.53,8.49,40.96-14.14,41.15-55.23,17.33-85.62-13.25-1.92-26.34-5.47-37.39-13.24-1.39-.25-.71.19-1.01.86-2.85,6.36-1.25,11.86-7.15,18.51s-12.1,5.3-17.06,8.58c-1.4.92-4.94,8.3-6.64,10.45-1.96,2.49-17.97,17.62-20.36,15.46,2.48-3.69,7.45-6.05,10.86-9.18,5.53-5.08,11.38-12.08,14.7-18.83,1.43-2.91,4.88-14.99,6.99-16.02,2.11-.12.55,4.5.28,5.54-1.03,3.85-3.59,5.91-4.56,9.57,14.31-.93,21.54-15.8,20.38-28.91,6.6,1.84,11.44,6.56,18.06,9.21,7.69,3.08,15.83,4.39,24,5.59l12.51,18.72ZM591.19,542.22c-44.34-9.73-90.1-11.86-135.4-8.5l-2.01,26.91c4.12.8,3.19-3.35,4.68-6.16,3.65-6.88,10.68-11.03,18.58-10.19,2.8.3,9.09,3.89,9.84,3.75.36-.06,3.85-3.25,5.24-3.95,9.2-4.67,21.09-3.03,29.04,3.41,1.22.99,2.39,4.07,4.11,4.5,1.5.38,7.06-.83,10.2-.4,6.51.91,14.2,5.69,17.28,11.65,1.14,2.2,2.62,9.09,3.26,9.89.34.42,7.48,2.23,9.86,3.94,5.56,4,8.66,12.63,6.72,19.21-.73,2.48-3.71,5.06-3.71,6.75s3.96,5.6,4.49,9.26c1.12,7.71-1.66,13.28-6.81,18.71-1.42,1.5-3.93,1.89-4.89,3.65-1.15,2.11-.43,4.3-1.24,6.65-.41,1.21-4.74,7.05-5.84,7.97-6.97,5.82-12.16,1.02-17.81,3.23-4.19,1.64-8.63,11.53-14.63,11.34-.3,1.51.14,1.05.84,1.47,2.02,1.21,6.14,1.93,8.61,3.21,23.8,12.3,43.95,48.71,35.44,75.36-3.01,9.42-9.47,12.23-17.28,17.05l.69,26.03c-.34,1.13-3.31.93-3.31,1.1v47.65l.99.99h43.06v-294.47ZM539.25,593.49c-3.72,9.5-6.12,15.42-.27,24.92,4.09,6.64,4.84,3.04,10.46,3.04,7.97,0,10.62,10.14,13.67,9.42,6.15-4.48,8.22-12.41,6.75-19.68-.54-2.68-3.54-5.77-3.65-7.57-.14-2.4,3.6-6.8,3.94-10.47.53-5.65-2.31-12.77-7.42-15.58-2.38-1.31-6.97-1.53-8.09-2.43-.96-.77-2.09-7.97-3.68-10.79-3.33-5.9-11.47-10.38-18.17-10.81-2.74-.18-5.93,1.23-8.85.36-1.22-.36-5.4-5.31-7.75-6.71-5.67-3.36-13.24-4.6-19.54-2.55-3.35,1.09-7.98,5.88-9.7,6.13-3.18.46-5.13-3.32-8.55-3.91-6.05-1.04-13.16.84-16.61,6.31-1.55,2.45-2.12,7.61-3.08,8.75-.91,1.07-5.76,1.85-7.88,3.3-6.49,4.45-7.19,18.27.03,22.38l8.26-13.12c6.54,1.78,11.68,2.15,17.89-.83,2.55-1.22,4.53-4.23,7.67-3.83,1.98,15,20.29,14.56,30.58,8.57,3.73,10.2,13.17,15.93,23.99,15.1ZM194.08,565.22c-.36-.33-7.45,1.82-7.24,3.61l8.88,62.12c4.05-3.12,5.51-7.04,4.96-12.18l-6.6-53.55ZM397.23,630.95l9.7-61.61-4.71-3.42c-1.98.52-2.72,16.9-3.2,19.81-1.75,10.54-8.83,32.78-4.73,41.93.43.97,1.45,3.65,2.94,3.29ZM482.7,573.11c-7.21,4.9-13.5,6.32-22.21,4.73-14.7,20.91-27.68,48.12-8.36,70.86,15.88,18.69,56.14,25.76,75.59,9.84,2.11-1.72,6.47-7.92,8.05-8.39,2.94-.86,6.29.52,8.89.34,21.01-1.43,17.02-38.14-5.4-23.15,2.39-4.12-2.28-6.24-4.07-9.76-3.85-7.55-2.51-14.33-.55-22.12-8.72-.82-16.77-5.6-20.15-13.86-11.47,4.66-26.47,4.65-31.8-8.49ZM443.26,579.69c-7.6,4.47-14.91,10.66-24.07,11.75-5.14.61-12.46-2.11-14.41,3.34-6.08,17.05,4.69,55.65,7.49,74.71,1.58,10.73,3.02,21.63,3.38,32.44,1.28.33,1.27-.51,1.85-1.1,5.22-5.24,9.88-14.08,15.56-19.94,8.24-8.51,19.29-16.45,31.24-18.4l-13.79-12.18c-17.04-19.27-11.59-39.09-.86-59.8-2.42-3.35-6.54-6.22-6.4-10.83ZM187.48,588.27c-8.72.14-17.78-1.23-25.6-5.3.93,3.41-1.17,6.66-1.34,9.55-.28,4.65,2.81,9.77,3.3,14.46.73,7-1.73,14.55-.36,21.39,1.71,8.51,13.14,13.59,13.55,25.26.23,6.63-3.51,11.6-3.36,17.78.17,6.97,5.32,11.97,3.83,19.55-.53,2.71-2.48,4.05-2.53,8.04-.06,4.48,2.32,9.92,2.67,14.48.91,11.8-1.57,23.69-14.45,26.93l-.69,1.33,5.96,45.01c1.78.17,1.06,0,1.29-.99,4.55-19.1,7.28-42.78,10.43-62.54,4.76-29.84,9.14-59.82,12.54-89.84l-5.25-45.09ZM394.61,633.57c-3.21-6.14-1.79-7.29-8.96-8.45-24.72-3.98-51.32-3.84-76.17-7.97l-6.25,4.93,91.38,11.49ZM302.56,617.81l-97.61,7.9c-1.78-.06-8.58,7.7-7.58,8.52l99.59-8.55c1.6-.11,6.28-7.1,5.6-7.87ZM163.84,836.69h265.61c-3.14-19.22-3.78-38.84-6.65-58.09-.39-2.59-1.98-4.54-2.27-6.28-1.05-6.39-1.04-12.87-1.72-19.32-22.05-16.83-3.77-34.22-3.8-52.07-.03-15.54-6.5-34.44-9.02-50.14-1.46-9.1-.91-18.36-3.83-27.07l-4.55,11.88-1.99.66-92.89-11.06c-2.37,1.63-4.22,2.11-7.09,2.45-33.52,3.97-67.44,5.31-100.95,9.5l-30.86,199.53ZM174.35,692.73c4.74-7.8-4.01-15.45-3.87-21.95.08-3.95,3.59-8.81,4.24-12.84,1.71-10.55-3.91-13.3-9.2-20.46-.41-.55-3.71-7.87-4.97-6.52-1.7,10.52-12.06,18.3-20.37,23.99,14.93,9.08,27.18,21.64,34.16,37.79ZM173.05,702.6c-1.71-17.69-15.58-35.39-30.96-43.66-9.8-5.27-6.43-.76-8.67,5.03-1.5,3.87-6.62,6.13.47,9.08,3.82,1.59,5.93.39,8.8,5.01,3.72,5.99,1.33,13.6,4.04,18.31,6.11,10.64,16.52,5.65,26.31,6.23ZM130.97,659.22l-18.09,3.92-21.34-.33c2.78,5.33,12.29,9.23,18.04,8.92,4.62-.25,8.75-5.18,12.58-5.25,3.24-.06,3.44,3.43,5.17,2.57l3.64-9.83ZM46.82,703.58c-.51,3.94.37,8.77,0,12.82l36.16-8.22c4-3.23-1.71-13.6-3.29-17.41,4.38-3.05,5.73,12.53,8.81,13.1.88-.11,11.01-9.84,11.83-11.2,3.15-5.2,3.04-13.78,7.61-18.67-3.73-1.58-7.8-1.51-11.51-3.59-8.38-4.71-6.35-13.75-18.95-9.13-12.92,4.74-28.97,29.09-30.67,42.3ZM565.55,722.31c-2.34-21.16-17.75-45.03-37.69-53.35-16.31-6.81-13.71,3.16-25.4,9.01-6.74,3.37-13.51,2.81-19.7-1.38-9.38-6.35-7.5-16.18-21.71-11.76-12.66,3.94-25.62,15.99-33.54,26.28-1.55,2.02-10.29,12.87-8.57,14.76l17.1,3.94c-5.48-28.74,32.65-40.53,45.75-15.06,5.77-3.77,9.55-8,16.69-9.6,17.83-4,34.22,11.35,28.76,29.41-1.29,4.27-5.71,6.32-6.39,10.36l12.48,4.61c-.12-1.87-1.8-13.93-1.31-14.46.11-.12,1.44.08,1.97,0l.66,7.9c10.32-1.12,20.58-3.05,30.9-.67ZM510.32,667.76c-11.1,3.19-22.5,1.07-33.52-1.31,5.32,13.26,27.91,15.08,33.52,1.31ZM123.74,669.74c-13.98-.86-18.87,14.94-22.69,25.62l-24.42,21.6c-6.22,1.45-.47-2.99,1.74-4.18.32-1.57-1.32-1.02-2.27-.96-2.86.18-24.15,5.84-25.03,7.19-1.22,21.06,19.05,28.49,36.68,22.21,15.72-5.59,29.85-27.25,37.42-41.47,3.43-6.44,7.36-13.21,7.12-20.82-4.53-.95-4.56,5.45-8.54,5.26-1.16-1.05,9.53-9.94,4.82-11.75-4.19-1.61-10.83,9.23-12.06,7.81-1.52-3.29,8.94-8.94,7.23-10.51ZM173.71,705.23h-16.44c.02,3.05,5.41,3.1,3.62,6.57-2.9-3.71-15.89-12.2-17.46-15.41-2.58-5.28,1.79-23.19-11.14-20.41,9.2,5.86-2.21,15.23-3.64,21.35-3.63,15.59,12.64,39.78,28.91,40.8,19.53,1.23,19.82-18.71,16.14-32.89ZM482.7,698.65c-8.6-8.91-12.16-17.55-26.54-15.7-12.86,1.66-23.68,19.84-16.07,31.38,1.12.58,10.24-3.56,14.95-.84,3.51,2.03,1.29,5.62,2.13,6.75.22.29,2.93.12,3.55,2.7.44,1.79-1.09,3.55-.98,5s2.24,2.32,2.28,4.55c.09,4.51-7.02,7.2-6.8,9.21,5.84,4.66,9.63,11.57,16.67,14.77l21.97-12.16c-2.36-2.88-7.12-4-6.54-8.48.46-3.62,4.12-3.33,4.47-4.72.26-1.06-1.42-3.54.06-5.76.78-1.17,3.92-1.12,4.52-1.89.56-.73-.07-2.81,1.77-4.47,5.05-4.58,15.07,2.91,20.74,3.04,3-.79,6.93-10.59,7.21-13.28.37-3.67-4.84-13.89-7.62-16.61-10.32-10.08-28.71-4.86-35.77,6.5ZM161.22,836.69l5.98-39.77-7.97-55.85c-18.33-2.55-30.77-19.76-33.52-37.15-8.33,11.16-14.41,24.41-25.69,33.14-12.81,9.9-32.24,12.21-44.97,1.02l-1.34.02-19.39,98.6h126.89ZM437.14,713.97c-1.62-1.89-16.83-6.47-19.19-6.12s-4.78,8.75-5.39,11.04c-7.5,28.12,9,40.08,33.95,25.39,2.76-1.63,13.69-9.09,13.09-12.34-3.92-5.01-10.79,2.8-15.66.88,1.65-2.24,21.03-6.25,13.32-10.36-5.7-3.03-12.11,3.18-17.93,3.13-2.73-2.41,15.91-5.19,15.12-8.85-4.21-4.18-11.69-.7-16.22,1.51-5.27,2.57-8.7,7.24-14.02,8.65-1.64-1.43,12-10.77,13.51-11.16.42-.45-.27-1.43-.58-1.79ZM541.88,732.18h-10.85c-6.08,0-19.67-14.46-30.24-11.82-8.74,2.18,11.54,7.09,10.84,10.51-3.9-.43-15.5-8.91-18.11-3.28-1.77,3.83,9.33,7.32,11.54,8.87-1.35,4.42-14.95-8.32-15.73.57,16.7,15.96,73.55,38.22,76.9.11.21-2.38.57-11.66-1.78-12.72-9.33-1.54-18.81-.66-28.1.46l-.39,5.34h5.92s0,1.97,0,1.97ZM547.15,760.44c-18.54,2.77-34.69-7.62-50.97-14.51-5.73,1.8-19.28,14.04-24.81,13.09-4.93-.85-15.9-16.64-19.07-16.24l-12.3,7.67-3.33,31.9c.84,2.76,40.51,6.16,45.69,6.38,21.98.95,45.08.08,66.76-3.31l-1.97-24.98ZM436.69,751.24c-5.27,1.35-10.31,2.87-15.77,1.32l11.55,84.16,4.23-.03.71-50.3-2.36-2.27,1.65-32.88ZM439.65,836.69h44.38v-31.55h1.31v31.55h60.49l-1.32-47.99c-34.4,4.29-69.35,2.46-103.59-2.39-1.53.37-2.11,6.36-2.24,8-1.12,13.45.27,27.24-.01,40.73l.98,1.65Z"/>
  <rect x=".14" y="840.63" width="595" height="1.31" fill="#fff"/>
  <path d="M591.19,3.89v535.04l-35.72-6.72-13.58-87.93c3.76,1.14,12.43,14.16,16.34,11.74,2.92-6.17,2.26-11.76-.86-17.69-.75-1.42-5.95-6.96-4.96-7.85l19.1,1.02c2.43-6.74-8.73-16.14-14.83-16.14h-11.18c-.2,0-.5.83-.98.66-2.09-2.86,13.76-17.81,2.33-17.77-8.22.03-17.99,9.88-19.44,17.77-10.75-9.06-26.66-10.68-34.82,2.25l21.68,8.27c-5.56,3.78-13.27,4.54-16.72,11.21-1.73,3.34-3.34,13.05.07,15.02,1.48,1.03,2.98-.17,4.4-.7,7.45-2.83,14.81-9.9,22.11-13.39,1.19-.57,3.36-2.4,3.86-.54,2.49,30.77,6.65,61.93,3.88,92.74-1.56,1.73-15.47.02-16.77-1.32-1.15-1.19-6.76-24.42-8.04-28.43s-2.47-8.98-5.27-11.83c-.25-1.44.51-1,1.5-.85,3.06.47,16.87,7.8,18.87,5.79.76-10.23-7.22-19.27-17.75-18.41-2.89-2.37,27.49-12.87,8.04-15.6-9.39-1.31-14.8,3.64-21.53,9.05-7.25-8.02-13.66-11.77-25.01-10.57-14.77,1.57,11.99,13.91,10.21,16.46-10.34-1.25-21.87,8.71-22.26,18.97,3.68,3.29,19.17-7.52,20.95-5.82-1.58,6.87-3.03,12.6,0,19.39,4.66,10.43,11.1-11.84,14.46-13.82.66-.39,1.4-.6,2.02-.02l5.22,34.87-1.64,1.64-39.82,1.03c-8.57-44.01-34.26-87.27-74.91-108.18,2.67-3.75,6.45-6,8.02-10.7,1.72-5.15-1.02-8.05-.46-10.41.31-1.33,3.78-3.3,5.05-5.38,9.98-16.29-11.83-30-8.39-43.88.66-2.65,2.99-3.7,4.18-6.33,2.58-5.72,2.79-13.82.07-19.51-1.22-2.56-4.64-4.61-5.08-6.8-.49-2.45,2.51-7.63,2.46-11.56-.09-6.72-4.12-14.18-9.6-18.06-2.43-1.72-9.48-3.82-9.91-4.22-.5-.45-2.6-8.69-3.53-10.61-7.49-15.51-28.09-21.83-44.2-20.7-3.85.27-12.03,3.23-14.47,3-1.81-.17-6.76-3.64-9.26-4.44-17.35-5.54-39.18-1.41-51.98,11.86-1.34,1.39-4.09,6.35-4.96,6.87-1.59.96-8.55,1.39-11.49,2.31-12.36,3.87-21.61,15.89-19.96,29.19.3,2.41,3.02,7.75,2.96,8.62-.08,1.36-4.15,4.81-5.16,6.42-5.27,8.37-7.84,17.13-4.31,26.96,1.61,4.47,5.48,6.8,6.96,11.11-1.04,3.91-1.71,8.06-3.47,11.73-5.2,10.87-15.3,14.81-11.24,30.25,2.1,7.99,7.03,6.39,8.65,8.47.65.84-.6,3.46-.45,4.95.69,6.54,3.92,10.02,7.94,14.79-4.42,1.38-8.52,4.43-12.14,7.26-2.6,2.04-14.75,14.75-16.32,14.37-2.24-.55-27.67-28.57-32.33-32.81-11.6-10.57-24.82-24.03-40.46-11.49-36.5,29.26-64.85,75.55-96.3,110.12l-6.92,2.61V3.89h587.11ZM157.76,62.54c-1.51-1.69-4.54,1.48-6.43,2.13-14.45,4.98-13.31-17.01-7.46-19.94,7.58-3.79,17.29,10.44,14.72-6.34-.58-3.82-2.99-4.5-6.44-5.39-33.4-8.58-32.74,53.04.51,43.52,7.84-2.24,6.61-7.01,5.1-13.97ZM174.88,32.34c-19.88,2.27-20.91,38.72-3.12,44.15,30.23,9.24,33.78-47.65,3.12-44.15ZM239.3,32.33c-21.1,2.99-20.91,45.83,3.73,45.19s24.01-49.12-3.73-45.19ZM437.62,73.27c8.41,6.89,22.07,5.09,27.03-4.94,7.89-15.94.28-41.79-21.53-35.33-14.23,4.21-15.96,31.7-5.51,40.27ZM210.52,64.36v-29.25c0-3.26-11.33-3.4-12.21-.39l.15,40.66c.68,1.51,2.51,1.36,3.81,1.49,6.68.66,15.31-.04,22.05-.68v-10.85l-.99-.99h-12.82ZM274.96,75.21c.82-2.73-.61-9.26,0-12.49.49-.51.46-.84,1.33-.69,3.45.58,5.31,11.66,7.66,14.22,2.23.86,9.92,1.28,11.08-.71,2.13-3.66-6.63-15.78-6.8-18.84-.04-.62,2.85-5.08,3.17-7.78,2.18-18.32-14.19-17.13-27.3-15.46-.71.88-.83,1.89-.98,2.97-.72,5.32-.84,33.29.17,38,.15.69.3,1.41.94,1.83,2.16.81,9.97,1.49,10.74-1.04ZM371.6,75.21v-16.76c6.6,8.7,4.98,24.41,20.61,16.94l.32-40.82c-.99-2.8-11.72-2.27-11.72-.11v16.76c-2.82-2.23-6.67-16.66-8.33-17.8-1.83-1.26-12.71-1.85-12.71,2.35v37.79c-2.46-4.78-10.64-39.69-13.61-40.62-1.68-.53-10.3-.49-11.43.8l-11.13,37.84-.63-6.11c-.14-.45-1.44-1.12-1.66-1.12h-11.83c-1.47-1.13-1.47-3.47,0-4.6h11.18l.99-.99v-9.86l-.99-.99h-11.18c-1.34-1.03-1.29-1.63,0-2.63h11.18c3.08,0,2.91-10.24,1.01-12.18l-24.41.61c-.59,5.06-1.58,40.89.44,42.42,1.61,1.22,17.65.79,21.03.74,2.64-.04,4.69,0,7.18-.02,6.82-.07,8.89,1.02,10.13-6.87l10.57-.35c.14,1.28.86,5.66,1.51,6.37,1.02,1.12,12.36,2.13,11.02-1.8,2.08-.61.81,1.44,1.7,2.03,1.61,1.07,10.05,1.09,10.79-1.05ZM396.59,33.47v41.74c5.17,3,16.57,1.94,22.21-.14,12.08-4.46,14.25-22.58,8.71-32.74-6.22-11.42-19.59-10.17-30.92-8.85ZM541.04,72.44c-1.95-1.92-7.88-1.88-9.03-3.13-1.48-1.6-1.27-10.91-4.94-11.56-4.24-.75-6.43,7.58-9.32,8.45-3.62,1.09-11.94-3.73-12.09,3.74-.08,3.77,3.64,6.24,3.84,8.65.23,2.87-4.01,7.91-2.12,11.41,3.31,3.95,9.38-1.62,11.75-1.18.93.17,4.49,4.72,7.64,5.46,8.83,2.08,5.27-6.15,6.93-10.2,1-2.45,13.7-5.41,7.36-11.66ZM159.24,137.32v-29.91c-1.76-2.43-10.82-2.43-11.72.11l.81,41.69,32.92.57,1.72-.91,1.84-5.9,9.96-.09,3.05,6.81c2.63-.2,10.32,1.59,10.74-2.21l-11.49-39.1c-.8-3.87-12.08-3.16-13.53-1.49-2.31,2.67-8.33,31.56-10.15,31.72-1.65-2.77-13.3-.47-14.14-1.3ZM224.33,106.43v42.4c1.47,1.56,9.64,1.4,10.91.4l1.21-12.6c8.49-.71,14.66-1.16,17.13-10.48,5.23-19.78-14.53-22.82-29.25-19.71ZM275.5,142.7l3.19,7c2.47-.11,9.26,1.12,10.43-1.21l-11.89-41.37c-1.9-2.31-8.66-1.27-11.53-1.07l-12.99,42.68c.8,2.03,7.88.85,9.96.95l3.19-7,9.65.02ZM290.08,106.43v42.4l.99.99h32.87c2.26-.97,2.51-6.23,3.59-6.92,1.56-1,6.8.12,8.92-.35l3.92,7.28h9.53c1.04-2.41.27-4.3-.21-6.7-2.29-11.56-8.43-24.09-10.75-35.87l-1.03-1.04c-2.73-.4-9.84-1.31-11.73.51-2.69,2.59-8.53,30.79-9.83,31.92-.73,0-1.83-1.31-2.29-1.31h-12.16v-29.25c0-.28-.76-1.48-1.11-1.69l-10.72.05ZM353.67,105.92c-.81.19-1.58.51-2.13,1.16-1.02,1.8-.93,39.56,0,41.42s14.55,1.6,17.12,1.34c10.33-1.06,13.85-8.11,11.98-17.95-.41-2.13-2.85-4.72-2.89-5.42-.27-4.2,5.41-7.64-.1-15.91-3.46-5.19-18.59-5.91-23.99-4.64ZM396.59,147.51c.72-3.18-.53-8.67,0-12.16,6.16.34,5.1,13.34,10.21,14.44,1.53.33,16.36.28,17.6-.11,2.87-.91,2.52-6.8,3.5-7.14l10.04.12,1.53,6.35c.73.98,12.55,2.38,11.73-2.13-2.37-5.25-10.08-38.65-12.92-40.38-2.19-1.34-10.72-1.51-12.39,1.29l-10.56,34.81c-.16-2.92-6.18-11.86-6.27-13.47-.01-.19,1.78-1.01,2.47-2.81,7.49-19.53-11.06-22.9-25.82-19.92l-1.58,2.37c1.45,11.13-2.09,28.22.14,38.63.15.69.3,1.41.94,1.83,2.91.69,10.56,1.99,11.39-1.7ZM68.16,179.01c-11.67,12.65-10.19,45.68,9.88,50.34h438.55c23.9-4.26,23.03-53.01-.02-55.88l-437.9-.04c-3.85.42-7.94,2.79-10.51,5.58ZM80.91,268.68c.79-.54,2.56-8.92,2.59-10.29.04-1.98-1.37-3.23-2.65-1.26-1.01,1.56-2.66,10.71-1.81,11.65.6-.07,1.44.18,1.87-.11ZM53.39,272.06c.82-.87-5.93-13.28-8.54-13.8-1.59,2.61,6.3,16.16,8.54,13.8ZM182.09,296.23c2.46-2.44-1.36-7.81-1.12-10.66.29-3.56,6.64-5.18,3.53-10.16-2.61-4.19-7.46-1.66-10.13-3.03-2.3-1.18-3.97-11.63-9.86-8.52-2.68,1.42-2.98,9.68-3.36,10.11-.97,1.08-9.33-.58-9.76,4.4-.57,6.52,6.16,6.43,7.07,9.27.98,3.08-2.09,12.6,4.07,11.1,2.51-.61,4.78-4.09,7.64-4.32,3.31-.26,8.93,4.78,11.93,1.81ZM104.68,281.92c1.36,1.32,12.29-8.17,13.13-10.19-.24-3.44-10.34,4.95-11.15,5.93-.97,1.18-2.14,2.62-1.98,4.26ZM524.29,294.57c4.88-1.38,12.6-6.14,5.33-10.57-1.84-1.12-5.8-1.34-6.81-2.39-1.62-1.67-1.61-9.25-4.62-10.53-4.83-2.07-6.92,6.33-9.8,7.28-4.46,1.48-14.48-2.68-12.37,5.71.37,1.49,2.77,3.79,2.98,5.57.5,4.22-5.49,10.25-.36,13.5,3.41,1.6,7.47-1.97,11.29-1.48s11.66,11.45,13.91,2.01c.86-3.6-1.12-6.12.45-9.1ZM451.59,274.27c-6.53-6.55-17.09-1.91-20.54,5.67-16.36-12.23-32.31,1.2-18,18.07,3.06,3.61,16.38,13.84,20.79,13.96,9.55.26,28.28-27.13,17.75-37.7ZM69.68,274.88c-55.28,5.5-37.66,80.18,12.65,66.54,42.66-11.57,29.2-70.71-12.65-66.54ZM33.66,289.81c2.42-2.05-11.36-8.26-13.14-7.88-2.21,2.25,11.55,9.22,13.14,7.88ZM116.51,302.3h9.53c.81,0,4.2-1.42,4.92-2.3-.03-2.56-13.94-.22-14.45.33-.13.15.09,1.43,0,1.97ZM29.06,312.82c-.8-.47-13.79-.24-13.8,3.28,4.03-1.5,9.3.41,12.96-1.81.69-.42,1.15.05.84-1.47ZM542.06,318.91c-.96.88-1.46,4.27-2.5,5.72-1.63,2.27-6.83,3.64-6.12,6.78.57,2.52,4.69,2.51,6.17,3.73,2.33,1.92,1.63,8.43,6.4,7.8,3.74-.49,3.88-6.04,5.71-8.13,2.03-2.3,6.45-1.94,5.29-7.2-.54-2.43-3.56-2.03-5.24-3.33-2.36-1.83-4.61-5.78-7.71-6.02-.74-.03-1.45.13-2.01.63ZM125.05,333.85c2.33-2.14-13.99-10.67-13.79-6.24,1.66,1.6,12.3,7.61,13.79,6.24ZM436.68,351.6c-30.67-8.34-35.91,38.11-4.3,36.81,3.44-.14,8.98-2.99,11.72-2.53,2.1.35,8.27,5.31,11.96,6.49,12.63,4.06,23.07,1.24,34.88-3.31,1.6-.62,3.28-2.47,4.62-2.62,2.26-.24,7.1,2.21,9.91,2.53,14.19,1.61,27.89-9.44,21.62-24.24-4.14-9.77-15.97-12.1-25.34-9.47-2.44-34.79-58.52-36.27-65.06-3.67ZM30.38,347c1.13,1.16,9.55-7.49,9.75-8.33,1.63-6.8-12.11,5.9-9.75,8.33ZM147.2,345.9c-6.12-5.59-7.91,5.88-9.35,7.66-1.28,1.59-6.67,2.84-6.91,5.64-.37,4.2,5.83,4.28,8.28,6.83s1.86,6.74,7.21,6.67,3.3-7.02,5.08-9.11c1.22-1.44,7.43-1.17,7.77-5.73s-5.65-3.32-8.28-5.59c-1.59-1.37-2.27-4.98-3.8-6.38ZM94.15,345.03l-3.24.96c.71.87,5.23,15.81,7.85,12.84.75-5.21-4.02-8.81-4.6-13.8ZM66.54,348.97l-3.19.09-3.75,11.42,2.07,2.22,4.88-13.74ZM54.5,395.19c-.93-.83-3.05-1.77-4.2-1.06-3.14,1.19-3.26,6.63-4.58,7.48-1.54,1-8.11.28-8.79,2.37-1.82,5.61,4.62,5.59,5.65,8.71.82,2.48-.73,8.41,1.77,9.48,3.38,1.44,4.55-2.58,7.45-2.86,3.48-.34,6.54,4.15,10.13,2.3,3.34-1.73-.29-7.95.43-10.02.59-1.7,6.35-2.99,5.39-6.91s-7.9-2.42-9.99-3.72c-.88-.54-1.98-4.59-3.27-5.76ZM447.03,418.76c-2.19.63-3.99,5.25-5.71,6.81s-5.58,2.16-5.8,4.67c-.32,3.71,4.49,4.5,5.79,6.44,1.72,2.58.58,7.62,5.56,7.61,4.62,0,4.55-5.79,6.94-7.55,2.05-1.52,7.13-.46,7.25-4.62.15-5.18-5.7-4.05-7.57-6.3-1.73-2.08-1.64-8.46-6.46-7.07Z" fill="#fff"/>
  <path d="M163.84,836.69l30.86-199.53c33.51-4.2,67.42-5.53,100.95-9.5,2.87-.34,4.72-.82,7.09-2.45l92.89,11.06,1.99-.66,4.55-11.88c2.92,8.71,2.37,17.98,3.83,27.07,2.52,15.7,8.98,34.6,9.02,50.14.04,17.85-18.25,35.24,3.8,52.07.68,6.45.67,12.93,1.72,19.32.29,1.74,1.88,3.68,2.27,6.28,2.88,19.25,3.51,38.87,6.65,58.09H163.84ZM230.49,756.25c6.03,6.04,14.54,5.16,22.26,4,9.1-1.37,47.99-9.13,53.99-13.07,9.06-5.95,1.64-11.18,1.05-16.64-.32-2.96,1.2-4.75,1.36-7.24.57-9.05-2.75-12.16-4.94-20.04-4.32-15.58-7.49-33.05-13.01-48.12-4.83-13.18-7.91-11.13-21.05-9.61s-29.41,5.31-41.87,8.75c-15.94,4.41-25.13,5.61-23.65,24.96.92,12.13,18.1,69.22,25.87,77.01ZM377.53,658.56c-7.67-17.96-38.88-9.76-28.28,11.17-23.33,1.03-17.75,28.73,3.29,26.3-2.45,5.52,6.8,11.91,7.24,14.83.52,3.41-3.25,11.95-4.61,15.41-1.32-9.05-12.72-23.07-22.63-21.66s-1.61,19.72,1.71,24.5c4.44,6.38,10.65,9.51,17.35,12.94-4.82,12.69.98,16.6,2.98,1.39,15.93-.25,34.16-4.07,39.78-21.07-11.44-9.74-27.03-1.43-36.56,7.19l4.57-18.11c8.54,1.03,18.26-.84,19.75-10.81,16.74,9.93,35.6-12.07,15.77-22.36,17.03-16.66-3.24-32.05-20.37-19.71Z" fill="#fff"/>
  <path d="M366.35,340.42c23.67.58,17.86,30.71-1.86,32.99-1.4,2.01-2.16,18.51-3.55,22.41-.92,2.57-5.89,4.66-6.73,6.41-2.76,5.75.31,11.66-6.27,19.37-5.07,5.94-8.84,2.59-13.34,5.06-1.58.87-2.93,4.5-4.48,6.04-5.27,5.29-16.58,8.75-23.95,8.31-4.24-.25-8.98-3.46-11.79-3.35-8.37.32-9.4,5.75-22.19,1.84-10.34-3.16-9.86-9.48-15.65-13.28-5.23-3.43-10.78.33-16.04-7.62-2.84-4.29-2.61-9.8-4.45-13.3-.88-1.68-2.76-2-3.82-3.41-5.31-7.03-2.76-17.89-4.93-25.96-3.51-2.19-7.87-2.63-11.19-5.24-7.48-5.88-8.04-18.38-1.31-25.03,4.71-4.64,8.55-.42,11.51-4.91-3.88-2.83-11.18.46-14.07,3.66l-4.63,7.84c-8.32-8.02-7.75-19.85-2.55-29.49,1.43-2.64,6.33-7.62,6.68-9.14.57-2.47-3.11-8.7-3.06-12.89.17-16.04,16.69-26.07,31.34-25.52,9.43-19.87,34.22-25.29,54.05-19.25,3.26.99,7.29,4.05,10.19,4.31,4.78.43,12.09-3.28,17.75-3.37,17.91-.29,39.68,10.58,41.41,30.3,10.57,3.66,20.9,10.77,20.05,23.32-.17,2.58-3.08,8.48-2.99,8.94.17.88,4.51,6.23,5.43,8.35,3.02,7.01,3.2,14.51-2.1,20.49-2.25-3.37-4.86-8.11-9.05-9.34-2.02-.59-8.29-1.74-8.37,1.47ZM300.28,283.9c-5.26,9.16-12.72,19.92-24.35,21.02-4.63.44-10.17-1.53-14.29-.48-2.17.55-8.54,6.35-11.87,7.85-5.99,2.68-12.2,2.53-18.16,4.85-4.94,14.09-1.6,55.76,13.17,62.99,10.75,5.26,14.74-3.99,23.37-8.06,3.26-1.54,9.04-3.79,12.57-3.85,6.39-.11,10.15,5.39,16.92,5.11s5.56-4.73,9.04-6.11c5.71-2.28,18.64,3.78,23.85,6.71s6.71,7.94,14.76,4.93c13.77-5.14,18.72-41.43,17.1-53.88-.77-5.93-4.04-4.46-7.84-7.28-2.44-1.81-4.76-6.49-7.25-7.22-2.76-.82-4.49.63-6.89.38-18.96-1.94-29.33-12.55-40.14-26.96ZM313.08,378.55l-2.03.39c-2.23,9.04-12.53,12.96-20.78,8.94-2.33-1.13-5.08-4.88-7.39-5.76-.86-.33-2.27-.95-2,.68,8.47,11.79,30.1,12.71,32.21-4.26Z" fill="#fff"/>
  <path d="M304.46,615.09l-100.5,8.63-7.91-60.02c7.96-2.84,24.26-9.42,11.2-18.21,4.34-5.37,3.11-11.2-3.95-12.48,6.3-12.13-5.41-10.52-13.2-13.58-2.48-10.66-4.57-22.42-3.92-33.43,3.26-55.28,85.07-61.95,100.42-7.67,7.68,27.17,10.69,69.37,13.99,98.41,1.45,12.76,2.42,25.61,3.87,38.36ZM237.32,463.5c-3.47-3.59-13.72,5.66-9.29,7.01l4.18-.6c.71,3.7.22,18.84,2.14,20.87.47.5,1.46.68,2.16.78,2.47-.52,2.73-2.79,2.97-4.86.33-2.79-.92-21.92-2.16-23.2ZM231.56,523.15c-.81,9.65,16.51,8.16,18.25-.48,1.41-6.99-3.06-6.49-3.73-8.51-.51-1.54,1.73-3.99,1.68-6.36-.14-6.94-8.55-8.88-14.02-6.46-6.93,3.07-4.84,10.54-.87,8.34,2.11-1.17,3.48-7.24,8.25-3,4.99,4.43-3.96,6.05-3.62,8.18,12.99,7.18,5.23,11.92-5.95,8.28ZM242.41,543.53c2.62-.54,6.7.39,9.53,0l-1.11-4.62c-3.2.36-14.56-1.25-15.87,2.43l.83,13.41c1.75,2.52,12.89-3.29,14.11,2.87l-.75,3.18c-2.21,3.86-10.01.18-13.65,1.14-.91,3.48,2.28,5.04,5.22,5.63,19.2,3.84,18.54-21.18.03-18.11l-.02-4.8c.14-.45,1.27-1.04,1.66-1.12ZM256.55,577.71h-12.16c-1.05,0-6.41,1.78-6.26,3.61,0,4.43,10.59.64,13.17,1.64,2.64,2.65-13.83,26.73-.64,21.88l5.9-27.14Z" fill="#fff"/>
  <path d="M159.24,588.23l-12.51-18.72c-8.16-1.2-16.31-2.5-24-5.59-6.62-2.66-11.46-7.37-18.06-9.21,1.15,13.11-6.07,27.98-20.38,28.91.97-3.65,3.53-5.72,4.56-9.57.28-1.04,1.83-5.66-.28-5.54-2.11,1.03-5.57,13.11-6.99,16.02-3.31,6.75-9.16,13.75-14.7,18.83-3.41,3.13-8.38,5.49-10.86,9.18,2.39,2.16,18.4-12.97,20.36-15.46,1.7-2.16,5.24-9.53,6.64-10.45,4.96-3.27,10.91-1.64,17.06-8.58s4.29-12.14,7.15-18.51c.3-.67-.38-1.11,1.01-.86,11.05,7.77,24.14,11.32,37.39,13.24,23.83,30.39,23.63,71.48-17.33,85.62-20.26,6.99-39.84,5.71-56.53-8.49-1.52-1.29-3.72-5.58-5.72-6.14-2.95-.83-8.14,1.62-12.92.45-18.02-4.42-12.56-35.43,6.12-24.51,4.14-.09.95-2.95-1.39-3.88-11.33-4.51-21.88,8.38-17.65,18.96,2.38,5.95,8.91,11.71,15.48,12.14,3.45.22,6.94-1.37,10.01-.15,2.84,1.13,10.26,10.25,14.87,11.27l.42,1.37c-19.5,6.12-32.49,25.74-35.57,45.29-14.88,1.24-27.22-6.43-22.59-22.91,2.19-7.81,7.03-7.87,3.26-17.77-.83-2.18-3.03-4.34-3.46-6.4-2.65-12.83,6.08-19.32,7.06-30.1s-4.33-21.35-3.25-34.15c4.84-57.35,89.09-82.69,124.23-36.81,2.92,3.82,8.56,13.02,8.56,17.73v14.79ZM139.32,577.91c-2.52-2.52-13.99-3.07-13.6,2.43,6.01-1.98,8.45-1.98,14.46,0,.33-.3-.42-2-.85-2.43ZM97.44,592.16c-3.91-8.45-19.41,10-12.83,8.55.79-.17,7.22-11.28,12.83-8.55ZM146.75,595.47c-6.57-2.38-13.31-1.92-15.12,5.9,6.04-.53,6.69-8.89,14.11-3.28l1-2.63ZM128.35,617.14c12.16-6.23,2.11-15.12-7.89-13.8-.28,2.46,3.83,1.73,5.73,2.48,9.98,3.95,1.03,10.19,2.16,11.32ZM105.33,611.23c-.42-7.63-15.34-2.54-13.79,2.92l2.82.4c2.61-6.32,5.59-4.25,10.97-3.32ZM112.57,628.33c3.59,11.17,22.27,7.59,24.98-2.94-3.05-3.03-2.8,2.04-5.98,4.52-6.96,5.45-12.6,2.61-19-1.58Z" fill="#fff"/>
  <path d="M404.41,521.11c-4.44.07-14.11,1.12-14.3,6.95-.05,1.42,1.7,4.64,1.17,5.54-1.35,2.28-12.52,2.86-4.56,12.55-14.26,10.57,6.32,14.5,12.89,19.37l-9.02,56.81-83.35-7.22c-.8-6.14-.63-12.44-1.48-18.58-2.65-19.12-7.94-36.24-6.48-55.94,1.3-17.58,7.97-63.77,17.21-77.44,17.08-25.26,54.07-30.38,77.45-10.65,21.53,18.16,15.49,44.28,10.45,68.62ZM358.46,485.68c2.56-6.78,14.61-10.22,10.83-19.7-2.7-6.75-18.83-3.95-17.14,2.66,1.47,5.74,8-6.35,11.61-.41,3.04,5-8.5,10.65-11.56,14.16-9.98,11.41,11.5,7.86,17.44,7.9l-.65-3.63-10.53-.98ZM361.08,517.24c-.83-11.3,4.7-24.97-9.88-10.85-2.13,2.06-10.73,11.21-7.42,13.37l11.43,1.08c-1.6,10.64,6.08,10.61,5.23.35,6.59.6,8.28-4.41.65-3.95ZM346.62,547.48l8.57-6.28-.65-1.98c-12.07-1.3-24.27,20.65-9.6,26.03,14.21,5.21,19.34-13.11,7.77-16.31-2-.55-5.09.79-6.09-1.46ZM350.65,588.96c13.09-6.55-4.57-18.7-12.83-11.17-5.23,4.78.64,9.95.3,12-.05.3-3.66,2.05-4.36,4.31-4.01,13.02,20.86,14.28,20.5,2.44-.14-4.68-4.23-3.63-3.62-7.58Z" fill="#fff"/>
  <path d="M161.22,836.69H34.33l19.39-98.6,1.34-.02c12.72,11.2,32.16,8.89,44.97-1.02,11.28-8.72,17.36-21.98,25.69-33.14,2.75,17.4,15.19,34.6,33.52,37.15l7.97,55.85-5.98,39.77Z" fill="#fff"/>
  <path d="M4.08,519.21c45.41-9.84,92.4-13.28,138.72-7.88l-5.26,27.6c-53.25-25.11-118.55,5.98-113.06,69.99.58,6.81,3.37,12.36,2.54,19.66-1.22,10.77-10.2,17.69-6.33,30.14.74,2.39,3.56,5.31,4.12,7.71,1.34,5.81-3.11,9.89-4.48,15.27-4.33,16.94,9.32,25.07,24.52,24.84.44.43-.52,10.04.13,12.03.76,2.32,3.53,1.54,3.77,1.81s-.09,4.1.2,5.4c3.75,16.76-.1,18.86-3.25,34.54-5.1,25.36-9.24,50.95-14,76.38H4.08v-317.48Z" fill="#fff"/>
  <path d="M591.19,542.22v294.47h-43.06l-.99-.99v-47.65c0-.17,2.97.03,3.31-1.1l-.69-26.03c7.81-4.82,14.27-7.64,17.28-17.05,8.52-26.65-11.64-63.06-35.44-75.36-2.47-1.28-6.6-2-8.61-3.21-.7-.42-1.14.04-.84-1.47,6,.18,10.44-9.7,14.63-11.34,5.65-2.21,10.84,2.59,17.81-3.23,1.1-.92,5.42-6.76,5.84-7.97.8-2.35.09-4.53,1.24-6.65.96-1.77,3.47-2.15,4.89-3.65,5.15-5.43,7.93-11,6.81-18.71-.53-3.66-4.49-7.63-4.49-9.26s2.98-4.27,3.71-6.75c1.94-6.58-1.16-15.21-6.72-19.21-2.39-1.71-9.53-3.52-9.86-3.94-.64-.8-2.12-7.68-3.26-9.89-3.08-5.95-10.77-10.74-17.28-11.65-3.14-.44-8.7.77-10.2.4-1.71-.43-2.88-3.51-4.11-4.5-7.95-6.44-19.84-8.08-29.04-3.41-1.39.7-4.88,3.89-5.24,3.95-.76.14-7.04-3.46-9.84-3.75-7.89-.84-14.93,3.32-18.58,10.19-1.49,2.81-.56,6.96-4.68,6.16l2.01-26.91c45.29-3.36,91.06-1.22,135.4,8.5Z" fill="#fff"/>
  <path d="M406.45,590.2l2.26-20.42c.47-.66,6.53-1.06,8.25-1.61,14.26-4.59,16.62-29.74,5.29-38.78-3.47-2.77-11.34-3.61-7.47-9.57,2.65.03,5.44,1.58,7.93,1.89,5.21.64-5.03-5.17-7.01-3.84-.73-6.91.82-13.85.65-20.71-.99-39.33-35.56-68.94-74.66-56.17-42.1,13.74-36.92,60.69-43.07,95.97-1.02-.54-1.45-3.43-1.67-4.56-6.37-32.3.61-69.3-34.34-87.26-48.1-24.72-94.73,22.49-82.97,70.79-1.92.32-9.79,1.56-10.51,2.97-.64,1.26,1.07,1,1.65,1,2.56-.03,5.89-.99,8.58-1.11,5.07,5.2-4.15,7.04-7.1,9.62-12.16,10.63-7.45,41.77,12.6,38.83l1.73,18.41c-1.88,2.6-21.35-2.84-24.61-4.74.14-16.73-10.23-29.07-21.65-39.81-4.25-14.47,14-50.43,21.94-63.23,16.46-26.52,42.4-53.75,74.22-59.9,4.28,4.3,6.95,8.22,13.32,9.73,1.54.36,5.48-.16,6.01.24.17.13.67,2.92,1.5,4.08,5.55,7.76,17.83,12.02,27.17,10.95,3.15-.36,6.7-2.54,9.87-2.49,2.74.04,6.3,2.07,9.27,2.42,9.1,1.07,20.56-1.61,27.23-8.12,1.25-1.22,3.64-5.5,4.58-5.94,1.81-.84,4.6-.02,6.75-.48,6.38-1.37,11.38-11.86,13.29-12.1,24.91,6.75,46.41,20.4,62.4,40.59,16.9,21.35,46.79,78.01,32.95,104.44-1.64,3.14-5.57,5.19-6.83,7.64-1.71,3.33-.39,6.58-3.35,9.8-2.73,2.96-19.64,11.48-23.36,11.48h-10.85Z" fill="#fff"/>
  <path d="M111.23,435.08c1.09,9.61,12.42,12.09,20.09,8.56,1.58-.73,5.05-4.3,5.99-4.47,1.22-.22,3.91,1.61,5.81,1.83,7.85.94,12.05-3.51,17.02-8.51l17.9,19c.58,2.86-9.63,12.87-11.82,15.86-9.19,12.55-16.3,26.6-21.56,41.22-43.68-3.5-87.86-3.03-130.72,6.69l71.31-83.47c6.42,10.33,16.68,5.64,25.98,3.29Z" fill="#fff"/>
  <path d="M482.7,573.11c5.33,13.14,20.33,13.15,31.8,8.49,3.38,8.26,11.44,13.04,20.15,13.86-1.96,7.79-3.3,14.57.55,22.12,1.79,3.52,6.46,5.64,4.07,9.76,22.42-14.99,26.42,21.72,5.4,23.15-2.6.18-5.95-1.2-8.89-.34-1.58.46-5.94,6.66-8.05,8.39-19.45,15.92-59.71,8.85-75.59-9.84-19.33-22.74-6.34-49.95,8.36-70.86,8.71,1.59,15,.17,22.21-4.73ZM478.11,590.85c.14-5.57-12.35-5.88-13.8-2.29-.26,1.45.57.97,1.56.9,4.88-.36,7.51-1.33,12.24,1.38ZM520.18,605.31c-.46-7.14-7.65-9.47-13.8-7.88,1.9,2.52,6.13,1.42,8.51,2.98,2.08,1.36,1.9,5.44,5.29,4.89ZM473.5,610.57c.8-8.48-12.43-11.79-13.68-3.48-.74,4.93,5.35-4.3,7.27-2.33,4.14.7,2.39,6.21,6.41,5.81ZM484.68,612.55c-8.09-1.15-15.18,6.61-6.89,12.48.24-2.71-2.69-4.97-1.33-7.88,1.3-2.76,7.87-1.44,8.22-4.6ZM509.44,615.41c-3.73-3.73-9.79-2.64-11.61,2.39,3.9-.06,6.28-3.71,9.58-.03,1.38,1.54,1.16,4.53,4.23,3.98.33-2.17-.67-4.82-2.2-6.34ZM473.09,637.95c-.84-.74-3.16-5-3.85-5.01-2.3,1.49.72,5.3,1.95,6.58,6.35,6.59,19.61,4.8,22.7-3.96-3.97,1.12-6.4,4.64-10.91,5.19-3.49.43-7.23-.44-9.89-2.8Z" fill="#fff"/>
  <path d="M439.65,836.69l-.98-1.65c.28-13.49-1.11-27.28.01-40.73.14-1.63.72-7.63,2.24-8,34.24,4.85,69.19,6.68,103.59,2.39l1.32,47.99h-60.49v-31.55h-1.31v31.55h-44.38Z" fill="#fff"/>
  <path d="M539.25,593.49c-10.82.83-20.26-4.9-23.99-15.1-10.3,5.99-28.6,6.42-30.58-8.57-3.14-.4-5.13,2.61-7.67,3.83-6.22,2.97-11.35,2.6-17.89.83l-8.26,13.12c-7.22-4.12-6.51-17.93-.03-22.38,2.12-1.45,6.97-2.23,7.88-3.3.97-1.14,1.53-6.3,3.08-8.75,3.45-5.46,10.56-7.35,16.61-6.31,3.42.59,5.38,4.37,8.55,3.91,1.72-.25,6.35-5.04,9.7-6.13,6.3-2.04,13.87-.81,19.54,2.55,2.36,1.4,6.53,6.34,7.75,6.71,2.92.87,6.11-.54,8.85-.36,6.7.43,14.84,4.91,18.17,10.81,1.59,2.82,2.71,10.01,3.68,10.79,1.12.9,5.71,1.12,8.09,2.43,5.11,2.81,7.95,9.93,7.42,15.58-.34,3.67-4.08,8.07-3.94,10.47.11,1.8,3.1,4.88,3.65,7.57,1.47,7.27-.6,15.2-6.75,19.68-3.05.72-5.7-9.41-13.67-9.42-5.62,0-6.37,3.6-10.46-3.04-5.85-9.5-3.45-15.42.27-24.92Z" fill="#fff"/>
  <path d="M443.26,579.69c-.14,4.61,3.98,7.48,6.4,10.83-10.73,20.71-16.17,40.53.86,59.8l13.79,12.18c-11.95,1.95-22.99,9.89-31.24,18.4-5.68,5.86-10.34,14.7-15.56,19.94-.58.59-.57,1.43-1.85,1.1-.37-10.81-1.81-21.71-3.38-32.44-2.8-19.07-13.57-57.66-7.49-74.71,1.94-5.45,9.27-2.73,14.41-3.34,9.16-1.09,16.47-7.29,24.07-11.75Z" fill="#fff"/>
  <path d="M547.15,760.44l1.97,24.98c-21.68,3.4-44.78,4.26-66.76,3.31-5.19-.22-44.86-3.63-45.69-6.38l3.33-31.9,12.3-7.67c3.17-.4,14.14,15.4,19.07,16.24,5.53.95,19.08-11.29,24.81-13.09,16.28,6.88,32.43,17.28,50.97,14.51Z" fill="#fff"/>
  <path d="M482.7,698.65c7.06-11.36,25.45-16.57,35.77-6.5,2.79,2.72,8,12.94,7.62,16.61-.27,2.69-4.2,12.5-7.21,13.28-5.67-.13-15.68-7.62-20.74-3.04-1.84,1.66-1.21,3.75-1.77,4.47-.6.78-3.74.72-4.52,1.89-1.47,2.22.21,4.7-.06,5.76-.35,1.39-4.01,1.1-4.47,4.72-.57,4.48,4.18,5.6,6.54,8.48l-21.97,12.16c-7.04-3.2-10.83-10.11-16.67-14.77-.22-2.02,6.89-4.71,6.8-9.21-.04-2.23-2.18-3.15-2.28-4.55s1.41-3.21.98-5c-.63-2.58-3.33-2.4-3.55-2.7-.85-1.13,1.38-4.72-2.13-6.75-4.71-2.72-13.83,1.42-14.95.84-7.61-11.54,3.21-29.73,16.07-31.38,14.38-1.85,17.94,6.79,26.54,15.7Z" fill="#fff"/>
  <path d="M565.55,722.31c-10.32-2.38-20.58-.45-30.9.67l-.66-7.9c-.53.08-1.86-.12-1.97,0-.49.53,1.19,12.59,1.31,14.46l-12.48-4.61c.68-4.04,5.1-6.08,6.39-10.36,5.46-18.07-10.93-33.41-28.76-29.41-7.14,1.6-10.92,5.82-16.69,9.6-13.1-25.47-51.23-13.67-45.75,15.06l-17.1-3.94c-1.72-1.89,7.02-12.75,8.57-14.76,7.92-10.3,20.88-22.35,33.54-26.28,14.21-4.42,12.33,5.4,21.71,11.76,6.19,4.2,12.97,4.76,19.7,1.38,11.7-5.85,9.09-15.82,25.4-9.01,19.94,8.32,35.34,32.19,37.69,53.35Z" fill="#fff"/>
  <path d="M187.48,588.27l5.25,45.09c-3.4,30.02-7.78,60-12.54,89.84-3.15,19.76-5.88,43.44-10.43,62.54-.24.99.49,1.16-1.29.99l-5.96-45.01.69-1.33c12.87-3.24,15.36-15.13,14.45-26.93-.35-4.55-2.73-9.99-2.67-14.48.05-3.99,2-5.33,2.53-8.04,1.49-7.58-3.66-12.58-3.83-19.55-.15-6.18,3.58-11.15,3.36-17.78-.4-11.67-11.84-16.75-13.55-25.26-1.37-6.84,1.08-14.39.36-21.39-.49-4.69-3.58-9.8-3.3-14.46.17-2.88,2.27-6.14,1.34-9.55,7.82,4.07,16.87,5.44,25.6,5.3Z" fill="#fff"/>
  <path d="M123.74,669.74c1.72,1.57-8.74,7.22-7.23,10.51,1.22,1.42,7.87-9.42,12.06-7.81,4.71,1.81-5.99,10.71-4.82,11.75,3.98.19,4.01-6.2,8.54-5.26.24,7.61-3.69,14.38-7.12,20.82-7.57,14.22-21.7,35.87-37.42,41.47-17.63,6.27-37.9-1.16-36.68-22.21.89-1.35,22.17-7.01,25.03-7.19.96-.06,2.59-.61,2.27.96-2.21,1.19-7.96,5.64-1.74,4.18l24.42-21.6c3.82-10.68,8.71-26.49,22.69-25.62Z" fill="#fff"/>
  <path d="M46.82,703.58c1.7-13.2,17.75-37.56,30.67-42.3,12.59-4.62,10.57,4.41,18.95,9.13,3.71,2.08,7.78,2.01,11.51,3.59-4.57,4.89-4.46,13.47-7.61,18.67-.82,1.36-10.95,11.09-11.83,11.2-3.08-.56-4.43-16.15-8.81-13.1,1.58,3.8,7.29,14.18,3.29,17.41l-36.16,8.22c.37-4.05-.51-8.88,0-12.82Z" fill="#fff"/>
  <path d="M541.88,732.18v-1.97s-5.92,0-5.92,0l.39-5.34c9.29-1.12,18.77-2.01,28.1-.46,2.35,1.07,1.99,10.34,1.78,12.72-3.35,38.1-60.2,15.85-76.9-.11.78-8.89,14.38,3.85,15.73-.57-2.21-1.55-13.31-5.04-11.54-8.87,2.61-5.63,14.21,2.85,18.11,3.28.69-3.42-19.59-8.32-10.84-10.51,10.57-2.64,24.17,11.82,30.24,11.82h10.85Z" fill="#fff"/>
  <path d="M111.84,431.85c-9.45,2.78-19.32,8.6-25.59-3.02,0-2.63,22.08-23.13,25.7-24.94,17.42-8.71,31.97,14.22,43.72,23.25,4.08,11.14-12.66,14.11-19.78,8.67-6.39,10.86-21.88,9.04-24.05-3.96Z" fill="#fff"/>
  <path d="M548.13,428.5c-.44.06-2.78.61-2.29,1.63,8.63,4.82,13.83,13.21,11.16,23.34l-25.41-20.25-33.09,16.97c-4.19-15.06,10.77-18,21.01-22.68-6.95-5.19-15.24-8.16-23.66-9.87,4.96-7.13,16.39-8.07,23.7-3.96,3.36,1.89,5.57,6.15,9.84,6.27.32-10.46,8.9-18.34,19.06-19.72l-7.88,19.05c9.76-2.27,25.73-3.68,28.27,9.21-6.42.66-14.51-.89-20.71,0Z" fill="#fff"/>
  <path d="M173.71,705.23c3.68,14.18,3.39,34.12-16.14,32.89-16.28-1.02-32.54-25.21-28.91-40.8,1.42-6.12,12.83-15.49,3.64-21.35,12.93-2.77,8.56,15.14,11.14,20.41,1.57,3.21,14.56,11.7,17.46,15.41,1.79-3.47-3.6-3.52-3.62-6.57h16.44Z" fill="#fff"/>
  <path d="M234.75,415.26l-25.74,8.55c-5.48-4.96-5.57-11.37-4.47-18.24-24.23-6.14-1.66-29.17,3.69-41.48,3.28,7.16,9.77,11.53,17.11,13.78.67,5.68-.1,11.51,1.26,17.14,1.81,7.45,9.28,11.97,8.15,20.25Z" fill="#fff"/>
  <path d="M437.14,713.97c.31.36.99,1.34.58,1.79-1.52.39-15.16,9.73-13.51,11.16,5.32-1.41,8.75-6.08,14.02-8.65,4.54-2.21,12.01-5.69,16.22-1.51.79,3.66-17.85,6.44-15.12,8.85,5.82.04,12.23-6.17,17.93-3.13,7.71,4.11-11.67,8.12-13.32,10.36,4.88,1.92,11.74-5.9,15.66-.88.59,3.25-10.33,10.72-13.09,12.34-24.95,14.69-41.45,2.72-33.95-25.39.61-2.3,3.05-10.7,5.39-11.04s17.57,4.23,19.19,6.12Z" fill="#fff"/>
  <path d="M383.43,364.09c.36,5.48,5.33,9.25,7.26,14.11,3.41,8.55,2.97,18.38-6.59,22.07,4.25,5.85-.54,21.36-8.17,21-1.07-.05-19.38-6.77-20.13-7.54-.35-2.18-.28-9.78.63-11.08.3-.42,4.07-2.26,5.6-4.42,4.89-6.88,3.89-15.63,5.07-23.52,7.63-.77,11.18-6.57,16.33-10.62Z" fill="#fff"/>
  <path d="M410.39,538.27c.04-1.01.26-1.6-.66-2.29-1.42-1.08-24.33-2.59-15.81-10.57,6.01-5.63,23.62,2,28.3,7.28,6.9,7.79,6.24,30.61-6.3,32.47-7.65,1.13-16.32-2.32-23.06-5.74-3.43-1.74-9.56-3.71-7.98-8.85,2.09-6.79,21.43,2.83,22.23-.81-3.28-4.84-19.15-2-19.51-9.29-.51-10.01,21.5-.97,22.8-2.21Z" fill="#fff"/>
  <path d="M202.49,525.92c3,5.85-14.2,7.59-17.48,8.9-1,.4-1.77-.37-1.44,1.48,7.78.7,21.14-7.16,24.3,3.64-.28,5.79-21.79,5.22-21.66,8.53,6.6,2.43,11.77-3.55,19.21-.81,16.99,6.26-18.61,18.24-26.74,16.87-9.5-1.6-10.52-17.68-9.41-25.08,1.93-12.8,22.94-21.86,33.21-13.51Z" fill="#fff"/>
  <path d="M481.4,477.14c.62-5.39-19.21-12.43-17.09-15.77,10.93-2.99,21.22,2.03,25.33,12.5,1.81.17,6.7-6.64,8.91-8.18,5.61-3.91,11.26-4.36,17.69-2.35,1.58,1.79-17.9,10.65-17.75,14.45,10.42-1.36,19.44,3.09,21.7,13.8l-27.18-7.81-15.23,23.58c-3.28-4.41-3.46-10.43-1.69-15.47.74-2.1,3.09-3.9,2.68-5.89-3.83-2.14-16.84,4.78-21.05,6.25-1.17-5.34,8.98-15.11,13.47-15.11h10.19Z" fill="#fff"/>
  <path d="M173.05,702.6c-9.8-.58-20.2,4.41-26.31-6.23-2.71-4.71-.32-12.32-4.04-18.31-2.87-4.61-4.98-3.41-8.8-5.01-7.09-2.95-1.96-5.21-.47-9.08,2.24-5.8-1.13-10.3,8.67-5.03,15.37,8.27,29.25,25.96,30.96,43.66Z" fill="#fff"/>
  <path d="M174.35,692.73c-6.99-16.14-19.23-28.71-34.16-37.79,8.31-5.69,18.67-13.47,20.37-23.99,1.26-1.35,4.57,5.97,4.97,6.52,5.29,7.16,10.91,9.91,9.2,20.46-.65,4.03-4.16,8.88-4.24,12.84-.14,6.5,8.61,14.16,3.87,21.95Z" fill="#fff"/>
  <path d="M436.69,751.24l-1.65,32.88,2.36,2.27-.71,50.3-4.23.03-11.55-84.16c5.46,1.55,10.5.04,15.77-1.32Z" fill="#fff"/>
  <path d="M302.56,617.81c.68.78-4,7.77-5.6,7.87l-99.59,8.55c-1-.83,5.79-8.58,7.58-8.52l97.61-7.9Z" fill="#fff"/>
  <path d="M394.61,633.57l-91.38-11.49,6.25-4.93c24.85,4.14,51.45,4,76.17,7.97,7.18,1.16,5.75,2.31,8.96,8.45Z" fill="#fff"/>
  <path d="M194.08,565.22l6.6,53.55c.55,5.14-.9,9.06-4.96,12.18l-8.88-62.12c-.22-1.79,6.87-3.94,7.24-3.61Z" fill="#fff"/>
  <path d="M397.23,630.95c-1.49.36-2.51-2.32-2.94-3.29-4.09-9.15,2.99-31.39,4.73-41.93.48-2.91,1.22-19.29,3.2-19.81l4.71,3.42-9.7,61.61Z" fill="#fff"/>
  <path d="M130.97,659.22l-3.64,9.83c-1.73.86-1.92-2.63-5.17-2.57-3.84.07-7.97,5-12.58,5.25-5.75.31-15.26-3.59-18.04-8.92l21.34.33,18.09-3.92Z" fill="#fff"/>
  <path d="M534.65,518.55l17.1-1.32c-.21,5.3,1.14,10.47.65,15.78l-17.74-1.31v-13.15Z" fill="#fff"/>
  <path d="M534.65,501.46l14.49-1.03c.45,3.47,3.36,11.28.61,13.82-1.89,1.74-15.1,4.15-15.1.02v-12.82Z" fill="#fff"/>
  <path d="M510.32,667.76c-5.61,13.78-28.2,11.95-33.52-1.31,11.03,2.38,22.42,4.5,33.52,1.31Z" fill="#fff"/>
  <path d="M544.84,484.37c.48.09,1.38.68,1.64,1.16l2.34,11.99c-1.28,2.17-12.17,2.97-14.18.99v-14.13c3.05.4,7.34-.55,10.19,0Z" fill="#fff"/>
  <path d="M511.61,529.7l-11.49.05-2.18-15.04c13.19-6.75,11.61,5.85,13.68,14.99Z" fill="#fff"/>
  <path d="M184.24,478.46v17.4c.32,5,4.23,20.63,3.65,23.71-.35,1.83-3.03,2.95-4.7,1.67-4.17-3.17-3.6-36.95,1.05-42.78Z" fill="#fff"/>
  <path d="M542.87,467.94l2.87,13.43c-.59,1.92-10.03,2.34-11.09.55l-1.31-13.99h9.53Z" fill="#fff"/>
  <path d="M407.21,522.39l5.81-34.73c.84,5.13,1.44,32.4-1.57,34.91l-4.24-.18Z" fill="#fff"/>
  <path d="M539.85,452.24l3.04,12.45c-.73,1.61-8.31,2.55-9.6,1.66l-1.27-13.51,7.83-.59Z" fill="#fff"/>
  <path d="M530.05,435.74c5.08-.98,12.89,11.2,9.22,14.15-.48.39-7.88,1.62-8.26,1l-.96-15.16Z" fill="#fff"/>
  <polygon points="504.34 500.86 507.04 511.32 497.19 511.97 495.94 502.19 504.34 500.86" fill="#fff"/>
  <path d="M494.31,486.42c2.21-.84,3.94,1.04,5.13,2.59l3.67,9.51c-1.98.29-6.83,1.98-8.25.32-.93-1.1-3.34-11.36-.55-12.43Z" fill="#fff"/>
  <path d="M68.16,179.01c2.57-2.79,6.66-5.16,10.51-5.58l437.9.04c23.04,2.87,23.92,51.62.02,55.88H78.03c-20.06-4.66-21.54-37.69-9.88-50.34ZM525.87,182.25c-2.25-2.63-6.99-5.43-10.59-5.52l-435.92.02c-20.95,2.47-21.3,46.83.66,49.3,146.23-.67,292.8,1.34,438.83-1.01,14.85-4.33,15.06-33.4,7.02-42.8Z"/>
  <path d="M371.6,75.21c-.74,2.14-9.18,2.12-10.79,1.05-.89-.59.39-2.65-1.7-2.03,1.34,3.93-10,2.93-11.02,1.8-.65-.71-1.36-5.09-1.51-6.37l-10.57.35c-1.24,7.89-3.31,6.8-10.13,6.87-2.49.03-4.54-.02-7.18.02-3.38.04-19.42.48-21.03-.74-2.02-1.53-1.03-37.36-.44-42.42l24.41-.61c1.9,1.94,2.08,12.18-1.01,12.18h-11.18c-1.29,1-1.34,1.6,0,2.63h11.18l.99.99v9.86l-.99.99h-11.18c-1.47,1.13-1.47,3.47,0,4.6h11.83c.22,0,1.53.67,1.66,1.12l.63,6.11,11.13-37.84c1.13-1.29,9.75-1.33,11.43-.8,2.97.93,11.15,35.84,13.61,40.62v-37.79c0-4.2,10.88-3.61,12.71-2.35,1.66,1.14,5.51,15.57,8.33,17.8v-16.76c0-2.16,10.73-2.69,11.72.11l-.32,40.82c-15.63,7.47-14-8.23-20.61-16.94v16.76ZM298.62,35.44v38.78h22.35v-7.23h-14.46v-9.2h13.15v-7.89h-13.15v-7.23h13.81v-7.23s-21.7,0-21.7,0ZM346.62,35.44l-10.59.4-11.11,38.38,7.81-.09,1.98-6.76,13.19-.34,1.44,7.1,8.45.09-11.17-38.78ZM361.74,35.44v38.78h7.89v-25.63l11.18,25.63h9.86v-38.78h-7.89v25.63l-11.29-25.52-9.75-.11Z"/>
  <path d="M436.68,351.6c6.55-32.6,62.63-31.12,65.06,3.67,9.37-2.63,21.2-.3,25.34,9.47,6.27,14.8-7.43,25.86-21.62,24.24-2.81-.32-7.65-2.77-9.91-2.53-1.34.14-3.02,2-4.62,2.62-11.81,4.55-22.25,7.37-34.88,3.31-3.7-1.19-9.86-6.14-11.96-6.49-2.73-.46-8.28,2.39-11.72,2.53-31.6,1.3-26.37-45.15,4.3-36.81ZM499.9,358.74c-1.7-4.83-1.71-10.05-4.01-14.72-10.55-21.38-56.29-15.87-57.23,10.21-28.91-9.61-35.51,32.84-6.35,32.15,4.18-.1,10.09-3.68,12.56-3.24,1.54.27,5.52,4.46,7.66,5.53,8,3.99,22.25,4.04,30.63,1.17,2.94-1.01,9.74-5.83,11.77-6.04,2.51-.25,3.89,1.72,6.26,2.22,8.34,1.75,16.73,1.45,21.88-6.23,4.38-6.53,3.41-11.07-1.03-17.24-6.04-8.39-13.7-5.06-22.15-3.82Z"/>
  <path d="M396.59,147.51c-.83,3.68-8.49,2.39-11.39,1.7-.64-.41-.79-1.14-.94-1.83-2.23-10.41,1.31-27.5-.14-38.63l1.58-2.37c14.77-2.98,33.32.38,25.82,19.92-.69,1.8-2.48,2.63-2.47,2.81.09,1.61,6.11,10.55,6.27,13.47l10.56-34.81c1.67-2.79,10.2-2.62,12.39-1.29,2.84,1.73,10.55,35.13,12.92,40.38.82,4.5-11,3.11-11.73,2.13l-1.53-6.35-10.04-.12c-.98.34-.63,6.23-3.5,7.14-1.23.39-16.06.44-17.6.11-5.11-1.1-4.05-14.09-10.21-14.44-.53,3.49.72,8.98,0,12.16ZM402.83,108.4c-5-.74-11.58.55-16.77,0v38.78h8.55v-14.46c8.24-1.31,8.59,8.91,11.27,14.37,1.67-.4,8.89,1.24,9.09-.23-3.04-5.21-3.72-13.83-9.18-16.78v-1.29c8.36-3.97,6.69-18.96-2.96-20.39ZM437.97,108.43l-10.44,1-11.22,37.74,7.23.37,3.07-6.96,12.62.12,1.4,6.48h8.54s-11.21-38.74-11.21-38.74Z"/>
  <path d="M159.24,137.32c.83.83,12.48-1.47,14.14,1.3,1.82-.16,7.84-29.05,10.15-31.72,1.45-1.68,12.73-2.39,13.53,1.49l11.49,39.1c-.42,3.8-8.11,2.01-10.74,2.21l-3.05-6.81-9.96.09-1.84,5.9-1.72.91-32.92-.57-.81-41.69c.9-2.55,9.96-2.54,11.72-.11v29.91ZM157.27,108.4h-7.89v38.78h20.71c.22,0,.94.9,1.64.65v-7.88s-14.46,0-14.46,0v-31.55ZM194.63,108.52l-9.66-.03-11.92,38.68,7.89.38,2.56-6.54,12.12-.3,2.48,6.39,8.47.07-11.95-38.66Z"/>
  <path d="M69.68,274.88c41.85-4.16,55.31,54.98,12.65,66.54-50.3,13.64-67.93-61.05-12.65-66.54ZM67.04,277.5c-7.96,1.07-17.55,6.76-22.53,12.97-25.1,31.27,24.28,69.8,53.27,38.79,22.07-23.61-1.55-55.7-30.73-51.76Z"/>
  <path d="M290.08,106.43l10.72-.05c.35.22,1.11,1.42,1.11,1.69v29.25h12.16c.46,0,1.56,1.31,2.29,1.31,1.3-1.13,7.13-29.33,9.83-31.92,1.89-1.82,9-.91,11.73-.51l1.03,1.04c2.32,11.78,8.46,24.31,10.75,35.87.47,2.4,1.25,4.29.21,6.7h-9.53l-3.92-7.28c-2.12.47-7.36-.65-8.92.35-1.08.69-1.33,5.96-3.59,6.92h-32.87l-.99-.99v-42.4ZM299.94,108.4h-8.55v37.79l21.93,1.56,1.09-7.81h-14.46v-31.55ZM337.32,108.49l-10.39-.06-11.21,38.74,7.91-.3,2.36-6.31,12.82.43c.6,7.06,3.61,6.6,9.78,6.84l-11.27-39.34Z"/>
  <path d="M451.59,274.27c10.53,10.57-8.2,37.95-17.75,37.7-4.41-.12-17.73-10.35-20.79-13.96-14.31-16.87,1.64-30.3,18-18.07,3.45-7.58,14.01-12.22,20.54-5.67ZM438.97,306.54c6.51-5.82,21.4-26.7,8.05-31.99-10.91-4.32-11.13,8.28-15.3,8.7-6.2-2.1-11.99-9.59-18.74-3.66-11.36,9.98,16.18,31.37,22.55,29.82,1.06-.26,2.57-2.09,3.44-2.86Z"/>
  <path d="M157.76,62.54c1.5,6.96,2.73,11.73-5.1,13.97-33.25,9.52-33.91-52.09-.51-43.52,3.46.89,5.86,1.57,6.44,5.39,2.57,16.78-7.14,2.54-14.72,6.34-5.85,2.93-6.99,24.92,7.46,19.94,1.88-.65,4.92-3.82,6.43-2.13ZM156.61,45.3l-.32-7.89c-35.27-17.58-36.55,51.79,0,34.85l.31-7.9c-24.78,17.48-25.69-36.25,0-19.06Z"/>
  <path d="M274.96,75.21c-.77,2.53-8.57,1.85-10.74,1.04-.64-.41-.79-1.14-.94-1.83-1.01-4.71-.89-32.69-.17-38,.14-1.07.27-2.09.98-2.97,13.11-1.66,29.48-2.85,27.3,15.46-.32,2.7-3.21,7.17-3.17,7.78.18,3.06,8.94,15.18,6.8,18.84-1.16,1.98-8.85,1.57-11.08.71-2.35-2.56-4.21-13.64-7.66-14.22-.87-.15-.84.19-1.33.69-.61,3.23.82,9.76,0,12.49ZM265.09,35.44v38.78l8.55-.99v-13.47c8.09-2.99,8.75,12.88,11.29,14.35,1.23.71,6.58-.27,8.43.11-2.11-6.19-3.67-13.99-9.2-18.07,8.03-3.73,7.94-18.35-1.27-20.42-1.84-.41-17.13-.94-17.8-.28Z"/>
  <path d="M524.29,294.57c-1.57,2.98.41,5.5-.45,9.1-2.25,9.44-10.29-1.54-13.91-2.01-3.81-.49-7.88,3.07-11.29,1.48-5.13-3.26.86-9.29.36-13.5-.21-1.77-2.61-4.08-2.98-5.57-2.11-8.39,7.91-4.23,12.37-5.71,2.87-.95,4.96-9.35,9.8-7.28,3,1.29,3,8.86,4.62,10.53,1.02,1.05,4.97,1.27,6.81,2.39,7.27,4.44-.44,9.19-5.33,10.57ZM521.5,304.93c.57-3.05-1.55-7.21-.54-10.07.64-1.8,8.02-4.24,8.43-7.33-2.01-2.34-6.62-1.96-8.58-3.93-2.18-2.19-1.65-11.37-5.24-9.25-4.93,9-8.28,6.68-17.08,6.92-.69.85,3.92,6.97,3.98,8.84s-4.05,10.2-3.32,10.87c3.44,1.17,8.07-2.94,10.83-2.63,1.64.19,9.98,8.29,11.52,6.57Z"/>
  <path d="M541.04,72.44c6.34,6.25-6.36,9.2-7.36,11.66-1.65,4.05,1.9,12.28-6.93,10.2-3.14-.74-6.71-5.29-7.64-5.46-2.37-.44-8.44,5.13-11.75,1.18-1.89-3.5,2.36-8.54,2.12-11.41-.2-2.41-3.92-4.88-3.84-8.65.15-7.47,8.47-2.65,12.09-3.74,2.9-.87,5.08-9.2,9.32-8.45,3.67.65,3.46,9.96,4.94,11.56,1.16,1.25,7.08,1.2,9.03,3.13ZM530.71,91.97c-.77-9.13-.19-11.32,8.55-14.13,3.97-4.73-7.5-4.4-9.25-6.53-1.51-1.84-1.6-9.23-2.55-9.96-4.62-1.28-5.24,6.23-8.55,7.33-2.87.96-7.35-1.17-10.56-.37-1.14,3.71,3.67,5.96,3.92,8.9.19,2.26-3.65,10.38-2.6,11.47,3.16.59,7.44-3.03,10.14-2.64,2.41.35,6.61,7.58,10.89,5.94Z"/>
  <path d="M275.5,142.7l-9.65-.02-3.19,7c-2.08-.1-9.16,1.08-9.96-.95l12.99-42.68c2.86-.2,9.63-1.24,11.53,1.07l11.89,41.37c-1.17,2.33-7.96,1.1-10.43,1.21l-3.19-7ZM278.97,147.11c1.86-.49,7.89,1.92,8.44-.31l-11.26-37.29c-1.42-2.27-7.36-.63-9.95-1.14l-11.62,38.81,7.79-.1,1.73-5.83,13.46-.61,1.42,6.47Z"/>
  <path d="M182.09,296.23c-3,2.97-8.61-2.07-11.93-1.81-2.86.23-5.13,3.71-7.64,4.32-6.16,1.5-3.09-8.02-4.07-11.1-.91-2.84-7.63-2.75-7.07-9.27.43-4.97,8.79-3.32,9.76-4.4.38-.43.68-8.69,3.36-10.11,5.89-3.11,7.56,7.34,9.86,8.52,2.67,1.37,7.51-1.16,10.13,3.03,3.11,4.98-3.24,6.6-3.53,10.16-.24,2.85,3.59,8.21,1.12,10.66ZM167.71,266.24c-3.57-1.94-3.34,7.77-5.19,9.43-1.67,1.49-8.26,1.54-8.58,2.74-.58,4.91,5.31,4.17,6.7,7.78.84,2.19-1.34,9.66.93,10.21l1.01-.27c6.33-7.49,10.03-2.91,17.7-1.71-1.89-7.48-3.95-11.54,3.28-16.76-1.77-2.76-4.92-1.18-7.51-1.68-3.99-.77-6.37-6.53-8.34-9.73Z"/>
  <path d="M396.59,33.47c11.33-1.32,24.7-2.57,30.92,8.85,5.54,10.16,3.37,28.29-8.71,32.74-5.64,2.08-17.04,3.15-22.21.14v-41.74ZM398.56,74.22h15.45c19.16,0,18.46-38.78.66-38.78h-16.11v38.78Z"/>
  <path d="M353.67,105.92c5.39-1.27,20.53-.55,23.99,4.64,5.51,8.27-.17,11.71.1,15.91.04.69,2.49,3.29,2.89,5.42,1.87,9.84-1.65,16.89-11.98,17.95-2.57.26-16.16.58-17.12-1.34s-1.02-39.61,0-41.42c.55-.65,1.32-.97,2.13-1.16ZM353.19,147.18h18.74c8.03,0,9.9-17.68,2.31-20.71,6.72-4.18,3.64-18.08-4.29-18.08h-16.77v38.78Z"/>
  <path d="M210.52,64.36h12.82l.99.99v10.85c-6.74.65-15.37,1.34-22.05.68-1.31-.13-3.13.01-3.81-1.49l-.15-40.66c.88-3.01,12.21-2.88,12.21.39v29.25ZM208.55,35.44h-8.55v38.78h23.01v-7.23h-14.46v-31.55Z"/>
  <path d="M174.88,32.34c30.67-3.5,27.12,53.39-3.12,44.15-17.79-5.43-16.77-41.88,3.12-44.15ZM176.88,34.29c-20.69.92-20.11,37.53-3.34,40.43,27.54,4.76,26.95-41.48,3.34-40.43Z"/>
  <path d="M239.3,32.33c27.74-3.93,28.77,44.55,3.73,45.19s-24.83-42.21-3.73-45.19ZM241.31,34.27c-19.71,1.24-20.03,36.89-3.21,40.31,27.53,5.6,27.33-41.83,3.21-40.31Z"/>
  <path d="M437.62,73.27c-10.45-8.57-8.72-36.05,5.51-40.27,21.81-6.46,29.42,19.39,21.53,35.33-4.96,10.03-18.63,11.83-27.03,4.94ZM448.41,34.29c-20.37.89-20.03,36.88-3.87,40.3,27.71,5.86,27.91-41.35,3.87-40.3Z"/>
  <path d="M224.33,106.43c14.72-3.11,34.47-.07,29.25,19.71-2.46,9.32-8.64,9.78-17.13,10.48l-1.21,12.6c-1.28,1.01-9.45,1.16-10.91-.4v-42.4ZM234.19,134.03c2.41-.22,5.22.32,7.56,0,16.22-2.26,11.13-25.63,1.32-25.63h-17.42v36.48c0,.23.76,2.23,1.08,2.34l7.47-.04v-13.15Z"/>
  <path d="M54.5,395.19c1.3,1.17,2.4,5.21,3.27,5.76,2.09,1.3,9.07-.01,9.99,3.72.96,3.92-4.8,5.21-5.39,6.91-.72,2.07,2.91,8.3-.43,10.02-3.59,1.85-6.64-2.64-10.13-2.3-2.9.29-4.07,4.3-7.45,2.86-2.51-1.07-.95-7-1.77-9.48-1.03-3.12-7.46-3.1-5.65-8.71.67-2.08,7.25-1.37,8.79-2.37,1.32-.85,1.44-6.29,4.58-7.48,1.15-.71,3.27.23,4.2,1.06ZM65.22,404.85c-2.29-1.17-5.63-.92-7.72-1.82-3.4-1.47-3.27-6.96-7.39-6.73l-2.29,5.93-8.9,3.61c4.92,5.08,7.15,6.09,5.93,14.12,7.31-3.56,7.98-3.83,15.39.02,1.58-2.97-1.2-5.29.02-9.26.88-2.86,4.54-3.01,4.96-5.87Z"/>
  <path d="M147.2,345.9c1.53,1.4,2.21,5.01,3.8,6.38,2.62,2.26,8.62.87,8.28,5.59s-6.54,4.29-7.77,5.73c-1.78,2.09.38,9.03-5.08,9.11s-4.68-4.04-7.21-6.67-8.65-2.63-8.28-6.83c.25-2.8,5.63-4.06,6.91-5.64,1.43-1.78,3.23-13.24,9.35-7.66ZM134.39,358.29c-1.91,3.58,4.58,3.86,6.14,5.12,2.22,1.79,2.07,6.98,5.93,7.26,2.37-.16,1.4-5.33,2.9-7.59,1.35-2.02,5.7-2.97,7.24-5.23-6.69-1.25-7.95-8.07-13.43-10.22-.78.16-2.09,5.75-2.97,6.95-1.18,1.62-5.55,3.24-5.8,3.72Z"/>
  <path d="M447.03,418.76c4.82-1.39,4.73,4.99,6.46,7.07,1.87,2.25,7.72,1.12,7.57,6.3-.12,4.16-5.2,3.1-7.25,4.62-2.39,1.77-2.32,7.55-6.94,7.55-4.98,0-3.84-5.04-5.56-7.61-1.3-1.95-6.11-2.74-5.79-6.44.22-2.51,4.07-3.11,5.8-4.67s3.52-6.18,5.71-6.81ZM449.18,421.28c-4.28,1.94-4.57,7.83-10.54,8.24-.53,3.5,2.87,3.32,4.54,5.32,1.07,1.27,2.69,7.33,3.7,7.45,3.19-1.38,3.02-5.24,5.92-7.22,1.25-.85,5.45-1.68,5.64-2.36,1.09-3.87-10.76-5.16-9.25-11.43Z"/>
  <path d="M542.06,318.91c.56-.51,1.27-.66,2.01-.63,3.1.24,5.35,4.19,7.71,6.02,1.67,1.29,4.7.9,5.24,3.33,1.16,5.26-3.26,4.89-5.29,7.2-1.84,2.09-1.98,7.64-5.71,8.13-4.77.62-4.07-5.89-6.4-7.8-1.48-1.22-5.61-1.21-6.17-3.73-.71-3.14,4.49-4.51,6.12-6.78,1.04-1.45,1.54-4.84,2.5-5.72ZM554.17,328.13c-1.47-1.74-8.01-4.95-9.97-7.43-1.75,5.09-3.99,6.54-7.55,10.12,5.14,2.61,5.75,4.64,8.19,9.58,4.09-2.97,4.7-8.22,9.9-10.48.29-.6-.19-1.35-.57-1.8Z"/>
  <polygon points="66.54 348.97 61.67 362.71 59.6 360.49 63.35 349.07 66.54 348.97"/>
  <path d="M104.68,281.92c-.16-1.64,1-3.08,1.98-4.26.81-.98,10.92-9.37,11.15-5.93-.83,2.02-11.77,11.51-13.13,10.19Z"/>
  <path d="M94.15,345.03c.58,4.99,5.36,8.59,4.6,13.8-2.61,2.97-7.13-11.97-7.85-12.84l3.24-.96Z"/>
  <path d="M125.05,333.85c-1.49,1.37-12.13-4.64-13.79-6.24-.2-4.43,16.12,4.1,13.79,6.24Z"/>
  <path d="M53.39,272.06c-2.23,2.37-10.13-11.19-8.54-13.8,2.61.51,9.36,12.93,8.54,13.8Z"/>
  <path d="M33.66,289.81c-1.59,1.35-15.35-5.63-13.14-7.88,1.79-.38,15.56,5.83,13.14,7.88Z"/>
  <path d="M30.38,347c-2.36-2.43,11.39-15.13,9.75-8.33-.2.84-8.62,9.49-9.75,8.33Z"/>
  <path d="M116.51,302.3c.08-.53-.14-1.82,0-1.97.51-.55,14.42-2.89,14.45-.33-.72.88-4.11,2.3-4.92,2.3h-9.53Z"/>
  <path d="M80.91,268.68c-.43.29-1.28.04-1.87.11-.86-.95.8-10.1,1.81-11.65,1.28-1.97,2.69-.72,2.65,1.26-.03,1.37-1.79,9.75-2.59,10.29Z"/>
  <path d="M29.06,312.82c.31,1.52-.15,1.05-.84,1.47-3.66,2.22-8.93.31-12.96,1.81,0-3.52,12.99-3.75,13.8-3.28Z"/>
  <path d="M230.49,756.25c-7.76-7.78-24.94-64.88-25.87-77.01-1.48-19.36,7.71-20.55,23.65-24.96,12.45-3.44,29.11-7.28,41.87-8.75s16.22-3.58,21.05,9.61c5.52,15.07,8.69,32.55,13.01,48.12,2.19,7.88,5.51,11,4.94,20.04-.16,2.48-1.68,4.28-1.36,7.24.59,5.47,8,10.69-1.05,16.64-6,3.94-44.89,11.7-53.99,13.07-7.71,1.16-16.23,2.04-22.26-4ZM240.11,738.75c7.49-2.62,65.69-13.51,67.25-16.6.81-1.59-3.5-10.92-4.33-13.78-4.67-16.06-8.18-33.33-13.31-49.14-3.06-9.42-2.48-13.04-13.78-12.49-18.11.88-38.21,9.69-56.23,12.48l20.39,79.53ZM304.55,733.49c-.88,2.35,2.06,5.55,1.65,7.31-.86,3.7-14.23,4.6-18.1,5.5-11.76,2.75-24.86,7.17-36.67,8.69-5.2.67-15.56,2.42-18.05-3.93-2.83-7.18,3.96-8.95,4.08-11.88l-20.37-78.66c-14.77,3.49-9.59,20.97-7.03,31.7,2.76,11.59,15.69,58.88,24.19,64.55,1.11.74,2.27,1.42,3.61,1.64,8.95,1.51,55.17-7.83,64.41-11.76,11.26-4.8,4.32-15.37,2.28-13.16ZM246.69,744.67c1.7-1.95,44.09-7.33,50.9-9.26,4-1.13,7.1-1.73,7.52-6.71l-2.08-1.65c-16.58,5.97-34.85,6.33-51.74,10.71-5.49,1.42-13.87,3.04-15.82,9.18-1.89,5.94,4.43,6.56,8.91,6.25,11.15-.79,44.07-6.97,54.54-10.54,2.78-.95,5.45-1.62,3.99-5.23l-1.96-1-53.15,10.14-1.11-1.89Z"/>
  <path d="M377.53,658.56c17.13-12.34,37.4,3.05,20.37,19.71,19.83,10.28.96,32.28-15.77,22.36-1.49,9.98-11.22,11.85-19.75,10.81l-4.57,18.11c9.53-8.62,25.12-16.93,36.56-7.19-5.62,17-23.85,20.82-39.78,21.07-2,15.21-7.8,11.3-2.98-1.39-6.7-3.43-12.91-6.56-17.35-12.94-3.32-4.78-11.37-23.14-1.71-24.5s21.31,12.62,22.63,21.66c1.35-3.46,5.12-12,4.61-15.41-.44-2.92-9.69-9.31-7.24-14.83-21.03,2.44-26.62-25.27-3.29-26.3-10.6-20.93,20.61-29.13,28.28-11.17ZM376.87,663.82c-1.61-11.33-16.79-17.37-24.67-8.55-6.19,6.93-.26,13.18,4.28,18.41-27.14-6.58-26.94,22.91-.65,20.38-3.51,18.25,23.53,20.87,24.33,3.29,19.87,11.29,36.8-11.17,11.83-19.73,6.01-4.36,11.38-3.95,9.81-13.42-2.06-12.42-19.53-8.65-24.92-.38ZM353.16,738.72c2.68-12.53-6.59-33.12-21.7-31.23-3.3,13.44,8.24,29.41,21.7,31.23ZM355.82,740.06h15.45c4.66,0,20.64-12.3,20.69-17.43-13.9-5.49-32.87,2.07-36.14,17.43Z"/>
  <path d="M300.28,283.9c10.81,14.41,21.18,25.02,40.14,26.96,2.4.25,4.12-1.2,6.89-.38,2.49.74,4.81,5.42,7.25,7.22,3.8,2.82,7.07,1.35,7.84,7.28,1.62,12.45-3.33,48.74-17.1,53.88-8.06,3.01-9.3-1.86-14.76-4.93s-18.14-8.99-23.85-6.71c-3.48,1.39-2.46,5.85-9.04,6.11s-10.53-5.22-16.92-5.11c-3.53.06-9.31,2.31-12.57,3.85-8.63,4.07-12.62,13.31-23.37,8.06-14.77-7.23-18.11-48.9-13.17-62.99,5.96-2.32,12.17-2.17,18.16-4.85,3.33-1.5,9.71-7.3,11.87-7.85,4.12-1.05,9.66.91,14.29.48,11.62-1.1,19.09-11.85,24.35-21.02ZM358.97,322.82c-.19-.21-3.64-1.3-5.06-2.5-2.07-1.73-6.61-7.26-8.57-7.86-2.86-.87-4.68.44-6.76.17-14.42-1.82-31.6-10.26-37.65-24.13-4.62,8.67-14.88,17.91-24.99,19.06-4.18.48-10.5-1.29-13.64-.49-2.48.63-7.79,5.93-11.02,7.39-5.69,2.58-12.03,2.43-17.82,4.53-1.74,13.65-1.85,52.15,12.75,59.04,9.24,4.36,11.65-3.11,18.26-7,5.39-3.17,16.87-6.91,22.76-4.43,3.86,1.63,5.2,5.57,10.76,4.45,11.03-2.22,3.76-19.71,1.3-26.36l2.6-.98c2.04,6.92,5.96,13.54,5.27,21.03,7.37-.22,15.48,1.74,21.9,5.39s10.83,11.76,18.86,4.13c4.45-4.23,7.49-13.47,8.89-19.38,1.14-4.82,4.67-29.22,2.17-32.07Z"/>
  <path d="M313.08,378.55c-2.11,16.97-23.73,16.05-32.21,4.26-.27-1.63,1.14-1.01,2-.68,2.31.88,5.07,4.63,7.39,5.76,8.26,4.01,18.55.09,20.78-8.94l2.03-.39Z"/>
  <path d="M242.41,543.53c-.4.08-1.52.66-1.66,1.12l.02,4.8c18.51-3.07,19.16,21.95-.03,18.11-2.94-.59-6.14-2.14-5.22-5.63,3.64-.96,11.44,2.72,13.65-1.14l.75-3.18c-1.22-6.16-12.37-.35-14.11-2.87l-.83-13.41c1.31-3.69,12.67-2.07,15.87-2.43l1.11,4.62c-2.83.39-6.91-.54-9.53,0Z"/>
  <path d="M231.56,523.15c11.18,3.64,18.94-1.1,5.95-8.28-.34-2.14,8.61-3.76,3.62-8.18-4.77-4.24-6.14,1.82-8.25,3-3.97,2.2-6.06-5.27.87-8.34,5.47-2.42,13.87-.48,14.02,6.46.05,2.37-2.18,4.82-1.68,6.36.67,2.02,5.14,1.52,3.73,8.51-1.74,8.64-19.06,10.13-18.25.48Z"/>
  <path d="M256.55,577.71l-5.9,27.14c-13.19,4.85,3.28-19.23.64-21.88-2.57-1-13.18,2.79-13.17-1.64-.15-1.83,5.21-3.61,6.26-3.61h12.16Z"/>
  <path d="M237.32,463.5c1.24,1.29,2.49,20.42,2.16,23.2-.24,2.07-.5,4.33-2.97,4.86-.69-.1-1.68-.28-2.16-.78-1.91-2.03-1.43-17.17-2.14-20.87l-4.18.6c-4.43-1.35,5.81-10.6,9.29-7.01Z"/>
  <path d="M112.57,628.33c6.4,4.19,12.05,7.03,19,1.58,3.18-2.49,2.93-7.55,5.98-4.52-2.71,10.54-21.39,14.11-24.98,2.94Z"/>
  <path d="M128.35,617.14c-1.13-1.12,7.82-7.37-2.16-11.32-1.9-.75-6.01-.02-5.73-2.48,10-1.32,20.05,7.56,7.89,13.8Z"/>
  <path d="M105.33,611.23c-5.38-.93-8.36-2.99-10.97,3.32l-2.82-.4c-1.55-5.46,13.37-10.55,13.79-2.92Z"/>
  <path d="M146.75,595.47l-1,2.63c-7.43-5.61-8.07,2.74-14.11,3.28,1.81-7.82,8.55-8.28,15.12-5.9Z"/>
  <path d="M97.44,592.16c-5.61-2.73-12.03,8.38-12.83,8.55-6.58,1.45,8.92-17,12.83-8.55Z"/>
  <path d="M139.32,577.91c.43.43,1.19,2.13.85,2.43-6.01-1.98-8.44-1.98-14.46,0-.39-5.5,11.09-4.95,13.6-2.43Z"/>
  <path d="M350.65,588.96c-.62,3.95,3.48,2.9,3.62,7.58.35,11.84-24.52,10.58-20.5-2.44.7-2.26,4.31-4,4.36-4.31.34-2.06-5.53-7.23-.3-12,8.25-7.54,25.91,4.62,12.83,11.17ZM348.43,580.5c-2.38-2.38-9.24.22-6.46,4.82,3.18,5.26,10.28-1,6.46-4.82ZM339.6,599.18c2.34,2.16,7.28,2.26,8.88-.91,1.33-10.34-15.39-5.09-8.88.91Z"/>
  <path d="M346.62,547.48c1.01,2.25,4.1.9,6.09,1.46,11.57,3.2,6.44,21.53-7.77,16.31-14.67-5.38-2.47-27.33,9.6-26.03l.65,1.98-8.57,6.28ZM347.1,552.86c-4.54,1.02-4.45,8.49,1.82,8.48,8.18-.02,5.47-10.11-1.82-8.48Z"/>
  <path d="M358.46,485.68l10.53.98.65,3.63c-5.94-.04-27.42,3.51-17.44-7.9,3.07-3.51,14.61-9.16,11.56-14.16-3.62-5.94-10.15,6.15-11.61.41-1.69-6.6,14.45-9.4,17.14-2.66,3.79,9.48-8.26,12.92-10.83,19.7Z"/>
  <path d="M361.08,517.24c7.63-.47,5.94,4.55-.65,3.95.86,10.26-6.83,10.29-5.23-.35l-11.43-1.08c-3.31-2.16,5.29-11.31,7.42-13.37,14.58-14.11,9.05-.44,9.88,10.85ZM349.91,516.57c7.07,2.81,6.35-2.54,6.56-7.88-1.23,1.17-7.48,6.44-6.56,7.88Z"/>
  <path d="M473.09,637.95c2.66,2.36,6.41,3.23,9.89,2.8,4.51-.55,6.93-4.07,10.91-5.19-3.09,8.76-16.35,10.55-22.7,3.96-1.23-1.28-4.25-5.09-1.95-6.58.69,0,3.01,4.26,3.85,5.01Z"/>
  <path d="M509.44,615.41c1.52,1.52,2.52,4.17,2.2,6.34-3.07.55-2.84-2.44-4.23-3.98-3.29-3.68-5.68-.03-9.58.03,1.81-5.03,7.87-6.12,11.61-2.39Z"/>
  <path d="M473.5,610.57c-4.02.4-2.27-5.11-6.41-5.81-1.92-1.97-8.01,7.26-7.27,2.33,1.25-8.31,14.48-5,13.68,3.48Z"/>
  <path d="M520.18,605.31c-3.38.54-3.21-3.53-5.29-4.89-2.39-1.56-6.61-.47-8.51-2.98,6.15-1.6,13.34.73,13.8,7.88Z"/>
  <path d="M484.68,612.55c-.36,3.17-6.93,1.84-8.22,4.6-1.36,2.91,1.58,5.16,1.33,7.88-8.29-5.87-1.2-13.63,6.89-12.48Z"/>
  <path d="M478.11,590.85c-4.73-2.72-7.36-1.75-12.24-1.38-.98.07-1.82.55-1.56-.9,1.45-3.6,13.94-3.29,13.8,2.29Z"/>
  <path d="M525.87,182.25c8.04,9.4,7.83,38.47-7.02,42.8-146.03,2.35-292.6.34-438.83,1.01-21.96-2.47-21.61-46.83-.66-49.3l435.92-.02c3.6.09,8.34,2.89,10.59,5.52ZM122.85,216.62c5.74-5.78,5.1-22.76-3.71-25.74-19.02-6.42-21.39,25.85-7.42,28.44,3.49.65,8.54-.1,11.12-2.7ZM147.4,197.13c3-8.38-11.15-8.5-14.75-4.56-7.18,7.88,1.94,15.77,10.05,16.48l-.5,4.74c-3.8,2.51-7.59-.47-11.23-1.54l.07,5.84c7.18,2.14,17.26,3.31,17.7-6.87.46-10.75-8.08-7.44-12.03-10.77-6.03-5.09,7.27-6.84,10.69-3.33ZM201.09,217.28c6.58-6.51,4.81-31.35-9.09-26.52-8.37,2.91-8.49,23.23-1.53,27.41,3.33,2,7.77,1.93,10.62-.89ZM477.22,190.16c-15.13.42-14.94,25.76-3.6,28.88,19.71,5.42,21.24-29.37,3.6-28.88ZM509.59,191.3c-6.97-1.9-16.41-2.15-16.41,7.48,0,10.84,12.62,7.05,12.61,12.49-.02,6.06-9,2.39-11.89.99l.07,5.84c7.66,2.69,18.07,2.51,17.7-8.13-.34-9.82-12.54-6.77-13.17-11.22-.77-5.38,8.37-3.78,11.17-1.62l-.07-5.84ZM89.55,190.56h-5.26v28.26h15.78v-4.6h-9.53l-.99-.99v-22.68ZM176.34,190.56c-5.54.31-12.44-.9-10.51,6.57l5.25-1.31v18.4h-5.26s0,4.6,0,4.6h15.78v-4.6s-5.26,0-5.26,0v-23.66ZM220.39,190.56v28.26h5.26v-20.38l5.7,15.14c5.18,1.65,5.84-8.36,7.92-12.39.44-.86-.4-1.81,1.49-1.43,1.13,3.35-1.34,16.01-.57,17.97s4.22.88,5.84,1.09v-27.28c-.64-1.43-7.38-1.23-7.81-.9-.63.48-4.1,13.17-5.01,15.04l-5.7-15.01-7.12-.12ZM272.98,218.82l-8.2-27.61-6.93-.32-8.54,27.94,5.85-.07,1.8-5.1,7.84-.14,2.35,5.22,5.83.08ZM276.27,190.56v28.26h5.26v-19.06c2.61,2.05,7.34,18.18,8.66,18.95,1.09.63,4.9-.2,6.46.12v-28.26h-5.26v19.06c-2.38-2.22-7.16-18.15-8.69-18.92-1.35-.68-4.73.16-6.43-.15ZM302.57,218.83h12.82c10.94,0,13.35-28.26-1.97-28.26h-9.86l-.99.99v27.28ZM341.92,190.66l-7.06-.02-7.96,28.19,5.88-.03c-1.13-7.75,11.93-7.44,11.96-.06l5.17.09-7.99-28.16ZM353.85,190.56v28.26h5.26v-19.72c3.23,2.48,3.47,14.53,7.56,14.53s4.31-11.3,6.9-13.87v19.06h5.92v-28.26l-7.58.64-5.24,14.49-5.24-14.49-7.58-.63ZM391.33,218.83v-27.28c-1.41-1.71-3.94-.81-5.92-.99v28.26h5.92ZM413.02,190.56h-15.78v28.26h16.44v-4.6h-10.52v-7.23h9.2v-5.26h-9.2v-5.92h9.86v-5.26ZM418.94,190.56v28.26h5.26v-18.4c3.86,3.11,5.68,15.1,8.22,17.75,1.33,1.39,5.08.37,6.91.66v-28.26h-5.26v18.4c-3.08-1.92-7.13-17.4-8.66-18.29-1.08-.63-4.9.2-6.46-.11ZM463.65,190.56h-21.04v5.26s7.89,0,7.89,0v23.01h5.92v-23.01h7.24s0-5.26,0-5.26Z" fill="#fff"/>
  <polygon points="361.74 35.44 371.49 35.55 382.78 61.07 382.78 35.44 390.67 35.44 390.67 74.22 380.81 74.22 369.63 48.59 369.63 74.22 361.74 74.22 361.74 35.44" fill="#fff"/>
  <path d="M346.62,35.44l11.17,38.78-8.45-.09-1.44-7.1-13.19.34-1.98,6.76-7.81.09,11.11-38.38,10.59-.4ZM345.3,59.75c-.46-1.2-3.31-14.63-4.59-13.8l-3.95,13.79h8.54Z" fill="#fff"/>
  <polygon points="298.62 35.44 320.32 35.44 320.32 42.67 306.51 42.67 306.51 49.9 319.66 49.9 319.66 57.79 306.51 57.79 306.51 66.99 320.98 66.99 320.98 74.22 298.62 74.22 298.62 35.44" fill="#fff"/>
  <path d="M499.9,358.74c8.46-1.24,16.11-4.57,22.15,3.82,4.45,6.18,5.41,10.71,1.03,17.24-5.15,7.67-13.54,7.98-21.88,6.23-2.38-.5-3.76-2.47-6.26-2.22-2.04.21-8.83,5.03-11.77,6.04-8.38,2.86-22.63,2.82-30.63-1.17-2.15-1.07-6.13-5.26-7.66-5.53-2.47-.44-8.38,3.14-12.56,3.24-29.16.69-22.56-41.76,6.35-32.15.94-26.08,46.68-31.59,57.23-10.21,2.3,4.67,2.31,9.89,4.01,14.72Z" fill="#fff"/>
  <path d="M402.83,108.4c9.65,1.43,11.32,16.42,2.96,20.39v1.29c5.46,2.95,6.14,11.57,9.18,16.78-.2,1.47-7.42-.17-9.09.23-2.69-5.46-3.03-15.67-11.27-14.37v14.46h-8.55v-38.78c5.19.55,11.77-.74,16.77,0ZM394.61,125.49c10.99,2.36,11.06-12,0-9.86v9.86Z" fill="#fff"/>
  <path d="M437.97,108.43l11.21,38.74h-8.54s-1.4-6.48-1.4-6.48l-12.62-.12-3.07,6.96-7.23-.37,11.22-37.74,10.44-1ZM433.4,118.91c-1.8-.27-1.01.23-1.33.97-.54,1.25-3.75,12.38-3.27,12.83h7.89s-3.29-13.8-3.29-13.8Z" fill="#fff"/>
  <path d="M194.63,108.52l11.95,38.66-8.47-.07-2.48-6.39-12.12.3-2.56,6.54-7.89-.38,11.92-38.68,9.66.03ZM194.08,132.71l-4.59-14.45-3.95,14.45h8.54Z" fill="#fff"/>
  <path d="M157.27,108.4v31.55h14.46v7.88c-.7.24-1.42-.65-1.64-.65h-20.71v-38.78h7.89Z" fill="#fff"/>
  <path d="M67.04,277.5c29.18-3.94,52.81,28.15,30.73,51.76-28.99,31.01-78.37-7.52-53.27-38.79,4.98-6.21,14.57-11.9,22.53-12.97ZM88.07,308.07c1.34-1.5,1-4.75-.48-6.11l-2.24-.26c-3.12,2.03,0,9.4,2.72,6.37ZM62.59,310.84c-.03-2.34.88-6.3-2.62-6.57l-.6,5.84,3.22.73ZM84.95,313.48c-2.95-.52-2.3,2.96-4.62,4.9-4.62,3.86-9.83,2.41-14.1-.97-3.03,1.28.32,3.47,1.83,4.09,6.16,2.54,17.73.65,16.9-8.02Z" fill="#fff"/>
  <path d="M337.32,108.49l11.27,39.34c-6.17-.24-9.18.22-9.78-6.84l-12.82-.43-2.36,6.31-7.91.3,11.21-38.74,10.39.06ZM336.1,132.72l-3.61-13.8c-1.42.17-3.54,11.78-4.27,13.79h7.89Z" fill="#fff"/>
  <polygon points="299.94 108.4 299.94 139.95 314.4 139.95 313.32 147.76 291.39 146.19 291.39 108.4 299.94 108.4" fill="#fff"/>
  <path d="M438.97,306.54c-.87.78-2.38,2.61-3.44,2.86-6.37,1.56-33.91-19.84-22.55-29.82,6.75-5.93,12.54,1.56,18.74,3.66,4.16-.42,4.39-13.02,15.3-8.7,13.35,5.29-1.54,26.17-8.05,31.99Z" fill="#fff"/>
  <path d="M156.61,45.3c-25.69-17.19-24.78,36.54,0,19.06l-.31,7.9c-36.55,16.94-35.27-52.43,0-34.85l.32,7.89Z" fill="#fff"/>
  <path d="M265.09,35.44c.67-.65,15.96-.13,17.8.28,9.21,2.07,9.3,16.69,1.27,20.42,5.52,4.08,7.09,11.89,9.2,18.07-1.85-.38-7.2.6-8.43-.11-2.54-1.47-3.2-17.33-11.29-14.35v13.47l-8.55.99v-38.78ZM273.64,52.53c10.7,2.17,10.86-12.29,0-9.86v9.86Z" fill="#fff"/>
  <path d="M521.5,304.93c-1.53,1.71-9.87-6.39-11.52-6.57-2.76-.31-7.39,3.8-10.83,2.63-.73-.66,3.39-8.91,3.32-10.87s-4.68-8-3.98-8.84c8.8-.25,12.15,2.08,17.08-6.92,3.59-2.12,3.06,7.06,5.24,9.25,1.97,1.97,6.57,1.59,8.58,3.93-.41,3.08-7.8,5.53-8.43,7.33-1.01,2.86,1.11,7.02.54,10.07Z" fill="#fff"/>
  <path d="M530.71,91.97c-4.28,1.64-8.48-5.59-10.89-5.94-2.7-.39-6.99,3.23-10.14,2.64-1.06-1.09,2.79-9.21,2.6-11.47-.25-2.95-5.06-5.19-3.92-8.9,3.21-.8,7.69,1.33,10.56.37,3.31-1.1,3.93-8.61,8.55-7.33.95.73,1.04,8.12,2.55,9.96,1.75,2.13,13.22,1.81,9.25,6.53-8.74,2.81-9.32,5-8.55,14.13Z" fill="#fff"/>
  <path d="M278.97,147.11l-1.42-6.47-13.46.61-1.73,5.83-7.79.1,11.62-38.81c2.59.51,8.53-1.12,9.95,1.14l11.26,37.29c-.55,2.23-6.58-.18-8.44.31ZM274.95,132.71l-4.59-14.45-3.3,14.46h7.89Z" fill="#fff"/>
  <path d="M167.71,266.24c1.97,3.2,4.35,8.96,8.34,9.73,2.59.5,5.74-1.08,7.51,1.68-7.23,5.21-5.16,9.28-3.28,16.76-7.68-1.21-11.37-5.78-17.7,1.71l-1.01.27c-2.26-.54-.08-8.02-.93-10.21-1.39-3.61-7.28-2.86-6.7-7.78.33-1.2,6.92-1.24,8.58-2.74,1.85-1.66,1.63-11.36,5.19-9.43Z" fill="#fff"/>
  <path d="M398.56,74.22v-38.78h16.11c17.8,0,18.5,38.78-.66,38.78h-15.45ZM406.45,43.66v22.35c17.94,5.79,18.15-28.13,0-22.35Z" fill="#fff"/>
  <path d="M353.19,147.18v-38.78h16.77c7.92,0,11.01,13.89,4.29,18.08,7.59,3.03,5.72,20.71-2.31,20.71h-18.74ZM361.08,115.63l.62,7.6c5.25,1.54,10.35-1.42,7.01-7.01l-7.63-.59ZM361.08,130.75v9.86l8.08-.62c5.2-7.77-.48-10.39-8.08-9.24Z" fill="#fff"/>
  <polygon points="208.55 35.44 208.55 66.99 223.02 66.99 223.02 74.22 200.01 74.22 200.01 35.44 208.55 35.44" fill="#fff"/>
  <path d="M176.88,34.29c23.6-1.05,24.2,45.2-3.34,40.43-16.77-2.9-17.35-39.52,3.34-40.43ZM175.49,42.16c-7.63,1.77-7.46,21.71-1.07,25.1,13.37,7.09,16.29-28.62,1.07-25.1Z" fill="#fff"/>
  <path d="M241.31,34.27c24.12-1.52,24.32,45.92-3.21,40.31-16.83-3.43-16.5-39.07,3.21-40.31ZM239.92,42.16c-6.92,2.07-7.15,22.07.02,25.34,13.01,5.92,15.07-29.85-.02-25.34Z" fill="#fff"/>
  <path d="M448.41,34.29c24.04-1.05,23.84,46.16-3.87,40.3-16.16-3.42-16.51-39.41,3.87-40.3ZM447.02,42.16c-8.03,1.89-8.08,26.1,2.37,25.93s11.22-29.13-2.37-25.93Z" fill="#fff"/>
  <path d="M234.19,134.03v13.15l-7.47.04c-.31-.1-1.08-2.1-1.08-2.34v-36.48h17.42c9.82,0,14.9,23.38-1.32,25.63-2.34.33-5.15-.22-7.56,0ZM234.19,126.8c12.82,3.08,12.86-14.06,0-11.17v11.17Z" fill="#fff"/>
  <path d="M65.22,404.85c-.42,2.86-4.08,3.02-4.96,5.87-1.22,3.96,1.55,6.28-.02,9.26-7.42-3.85-8.08-3.58-15.39-.02,1.22-8.03-1.01-9.04-5.93-14.12l8.9-3.61,2.29-5.93c4.13-.23,3.99,5.27,7.39,6.73,2.08.9,5.43.66,7.72,1.82Z" fill="#fff"/>
  <path d="M134.39,358.29c.26-.48,4.62-2.1,5.8-3.72.88-1.2,2.19-6.79,2.97-6.95,5.48,2.15,6.74,8.98,13.43,10.22-1.54,2.27-5.89,3.21-7.24,5.23-1.5,2.25-.53,7.43-2.9,7.59-3.86-.28-3.7-5.46-5.93-7.26-1.55-1.25-8.05-1.53-6.14-5.12Z" fill="#fff"/>
  <path d="M449.18,421.28c-1.5,6.27,10.34,7.57,9.25,11.43-.19.68-4.39,1.51-5.64,2.36-2.9,1.98-2.72,5.84-5.92,7.22-1.01-.12-2.63-6.18-3.7-7.45-1.68-2-5.07-1.82-4.54-5.32,5.97-.41,6.26-6.3,10.54-8.24Z" fill="#fff"/>
  <path d="M554.17,328.13c.38.45.86,1.19.57,1.8-5.2,2.26-5.81,7.5-9.9,10.48-2.44-4.93-3.05-6.96-8.19-9.58,3.56-3.58,5.8-5.03,7.55-10.12,1.97,2.48,8.5,5.68,9.97,7.43Z" fill="#fff"/>
  <path d="M240.11,738.75l-20.39-79.53c18.02-2.79,38.12-11.6,56.23-12.48,11.3-.55,10.72,3.07,13.78,12.49,5.13,15.81,8.64,33.08,13.31,49.14.83,2.86,5.14,12.19,4.33,13.78-1.57,3.09-59.76,13.98-67.25,16.6ZM261.8,663.81l-11.81,2.67,1.68,11.17-10.48,2.53c-1.35,1.58,1.1,11.02,2.17,11.59l11.85-1.66c.88.58,2.93,14.67,3.64,17.09.29.98,2.74,7.82,3.01,8.16,1.95,2.53,9.89-1.16,12.83-1.55l-5.57-24.62,10.44-4.35-3.39-11.07c-2.74-.89-10.34,2.61-12.08.57-.82-.96-1.85-10.17-2.29-10.53Z" fill="#fff"/>
  <path d="M304.55,733.49c2.03-2.21,8.97,8.37-2.28,13.16-9.23,3.93-55.46,13.27-64.41,11.76-1.34-.23-2.51-.91-3.61-1.64-8.5-5.67-21.43-52.96-24.19-64.55-2.55-10.72-7.74-28.21,7.03-31.7l20.37,78.66c-.12,2.93-6.9,4.71-4.08,11.88,2.5,6.34,12.85,4.6,18.05,3.93,11.81-1.53,24.91-5.95,36.67-8.69,3.87-.91,17.24-1.8,18.1-5.5.41-1.76-2.53-4.95-1.65-7.31Z" fill="#fff"/>
  <path d="M246.69,744.67l1.11,1.89,53.15-10.14,1.96,1c1.47,3.61-1.21,4.29-3.99,5.23-10.47,3.57-43.39,9.75-54.54,10.54-4.48.32-10.79-.3-8.91-6.25,1.95-6.15,10.33-7.76,15.82-9.18,16.88-4.38,35.15-4.74,51.74-10.71l2.08,1.65c-.42,4.98-3.52,5.58-7.52,6.71-6.81,1.93-49.21,7.3-50.9,9.26Z" fill="#fff"/>
  <path d="M376.87,663.82c5.39-8.27,22.87-12.05,24.92.38,1.57,9.47-3.8,9.06-9.81,13.42,24.97,8.56,8.04,31.02-11.83,19.73-.79,17.58-27.84,14.96-24.33-3.29-26.29,2.53-26.49-26.96.65-20.38-4.55-5.22-10.47-11.48-4.28-18.41,7.88-8.82,23.06-2.78,24.67,8.55ZM370.8,669.87c-12.48.95-13.18,18.73-.69,20.73,16.04,2.57,18.93-22.12.69-20.73Z" fill="#fff"/>
  <path d="M353.16,738.72c-13.46-1.81-25.01-17.79-21.7-31.23,15.12-1.89,24.39,18.69,21.7,31.23Z" fill="#fff"/>
  <path d="M355.82,740.06c3.27-15.37,22.24-22.92,36.14-17.43-.05,5.13-16.03,17.43-20.69,17.43h-15.45Z" fill="#fff"/>
  <path d="M358.97,322.82c2.51,2.85-1.03,27.25-2.17,32.07-1.4,5.91-4.44,15.15-8.89,19.38-8.02,7.64-12.39-.45-18.86-4.13s-14.53-5.61-21.9-5.39c.7-7.5-3.23-14.12-5.27-21.03l-2.6.98c2.46,6.65,9.73,24.15-1.3,26.36-5.56,1.12-6.9-2.82-10.76-4.45-5.89-2.48-17.37,1.26-22.76,4.43-6.61,3.89-9.01,11.36-18.26,7-14.6-6.89-14.49-45.39-12.75-59.04,5.79-2.11,12.13-1.95,17.82-4.53,3.23-1.47,8.54-6.76,11.02-7.39,3.14-.8,9.47.97,13.64.49,10.1-1.15,20.36-10.39,24.99-19.06,6.05,13.87,23.23,22.31,37.65,24.13,2.08.26,3.91-1.05,6.76-.17,1.96.6,6.5,6.12,8.57,7.86,1.43,1.2,4.88,2.29,5.06,2.5ZM318.35,325.97h10.19c3.7,0,9.7,7.35,11.82,7.26,3.1-.14-1.36-4.11-1.94-4.64-4.33-3.97-10.52-6.07-16.41-5.2-.61.09-5.24,1.67-3.66,2.58ZM275.61,326.62l-1.09-2.52c-5.5-.32-9.95-.66-14.89,1.98-1.93,1.03-6.95,4.26-4.05,6.45.82.15,7.53-5.91,9.85-5.91h10.19ZM278.24,350.28c-.89-6.74-8.88-9.02-14.4-6.18-1.46.75-7.07,7.31-3.69,6.83,2.04-.54,2.72-2.98,4.04-3.85,6.96-4.57,12.7,4.52,14.05,3.2ZM333.26,345.89c-3.32-3.66-11.84-4.08-15.27-.23-1.53,1.72-2.91,4.68.57,4.53,3.68-3.4,5.42-6.42,10.9-3.46,2.4,1.3,2.98,4.93,5.97,4.87.49-.52-1.58-5.06-2.17-5.71Z" fill="#fff"/>
  <path d="M339.6,599.18c-6.51-6,10.21-11.26,8.88-.91-1.6,3.18-6.54,3.07-8.88.91Z" fill="#fff"/>
  <path d="M348.43,580.5c3.82,3.82-3.28,10.08-6.46,4.82-2.78-4.6,4.08-7.19,6.46-4.82Z" fill="#fff"/>
  <path d="M347.1,552.86c7.29-1.64,10,8.46,1.82,8.48-6.27.01-6.36-7.46-1.82-8.48Z" fill="#fff"/>
  <path d="M349.91,516.57c-.92-1.44,5.33-6.71,6.56-7.88-.21,5.34.51,10.69-6.56,7.88Z" fill="#fff"/>
  <path d="M353.85,190.56l7.58.63,5.24,14.49,5.24-14.49,7.58-.64v28.26h-5.92v-19.06c-2.59,2.57-2.94,13.88-6.9,13.87s-4.33-12.05-7.56-14.53v19.72h-5.26v-28.26Z"/>
  <path d="M220.39,190.56l7.12.12,5.7,15.01c.91-1.87,4.38-14.56,5.01-15.04.43-.33,7.17-.53,7.81.9v27.28c-1.62-.2-5.11.78-5.84-1.09-.76-1.97,1.7-14.62.57-17.97-1.89-.38-1.05.57-1.49,1.43-2.08,4.04-2.75,14.04-7.92,12.39l-5.7-15.14v20.38h-5.26v-28.26Z"/>
  <path d="M302.57,218.83v-27.28l.99-.99h9.86c15.32,0,12.91,28.26,1.97,28.26h-12.82ZM309.14,214.22c12.91.81,12.49-20.07,0-18.4v18.4Z"/>
  <path d="M418.94,190.56c1.56.31,5.38-.51,6.46.11,1.52.89,5.58,16.37,8.66,18.29v-18.4h5.26v28.26c-1.82-.29-5.58.73-6.91-.66-2.54-2.65-4.36-14.64-8.22-17.75v18.4h-5.26v-28.26Z"/>
  <path d="M276.27,190.56c1.71.31,5.08-.53,6.43.15,1.53.76,6.31,16.7,8.69,18.92v-19.06h5.26v28.26c-1.56-.31-5.37.51-6.46-.12-1.32-.77-6.05-16.9-8.66-18.95v19.06h-5.26v-28.26Z"/>
  <path d="M122.85,216.62c-2.59,2.6-7.63,3.35-11.12,2.7-13.97-2.58-11.6-34.85,7.42-28.44,8.81,2.97,9.45,19.95,3.71,25.74ZM111.44,196.02c-3.52,2.75-3.96,19.89,3.95,18.74,8.9-1.29,5.46-26.1-3.95-18.74Z"/>
  <path d="M477.22,190.16c17.64-.49,16.11,34.3-3.6,28.88-11.34-3.12-11.53-28.46,3.6-28.88ZM475.96,195.29c-6.03,1.37-5.9,19.78,1.72,19.39,7.94-.41,8.16-21.63-1.72-19.39Z"/>
  <path d="M341.92,190.66l7.99,28.16-5.17-.09c-.03-7.38-13.09-7.69-11.96.06l-5.88.03,7.96-28.19,7.06.02ZM341.33,208.27l-3.25-10.48-2.63,11.17,5.88-.69Z"/>
  <path d="M272.98,218.82l-5.83-.08-2.35-5.22-7.84.14-1.8,5.1-5.85.07,8.54-27.94,6.93.32,8.2,27.61ZM263.78,208.97c.77-.77-1.83-10.05-3.28-11.18l-2.56,10.14c.54,1.72,4.43.88,5.84,1.04Z"/>
  <path d="M201.09,217.28c-2.85,2.82-7.29,2.89-10.62.89-6.96-4.18-6.84-24.5,1.53-27.41,13.9-4.83,15.67,20.02,9.09,26.52ZM192.93,214.07c6.5,6.69,8.01-18.16,2.78-18.9-5.96-.84-4.58,15.38-2.78,18.9Z"/>
  <polygon points="413.02 190.56 413.02 195.82 403.16 195.82 403.16 201.74 412.36 201.74 412.36 206.99 403.16 206.99 403.16 214.22 413.68 214.22 413.68 218.83 397.24 218.83 397.24 190.56 413.02 190.56"/>
  <path d="M147.4,197.13c-3.43-3.52-16.73-1.76-10.69,3.33,3.95,3.33,12.49.02,12.03,10.77-.44,10.18-10.52,9.02-17.7,6.87l-.07-5.84c3.64,1.07,7.43,4.05,11.23,1.54l.5-4.74c-8.11-.72-17.23-8.61-10.05-16.48,3.6-3.95,17.75-3.83,14.75,4.56Z"/>
  <path d="M509.59,191.3l.07,5.84c-2.8-2.16-11.94-3.76-11.17,1.62.64,4.45,12.83,1.4,13.17,11.22.37,10.64-10.04,10.81-17.7,8.13l-.07-5.84c2.89,1.4,11.87,5.07,11.89-.99.02-5.45-12.61-1.65-12.61-12.49,0-9.63,9.44-9.38,16.41-7.48Z"/>
  <polygon points="463.65 190.56 463.65 195.82 456.41 195.82 456.41 218.83 450.5 218.83 450.5 195.82 442.6 195.82 442.61 190.56 463.65 190.56"/>
  <path d="M176.34,190.56v23.66h5.26s0,4.6,0,4.6h-15.78v-4.6s5.26,0,5.26,0v-18.4l-5.25,1.31c-1.92-7.47,4.98-6.26,10.51-6.57Z"/>
  <polygon points="89.55 190.56 89.55 213.24 90.54 214.22 100.07 214.22 100.07 218.83 84.29 218.83 84.29 190.56 89.55 190.56"/>
  <path d="M391.33,218.83h-5.92v-28.26c1.98.18,4.51-.72,5.92.99v27.28Z"/>
  <path d="M345.3,59.75h-8.54s3.95-13.8,3.95-13.8c1.28-.84,4.13,12.59,4.59,13.8ZM342.67,57.78l-1.96-4.59-1.3,3.62,3.26.97Z"/>
  <path d="M394.61,125.49v-9.86c11.06-2.14,10.99,12.22,0,9.86ZM400.44,118.35l-3.55-.12-.3,5.29,3.84-.76v-4.41Z"/>
  <path d="M433.4,118.91l3.29,13.8h-7.89c-.48-.46,2.73-11.58,3.27-12.83.32-.74-.47-1.24,1.33-.97ZM434.06,130.74l-1.96-5.25-.66,5.25h2.62Z"/>
  <path d="M194.08,132.71h-8.54s3.95-14.45,3.95-14.45l4.59,14.45ZM191.46,130.74l-1.96-5.25c-.61,2.99-2.22,6.13,1.96,5.25Z"/>
  <path d="M84.95,313.48c.83,8.67-10.74,10.56-16.9,8.02-1.51-.62-4.86-2.81-1.83-4.09,4.27,3.38,9.48,4.83,14.1.97,2.32-1.94,1.67-5.42,4.62-4.9Z"/>
  <path d="M88.07,308.07c-2.72,3.03-5.83-4.34-2.72-6.37l2.24.26c1.48,1.35,1.82,4.61.48,6.11Z"/>
  <path d="M62.59,310.84l-3.22-.73.6-5.84c3.5.27,2.59,4.23,2.62,6.57Z"/>
  <path d="M336.1,132.72h-7.89c.74-2.02,2.85-13.63,4.27-13.8l3.61,13.8ZM333.47,130.74l-.98-4.59c-1.75,2.44-3.11,5.49.98,4.59Z"/>
  <path d="M273.64,52.53v-9.86c10.86-2.44,10.7,12.03,0,9.86ZM279.45,45.4c-.3-.49-3.1-1.07-3.88-.49l-.62,4.99,3.99-.29c.77-.54.93-3.53.51-4.21Z"/>
  <path d="M274.95,132.71h-7.89s3.3-14.45,3.3-14.45l4.59,14.45ZM272.32,130.74l-1.96-5.25-1.32,5.25h3.28Z"/>
  <path d="M406.45,43.66c18.15-5.78,17.94,28.13,0,22.35v-22.35ZM408.42,64.36c13.07,1.53,12.71-21.09,0-19.06v19.06Z"/>
  <path d="M361.08,130.75c7.6-1.16,13.28,1.46,8.08,9.24l-8.08.62v-9.86ZM363.05,137.98c2.41-.17,6.1,1.08,5.98-2.3-.15-3.5-3.27-3.08-5.98-2.96v5.26Z"/>
  <path d="M361.08,115.63l7.63.59c3.34,5.59-1.76,8.55-7.01,7.01l-.62-7.6ZM367.66,120.88l-.62-2.99-3.99-.29v3.29s4.61,0,4.61,0Z"/>
  <path d="M175.49,42.16c15.22-3.52,12.3,32.2-1.07,25.1-6.39-3.39-6.56-23.34,1.07-25.1ZM176.16,44.12c-6.81,2.89-6.19,22.67,2.34,21.43,7.69-1.11,7.05-24.2-2.34-21.43Z"/>
  <path d="M239.92,42.16c15.1-4.51,13.04,31.26.02,25.34-7.18-3.27-6.94-23.27-.02-25.34ZM238.98,64.17c9.22,8.58,13.81-18.24,4.58-20.07s-8.21,16.7-4.58,20.07Z"/>
  <path d="M447.02,42.16c13.6-3.2,12.95,25.76,2.37,25.93s-10.4-24.04-2.37-25.93ZM452.91,45.51c-9.48-9.49-14.13,19.28-3.9,20.04,7.46.56,7.59-16.35,3.9-20.04Z"/>
  <path d="M234.19,126.8v-11.17c12.86-2.88,12.82,14.25,0,11.17ZM236.16,124.18c3.9.56,7.49-.58,5.31-4.98l-5.3-1.6v6.58Z"/>
  <path d="M261.8,663.81c.44.36,1.47,9.56,2.29,10.53,1.74,2.04,9.34-1.46,12.08-.57l3.39,11.07-10.44,4.35,5.57,24.62c-2.95.4-10.89,4.09-12.83,1.55-.27-.34-2.72-7.18-3.01-8.16-.71-2.42-2.76-16.51-3.64-17.09l-11.85,1.66c-1.07-.57-3.53-10-2.17-11.59l10.48-2.53-1.68-11.17,11.81-2.67ZM263.78,677.62l-3.27-10.87-7.88.38c1.27,10.18,3.99,14.77-9.24,14.43-.48,11.63,4.91,7.14,13.05,7.33l6.68,24.87c2.47-.44,9.97.6,9.86-2.89-.03-.88-3.22-9.1-3.76-11.42-.48-2.03-2.55-11.65-2.2-12.85l9.15-2.51c.24-1.88-.17-7.8-2.28-8.29l-10.11,1.81Z"/>
  <path d="M370.8,669.87c18.24-1.38,15.36,23.31-.69,20.73-12.49-2-11.8-19.79.69-20.73ZM370.11,672.52c-8.8,1.74-8.28,18.33,4.31,15.47,10.24-2.32,8.6-18.03-4.31-15.47Z"/>
  <path d="M333.26,345.89c.59.65,2.66,5.19,2.17,5.71-2.99.06-3.57-3.57-5.97-4.87-5.48-2.96-7.23.06-10.9,3.46-3.48.15-2.1-2.81-.57-4.53,3.43-3.85,11.95-3.43,15.27.23Z"/>
  <path d="M318.35,325.97c-1.58-.92,3.05-2.49,3.66-2.58,5.89-.87,12.08,1.23,16.41,5.2.58.53,5.04,4.5,1.94,4.64-2.12.09-8.11-7.26-11.82-7.26h-10.19Z"/>
  <path d="M275.61,326.62h-10.19c-2.32,0-9.03,6.07-9.85,5.91-2.9-2.2,2.12-5.42,4.05-6.45,4.95-2.65,9.4-2.3,14.89-1.98l1.09,2.52Z"/>
  <path d="M278.24,350.28c-1.35,1.32-7.09-7.77-14.05-3.2-1.32.87-2,3.31-4.04,3.85-3.39.47,2.23-6.09,3.69-6.83,5.53-2.84,13.51-.56,14.4,6.18Z"/>
  <path d="M309.14,214.22v-18.4c12.49-1.67,12.91,19.21,0,18.4Z" fill="#fff"/>
  <path d="M111.44,196.02c9.4-7.35,12.84,17.46,3.95,18.74-7.91,1.14-7.46-15.99-3.95-18.74Z" fill="#fff"/>
  <path d="M475.96,195.29c9.88-2.24,9.66,18.98,1.72,19.39-7.62.39-7.75-18.02-1.72-19.39Z" fill="#fff"/>
  <polygon points="341.33 208.27 335.45 208.96 338.08 197.8 341.33 208.27" fill="#fff"/>
  <path d="M263.78,208.97c-1.41-.16-5.31.68-5.84-1.04l2.56-10.14c1.45,1.13,4.05,10.41,3.28,11.18Z" fill="#fff"/>
  <path d="M192.93,214.07c-1.8-3.52-3.19-19.75,2.78-18.9,5.23.74,3.72,25.59-2.78,18.9Z" fill="#fff"/>
  <polygon points="342.67 57.78 339.41 56.81 340.71 53.19 342.67 57.78" fill="#fff"/>
  <polygon points="400.44 118.35 400.43 122.76 396.59 123.52 396.89 118.23 400.44 118.35" fill="#fff"/>
  <polygon points="434.06 130.74 431.43 130.74 432.1 125.49 434.06 130.74" fill="#fff"/>
  <path d="M191.46,130.74c-4.18.88-2.57-2.27-1.96-5.25l1.96,5.25Z" fill="#fff"/>
  <path d="M333.47,130.74c-4.09.9-2.73-2.15-.98-4.59l.98,4.59Z" fill="#fff"/>
  <path d="M279.45,45.4c.42.69.26,3.67-.51,4.21l-3.99.29.62-4.99c.78-.58,3.58,0,3.88.49Z" fill="#fff"/>
  <polygon points="272.32 130.74 269.04 130.74 270.36 125.49 272.32 130.74" fill="#fff"/>
  <path d="M408.42,64.36v-19.06c12.71-2.03,13.07,20.59,0,19.06Z" fill="#fff"/>
  <path d="M363.05,137.98v-5.26c2.71-.12,5.83-.53,5.98,2.96.12,3.38-3.57,2.13-5.98,2.3Z" fill="#fff"/>
  <polygon points="367.66 120.88 363.05 120.89 363.05 117.6 367.04 117.89 367.66 120.88" fill="#fff"/>
  <path d="M176.16,44.12c9.39-2.76,10.04,20.32,2.34,21.43-8.53,1.23-9.15-18.54-2.34-21.43Z" fill="#fff"/>
  <path d="M238.98,64.17c-3.62-3.37-4.21-21.82,4.58-20.07s4.64,28.65-4.58,20.07Z" fill="#fff"/>
  <path d="M452.91,45.51c3.69,3.7,3.56,20.6-3.9,20.04-10.23-.76-5.59-29.53,3.9-20.04Z" fill="#fff"/>
  <path d="M236.16,124.18v-6.58s5.31,1.6,5.31,1.6c2.19,4.4-1.41,5.55-5.31,4.98Z" fill="#fff"/>
  <path d="M263.78,677.62l10.11-1.81c2.11.49,2.52,6.41,2.28,8.29l-9.15,2.51c-.35,1.2,1.72,10.82,2.2,12.85.54,2.32,3.73,10.54,3.76,11.42.12,3.49-7.38,2.46-9.86,2.89l-6.68-24.87c-8.15-.19-13.54,4.29-13.05-7.33,13.23.34,10.51-4.25,9.24-14.43l7.88-.38,3.27,10.87Z" fill="#fff"/>
  <path d="M370.11,672.52c12.91-2.55,14.55,13.15,4.31,15.47-12.58,2.85-13.11-13.73-4.31-15.47Z" fill="#fff"/>
</svg>