<?xml version="1.0" encoding="UTF-8"?>
<svg id="Camada_1" xmlns="http://www.w3.org/2000/svg" version="1.1" viewBox="0 0 595.28 841.89">
  <!-- Generator: Adobe Illustrator 29.0.0, SVG Export Plug-In . SVG Version: 2.1.0 Build 186)  -->
  <path d="M.14,841.29V-.06h595v841.34H.14ZM590.54,3.89H4.08v833.46h586.45V3.89Z"/>
  <rect x=".14" y="841.29" width="595" height=".66" fill="#fff"/>
  <path d="M590.54,3.89v833.46H4.08V3.89h586.45ZM276.69,183.57c-29.57-27.36-76.52-36.05-115.8-32.43-64.51,5.94-113.39,56.61-118.71,120.58v428.61s2.66,7.53,2.66,7.53c-9.8.82-12.69,16.03-13.14,24.01-.94,16.64,3.19,27.86,21.33,29.26h487.89c13.54-1.22,21.92-6.77,22.68-20.7.53-9.73-.3-23.67-7.56-30.63-1.54-1.47-3.24-1.96-4.99-2.96l2.69-9.14v-423.36c-5.63-69.22-58.37-120.95-128.54-123.9-47.74-2.01-93.1,11.08-120.24,52.13-2.11,3.19-3.98,6.65-5.04,10.34-1.53.34-1.05-.21-1.46-.84-6.92-10.67-12.04-19.5-21.77-28.5Z" fill="#fff"/>
  <path d="M276.69,183.57c9.73,9,14.85,17.82,21.77,28.5.41.64-.06,1.18,1.46.84,1.06-3.69,2.93-7.15,5.04-10.34,27.14-41.05,72.5-54.14,120.24-52.13,70.17,2.95,122.91,54.68,128.53,123.9v423.36s-2.69,9.14-2.69,9.14c1.76,1,3.46,1.49,4.99,2.96,7.26,6.96,8.1,20.89,7.56,30.63-.76,13.93-9.14,19.47-22.68,20.7H53.04c-18.14-1.41-22.27-12.63-21.33-29.27.45-7.97,3.34-23.18,13.14-24.01l-2.66-7.53v-428.61c5.32-63.96,54.2-114.64,118.71-120.58,39.27-3.62,86.23,5.08,115.8,32.43ZM53.06,705.88h237.67l-.68-430.83c8.14-57.46-33.59-108.8-89.93-117.8-80.06-12.8-148.95,40.05-153.34,120.37l.45,422.86c.45,3.33,2.64,4.98,5.83,5.4ZM295.99,705.88h245.56c2.87,0,6.91-4.32,6.27-7.53v-423.36c-7.16-88.94-83.22-132.88-167.81-115.79-30.93,6.25-54.51,20.97-71.15,47.84-16.17,26.11-12.7,43.42-12.85,72.54-.61,118.13-.84,236.71,0,355.6.17,23.58-.29,47.13-.03,70.69ZM245.7,168.87v.66l.33-.33-.33-.33ZM282.42,198.21c-5.58-7.07-9.06-11.26-16.37-16.83-5.88-4.48-12.46-8.86-19.36-11.53,21.38,14.32,38.09,36.03,45.36,60.8l4.48-11.33c-3.36-5.03-5.87-10.73-9.33-15.7-1.55-2.22-3.43-3.69-4.78-5.41ZM39.8,750.37c3.4,4.32,10.65,5.77,15.87,6.15h483.28c8.73-1.19,15.68-1.55,18.39-11.19,2.5-8.87,1.43-35.53-12.48-34.87H51.73c-10.22.75-13.99,10.43-14.76,19.43-.43,5.06-.34,16.46,2.83,20.49Z"/>
  <path d="M295.99,705.88c-.25-23.56.2-47.11.03-70.69-.85-118.89-.62-237.48,0-355.6.15-29.13-3.32-46.44,12.85-72.54,16.64-26.87,40.22-41.59,71.15-47.84,84.59-17.09,160.65,26.85,167.82,115.79v423.36c.63,3.21-3.41,7.53-6.28,7.53h-245.56ZM326.24,220.13c.52-2.91,9.74-3.77,7.59-7.24-3.87-3.09-10.92,3.41-11.89,7.23-.9,3.56-.89,10.51,2.82,12.48,13.52,7.2,18.91-17.3,1.48-12.47ZM356.48,215.21c-.23,5.79.17,11.63,0,17.42l3.25.64c-.09-.6.69-1.39.69-1.62v-11.5c.95,1.38,3.16,3.34,3.95,4.45,1.68,2.39,4.01,9.56,7.41,8.59.47-.13,1.79-1.32,1.79-1.54v-19.39c-.97-.42-3.94-1.06-3.94.33v12.82c-2.12-1.96-8.53-16.29-12.52-13.52-1.33.93-.59,2.52-.63,3.33ZM389.35,212.26c-2.96.74-7.56-1.06-9.58,1.26-1.61,1.85-1.39,3.06,1.18,3.16,3.87.14,8.78,1.08,8.4-4.42ZM389.83,219.01c-3.99-3.22-14.62-.09-12.26,3.7,1.24,1.98,7.33-3.02,9.8-.59-1.43,1.79-4.62,1.32-6.7,2.16-6.6,2.67-3.68,9.91,2.38,9.62,2.19-.1,4.26-2.13,7.16-.72l1.17-.83c1.53-2.02.73-11.5-1.55-13.35ZM409.38,221.82c-6.41-9.09-19.18-1.99-14.61,7.7s19.39,1.71,15.58-6.89c-.21-.47-.79-.57-.96-.81ZM344.65,228.03c-1.48.06-3.23-.32-4.6.33-5.01,2.37,5.99,9.21,4.6-.33ZM414.34,241.5v19.06l1.65,1.03c4.89.57-.66-12.59,6.55-11.88,5.1.5-.45,12.48,4.62,11.88l1.65-1.03v-11.17c0-.15-1.52-2.1-1.81-2.31-3.04-2.27-5.5-.66-8.71.01-.23-2.27,1.15-7.02-2.3-6.61l-1.65,1.03ZM378.83,260.56c.5-1.69,0-8.72,0-11.17,0-1.68-3.38-3.49-5.02-3.59-2.71-.17-3.92,1.74-5.28,1.82-1.02.06-2.49-1.56-3.99-1.71-1.99-.2-5.31,1.76-8.07.53v14.13c6.2,3.84,2.77-7.45,4.52-9.8l4.02-1.05,1.29,11.56c7.39,2-.93-14.72,7.83-10.49l.42,9.46c.87,1.14,3.78,1.99,4.28.33ZM395.93,260.56c.48-1.59,0-8.2,0-10.52,0-4.11-12.27-6.36-13.7-1.18-1.5,5.46,5.47.23,8.11,1.11l.98,1.71c-4.89-1.13-12.72,2.48-9.13,8.15,1.97,3.12,6.71,1.22,9.46,1.05,1.17-.07,3.72,1.52,4.28-.33ZM398.97,256.53c.59,1.14.63,2.36,1.54,3.41,4.17,4.84,14.78.68,11.93-2.69-2.68-3.17-4.45,2.45-7.97.7-1.78-.89-1.89-6.04-.66-7.24,2.65-2.57,5.31,1.64,7.48.94,4.18-1.35-2.64-9.12-9.68-4.46-.72.48-3.78,4.48-3.97,5.26-.86,3.54.68,2.84,1.33,4.09ZM446.55,260.56v-13.15c0-.97-3-1.39-3.99-.7-1.96,1.37,2.05,13.77-5.87,10.89v-9.53c0-2.28-4.58-2.33-5.17-.57-1.1,3.34-.28,11.6,3.22,13.67s4.22.08,6.84-.21c1.39-.15,3.63,1.72,4.97-.41ZM460.35,260.9c.22,2.26-1.14,7.03,2.3,6.61.79-.02,1.3-.36,1.55-1.13.31-.97.82-9.47.8-11.1-.03-2.71-.91-5.5-.99-8.23-8.58-1.23-16.8-2.33-14.79,9.53.89,5.26,6.85,5.84,11.13,4.31ZM468.25,247.42v10.52c0,6.18,10.21,2.66,13.75,3.55.74-2.74,1.66-13.44-.6-14.73-6.39-3.66-2.24,8.91-5.56,10.9l-1.89.54c-4.12-1.03.84-12.38-4.07-11.8l-1.65,1.03ZM489.29,255.63h9.86c2.97-13.99-18.34-11.57-13.96,1.79,1.56,4.76,7.74,6.02,11.8,3.61,1.43-.85,3.21-2.87,1.08-4.04-3.28.2-5.38,1.98-8.78.58v-1.95ZM374.67,268.89c-2.24.77-2.02,4.29,1.19,4.56,4.87.41,3.88-6.31-1.19-4.56ZM443.73,268.85c-1.11.25-3.24,3.4-4.4,4.2,1.35,3.52,8.14-.38,6.93-2.94-.64-.85-1.35-1.53-2.53-1.25ZM356.48,277.65c-.27,3.91.2,7.91,0,11.83l1.65,1.03c4.52.53.5-8.1,3.64-10.86l4.13-.41c2.75,1.8-.74,9.94,1.17,11.16,4.68,2.98,5.77-11.69,1.5-14.31s-6.44.48-8.46.32c-1.39-.11-3.33-3.06-3.63,1.24ZM391.98,290.47c5.82,2.54,4.46-11,2.95-13.13-3.36-4.72-7.37-.78-9.18-.92-.25-.02-4.29-2.23-4.29.58v12.49l1.65,1.03c4.04.47,1.25-6.84,3.17-9.7.23-.34,2.95-2.19,3.4-2.2.69-.08,2.3,1.38,2.3,1.66v10.19ZM378.83,288.83c.51-3,0-8.47,0-11.83,0-1.66-5.26-2.36-5.26-.66v12.49c0,1.11,4.71,3.27,5.26,0ZM408.83,292.17c-4.35,2.2-7.99-2.87-8.91.03-1.66,5.26,13.21,8.31,14.43-1.38.25-2.01.32-12.15-.15-13.68-.24-.79-.85-1.4-1.63-1.68-4.7,1.22-8.83-2.24-12.35,2.55-.95,1.29-.58,2.94-2.3,3.73v1.71c1.9.94,1.53,3.12,2.7,4.65,3.23,4.23,9.1,1.19,9.77,1.73.48.77-1.21,2.18-1.56,2.35ZM422.23,276.67c-.88-.35-4.6-2.34-4.6-.33v11.83c0,.38,2.68,2.76,3.64,2.94,3.39.67,4.87-1.29,6.54-1.33.34,0,0,1.8,1.97,1.38.55-.12,1.66-.54,1.66-1.02v-13.8c-5.46-3.43-3.46,5-3.98,7.85-.8,4.37-5.22,4.13-5.22,2.01v-9.53ZM439.32,285.21h9.53c5.38-11.29-13.89-14.41-14.15-2.27-.23,10.52,13.35,9.61,14.39,5.78-.33-5.72-8.66,3.03-9.77-3.51ZM451.81,277c-.54,1.89,0,9.18,0,11.83,0,.18.61,1.22.84,1.46,1.55,1.35,2.8.31,4.27-.62.64-2.41-1.13-10,2.46-10.41l2.29,1.02v10.19c8.12,2.92-.38-15.16,9.03-10.22-.85,3.88-1.82,12.29,4.12,10.22v-11.5c0-3.36-4.71-4.11-7.42-3.48-1.14.26-2.34,1.65-2.77,1.65-.4,0-1.81-1.55-3.34-1.77-2.56-.36-4.99,1.16-7.71.09-.45.1-1.68,1.21-1.77,1.54ZM478.21,285.97c-2.05,1.29-.07,7.14,3.85,4.84,3.53-2.07-.73-6.81-3.85-4.84ZM391.49,319.88c3.04,2.96,6.92-2.8,2.48-4.16-2.89-.89-3.99,2.7-2.48,4.16ZM425.51,326.29c.71,2.18-.52,7.85,0,10.52,1.23,1.64,3.38,1.36,4.14-.52.54-4.05-2.51-11.86,3.79-11.27l.62-3-4.59-.98c.99-2.68,2.33-2.03,4.6-2.68l-.02-2.92c-3.33-.18-6.85-.34-8.26,3.26-.39,1-.04,2.74-.41,3.21-.24.31-2.17.14-2.51,1.1-.72,2,2.37,2.5,2.63,3.28ZM439.88,316.21c-1.5-2.43-6.93,1.18-3.56,3.91,2.56,2.08,5.04-1.52,3.56-3.91ZM337.09,316.11c-1.59-.52-10.27,0-12.82,0v3.94h9.2c.22,3.82-6.6,12.85-6.58,15.48.01,1.92,3.45,2.69,4.91.93.58-.7,6.55-16.12,6.67-17.05.13-1.05-.41-2.99-1.38-3.31ZM356.67,318.27c-1.26,1.67-1.22,5.53-.12,7.3,2.2,3.55,10.79,2.55,10.22,6.66-.47,3.39-8.28,1.14-9.96-1.02-3.89,1.14-1.68,3.79.75,5.18,4.14,2.35,12.52,2.17,13.35-3.57,1.28-8.83-11.59-8.26-11.14-11.1,2.83-3.67,6.2-.77,9.49.3,4.21-6.45-9.62-7.68-12.59-3.75ZM460.36,317.09v19.72l2.29,1.03,1.65-1.03v-19.72l-2.29-1.03-1.65,1.03ZM378.18,331.22h9.53c3.25,0,.34-9.64-5.93-9.91-6.85-.29-9.68,6.47-7.82,12.51,1.56,5.05,15.89,5.71,14.01-1.22-2.42-1.44-8.76,4.49-9.79-1.39ZM413.02,336.15c.46-1.64,0-7.58,0-9.86,0-.31-1.5-2.27-1.94-2.66-6.13-5.55-14.78.8-11.24,3.36,1.96,1.41,5.54-4.01,7.9-.69-.01.91-7.76,1.58-9.61,5.15-1.63,3.14,1.76,6.01,4.77,6.33,2.29.24,4.06-1.12,5.18-1.02.74.07,4.06,2.51,4.95-.61ZM457.65,331.15c1.81-5.49-3.68-10.67-9-9.36-10.56,2.62-7.75,19.38,5.16,15.7,1.17-.33,4.4-2.37,3.91-3.96-3.12-3.17-7.89,3.46-10.51-1.64l10.44-.74ZM391.33,340.43c-6.6-.61-4.81,5.7,1.51,3.8.56-.17,2.44-1.95,2.44-2.16v-19.06l-2.29-1.03-1.65,1.03v17.42ZM439.98,337.14c.37-.6,0-12.08,0-14.13-2.84-2.58-4.11-.25-4.54,2.69-.31,2.12-.41,12.05,2.2,12.08.43-.23,2.28-.54,2.34-.64ZM339.86,332.65c-2.62.78-2.37,4.73.55,5.16,4.78.69,4.62-6.7-.55-5.16ZM470.02,332.61c-2.71.63-2.73,6.69,1.73,5.1,3.11-1.11.92-5.71-1.73-5.1ZM326.71,363.58c-3.32.76-4.24,4.33-3.73,7.38.17,1.02,1.28,1.86,1.29,2.68.03,1.86-4.89,3.56-1.62,8.83,3.82,6.17,18.03,2.99,15.13-5.93-.42-1.28-2.14-2.35-2.26-3.01-.16-.9,1.33-1.87,1.62-2.83,1.83-6-5.63-8.2-10.43-7.11ZM361.08,382.82c.64-2.87-.47-7.71,0-10.85l8.83,12.53c2.28,1.36,3.4.83,3.69-1.65.26-2.23.89-15.26.5-16.94-.21-.88-.7-2.1-1.61-2.4l-2.86.91v10.52c0,.39,1.17,1.16-.65,1.64-1.09-3.6-11.59-19.89-12.53-8.9-.21,2.49-.3,15.28.63,16.51.37.5,1.08.98,1.71.97.98.02,2.13-1.64,2.29-2.34ZM379.49,368.03c2.27-.36,10.98.96,10.5-2.96-.12-.99-7.8-1.13-8.72-.87-1.65.47-1.98,2.31-1.78,3.83ZM387.38,374.6c-3.54,1.44-10.47.75-10.46,6.26,0,6.38,9.8,3.14,13.3,4.17l1.17-.83c.92-1.22.83-6.85.56-8.56-1.5-9.46-15.14-5.47-14.42-2.03.64,3.07,8.25-2.7,9.85.99ZM420.91,370.66v19.06c1.78.49,2.62,1.84,4.51.56l.1-5.81c13.16,6.3,16.34-15.21,4.37-14.9-1.17.03-2.4.85-3.55.94-1.69.14-3.46-.97-5.43.15ZM409.35,374.35c-5.24-9.73-19.66-2.62-14.36,7.43,3.72,7.04,17.53,2.81,15.38-6.71-.12-.51-.92-.53-1.02-.72ZM443.26,379.21h9.53c2.9-3.88-.04-8.84-4.57-9.25-12.34-1.11-11.87,15.59-1.28,15.77,3.63.06,9.66-4.59,5.17-5.23-2.97-.43-6.1,3.45-8.86-1.29ZM472.19,384.14c.49-3.4,0-8.8,0-12.49,0-.31-1.62-1.73-2.32-1.64-3.28,1.11-6.2-.76-9.55.29-2.66.84-4.89,5.49-4.61,7.99.1.92,2.42,4.94,3.08,5.44,2.35,1.77,5.51,1.34,8.14.74-1.44,7.34-6.89-.66-11.17,1.98-.64.68,3.16,4.06,3.91,4.3,5.66,1.8,11.62-.34,12.52-6.61ZM478.77,370.66c-.97-.42-3.94-1.06-3.94.33v11.17c0,1.47,3.57,3.44,5,3.6,2.85.32,4.69-1.85,7.72-.69l1.09-.93v-13.15c-6.75-4.77-3.41,9.56-5.35,10.75-.84.94-4.51-.97-4.51-1.22v-9.86ZM506.38,379.21c3.63-12.05-15.66-13.19-14.48-.32.77,8.45,15.35,9.42,13.82.98-1.26-.81-8.02,5.34-9.2-.66h9.86ZM341.08,380.88c-4.11,3.58,2.01,5.71,3.58,3.92,2.07-2.37-.23-5.09-2.9-4.95-.4.02-.41.8-.67,1.03ZM462.99,397.61c3.6.02,14.29,1.17,8.88-4.44-2.03,2.38-3.38-.71-5.78-.06-1.15.31-3.76,3.9-3.11,4.5ZM360.89,399.07c-6.35,1.47-6.72,13.5.17,15.32,13.7,3.61,14.29-18.67-.17-15.32ZM398.12,411.89c-.61-2.6.49-11.74-.83-12.69-4.4.54-10.58-1.94-13.5,2.38-4.97,7.35,1.85,16.15,10.16,11.81.25,2.22-1.2,6.95,2.3,6.61,2.36-.23,1.22-2.38,1.69-3.49.25-.59,1.12-.49,1.25-.95.9-3.26-1.02-3.46-1.07-3.66ZM405.85,410.7l-.82-10.68c-5-4.31-4.27,7.79-3.4,10.63,1.76,5.77,5.7,3.36,9.18,2.95,1.13-.14,3.46,1.19,4.27.06.86-2.34,1.84-17.26-2.73-14.44-3.32,4.21,1.96,12.64-6.49,11.47ZM432.37,403.27c-5.64-10.94-19.81.13-13.1,8.8,2.3,2.98,11.68,3.78,12.72-.44,1.22-4.98-8.97,2.6-9.1-3.5,3.86-.59,12.14,2.21,10.5-4.14-.14-.53-.92-.54-1.01-.73ZM453.78,402.87v10.19c0,1.34,4.6,1.34,4.6,0v-10.52c0-3.62-4.95-3.67-7.52-3.59-.98.03-2,1.08-2.66,1.03-.87-.06-2.2-1.82-4.29-.4v13.8c0,.2,3.34.98,3.99.38,1.78-1.28-1.14-10.08,3.05-11.47l2.83.57ZM470.88,404.18c-3.02.95-9.08.24-9.85,4.31-1.54,8.16,9.14,4.77,13.84,5.29,1.42-1.02.58-10.23-.43-12.16-2.7-5.19-14.12-2.54-13.42.92s8.81-3.06,9.86,1.65ZM478.98,411.86c6.68,7.49,19.81-.95,13.26-10.3-5.64-8.06-20.6,2.07-13.26,10.3ZM367.65,421.93c-3.16-.41-5.87,1.01-6.57,4.25,2.57,2.73,7.28-.99,6.57-4.25ZM360.43,437.05h9.53c5.09-10.21-12.58-13.31-13.51-2.99-.31,3.45-.12,6.85,2.98,8.91,6.23,4.14,14.26-3.12,9.77-4.55-2.77-.88-7.08,5.23-8.78-1.37ZM393.29,432.44c.54-7.81-15.32-5.37-11.09,2.23,1.76,3.18,5.62,1.55,7.8,4.02-1.56,3.75-9.25-3.12-9.22,1.31.03,4.08,11.49,5.68,13.03.52,1.8-6.02-4.31-6.47-8.4-7.75,2.19-2.3,5.24.08,7.88-.34ZM401.19,437.05h9.86c3.49-8.75-11.85-13.13-14.48-4.96-2.31,7.17,1.21,12.48,8.92,11.54,1.95-.24,7.68-3.08,4.93-4.96l-1.03-.34c-2.85-.43-7.41,5.2-8.2-1.29ZM423.64,428.62c-.87,1.36,1.28,11.2-3.72,11.48-4.41.24-.65-13.34-5.15-12.16-3.13.82-2.46,13.62,1.55,15.34,3.74,1.6,6.72-1.68,10.49.33,1.29-2.27.67-15.3-1.02-15.73-.28-.07-2.03.56-2.14.73ZM430.87,438.46c-1.47.93-1.15,5.73,2.81,5.18,5.07-.71,1.04-7.61-2.81-5.18ZM332.81,481.75c.58,4.93-8.69,3.43-7.8,6.79,4.7,4.99,12.25-3.06,13-8.5,2.21-16.05-16.28-14.44-16.28-4.54,0,6.31,6.16,6.83,11.08,6.25ZM369.63,469.59c-.75,2.68.55,8.42,0,11.5l-8.83-11.87c-.78-.65-2.83-.99-3.58-.52-1.77,1.11.67,16.91.02,19.85.88,2.39,3.84.13,3.84-.55v-11.5l8.83,12.53c.79.72,2.2.95,3.05.34,1.49-1.08-.1-15.92,1.16-18.95l-1.62-2.42c-.94-.38-2.69.96-2.87,1.6ZM389.35,468.6c-3.55.87-9.56-2-9.2,3.6l8.44.24.75-3.84ZM476.73,469.98c-4.22-.96-3.06,2.73-4.07,4.35-.38.61-2.82,1.08-2.44,2.47,5.38,1.44.55,7.57,4.22,11.56,3.73,4.05,14.29-1.36,3.29-2.63l-.32-6.89c10.86-3.28.44-3.97.05-4.34-.16-.16.02-3.67-.73-4.52ZM387.38,479.11c-3.65.92-10.47,1.06-10.46,6.26,0,6.38,9.8,3.15,13.3,4.17l1.17-.83c.99-1.32.79-7.27.45-9.11-1.67-8.95-15.52-5.55-14.3-1.49.94,3.13,8.04-2.74,9.85,1ZM407.54,476.05c-.57-.58-2.39-1.54-3.18-1.75-12.74-3.29-14.66,16.85-.86,15.35,3.79-.41,7.53-5.32,6.94-8.92-.04-.27-2.7-4.49-2.89-4.68ZM434.65,479.05c1.17-1.83-1.37-3.83-2.96-4.46-9.29-3.74-16.09,9.1-8.02,13.91,6.19,3.69,13.99-1.3,10.42-3.83-2.32-1.64-3.62,2.54-6.8,1.58-3.59-1.09-2.3-8.09-.68-8.48,2.51-.6,6.62,3.5,8.03,1.28ZM442.44,474.01c-9.37,1.63-8,16.68,1.77,16.23,10.36-.48,10.61-18.38-1.77-16.23ZM464.3,478.79c.69,2.21-.5,7.54,0,10.19h4.6v-11.5c0-1.45-3.78-3.3-5.1-3.49-2.59-.38-5.95,1.67-9.27.63v13.94c6.76,4.36,3.46-6.63,4.83-9.43.72-1.68,4.46-1.86,4.93-.33ZM496.29,476.06c-6.12-6.2-16.07,1.07-12.42,10.12,1.96,4.85,13.97,5.41,13.31-1.14-.87-.87-10.78,4.18-8.81-1.33l9.19-.6c.72-2.37.54-5.22-1.25-7.04ZM344.56,484.46c-3.42-2.17-8.59,4.54-2.15,5.16,4.26.41,3.02-4.6,2.15-5.16ZM433.23,497.03c-2.41-2.24-6.46.27-4.78,3.12s7.43-.65,4.78-3.12ZM422.81,498.91h-4.45c.25,4.53,0,3.02-2.29,4.6-3.3,2.27,2.08,3.03,2.25,3.63.7,2.54-1.05,6.96.68,9.71s8.9,2.17,8.44-.51c-.3-1.79-3.42-1.41-3.98-2.11-.81-1-1.02-6.46.06-7.2.76-.51,3.79.16,3.17-2.5s-5.3,0-3.89-5.61ZM374.89,517.9c6.83,3.54,5.47-12.12,2.61-14.12-4.44-3.1-7.59,1.06-8.74.87-.66-.11-1.49-1.3-2.38-1.58-1.54-.48-9.9-.27-9.9,1.35v11.83c0,1.06,2.1,2.74,3.29,2.02,3.18-1.92-1.2-12.56,4.17-12.06.6.06,2.4,1.16,2.4,1.49v10.19c8.34,2.9-.54-15.59,8.55-10.19v10.19ZM386.07,511.98h9.53c5.21-10.44-12.72-13.01-13.51-2.33-.88,11.91,12.64,10.48,13.74,5.83,1.17-4.95-9.19,2.36-9.76-3.5ZM413.68,517.9v-12.16c0-2.83-5.55-2.99-7.52-2.93s-1.62.32-4.11.18c-4.95-.29-2.45,14.46-1.79,14.97.35.27,1.3.42,1.81.46,3.33-.76.54-8.77,2.72-11.04,1.21-1.25,4.28-.65,4.28.33v9.53c1.87.62,2.54,1.63,4.6.66ZM433.4,503.44c-1.92-.49-3.85-1.54-4.81.86-.43.55.21,1.2.21,1.44v11.83c0,2.01,3.72.03,4.6-.33v-13.8ZM436.69,503.44v14.46l3.86-.09c.43-2.49-.83-9.8,1.85-10.95,2-.86,6.37.17,3.72-4.11l-9.43.7ZM461.67,517.57v-11.17c0-4.74-14.3-4.92-13.79.03.86,3.35,4.25.36,6.86.26.53-.02,3.77-.1,2.33,1.34-1.03,1.02-13.47.97-9.24,8.26,3.59,6.19,8.48-.34,12.83,2.27l1.01-.99ZM469.57,506.73c1.59-.22,6.86,1.75,7.08-.98.31-3.69-10.61-4.56-12.07.3-1.86,6.21,7.74,5.97,8.28,7.58.4,1.18-1.73,1.64-2.33,1.6-1.4-.1-3.43-3.19-6.22-1.93-.47,11.16,19.19,4.13,11.23-3.01-1.87-1.68-5.86-1.04-5.97-3.56ZM478.96,517.69c2.41,2.86,6.29.46,5.66-1.97-1.08-4.2-8.41-1.28-5.66,1.97ZM319.01,544.85c-3.59-1.16-6.54.83-9.56,2.61-1.18,2.98,1.89,3.09,4,2.16l.96.82v15.45l4.6-.99v-20.05ZM327.36,544.33c-7.87,1.8-8.99,24.79,5.64,21.4,8.49-1.96,8.11-24.55-5.64-21.4ZM356.48,545.83c-.68,2.06,0,14.99,0,18.4,0,.24.71,1.04.73,1.57l3.87-1.57v-10.85c4.8,2.23,6.81,15.13,12.49,11.5v-20.05c-.97-.42-3.94-1.06-3.94.33v12.16c-2.39-2.03-7.5-13.31-10.74-13-.6.06-2.25,1.04-2.4,1.5ZM468.25,545.17v19.72l1.65,1.03c4.39.52.79-8.18,3.31-11.19,1.47-1.75,4.25-1.12,4.25.3v9.86c0,1.02,3.95,2.16,4.96-.95,2.32-7.14-1.27-17.42-10.22-12.52.05-3.42.67-9.87-3.95-6.24ZM390.01,544.85c-4.38,1.5-10.42-2.37-9.85,4.59,4.29-1.09,10.02,2.09,9.85-4.59ZM426.86,550.07l-.34-3.93c-3.89-2.38-3.12,2.73-3.95,3.98-.56.85-3.24.6-2.97,2.28,5.44,2.33,2.52,5.14,3.33,9.83s9.36,5.61,8.51.37l-3.85-.1c-.82-1.71-1.44-7.02-.1-8.13,1.16-.97,4.46-.19,3.32-3.19-.38-1-2.95-.97-3.94-1.11ZM390.5,552.24c-2.93-3.09-13.7-2.31-12.87,2.04s6.73-2.72,9.76-.23c1.87,1.57-6.23,2.58-6.73,2.8-4.7,2.07-4.81,8.84,1.79,9.08,1.54.06,8.36-.23,8.95-.98,1.09-2.69.99-10.72-.89-12.71ZM409.37,555.08c-5.42-10.79-19.03-2.35-14.61,7.03,3.94,8.36,17.69,2.54,15.59-6.28-.11-.46-.87-.53-.98-.76ZM437.35,559.97c3.18-1.2,10.43,2.25,10.55-2.94.15-6.43-9.32-9.08-13.21-4.66-.33.37-2.65,4.71-2.67,5.27.12,1.85,2.95,7.17,4.69,7.89,4.02,1.68,13.81-1.28,9.87-3.95-2.48-1.68-8.22,4.13-9.22-1.62ZM464.3,564.89v-11.17c0-1.43-3.58-3.48-5-3.6-2.07-.18-3.3,1.09-4.65,1.15-.49.02-4.81-1.88-4.81.48v12.49c0,.25.66,1.07.77,1.53l3.17.11c.24-4.29-1.44-12.52,4.93-11.9,3.81.37-.91,12.51,3.94,11.94l1.65-1.03ZM498.43,565.83c1.29-3.16.83-11.57-1.57-13.77-4.53-4.16-14.14,0-12.08,3.21,3.31,1.98,5.26-2.39,9.11-1.22v1.97c-3.63-.35-10.47,1.54-9.74,6.11,1.02,6.33,10.29,2.7,14.28,3.7ZM340.14,561.38c-1.46.92-1.09,5.1,2.2,5.1,5.83,0,1.91-7.7-2.2-5.1ZM358.9,572.56c-2.66.13-3.44,4.36-1.34,5.07,4.84,1.64,4.3-5.22,1.34-5.07ZM414.15,573.23c-2.04.61-2.44,3.19-.46,4.16,4.25,2.11,6.02-5.84.46-4.16ZM378.83,594.14v-10.85c0-.24-1.53-2.37-1.92-2.68-4.11-3.27-7.38.5-11.83-.88-.46,4.01-3.32,16.06,3.23,14.41.17-3.58-1.45-11.64,4.27-11.25.92.06,1.65,1.1,1.65,1.72v9.53h4.6ZM409.35,582.69c-4.95-6.46-14.1-3.55-14.07,4.55.03,8.63,9.44,10,15.11,4.92-1.47-5.53-6.78.93-9.85-2.3-.31-1.59,1.28-.94,2.29-.98,4.81-.19,11.58.4,6.53-6.19ZM433.23,581.16c-2.66-2.94-9.8-2.28-12.67.47-.86,4.96,3.68,1.69,5.91,1.31.67-.12,3.41-.54,2.98,1.01-1.19,1.67-3.25.63-4.76,1.16-8.26,2.89-5.8,10.59,2.43,9.67,3.29-.37.94-.95,4.82-.09,4.47.99,2.16-12.56,1.3-13.52ZM361.08,592.5c.58-3.44-.42-8.21,0-11.83,0-.81-3.26-1.65-4.02-.6l-.25,13.42,3.55,1.24c-.09-.83.63-1.66.72-2.22ZM384.01,579.78c-1.58-1.01-4.14-.17-3.59,2.56.19.95,4.25,11.33,4.66,11.81,1.87,2.23,4.75.25,5.93-1.98.93-1.75,4.69-11.79,2.51-12.51-4.85-1.34-2.79,6.41-6.11,8.56-1.45-1.25-2.91-8.14-3.39-8.44ZM416.97,579.68c-1.28.02-3.35-.44-3.85,1.08-.81,2.44.54,15.97-.12,16.64-12.04,2.17,3.98,6.75,3.98,1.67v-19.39ZM438.17,590.37c-2.24,2.18,1.4,6.52,3.84,3.5,2.14-2.65-1.47-5.81-3.84-3.5Z" fill="#fff"/>
  <path d="M53.06,705.88c-3.19-.42-5.38-2.07-5.83-5.4l-.45-422.86c4.39-80.33,73.28-133.17,153.34-120.37,56.34,9.01,98.06,60.34,89.93,117.8l.68,430.83H53.06ZM143.74,215.93c-.76-1.14-1.11-2.51-2.26-3.38l-3.79.52-7.24,17.43c-1,2.87,1.24,4.46,3.81,3.13,1.52-.78,1.02-2.8,1.62-3.64.65-.9,7.38-.96,8.47-.56,1.74.64,1.29,6.74,5.39,3.89,1.46-2.08-4.55-15.19-6.01-17.39ZM225.83,217.29c3.1,1,4.98-1.36,5.73-4.04-2.83-3.05-4.79,1.44-7.23,2.3-.15.17,1.39,1.71,1.5,1.74ZM104.02,217.51v15.45c0,.28,1.62,1.74,2.3,1.66.69.08,2.3-1.38,2.3-1.66v-18.4c0-3.58-13.37-.03-8.77,3.54l4.16-.58ZM152.67,219.81c-.52,1.57,0,9.98,0,12.49,0,.86,3.19,2.65,4.31,1.02,1.24-1.81-1.13-10.32,2.62-11.22,5.59-1.34,1.05,10.96,4.01,11.8,6.01,1.7-.37-12.66,6.49-11.81,2.85.47.91,2.59,1.06,4.22.18,2.03.52,9.41,3.9,7.33,2.45-1.51,2.2-13.72-2.62-15.19-4-1.22-6.26,1.72-7.48,1.57-.75-.09-1.8-1.69-3.46-1.86-2.06-.21-2.91,1.08-4,1.18-.9.08-3.97-2.12-4.82.47ZM184.39,229.85c-3.86-2.96,7.19-2.34,8.03-2.5,5.1-.94.47-9.7-6.54-9.23-1.59.11-4.36,1.36-5.26,2.68-1.4,2.06-.18,4.08-2.3,5.04v1.73c1.76.68,1.09,2.32,1.92,3.44,4.39,5.89,15.25,1.98,13.19-1.67-2.67-1.37-6.99,2.08-9.04.51ZM209.87,222.12c2.78-.93,6.29,3.36,7.27-.35-2.56-8.72-19.09-.83-9.2,5.22,1.61.99,5.4.78,5.2,3.01-1.97.83-9.53-3.71-8.45.88s15.61,5,12.76-3.54c-.88-2.63-4.14-2.61-6.29-3.6-.99-.46-1.62.1-1.31-1.61ZM226.82,218.3c-11.16.82-10.27,18.67,3.61,15.5,7.51-1.72,6.5-16.25-3.61-15.5ZM117.65,233.77c1.83-1.83.47-4.37-2.06-4.41-5.13-.08-1.38,7.86,2.06,4.41ZM159.57,242.49l-.99.99v18.4c1.66,2.35,6.81,1.96,9.47,1.58,8.19-1.15,11.5-10.08,6.97-16.71-.54-.79-4.27-4.27-4.94-4.27h-10.52ZM146.09,262.54v-10.52c0-1.76-4.62-4.04-6.32-4.23-2.74-.31-10.38,1.83-7.06,5.12,2.38.83,3.72-.92,5.79-1.25.81-.13,2.7-.47,2.32,1-4.01,2.1-9.89.96-9.26,7.26.58,5.85,9.35,2.26,12.9,3.62l1.63-1.01ZM184.22,257.61c2.33-.27,9.5,1,10.44-1.76.18-5.99-6.32-9.7-11.75-7.11-3.1,1.47-2.63,3.56-4.65,5.9.14,3.14,2.73,8.24,6.33,8.85,3.36.57,9.66.11,8.84-4.56-1.4-1.41-10,4.05-9.21-1.32ZM224.06,249.35c-4.67-3.01-12.85-1.45-11.24,4.96.55,1.68,9.59,3.51,8.22,5.26-2.16,1.9-8.17-3.96-8.58.34s13.49,5.4,13.81-.71c.2-3.83-5.46-5.34-8.5-6.21,1.98-3.03,4.91,1.49,7.88-1.32.59-.7-1.19-2.08-1.58-2.33ZM210.52,262.54v-13.15l-1.65-1.03c-4.72-.56.04,9.65-4.73,11.1-6.43,1.95-1.78-9.12-4.09-10.78-5.06-3.62-5.26,11.79-1.63,14.12,3.83,2.46,7.59-1.42,11.09.72l1-.99ZM233.44,262.77c1.95-3.08-4.17-7.38-4.57-2.21-.31,3.96,3.87,3.32,4.57,2.21ZM102.04,307.55c2.1-2.54,9-7.48,9.61-10.49,1.82-9.08-17.85-8.09-15.48-1.1,1.57,4.62,6.29-1.93,7.61-2.06,3.76-.35,2.92,2.9,1.22,5.12-1.3,1.7-13.92,11.25-7.24,12.48,2.69.5,15.75,1.59,13.75-3.33l-9.48-.62ZM136.89,309.86c.53-3.17-.39-7.52,0-10.85,2.19,1.81,12.09,20.45,13.19,8.91.22-2.35.24-15.42-.63-16.53-.81-1.02-2.17-1-3.35-.93.44,2.39-.64,4.66-.71,6.9-.04,1.25,1.78,5.37-.26,4.92-3.37-.76-7.96-16.22-12.85-10.84-.84,2.73-1.28,17.7,0,19.09.6.65,3.15,1.34,3.88.9.05-.56.68-1.22.74-1.57ZM214.19,308.5c4.68,5.4,7.2,1.67,13,2.94l.77-.56c1.53-1.45,1.52-18.65.06-19.81-.98-.77-3.31-1.04-4.05.03l-.3,5.95c-7.48-3.59-15.66,4.32-9.48,11.45ZM165.16,291.13l-9.47.58c-1.75,6.07,1.99,2.7,3.78,2.84.94.08,1.57,1.33,3.09.93,1.7-.46,2.82-2.62,2.61-4.34ZM209.87,310.52v-9.86c0-5.74-12.7-5.95-13.74-1.85-1.58,6.21,9.18-2.51,9.13,2.83-11.03-1.76-14.29,10.98-1.67,9.83.95-.09,1.71-1.27,2.53-1.17,1,.13,2.2,2.54,3.75.21ZM238,295.87c-11.56.86-8.35,19.31,3.59,15.47,8.24-2.65,5.94-16.18-3.59-15.47ZM260.49,297.06c-3.63-2.06-6.4.35-10.43-.59-1.49,2.37-.1,4.47-.06,6.79.03,1.9-.94,7.08.61,7.93,5.28,2.9,2.04-7.91,4.57-10.58.73-.76,6.68-2.06,5.3-3.56ZM153.53,303.81c-3.07,3.8.73,8.51,5.3,8.15,1.54-.12,2.69-1.52,3.51-1.62,1.34-.17,3.21,2.51,4.46-.15.67-1.44.5-6.97.18-8.71-1.53-8.25-14.44-4.88-14.16-1.46,2.21,3.7,4.62-.12,7.42-.24,1.05-.05,2.82.42,2.29,1.87-2.32.22-7.55.37-9,2.17ZM174.17,296.52c-1.27.37-3.55,3.21-3.97,4.57-3.98,12.78,16.03,14.62,15.37,2.23-.31-5.83-6.22-8.31-11.39-6.79ZM265.09,305.59l9.25-.29c3.37-7.31-4.35-10.86-10.39-8.42-5.02,2.03-4.87,12.69.45,14.32,2.68.83,10.33.61,9.94-3.31-.36-3.7-6.62,1.57-9.26-.34v-1.96ZM118.31,307.07c-2.18-2.24-6.52,1.4-3.5,3.84,2.65,2.14,5.81-1.47,3.5-3.84ZM150.03,325.31c-12.96-5.62-15.51,16.36-3.65,15.73,1.28-.07,2.36-1,3.48-1.13,1.53-.18,3.25,1.31,4.49-.1.56-.83.6-18.49.16-19.94-1.64-5.32-6.36,1.62-4.47,5.45ZM133.6,325.29c-.53.05-1.36.22-1.64.65-.69,1.04-.6,13.58.28,14.2l1.69.35c.95,0,1.85-.07,2.21-1.14.45-1.37.28-9.76.13-11.77-.23-3.24-2.6-2.28,1.29-6.54l-1.66-2.15-4.83,4.14,2.52,2.27ZM180.12,319.56c-1.99-.92-3.93-1.14-4.42,1.5-.41,2.18-.36,19.06,1.07,19.4.84.2,2.04,0,2.86-.36,2.25-1.29,1.52-17.43.49-20.54ZM159.47,326.85c-8.15,8.53,6.39,19.93,12.15,10.51s-6.05-16.9-12.15-10.51ZM188.65,324.81c-9.62,1.96-6.45,17.9,3.62,16.16,9.47-1.64,8.37-18.6-3.62-16.16ZM205.27,329.9c.96-3.06,7.28,1.42,7.26-2.29-.03-5.2-16.1-3.71-11.54,4.28.83,1.45,8.99,2.74,7.56,4.59-2.7,1.51-5.48-2.67-7.91-1-2.23,1.53,1.37,3.94,2.72,4.55,10.18,4.53,13.61-9.47,1.9-10.12ZM217.56,335.27c-2.68.76-2.88,6.42,1.69,5.04,3.1-.94,1.62-5.97-1.69-5.04ZM221.61,366.15c-.53-.84-5.3-1.56-4.5,2.16,1.04,4.79,6.29.68,4.5-2.16ZM110.39,368.88c-3.02-4.08-14.74-4.5-13.6,2.44,1.91-.03,12.9-3.35,8.27,2.03-1.29,1.5-4.56,1.37-4.34,2.91.5,3.51,6.33,1.11,5.96,5.22-.56,6.34-10.05-2.73-10.59,2.02,3.92,9.74,23.74.94,12.54-7.25-.21-.85,4.87-3.16,1.77-7.36ZM131.63,367.7c-.7,2.17,0,14.91,0,18.4l4.61.99v-8.55c6.56-1.26,4.17,10.17,11.83,8.55.47-3.71-2.32-6.68-4.6-9.19,6.21-.33,7.37-9.03,1.62-11.16-2.27-.84-12.64-1.56-13.46.97ZM230.99,371.89c-.58-.95.92-5.26-2.28-4.42-2.84.74-.1,5.75-4.96,5.25-.8,3.22.79,2.44,3.12,3.3.54,2.99-.84,7.23,1.08,9.76,3.74,4.93,13.02-1.07,3.24-2.58-.37-.51-.55-7.03-.29-7.28.22-.2,2.41.33,3.33-.29,2.79-4.39-2.49-2.53-3.24-3.75ZM165.06,380.43c.74-14.89-20.99-8.62-13.62,4.28,2.89,5.07,13.48,3.43,13.11-.56-.4-4.29-9.08,3.03-9.9-2.97l10.42-.75ZM179.58,373.34c-3.37-2.08-12.87-2.14-13,2.88-.11,4.36,4.15,4.14,7.12,5.32,1.06.42,1.61-.06,1.31,1.61-2.36,1.09-8.26-3.48-8.59.35-.44,5.07,14,6.1,13.89-.7-.09-5.2-8.51-5.08-8.57-6.55,2.49-2.44,7.56,3.02,7.84-2.91ZM182.25,373.62c-.73,4.5,0,12.75,0,17.75,0,1.65,2.63,2.28,3.85,1.54.9-.55.79-5.24.76-6.47,8.3,4.33,14.37-4.97,9.77-12.07-3.07-4.74-8.96-.73-13.28-2.45-.38.07-1.05,1.41-1.1,1.7ZM204.61,381.18h9.53c3.27-4.14-2.09-9.37-6.55-9.23-10.43.34-9.79,13.86-2.49,15.64,3.78.92,9.82-.52,9.37-5.09-3.77-.81-8.15,3.95-9.86-1.32ZM241.42,381.18c3.45-.52,11.06,1.98,10.52-3.55-.47-4.78-6.32-6.49-10.41-5.22-3.28,1.02-6.33,6.81-5.17,9.91.12.32,3.85,4.63,4.58,4.92,2.55,1.04,9.55.45,10.25-2.57,1.27-5.5-10.72,2.59-9.77-3.49ZM217.1,374.28c-.5,3.05,0,8.44,0,11.83,0,2.1,4.6,1.4,4.6,0v-12.49l-3.49-1.02c-.41.11-1.05,1.34-1.11,1.67ZM118.31,382.66c-1.63-1.69-4.89-.2-4.45,2.75.72,4.86,8.01.94,4.45-2.75ZM173.05,415.03c.47-1.53,0-8.23,0-10.52,0-.4-1.75-2.58-2.28-2.97-3.7-2.66-7.24.89-11.46-.6-1.51,2.82-.05,5.31,0,8.16.06,3.32-2.65,8.91,3.59,6.29-1.42-14.91,8.79-15.14,5.83-.02.83,1.15,3.94.86,4.31-.34ZM145.23,403.07c-4.24-3.97-13.5-2.27-14.27,4.06-1.62,13.38,16.34,12.15,16.32,1.99,0-1.2-1.23-5.29-2.05-6.05ZM190.39,405.92c-2.51-4-4.67-6.25-9.94-4.51-9.56,3.16-4.29,19.03,6.23,14.77.86-.35,5.01-5.38,5.17-6.02.82-3.28-.61-2.87-1.46-4.24ZM194.09,402.54c-.81,2.86.6,9.17,0,12.49l1.65,1.03c4.68.55.03-12.01,5.13-11.77,5.57.26-1.29,14.27,6.3,11.65.45-2.96-.67-7.34.85-9.98.82-1.42,2.77-2.5,3.82-.78v9.86l4.6.99v-12.16c0-1.88-3.91-3.06-5.6-3.01-2.49.08-4.21,1.84-4.59,1.84-.66,0-2.29-2.25-5.88-1.77-.91.12-1.63,1.11-2.15,1.18-.59.08-3.3-2.51-4.14.44ZM223.67,410.1h9.53c2.62-3.03-.12-7.97-3.6-8.89-12.64-3.34-13.27,14.42-4.31,15.47,2.96.35,7.88-.05,8.22-3.66-.41-4.05-10.07,3.59-9.85-2.92ZM146.67,445.51c.94-.59.38-20.11-.21-20.98-2.6-3.8-5.79,3.95-4.31,6.6-12.54-5.98-16.19,15.56-2.95,14.5,1.32-.11,2.69-1.13,3.27-1.09.74.04,2.64,1.95,4.21.97ZM176.99,423.9c.21.64-.66,1.42-.66,1.64v18.4c3.08,3.19,11.74,1.84,15.08-.7,4.79-3.63,5.27-13.9.39-17.4-.46-.33-4.37-1.95-4.62-1.95h-10.19ZM164.5,439.02c2.01-14.76-19.74-9.71-14.14,2.63,3.35,7.37,15.95,3.57,13.46-.64-.83-1.4-8.09,2.66-9.52-.68-.35-.82.29-.84.66-1.31h9.53ZM211.7,438.86c2.57-13.09-18.23-11.54-14.03,2.17,1.68,5.48,13.93,7.13,13.51-.03-3.65-.02-7.22,2.64-9.85-1.31l10.37-.83ZM229.59,443.95c.56-1.97,0-9.72,0-12.49,0-1.59-4.35-1.48-5.15-.21-1.28,2.04,2.37,11.4-3.71,10.44-3.91-.62.59-10.22-3.4-11.73l-2.11.63c.5,3.82-1.68,10.73.92,13.68,2.15,2.45,5.79.96,8.45.75,1.07-.09,4.25,1.59,5-1.05ZM236.17,433.77c2.81-1.15,5.52,2.81,7.18.24,1.63-5.31-10.9-5.77-11.78-.54-1.21,7.18,8.58,5.17,8.54,7.19-3.21,3.73-5.05-.66-8.53-.33-1.76,6.71,10.36,6.74,12.15,2.61,2.28-5.25-2.71-6.33-6.1-7.71-.98-.4-1.78.39-1.44-1.48ZM246.79,441.1c-3.14,5.99,7.28,6.15,4.53.19l-4.53-.19ZM109.37,482.31c-1.14-1.76,1.5-10.67-1.41-12.1-3.63-1.78-6.38,4.57-8.27,6.89-.69.85-1.69,1.14-2.26,1.86-7.29,9.3-1.04,7.24,7.24,7.37-.21,1.61-.19,5.27,2.18,5.15,3.42-.16,1.95-4.25,2.52-5.06.16-.22,2.82-.29,3.04-1.73.28-1.9-2.83-2.07-3.04-2.4ZM150.04,488.65c.63-2.21-.46-6.96,0-9.53-1.74.31-8.64-.86-9.2,1.01-.07,3.17,2.84,3.13,5.26,2.93l-.1,3.85c-11.29,5.8-13.21-12.94-4.19-13.07,2.63-.04,4.42,2.43,7.15,2.04,3.01-5.95-8.51-7.2-12.31-5.22-8.89,4.63-7.46,19.48,3.26,20.89,2.34.31,9.38-.26,10.13-2.89ZM215.13,489.96c.9-5.54-.67-13.26,0-19.06l-4.61-.99v6.57c-13.72-5.17-17.06,16.32-2.99,15.09,1-.09,2.01-1.06,2.65-1.02,1.01.05,4.36,2.99,4.95-.59ZM168.45,477.14l-4.31-.03-1.26,9.91c-6.89,4.15-3.27-9.22-5.56-10.91-4.8-3.54-5.61,10.68-2,13.83,4.07,3.56,8.42-.42,13.13,1.01v-13.8ZM184.88,490.95v-10.85c0-4.82-12.46-6.12-13.71-1.84-2.02,6.91,9.01-2.77,9.1,2.83-4.44-.22-12.77,3.08-8.85,8.53,2.69,3.75,6.39,1.22,9.46.98.98-.08,2.25,1.52,4,.35ZM188.27,490.85l4.22-.52c.82-5.81-1.55-10.29,5.54-12.21l-.64-1.98c-2.17.07-8.64-.88-9.55,1-.7,1.45-.57,13.08.43,13.7ZM232.15,484.96c1.82-13.46-17.67-12.6-14.25,2.24,1.45,6.27,14.08,6.03,13.67.15-3.22-1.29-8.95,2.82-9.87-2.3l10.44-.08ZM115.67,486.44c-3.11.87-1.94,6.08,1.68,5.07,3.11-.87,1.94-6.08-1.68-5.07ZM173.61,498.94c-.29-.46-3.04-1.2-3.55-.13l-.3,6.6c-13.16-4.8-16.99,15.43-2.98,15.12,9.81-.21,8.12-4.91,7.61-13.51-.07-1.18-.57-7.74-.78-8.09ZM176.43,502.68c2.33,3.8,10.71-4.86-.1-3.84.16,1.04-.36,3.11.1,3.84ZM225.65,499.49l-4.6-.66v7.23c-7.44-4.18-14.62,3.02-11.03,10.69,2.57,5.49,10.76,3.43,15.63,3.11v-20.38ZM133.86,518.95c8.68,5.75,17.45-4.5,11.95-10.96-8.2-9.64-21.65,4.53-11.95,10.96ZM178.09,504.82c-2.4.78-1.38,14.24-.8,15.08.79,1.16,2.91.73,3.71-.3.61-2.81,2.49-16.54-2.91-14.78ZM193.43,510c-4.53-.21-12.56,3.15-8.27,8.61,3.23,4.11,8.8.28,12.91.99,1.67-7.55,1.16-16.03-8.85-14.79-3.37.42-7.25,4.14-3.21,5.12,1.28.31,7.25-3.46,7.42.08ZM234.03,504.9c-8.27,1.25-7.31,13.65-1.84,15.33,13.96,4.29,15.66-17.42,1.84-15.33ZM136.24,532.37c2.33-2.31,9.61,2.64,10.51-.36,1.44-4.8-14.63-6.95-15.12.68-.55,8.61,12.56,6.27,10.56,12.46-3.16,3.35-9.89-4.91-11.13-1.18-2.08,6.25,15.61,8.48,16.4.57.51-5.1-1.79-5.65-5.52-7.68-2.18-1.18-6.12-.89-5.69-4.48ZM198.69,548.46v-11.17c0-2.86-7.59-4.88-9.85-2.3,1.05-2.58-1.01-10.26-4.01-6.3-1.11,1.46-1.03,18.84.37,20.11,6.48,3.16,1.38-7.91,5.34-10.46,6.8-4.38,2.81,7.64,3.88,9.79,1,1.57,3.09,1.97,4.28.33ZM153.99,543.53c3.96-.43,11.24,1.92,10.49-4.21-1.3-10.67-20.85-5.28-13.68,7.07,2.98,5.12,13.57,3.74,13.09-.54-1.35-4.3-8.26,3.6-9.9-2.31ZM181.6,548.46c.49-1.58,0-8.79,0-11.17,0-1.55-4.26-3.5-5.66-3.61-2.1-.17-2.91,1.08-3.99,1.17-.37.03-5.48-2.15-5.48.47v11.83c0,1.71,3.63,3.22,4.97,1.68,1.34-1.96-1.92-14.82,4.79-10.12l.43,9.43c.72,1.68,4.46,1.86,4.93.33ZM202.33,545.8c7.54,11.02,20.24-1.37,13.11-9.48-5.98-6.8-18.73,1.27-13.11,9.48ZM230.22,536.93c.39-.46.13-2.83-1.05-3.2-1.46-.45-3.37.87-4.77.95-1.25.07-2.64-1.49-3.85-.19-1.73,1.85-.16,5.71-.11,8.05s-1.19,4.64.05,6.81c5.94,1.96,2.33-7.05,3.98-10.28.63-1.23,5.55-1.9,5.75-2.14ZM234.09,544.95c-3.8-2.36-7.17,4.18-2.2,4.56,3.95.3,3.34-3.85,2.2-4.56ZM110.26,574.42c-2.91-.83-9.44.61-12.82,0l-1.03,12.53c3.62,2.48,5.09-2.01,8.57-1.38,3.91.72,2.47,7.69-3.12,6.48-1.79-.39-5.93-4.6-6.3.32,5.56,6.93,18.36,3.67,16.32-6.45-.64-3.16-7.71-5.54-10.5-3.63v-4.6c1.98,1.61,14.16-1.77,8.87-3.28ZM143.74,579.42c-.85-1.55-1.44-3.11-2.23-4.68-5.66-2.32-5.94,5.49-7.74,9.38-.34.74-1.2.81-1.44,1.36-1.59,3.68-5.82,11.59,1.82,9.89l1.85-4.53c1.95.23,7.41-.56,8.61.85.88,1.03.08,4.08,3.08,3.81,2.05-.59,2.32-1.22,1.92-3.16-.35-1.68-3.95-10.24-4.88-12.13-.25-.5-.89-.61-.99-.78ZM170.42,594.8c.92,0,2.01.86,2.87.62,1.62-.46,2.65-11.84-.25-14.09-3.63-2.82-6.81.22-8.87.3-1.72.06-4.05-.92-7.96-.69-.9.05-4.2-1.27-4.2.39v13.15c0,1.33,3.99,1.05,4.5.23.9-1.43-1.46-11.09,2.39-11.11,4.69-.02-.22,15.76,5.65,11.58,1.91-1.36-1.63-12.56,4.21-11.58.55.09,1.66.57,1.66,1.01v10.19ZM191.25,582.52c-1.17-1.27-4.31-2.18-6.04-2.23-9.67-.25-10.97,10.93-3.56,14.78,5.51,2.86,13.6-2.3,8.96-4.41-2.1-.95-6.91,3.26-8.36-.79,4.65.28,15.21-.62,9-7.36ZM207.24,589.54h9.53c3.16-5.19-1.12-9.45-6.58-9.26-11.86.41-7.66,20.84,4.74,14.66,1.87-.93,2.42-1.97,2.17-4.08-4.06-.78-7.3,3.84-9.86-1.32ZM118.31,595.29c1.56-1.55.74-4.1-1.51-4.44-5.76-.87-2.19,8.13,1.51,4.44ZM149.38,603.67v19.72c1.11,1.87,2.81.39,4.18.55s2.7.96,4.04.97c12.19.07,8.31-21.51-4.27-15,.16-2.23.98-7.65-2.3-7.27l-1.65,1.03ZM199.35,624.38v-20.7l-1.65-1.03c-3.63-.43-1.97,5.13-2.3,7.27-9.83-6.33-15.89,10.28-7.4,14.31,4.17,1.98,7.09-.93,11.36.15ZM171.73,618.46h10.19c3.69,0-2.07-14.26-10.8-8.17-3.16,2.2-4.84,5.14-3.98,9.02.06.28,3.34,4.24,3.59,4.42,3.27,2.36,12.75,1.38,10.8-3.9-2.02-1.22-8.52,4.23-9.8-1.37ZM223.79,620.33c-.47-3.68-.92-8.32,4.15-7.79,1.82.19,3.27,4.14,5.37.35-3.98-9.17-16.77-2.57-13.54,7.18,1.56,4.7,12.83,7.72,4.59,8.94l-.03,3.26c5.28.28,8.35-3,5.26-7.88,3,.06,3.62-1.92,3.28-4.6-3.93-.09-5.13,3.19-9.09.55ZM248.3,612.25c-2.32-3.33-4.18-4.25-8.36-3.49-6.3,1.14-6.81,7-1.64,5.61,1.58-.42,4.53-4.04,5.76-.19-4.25.56-12.72,3.38-8.61,9.12,2,2.8,6.97.84,9.02.63,1.41-.14,3.29,1.11,4.9.16,1.15-3.97,1.28-8.48-1.06-11.84ZM136.71,609.41c-8.49,1.74-8.77,14.08.68,15.48,12.78,1.9,13.25-18.33-.68-15.48ZM207.24,618.46h9.53c2.53-2.87.04-8.04-3.57-8.92-14.62-3.53-13.85,19.34.9,14.79,2.76-.85,3.46-1.54,3-4.56-3.64-.86-8.66,4.16-9.86-1.31ZM204.28,631.2c-6.99.01-1.56,8.97,2.33,3.35.36-1.54-.62-3.35-2.33-3.35ZM130.97,639.17c-.72,2.33,0,14.8,0,18.4,0,.1,1.02,1.17,1.32,1.31,3.81,1.84,4.09-3.58,3.94-6.24,12.07,6.1,16.64-15.43,2.34-14.44-.99.07-2.02,1.08-2.66,1.04-.58-.03-4.17-2.59-4.95-.07ZM163.11,653.22c1.78-8.76,2.1-16.96-9.42-15-2.98.51-6.21,4.22-2.53,5.13,1.83.45,2.93-1.67,4.51-1.89,1.74-.23,5.46,1.03,2.61,2-3.7,1.26-9.52.2-8.96,6.23.64,6.94,9.79,2.63,13.79,3.53ZM166.47,639.17c-.74,2.4,0,15.35,0,19.06,4.65,3.93,5.28-1.77,4.6-5.58,11.92,6.21,17.8-13.73,4.27-14.53-1.44-.08-2.66.53-3.94.58-1.19.05-4.33-1.48-4.93.46ZM198.69,652.31c.47-1.75,0-7.51,0-9.86,0-5.13-11.34-5.91-13.72-1.84.19,7.53,7.15-3.53,9.11,2.82-4.83-.12-13.63,3.36-8.33,9,3.21,3.42,6.34.53,8.77.35,1.06-.08,3.45,2.18,4.16-.47ZM205.92,652.97c.89-3.12-.66-10.18,0-13.8-4.69-3.1-5.43,3.58-4.58,7.1.07.29,3.74,3.75-.01,4.41v.64c1.4-.07,3.7,4.76,4.59,1.65ZM232.22,647.38c1.45-2.94-.85-7.97-3.91-8.91-12.8-3.93-14.39,14.92-3.62,15.5,2.96.16,9-1.86,5.83-5.26-1.47-.39-8.42,4.29-8.16-1.34h9.86ZM200.01,665.78c.64,1,6.89-1.12,8.75-.07l1.65-2.79-1.52-1.59c-2.06,2.48-3.16-.06-4.5-.03s-5.45,2.8-4.38,4.48ZM149.38,670.39v9.53c0,1.83,3.98,3.94,4.6.65s.17-12.32-3.3-13.78c-4.25-1.78-5.25,1.55-6.87,1.62-1.45.06-2.57-1.78-4.02-1.97-2.05-.27-3.05,1.16-4,1.21-.28.01-4.82-2.5-4.82.44v12.49c0,1.96,2.94,2.27,4.32,1.03,1.16-3.86-1.88-10.49,3.88-11.21,2.14.63.09,9.68,1.73,11.77,9.3,1.02,0-12.3,8.48-11.77ZM171.08,681.24c.45-1.44,0-7.7,0-9.86,0-5.58-14.63-7.51-13.8.33,2.97.83,6.5-3.36,8.54,0-4.31-.12-12.41,4.14-8.35,9.03,2.76,3.33,5.73,1.18,8.17.98,1.36-.11,4.83,1.49,5.44-.46ZM173.71,668.09v13.47c7.55,3.01,2.97-5.32,4.63-9.34.49-1.19,3.33-2.08,4.57-1.83.69.67-1.71,14.17,4,11.55,2.15-1.53-2.29-13.41,5.15-11.48l1.33,11.48c3.41,1.39,3.2-1.23,3.36-3.96.28-4.77.23-13.01-6.79-11.41-1.3.3-2.39,1.86-3.45,1.86-1.2,0-1.75-1.56-2.76-1.86-2.82-.86-5.81,1.86-8.96.59l-1.09.93ZM212.5,682.22v-12.16c0-4.8-13.17-4.24-13.18,0-.01,3.46,5.68.32,7.57.3,1.35-.02,1.94-.36,1.66,1.34-3.99,1.01-9.68.84-9.88,6.25-.26,6.85,10.09,3.39,13.83,4.27ZM220.39,676.31c3.85-.51,11.51,2.12,10.39-4.11-1.35-7.52-12.44-7.9-14.55-.38-3.11,11.08,10.9,13.25,13.71,7.79,2.37-4.62-9.93,2.02-9.55-3.3ZM237.96,677.79c-1.57-1.33-4.7-1.04-5.09,1.51-.91,6,9.18,1.97,5.09-1.51Z" fill="#fff"/>
  <path d="M39.8,750.37c-3.17-4.03-3.26-15.43-2.83-20.49.77-9,4.54-18.67,14.76-19.43h493.14c13.91-.66,14.98,25.99,12.48,34.87-2.72,9.64-9.67,10-18.39,11.19H55.67c-5.23-.37-12.47-1.83-15.87-6.15ZM73.44,728.89h68.38c1.6,0,1.6-4.6,0-4.6h-67.06c-.17,0-.56-.56-.99-.34-1.66.61-1.86,4.46-.32,4.94ZM406.78,728.89h109.14c1.33,0,1.86-5.31-1.28-4.63-31.58-.16-63.16.31-94.74.06-2.67-.02-12.56-1.4-14.11.29-1.27,1.37-.42,3.88,1,4.28ZM109.6,738.09c-1.61,1.12-2.54,3.18-.66,4.6h94.02c1.34,0,1.34-4.6,0-4.6h-93.36ZM460.36,742.69h35.17c1.38,0,1.38-4.02-1.31-4.6-9.9.76-21.22-1-30.94-.04-3.44.34-4.12,1.25-2.92,4.64Z" fill="#fff"/>
  <path d="M282.42,198.21c1.35,1.72,3.23,3.19,4.78,5.41,3.46,4.97,5.97,10.67,9.33,15.7l-4.48,11.33c-7.27-24.77-23.98-46.48-45.36-60.8,6.9,2.67,13.48,7.05,19.36,11.53,7.3,5.57,10.79,9.76,16.37,16.83Z" fill="#fff"/>
  <polygon points="245.7 168.87 246.03 169.2 245.7 169.53 245.7 168.87" fill="#fff"/>
  <path d="M361.08,382.82c-.16.7-1.31,2.36-2.29,2.34-.63,0-1.34-.47-1.71-.97-.93-1.23-.84-14.02-.63-16.51.93-10.99,11.44,5.3,12.53,8.9,1.82-.48.65-1.25.65-1.64v-10.52l2.86-.91c.91.31,1.41,1.52,1.61,2.4.4,1.67-.23,14.71-.5,16.94-.29,2.48-1.42,3.01-3.69,1.65l-8.83-12.53c-.47,3.14.64,7.97,0,10.85Z"/>
  <path d="M356.48,545.83c.15-.46,1.8-1.44,2.4-1.5,3.25-.31,8.36,10.97,10.74,13v-12.16c0-1.39,2.97-.75,3.94-.33v20.05c-5.68,3.63-7.7-9.27-12.49-11.5v10.85l-3.87,1.57c-.02-.53-.73-1.33-.73-1.57,0-3.42-.68-16.34,0-18.4Z"/>
  <path d="M472.19,384.14c-.91,6.27-6.87,8.41-12.52,6.61-.75-.24-4.55-3.62-3.91-4.3,4.28-2.64,9.73,5.36,11.17-1.98-2.63.6-5.79,1.04-8.14-.74-.66-.5-2.98-4.52-3.08-5.44-.28-2.5,1.95-7.15,4.61-7.99,3.35-1.05,6.27.82,9.55-.29.7-.09,2.32,1.32,2.32,1.64,0,3.69.49,9.09,0,12.49ZM466.12,374.11c-3.83-3.85-8.4,4.48-3.79,6.76,3.74,1.85,6.17-4.36,3.79-6.76Z"/>
  <path d="M356.48,215.21c.03-.81-.71-2.4.63-3.33,3.99-2.78,10.4,11.55,12.52,13.52v-12.82c0-1.39,2.97-.75,3.94-.33v19.39c0,.23-1.32,1.41-1.79,1.54-3.4.97-5.73-6.21-7.41-8.59-.79-1.12-3-3.07-3.95-4.45v11.5c0,.24-.78,1.03-.69,1.62l-3.25-.64c.17-5.79-.23-11.63,0-17.42Z"/>
  <path d="M451.81,277c.09-.33,1.32-1.44,1.77-1.54,2.72,1.06,5.14-.46,7.71-.09,1.53.22,2.94,1.77,3.34,1.77.43,0,1.63-1.39,2.77-1.65,2.71-.63,7.42.12,7.42,3.48v11.5c-5.94,2.07-4.97-6.33-4.12-10.22-9.41-4.94-.91,13.14-9.03,10.22v-10.19l-2.29-1.02c-3.59.4-1.83,7.99-2.46,10.41-1.46.93-2.72,1.97-4.27.62-.23-.24-.84-1.27-.84-1.46,0-2.65-.54-9.94,0-11.83Z"/>
  <path d="M326.71,363.58c4.79-1.09,12.26,1.11,10.43,7.11-.29.96-1.78,1.93-1.62,2.83.12.67,1.85,1.73,2.26,3.01,2.9,8.92-11.3,12.1-15.13,5.93-3.27-5.27,1.65-6.97,1.62-8.83-.01-.82-1.12-1.66-1.29-2.68-.51-3.05.41-6.62,3.73-7.38ZM332.74,367.44c-.71-.94-7.59-.88-5.53,3.22,1.76,3.51,7.59-.5,5.53-3.22ZM326.33,381.08c2.19.9,5.26,1.56,6.82-.56,2.49-4.93-8.99-7.52-6.82.56Z"/>
  <path d="M369.63,469.59c.18-.64,1.93-1.98,2.87-1.6l1.62,2.42c-1.26,3.03.34,17.87-1.16,18.95-.85.61-2.26.39-3.05-.34l-8.83-12.53v11.5c0,.68-2.96,2.94-3.84.55.65-2.94-1.79-18.74-.02-19.85.75-.47,2.79-.12,3.58.52l8.83,11.87c.55-3.08-.75-8.83,0-11.5Z"/>
  <path d="M408.83,292.17c.34-.17,2.04-1.58,1.56-2.35-.67-.54-6.54,2.49-9.77-1.73-1.17-1.53-.8-3.71-2.7-4.65v-1.71c1.72-.79,1.35-2.44,2.3-3.73,3.52-4.79,7.65-1.33,12.35-2.55.78.28,1.39.89,1.63,1.68.47,1.53.4,11.67.15,13.68-1.21,9.69-16.09,6.65-14.43,1.38.92-2.9,4.56,2.17,8.91-.03ZM409.38,280.98c-5.47-7.79-9.34,5.5-3.16,6.06,1.79.16,2.8-2.04,4.15-2.97.65-2.42-.38-2.22-.99-3.09Z"/>
  <path d="M374.89,517.9v-10.19c-9.09-5.41-.21,13.09-8.55,10.19v-10.19c0-.33-1.8-1.44-2.4-1.49-5.37-.51-.99,10.14-4.17,12.06-1.19.72-3.29-.95-3.29-2.02v-11.83c0-1.62,8.36-1.83,9.9-1.35.89.28,1.73,1.47,2.38,1.58,1.15.19,4.31-3.97,8.74-.87,2.85,1.99,4.21,17.66-2.61,14.12Z"/>
  <path d="M378.83,260.56c-.5,1.67-3.41.81-4.28-.33l-.42-9.46c-8.76-4.23-.43,12.49-7.83,10.49l-1.29-11.56-4.02,1.05c-1.75,2.35,1.67,13.64-4.52,9.8v-14.13c2.75,1.23,6.07-.73,8.07-.53,1.5.15,2.97,1.77,3.99,1.71,1.36-.08,2.57-1.99,5.28-1.82,1.64.1,5.02,1.91,5.02,3.59,0,2.45.5,9.49,0,11.17Z"/>
  <path d="M420.91,370.66c1.96-1.12,3.73-.01,5.43-.15,1.15-.09,2.38-.91,3.55-.94,11.97-.31,8.79,21.2-4.37,14.9l-.1,5.81c-1.89,1.29-2.73-.06-4.51-.56v-19.06ZM431.34,381.08c1.52-.94,1.6-10.28-3.86-7.48-4.12,2.92-.1,9.94,3.86,7.48Z"/>
  <path d="M327.36,544.33c13.74-3.15,14.12,19.44,5.64,21.4-14.63,3.39-13.51-19.6-5.64-21.4ZM330.64,547.61c-6.26.06-6.29,15.3-.09,14.94,5.26-.3,4.29-14.98.09-14.94Z"/>
  <path d="M332.81,481.75c-4.92.58-11.08.06-11.08-6.25,0-9.89,18.49-11.5,16.28,4.54-.75,5.44-8.3,13.49-13,8.5-.89-3.36,8.38-1.86,7.8-6.79ZM327.06,477.64c3.04,2.97,8.96-.86,5.82-4.84s-9.08,1.65-5.82,4.84Z"/>
  <path d="M398.12,411.89c.05.21,1.97.41,1.07,3.66-.13.47-1,.37-1.25.95-.48,1.12.67,3.27-1.69,3.49-3.51.34-2.05-4.39-2.3-6.61-8.32,4.34-15.13-4.46-10.16-11.81,2.92-4.32,9.1-1.84,13.5-2.38,1.33.95.22,10.09.83,12.69ZM388.14,402.97c-4.54,11.75,10.47,9.07,4.09,0h-4.09Z"/>
  <path d="M356.67,318.27c2.98-3.93,16.8-2.69,12.59,3.75-3.29-1.08-6.66-3.97-9.49-.3-.45,2.84,12.42,2.27,11.14,11.1-.83,5.74-9.21,5.92-13.35,3.57-2.44-1.39-4.65-4.04-.75-5.18,1.68,2.17,9.49,4.41,9.96,1.02.57-4.11-8.01-3.11-10.22-6.66-1.1-1.77-1.14-5.63.12-7.3Z"/>
  <path d="M326.24,220.13c17.43-4.83,12.03,19.67-1.48,12.47-3.7-1.97-3.72-8.92-2.82-12.48.97-3.82,8.02-10.32,11.89-7.23,2.15,3.47-7.08,4.33-7.59,7.24ZM332,223.59c-2.07-2.07-6.93-.97-6.39,3.39.86,7.02,10.68.91,6.39-3.39Z"/>
  <path d="M460.35,260.9c-4.28,1.52-10.24.95-11.13-4.31-2.01-11.86,6.21-10.76,14.79-9.53.08,2.73.96,5.52.99,8.23.02,1.63-.48,10.12-.8,11.1-.25.77-.76,1.1-1.55,1.13-3.44.42-2.08-4.35-2.3-6.61ZM453.94,250.51c-3.32,3.43,1.53,10.72,5.47,6.47,4.24-4.57-2.91-9.12-5.47-6.47Z"/>
  <path d="M457.65,331.15l-10.44.74c2.63,5.11,7.4-1.52,10.51,1.64.49,1.59-2.74,3.63-3.91,3.96-12.9,3.67-15.72-13.08-5.16-15.7,5.31-1.32,10.8,3.87,9,9.36ZM453.12,327.93c.1-2.67-3.92-2.61-5.25-.97-.04,2.07,4.12.52,5.25.97Z"/>
  <path d="M413.02,336.15c-.88,3.12-4.2.67-4.95.61-1.12-.1-2.89,1.26-5.18,1.02-3.01-.32-6.39-3.19-4.77-6.33,1.85-3.58,9.6-4.24,9.61-5.15-2.36-3.31-5.94,2.11-7.9.69-3.55-2.56,5.11-8.91,11.24-3.36.43.39,1.94,2.35,1.94,2.66,0,2.28.46,8.22,0,9.86ZM402.51,333.85c2.64.26,5.5.13,5.25-3.28-1.89.9-5.21.28-5.25,3.28Z"/>
  <path d="M378.18,331.22c1.02,5.88,7.36-.05,9.79,1.39,1.89,6.93-12.45,6.27-14.01,1.22-1.86-6.04.97-12.8,7.82-12.51,6.27.27,9.18,9.91,5.93,9.91h-9.53ZM383.44,325.97c-1.81-.01-4.7-.62-4.6,1.96h4.6s0-1.96,0-1.96Z"/>
  <path d="M389.83,219.01c2.29,1.84,3.08,11.33,1.55,13.35l-1.17.83c-2.9-1.4-4.97.62-7.16.72-6.06.28-8.97-6.96-2.38-9.62,2.08-.84,5.27-.38,6.7-2.16-2.47-2.43-8.56,2.58-9.8.59-2.37-3.79,8.26-6.92,12.26-3.7ZM388.04,226.72c-2.39.17-7.16-.13-6.57,3.28,2.57.16,5.85-.48,6.57-3.28Z"/>
  <path d="M468.25,545.17c4.62-3.62,4,2.83,3.95,6.24,8.94-4.9,12.53,5.38,10.22,12.52-1.01,3.11-4.96,1.97-4.96.95v-9.86c0-1.42-2.78-2.05-4.25-.3-2.52,3.01,1.08,11.7-3.31,11.19l-1.65-1.03v-19.72Z"/>
  <path d="M401.19,437.05c.79,6.48,5.35.85,8.2,1.29l1.03.34c2.75,1.88-2.98,4.73-4.93,4.96-7.7.93-11.22-4.38-8.92-11.54,2.63-8.17,17.97-3.79,14.48,4.96h-9.86ZM406.44,433.76c.1-2.67-3.92-2.61-5.25-.97-.04,2.07,4.12.52,5.25.97Z"/>
  <path d="M461.67,517.57l-1.01.99c-4.36-2.61-9.24,3.93-12.83-2.27-4.23-7.29,8.21-7.24,9.24-8.26,1.44-1.44-1.8-1.36-2.33-1.34-2.61.09-6,3.09-6.86-.26-.51-4.95,13.79-4.77,13.79-.03v11.17ZM451.82,515.26c2.4.34,6.22-.92,5.91-3.94-2.17,1.24-6.45.44-5.91,3.94Z"/>
  <path d="M409.35,582.69c5.05,6.59-1.73,6-6.53,6.19-1.01.04-2.6-.61-2.29.98,3.07,3.23,8.38-3.23,9.85,2.3-5.66,5.08-15.08,3.72-15.11-4.92-.02-8.1,9.12-11.01,14.07-4.55ZM405.79,583.63c-2.21-.74-3.74-1.23-5.24.98-.04,1.27,5.76,1.91,5.24-.98Z"/>
  <path d="M387.38,479.11c-1.81-3.74-8.91,2.13-9.85-1-1.22-4.05,12.63-7.46,14.3,1.49.34,1.84.55,7.79-.45,9.11l-1.17.83c-3.5-1.02-13.29,2.21-13.3-4.17,0-5.2,6.81-5.34,10.46-6.26ZM387.38,483.06c-2.29.25-6.51.04-5.91,3.28.62.61,7.32-.72,5.91-3.28Z"/>
  <path d="M395.93,260.56c-.55,1.85-3.1.26-4.28.33-2.75.16-7.49,2.06-9.46-1.05-3.59-5.67,4.25-9.28,9.13-8.15l-.98-1.71c-2.63-.88-9.6,4.35-8.11-1.11s13.7-2.93,13.7,1.18c0,2.32.48,8.92,0,10.52ZM391.98,254.98c-1.21.14-6.96.29-6.57,2.29.44,2.25,7.03.81,6.57-2.29Z"/>
  <path d="M433.23,581.16c.87.96,3.17,14.51-1.3,13.52-3.87-.86-1.52-.28-4.82.09-8.22.93-10.69-6.78-2.43-9.67,1.51-.53,3.57.51,4.76-1.16.43-1.55-2.31-1.12-2.98-1.01-2.23.39-6.77,3.65-5.91-1.31,2.87-2.75,10.01-3.41,12.67-.47ZM430.12,588.23c-1.15.12-5.44.4-5.26,2.28s5.53-.19,5.26-2.28Z"/>
  <path d="M439.32,285.21c1.11,6.54,9.44-2.21,9.77,3.51-1.03,3.83-14.62,4.74-14.39-5.78.26-12.14,19.53-9.02,14.15,2.27h-9.53ZM445.89,281.26c-1.1-2.16-4.9-2.86-6.57-.97.34,2.17,5.14.45,6.57.97Z"/>
  <path d="M498.43,565.83c-3.99-1-13.27,2.64-14.28-3.7-.73-4.57,6.11-6.46,9.74-6.11v-1.97c-3.85-1.17-5.81,3.2-9.11,1.22-2.06-3.2,7.55-7.37,12.08-3.21,2.4,2.2,2.86,10.61,1.57,13.77ZM494.54,559.31c-2.29.25-6.52.04-5.91,3.28,2.6.39,5.52-.22,5.91-3.28Z"/>
  <path d="M390.5,552.24c1.88,1.98,1.98,10.02.89,12.71-.58.76-7.41,1.04-8.95.98-6.6-.24-6.49-7.01-1.79-9.08.5-.22,8.6-1.22,6.73-2.8-3.03-2.49-8.91,4.67-9.76.23s9.94-5.13,12.87-2.04ZM387.38,559.31c-2.35,0-6.45.04-5.91,3.28.62.62,7.32-.72,5.91-3.28Z"/>
  <path d="M437.35,559.97c1,5.75,6.74-.06,9.22,1.62,3.95,2.67-5.85,5.63-9.87,3.95-1.74-.73-4.57-6.05-4.69-7.89.03-.56,2.35-4.9,2.67-5.27,3.89-4.42,13.37-1.78,13.21,4.66-.12,5.19-7.37,1.73-10.55,2.94ZM443.26,556.01c-1.23-2.67-4.22-2.69-5.91-.32l5.91.32Z"/>
  <path d="M432.37,403.27c.09.18.88.19,1.01.73,1.64,6.35-6.64,3.55-10.5,4.14.13,6.09,10.32-1.48,9.1,3.5-1.03,4.22-10.41,3.42-12.72.44-6.71-8.67,7.46-19.74,13.1-8.8ZM428.14,404.84c-.18-3.17-4.14-2.24-5.25-.32l5.25.32Z"/>
  <path d="M387.38,374.6c-1.6-3.69-9.21,2.08-9.85-.99-.72-3.44,12.91-7.43,14.42,2.03.27,1.71.36,7.34-.56,8.56l-1.17.83c-3.5-1.02-13.29,2.21-13.3-4.17,0-5.5,6.92-4.82,10.46-6.26ZM387.38,378.55c-2.29.25-6.51.04-5.91,3.28.83.81,6.19-1.15,5.91-3.28Z"/>
  <path d="M506.38,379.21h-9.86c1.18,6,7.94-.15,9.2.66,1.53,8.45-13.05,7.47-13.82-.98-1.17-12.87,18.11-11.73,14.48.32ZM498.98,373.38c-.72.09-3.3,1.38-1.81,2.22,4.9,2.03,5.66-2.68,1.81-2.22Z"/>
  <path d="M360.43,437.05c1.7,6.61,6.01.49,8.78,1.37,4.49,1.42-3.54,8.68-9.77,4.55-3.11-2.06-3.29-5.46-2.98-8.91.93-10.32,18.6-7.22,13.51,2.99h-9.53ZM366.34,433.76c1.63-1.43-5.4-3.8-5.91-.32l5.91.32Z"/>
  <path d="M409.38,221.82c.17.24.75.34.96.81,3.81,8.6-11.21,16.17-15.58,6.89s8.2-16.8,14.61-7.7ZM401.68,221.56c-.85.15-2.06.78-2.35,1.65-1.96,11.38,10.51,6.89,4.86-1.15-.75-.73-1.56-.66-2.51-.5Z"/>
  <path d="M489.29,255.63v1.95c3.41,1.4,5.5-.39,8.79-.58,2.13,1.16.35,3.18-1.08,4.04-4.06,2.41-10.24,1.15-11.8-3.61-4.38-13.37,16.93-15.78,13.96-1.79h-9.86ZM495.2,252.34c.21-4.24-8.88-.49-4.94,0,1.54.2,3.35-.13,4.94,0Z"/>
  <path d="M443.26,379.21c2.76,4.73,5.88.86,8.86,1.29,4.49.64-1.54,5.29-5.17,5.23-10.59-.17-11.06-16.88,1.28-15.77,4.52.41,7.47,5.37,4.57,9.25h-9.53ZM443.93,375.92c1.93-.19,4.45.76,5.9-.98-.89-2.24-7.6-.39-5.9.98Z"/>
  <path d="M470.88,404.18c-1.05-4.7-9.17,1.75-9.86-1.65s10.72-6.11,13.42-.92c1.01,1.93,1.85,11.14.43,12.16-4.69-.51-15.37,2.88-13.84-5.29.77-4.07,6.83-3.36,9.85-4.31ZM470.87,407.47c-.22-.23-3.45.53-4.09.84-5.08,2.43,4.17,5.34,4.09-.84Z"/>
  <path d="M414.34,241.5l1.65-1.03c3.45-.41,2.08,4.34,2.3,6.61,3.21-.67,5.67-2.28,8.71-.01.29.22,1.81,2.17,1.81,2.31v11.17l-1.65,1.03c-5.07.6.47-11.38-4.62-11.88-7.2-.7-1.65,12.46-6.55,11.88l-1.65-1.03v-19.06Z"/>
  <path d="M478.98,411.86c-7.34-8.23,7.62-18.36,13.26-10.3,6.55,9.36-6.58,17.79-13.26,10.3ZM485.67,402.44c-3.96,0-4.28,8.24,0,8.99,4.31-1.45,4.45-7.73,0-8.99Z"/>
  <path d="M409.37,555.08c.11.23.87.3.98.76,2.09,8.82-11.66,14.63-15.59,6.28-4.42-9.39,9.19-17.82,14.61-7.03ZM400.03,561.77c1.38,1,3.89,1.33,4.77-.5.54-1.84.95-5.94-.98-6.91-5.19-1.77-5.55,3.82-3.79,7.4Z"/>
  <path d="M386.07,511.98c.58,5.85,10.94-1.45,9.76,3.5-1.1,4.65-14.63,6.09-13.74-5.83.79-10.68,18.72-8.12,13.51,2.33h-9.53ZM392.64,507.39c-2.5-.79-5.66-1.65-5.25,1.96,1.93-.09,5.3.85,5.25-1.96Z"/>
  <path d="M496.29,476.06c1.8,1.82,1.97,4.67,1.25,7.04l-9.19.6c-1.96,5.51,7.94.46,8.81,1.33.67,6.55-11.35,5.99-13.31,1.14-3.65-9.05,6.3-16.31,12.42-10.12ZM493.89,480.43c-.3-3.29-4.26-3.54-5.91-.97-.73,1.86,5.15.65,5.91.97Z"/>
  <path d="M446.55,260.56c-1.34,2.13-3.58.26-4.97.41-2.62.28-3.2,2.36-6.84.21s-4.32-10.33-3.22-13.67c.59-1.77,5.17-1.71,5.17.57v9.53c7.92,2.88,3.91-9.52,5.87-10.89.99-.69,3.99-.27,3.99.7v13.15Z"/>
  <path d="M407.54,476.05c.19.2,2.85,4.41,2.89,4.68.59,3.6-3.15,8.51-6.94,8.92-13.79,1.5-11.87-18.64.86-15.35.79.2,2.61,1.16,3.18,1.75ZM400.03,485.53c5.32,2.92,6.82-4.12,3.79-7.4-5.19-1.77-5.56,3.82-3.79,7.4Z"/>
  <path d="M409.35,374.35c.1.19.91.21,1.02.72,2.15,9.52-11.66,13.75-15.38,6.71-5.3-10.05,9.12-17.16,14.36-7.43ZM401.68,373.4c-3.35.58-3.02,5.05-1.83,7.46,1.65,1.28,3.47,1.16,4.95-.34.77-2.89,1.06-7.85-3.13-7.13Z"/>
  <path d="M442.44,474.01c12.37-2.16,12.12,15.75,1.77,16.23-9.77.45-11.14-14.59-1.77-16.23ZM442.41,477.92c-3.55,1.1-3.15,10.14,3.02,8.3,2.97-.89,3.22-10.23-3.02-8.3Z"/>
  <path d="M468.25,247.42l1.65-1.03c4.91-.58-.05,10.78,4.07,11.8l1.89-.54c3.31-1.99-.84-14.57,5.56-10.9,2.26,1.29,1.33,11.99.6,14.73-3.54-.89-13.75,2.63-13.75-3.55v-10.52Z"/>
  <path d="M464.3,478.79c-.48-1.54-4.22-1.35-4.93.33-1.37,2.8,1.92,13.79-4.83,9.43v-13.94c3.31,1.04,6.67-1,9.26-.63,1.32.19,5.1,2.04,5.1,3.49v11.5h-4.6c-.5-2.65.69-7.98,0-10.19Z"/>
  <path d="M413.68,517.9c-2.07.98-2.74-.03-4.6-.66v-9.53c0-.98-3.07-1.58-4.28-.33-2.18,2.27.61,10.28-2.72,11.04-.52-.04-1.47-.19-1.81-.46-.66-.51-3.16-15.26,1.79-14.97,2.49.15,2.12-.11,4.11-.18s7.52.1,7.52,2.93v12.16Z"/>
  <path d="M453.78,402.87l-2.83-.57c-4.19,1.38-1.27,10.19-3.05,11.47-.65.6-3.99-.18-3.99-.38v-13.8c2.09-1.41,3.42.35,4.29.4.66.04,1.67-1,2.66-1.03,2.57-.08,7.52-.03,7.52,3.59v10.52c0,1.34-4.6,1.34-4.6,0v-10.19Z"/>
  <path d="M360.89,399.07c14.46-3.35,13.87,18.93.17,15.32-6.89-1.82-6.52-13.85-.17-15.32ZM366.8,409.91c2.95-3.63-1.13-8.72-5.62-6.94-1.05,2.44-1.27,5.47.21,7.8,1.3,1.42,4.43.34,5.4-.86Z"/>
  <path d="M469.57,506.73c.1,2.51,4.09,1.88,5.97,3.56,7.96,7.14-11.7,14.18-11.23,3.01,2.79-1.25,4.82,1.83,6.22,1.93.6.04,2.73-.41,2.33-1.6-.54-1.62-10.14-1.38-8.28-7.58,1.46-4.86,12.38-3.99,12.07-.3-.23,2.73-5.49.75-7.08.98Z"/>
  <path d="M422.23,276.67v9.53c0,2.12,4.42,2.36,5.22-2.01.52-2.85-1.48-11.28,3.98-7.85v13.8c0,.47-1.11.9-1.66,1.02-1.96.42-1.62-1.39-1.97-1.38-1.67.05-3.15,2-6.54,1.33-.96-.19-3.64-2.56-3.64-2.94v-11.83c0-2.01,3.72-.03,4.6.33Z"/>
  <path d="M478.77,370.66v9.86c0,.25,3.67,2.16,4.51,1.22,1.95-1.18-1.39-15.52,5.35-10.75v13.15l-1.09.93c-3.03-1.15-4.88,1.01-7.72.69-1.43-.16-5-2.13-5-3.6v-11.17c0-1.39,2.97-.75,3.94-.33Z"/>
  <path d="M423.64,428.62c.11-.17,1.86-.8,2.14-.73,1.7.42,2.32,13.46,1.02,15.73-3.77-2.01-6.75,1.28-10.49-.33-4.01-1.72-4.68-14.52-1.55-15.34,4.51-1.19.75,12.4,5.15,12.16,5-.28,2.85-10.12,3.72-11.48Z"/>
  <path d="M378.83,594.14h-4.6v-9.53c0-.62-.72-1.65-1.65-1.72-5.72-.39-4.1,7.67-4.27,11.25-6.55,1.65-3.69-10.41-3.23-14.41,4.45,1.39,7.72-2.39,11.83.88.39.31,1.92,2.44,1.92,2.68v10.85Z"/>
  <path d="M405.85,410.7c8.46,1.16,3.18-7.26,6.49-11.47,4.57-2.83,3.59,12.09,2.73,14.44-.81,1.12-3.14-.2-4.27-.06-3.47.42-7.42,2.82-9.18-2.95-.87-2.84-1.6-14.94,3.4-10.63l.82,10.68Z"/>
  <path d="M464.3,564.89l-1.65,1.03c-4.85.57-.13-11.57-3.94-11.94-6.37-.62-4.69,7.61-4.93,11.9l-3.17-.11c-.12-.46-.77-1.29-.77-1.53v-12.49c0-2.36,4.33-.46,4.81-.48,1.35-.06,2.58-1.33,4.65-1.15,1.42.12,5,2.17,5,3.6v11.17Z"/>
  <path d="M393.29,432.44c-2.64.41-5.7-1.96-7.88.34,4.09,1.28,10.21,1.72,8.4,7.75-1.55,5.16-13,3.56-13.03-.52-.03-4.43,7.66,2.44,9.22-1.31-2.18-2.47-6.03-.84-7.8-4.02-4.23-7.6,11.64-10.04,11.09-2.23Z"/>
  <path d="M391.98,290.47v-10.19c0-.28-1.62-1.75-2.3-1.66-.45,0-3.17,1.86-3.4,2.2-1.92,2.86.87,10.17-3.17,9.7l-1.65-1.03v-12.49c0-2.81,4.03-.6,4.29-.58,1.8.15,5.82-3.8,9.18.92,1.52,2.13,2.88,15.67-2.95,13.13Z"/>
  <path d="M356.48,277.65c.3-4.3,2.23-1.35,3.63-1.24,2.02.16,4.28-2.89,8.46-.32s3.18,17.3-1.5,14.31c-1.91-1.22,1.58-9.36-1.17-11.16l-4.13.41c-3.14,2.76.88,11.39-3.64,10.86l-1.65-1.03c.2-3.92-.27-7.92,0-11.83Z"/>
  <path d="M398.97,256.53c-.64-1.25-2.19-.55-1.33-4.09.19-.78,3.25-4.78,3.97-5.26,7.04-4.66,13.87,3.11,9.68,4.46-2.17.7-4.83-3.51-7.48-.94-1.23,1.2-1.12,6.35.66,7.24,3.51,1.75,5.28-3.87,7.97-.7,2.85,3.37-7.76,7.53-11.93,2.69-.9-1.05-.95-2.26-1.54-3.41Z"/>
  <path d="M337.09,316.11c.97.32,1.51,2.26,1.38,3.31-.11.93-6.08,16.34-6.67,17.05-1.46,1.76-4.9.99-4.91-.93-.02-2.63,6.8-11.66,6.58-15.48h-9.2v-3.94c2.55,0,11.23-.52,12.82,0Z"/>
  <path d="M434.65,479.05c-1.42,2.21-5.53-1.88-8.03-1.28-1.63.39-2.91,7.39.68,8.48,3.19.96,4.49-3.22,6.8-1.58,3.57,2.53-4.24,7.52-10.42,3.83-8.07-4.81-1.27-17.65,8.02-13.91,1.58.64,4.12,2.64,2.96,4.46Z"/>
  <path d="M422.81,498.91c-1.41,5.61,3.27,2.94,3.89,5.61s-2.42,1.99-3.17,2.5c-1.08.74-.86,6.2-.06,7.2.56.7,3.68.33,3.98,2.11.46,2.68-6.69,3.3-8.44.51s.02-7.17-.68-9.71c-.16-.6-5.55-1.35-2.25-3.63,2.29-1.58,2.54-.07,2.29-4.59h4.45Z"/>
  <path d="M425.51,326.29c-.25-.78-3.35-1.28-2.63-3.28.35-.96,2.27-.79,2.51-1.1.36-.47.02-2.21.41-3.21,1.41-3.6,4.93-3.44,8.26-3.26l.02,2.92c-2.27.65-3.62,0-4.6,2.68l4.59.98-.62,3c-6.3-.59-3.25,7.22-3.79,11.27-.76,1.88-2.91,2.16-4.14.52-.52-2.67.71-8.33,0-10.52Z"/>
  <path d="M476.73,469.98c.75.85.57,4.36.73,4.52.39.37,10.8,1.06-.05,4.34l.32,6.89c11,1.27.44,6.69-3.29,2.63-3.67-3.99,1.15-10.12-4.22-11.56-.38-1.39,2.06-1.87,2.44-2.47,1.01-1.62-.15-5.32,4.07-4.35Z"/>
  <path d="M384.01,579.78c.48.3,1.94,7.19,3.39,8.44,3.32-2.14,1.26-9.9,6.11-8.56,2.19.72-1.58,10.76-2.51,12.51-1.18,2.22-4.06,4.2-5.93,1.98-.41-.49-4.47-10.86-4.66-11.81-.54-2.73,2.01-3.57,3.59-2.56Z"/>
  <path d="M319.01,544.85v20.05l-4.6.99v-15.45l-.96-.82c-2.1.93-5.18.82-4-2.16,3.02-1.78,5.97-3.76,9.56-2.61Z"/>
  <path d="M426.86,550.07c.99.13,3.56.1,3.94,1.11,1.14,2.99-2.17,2.22-3.32,3.19-1.34,1.11-.72,6.42.1,8.13l3.85.1c.85,5.23-7.69,4.4-8.51-.37s2.11-7.49-3.33-9.83c-.27-1.68,2.41-1.43,2.97-2.28.83-1.25.06-6.36,3.95-3.98l.34,3.93Z"/>
  <path d="M391.33,340.43v-17.42l1.65-1.03,2.29,1.03v19.06c0,.21-1.87,1.99-2.44,2.16-6.32,1.9-8.11-4.42-1.51-3.8Z"/>
  <path d="M416.97,579.68v19.39c0,5.08-16.01.49-3.98-1.67.67-.67-.68-14.19.12-16.64.5-1.52,2.57-1.06,3.85-1.08Z"/>
  <polygon points="460.36 317.09 462.01 316.06 464.3 317.09 464.3 336.81 462.65 337.84 460.36 336.81 460.36 317.09"/>
  <path d="M436.69,503.44l9.43-.7c2.65,4.28-1.72,3.25-3.72,4.11-2.69,1.15-1.43,8.46-1.85,10.95l-3.86.09v-14.46Z"/>
  <path d="M378.83,288.83c-.55,3.27-5.26,1.11-5.26,0v-12.49c0-1.7,5.26-1.01,5.26.66,0,3.36.51,8.83,0,11.83Z"/>
  <path d="M433.4,503.44v13.8c-.88.35-4.6,2.34-4.6.33v-11.83c0-.24-.63-.89-.21-1.44.96-2.39,2.89-1.34,4.81-.86Z"/>
  <path d="M439.98,337.14c-.06.1-1.91.41-2.34.64-2.61-.03-2.51-9.96-2.2-12.08.43-2.94,1.7-5.27,4.54-2.69,0,2.06.37,13.53,0,14.13Z"/>
  <path d="M361.08,592.5c-.09.56-.82,1.4-.72,2.22l-3.55-1.24.25-13.42c.76-1.05,4.02-.21,4.02.6-.42,3.62.58,8.39,0,11.83Z"/>
  <path d="M389.35,212.26c.38,5.51-4.54,4.56-8.4,4.42-2.57-.1-2.79-1.31-1.18-3.16,2.02-2.32,6.63-.52,9.58-1.26Z"/>
  <path d="M462.99,397.61c-.66-.6,1.96-4.19,3.11-4.5,2.4-.64,3.74,2.45,5.78.06,5.41,5.6-5.28,4.46-8.88,4.44Z"/>
  <path d="M390.01,544.85c.17,6.68-5.56,3.5-9.85,4.59-.56-6.97,5.47-3.09,9.85-4.59Z"/>
  <path d="M379.49,368.03c-.2-1.52.13-3.35,1.78-3.83.92-.26,8.59-.12,8.72.87.49,3.92-8.23,2.6-10.5,2.96Z"/>
  <path d="M389.35,468.6l-.75,3.84-8.44-.24c-.36-5.6,5.64-2.73,9.2-3.6Z"/>
  <path d="M430.87,438.46c3.85-2.44,7.88,4.47,2.81,5.18-3.97.55-4.29-4.24-2.81-5.18Z"/>
  <path d="M344.56,484.46c.87.55,2.11,5.57-2.15,5.16-6.44-.62-1.27-7.33,2.15-5.16Z"/>
  <path d="M478.21,285.97c3.12-1.97,7.38,2.77,3.85,4.84-3.92,2.3-5.9-3.54-3.85-4.84Z"/>
  <path d="M340.14,561.38c4.11-2.6,8.03,5.09,2.2,5.1-3.29,0-3.66-4.17-2.2-5.1Z"/>
  <path d="M478.96,517.69c-2.75-3.25,4.59-6.17,5.66-1.97.62,2.43-3.25,4.83-5.66,1.97Z"/>
  <path d="M339.86,332.65c5.18-1.54,5.34,5.85.55,5.16-2.93-.42-3.18-4.38-.55-5.16Z"/>
  <path d="M443.73,268.85c1.18-.27,1.89.4,2.53,1.25,1.21,2.57-5.57,6.47-6.93,2.94,1.15-.8,3.29-3.94,4.4-4.2Z"/>
  <path d="M341.08,380.88c.27-.23.27-1.01.67-1.03,2.67-.14,4.97,2.59,2.9,4.95-1.57,1.79-7.68-.34-3.58-3.92Z"/>
  <path d="M344.65,228.03c1.39,9.55-9.61,2.71-4.6.33,1.37-.65,3.12-.27,4.6-.33Z"/>
  <path d="M367.65,421.93c.71,3.26-4,6.99-6.57,4.25.7-3.24,3.42-4.67,6.57-4.25Z"/>
  <path d="M374.67,268.89c5.07-1.75,6.06,4.97,1.19,4.56-3.22-.27-3.43-3.78-1.19-4.56Z"/>
  <path d="M433.23,497.03c2.65,2.47-3.11,5.94-4.78,3.12s2.37-5.36,4.78-3.12Z"/>
  <path d="M470.02,332.61c2.65-.62,4.84,3.99,1.73,5.1-4.46,1.59-4.44-4.46-1.73-5.1Z"/>
  <path d="M438.17,590.37c2.37-2.31,5.98.85,3.84,3.5-2.44,3.02-6.08-1.33-3.84-3.5Z"/>
  <path d="M391.49,319.88c-1.51-1.46-.41-5.05,2.48-4.16,4.44,1.36.56,7.12-2.48,4.16Z"/>
  <path d="M358.9,572.56c2.95-.15,3.5,6.71-1.34,5.07-2.09-.71-1.32-4.94,1.34-5.07Z"/>
  <path d="M414.15,573.23c5.56-1.67,3.79,6.27-.46,4.16-1.97-.98-1.58-3.55.46-4.16Z"/>
  <path d="M439.88,316.21c1.48,2.39-1,5.99-3.56,3.91-3.37-2.73,2.06-6.34,3.56-3.91Z"/>
  <path d="M176.99,423.9h10.19c.25,0,4.16,1.62,4.62,1.95,4.88,3.5,4.4,13.77-.39,17.4-3.35,2.54-12,3.89-15.08.7v-18.4c0-.22.86-1,.66-1.64ZM181.6,441.65c11.35,1.59,11.52-16.24,0-13.8v13.8Z"/>
  <path d="M136.89,309.86c-.06.36-.68,1.02-.74,1.57-.74.44-3.28-.25-3.88-.9-1.28-1.39-.84-16.36,0-19.09,4.89-5.38,9.48,10.09,12.85,10.84,2.04.46.22-3.66.26-4.92.08-2.24,1.16-4.51.71-6.9,1.18-.08,2.54-.1,3.35.93.88,1.11.86,14.19.63,16.53-1.1,11.54-11-7.11-13.19-8.91-.39,3.32.53,7.68,0,10.85Z"/>
  <path d="M131.63,367.7c.81-2.52,11.19-1.81,13.46-.97,5.75,2.14,4.59,10.83-1.62,11.16,2.28,2.51,5.07,5.49,4.6,9.19-7.66,1.63-5.27-9.81-11.84-8.55v8.55s-4.6-.99-4.6-.99c0-3.49-.7-16.23,0-18.4ZM143.4,370.72c-.39-.63-6.67-1.57-7.09.36-1.78,5.34,8.5,4.86,7.09-.36Z"/>
  <path d="M150.04,488.65c-.75,2.63-7.79,3.2-10.13,2.89-10.72-1.41-12.16-16.26-3.26-20.89,3.8-1.98,15.32-.73,12.31,5.22-2.73.4-4.51-2.08-7.15-2.04-9.02.13-7.09,18.87,4.19,13.07l.1-3.85c-2.41.2-5.33.24-5.26-2.93.56-1.87,7.46-.7,9.2-1.01-.46,2.57.63,7.32,0,9.53Z"/>
  <path d="M149.38,670.39c-8.49-.53.81,12.79-8.48,11.77-1.64-2.09.4-11.13-1.73-11.77-5.76.72-2.71,7.35-3.88,11.21-1.37,1.24-4.32.93-4.32-1.03v-12.49c0-2.95,4.54-.43,4.82-.44.96-.05,1.95-1.47,4-1.21,1.44.19,2.57,2.03,4.02,1.97,1.62-.07,2.62-3.4,6.87-1.62,3.47,1.45,3.89,10.66,3.3,13.78-.62,3.29-4.6,1.18-4.6-.65v-9.53Z"/>
  <path d="M159.57,242.49h10.52c.67,0,4.39,3.47,4.94,4.27,4.53,6.63,1.23,15.55-6.97,16.71-2.66.37-7.81.76-9.47-1.58v-18.4l.99-.99ZM163.19,258.92c12.93,2.77,12.05-14.56,0-12.49v12.49Z"/>
  <path d="M152.67,219.81c.85-2.59,3.92-.39,4.82-.47,1.09-.09,1.94-1.39,4-1.18,1.66.17,2.71,1.77,3.46,1.86,1.22.15,3.48-2.79,7.48-1.57,4.81,1.47,5.06,13.68,2.62,15.19-3.38,2.08-3.71-5.3-3.9-7.33-.15-1.63,1.79-3.75-1.06-4.22-6.86-.85-.47,13.5-6.49,11.81-2.96-.84,1.58-13.14-4.01-11.8-3.75.9-1.37,9.41-2.62,11.22-1.12,1.63-4.31-.15-4.31-1.02,0-2.51-.52-10.92,0-12.49Z"/>
  <path d="M173.71,668.09l1.09-.93c3.15,1.27,6.14-1.45,8.96-.59,1.01.31,1.56,1.86,2.76,1.86,1.06,0,2.15-1.57,3.45-1.86,7.02-1.6,7.07,6.64,6.79,11.41-.16,2.72.04,5.35-3.36,3.96l-1.33-11.48c-7.44-1.93-2.99,9.95-5.15,11.48-5.71,2.62-3.31-10.88-4-11.55-1.24-.25-4.07.65-4.57,1.83-1.67,4.02,2.92,12.35-4.63,9.34v-13.47Z"/>
  <path d="M143.74,215.93c1.46,2.19,7.47,15.31,6.01,17.39-4.1,2.85-3.65-3.24-5.39-3.89-1.09-.4-7.82-.35-8.47.56-.6.84-.1,2.85-1.62,3.64-2.58,1.32-4.82-.27-3.81-3.13l7.24-17.43,3.79-.52c1.15.86,1.5,2.24,2.26,3.38ZM140.82,219.48c-1.41-1.38-2.62,5.16-2.62,5.91h3.94c.35-.34-1.03-5.62-1.33-5.91Z"/>
  <path d="M170.42,594.8v-10.19c0-.44-1.11-.92-1.66-1.01-5.84-.98-2.3,10.22-4.21,11.58-5.87,4.17-.95-11.6-5.65-11.58-3.85.02-1.49,9.67-2.39,11.11-.52.82-4.5,1.1-4.5-.23v-13.15c0-1.66,3.3-.34,4.2-.39,3.92-.23,6.24.76,7.96.69,2.06-.07,5.24-3.12,8.87-.3,2.9,2.25,1.87,13.63.25,14.09-.87.25-1.95-.61-2.87-.62Z"/>
  <path d="M194.09,402.54c.84-2.96,3.55-.36,4.14-.44.52-.07,1.23-1.06,2.15-1.18,3.58-.48,5.21,1.77,5.88,1.77.39,0,2.11-1.76,4.59-1.84,1.69-.05,5.6,1.13,5.6,3.01v12.16l-4.6-.99v-9.86c-1.05-1.72-3-.63-3.82.78-1.53,2.64-.4,7.02-.85,9.98-7.59,2.62-.72-11.39-6.3-11.65-5.11-.24-.45,12.32-5.13,11.77l-1.65-1.03c.6-3.32-.81-9.62,0-12.49Z"/>
  <path d="M143.74,579.42c.1.18.74.28.99.78.93,1.89,4.53,10.45,4.88,12.13.41,1.94.13,2.57-1.92,3.16-3,.28-2.2-2.78-3.08-3.81-1.2-1.41-6.66-.62-8.61-.85l-1.85,4.53c-7.64,1.7-3.41-6.21-1.82-9.89.24-.55,1.1-.62,1.44-1.36,1.79-3.89,2.08-11.7,7.74-9.38.78,1.58,1.37,3.13,2.23,4.68ZM140.17,581.66c-1.28-1.26-2.7,4.5-2.62,5.25h3.94c.25-.24-1.13-5.06-1.32-5.25Z"/>
  <path d="M214.19,308.5c-6.18-7.13,2-15.04,9.48-11.45l.3-5.95c.75-1.07,3.08-.8,4.05-.03,1.46,1.16,1.47,18.36-.06,19.81l-.77.56c-5.8-1.26-8.32,2.47-13-2.94ZM219.55,299.77c-4.1,2.04-3.26,8.75,1.7,8.24,3.31-1.27,3.39-6.19.43-8.01l-2.13-.23Z"/>
  <path d="M215.13,489.96c-.58,3.58-3.94.64-4.95.59-.64-.03-1.65.94-2.65,1.02-14.07,1.23-10.73-20.25,2.99-15.09v-6.57s4.61.99,4.61.99c-.67,5.8.9,13.53,0,19.06ZM206.92,479.39l-2.63,1.06c-4.37,13.89,12.95,5.86,2.63-1.06Z"/>
  <path d="M166.47,639.17c.6-1.94,3.75-.42,4.93-.46,1.28-.05,2.5-.67,3.94-.58,13.53.8,7.65,20.74-4.27,14.53.68,3.81.04,9.51-4.6,5.58,0-3.71-.74-16.66,0-19.06ZM172.55,649.2c1.18,1.14,3.96,1.18,4.77-.5,2.57-13.71-10.26-4.84-4.77.5Z"/>
  <path d="M110.26,574.42c5.29,1.52-6.89,4.89-8.88,3.28v4.6c2.8-1.92,9.87.47,10.51,3.63,2.04,10.12-10.76,13.38-16.32,6.45.37-4.92,4.51-.71,6.3-.32,5.59,1.21,7.03-5.77,3.12-6.48-3.48-.64-4.95,3.86-8.57,1.38l1.03-12.53c3.38.61,9.91-.83,12.82,0Z"/>
  <path d="M130.97,639.17c.78-2.51,4.37.04,4.95.07.64.04,1.67-.97,2.66-1.04,14.3-.99,9.73,20.54-2.34,14.44.14,2.66-.14,8.08-3.94,6.24-.3-.15-1.32-1.21-1.32-1.31,0-3.6-.72-16.07,0-18.4ZM141.33,642.29c-7.95-3.84-6.33,12.04.49,6.41l-.49-6.41Z"/>
  <path d="M136.24,532.37c-.43,3.59,3.51,3.3,5.69,4.48,3.73,2.03,6.03,2.57,5.52,7.68-.78,7.92-18.48,5.68-16.4-.57,1.24-3.73,7.97,4.53,11.13,1.18,2-6.18-11.11-3.84-10.56-12.46.49-7.63,16.56-5.48,15.12-.68-.9,3-8.18-1.95-10.51.36Z"/>
  <path d="M150.03,325.31c-1.89-3.82,2.83-10.77,4.47-5.45.45,1.45.4,19.12-.16,19.94-1.24,1.41-2.96-.08-4.49.1-1.12.13-2.2,1.07-3.48,1.13-11.85.63-9.31-21.35,3.65-15.73ZM143.63,329.42c-3.21,3.7,1.5,9.6,5.07,6.75,5.02-4.01-1.67-10.67-5.07-6.75Z"/>
  <path d="M225.65,499.49v20.38c-4.87.32-13.05,2.38-15.63-3.11-3.59-7.67,3.59-14.87,11.02-10.69v-7.23s4.61.66,4.61.66ZM214.15,514.92c.7.91,1.54,2.02,2.76,2.22,6,.22,4.88-10.1-.68-8.34-1.07.34-4.07,3.92-3.06,5.33.14.51.78.53.98.79Z"/>
  <path d="M146.67,445.51c-1.57.98-3.47-.93-4.21-.97-.58-.03-1.94.99-3.27,1.09-13.24,1.06-9.59-20.48,2.95-14.5-1.48-2.65,1.71-10.41,4.31-6.6.6.87,1.15,20.39.21,20.98ZM138.01,433.87c-3.54,1.08-2.86,8.3.51,8.42,5.11.18,5.03-10.1-.51-8.42Z"/>
  <path d="M173.61,498.94c.22.34.71,6.9.78,8.09.5,8.6,2.19,13.3-7.61,13.51-14.01.3-10.18-19.93,2.98-15.12l.3-6.6c.51-1.07,3.25-.33,3.55.13ZM168.94,509.51c-4.28-3.71-9.81,3.02-5.48,6.48,3.92,3.12,8.97-3.45,5.48-6.48Z"/>
  <path d="M182.25,373.62c.05-.29.72-1.63,1.1-1.7,4.32,1.72,10.21-2.29,13.28,2.45,4.6,7.11-1.47,16.4-9.77,12.07.03,1.23.14,5.92-.76,6.47-1.21.74-3.85.11-3.85-1.54,0-5-.73-13.24,0-17.75ZM187.67,382.33c4.23,4.24,8.87-4.49,4.45-6.76-4.17-2.14-7.03,4.18-4.45,6.76Z"/>
  <path d="M149.38,603.67l1.65-1.03c3.28-.39,2.46,5.03,2.3,7.27,12.58-6.51,16.46,15.08,4.27,15-1.34,0-2.67-.81-4.04-.97s-3.07,1.31-4.18-.55v-19.72ZM159.74,613.37c-8.84-3.73-7.88,12.3.49,6.42l-.49-6.42Z"/>
  <path d="M102.04,307.55l9.48.62c2,4.92-11.06,3.83-13.75,3.33-6.67-1.23,5.94-10.77,7.24-12.48,1.7-2.22,2.54-5.48-1.22-5.12-1.32.12-6.04,6.68-7.61,2.06-2.38-6.99,17.3-7.97,15.48,1.1-.6,3.01-7.5,7.94-9.61,10.49Z"/>
  <path d="M199.35,624.38c-4.26-1.09-7.18,1.83-11.36-.15-8.49-4.03-2.43-20.64,7.4-14.31.33-2.14-1.32-7.7,2.3-7.27l1.65,1.03v20.7ZM194.59,620.28c2.12-3.65.22-8.74-4.45-7.43-3.89,4.31-1.91,10.71,4.45,7.43Z"/>
  <path d="M110.39,368.88c3.11,4.2-1.98,6.51-1.77,7.36,11.2,8.19-8.61,17-12.54,7.25.54-4.75,10.03,4.31,10.59-2.02.37-4.11-5.47-1.71-5.96-5.22-.22-1.54,3.05-1.41,4.34-2.91,4.63-5.38-6.37-2.05-8.27-2.03-1.14-6.94,10.58-6.52,13.6-2.44Z"/>
  <path d="M109.37,482.31c.21.33,3.33.5,3.04,2.4-.21,1.44-2.88,1.51-3.04,1.73-.57.81.9,4.9-2.52,5.06-2.37.11-2.39-3.55-2.18-5.15-8.28-.13-14.53,1.93-7.24-7.37.56-.72,1.57-1.01,2.26-1.86,1.88-2.33,4.64-8.67,8.27-6.89,2.91,1.43.27,10.34,1.41,12.1ZM104.67,483.05c-1.01-2.21-.24-3.76-.32-5.91l-4.28,5.91h4.6Z"/>
  <path d="M248.3,612.25c2.34,3.36,2.21,7.87,1.06,11.84-1.6.95-3.48-.3-4.9-.16-2.05.2-7.01,2.17-9.02-.63-4.11-5.74,4.36-8.55,8.61-9.12-1.23-3.85-4.18-.23-5.76.19-5.17,1.39-4.66-4.47,1.64-5.61,4.18-.76,6.04.16,8.36,3.49ZM244.71,617.81l-4.59.99-.66,2.29c2.33.17,5.7-.16,5.25-3.28Z"/>
  <path d="M198.69,548.46c-1.19,1.64-3.27,1.24-4.28-.33-1.06-2.15,2.93-14.17-3.88-9.79-3.96,2.55,1.14,13.62-5.34,10.46-1.4-1.27-1.48-18.65-.37-20.11,3-3.96,5.06,3.71,4.01,6.3,2.26-2.58,9.85-.56,9.85,2.3v11.17Z"/>
  <path d="M171.08,681.24c-.61,1.96-4.08.35-5.44.46-2.44.2-5.41,2.35-8.17-.98-4.06-4.88,4.04-9.14,8.35-9.03-2.05-3.35-5.57.83-8.54,0-.83-7.84,13.8-5.9,13.8-.33,0,2.15.45,8.42,0,9.86ZM166.47,675.66l-5.9,1.64c1.9,2.88,5.13,1,5.9-1.64Z"/>
  <path d="M184.22,257.61c-.79,5.36,7.81-.1,9.21,1.32.82,4.67-5.48,5.12-8.84,4.56-3.6-.61-6.19-5.71-6.33-8.85,2.02-2.35,1.55-4.43,4.65-5.9,5.44-2.59,11.93,1.13,11.75,7.11-.93,2.76-8.1,1.49-10.44,1.76ZM189.49,253.66c-.87-2.16-3.66-2.86-5.25-.97l5.25.97Z"/>
  <path d="M146.09,262.54l-1.63,1.01c-3.55-1.35-12.32,2.23-12.9-3.62-.62-6.3,5.25-5.16,9.26-7.26.38-1.48-1.51-1.13-2.32-1-2.07.33-3.41,2.08-5.79,1.25-3.32-3.29,4.32-5.43,7.06-5.12,1.7.19,6.32,2.46,6.32,4.23v10.52ZM141.49,256.95c-2.32-.17-5.7.16-5.25,3.28.8.78,5.78-1.15,5.25-3.28Z"/>
  <path d="M153.99,543.53c1.65,5.91,8.55-1.99,9.9,2.31.47,4.28-10.12,5.67-13.09.54-7.17-12.34,12.38-17.74,13.68-7.07.75,6.14-6.54,3.78-10.49,4.21ZM160.56,539.58c-1.41-2.45-4.91-2.81-6.57-.32l6.57.32Z"/>
  <path d="M163.11,653.22c-3.99-.9-13.15,3.41-13.79-3.53-.55-6.03,5.27-4.96,8.96-6.23,2.85-.97-.87-2.23-2.61-2-1.59.21-2.68,2.34-4.51,1.89-3.68-.9-.46-4.62,2.53-5.13,11.52-1.96,11.19,6.25,9.42,15ZM153.32,650.01c2.48.15,6.31.15,5.91-3.28l-5.53,1.25-.39,2.03Z"/>
  <path d="M191.25,582.52c6.21,6.74-4.35,7.64-9,7.36,1.45,4.04,6.26-.17,8.36.79,4.65,2.11-3.44,7.27-8.96,4.41-7.41-3.85-6.11-15.03,3.56-14.78,1.73.04,4.87.96,6.04,2.23ZM187.51,585.59c-.18-3.14-4.1-2.28-5.24-.32,1.4,1.91,3.51.67,5.24.32Z"/>
  <path d="M184.88,490.95c-1.75,1.17-3.02-.42-4-.35-3.07.24-6.77,2.77-9.46-.98-3.92-5.46,4.41-8.76,8.85-8.53-.09-5.59-11.12,4.08-9.1-2.83,1.25-4.28,13.71-2.97,13.71,1.84v10.85ZM180.11,486.85c.69-.51.9-2.37-.15-2.46-.6-.05-3.78,1.32-4.9,1.34l-.04,1.92c.29.3,4.44-.33,5.09-.8Z"/>
  <path d="M193.43,510c-.16-3.54-6.13.23-7.42-.08-4.03-.98-.15-4.7,3.21-5.12,10.02-1.24,10.52,7.24,8.85,14.79-4.11-.71-9.68,3.12-12.91-.99-4.3-5.46,3.74-8.81,8.27-8.61ZM194.08,513.3l-5.26.66v2.62c2.63.26,5.53.13,5.26-3.28Z"/>
  <path d="M181.6,548.46c-.48,1.54-4.22,1.35-4.93-.33l-.43-9.43c-6.71-4.7-3.45,8.17-4.79,10.12-1.33,1.54-4.97.03-4.97-1.68v-11.83c0-2.62,5.1-.43,5.48-.47,1.07-.09,1.88-1.34,3.99-1.17,1.4.11,5.66,2.06,5.66,3.61,0,2.38.49,9.6,0,11.17Z"/>
  <path d="M204.61,381.18c1.72,5.26,6.09.51,9.86,1.32.45,4.57-5.59,6.01-9.37,5.09-7.3-1.77-7.94-15.3,2.49-15.64,4.46-.15,9.83,5.09,6.55,9.23h-9.53ZM210.52,377.88c-1.03-2.39-5.01-3.21-5.91-.32l5.91.32Z"/>
  <path d="M241.42,381.18c-.95,6.09,11.04-2,9.77,3.49-.7,3.02-7.7,3.61-10.25,2.57-.73-.3-4.46-4.61-4.58-4.92-1.16-3.1,1.9-8.9,5.17-9.91,4.09-1.27,9.94.45,10.41,5.22.55,5.53-7.07,3.03-10.52,3.55ZM246.68,377.89c.1-2.67-3.92-2.61-5.25-.97-.04,2.07,4.12.52,5.25.97Z"/>
  <path d="M184.39,229.85c2.05,1.57,6.37-1.87,9.04-.51,2.07,3.64-8.8,7.55-13.19,1.67-.84-1.12-.16-2.76-1.92-3.44v-1.73c2.11-.96.89-2.97,2.29-5.04.9-1.32,3.68-2.57,5.26-2.68,7.02-.47,11.65,8.29,6.54,9.23-.85.16-11.89-.46-8.03,2.5ZM188.82,224.08c.1-2.59-2.79-1.98-4.6-1.96v1.97s4.6,0,4.6,0Z"/>
  <path d="M171.73,618.46c1.29,5.6,7.78.15,9.8,1.37,1.95,5.28-7.53,6.26-10.8,3.9-.25-.18-3.53-4.14-3.59-4.42-.86-3.88.82-6.82,3.98-9.02,8.73-6.09,14.49,8.17,10.8,8.17h-10.19ZM177.65,615.17c-.79-3.54-4.21-3.09-5.91-.32l5.91.32Z"/>
  <path d="M165.06,380.43l-10.42.75c.82,6,9.51-1.32,9.9,2.97.37,3.99-10.21,5.62-13.11.56-7.37-12.9,14.36-19.16,13.62-4.28ZM160.55,377.89c-.17-3.28-4.49-2.05-5.91-.32l5.91.32Z"/>
  <path d="M198.69,652.31c-.71,2.64-3.1.39-4.16.47-2.43.18-5.56,3.07-8.77-.35-5.3-5.64,3.5-9.12,8.33-9-1.96-6.35-8.92,4.71-9.11-2.82,2.37-4.06,13.72-3.29,13.72,1.84,0,2.35.47,8.11,0,9.86ZM194.08,647.39l-4.87.59-.39,2.03,4.62-.31.64-2.31Z"/>
  <path d="M207.24,618.46c1.2,5.47,6.23.45,9.86,1.31.46,3.01-.24,3.7-3,4.56-14.75,4.55-15.52-18.32-.9-14.79,3.61.87,6.1,6.04,3.57,8.92h-9.53ZM212.45,613.26c-2.41-1.07-4.5-.84-5.21,1.91h5.26s-.05-1.91-.05-1.91Z"/>
  <path d="M153.53,303.81c1.45-1.8,6.69-1.94,9-2.17.52-1.44-1.24-1.91-2.29-1.87-2.8.12-5.21,3.94-7.42.24-.28-3.42,12.63-6.79,14.16,1.46.32,1.74.49,7.27-.18,8.71-1.25,2.67-3.12-.02-4.46.15-.82.11-1.97,1.5-3.51,1.62-4.57.36-8.37-4.35-5.3-8.15ZM162.53,304.93c-1.05.09-5.58.47-5.25,2.29.28,1.55,6.61.72,5.25-2.29Z"/>
  <path d="M209.87,310.52c-1.55,2.34-2.74-.08-3.75-.21-.82-.1-1.58,1.08-2.53,1.17-12.62,1.14-9.36-11.6,1.67-9.83.05-5.34-10.72,3.39-9.13-2.83,1.04-4.1,13.74-3.89,13.74,1.85v9.86ZM205.26,304.93l-4.87.66c-1.73,4.11,5.62,3.07,4.87-.66Z"/>
  <path d="M220.39,676.31c-.38,5.31,11.92-1.32,9.55,3.3-2.81,5.46-16.82,3.29-13.71-7.79,2.11-7.51,13.2-7.13,14.55.38,1.12,6.23-6.54,3.6-10.39,4.11ZM226.3,672.36c-.13-3.09-4.59-2.45-5.91-.32l5.91.32Z"/>
  <path d="M265.09,305.59v1.96c2.64,1.91,8.9-3.36,9.26.34.38,3.92-7.26,4.14-9.94,3.31-5.32-1.64-5.48-12.3-.45-14.32,6.04-2.44,13.76,1.11,10.39,8.42l-9.25.29ZM269.64,300.4c-.65-1.01-5.84-.96-4.54,1.9h4.59c-.07-.58.18-1.54-.05-1.9Z"/>
  <path d="M232.15,484.96l-10.44.08c.92,5.12,6.64,1.02,9.87,2.3.4,5.89-12.23,6.12-13.67-.15-3.42-14.84,16.07-15.69,14.25-2.24ZM227.61,481.74c-.13-3.09-4.59-2.45-5.91-.32l5.91.32Z"/>
  <path d="M212.5,682.22c-3.73-.88-14.09,2.57-13.83-4.27.2-5.41,5.89-5.24,9.88-6.25.27-1.7-.32-1.35-1.66-1.34-1.89.02-7.58,3.16-7.57-.3.01-4.24,13.18-4.8,13.18,0v12.16ZM208.55,675.65c-1.24-.06-2.52.1-3.66.6-5.11,2.24,4.25,4.58,3.66-.6Z"/>
  <path d="M136.71,609.41c13.93-2.85,13.46,17.38.68,15.48-9.45-1.4-9.17-13.74-.68-15.48ZM138.63,612.69c-4.32.4-4.45,8.75.45,8.91,4.57-.78,3.74-9.3-.45-8.91Z"/>
  <path d="M211.7,438.86l-10.37.83c2.63,3.95,6.2,1.29,9.85,1.31.42,7.16-11.83,5.51-13.51.03-4.21-13.7,16.6-15.25,14.03-2.17ZM207.23,435.73c.1-2.57-3.38-2.6-4.59-.97l4.59.97Z"/>
  <path d="M202.33,545.8c-5.62-8.21,7.12-16.28,13.11-9.48,7.14,8.12-5.56,20.5-13.11,9.48ZM208.38,537.71c-4.65,1.97-2.43,9.99,2.36,8.36,3.33-2.01,1.95-9.52-2.36-8.36Z"/>
  <path d="M145.23,403.07c.81.76,2.04,4.85,2.05,6.05.03,10.16-17.94,11.39-16.32-1.99.77-6.33,10.03-8.03,14.27-4.06ZM141.33,412.57c1.18-1.19,1.09-5.31.11-6.69-.97-1.48-3.06-1.32-4.56-.71-3.87,3.56.46,11.42,4.45,7.4Z"/>
  <path d="M223.67,410.1c-.22,6.51,9.44-1.13,9.85,2.92-.34,3.61-5.25,4.01-8.22,3.66-8.97-1.05-8.33-18.81,4.31-15.47,3.48.92,6.22,5.86,3.6,8.89h-9.53ZM229.59,407.47c.49-3.82-4-3.1-5.91-.97-.86,1.81,5.23.68,5.91.97Z"/>
  <path d="M232.22,647.38h-9.86c-.26,5.63,6.69.95,8.16,1.34,3.17,3.4-2.86,5.42-5.83,5.26-10.77-.59-9.18-19.43,3.62-15.5,3.06.94,5.36,5.97,3.91,8.91ZM228.27,644.09c-.33-2.94-4.4-3.58-5.91-.97-.73,1.86,5.14.64,5.91.97Z"/>
  <path d="M164.5,439.02h-9.53c-.38.47-1.01.5-.66,1.31,1.43,3.33,8.69-.72,9.52.68,2.49,4.21-10.11,8.01-13.46.64-5.6-12.34,16.15-17.39,14.14-2.63ZM159.9,436.39c.81-4-6.69-3.49-4.92,0h4.92Z"/>
  <path d="M133.86,518.95c-9.71-6.42,3.74-20.59,11.95-10.96,5.5,6.46-3.26,16.71-11.95,10.96ZM141.33,509.51c-4.05-4.08-8.84,4.34-3.6,7.26,4.13,1.64,5.87-4.98,3.6-7.26Z"/>
  <path d="M207.24,589.54c2.56,5.16,5.8.53,9.86,1.32.26,2.11-.29,3.14-2.17,4.08-12.41,6.18-16.61-14.25-4.74-14.66,5.46-.19,9.74,4.07,6.58,9.26h-9.53ZM207.89,586.25l5.25-.98c-1.46-2.45-5.93-2.2-5.25.98Z"/>
  <path d="M188.65,324.81c11.99-2.45,13.09,14.52,3.62,16.16-10.07,1.74-13.24-14.19-3.62-16.16ZM188.27,336.39l5.53-.52c1.58-5.02-.89-9.99-5.96-5.96l.43,6.48Z"/>
  <path d="M223.79,620.33c3.95,2.65,5.16-.63,9.09-.55.34,2.69-.28,4.66-3.28,4.6,3.09,4.89.02,8.16-5.26,7.88l.03-3.26c8.24-1.22-3.03-4.24-4.59-8.94-3.24-9.74,9.56-16.35,13.54-7.18-2.1,3.79-3.55-.16-5.37-.35-5.07-.54-4.62,4.11-4.15,7.79Z"/>
  <path d="M229.59,443.95c-.75,2.65-3.93.97-5,1.05-2.66.22-6.3,1.7-8.45-.75-2.6-2.95-.42-9.86-.92-13.68l2.11-.63c3.99,1.52-.5,11.11,3.4,11.73,6.08.96,2.43-8.4,3.71-10.44.8-1.26,5.15-1.37,5.15.21,0,2.77.56,10.52,0,12.49Z"/>
  <path d="M168.45,477.14v13.8c-4.71-1.43-9.06,2.56-13.13-1.01-3.61-3.16-2.8-17.37,2-13.83,2.29,1.69-1.33,15.06,5.56,10.91l1.26-9.91,4.31.03Z"/>
  <path d="M190.39,405.92c.86,1.37,2.28.96,1.46,4.24-.16.63-4.31,5.67-5.17,6.02-10.53,4.26-15.79-11.61-6.23-14.77,5.27-1.74,7.43.51,9.94,4.51ZM183.36,404.28c-4.23.22-4.07,9.35.43,8.95s3.4-9.15-.43-8.95Z"/>
  <path d="M226.82,218.3c10.11-.75,11.12,13.78,3.61,15.5-13.88,3.17-14.77-14.67-3.61-15.5ZM230.09,222.93c-1.15-1.15-4.68-1.05-5.78.15l-.33,6.28c4.71,4.23,9.34-3.2,6.11-6.43Z"/>
  <path d="M159.47,326.85c6.1-6.39,17.93,1.06,12.15,10.51s-20.31-1.98-12.15-10.51ZM168.24,330.1c-1.14-1.4-4.45-2.31-5.76-.57-1.42,2.34-.94,4.53.15,6.85l5.66-.72c1.04-1.59,1.2-4.04-.04-5.57Z"/>
  <path d="M238,295.87c9.53-.71,11.83,12.82,3.59,15.47-11.94,3.84-15.15-14.61-3.59-15.47ZM238.63,299.81c-5.61.49-4.96,8.92,1.18,8.13,2.52-.42,3.32-6.11,1.23-7.56-.76-.49-1.51-.65-2.41-.57Z"/>
  <path d="M234.03,504.9c13.82-2.09,12.12,19.61-1.84,15.33-5.47-1.68-6.43-14.07,1.84-15.33ZM238.64,509.51c-4.12-4.13-9.67,3.73-4.68,7.01,4.1,2.7,7.59-4.1,4.68-7.01Z"/>
  <path d="M179.58,373.34c-.27,5.93-5.35.47-7.84,2.91.05,1.47,8.48,1.35,8.57,6.55.11,6.8-14.33,5.77-13.89.7.33-3.83,6.23.74,8.59-.35.29-1.67-.25-1.19-1.31-1.61-2.96-1.18-7.23-.96-7.12-5.32.13-5.02,9.63-4.97,13-2.88Z"/>
  <path d="M174.17,296.52c5.17-1.52,11.08.97,11.39,6.79.67,12.4-19.35,10.56-15.37-2.23.42-1.36,2.71-4.19,3.97-4.57ZM180.1,307.4c3.79-3.18-.57-9.29-5.13-6.78v6.69c.64,1.15,4.47.64,5.13.1Z"/>
  <path d="M209.87,222.12c-.32,1.71.32,1.16,1.31,1.61,2.15.99,5.41.97,6.29,3.6,2.85,8.54-11.67,8.16-12.76,3.54s6.47-.04,8.45-.88c.2-2.23-3.59-2.02-5.2-3.01-9.89-6.05,6.63-13.93,9.2-5.22-.99,3.71-4.5-.59-7.27.35Z"/>
  <path d="M224.06,249.35c.39.25,2.17,1.62,1.58,2.33-2.98,2.81-5.91-1.71-7.88,1.32,3.05.87,8.7,2.38,8.5,6.21-.32,6.11-14.23,5.11-13.81.71s6.43,1.56,8.58-.34c1.38-1.75-7.67-3.58-8.22-5.26-1.61-6.41,6.57-7.97,11.24-4.96Z"/>
  <path d="M210.52,262.54l-1,.99c-3.51-2.15-7.26,1.73-11.09-.72-3.63-2.33-3.43-17.74,1.63-14.12,2.31,1.65-2.34,12.73,4.09,10.78,4.77-1.45.02-11.66,4.73-11.1l1.65,1.03v13.15Z"/>
  <path d="M173.05,415.03c-.37,1.21-3.48,1.49-4.31.34,2.96-15.11-7.25-14.88-5.83.02-6.25,2.63-3.53-2.97-3.59-6.29-.05-2.85-1.52-5.34,0-8.16,4.22,1.49,7.76-2.07,11.46.6.54.39,2.28,2.57,2.28,2.97,0,2.28.47,8.99,0,10.52Z"/>
  <path d="M205.27,329.9c11.71.65,8.28,14.65-1.9,10.12-1.36-.6-4.95-3.01-2.72-4.55,2.43-1.67,5.21,2.51,7.91,1,1.43-1.85-6.73-3.14-7.56-4.59-4.57-7.98,11.5-9.48,11.54-4.28.02,3.72-6.3-.77-7.26,2.29Z"/>
  <path d="M236.17,433.77c-.34,1.87.46,1.08,1.44,1.48,3.39,1.38,8.38,2.46,6.1,7.71-1.79,4.12-13.91,4.1-12.15-2.61,3.48-.33,5.32,4.05,8.53.33.05-2.02-9.75-.01-8.54-7.19.88-5.23,13.42-4.77,11.78.54-1.65,2.56-4.37-1.39-7.18-.24Z"/>
  <path d="M104.02,217.51l-4.16.58c-4.61-3.57,8.77-7.12,8.77-3.54v18.4c0,.28-1.62,1.74-2.3,1.66-.69.08-2.3-1.38-2.3-1.66v-15.45Z"/>
  <path d="M230.99,371.89c.75,1.21,6.04-.64,3.24,3.75-.92.62-3.11.08-3.33.29-.27.25-.09,6.76.29,7.28,9.79,1.51.5,7.51-3.24,2.58-1.92-2.53-.54-6.77-1.08-9.76-2.33-.86-3.92-.08-3.12-3.3,4.85.5,2.11-4.5,4.96-5.25,3.21-.84,1.7,3.48,2.28,4.42Z"/>
  <path d="M180.12,319.56c1.03,3.12,1.75,19.25-.49,20.54-.82.36-2.02.56-2.86.36-1.43-.34-1.48-17.22-1.07-19.4.5-2.64,2.44-2.42,4.42-1.5Z"/>
  <path d="M188.27,490.85c-1-.62-1.13-12.25-.43-13.7.91-1.89,7.38-.93,9.55-1l.64,1.98c-7.1,1.92-4.72,6.4-5.54,12.21l-4.22.52Z"/>
  <path d="M133.6,325.29l-2.52-2.27,4.83-4.14,1.66,2.15c-3.89,4.26-1.52,3.29-1.29,6.54.14,2.01.32,10.4-.13,11.77-.35,1.07-1.26,1.15-2.21,1.14l-1.69-.35c-.88-.62-.97-13.16-.28-14.2.28-.43,1.11-.6,1.64-.65Z"/>
  <path d="M260.49,297.06c1.37,1.5-4.58,2.79-5.3,3.56-2.53,2.66.71,13.48-4.57,10.58-1.55-.85-.58-6.03-.61-7.93-.04-2.33-1.43-4.43.06-6.79,4.03.94,6.8-1.47,10.43.59Z"/>
  <path d="M230.22,536.93c-.2.23-5.12.9-5.75,2.14-1.65,3.23,1.96,12.24-3.98,10.28-1.24-2.18.01-4.36-.05-6.81s-1.62-6.2.11-8.05c1.21-1.3,2.59.27,3.85.19,1.4-.08,3.31-1.4,4.77-.95,1.18.37,1.45,2.74,1.05,3.2Z"/>
  <path d="M178.09,504.82c5.4-1.76,3.52,11.97,2.91,14.78-.81,1.03-2.92,1.46-3.71.3-.57-.84-1.6-14.29.8-15.08Z"/>
  <path d="M217.1,374.28c.05-.33.7-1.56,1.11-1.67l3.49,1.02v12.49c0,1.4-4.6,2.1-4.6,0,0-3.39-.5-8.78,0-11.83Z"/>
  <path d="M205.92,652.97c-.89,3.11-3.19-1.73-4.6-1.65v-.64c3.75-.67.08-4.12.01-4.41-.85-3.52-.11-10.2,4.58-7.1-.66,3.63.89,10.69,0,13.8Z"/>
  <path d="M200.01,665.78c-1.07-1.68,3.06-4.44,4.38-4.48s2.44,2.51,4.5.03l1.52,1.59-1.65,2.79c-1.86-1.05-8.12,1.07-8.75.07Z"/>
  <path d="M165.16,291.13c.21,1.72-.9,3.89-2.61,4.34-1.52.41-2.15-.85-3.09-.93-1.79-.14-5.53,3.23-3.78-2.84l9.47-.58Z"/>
  <path d="M237.96,677.79c4.09,3.48-6.01,7.51-5.09,1.51.39-2.55,3.52-2.84,5.09-1.51Z"/>
  <path d="M118.31,382.66c3.57,3.7-3.73,7.61-4.45,2.75-.44-2.95,2.82-4.45,4.45-2.75Z"/>
  <path d="M246.79,441.1l4.53.19c2.76,5.96-7.67,5.8-4.53-.19Z"/>
  <path d="M204.28,631.2c1.72,0,2.69,1.81,2.33,3.35-3.89,5.62-9.33-3.33-2.33-3.35Z"/>
  <path d="M225.83,217.29c-.11-.04-1.65-1.58-1.5-1.74,2.44-.86,4.4-5.35,7.23-2.3-.75,2.68-2.63,5.04-5.73,4.04Z"/>
  <path d="M217.56,335.27c3.31-.93,4.8,4.1,1.69,5.04-4.57,1.38-4.38-4.28-1.69-5.04Z"/>
  <path d="M115.67,486.44c3.62-1.01,4.79,4.2,1.68,5.07-3.62,1.01-4.79-4.2-1.68-5.07Z"/>
  <path d="M118.31,595.29c-3.7,3.69-7.27-5.31-1.51-4.44,2.25.34,3.07,2.89,1.51,4.44Z"/>
  <path d="M117.65,233.77c-3.44,3.45-7.19-4.49-2.06-4.41,2.53.04,3.89,2.58,2.06,4.41Z"/>
  <path d="M234.09,544.95c1.13.7,1.75,4.86-2.2,4.56-4.96-.38-1.6-6.92,2.2-4.56Z"/>
  <path d="M176.43,502.68c-.45-.74.06-2.81-.1-3.84,10.81-1.01,2.43,7.64.1,3.84Z"/>
  <path d="M233.44,262.77c-.7,1.11-4.88,1.74-4.57-2.21.4-5.17,6.52-.86,4.57,2.21Z"/>
  <path d="M118.31,307.07c2.31,2.37-.85,5.98-3.5,3.84-3.02-2.44,1.33-6.08,3.5-3.84Z"/>
  <path d="M221.61,366.15c1.79,2.83-3.46,6.94-4.5,2.16-.8-3.72,3.96-3,4.5-2.16Z"/>
  <path d="M406.78,728.89c-1.42-.4-2.26-2.91-1-4.28,1.55-1.68,11.44-.31,14.11-.29,31.58.24,63.16-.22,94.74-.06,3.15-.68,2.61,4.63,1.28,4.63h-109.14Z"/>
  <path d="M109.6,738.09h93.36c1.34,0,1.34,4.6,0,4.6h-94.02c-1.89-1.42-.95-3.48.66-4.6Z"/>
  <path d="M73.44,728.89c-1.53-.48-1.33-4.33.32-4.94.43-.22.82.34.99.34h67.06c1.6,0,1.6,4.6,0,4.6h-68.38Z"/>
  <path d="M460.36,742.69c-1.2-3.39-.52-4.3,2.92-4.64,9.72-.96,21.04.8,30.94.04,2.7.59,2.69,4.6,1.31,4.6h-35.17Z"/>
  <path d="M466.12,374.11c2.38,2.4-.04,8.6-3.79,6.76-4.61-2.28-.04-10.61,3.79-6.76Z" fill="#fff"/>
  <path d="M326.33,381.08c-2.16-8.08,9.32-5.49,6.82-.56-1.56,2.12-4.63,1.46-6.82.56Z" fill="#fff"/>
  <path d="M332.74,367.44c2.06,2.72-3.77,6.74-5.53,3.22-2.06-4.11,4.82-4.16,5.53-3.22Z" fill="#fff"/>
  <path d="M409.38,280.98c.61.87,1.65.67.99,3.09-1.36.93-2.36,3.13-4.15,2.97-6.18-.56-2.31-13.85,3.16-6.06Z" fill="#fff"/>
  <path d="M431.34,381.08c-3.96,2.46-7.98-4.56-3.86-7.48,5.46-2.8,5.38,6.53,3.86,7.48Z" fill="#fff"/>
  <path d="M330.64,547.61c4.19-.04,5.16,14.64-.09,14.94-6.2.36-6.16-14.88.09-14.94Z" fill="#fff"/>
  <path d="M327.06,477.64c-3.26-3.19,2.82-8.63,5.82-4.84,3.15,3.98-2.78,7.81-5.82,4.84Z" fill="#fff"/>
  <path d="M388.14,402.97h4.09c6.38,9.07-8.63,11.75-4.09,0Z" fill="#fff"/>
  <path d="M332,223.59c4.29,4.3-5.52,10.41-6.39,3.39-.54-4.36,4.32-5.46,6.39-3.39Z" fill="#fff"/>
  <path d="M453.94,250.51c2.56-2.64,9.71,1.9,5.47,6.47-3.93,4.25-8.78-3.04-5.47-6.47Z" fill="#fff"/>
  <path d="M453.12,327.93c-1.13-.45-5.28,1.1-5.25-.97,1.33-1.63,5.35-1.69,5.25.97Z" fill="#fff"/>
  <path d="M402.51,333.85c.04-3,3.36-2.39,5.25-3.28.25,3.41-2.6,3.54-5.25,3.28Z" fill="#fff"/>
  <path d="M383.44,325.97v1.97s-4.6,0-4.6,0c-.1-2.59,2.79-1.98,4.6-1.96Z" fill="#fff"/>
  <path d="M388.04,226.72c-.72,2.8-4.01,3.44-6.57,3.28-.59-3.41,4.18-3.11,6.57-3.28Z" fill="#fff"/>
  <path d="M406.44,433.76c-1.13-.45-5.28,1.1-5.25-.97,1.33-1.63,5.35-1.69,5.25.97Z" fill="#fff"/>
  <path d="M451.82,515.26c-.54-3.5,3.73-2.7,5.91-3.94.31,3.02-3.51,4.28-5.91,3.94Z" fill="#fff"/>
  <path d="M405.79,583.63c.51,2.88-5.28,2.25-5.24.98,1.51-2.2,3.03-1.72,5.24-.98Z" fill="#fff"/>
  <path d="M387.38,483.06c1.41,2.56-5.29,3.89-5.91,3.28-.6-3.24,3.62-3.03,5.91-3.28Z" fill="#fff"/>
  <path d="M391.98,254.98c.47,3.09-6.12,4.54-6.57,2.29-.39-2,5.36-2.14,6.57-2.29Z" fill="#fff"/>
  <path d="M430.12,588.23c.27,2.1-5.07,4.19-5.26,2.28s4.11-2.16,5.26-2.28Z" fill="#fff"/>
  <path d="M445.89,281.26c-1.42-.52-6.23,1.2-6.57-.97,1.67-1.9,5.47-1.19,6.57.97Z" fill="#fff"/>
  <path d="M494.54,559.31c-.39,3.06-3.31,3.67-5.91,3.28-.61-3.24,3.62-3.03,5.91-3.28Z" fill="#fff"/>
  <path d="M387.38,559.31c1.41,2.56-5.29,3.89-5.91,3.28-.54-3.23,3.56-3.29,5.91-3.28Z" fill="#fff"/>
  <path d="M443.26,556.01l-5.91-.32c1.69-2.37,4.69-2.35,5.91.32Z" fill="#fff"/>
  <path d="M428.14,404.84l-5.25-.32c1.11-1.92,5.07-2.85,5.25.32Z" fill="#fff"/>
  <path d="M387.38,378.55c.28,2.13-5.08,4.09-5.91,3.28-.6-3.24,3.62-3.03,5.91-3.28Z" fill="#fff"/>
  <path d="M498.98,373.38c3.85-.46,3.09,4.25-1.81,2.22-1.49-.84,1.1-2.13,1.81-2.22Z" fill="#fff"/>
  <path d="M366.34,433.76l-5.91-.32c.51-3.48,7.54-1.11,5.91.32Z" fill="#fff"/>
  <path d="M401.68,221.56c.95-.16,1.76-.23,2.51.5,5.65,8.04-6.82,12.52-4.86,1.15.3-.86,1.51-1.5,2.35-1.65Z" fill="#fff"/>
  <path d="M495.2,252.34c-1.59-.13-3.4.2-4.94,0-3.94-.5,5.15-4.25,4.94,0Z" fill="#fff"/>
  <path d="M443.93,375.92c-1.7-1.37,5.01-3.22,5.9-.98-1.45,1.74-3.96.79-5.9.98Z" fill="#fff"/>
  <path d="M470.87,407.47c.08,6.18-9.17,3.27-4.09.84.63-.3,3.87-1.06,4.09-.84Z" fill="#fff"/>
  <path d="M485.67,402.44c4.45,1.25,4.31,7.54,0,8.99-4.28-.75-3.96-8.98,0-8.99Z" fill="#fff"/>
  <path d="M400.03,561.77c-1.76-3.58-1.4-9.18,3.79-7.4,1.93.96,1.52,5.07.98,6.91-.89,1.83-3.39,1.5-4.77.5Z" fill="#fff"/>
  <path d="M392.64,507.39c.04,2.81-3.32,1.87-5.25,1.96-.4-3.61,2.76-2.75,5.25-1.96Z" fill="#fff"/>
  <path d="M493.89,480.43c-.76-.33-6.64.89-5.91-.97,1.64-2.56,5.61-2.31,5.91.97Z" fill="#fff"/>
  <path d="M400.03,485.53c-1.77-3.58-1.4-9.18,3.79-7.4,3.03,3.28,1.53,10.32-3.79,7.4Z" fill="#fff"/>
  <path d="M401.68,373.4c4.19-.73,3.89,4.24,3.13,7.13-1.48,1.5-3.3,1.62-4.95.34-1.2-2.41-1.52-6.88,1.83-7.46Z" fill="#fff"/>
  <path d="M442.41,477.92c6.24-1.94,5.99,7.4,3.02,8.3-6.16,1.85-6.57-7.19-3.02-8.3Z" fill="#fff"/>
  <path d="M366.8,409.91c-.98,1.2-4.11,2.28-5.4.86-1.48-2.33-1.26-5.36-.21-7.8,4.49-1.78,8.56,3.31,5.62,6.94Z" fill="#fff"/>
  <path d="M181.6,441.65v-13.8c11.52-2.44,11.35,15.39,0,13.8Z" fill="#fff"/>
  <path d="M143.4,370.72c1.4,5.22-8.87,5.69-7.09.36.42-1.92,6.7-.99,7.09-.36Z" fill="#fff"/>
  <path d="M163.19,258.92v-12.49c12.05-2.07,12.93,15.26,0,12.49Z" fill="#fff"/>
  <path d="M140.82,219.48c.3.29,1.67,5.57,1.33,5.91h-3.94c0-.75,1.21-7.29,2.62-5.91Z" fill="#fff"/>
  <path d="M140.17,581.66c.19.19,1.58,5.01,1.32,5.25h-3.94c-.08-.75,1.33-6.51,2.62-5.25Z" fill="#fff"/>
  <path d="M219.55,299.77l2.13.23c2.96,1.82,2.88,6.74-.43,8.01-4.95.51-5.8-6.2-1.7-8.24Z" fill="#fff"/>
  <path d="M206.92,479.39c10.31,6.91-7.01,14.95-2.63,1.06l2.63-1.06Z" fill="#fff"/>
  <path d="M172.55,649.2c-5.49-5.33,7.34-14.21,4.77-.5-.81,1.68-3.6,1.64-4.77.5Z" fill="#fff"/>
  <path d="M141.33,642.29l.49,6.41c-6.82,5.63-8.44-10.25-.49-6.41Z" fill="#fff"/>
  <path d="M143.63,329.42c3.4-3.92,10.09,2.74,5.07,6.75-3.57,2.86-8.28-3.04-5.07-6.75Z" fill="#fff"/>
  <path d="M214.15,514.92c-.2-.26-.84-.28-.98-.79-1-1.41,1.99-5,3.06-5.33,5.56-1.76,6.68,8.56.68,8.34-1.23-.2-2.06-1.3-2.76-2.22Z" fill="#fff"/>
  <path d="M138.01,433.87c5.53-1.68,5.62,8.6.51,8.42-3.37-.12-4.05-7.34-.51-8.42Z" fill="#fff"/>
  <path d="M168.94,509.51c3.5,3.03-1.56,9.6-5.48,6.48-4.33-3.46,1.19-10.18,5.48-6.48Z" fill="#fff"/>
  <path d="M187.67,382.33c-2.57-2.58.28-8.9,4.45-6.76,4.42,2.27-.22,11-4.45,6.76Z" fill="#fff"/>
  <path d="M159.74,613.37l.49,6.42c-8.37,5.88-9.33-10.14-.49-6.42Z" fill="#fff"/>
  <path d="M194.59,620.28c-6.35,3.28-8.34-3.12-4.45-7.43,4.67-1.31,6.57,3.78,4.45,7.43Z" fill="#fff"/>
  <path d="M104.67,483.05h-4.6s4.28-5.91,4.28-5.91c.08,2.15-.69,3.7.32,5.91Z" fill="#fff"/>
  <path d="M244.71,617.81c.45,3.12-2.92,3.45-5.25,3.28l.66-2.29,4.59-.99Z" fill="#fff"/>
  <path d="M166.47,675.66c-.78,2.64-4,4.51-5.9,1.64l5.9-1.64Z" fill="#fff"/>
  <path d="M189.49,253.66l-5.25-.97c1.59-1.89,4.38-1.19,5.25.97Z" fill="#fff"/>
  <path d="M141.49,256.95c.53,2.13-4.46,4.06-5.25,3.28-.45-3.12,2.93-3.44,5.25-3.28Z" fill="#fff"/>
  <path d="M160.56,539.58l-6.57-.32c1.66-2.49,5.16-2.13,6.57.32Z" fill="#fff"/>
  <path d="M153.32,650.01l.39-2.03,5.53-1.25c.39,3.44-3.43,3.43-5.91,3.28Z" fill="#fff"/>
  <path d="M187.51,585.59c-1.73.35-3.84,1.59-5.24-.32,1.14-1.95,5.06-2.82,5.24.32Z" fill="#fff"/>
  <path d="M180.11,486.85c-.65.47-4.8,1.11-5.09.8l.04-1.92c1.12-.02,4.3-1.39,4.9-1.34,1.05.08.84,1.95.15,2.46Z" fill="#fff"/>
  <path d="M194.08,513.3c.28,3.41-2.63,3.54-5.26,3.28v-2.62s5.26-.66,5.26-.66Z" fill="#fff"/>
  <path d="M210.52,377.88l-5.91-.32c.9-2.89,4.88-2.07,5.91.32Z" fill="#fff"/>
  <path d="M246.68,377.89c-1.13-.45-5.28,1.1-5.25-.97,1.33-1.63,5.35-1.69,5.25.97Z" fill="#fff"/>
  <path d="M188.82,224.08h-4.6s0-1.96,0-1.96c1.81-.01,4.7-.62,4.6,1.96Z" fill="#fff"/>
  <path d="M177.65,615.17l-5.91-.32c1.7-2.77,5.12-3.22,5.91.32Z" fill="#fff"/>
  <path d="M160.55,377.89l-5.91-.32c1.42-1.73,5.74-2.96,5.91.32Z" fill="#fff"/>
  <polygon points="194.08 647.39 193.45 649.7 188.82 650.01 189.21 647.98 194.08 647.39" fill="#fff"/>
  <path d="M212.45,613.26l.05,1.91h-5.26c.71-2.75,2.8-2.98,5.21-1.91Z" fill="#fff"/>
  <path d="M162.53,304.93c1.35,3-4.98,3.84-5.25,2.29-.32-1.82,4.2-2.2,5.25-2.29Z" fill="#fff"/>
  <path d="M205.26,304.93c.75,3.73-6.6,4.77-4.87.66l4.87-.66Z" fill="#fff"/>
  <path d="M226.3,672.36l-5.91-.32c1.32-2.13,5.78-2.77,5.91.32Z" fill="#fff"/>
  <path d="M269.64,300.4c.23.37-.02,1.33.05,1.9h-4.59c-1.3-2.87,3.9-2.91,4.54-1.9Z" fill="#fff"/>
  <path d="M227.61,481.74l-5.91-.32c1.32-2.13,5.78-2.77,5.91.32Z" fill="#fff"/>
  <path d="M208.55,675.65c.59,5.18-8.77,2.84-3.66.6,1.14-.5,2.43-.66,3.66-.6Z" fill="#fff"/>
  <path d="M138.63,612.69c4.19-.39,5.03,8.14.45,8.91-4.9-.17-4.77-8.51-.45-8.91Z" fill="#fff"/>
  <path d="M207.23,435.73l-4.59-.97c1.21-1.63,4.69-1.6,4.59.97Z" fill="#fff"/>
  <path d="M208.38,537.71c4.31-1.16,5.69,6.35,2.36,8.36-4.79,1.63-7.01-6.39-2.36-8.36Z" fill="#fff"/>
  <path d="M141.33,412.57c-3.99,4.02-8.32-3.84-4.45-7.4,1.5-.61,3.59-.77,4.56.71.98,1.39,1.07,5.5-.11,6.69Z" fill="#fff"/>
  <path d="M229.59,407.47c-.68-.29-6.77.84-5.91-.97,1.91-2.12,6.4-2.85,5.91.97Z" fill="#fff"/>
  <path d="M228.27,644.09c-.76-.33-6.63.89-5.91-.97,1.51-2.61,5.58-1.96,5.91.97Z" fill="#fff"/>
  <path d="M159.9,436.39h-4.92c-1.76-3.49,5.74-4,4.92,0Z" fill="#fff"/>
  <path d="M141.33,509.51c2.27,2.28.53,8.91-3.6,7.26-5.24-2.92-.45-11.34,3.6-7.26Z" fill="#fff"/>
  <path d="M207.89,586.25c-.68-3.18,3.79-3.43,5.25-.98l-5.25.98Z" fill="#fff"/>
  <path d="M188.27,336.39l-.43-6.48c5.07-4.02,7.54.94,5.96,5.96l-5.53.52Z" fill="#fff"/>
  <path d="M183.36,404.28c3.83-.2,4.93,8.56.43,8.95s-4.67-8.74-.43-8.95Z" fill="#fff"/>
  <path d="M230.09,222.93c3.23,3.23-1.4,10.67-6.11,6.43l.33-6.28c1.1-1.21,4.63-1.3,5.78-.15Z" fill="#fff"/>
  <path d="M168.24,330.1c1.24,1.52,1.08,3.97.04,5.57l-5.66.72c-1.09-2.33-1.57-4.51-.15-6.85,1.31-1.74,4.63-.83,5.76.57Z" fill="#fff"/>
  <path d="M238.63,299.81c.9-.08,1.65.08,2.41.57,2.09,1.45,1.3,7.14-1.23,7.56-6.14.79-6.78-7.64-1.18-8.13Z" fill="#fff"/>
  <path d="M238.64,509.51c2.91,2.91-.58,9.71-4.68,7.01-4.99-3.28.56-11.14,4.68-7.01Z" fill="#fff"/>
  <path d="M180.1,307.4c-.65.55-4.48,1.06-5.13-.1v-6.69c4.56-2.51,8.93,3.6,5.13,6.78Z" fill="#fff"/>
</svg>