<?xml version="1.0" encoding="UTF-8"?>
<svg id="Camada_1" xmlns="http://www.w3.org/2000/svg" version="1.1" viewBox="0 0 595.28 841.89">
  <!-- Generator: Adobe Illustrator 29.0.0, SVG Export Plug-In . SVG Version: 2.1.0 Build 186)  -->
  <path d="M.14,841.29V-.06h595v841.34H.14ZM590.54,3.89H4.08v553.77c0,4.68,17.37,22.45,22.69,24.64,1.15.44,1.13-3.33,2.98-4.89,2.36-1.99,6.3-1.43,6.55-1.67.53-.51-.61-8.58,5.96-12.77,5.53-3.53,10.97.11,12.48-.7.56-.3,2.38-4.77,3.48-6.02,4.16-4.71,12.37-6.92,18.37-4.7,3.04,1.13,5.04,5.21,8.19,5.66,4.32.62,5.51-2.98,11.56.88,7.39,4.72,2.64,11.22,4.69,14.38.31.48,3.76,1.55,4.93,2.3s1.29,2.76,2.98,2.96c16.49-7.49,32.9-13.53,51.31-14.47-3.4-10.02-8.73-19.57-10.13-30.01-5.79-43.36,17.04-79.46,50.99-103.97,2.44-1.76,12.53-7.15,13.39-8.31.52-.7,3.39-11.2,3.19-11.78-.59-1.35-1.57-1.1-2.73-.95-3.07.41-11.86,4.46-16.14,5.6-9.38,2.5-31.46,7.97-40.29,5.82-4.63-1.13-5.28-6.29-5.21-10.24-7.69.32-15.53,2.8-23.26,1.89-8.96-1.06-4.55-2.77-6.94-6.7-.71-1.16-3.91-1.31-4.97-2.43-1.75-1.84-.38-4.92-1.32-6.57-.57-1.01-3.59-1.17-4.17-3.09-.92-2.99,1.76-3.5,1.85-5.1s-2.94-4.19-1.84-6.44c1.48-5.29,17.93-4.13,22.28-4.71,1.47-19.53,12.93-2.8,20.68-2.98,2.12-.05,4.02-2.07,6.62-2.59,7.58-1.52,16.97-.43,24.91-1.39,6.97-.84,13.63-3.73,20.72-3.94-2.3-3.73-6.92-5.01-9.84-8.89-3.49-4.64-4.84-11.68-1.89-16.97,1.25-2.24,6.98-5.65,7.13-6.17.87-2.96-2.08-11.66-1.99-15.59.31-13.36,14.47-17.19,20.93-26.42,3.22-4.59,4.7-10.69,7.6-15.44,9.79-16.08,35.63-26.3,53.84-22.76,2.21.43,4.86,2.47,7.42,2.51s5.38-1.98,8.02-2.5c12.83-2.53,32.03,3.89,41.89,12.35,10.19,8.73,13.39,21.91,22.06,31.19,5.69,6.1,13.49,7.93,16.09,17.43,1.96,7.14-1.51,12.64-.18,17.93.45,1.79,5.21,5.69,6.55,8.57,5.35,11.49-1.6,14.74-8.38,22.11l.81,1.24c5.33-.16,10.41,1.75,15.66,2.09,10.12.67,19.67-.65,29.99.91,1.24.19,2.35,1.46,3.62,1.67,5.57.9,9.81-5.2,14.38-6.58,2.75-.83,5.52-.15,7.58-.97,1.95-.77,6.32-7.16,8.24-8.85,22.61-19.88,55.63-22.3,80.88-5.94,11.46,7.43,25.6,23.29,27.08,37.34.64,6.05-1.41,12.57-.32,18.06.9,4.52,5.74,3.92,5.77,11.3.03,10.05-7.72,15.82-17.43,14.82-2.87-.3-5.02-2.29-7.89-2.02-3.45.32-5.45,4.34-11.8,4.01-5.02-.26-8.74-4.36-10.59-4.63-2.11-.31-4.36,1.68-6.6,1.94-11.81,1.37-21.29-10.51-13.95-21.2,4.71-6.86,12.06-3.82,15.4-6.3,1.18-.87,1.12-3.43,1.96-4.61,3.47-4.86,6.81-3.71,3.04-11.03-7.98-15.52-35.66-14.29-44.06.92-3.37,6.1-.66,10.92-10.02,8.36-1.45,1.07.06,5.26-.94,6.97-.63,1.07-2.8.95-3.61,1.65-1.22,1.06-1.07,3.79-1.97,5.09-3.58,5.16-24.59.94-30.5.55-1.55.62-1.46,6.87-3.12,8.74-1.52,1.71-11.83,1.18-14.72,1.04-16.54-.84-32.43-6.15-48.01-11.18-1.28-.1-.93-.04-.94.94-.03,2.32,3.07,14.18,4.54,15.86,26.28,15.72,47.1,39.69,54.75,69.83l21.88,4.74,2.88-16.65-1.02-.99c-9.21.38-11.01-6.77-10.09-14.56-9.11,0-14.15-10.98-7.59-17.78,1.08-1.11,3.64-1.98,3.98-2.59,1.91-3.4-.73-8.41,5.36-12.39,4.65-3.04,10.96-1.24,12.73-2.39.51-.33,2.19-5.55,3.98-7.2,7.13-6.55,19.61-4.62,24.15,4.01.85,1.62,1.28,5.22,1.49,5.41.27.25,5.34.91,7.17,1.71,9.98,4.34,12.77,14.76,5.26,22.99-1.17,1.29-4.66,3.08-4.96,3.63-.96,1.77,3.73,8.97-1.57,13.51-1.3,1.11-3.52,1.17-4.3,2.28-.92,1.3-.64,4.14-2.31,6.24-2.97,3.71-8.46,2.2-12.47,1.65l-2.59,18.32,46.95,13.2c.65-.04,3.15-11.65,2.84-12.66-.6-2.02-4.67-2.45-5.44-5.09-.5-1.71-.17-5.44-.46-5.82-.18-.24-3.87-1.25-5.5-2.71-5.89-5.27-4.91-15.7,2.07-19.61,1.66-.93,5.27-1.23,5.46-1.44.38-.45-.31-7.19,4.03-10.76,6.27-5.17,11.95-.38,15.26-1.14,1.65-.38,4.88-5.16,10-5.81,12.44-1.57,16.31,7.57,16.43,18.41,10.84,3.79,16.54,13.74,7.26,23.02-3.51,3.51-6.55,2.16-8.88,3.61-1.05.65-2.56,5.33-3.68,6.84-4.66,6.27-10.45,5.07-17.4,5.61l-2.95,13.48,58.2,30.25V3.89ZM224.99,360.47v-23.99c-9.28-2.11-16.37-12.47-10.52-21.37,2.82-4.3,13.28-6.52,15.82-2.01,1.39,2.45-3.02,23.27-3.32,28.32-.71,12.06-.73,31.28,11.47,37.81,2.04,1.09,8.49,2.49,9.23,3.27,1.33,1.41,2.44,9.13,5.69,12.71,15.93,17.55,55.81,14.68,70.9-3.19,1.84-2.18,4.29-9.11,4.73-9.41.48-.32,3.86-.38,5.29-.96,20.68-8.31,19.69-31.08,18.25-50.09-.35-4.67-2.87-13.26-2.55-17.15.41-5.07,17.27-4.29,18.34,7.28.94,10.13-5.59,12.48-13.04,16.54l-.76,21.24c4.83-.25,12.58,3.84,17.08,3.01,3.24-.6,12.01-9.02,12.84-12.19,2.37-9.08-6.81-12.15-8.09-17.58-1.98-8.4,4.63-11.52-2.25-22.74-3.59-5.85-6.84-6.07-11.05-9.99-19.68-18.29-17-41.72-53-44.95-9.36-.84-13.52,3.14-18.97,3.22-2.28.04-6.98-2.81-10.62-3.22-15.67-1.77-37.8,6.86-46.8,20.08-4.15,6.09-6.09,15.23-11.02,20.53-5.64,6.06-14.66,8.56-17.68,17.81-2.86,8.76,1.96,13.89.85,19.22-.78,3.76-6.47,4.91-8.35,8.77-4.01,8.24.68,13.3,7.22,17.62,6.94,4.58,12.63,4.93,20.32,1.37ZM228.1,313.66c-2.79-3.14-9.09-.47-11.29,2.49-2.97,3.97-2.67,8.84.29,12.78,1.38,1.84,8.14,5.72,9.08,3.15.66-1.8,2.71-17.54,1.93-18.42ZM355.2,333.81c15.94.42,13.66-25.76-2.69-19.23l2.69,19.23ZM552.4,387.42c.46,4.24-.33,9.15,0,13.47l10.52.66v-18.08c0-.91-6.85-14.93-7.78-16.54-17.02-29.55-58.57-36.47-87.1-19.81-10.65,6.22-17.4,13.01-21.49,24.84,2.53-.77,7.72,1.54,9.72.52.41-.21.83-2.06,1.43-2.64,8.02-7.72,13.15-14.54,24.17-18.75,28.13-10.73,67.01,3.62,70.52,36.32ZM550.43,397.61v-11.5c0-1.48-2.97-9.48-3.83-11.28-14.84-31.05-70.26-34.49-86.25-2.52-.19,1.49.26.78,1,.97,10.06,2.7,10.65-3.56,18.13-8.15,18.18-11.13,46.81-7.56,56.84,12.74,1.38,2.79,2.89,9.82,3.92,11.2,1.15,1.53,4.78,2.15,6.57,3.94,1.65,1.65,1.53,4.64,3.62,4.6ZM537.26,388.37c-3.85-27.2-37.67-33.91-58.31-20.48-1.51.98-7.22,5.44-7.74,6.74-1.14,2.85,1.42,5.81.91,7.44-.32,1.03-2.37,1.36-2.47,2.06-.05.39,2.55,6.9,3.53,6.9,5.69-9.35,6.83-14.83,18.09-18.71,10.52-3.63,22.25-2.41,30.23,5.92,5.28,5.51,5.39,14.16,15.76,10.14ZM422.88,370.01c-10.38-1.18-20.8-.33-31.21-1.33-12.89-1.24-25.26-5.52-38.07-6.59-2.02,7.66-6.01,15.95-13.76,19.22-2.44,1.03-5.96,1.02-8.03,2.49-2.4,1.71-4.93,9.33-7.55,12.17-3.32,3.58-9.16,5.78-13.14,8.55,8.52,2.15,17.16,3.51,25.63,5.92,9.87,2.81,19.19,7.45,28.93,10.18,1.17-1.15-6.23-21.94-6.53-25.37-.12-1.35-.38-2.6.94-3.53,2.81,2.56,1.11,7.4,3.98,10.46,4.53,4.83,54.46,15.45,56.83,13.18-3.86-15.33-1.17-30.2,1.97-45.35ZM226.3,363.43c-21.59,4.01-42.87,10.4-65.09,9.87,4.04,14.39,2.85,29.29,1.98,44.03,5.14-1.88,10.79-.71,16.03-1.39,6.72-.87,32.09-7.41,37.26-10.73,4.04-2.6,2.67-6.2,3.97-9.71.21-.58,1.05-.65,1.19-1.04.69-1.89,1.57-9.74,3.89-5.22l-7.77,30.06c15.2-4.72,29.87-11.85,46.02-13.15-.03-.82.29-1.33-.42-2.02-1.29-1.26-7.22-3.52-9.71-5.94-3.85-3.76-6.46-12.37-8.31-14.04-1.18-1.06-6.43-2.41-8.72-3.77-5.88-3.48-10.58-9.87-10.32-16.96ZM446.55,364.09c-1.29-1.34-21.03,8.64-22.12,10.74-2.23,9.11-3.72,18.53-3.44,27.96,12.96,1.03,26.15,7.23,39.09,3.42,4.11-6.49-9.63-5.19-13.56-6.3-1.17-.33-1.53-.18-1.28-1.64,3.85-1.19,19.54,3.15,21.41-.66,2.95-6.02-15.9-5.42-18.45-5.93l-.99-1.29,21.07.36c2.16-10.33-14.51-4.54-20.41-6.95,4.57-5.47,19.91,4.89,22.26-4.79-.26-.93-1.61-1.84-2.5-2.14-2.73-.92-20.85-2.24-23.24-1.48-2.98.95-3.34,11.93-9.67,11.03,4.66-2.69,3.61-6.68,5.43-10.66s7.23-6.26,6.4-11.67ZM133.27,387.09h-10.52c-1.47,0-7.57,1.98-7.59,4.28.07,5.32,16.27-.97,19.75,2.3.25,1.76-.15,1.01-.96,1.33-1.69.66-17.44.15-13.3,5.03,4.63,3.74,10.35-.46,15.56.21.31,1.71-.31,1.17-1.31,1.61-1.94.86-11.78,1.69-8.92,5.67,12.03,2.01,24.21-.15,35.92-3.06-.03-9.3.38-18.69-2.18-27.72-2.89-.85-6.04-1.53-8.84-2.66-1.97-.8-12.34-7.2-12.68-2.47-.23,2.63,12.54,16.75,11.15,18.12-1.7.36-1.44-.14-2.17-.81-3.86-3.49-3.6-9.72-10.14-10.86-2.33-.41-18.35,1.27-19.85,2.18-1.16.7-2.57,2.74-1.43,3.95,1.15,1.32,9.39,1.64,11.61,1.62,2.08-.02,8.14-2.94,5.89,1.29ZM520.85,402.87c-3.27.06-6.5-.32-9.74.44-12.55,2.94-10.38,23.26,5.95,21.07,1.86-.25,6.07-2.45,6.65-2.35.42.08,5.05,3.92,7.28,4.54,10.54,2.93,11.63-4.06,15.16-4.05,1.77,0,3.19,1.82,4.94,2.36,8.95,2.73,19.09-3.34,16.8-13.51-1.79-7.97-12.4-8.58-18.81-6.79-.76-17.46-27.42-19.49-28.24-1.7ZM428.71,406.25l-7.13-1.41,1.31,9.85,5.15-.76.66-7.69ZM385.29,463.46c-2.64-4.64-13.76,2.89-16.93,3.54-12.03,2.44-15.73-8.66-24.1-8.84-4.78-.11-12.14,4.48-17.09,5.13-6.34.83-15.17-.49-15.93-8.33-.99-10.31,13.8-10,19.18-13.39,2.74-1.73,3.98-5.59,7.62-7.5,7.81-4.09,17.25-1.24,15.51-15.44-1.55-2.36-39.83-12.21-44.75-12.45-6.59-.32-12.01,3.06-18.43,3.28-7.84.28-14.74-3.33-21.02,4.57-5.5,6.93-.65,14.11-4.9,19.42-3.62,4.52-12.03,3.12-15.12,5.92-1.53,1.39-1.89,5.28-3.17,7.35-3.99,6.42-14.29,5.65-20.7,8.23-8.76,3.52-9.16,14.25-20.53,15.63-4.68.57-10-1.4-14.16-.35-2.87.73-8.52,4.79-9.14,7.94-1.66,8.37,4.47,5.91,9.21,7.15,7.92,2.06,8.96,12.83,15.46,15.44,8.89,3.56,19.23-1.31,28.5,5.03,2.79,1.91,6.25,7.11,9.42,8.33,6.11,2.36,18.74.02,21.56,8.68,3.67,11.26-3.46,11.75-7.81,18.55-2.4,3.74-2.83,9.49-5.37,13.04-2.35,3.29-8.08,6.28-9.77,9.3-2.03,3.64-.81,6.48-1.93,9.9s-6.5,5.86-7.23,8.55c-1.46,5.41,4.44,14.76-1.28,16.47-7.62,2.27-16.45-5.97-19.8-12.13-7.17-13.2-2.55-25.81-13.28-39.3-6.77-8.51-17.27-11.26-15.7-24.28.64-5.28,4.89-8.79,4.48-13.78-.24-2.98-4.92-8.11-7.62-9.5-4.98-2.55-12.19-2.23-16.41-6.27-.93-.89-4.65-8.2-6.47-5.67-1.14,1.58-3.65,14.17-4.1,16.93-7.97,48.45,22.13,87.74,66.43,106.09,55.44,22.96,128.16,20.98,174.68-20.16,22.93-20.28,40.86-59.99,29.65-89.6-.84-2.22-.27-4.72-2.88-6.19-1.8-1.02-14.17-5.75-16.56-6.45-.93-.27-6.04-1.54-6.27-1.28-2.39,13.61,22.05,13.59,22.85,22.82.75,8.57-8.6,11.12-12.23,17.05-3.04,4.95-1.93,11.46-4.82,16.88-2.51,4.71-8.08,7.07-11.35,10.99-3.67,4.41-5.29,11.53-9.59,16.7-4.81,5.79-17.25,15.31-24.94,11.15-5.43-2.94-2.4-9.4-2.68-13.68-.26-3.95-4.43-8.99-4.51-13.29-.07-3.88,2.72-7.55,1.86-12.39-.61-3.43-4.4-4.5-5.07-7.41-1.49-6.39,2.56-16.05-5.18-20.45-10.31-5.86-36.12,11.35-44.18-7.76-7.93-18.8,13.97-39,31.89-40.91,17.65-1.88,22.62,8.88,35.39,8.45,4.3-.14,23.24-4.79,19.3-11.71ZM271.66,406.82c-42.62,5.32-88.47,27.79-108.16,67.69-2.62,5.32-4.66,7.15-1.51,12.71,5.13,9.06,11.63,5.83,18.97,9.96,10.81,6.08,10.23,12.72,6.74,23.19-.26.78-1.48.66-1.87,2.72-2.09,11,15,19.62,19.79,28.97,6.05,11.81,4.98,44.43,23.84,45.25,7.39.32,1.01-9.13.82-12.11-.39-6.13,6.37-7.39,8.1-11.5s.3-7.82,2.75-11.72c2.16-3.44,7.94-5.37,10.06-9.01s1.31-7.69,2.5-10.59c1.6-3.9,10.67-8.09,11.36-14.36,1.3-11.81-16.59-9.61-23.18-12.86-4.33-2.13-5.69-7.5-11.63-9.4-7.64-2.44-19.9.68-26.52-3.72-4.17-2.77-5.39-9.79-9.3-12.4-5.5-3.68-22.19-1.65-12.71-15.99,6.69-10.13,18.16-2.34,27.1-6.43,5.12-2.34,7.33-8.71,11.26-11.75,6.85-5.32,19.27-2.9,23.88-9.65,1.82-2.67,1.73-6.28,4.74-8.41,3.55-2.51,11.13-2.34,13.95-4.93,3-2.76,1.4-12.83,3.29-17.27,1.21-2.83,6.17-4.54,5.73-8.39ZM161.22,407.47l-5.17.75c.35,3.58-.8,10.27,4.2,7.16l.96-7.91ZM422.23,492.25c-9.07-27.15-25.66-49.6-50.28-64.42-2.7-1.63-13.69-8.92-16.18-5.47.45,12.04-6.87,9.82-14.85,13.26-5.63,2.42-5.71,5.09-9.61,7.48-5.43,3.33-22.86,4.1-16.92,14.68,5.86,10.44,23.61-2.54,33.18-.96,4.97.82,10.87,7.88,15.81,8.51,6.32.81,8.1-3.57,13.32-4.46,14.68-2.5,15.59,8.34,2.31,13.48-7.11,2.76-17.24,3.58-24.49,1.14-3.23-1.09-5.5-4.1-8.41-5.4-13.49-6.04-33.38,2.47-41.06,14.46-5.03,7.86-8.84,21.26.19,27.71,12.93,9.23,26.55-5.85,38.97,1.8,8.88,5.46,4.83,13.59,6.63,20.97.66,2.71,2.54,3.13,3.56,4.98,3.6,6.51-1.72,11.71-.4,18.15.72,3.5,4.16,3.87,4.94,8.2,1.68,9.37-4.66,20.87,10.88,13.19,16.06-7.94,12.18-14.83,20.17-25,2.81-3.57,9.37-6.77,12.11-11.09,3.31-5.22,2.46-12.53,5.1-17.91s16.74-11.6,10.08-18.83c-1.98-2.15-8.19-3.46-11.28-5.15-6.45-3.52-10.6-8.66-9.34-16.46,9.17-2.73,16.24,7.38,25.56,7.14ZM480.09,436.4c-1.92-8-.51-13.9-10.83-14.49-9.36-.54-13.24,3.33-15.9,11.8-4.98-.78-10.38-2.01-13.73,2.67-3.02,4.22-.6,6.44-1.72,9.45-.77,2.07-6.95.99-7.75,6.71-1.09,7.87,3.44,10.28,10.39,11.53-1.24,5.25-.3,13.06,6.41,13.69,6.13.58,3.42-6.26,5.5-8.19.38-.36,9.39-2.93,10.06-2.83,2.05.3,4,4.02,7.01,3.2l.69,12.13c9.94,3.79,8.13-1.73,11.52-6.23,1.1-1.46,3.17-1.91,4.21-3.03,4.84-5.21-.48-11.9.36-13.46,16.44-5.65,10.77-27.37-6.22-22.97ZM553.72,471.22c6.45-16.58-11.67-26.28-21.5-11.25-4.31-1.25-5.39-3.57-11-2.5-7.5,1.42-5.98,12.11-6.97,13.08-.32.32-5.19-.14-8.21,3.3-6.43,7.31-1.91,16.58,7.58,17.11-1.03,2.61-1.88,8.13,2.33,8.56s2.65-11.72,4.87-14.21c1.91-1.26,4.37,3.41,6.32,3.69,2.54.36,4.28-2.89,6.21-1.71.84.51.88,2.34,1.48,2.82,1.09.88,3.89,1.16,4.35,2.6.62,1.94-3.14,12.13-1.9,13.36,5.03.36,10.68-.61,13.8-4.94,1.57-2.17,2.23-7.01,2.6-7.26.72-.5,3.15-.25,4.52-.74,4.48-1.63,7.16-2.89,8.5-7.96,2.56-9.75-5.47-11.86-12.97-13.94ZM467.48,471.99c-4.97-2.85-7.95-3.04-13.37-.77l-4.94,27.28,14.84,2.34,3.47-28.85ZM536.5,493.71c-.13-.24-4.04-3.25-4.3-3.32-2.03-.54-3.94,1.43-5.75,1.22-1.58-.18-2.24-2.52-4.29-1.98.62,7.85-6.46,18.28-6.45,25.5,0,3.75,12.04,7.63,14.35,5.07.91-1.01,7.07-25.29,6.44-26.5ZM590.54,555.36c-48.85-31.9-107.08-49.48-164.36-59.15,7.05,22.62,2.82,46.36-7.65,66.96-24.42,48.08-89.42,69.77-140.6,64.48-11.39-1.18-22.39-5.2-33.87-5.9,2.44,9.19,10.1,17.47,18.06,22.36,13.5,8.29,28.75,5.89,41.97,15.22,20.17,14.24,19.12,41.52,37.26,58.05,12.72,11.59,23.61,14.18,29.89,32.56,13.9,40.69-22.58,62.24-49.64,83.09-1,.77-3.73,2.97-3.92,4.3h272.85v-281.98ZM105.99,580.33c1.23-1.84-8.74-6.79-9.77-8.19,3.52-5.31,2.79-11.88-4.35-12.85-2.72-.37-8.42.94-9.73.58-1.53-.42-2.6-3.87-4.18-5.08-7.28-5.58-21.43.7-20.61,10.43-11.88-3.06-19.8-1.64-18.68,12.52-1.13,1.58-9.61-1.88-8.94,4.21.51,4.63,15.69,7.06,19.5,7.49,18.97,2.14,39.36-1.57,56.78-9.12ZM4.08,561.28v32.21c26.17,8.21,54.53,10.63,81.56,4.96,14.24-2.99,26.24-10.04,41.64-8.17,4.71.57,9.66,3.51,14.51,3.89,7.92.63,16.02-3.25,23.69-3.35,1.43-.02,3.64-.41,4.28,1.34-9.49,0-16.39,3.94-26,3.32-7.7-.49-15.72-4.23-23.61-3.97-9.12.3-20.64,5.59-29.82,7.67-28.43,6.44-58.86,5.79-86.25-4.39v188.32c5.89,4.07,15,4.93,22.01,4.26,7.78-.75,12.9-5.29,20.07-6.88,19.09-4.22,29.79,10.17,46.97,10.87,12.48.51,23.11-8.74,34.87-8.62,9.57.1,20.15,7.7,30.26,8.59,16.35,1.44,30.07-10.34,46.38-6.93,6.68,1.4,13.29,6.1,20.19,7.42,27.99,5.36,42.4-15.97,65.92-11.35,7.35,1.44,14.31,5.52,22.04,5.62,6.13.08,11.97-2.71,17.81-3.21,4.82-.41,15.24-.62,18,4.17-5.05,0-10.46-2.37-15.46-2.34-6.73.04-14.07,3.79-21.68,3.31-6.42-.4-13.09-4.45-19.28-5.7-19.75-3.98-31.5,10.52-49.13,12.27-19.33,1.92-33.36-10.52-51.75-8.36-9.42,1.1-18.07,7.02-28.44,7.11-16.83.16-26.87-11.75-44.51-7.08-7.07,1.87-11.81,5.85-19.89,6.41-20.32,1.4-30.93-14.25-50.88-10.12-15.25,3.16-27,12.98-43.5,2.85v51.93h309.33c25.92-21.59,66.39-41.81,57.33-82.29-6.13-27.4-31.33-29.2-42.19-51.16-6.67-13.48-10.07-29.88-22.04-40.41-17.54-15.43-42.15-6.84-59.05-30.35-1.91-2.65-6.32-12.68-6.86-13.19-.94-.9-20.88-6.97-24.61-8.6-21.62-9.44-40.98-24.37-53.27-44.68-31.39-3.11-56.54,20.64-86.67,24.17-10.97,1.29-29.3.97-39.77-2.28-12.8-3.97-25.52-15.9-32.21-27.28Z"/>
  <rect x=".14" y="841.29" width="595" height=".66" fill="#fff"/>
  <path d="M590.54,3.89v548.19l-58.2-30.25,2.95-13.48c6.95-.55,12.74.65,17.4-5.61,1.12-1.51,2.63-6.19,3.68-6.84,2.33-1.45,5.37-.11,8.88-3.61,9.28-9.27,3.58-19.22-7.26-23.02-.12-10.84-3.99-19.98-16.43-18.41-5.12.65-8.35,5.43-10,5.81-3.3.76-8.99-4.03-15.26,1.14-4.34,3.58-3.65,10.32-4.03,10.76-.18.21-3.79.51-5.46,1.44-6.98,3.92-7.96,14.34-2.07,19.61,1.63,1.46,5.32,2.47,5.5,2.71.29.38-.04,4.11.46,5.82.77,2.64,4.84,3.07,5.44,5.09.3,1.01-2.2,12.62-2.84,12.66l-46.95-13.2,2.59-18.32c4.02.55,9.5,2.07,12.47-1.65,1.67-2.09,1.39-4.93,2.31-6.24.78-1.11,3-1.17,4.3-2.28,5.3-4.54.61-11.74,1.57-13.51.3-.55,3.78-2.34,4.96-3.63,7.51-8.24,4.72-18.65-5.26-22.99-1.83-.8-6.9-1.46-7.17-1.71-.21-.19-.64-3.79-1.49-5.41-4.54-8.63-17.02-10.56-24.15-4.01-1.79,1.65-3.47,6.87-3.98,7.2-1.77,1.14-8.09-.65-12.73,2.39-6.09,3.98-3.45,8.98-5.36,12.39-.34.61-2.91,1.47-3.98,2.59-6.57,6.8-1.52,17.79,7.59,17.78-.91,7.78.88,14.93,10.09,14.56l1.02.99-2.88,16.65-21.88-4.74c-7.65-30.13-28.47-54.11-54.75-69.83-1.47-1.67-4.57-13.53-4.54-15.86.01-.98-.34-1.04.94-.94,15.57,5.03,31.46,10.34,48.01,11.18,2.88.15,13.2.67,14.72-1.04,1.65-1.86,1.57-8.12,3.12-8.74,5.91.39,26.92,4.6,30.5-.55.9-1.3.75-4.02,1.97-5.09.8-.7,2.98-.58,3.61-1.65,1-1.71-.5-5.9.94-6.97,9.36,2.57,6.65-2.26,10.02-8.36,8.4-15.21,36.07-16.44,44.06-.92,3.77,7.32.43,6.17-3.04,11.03-.85,1.18-.78,3.74-1.96,4.61-3.34,2.48-10.69-.57-15.4,6.3-7.34,10.68,2.14,22.57,13.95,21.2,2.24-.26,4.49-2.25,6.6-1.94,1.85.27,5.58,4.37,10.59,4.63,6.36.33,8.35-3.69,11.8-4.01,2.87-.27,5.02,1.73,7.89,2.02,9.72,1,17.47-4.77,17.43-14.82-.02-7.38-4.86-6.77-5.77-11.3-1.1-5.49.95-12.01.32-18.06-1.48-14.05-15.62-29.91-27.08-37.34-25.25-16.36-58.27-13.93-80.88,5.94-1.92,1.69-6.3,8.08-8.24,8.85-2.06.81-4.83.14-7.58.97-4.56,1.38-8.81,7.48-14.38,6.58-1.27-.21-2.38-1.48-3.62-1.67-10.33-1.56-19.88-.24-29.99-.91-5.25-.35-10.33-2.25-15.66-2.09l-.81-1.24c6.78-7.37,13.73-10.62,8.38-22.11-1.34-2.88-6.1-6.78-6.55-8.57-1.33-5.29,2.14-10.79.18-17.93-2.61-9.51-10.4-11.34-16.09-17.43-8.66-9.28-11.87-22.46-22.06-31.19-9.86-8.46-29.06-14.88-41.89-12.35-2.65.52-5.41,2.54-8.02,2.5s-5.21-2.08-7.42-2.51c-18.2-3.54-44.05,6.68-53.84,22.76-2.89,4.75-4.38,10.85-7.6,15.44-6.46,9.23-20.62,13.06-20.93,26.42-.09,3.93,2.86,12.63,1.99,15.59-.15.51-5.88,3.92-7.13,6.17-2.95,5.29-1.6,12.33,1.89,16.97,2.92,3.88,7.54,5.15,9.84,8.89-7.09.2-13.75,3.09-20.72,3.94-7.94.96-17.33-.13-24.91,1.39-2.6.52-4.5,2.54-6.62,2.59-7.75.18-19.21-16.55-20.68,2.98-4.35.58-20.8-.57-22.28,4.71-1.09,2.25,1.94,4.79,1.84,6.44s-2.77,2.1-1.85,5.1c.59,1.92,3.6,2.08,4.17,3.09.94,1.65-.43,4.73,1.32,6.57,1.06,1.12,4.27,1.26,4.97,2.43,2.39,3.93-2.02,5.65,6.94,6.7,7.73.91,15.57-1.57,23.26-1.89-.07,3.95.58,9.11,5.21,10.24,8.83,2.15,30.91-3.32,40.29-5.82,4.28-1.14,13.07-5.19,16.14-5.6,1.16-.16,2.13-.4,2.73.95.2.58-2.67,11.08-3.19,11.78-.86,1.16-10.95,6.54-13.39,8.31-33.95,24.51-56.78,60.61-50.99,103.97,1.39,10.44,6.73,19.99,10.13,30.01-18.41.93-34.81,6.97-51.31,14.47-1.68-.2-1.77-2.18-2.98-2.96s-4.62-1.82-4.93-2.3c-2.04-3.16,2.7-9.65-4.69-14.38-6.05-3.87-7.24-.27-11.56-.88-3.16-.45-5.15-4.53-8.19-5.66-5.99-2.22-14.21,0-18.37,4.7-1.1,1.24-2.92,5.72-3.48,6.02-1.51.8-6.96-2.84-12.48.7-6.57,4.2-5.43,12.27-5.96,12.77-.25.24-4.18-.32-6.55,1.67-1.85,1.56-1.83,5.33-2.98,4.89-5.32-2.19-22.69-19.96-22.69-24.64V3.89h586.45ZM151.35,65.35c.6-2.87-.43-7.41,0-10.52l-2.25-.99c-19.36,15.14-23.13-22.43-6.12-18.9,2.83.59,5.64,5.03,8.37,2.14v-10.52c-34.15-22.95-44.5,44.42-11.61,43.65,2.52-.06,11.05-2.15,11.61-4.87ZM187.28,29.75c-6.62-9.56-23.22-10.39-29.98-.38-2.01,2.97-5.85,16.06-5.33,18.93.23,1.28,2.55,8.92,3.21,10.59,6.8,17.21,31.41,13.65,35.33-4.36,1.57-7.23,1.11-18.52-3.23-24.78ZM254.18,29.27c-9.44-11.47-25.22-8.79-31.18,4.5-3.87,8.61-3.39,17.72.65,26.34,4.54,9.7,16.89,12.53,25.88,7.41,11.84-6.74,12.66-28.53,4.65-38.26ZM419.27,22.95c-4.97-.69-11.3.51-16.44,0l-.99.99v44.04c2.29,2.34,6.45,1.76,9.56,1.67,15.34-.45,24.54-5.17,25.29-21.71,1.19,3.26,1.41,6.91,2.6,10.21,5.52,15.36,27.75,16.35,34.06,1.14,10.76-25.93-13.59-53.32-33.3-26.72l-3.36,12.07c.56-10.78-6.67-20.2-17.43-21.69ZM218.74,55.82c-3.39-.65-8.54.48-12.16,0v-29.91c0-.26-.8-2.15-1.09-2.35-2.01-.69-10.56-1.47-11.31.47v43.85c.98,2.67,22.63,2.16,25.66,1.01,3.29-1.25,1.36-8.36,1.88-11.31-.09-.29-2.73-1.72-2.98-1.76ZM274.3,67.32c.88-2.97-.65-9.99,0-13.47,5.33.24,5.53,12.35,8.58,14.76,2.24,1.76,9.54,1.19,12.3.2,1.97-1.9-4.18-16.04-5.54-18.72-.51-.99-1.53-1.04-2.16-1.86-.35-1.3,3.48-3.99,3.94-7.17,2.85-19.77-14.12-19.31-28.69-17.51l-.95,2.34.19,41.31.99,1.78c2.48,1,10.45,1.36,11.34-1.65ZM375.55,67.32c1.12-3.78-.83-12.99,0-17.42,6.16,9.74,4.75,25.21,21.06,18.59.55-5.69,1.75-42.72-.34-44.89-1.61-1.17-11.51-1.23-11.51.99v17.42c-3.39-2.63-6.34-16.77-8.82-18.46-1.66-1.13-12.87-1.21-12.87,1.04v40.42l-14.29-42.07-11.7.64-12.14,38.14c.58-1.8-1.01-5.92-2.97-5.92h-12.82v-3.94h11.51c.19,0,2.91-2.26,2.96-2.45.49-1.68.1-8.72-1.53-9.78-.3-.32-1.13-.92-1.44-.92h-10.52c-1.34-1.03-1.29-1.63,0-2.63h11.18c.26,0,2.15-.8,2.35-1.09.7-2.42,1.48-9.91-.43-11.35-1.5-1.14-24.46-1.1-25.61-.06l.16,45.39c1.71,1.13,18.2.72,21.58.67s5.07-.16,8.58-.08c7.1.15,8.44.44,9.8-7.18l10.22-.34c1.62,7.51,4.41,8.65,12,7.45,1.27-.2,2.3-1.86,3.31-1.73.69.09,1.67,1.54,2.89,1.73,2.22.35,8.59.55,9.4-2.16ZM153.33,101.83c-2.12-1.55-12.16-2.31-13.03-.21-1.34,3.21-1.3,34.28-.8,39.35.14,1.4.43,4.12,1.61,4.97,2.95,2.13,29.95-.39,35.44.62l3.04-7.63c9.14-.89,11.27-1.86,13.52,7.6h9.86l1-1.66-12.92-44.27-13.07.56-9.53,33.53c-.13.16-2.85-1.97-3.61-1.97h-11.51v-30.89ZM220.39,101.17v44.7l12.23.07,1.21-13.25c10.84-.08,18.05-4.43,18.18-16.07.21-19.71-17.42-16.66-31.61-15.44ZM250.63,146.52h10.85l2.88-7.51,9.95-.06c2.67,8.55,3.38,8.1,12.12,7.53,1.05-.07,1.92-1.43,3.28-1.31.37.03.16,1.39,1.32,1.4,4.47.05,34.31.57,35.55-.71l2.71-7.27,9.46.36c2.29,1.18.46,6.72,4.29,7.55,1.72.37,5.22.05,7.25.06,2.15,0,3.65-.03,5.85,0,11.57.14,28.68,2.73,29.31-13.55.2-5.08-3.09-8.58-3.32-11.21-.17-1.98,2.04-5.36,2-8.44-.06-3.83-2.02-9.05-5.46-11.01-3.83-2.18-18.03-2.57-22.52-1.87-.88.14-2.93.83-2.93,1.67v39.77l-13.61-41.28-12.07.81-10.49,33.23c-.19.28-1.53-1.97-2.95-1.97h-12.16l-.99-32.21h-9.86c-.12,0-1.64,1.53-1.64,1.64v39.77l-13.2-40.37c-1.83-2.22-9.61-.5-12.65-1.07-1.37.4-7.21,24.02-8.23,27.38-.27.9-1.25.95-1.52,1.82-.78,2.54-5.03,15.71-3.18,16.84ZM389.35,146.52h10.19c.12,0,1.64-1.53,1.64-1.64v-13.15c.5-.53.48-.84,1.34-.7,4.29.66,5.46,14.24,8.98,15.36,1.21.38,18.25.38,19.46,0,2.67-.84,2.76-7.59,3.47-7.8l10.07.11c.1,9.48,7.33,9.42,14.38,6.36l-13.64-44.23c-3.08-.18-10.89-1.44-12.83,1l-11.84,36.16c-.6-2.64-5.53-11.04-5.61-12.89-.05-1.1,3.14-6.02,3.33-9.78.94-18.52-16.5-15.25-29.29-14.16-.72,1.34-.86,2.77-1.01,4.25-.79,8.2-.98,28.87,0,36.85.2,1.65,1.03,2.72,1.33,4.26ZM559.92,184.37c-2.71-5.44-6.71-10.66-12.8-12.52-166.08-1.71-332.9-1.62-499.01-.05-21.76,5.99-21.07,56.2,3.62,58.88h491.17c20.22-2,24.32-31.68,17.03-46.31ZM421.57,289.82c-13.83-.11-22.12-16.69-13.49-27.63,1.37-1.74,9.69-6.83,6.91-8.86-18.11-3.65-41.07,9.41-31.01,30.34,4.39,9.12,15.05,12.88,24.79,12.07,1.32-.11,15.5-3.08,12.8-5.93ZM82.98,254.98c-5.25-1.62-3.46,19.02-2.62,19.72.78.41,2.62-1.37,2.62-1.64v-18.08ZM163.67,258.42c-5.33,1.12-8.85,7.93-8.08,13.01,1.1,7.27,15.91,23.48,23.53,22.2,10.93-1.84,31.3-25.14,16.74-33.54-10.12-5.83-13.8,2.23-18.48,2.11-3.82-.1-5.68-5.48-13.72-3.79ZM460.33,270.13c-8.23-1.02-8.77-6.88-14.03-11.17-1.4.22-4.21,6.88-5.35,7.84s-3.73.99-5.38,1.85c-7.62,3.92,3.36,5.69,5.4,7.35s2.72,6.24,3.93,7.24c3.75,3.14,4.08-3.71,5.58-5.6,1.71-2.15,11.31-5.09,9.85-7.51ZM526.39,270.49c-1.43-1.85-2.3-4.93-4.28-6.59-9.76-8.21-35.39-6.36-37.39,9.2-21.23-3.59-24.14,28.57-1.01,27.23,2.02-.12,3.98-1.61,5.87-1.33,1.33.2,5.94,4.09,8.26,4.94,5.33,1.95,12.06,2.29,17.46.38,2.59-.92,6.1-4.58,7.91-4.65,1.33-.05,4.45,1.84,7.16,2,13.83.84,23.08-10.18,17.56-23.48-3.31-7.97-12.39-7.99-19.52-6.06-.65-.03-1.63-1.13-2.01-1.63ZM61.28,276.66c-2.65-4.87-3.42-12.57-9.19-14.46-.74.91,5.38,12.18,6.66,13.38.87.83.91,1.41,2.54,1.07ZM113.22,262.21c-2.19-2.16-10.14,12.41-9.85,14.45,2.16,2.34,9.63-12.72,9.85-14.45ZM118.78,302.66c-12.49-23.54-41.15-29.86-62.41-13.49-29.96,23.06-9.93,65.67,25.62,65.77,26.47.08,50.45-26.55,36.8-52.28ZM42.21,293.1c1.4-1.33-6.34-6.69-7.41-7.37-2.82-1.79-5.38-4.04-9.02-3.79,1.2,2.75,14.54,12.96,16.43,11.16ZM138.2,281.93c-1.52-1.58-15.95,9.13-15.77,10.17.14.82,1.28,1.02,2.15.87,3.5-.61,9.22-7.88,13.51-8.53.25-.42.2-2.42.12-2.51ZM450.66,316.59c-2.04-1.21-2.57-9.44-8.26-7.75-3.19,9.95-5.94,6.33-12.3,8.88-7.58,3.03,3.31,8.97,3.85,11.32.7,3.05-6.35,12.54,3.57,10.56,2.66-.53,3.95-3.19,7.39-3.2,4.22,0,6.42,4.43,10.85,3.35.93-.92-1.05-9.94-.57-11.38.7-2.11,7.36-2.34,6.87-7.73-.43-4.69-8.8-2.53-11.39-4.07ZM34.33,314.79H15.92v1.97h18.41v-1.97ZM148.07,314.79h-18.41c-.2,1.31.52,1.72,1.65,1.96,2.87.63,15.19.84,16.76-1.96ZM545.83,322.03c-5.5-.95-4.35,3.46-5.99,6.16s-6.67,2.83-5.84,6.98c1.13-.99,6.58-2.76,7.07-3.44.93-1.31,1.79-7.88,4.76-9.69ZM39.58,339.11c-.79-.83-15.7,6.37-15.77,9.85,3.31.04,6.38-2.03,9.14-3.67,1.15-.69,8.1-4.63,6.63-6.18ZM138.83,346.38c-2.28.48-14.96-10.32-15.75-6.27-.16.85,13.41,9.1,14.74,8.82l1.01-2.55ZM107.19,355.66l-3.17-.11c.51,1.88,7.35,15.08,8.21,15.1,1.46-1.03.81-1.23.47-2.42-1.1-3.89-4.28-8.54-5.52-12.57ZM57.34,356.87c-2.79-2.23-8.78,11.12-9.86,13.13,3.74,2.91,8.29-11.04,9.86-13.13ZM82.98,360.8c-6.01-1.45-2.79,17.18-1.96,17.74l1.96-.98v-16.76ZM57.21,380.06c-10.15,1-16.7,5.77-18.92,15.92-23.18-.12-26.58,28.67-2.8,31.04,5.23.52,8.09-2.42,12.14-2.28,4.91.16,9.18,5.18,15.95,5.12,7.48-.06,12.41-5.48,16.51-5.94,5.19-.58,7.3,2.99,14.72.97,12.28-3.34,17.42-17.98,6.24-25.96-5.87-4.19-10.51-2.23-16.97-1.39-2.08-2.57-2.25-5.35-4.24-8.3-4.76-7.05-14.38-9.99-22.64-9.18ZM50.31,497.97c7.56,7.91,11.98-2.84,18.1-3.39,1.73-.15,3.33.94,5.04.96,10.3.09,25.76-.26,32.87-9.18,1.4-1.76,2.18-5.03,3.33-5.88,1.65-1.21,7.77-1.76,10.26-2.89,7.1-3.23,8.92-13.11,10.38-13.94,1.72-.97,6.52.35,8.61-2.57,2.52-3.52-4.42-3.95-3.99-5.95l4.6-3.94c-2.19-3.15-7.65,1.42-9.2.69-8.68-19.04-37.91-19.39-44.06.94-9.37-3.9-17.35-8.17-27.95-7.92-10.14.24-20.45,4.83-6.25,11.54-10.75,6.59,3.57,8.34,4.95,10.84.9,1.63.25,6.85,2.29,8.89-5.66-.1-12.36-2.81-17.55.84-6.01,4.23.87,6.54,1.45,9.25.31,1.48-1.33,3.59-.33,5.47,1.15,2.02,5.2,2.13,6.26,3.15.78.75.61,2.49,1.18,3.09ZM98.59,505.57c-5.73,1.01-5.41,5.62-7.89,6.6-1.18.46-4.05-.44-6.43.13-10.28,2.46-10.48,20.1,1.05,21.99,3.57.58,7.52-1.05,10.32-.49,1.76.35,3.53,2.6,5.38,3.2,7.12,2.31,8.05-1.59,13.34-2.5,5.31-.92,11.56,1.28,15.3-4.43,5.39-8.22.25-14.53-7.86-17.13-1.7-.54-4.02.11-5.3-.62-.73-.42-1.2-2.64-2.28-3.64-3.38-3.13-11.26-3.88-15.63-3.11ZM51.11,520.17c-2.14-1.96-2.59-4.52-5.28-5.57-2.97.17-4.44,6.29-5.58,6.92-1.79,1-7.81.13-9.28,1.9-2.65,4.26,3.94,5.92,4.52,8.74.67,3.25-.89,6.18-.5,9.4.33.4,7.72-3.38,9.55-3.32,2.5.09,6.95,4.82,10.82,3.32.17-2.83-1.38-5.9-.51-8.73.56-1.83,9.79-6.49,3.98-9.53-2.84-1.48-4.52-.19-7.73-3.13Z" fill="#fff"/>
  <path d="M4.08,561.28c6.69,11.38,19.41,23.31,32.21,27.28,10.46,3.25,28.8,3.57,39.77,2.28,30.13-3.53,55.28-27.28,86.67-24.17,12.3,20.31,31.66,35.24,53.27,44.68,3.73,1.63,23.67,7.69,24.61,8.6.54.52,4.95,10.54,6.86,13.19,16.91,23.51,41.51,14.92,59.05,30.35,11.97,10.53,15.37,26.93,22.04,40.41,10.86,21.96,36.06,23.76,42.19,51.16,9.06,40.48-31.41,60.7-57.33,82.29H4.08v-51.93c16.49,10.13,28.24.31,43.5-2.85,19.95-4.13,30.56,11.51,50.88,10.12,8.08-.56,12.82-4.54,19.89-6.41,17.64-4.67,27.68,7.24,44.51,7.08,10.37-.1,19.03-6.01,28.44-7.11,18.39-2.16,32.43,10.28,51.75,8.36,17.63-1.75,29.38-16.26,49.13-12.27,6.19,1.25,12.86,5.3,19.28,5.7,7.61.48,14.95-3.27,21.68-3.31,5-.03,10.41,2.34,15.46,2.34-2.75-4.8-13.17-4.59-18-4.17-5.84.5-11.68,3.29-17.81,3.21-7.72-.1-14.68-4.17-22.04-5.62-23.52-4.62-37.93,16.71-65.92,11.35-6.9-1.32-13.51-6.02-20.19-7.42-16.31-3.41-30.03,8.37-46.38,6.93-10.11-.89-20.69-8.49-30.26-8.59-11.76-.12-22.38,9.13-34.87,8.62-17.18-.7-27.89-15.09-46.97-10.87-7.18,1.59-12.29,6.14-20.07,6.88-7.01.67-16.12-.18-22.01-4.26v-188.32c27.39,10.19,57.82,10.84,86.25,4.39,9.18-2.08,20.7-7.37,29.82-7.67,7.89-.26,15.92,3.47,23.61,3.97,9.61.62,16.51-3.33,26-3.32-.65-1.76-2.85-1.36-4.28-1.34-7.66.1-15.77,3.98-23.69,3.35-4.85-.39-9.8-3.32-14.51-3.89-15.4-1.87-27.4,5.19-41.64,8.17-27.03,5.67-55.39,3.25-81.56-4.96v-32.21ZM153.11,627.87c-5.22-7.49-20.19-13.83-29.06-14.65-16.37-1.52-27.06,2.83-38.81,13.82-3.12-.97-4.6-3.64-8.14-4.34-12.67-2.49-11.98,9.82-4.65,15.81-3.98,3.41-9.07,11-4.61,15.79,5.07,5.45,13.59-4.05,17.49-4.28,1.71-.1,9.4,4.62,12.14,5.56,11.19,3.86,24.24,4.01,35.62.82,11.5-3.23,29.72-14.62,20.03-28.52ZM52.07,624.38c-4.87.65-9.09,2.47-14.13,1.97-4.77-.47-8.67-4.16-13.76-3.96-2.87.11-5.33,2-8.21,2.04-1.27,5.46,6.38.52,10.05.65s8.36,3.22,12.09,3.74,13.55.69,13.97-4.44ZM215.12,627.01c-4.36.04-7.62,2.26-12.18,2-5.57-.31-10.82-4.63-15.82-5.23-4.55-.55-7.86.81-12.1,1.92l.96,2.46c4.28-1.12,7.93-2.33,12.46-1.75,7.7.98,20.32,11.15,26.68.6ZM280.21,661.85c-9.49,4.38-17.91-2.35-26.6-2.67-4.95-.18-8.5,2.13-12.48,2.02-8.18-.23-17.56-9.68-26.65-3.63-.08,1.27,9.61.2,11.33.49,4.19.69,8.31,3.98,13.32,4.43,6.27.57,9.61-2.45,15.05-1.9,7.28.73,20.32,9.62,26.03,1.26ZM232.22,693.38c-.4-.75,6.05-9.24-1.96-15.44-4-3.1-9.61-3.49-14.48-3.23-4.44-13.26-19.72-19.84-30.25-8.6-2.91,3.11-3.19,8.44-4.93,10.19-1.53,1.53-6.73,1.78-8.88,4.92s-.5,6.82-1.63,8.89c-.33.6-5.39,2.68-7.19,5.3-6.41,9.32,2.25,20.28,11.31,23.44,2.89,1.01,14.15,2.02,14.98,3.47.98,7.44-4.49,12.92-4.02,19.74,1.54,2.37,22.06,2.78,24.41.69,2.78-2.48-3.81-19.67-1.69-24.37,11.8,3.28,33.87-3.38,29.79-18.94-1.1-4.2-5.16-5.48-5.47-6.05ZM89.55,672.36c-.85-3.63-11.7-4.68-14.79-4.65-5.2.06-10.21,3.47-15.12,4-9.01.97-15.51-3.94-23.02-3.99-2.22-.01-11.6,1.67-9.85,4.66,10.55-5.01,20.35,1.78,30.89,1.58,6.27-.12,12.34-3.29,18.39-3.58,5.38-.25,8.43,1.9,13.5,1.99ZM103.36,705.88c-1.92-18.15-16.64-10.4-15.13,3.94-4.49-13.59-26.47-14.25-17.76,3.64,5.97,12.25,22.41,17.44,34.85,13.11,7.74-2.69,20.06-14.44,15.52-23.37-5.15-10.12-16.72,3.45-17.47,2.68ZM261.81,705.88c12.86-3.41,23.02,4.69,35.66,3.12,1.2-.15,8.21-2.07,8.39-2.8.76-3.21-8.19.15-9.6.27-10.45.88-13.39-3.13-21.6-3.9-1.2-.11-16.41.04-12.84,3.31ZM54.05,707.86c-9.6,2.38-19.32-3.93-27.97-3.32-2.51.18-8.04,1.17-7.53,4.62,2.29.26,4.25-1.64,6.29-1.92,8.92-1.25,14.44,3.96,22.3,3.95,1.33,0,9.33-1.07,6.91-3.34ZM278.24,738.75c-3.96-.36-7.69,2.5-11.5,2.61-11.09.33-17.6-8.4-30.74-2.43-.65.29-2.37.26-1.8,1.44,3.81,2.76,6.79-1.8,11.46-1.65,3.95.13,8.31,3.01,12.04,3.79,7.07,1.47,13.4.67,20.15-1.73l.38-2.03ZM337.41,742.7c-10.91,4.16-19.94-3.07-30.59-2-1.72.17-6.15.83-6.22,3.31,3.13-.17,7.15-1.46,10.18-1.36,4.27.13,7.61,2.76,11.25,3.28,2.11.3,19.18,1.17,15.38-3.22ZM100.07,751.23c-.03-1.2.39-2.64-.64-3.62-.54-.52-12.7-4.75-14.14-4.92-10.53-1.26-19.79,3.46-29.6,3.34-11.41-.13-23.61-9.97-33.85.28,5.02.11,8.03-1.97,13.5-1.66,5.14.28,10.03,2.75,15.19,3.21,14.06,1.28,27.78-6.04,41.34-.58,1.24.5,7.39,4.87,8.2,3.95ZM158.58,749.92c-3.52-5.8-17.5-7.43-23.83-6.41-2.3.37-9.04,3.81-4.09,3.81,2.74,0,6.07-1.66,9.3-1.73,6.83-.14,11.94,4.18,18.62,4.33Z" fill="#fff"/>
  <path d="M590.54,555.36v281.98h-272.85c.18-1.33,2.92-3.53,3.92-4.3,27.05-20.85,63.53-42.4,49.64-83.09-6.28-18.38-17.17-20.97-29.89-32.56-18.14-16.53-17.1-43.81-37.26-58.05-13.22-9.34-28.48-6.93-41.97-15.22-7.96-4.89-15.61-13.18-18.06-22.36,11.48.7,22.48,4.72,33.87,5.9,51.18,5.28,116.18-16.4,140.6-64.48,10.46-20.6,14.7-44.34,7.65-66.96,57.29,9.67,115.51,27.26,164.36,59.15ZM492.17,524.88c-4.43-6.62-8.91-8.1-16.95-6.25-9.96,2.29-9.15,9.31-11.58,10.77-1.03.62-4.64.58-6.56,1.33-4.58,1.77-6.81,6.67-6.68,11.39-6.37-.71-18.9,9.26-10.37,14.18,2.96,1.71,19.05.25,23.97.36,12.47.28,43.95,3.55,54.16-1.7.84-.43,1.79-.8,2.25-1.72,3.09-7.35-6.02-7.83-7.51-10.14-.98-1.52-.06-4.36-.63-6.39-1.72-6.15-11.68-7.29-16.99-5.71-.51-2.49-1.86-4.25-3.1-6.12ZM379.58,636.81c-3.46-14.43-18.87-13.1-24.83-1.21-5.54-.18-14.17-.45-15.87,6.35-.41,1.66.3,4.27-.46,5.46-.85,1.34-10.05,1.47-11.28,8.5-1.03,5.89,6.23,7.52,10.57,7.93,12.37,1.16,52.49,2.08,62.61-2.52,5.5-2.5,7.3-6.74,2.12-10.92-1.53-1.24-7.31-3.29-7.53-3.64-1.08-1.68.67-4.91-1.62-8.24-2.97-4.33-9.45-3.18-13.71-1.7ZM441.96,693.37c2.57-9.02-2.73-16.16-12.38-13.99-2.41.54-6.85,4.09-7.66,4.13-4.24.2-7.74-5.6-15.03-.53-6.51,4.52-2.06,10.55-3.14,13.9-.32.99-2.42,1.6-3.23,2.74-3.2,4.53-4.13,11.92.7,15.76,2.2,1.75,7.62,2.28,8.54,3.29,1.01,1.12.41,3.35,1.94,5.29,2.27,2.87,8.45,2.28,8.6,6.54l-2.33,10.21c-4.75-8.24-12.96-17.77-23.72-14.5-2.08,26.77,29.09,36.22,49.22,23.57,5.83-3.66,13.26-11.06,10.06-18.34-9.96-2.37-20.56,1.43-26.03,10.27l-1.32-.69,2.65-16.07c4.62,1.57,8.81,2.17,12.81-1.32,4.54-3.96,1.84-7.16,3.06-10.74.35-1.02,4.29-2.94,5.47-5.7,2.67-6.27-1.41-13.17-8.2-13.82ZM526.36,707.6c-1.06-1.51-.73-2.99-2.85-4.71-3.86-3.13-11.41-3.8-15.97-2.1-6.68,2.5-8.59,11.95-9.68,12.66-1.61,1.04-5.62-.48-8.06-.21-9.9,1.08-16.7,14.88-6.12,20.91,10.64,6.07,54.11,6.5,64.82.34,7.96-4.57,5.44-12.01-3.33-12.2,3.67-11.74-6.81-17.71-16.78-12.58-.41-.86-1.54-1.43-2.03-2.13Z" fill="#fff"/>
  <path d="M385.29,463.46c3.94,6.92-15,11.57-19.3,11.71-12.77.43-17.74-10.33-35.39-8.45-17.92,1.91-39.82,22.11-31.89,40.91,8.06,19.11,33.87,1.89,44.18,7.76,7.75,4.4,3.69,14.06,5.18,20.45.68,2.91,4.47,3.98,5.07,7.41.85,4.83-1.94,8.51-1.86,12.39.08,4.3,4.25,9.33,4.51,13.29.28,4.28-2.75,10.75,2.68,13.68,7.69,4.16,20.13-5.36,24.94-11.15,4.3-5.18,5.93-12.3,9.59-16.7,3.27-3.93,8.84-6.28,11.35-10.99,2.89-5.42,1.78-11.92,4.82-16.88,3.63-5.93,12.98-8.48,12.23-17.05-.8-9.23-25.24-9.21-22.85-22.82.23-.26,5.35,1.01,6.27,1.28,2.39.69,14.76,5.42,16.56,6.45,2.6,1.48,2.04,3.98,2.88,6.19,11.21,29.61-6.72,69.32-29.65,89.6-46.52,41.15-119.24,43.12-174.68,20.16-44.3-18.35-74.39-57.64-66.43-106.09.46-2.77,2.96-15.35,4.1-16.93,1.82-2.53,5.54,4.78,6.47,5.67,4.22,4.04,11.43,3.72,16.41,6.27,2.7,1.38,7.38,6.51,7.62,9.5.41,4.99-3.84,8.5-4.48,13.78-1.57,13.01,8.93,15.77,15.7,24.28,10.73,13.5,6.11,26.1,13.28,39.3,3.35,6.16,12.17,14.41,19.8,12.13,5.71-1.7-.19-11.06,1.28-16.47.73-2.69,6.15-5.25,7.23-8.55s-.1-6.26,1.93-9.9c1.68-3.02,7.41-6,9.77-9.3,2.54-3.55,2.97-9.3,5.37-13.04,4.35-6.8,11.48-7.29,7.81-18.55-2.82-8.66-15.46-6.32-21.56-8.68-3.17-1.22-6.62-6.42-9.42-8.33-9.26-6.35-19.61-1.47-28.5-5.03-6.5-2.6-7.54-13.38-15.46-15.44-4.75-1.23-10.87,1.23-9.21-7.15.62-3.15,6.27-7.22,9.14-7.94,4.16-1.05,9.48.91,14.16.35,11.37-1.38,11.77-12.1,20.53-15.63,6.41-2.58,16.71-1.8,20.7-8.23,1.28-2.06,1.64-5.96,3.17-7.35,3.09-2.8,11.5-1.4,15.12-5.92,4.25-5.31-.6-12.49,4.9-19.42,6.27-7.9,13.18-4.29,21.02-4.57,6.43-.23,11.84-3.6,18.43-3.28,4.92.24,43.19,10.08,44.75,12.45,1.74,14.2-7.7,11.35-15.51,15.44-3.65,1.91-4.88,5.76-7.62,7.5-5.38,3.4-20.17,3.09-19.18,13.39.75,7.85,9.58,9.17,15.93,8.33,4.95-.65,12.31-5.24,17.09-5.13,8.37.19,12.07,11.29,24.1,8.84,3.17-.64,14.29-8.18,16.93-3.54Z" fill="#fff"/>
  <path d="M224.99,360.47c-7.7,3.56-13.38,3.2-20.32-1.37-6.54-4.32-11.22-9.38-7.22-17.62,1.88-3.86,7.57-5.01,8.35-8.77,1.11-5.33-3.71-10.46-.85-19.22,3.02-9.25,12.05-11.76,17.68-17.81,4.94-5.31,6.87-14.45,11.02-20.53,9.01-13.22,31.13-21.85,46.8-20.08,3.64.41,8.34,3.26,10.62,3.22,5.45-.09,9.6-4.06,18.97-3.22,36.01,3.22,33.32,26.66,53,44.95,4.21,3.92,7.47,4.14,11.05,9.99,6.88,11.22.26,14.33,2.25,22.74,1.28,5.43,10.46,8.5,8.09,17.58-.83,3.17-9.59,11.59-12.84,12.19-4.51.83-12.25-3.26-17.08-3.01l.76-21.24c7.44-4.06,13.97-6.41,13.04-16.54-1.07-11.57-17.93-12.35-18.34-7.28-.32,3.9,2.2,12.49,2.55,17.15,1.44,19,2.43,41.78-18.25,50.09-1.43.57-4.81.63-5.29.96-.44.3-2.89,7.23-4.73,9.41-15.09,17.88-54.97,20.75-70.9,3.19-3.25-3.59-4.37-11.3-5.69-12.71-.73-.78-7.19-2.17-9.23-3.27-12.2-6.53-12.18-25.75-11.47-37.81.3-5.06,4.7-25.87,3.32-28.32-2.55-4.5-13-2.28-15.82,2.01-5.85,8.9,1.24,19.25,10.52,21.37v23.99ZM292.04,267.47c-4.63-.07-3.49,3.24-5.11,5.72-12.16,18.5-31.73,21.97-51.46,28.25-6.62,15.84-.43,38.84,17.67,43.39,8.49,2.13,5.9-.61,11.75-4.28,1.61-1.01,9.04-4.76,10.42-4.7,1.15.05,5.85,4.52,8.34,5.42,3.29,1.2,7.15,1.59,10.64,1.07,9.14-1.36,6.04-9.55,18.35-2.44,4.75,2.74,6.39,7.42,11.94,7.1,9.43-.55,19.84-12.79,21.88-21.51,1.1-4.73,1.01-19.77-1.8-23.52-1.6-2.14-19.21-6.16-23.67-7.89-12.43-4.84-25.85-12.57-28.96-26.6ZM275.6,348.32c-5.66,2.09,3.33,7.83,5.94,8.86,8.26,3.28,24.03,1.71,24.97-8.87l-2.54.09c-1.96,10.52-25.58,9.89-28.37-.09Z" fill="#fff"/>
  <path d="M422.23,492.25c-9.32.23-16.39-9.87-25.56-7.14-1.26,7.8,2.9,12.94,9.34,16.46,3.09,1.69,9.31,3.01,11.28,5.15,6.66,7.23-7.54,13.64-10.08,18.83s-1.79,12.69-5.1,17.91c-2.74,4.32-9.31,7.51-12.11,11.09-7.99,10.17-4.11,17.06-20.17,25-15.54,7.68-9.2-3.82-10.88-13.19-.78-4.33-4.22-4.71-4.94-8.2-1.33-6.44,4-11.64.4-18.15-1.03-1.85-2.9-2.28-3.56-4.98-1.8-7.38,2.24-15.51-6.63-20.97-12.42-7.64-26.03,7.44-38.97-1.8-9.04-6.45-5.23-19.85-.19-27.71,7.68-11.99,27.57-20.5,41.06-14.46,2.91,1.3,5.18,4.31,8.41,5.4,7.24,2.45,17.37,1.62,24.49-1.14,13.28-5.14,12.37-15.99-2.31-13.48-5.22.89-7.01,5.27-13.32,4.46-4.93-.63-10.84-7.7-15.81-8.51-9.57-1.57-27.32,11.4-33.18.96-5.94-10.58,11.49-11.35,16.92-14.68,3.9-2.39,3.98-5.06,9.61-7.48,7.98-3.43,15.3-1.22,14.85-13.26,2.49-3.45,13.48,3.85,16.18,5.47,24.63,14.82,41.21,37.27,50.28,64.42Z" fill="#fff"/>
  <path d="M271.66,406.82c.43,3.85-4.53,5.56-5.73,8.39-1.89,4.43-.3,14.51-3.29,17.27-2.82,2.59-10.4,2.41-13.95,4.93-3.01,2.13-2.92,5.74-4.74,8.41-4.61,6.74-17.03,4.33-23.88,9.65-3.92,3.04-6.14,9.41-11.26,11.75-8.94,4.09-20.41-3.7-27.1,6.43-9.47,14.34,7.21,12.31,12.71,15.99,3.91,2.61,5.13,9.62,9.3,12.4,6.62,4.4,18.88,1.28,26.52,3.72,5.95,1.9,7.3,7.27,11.63,9.4,6.59,3.24,24.49,1.05,23.18,12.86-.69,6.27-9.76,10.46-11.36,14.36-1.19,2.9-.44,7.04-2.5,10.59s-7.9,5.57-10.06,9.01c-2.45,3.9-1.03,7.66-2.75,11.72s-8.5,5.37-8.1,11.5c.19,2.98,6.58,12.44-.82,12.11-18.86-.83-17.79-33.44-23.84-45.25-4.78-9.34-21.88-17.97-19.79-28.97.39-2.06,1.61-1.94,1.87-2.72,3.49-10.47,4.07-17.11-6.74-23.19-7.33-4.13-13.84-.9-18.97-9.96-3.15-5.56-1.11-7.39,1.51-12.71,19.69-39.9,65.54-62.36,108.16-67.69Z" fill="#fff"/>
  <path d="M422.88,370.01c-3.14,15.15-5.83,30.01-1.97,45.35-2.37,2.27-52.31-8.36-56.83-13.18-2.87-3.06-1.17-7.9-3.98-10.46-1.32.93-1.06,2.18-.94,3.53.3,3.43,7.7,24.22,6.53,25.37-9.74-2.73-19.06-7.37-28.93-10.18-8.47-2.41-17.11-3.77-25.63-5.92,3.98-2.77,9.82-4.97,13.14-8.55,2.62-2.83,5.16-10.46,7.55-12.17,2.07-1.47,5.59-1.47,8.03-2.49,7.75-3.27,11.74-11.56,13.76-19.22,12.81,1.07,25.18,5.36,38.07,6.59,10.41,1,20.83.15,31.21,1.33Z" fill="#fff"/>
  <path d="M226.3,363.43c-.26,7.09,4.45,13.48,10.32,16.96,2.3,1.36,7.55,2.7,8.72,3.77,1.85,1.67,4.46,10.28,8.31,14.04,2.48,2.42,8.41,4.68,9.71,5.94.7.69.39,1.2.42,2.02-16.15,1.3-30.82,8.43-46.02,13.15l7.77-30.06c-2.32-4.52-3.2,3.33-3.89,5.22-.14.4-.98.47-1.19,1.04-1.29,3.51.08,7.11-3.97,9.71-5.17,3.32-30.54,9.86-37.26,10.73-5.24.68-10.88-.49-16.03,1.39.87-14.75,2.06-29.64-1.98-44.03,22.22.53,43.5-5.86,65.09-9.87Z" fill="#fff"/>
  <path d="M480.09,436.4c16.99-4.41,22.65,17.31,6.22,22.97-.84,1.56,4.48,8.25-.36,13.46-1.04,1.12-3.1,1.56-4.21,3.03-3.4,4.5-1.58,10.02-11.52,6.23l-.69-12.13c-3.01.82-4.96-2.9-7.01-3.2-.66-.1-9.68,2.48-10.06,2.83-2.08,1.93.63,8.77-5.5,8.19-6.7-.63-7.64-8.44-6.41-13.69-6.95-1.26-11.49-3.67-10.39-11.53.8-5.72,6.97-4.64,7.75-6.71,1.12-3.01-1.3-5.23,1.72-9.45,3.35-4.68,8.75-3.46,13.73-2.67,2.66-8.47,6.53-12.34,15.9-11.8,10.32.59,8.9,6.5,10.83,14.49Z" fill="#fff"/>
  <path d="M553.72,471.22c7.5,2.08,15.53,4.2,12.97,13.94-1.33,5.07-4.01,6.33-8.5,7.96-1.36.49-3.79.24-4.52.74-.37.25-1.03,5.09-2.6,7.26-3.12,4.33-8.77,5.3-13.8,4.94-1.23-1.23,2.52-11.42,1.9-13.36-.46-1.43-3.26-1.72-4.35-2.6-.6-.48-.64-2.31-1.48-2.82-1.93-1.18-3.66,2.07-6.21,1.71-1.95-.28-4.41-4.95-6.32-3.69-2.22,2.48-.68,14.64-4.87,14.21s-3.36-5.95-2.33-8.56c-9.49-.54-14.01-9.8-7.58-17.11,3.02-3.43,7.89-2.98,8.21-3.3.99-.97-.52-11.65,6.97-13.08,5.61-1.07,6.69,1.26,11,2.5,9.84-15.03,27.95-5.33,21.5,11.25Z" fill="#fff"/>
  <path d="M105.99,580.33c-17.42,7.56-37.81,11.26-56.78,9.12-3.81-.43-18.99-2.86-19.5-7.49-.67-6.09,7.81-2.63,8.94-4.21-1.12-14.16,6.8-15.58,18.68-12.52-.82-9.73,13.33-16.01,20.61-10.43,1.58,1.21,2.65,4.66,4.18,5.08,1.31.36,7.01-.95,9.73-.58,7.14.96,7.86,7.54,4.35,12.85,1.03,1.4,11,6.35,9.77,8.19Z" fill="#fff"/>
  <path d="M520.85,402.87c.82-17.79,27.48-15.76,28.24,1.7,6.41-1.79,17.02-1.18,18.81,6.79,2.29,10.17-7.86,16.24-16.8,13.51-1.75-.53-3.17-2.35-4.94-2.36-3.54,0-4.63,6.98-15.16,4.05-2.23-.62-6.86-4.46-7.28-4.54-.58-.11-4.79,2.1-6.65,2.35-16.33,2.19-18.5-18.12-5.95-21.07,3.25-.76,6.47-.38,9.74-.44Z" fill="#fff"/>
  <path d="M552.4,387.42c-3.51-32.7-42.39-47.05-70.52-36.32-11.02,4.2-16.15,11.02-24.17,18.75-.61.58-1.03,2.43-1.43,2.64-2,1.02-7.19-1.28-9.72-.52,4.1-11.84,10.85-18.62,21.49-24.84,28.53-16.67,70.08-9.74,87.1,19.81.93,1.61,7.78,15.63,7.78,16.54v18.08l-10.52-.66c-.33-4.32.46-9.23,0-13.47Z" fill="#fff"/>
  <path d="M446.55,364.09c.83,5.41-4.51,7.54-6.4,11.67s-.77,7.98-5.43,10.66c6.33.9,6.68-10.08,9.67-11.03,2.39-.76,20.5.56,23.24,1.48.89.3,2.24,1.21,2.5,2.14-2.34,9.68-17.68-.69-22.26,4.79,5.9,2.41,22.57-3.39,20.41,6.95l-21.07-.36.99,1.29c2.56.51,21.41-.08,18.45,5.93-1.87,3.81-17.57-.53-21.41.66-.25,1.46.11,1.31,1.28,1.64,3.94,1.11,17.67-.19,13.56,6.3-12.95,3.8-26.13-2.39-39.09-3.42-.28-9.43,1.21-18.85,3.44-27.96,1.09-2.1,20.83-12.08,22.12-10.74Z" fill="#fff"/>
  <path d="M133.27,387.09c2.25-4.23-3.81-1.31-5.89-1.29-2.22.02-10.46-.3-11.61-1.62-1.13-1.21.27-3.25,1.43-3.95,1.51-.9,17.52-2.58,19.85-2.18,6.54,1.14,6.28,7.36,10.14,10.86.73.66.47,1.17,2.17.81,1.39-1.37-11.38-15.49-11.15-18.12.34-4.73,10.7,1.67,12.68,2.47,2.8,1.14,5.94,1.81,8.84,2.66,2.55,9.03,2.15,18.42,2.18,27.72-11.71,2.92-23.89,5.08-35.92,3.06-2.86-3.98,6.98-4.81,8.92-5.67,1-.44,1.63.11,1.31-1.61-5.22-.67-10.94,3.53-15.56-.21-4.14-4.88,11.61-4.37,13.3-5.03.81-.32,1.21.43.96-1.33-3.48-3.26-19.68,3.02-19.75-2.3.03-2.3,6.12-4.28,7.59-4.28h10.52Z" fill="#fff"/>
  <path d="M550.43,397.61c-2.09.04-1.96-2.95-3.62-4.6-1.8-1.79-5.42-2.41-6.57-3.94-1.04-1.38-2.54-8.4-3.92-11.2-10.03-20.31-38.66-23.88-56.84-12.74-7.49,4.59-8.07,10.84-18.13,8.15-.73-.2-1.19.52-1-.97,15.99-31.97,71.41-28.53,86.25,2.52.86,1.81,3.83,9.81,3.83,11.28v11.5Z" fill="#fff"/>
  <path d="M537.26,388.37c-10.38,4.02-10.48-4.63-15.76-10.14-7.98-8.32-19.71-9.55-30.23-5.92-11.25,3.88-12.39,9.36-18.09,18.71-.98,0-3.58-6.52-3.53-6.9.1-.69,2.15-1.02,2.47-2.06.5-1.62-2.05-4.59-.91-7.44.52-1.31,6.23-5.76,7.74-6.74,20.64-13.43,54.46-6.72,58.31,20.48Z" fill="#fff"/>
  <path d="M467.48,471.99l-3.47,28.85-14.84-2.34,4.94-27.28c5.42-2.27,8.39-2.09,13.37.77Z" fill="#fff"/>
  <path d="M536.5,493.71c.63,1.21-5.52,25.49-6.44,26.5-2.31,2.56-14.34-1.32-14.35-5.07-.01-7.23,7.06-17.66,6.45-25.5,2.05-.53,2.7,1.8,4.29,1.98,1.81.2,3.72-1.76,5.75-1.22.26.07,4.18,3.08,4.3,3.32Z" fill="#fff"/>
  <path d="M355.2,333.81l-2.69-19.23c16.34-6.53,18.63,19.65,2.69,19.23Z" fill="#fff"/>
  <path d="M228.1,313.66c.79.89-1.27,16.62-1.93,18.42-.94,2.57-7.7-1.32-9.08-3.15-2.96-3.95-3.25-8.81-.29-12.78,2.2-2.95,8.51-5.63,11.29-2.49Z" fill="#fff"/>
  <polygon points="428.71 406.25 428.04 413.94 422.89 414.7 421.57 404.84 428.71 406.25" fill="#fff"/>
  <path d="M161.22,407.47l-.96,7.91c-5.01,3.11-3.86-3.58-4.2-7.16l5.17-.75Z" fill="#fff"/>
  <path d="M559.92,184.37c7.29,14.63,3.19,44.31-17.03,46.31H51.72c-24.69-2.68-25.37-52.89-3.62-58.87,166.11-1.57,332.93-1.67,499.01.05,6.09,1.86,10.09,7.08,12.8,12.52ZM552.7,179.74c-3.65-3.65-5.95-4.53-11.11-4.98-164.44.73-329.18-1.32-493.44,1.03-18.1,5.78-17.6,51.14,5.56,50.95h487.88c20.73-.29,22.08-36.06,11.12-47Z"/>
  <path d="M375.55,67.32c-.8,2.71-7.18,2.52-9.4,2.16-1.21-.19-2.19-1.64-2.89-1.73-1.01-.13-2.03,1.53-3.31,1.73-7.59,1.21-10.38.07-12-7.45l-10.22.34c-1.35,7.62-2.7,7.33-9.8,7.18-3.51-.08-5.14.03-8.58.08s-19.87.46-21.58-.67l-.16-45.39c1.16-1.04,24.11-1.08,25.61.06,1.9,1.44,1.12,8.93.43,11.35-.2.29-2.1,1.09-2.35,1.09h-11.18c-1.29,1-1.34,1.6,0,2.63h10.52c.31,0,1.14.59,1.44.92,1.63,1.06,2.01,8.1,1.53,9.78-.05.18-2.77,2.45-2.96,2.45h-11.51v3.94h12.82c1.95,0,3.55,4.11,2.97,5.92l12.14-38.14,11.7-.64,14.29,42.07V24.59c0-2.25,11.21-2.17,12.87-1.04,2.48,1.68,5.43,15.83,8.82,18.46v-17.42c0-2.22,9.9-2.16,11.51-.99,2.09,2.16.89,39.2.34,44.89-16.3,6.62-14.89-8.85-21.06-18.59-.83,4.43,1.12,13.64,0,17.42ZM321.64,25.58h-23.01v40.75h23.67v-7.23h-14.14l-.99-9.86h13.81l.02-7.43c-.13-.45-1.44-1.12-1.66-1.12h-12.16v-7.23h14.46v-7.89ZM356.11,52.26c-2.74-8.63-5.2-17.36-7.84-26.03l-10.12-.56-11.92,40.66,8.45-.09,1.99-6.75,12.79-.41,2.38,6.97,9.24.29c-2.18-4.14-2.59-8.89-4.02-13.26-.16-.5-.91-.65-.96-.81ZM374.89,25.58h-9.2v40.75h7.89v-26.95l11.18,26.95h10.52V25.58h-8.55v26.95l-11.83-26.95Z"/>
  <path d="M250.63,146.52c-1.85-1.13,2.4-14.3,3.18-16.84.27-.87,1.25-.92,1.52-1.82,1.02-3.36,6.86-26.97,8.23-27.38,3.04.57,10.82-1.15,12.65,1.07l13.2,40.37v-39.77c0-.12,1.53-1.64,1.64-1.64h9.86l.99,32.21h12.16c1.42,0,2.76,2.25,2.95,1.97l10.49-33.23,12.07-.81,13.61,41.28v-39.77c0-.84,2.04-1.54,2.93-1.67,4.48-.7,18.69-.31,22.52,1.87,3.45,1.96,5.41,7.18,5.46,11.01.05,3.08-2.17,6.46-2,8.44.23,2.63,3.52,6.13,3.32,11.21-.62,16.28-17.74,13.69-29.31,13.55-2.2-.03-3.7,0-5.85,0-2.03,0-5.53.31-7.25-.06-3.82-.83-1.99-6.37-4.29-7.55l-9.46-.36-2.71,7.27c-1.24,1.28-31.07.76-35.55.71-1.16-.01-.95-1.37-1.32-1.4-1.35-.11-2.23,1.25-3.28,1.31-8.74.57-9.44,1.02-12.12-7.53l-9.95.06-2.88,7.51h-10.85ZM286.13,143.89l-11.5-40.76-9.55-.33-13.14,41.09,9.24-.28,2-7.53h13.01s2.14,7.71,2.14,7.71l7.79.1ZM299.94,102.48l-8.55.99v40.42h23.67v-7.89h-15.12v-33.52ZM316.38,143.89h9.2l2.06-7.8,12.99-.02,2.14,7.72,7.79.1-11.83-41.09c-2.47-.3-8.24-1.19-9.82.72l-12.55,40.37ZM371.93,102.48c-4.81-.63-10.81.47-15.78,0l-.99.99v40.42h18.08c10.49,0,14.1-17.58,4.27-21.7,7.3-6.79,5.21-18.28-5.59-19.71Z"/>
  <path d="M50.31,497.97c-.57-.6-.4-2.34-1.18-3.09-1.06-1.02-5.11-1.13-6.26-3.15-1.01-1.88.64-3.98.33-5.47-.57-2.71-7.46-5.02-1.45-9.25,5.19-3.66,11.89-.94,17.55-.84-2.04-2.04-1.39-7.26-2.29-8.89-1.38-2.5-15.7-4.24-4.95-10.84-14.2-6.71-3.9-11.3,6.25-11.54,10.6-.25,18.57,4.03,27.95,7.92,6.15-20.33,35.38-19.98,44.06-.94,1.55.72,7.01-3.84,9.2-.69l-4.6,3.94c-.43,2,6.51,2.43,3.99,5.95-2.09,2.92-6.89,1.6-8.61,2.57-1.46.83-3.28,10.71-10.38,13.94-2.49,1.13-8.61,1.68-10.26,2.89-1.15.84-1.93,4.12-3.33,5.88-7.11,8.92-22.57,9.27-32.87,9.18-1.72-.01-3.31-1.11-5.04-.96-6.12.54-10.54,11.3-18.1,3.39ZM107.47,477.97c1.86-1.77,11.76-.15,16.56-6.78,14.43-19.94-13.46-42.72-31.49-25.57-7.75,7.37-2.18,10.04,2.27,16.41-8.81-5.19-16.56-12.11-26.92-14.16-6.28-1.24-15.73-2.41-20.39,2.66,3.64,4.16,9.77,4.2,14.43,6.58l-9.21,1.95c-3.01,6.93,15.69,6.46,16.44,7.58-.51,3.85-5.34,1.22-7.58.69l-1.68.9c-1.23,8.09,6.61,8.33,12.81,7.53,4.94-.64,8-4.38,12.89-3.86.27,1.67-2.64,2.62-3.76,3.14-12.94,6.08-22.25,1.55-34.72,2.75-3.84.37-6.67,1.13-3.81,5.34l6.13.61c.11,2.63-6.15,3.42-5.25,6.21.84,2.59,8.76.59,9.2,1.02-2.52,15.4,8.8,2.11,13.52,1.36,4.31-.68,9.08,1.36,13.78,1.29,6.71-.1,17.47-3.04,22.36-7.89,2.25-2.23,3.89-7.25,4.41-7.75Z"/>
  <path d="M389.35,146.52c-.3-1.54-1.13-2.6-1.33-4.26-.98-7.98-.79-28.65,0-36.85.14-1.48.28-2.92,1.01-4.25,12.79-1.09,30.23-4.36,29.29,14.16-.19,3.76-3.37,8.67-3.33,9.78.08,1.85,5.01,10.24,5.61,12.89l11.84-36.16c1.93-2.43,9.75-1.18,12.83-1l13.64,44.23c-7.05,3.06-14.27,3.12-14.38-6.36l-10.07-.11c-.72.21-.81,6.96-3.47,7.8-1.22.38-18.25.38-19.46,0-3.52-1.12-4.69-14.7-8.98-15.36-.86-.13-.84.18-1.34.7v13.15c0,.12-1.53,1.64-1.64,1.64h-10.19ZM420.25,143.89c-2.62-6.39-3.97-13.94-9.18-18.78,15.3-18.53-3.74-26.32-21.06-21.97v40.1l9.2.66v-14.79c7.84-4.22,9.65,9.85,11.83,14.79h9.2ZM421.57,143.89h9.2c.4-1.74.65-7.47,2.94-7.94.95-.19,11.18-.09,11.77.14l2.42,7.77,8.51.03-12.48-41.08-9.55.33-12.81,40.76Z"/>
  <path d="M153.33,101.83v30.89h11.51c.76,0,3.48,2.13,3.61,1.97l9.53-33.53,13.07-.56,12.92,44.27-1,1.66h-9.86c-2.25-9.47-4.38-8.49-13.52-7.6l-3.04,7.63c-5.49-1.01-32.49,1.51-35.44-.62-1.18-.85-1.47-3.57-1.61-4.97-.5-5.07-.55-36.14.8-39.35.88-2.1,10.91-1.33,13.03.21ZM150.7,136.01v-32.54c-1.78-1.57-6.64-1.61-8.55,0v40.42h23.67v-7.89h-15.12ZM201.98,143.89l-11.26-39.68c-1.94-3.12-7.74-1.34-11-1.64l-11.92,41.32,8.51-.03,1.73-7.89,13.01.13,2.42,7.77,8.51.03Z"/>
  <path d="M118.78,302.66c13.65,25.73-10.33,52.36-36.8,52.28-35.55-.1-55.58-42.71-25.62-65.77,21.27-16.37,49.92-10.05,62.41,13.49ZM118.74,310.6c-13.03-48.13-88.14-27.96-72.89,17.97,13.29,40.05,84.11,23.47,72.89-17.97Z"/>
  <path d="M419.27,22.95c10.76,1.49,17.99,10.91,17.43,21.69l3.36-12.07c19.7-26.6,44.06.78,33.3,26.72-6.31,15.21-28.55,14.21-34.06-1.14-1.19-3.3-1.4-6.95-2.6-10.21-.76,16.54-9.95,21.27-25.29,21.71-3.11.09-7.26.67-9.56-1.67V23.94l.99-.99c5.14.51,11.47-.69,16.44,0ZM452.97,25.1c-19.97,2.9-18.38,48.81,8.86,41.72,17.7-4.61,17.59-45.56-8.86-41.72ZM403.16,66.33h16.77c19.08,0,20.78-40.75-1.31-40.75h-14.46l-.99.99v39.77Z"/>
  <path d="M57.21,380.06c8.26-.81,17.88,2.13,22.64,9.18,1.99,2.95,2.17,5.73,4.24,8.3,6.45-.84,11.1-2.8,16.97,1.39,11.18,7.98,6.04,22.62-6.24,25.96-7.42,2.02-9.53-1.55-14.72-.97-4.1.46-9.03,5.88-16.51,5.94-6.78.05-11.04-4.96-15.95-5.12-4.04-.13-6.91,2.81-12.14,2.28-23.79-2.37-20.38-31.16,2.8-31.04,2.22-10.15,8.77-14.92,18.92-15.92ZM81.67,402.87c-.86-25.53-36.73-28.52-42.06-3.59-24.65-1.68-23.74,26.86.99,24.65,2.95-.26,5.41-2.12,7.77-1.97,2.92.18,6.67,3.82,9.99,4.53,2.45.52,9.06.34,11.5-.24,3.68-.88,8.41-5.52,10.2-5.62,1.94-.11,3.35,1.64,5.25,1.92,11.23,1.64,24.94-6.37,17.27-18.58-5.27-8.39-13.99-4.62-20.93-1.1Z"/>
  <path d="M526.39,270.49c.39.5,1.37,1.61,2.01,1.63,7.14-1.93,16.21-1.91,19.52,6.06,5.52,13.3-3.73,24.32-17.56,23.48-2.7-.17-5.82-2.05-7.16-2-1.81.07-5.32,3.73-7.91,4.65-5.4,1.91-12.13,1.57-17.46-.38-2.32-.85-6.94-4.74-8.26-4.94-1.9-.28-3.86,1.21-5.87,1.33-23.13,1.34-20.22-30.82,1.01-27.23,2-15.55,27.64-17.41,37.39-9.2,1.98,1.66,2.86,4.74,4.28,6.59ZM486.61,277.3c-20.73-8.21-22.8,23.11-2.96,20.35,1.88-.26,4.02-2.15,5.95-1.93,2.06.24,8.25,6.34,14.67,7.04,11.45,1.26,14.79-5.9,18.98-6.24,1.25-.1,5.38,2.28,7.79,2.49,19.76,1.7,21.37-25.69,5.26-25.69-3.78,0-7.14,2.85-10.88,3.07-2.46-14.83-15.89-17.06-28.53-13.5-8.48,2.39-9.53,6.09-10.27,14.4Z"/>
  <path d="M274.3,67.32c-.89,3.01-8.86,2.65-11.34,1.65l-.99-1.78-.19-41.31.95-2.34c14.57-1.8,31.54-2.26,28.69,17.51-.46,3.19-4.29,5.88-3.94,7.17.63.81,1.65.86,2.16,1.86,1.36,2.68,7.51,16.82,5.54,18.72-2.75.99-10.06,1.56-12.3-.2-3.05-2.41-3.25-14.52-8.58-14.76-.65,3.48.88,10.51,0,13.47ZM279.89,25.58c-4.85-.69-11.09.5-16.11,0v40.75h8.55v-15.12c8.4-1.59,8.69,9.46,11.81,14.81l9.22.3c-2.14-6.6-4.77-13.74-9.84-18.73,8.57-5.45,7.8-20.41-3.63-22.02Z"/>
  <path d="M151.35,65.35c-.56,2.72-9.09,4.81-11.61,4.87-32.88.76-22.54-66.6,11.61-43.65v10.52c-2.73,2.89-5.54-1.56-8.37-2.14-17.02-3.53-13.24,34.04,6.12,18.9l2.25.99c-.43,3.1.6,7.65,0,10.52ZM149.37,36.1l-.31-8.55c-36.79-16.45-36.78,53.34.23,37.38l.09-8.45c-11.48,8.02-19.68,1.58-19.09-11.53.55-12.26,9.59-16.5,19.09-8.84Z"/>
  <path d="M421.57,289.82c2.7,2.85-11.48,5.82-12.8,5.93-9.73.81-20.4-2.95-24.79-12.07-10.06-20.93,12.89-33.99,31.01-30.34,2.78,2.02-5.54,7.12-6.91,8.86-8.63,10.94-.34,27.51,13.49,27.63ZM402.99,255.14c-6.49,1.02-17.41,8.21-18.24,15.29-1.39,11.86,6.24,21.6,18.06,22.7.93.09,13.39.2,11.87-2-9.01-3.7-13.33-13.07-12.1-22.6.84-6.47,5.3-7.56,8.45-12.57-.2-1.54-6.74-1.02-8.04-.82Z"/>
  <path d="M218.74,55.82c.25.05,2.89,1.47,2.98,1.76-.52,2.95,1.41,10.06-1.88,11.31-3.03,1.15-24.68,1.66-25.66-1.01V24.03c.75-1.95,9.3-1.16,11.31-.47.29.2,1.09,2.1,1.09,2.35v29.91c3.62.48,8.77-.65,12.16,0ZM203.95,25.58l-8.55.99v39.77h23.67v-7.23h-14.14l-.99-.99V25.58Z"/>
  <path d="M98.59,505.57c4.37-.77,12.25-.02,15.63,3.11,1.08,1,1.54,3.23,2.28,3.64,1.28.72,3.6.07,5.3.62,8.12,2.6,13.25,8.9,7.86,17.13-3.74,5.7-9.99,3.51-15.3,4.43-5.29.92-6.22,4.81-13.34,2.5-1.85-.6-3.62-2.84-5.38-3.2-2.8-.56-6.75,1.07-10.32.49-11.53-1.88-11.33-19.53-1.05-21.99,2.38-.57,5.24.33,6.43-.13,2.48-.97,2.16-5.59,7.89-6.6ZM101.91,507.56c-6.09.48-6.55,2.29-9.5,6.98-14.3-4.38-19.66,16.97-3.74,17.77,2.68.13,5.11-1.18,8.3-.46,2.6.59,4.31,3.73,8.02,3.79,4.23.07,6.34-3.45,8.72-3.83s4.8,1.06,8.6.11c6.98-1.75,10.48-11.05,3.37-14.97-3.63-2-6.41-.21-9.37-1.15-2.2-.7-2.64-5.56-5.47-7.02-2.15-1.11-6.47-1.41-8.93-1.22Z"/>
  <path d="M254.18,29.27c8,9.73,7.19,31.52-4.65,38.26-8.98,5.11-21.33,2.28-25.88-7.41-4.04-8.62-4.52-17.73-.65-26.34,5.97-13.29,21.75-15.98,31.18-4.5ZM255.01,33.67c-4.41-7.64-13.56-10.74-21.93-7.56-16.4,6.21-12.88,48.19,12.31,40.57,11.99-3.63,15.25-23.27,9.63-33Z"/>
  <path d="M220.39,101.17c14.19-1.22,31.82-4.27,31.61,15.44-.12,11.64-7.34,15.99-18.18,16.07l-1.21,13.25-12.23-.07v-44.7ZM231.56,129.43h9.53c.59,0,3.51-1.81,4.22-2.36,8.5-6.5,4.09-24.59-5.53-24.59h-16.77v41.41h8.55v-14.46Z"/>
  <path d="M163.67,258.42c8.04-1.69,9.9,3.69,13.72,3.79,4.68.12,8.37-7.94,18.48-2.11,14.55,8.39-5.82,31.7-16.74,33.54-7.62,1.28-22.43-14.93-23.53-22.2-.77-5.09,2.75-11.89,8.08-13.01ZM179.53,266.05c-3.14-.34-4.5-3.35-8.01-4.62-9.91-3.59-15.09,3.81-11.76,13.07,1.76,4.89,13.02,16.52,18.28,16.6,5.9.09,19.22-13.18,19.99-19.34,1.58-12.55-12.92-15.28-18.51-5.7Z"/>
  <path d="M187.28,29.75c4.34,6.26,4.8,17.56,3.23,24.78-3.92,18.02-28.53,21.57-35.33,4.36-.66-1.67-2.98-9.32-3.21-10.59-.52-2.87,3.32-15.96,5.33-18.93,6.76-10.01,23.37-9.18,29.98.38ZM186.48,33.85c-5.01-8.18-12.16-11.34-21.56-7.52-15.94,6.48-13.09,47.04,12.1,40.36,12.99-3.45,15.55-22.88,9.46-32.84Z"/>
  <path d="M450.66,316.59c2.59,1.54,10.96-.62,11.39,4.07.49,5.39-6.17,5.62-6.87,7.73-.48,1.43,1.51,10.45.57,11.38-4.43,1.08-6.63-3.36-10.85-3.35-3.44,0-4.72,2.67-7.39,3.2-9.93,1.98-2.87-7.51-3.57-10.56-.54-2.36-11.43-8.29-3.85-11.32,6.37-2.55,9.11,1.07,12.3-8.88,5.7-1.7,6.22,6.54,8.26,7.75ZM458.84,323.14c.66-.82,1.42-2.7.24-3.45-2.65-.83-7.39-.34-9.74-1.44-2.68-1.25-1.81-6.17-5.1-6.78-1.69-.19-2.64,5.61-5.07,6.78-2.09,1-6.64,1-9.05,1.14-.62,4.63,5.19,4.96,7.12,8.31l-2.51,9.43c3.41,1.24,7.12-3.58,9.53-3.66,1.58-.06,9.23,4.08,9.53,3.67.72-3.03-1.85-6.4-1.04-9.22s4.81-3.18,6.1-4.78Z"/>
  <path d="M51.11,520.17c3.21,2.94,4.89,1.65,7.73,3.13,5.8,3.04-3.42,7.69-3.98,9.53-.86,2.83.68,5.9.51,8.73-3.88,1.5-8.32-3.23-10.82-3.32-1.84-.06-9.23,3.71-9.55,3.32-.39-3.23,1.17-6.15.5-9.4-.58-2.81-7.17-4.47-4.52-8.74,1.47-1.76,7.49-.9,9.28-1.9,1.14-.64,2.62-6.76,5.58-6.92,2.69,1.05,3.14,3.61,5.28,5.57ZM57.34,525.13c-.25-.31-6.05-.64-7.44-1.44-2.26-1.31-2.12-6.79-5.75-5.51-1.56,7.77-4.12,4.86-9.78,7.35,1.58,5.29,5.6,5.59,3.25,12.74,6.77-4.43,9.15-.9,15.77.65-.24-2.39-1.33-6.52-.68-8.75.21-.74,5.7-2.14,4.63-5.04Z"/>
  <path d="M460.33,270.13c1.47,2.42-8.14,5.36-9.85,7.51-1.5,1.89-1.83,8.74-5.58,5.6-1.2-1.01-1.81-5.52-3.93-7.24s-13.03-3.44-5.4-7.35c1.66-.85,4.2-.84,5.38-1.85s3.94-7.62,5.35-7.84c5.25,4.29,5.8,10.16,14.03,11.17ZM447.86,277.32c-1.09-3.31,6.3-4.48,5.92-6.24l-7.57-6.88c-1.76,3.61-4.09,5.09-7.55,6.87,2.07.66,8.25,7,9.19,6.25Z"/>
  <path d="M82.98,254.98v18.08c0,.27-1.84,2.05-2.62,1.64-.83-.7-2.62-21.34,2.62-19.72Z"/>
  <path d="M42.21,293.1c-1.89,1.8-15.23-8.42-16.43-11.16,3.64-.25,6.2,2,9.02,3.79,1.07.68,8.81,6.04,7.41,7.37Z"/>
  <path d="M82.98,360.8v16.76l-1.96.98c-.82-.56-4.04-19.19,1.96-17.74Z"/>
  <path d="M138.2,281.93c.09.09.13,2.09-.12,2.51-4.28.65-10.01,7.91-13.51,8.53-.87.15-2.01-.05-2.15-.87-.18-1.04,14.25-11.75,15.77-10.17Z"/>
  <path d="M39.58,339.11c1.47,1.55-5.47,5.49-6.63,6.18-2.76,1.64-5.83,3.72-9.14,3.67.07-3.48,14.98-10.68,15.77-9.85Z"/>
  <path d="M138.83,346.38l-1.01,2.55c-1.33.28-14.9-7.97-14.74-8.82.79-4.06,13.46,6.75,15.75,6.27Z"/>
  <path d="M113.22,262.21c-.22,1.73-7.69,16.79-9.85,14.45-.29-2.04,7.66-16.61,9.85-14.45Z"/>
  <path d="M545.83,322.03c-2.97,1.81-3.83,8.39-4.76,9.69-.49.68-5.94,2.45-7.07,3.44-.84-4.15,4.17-4.25,5.84-6.98s.49-7.12,5.99-6.16Z"/>
  <path d="M61.28,276.66c-1.63.34-1.66-.24-2.54-1.07-1.28-1.21-7.4-12.47-6.66-13.38,5.77,1.89,6.55,9.59,9.19,14.46Z"/>
  <path d="M107.19,355.66c1.24,4.03,4.42,8.68,5.52,12.57.34,1.19.99,1.39-.47,2.42-.87-.02-7.7-13.22-8.21-15.1l3.17.11Z"/>
  <path d="M57.34,356.87c-1.57,2.09-6.12,16.04-9.86,13.13,1.08-2.01,7.07-15.36,9.86-13.13Z"/>
  <rect x="15.92" y="314.79" width="18.41" height="1.97"/>
  <path d="M148.07,314.79c-1.57,2.8-13.89,2.6-16.76,1.96-1.13-.25-1.85-.65-1.65-1.96h18.41Z"/>
  <path d="M232.22,693.38c.31.57,4.37,1.85,5.47,6.05,4.08,15.56-17.99,22.22-29.79,18.94-2.11,4.7,4.47,21.89,1.69,24.37-2.34,2.1-22.86,1.68-24.41-.69-.47-6.82,5-12.3,4.02-19.74-.84-1.45-12.09-2.47-14.98-3.47-9.06-3.16-17.72-14.12-11.31-23.44,1.8-2.62,6.86-4.7,7.19-5.3,1.12-2.07-.55-5.7,1.63-8.89s7.36-3.39,8.88-4.92c1.74-1.75,2.01-7.08,4.93-10.19,10.53-11.24,25.81-4.66,30.25,8.6,4.87-.25,10.48.13,14.48,3.23,8.01,6.21,1.56,14.69,1.96,15.44ZM208.55,716.4h12.82c.86,0,6.65-2.65,7.78-3.39,8.01-5.26,9.11-15.25-.93-18.69-.64-2.96,6.25-5.21,3.02-12.1-2.86-6.09-13.22-5.6-18.74-4.59.02-10.35-9.27-18.3-19.51-13.92-1.09.47-6.51,4.61-7.07,5.42-1.3,1.89-1.84,7.46-2.68,8.5-.6.74-6.18,1.85-8.51,4.64-2.82,3.37-2.1,8.07-3.13,9.69-.16.25-3.93,2.02-5.05,3.17-11.96,12.19,9.95,26.71,21.65,22.95,2.93-1.89-7.45-12.93-8.21-15.51-3.13-10.67,13.08-.24,14.75-1.93-1.5-17.47,10.25-23.13,9.87-1.97,3.67.82,9.99-5.9,11.4-.54,1.26,4.79-9.06,12.74-7.46,18.28ZM213.81,698.66c-16.44,8.16-7.94-2.17-14.14-11.17-4.35,2.8-1.94,13.44-5.35,15.7-4.25,1.55-7.7-4.63-12.72-3.22-1.62,1.44,5.54,7.75,6.13,8.72,2.6,4.27,4.2,12.81,3.57,17.73-.57,4.4-4.09,9.12-2.99,13.83.8,2.51,13.89,2.22,16.67,1.82,6.1-.9.11-11.57-.31-15.54-1.09-10.28,4.37-19.31,9.15-27.87Z"/>
  <path d="M153.11,627.87c9.7,13.91-8.52,25.29-20.03,28.52-11.38,3.2-24.44,3.04-35.62-.82-2.73-.94-10.42-5.67-12.14-5.56-3.89.24-12.42,9.73-17.49,4.28-4.46-4.79.63-12.38,4.61-15.79-7.33-5.99-8.02-18.3,4.65-15.81,3.54.7,5.02,3.37,8.14,4.34,11.76-10.99,22.45-15.34,38.81-13.82,8.87.82,23.83,7.16,29.06,14.65ZM109.6,656.59c4.27.43,9.13-.31,13.48,0-1.63-7.26-4.18-14.23-4.57-21.23.09-.47,1.16-.44,1.26-.94.52-2.68,3.71-17.67,3.03-18.63-13.29-2.25-28.45,4.28-36.33,15.21-2.55.58-6.99-5.03-10.55-5.81-10.91-2.39-5.47,9.62-.9,13.88-2.26,2.58-8.79,10.71-5.87,13.92,3.9,4.3,12.01-6.44,16.1-6.31,2.46.08,9.42,5.61,12.86,6.94,3.23,1.26,8.1,2.63,11.49,2.97ZM149.93,643.32c1.54-.9,2.34-7.44,2.04-9.37-1.42-8.92-18.29-18.44-26.81-17.36-2.19,10.82-4.56,18.94-2.43,30.17,1.87,9.86,2.27,10.59,11.71,7.04,1.44-.54,11.63-5.83,12.01-6.4.45-.67.34-1.26.31-1.99-3.61.48-8.14-1.51-9.2-5.26.93-.84,9,5.12,12.38,3.17Z"/>
  <path d="M103.36,705.88c.75.78,12.32-12.8,17.47-2.68,4.54,8.93-7.78,20.68-15.52,23.37-12.44,4.33-28.88-.86-34.85-13.11-8.71-17.88,13.28-17.22,17.76-3.64-1.5-14.35,13.21-22.09,15.13-3.94ZM101.39,717.06v-10.19c0-3.92-4.02-13.89-8.19-7.53-3.55,5.4-.2,14.62-.34,20.64-1.34,4.02-6.27-9.11-6.68-9.75-1.88-2.93-11.8-12.97-14.59-6.82s3.98,14.27,8.55,17.48c11.94,8.4,26.35,7.19,34.95-4.93,2.09-2.95,2.7-6.23,4.71-8.48-2.02-6.98-7.64-7.37-12.17-1.61-3.01,3.82-2.39,9.27-6.23,11.19Z"/>
  <path d="M100.07,751.23c-.81.91-6.96-3.46-8.2-3.95-13.56-5.45-27.29,1.86-41.34.58-5.16-.47-10.05-2.93-15.19-3.21-5.47-.3-8.48,1.77-13.5,1.66,10.23-10.25,22.44-.41,33.85-.28,9.8.11,19.06-4.6,29.6-3.34,1.44.17,13.6,4.41,14.14,4.92,1.03.98.62,2.42.64,3.62Z"/>
  <path d="M89.55,672.36c-5.07-.09-8.11-2.24-13.5-1.99-6.04.29-12.11,3.46-18.39,3.58-10.54.2-20.34-6.58-30.89-1.58-1.75-2.99,7.63-4.67,9.85-4.66,7.51.05,14.01,4.97,23.02,3.99,4.9-.53,9.92-3.94,15.12-4,3.09-.04,13.94,1.02,14.79,4.65Z"/>
  <path d="M280.21,661.85c-5.71,8.36-18.75-.53-26.03-1.26-5.44-.55-8.78,2.47-15.05,1.9-5-.45-9.13-3.74-13.32-4.43-1.72-.29-11.42.78-11.33-.49,9.09-6.05,18.47,3.4,26.65,3.63,3.98.11,7.53-2.2,12.48-2.02,8.69.31,17.11,7.04,26.6,2.67Z"/>
  <path d="M261.81,705.88c-3.57-3.27,11.64-3.42,12.84-3.31,8.21.77,11.15,4.78,21.6,3.9,1.41-.12,10.37-3.48,9.6-.27-.17.73-7.19,2.65-8.39,2.8-12.63,1.57-22.8-6.53-35.66-3.12Z"/>
  <path d="M278.24,738.75l-.38,2.03c-6.75,2.41-13.08,3.2-20.15,1.73-3.74-.78-8.1-3.66-12.04-3.79-4.67-.15-7.66,4.41-11.46,1.65-.57-1.18,1.15-1.15,1.8-1.44,13.14-5.97,19.65,2.76,30.74,2.43,3.81-.11,7.54-2.97,11.5-2.61Z"/>
  <path d="M215.12,627.01c-6.37,10.55-18.99.38-26.68-.6-4.54-.58-8.18.64-12.46,1.75l-.96-2.46c4.25-1.11,7.56-2.47,12.1-1.92,5,.6,10.25,4.93,15.82,5.23,4.56.25,7.81-1.96,12.18-2Z"/>
  <path d="M52.07,624.38c-.42,5.12-10.21,4.96-13.97,4.44s-8.48-3.6-12.09-3.74-11.32,4.81-10.05-.65c2.88-.04,5.34-1.92,8.21-2.04,5.09-.2,9,3.49,13.76,3.96,5.05.5,9.26-1.32,14.13-1.97Z"/>
  <path d="M54.05,707.86c2.43,2.26-5.58,3.33-6.91,3.34-7.87,0-13.38-5.2-22.3-3.95-2.04.29-4,2.18-6.29,1.92-.51-3.45,5.02-4.45,7.53-4.62,8.65-.61,18.37,5.7,27.97,3.32Z"/>
  <path d="M337.41,742.7c3.8,4.39-13.28,3.53-15.38,3.22-3.63-.52-6.98-3.15-11.25-3.28-3.03-.09-7.05,1.2-10.18,1.36.07-2.47,4.5-3.13,6.22-3.31,10.65-1.08,19.68,6.16,30.59,2Z"/>
  <path d="M158.58,749.92c-6.68-.16-11.8-4.48-18.62-4.33-3.23.07-6.56,1.73-9.3,1.73-4.94,0,1.79-3.43,4.09-3.81,6.33-1.03,20.31.61,23.83,6.41Z"/>
  <path d="M441.96,693.37c6.79.65,10.87,7.56,8.2,13.82-1.18,2.76-5.12,4.68-5.47,5.7-1.22,3.59,1.47,6.79-3.06,10.74-4,3.49-8.19,2.89-12.81,1.32l-2.65,16.07,1.32.69c5.47-8.84,16.07-12.64,26.03-10.27,3.2,7.28-4.23,14.68-10.06,18.34-20.13,12.64-51.3,3.19-49.22-23.57,10.76-3.28,18.97,6.26,23.72,14.5l2.33-10.21c-.14-4.25-6.33-3.67-8.6-6.54-1.54-1.94-.93-4.17-1.94-5.29-.92-1.02-6.34-1.55-8.54-3.29-4.83-3.83-3.9-11.23-.7-15.76.81-1.14,2.91-1.75,3.23-2.74,1.07-3.35-3.37-9.38,3.14-13.9,7.3-5.07,10.8.73,15.03.53.81-.04,5.25-3.59,7.66-4.13,9.65-2.17,14.96,4.97,12.38,13.99ZM440.64,722.32v-11.17c13.26-2.42,8.76-16.62-3.28-16.44,8.3-14.46-8.34-18.39-15.52-6.59-9.97-9.76-19.55-2.88-14.79,10.1-12.93,6.14-8.03,20.07,5.98,16.22-.56,4.15-.92,9.21,4.05,10.74,6.58,2.01,8-3.26,11.46-3.52,1.95-.15,7.71,4.27,12.11.67ZM425.51,727.57l-3.25.05-2.01,22.96c1.76.37,1.36-.69,1.74-1.83,1.69-4.99,1.38-10.97,2.22-16.1.05-.28,2.58-2.32,1.29-5.07ZM418.28,751.89c0-8.39-9.21-23.27-18.11-23.69-6.02-.28-4.23,4.8-2.79,8.76,2.92,8,12.13,15.62,20.9,14.93ZM423.54,753.21c11.64-.15,28.14-6.88,27.99-20.41-12.65-2.5-24.77,9.06-27.99,20.41Z"/>
  <path d="M492.17,524.88c1.25,1.86,2.59,3.62,3.1,6.12,5.32-1.58,15.27-.44,16.99,5.71.57,2.03-.35,4.87.63,6.39,1.49,2.31,10.6,2.79,7.51,10.14-.46.92-1.4,1.28-2.25,1.72-10.21,5.25-41.69,1.99-54.16,1.7-4.92-.11-21.01,1.35-23.97-.36-8.52-4.91,4.01-14.88,10.37-14.18-.13-4.72,2.1-9.62,6.68-11.39,1.92-.74,5.54-.71,6.56-1.33,2.43-1.46,1.62-8.48,11.58-10.77,8.03-1.85,12.51-.37,16.95,6.25ZM492.18,531.46c-1.39-3.52-1.78-8.44-5.71-10.41-5.66-2.82-15.05-.63-18.51,4.77-1.02,1.6-1.55,5.17-2.6,5.94-2.55,1.87-6.94-1.23-10.27,2.88-2.68,3.32-1.9,7.03-1.3,10.86-4.47-.89-16.52,1.04-13.37,7.74.77,1.65,7.03,2.02,9.07,2.16,21.18,1.42,44.97-2.74,66.48-1.96,1.61-.71,3.45-2.04,2.66-4.01-.99-3.38-6.23-2.44-8.95-3.27,2.53-8.06-1.05-15.31-10.23-13.83-2.63.42-3.38,2.96-6.2,2.66.95-2.3-.92-3.18-1.06-3.53Z"/>
  <path d="M526.36,707.6c.49.7,1.61,1.27,2.03,2.13,9.98-5.13,20.45.84,16.78,12.58,8.77.19,11.29,7.63,3.33,12.2-10.71,6.15-54.18,5.73-64.82-.34-10.58-6.03-3.78-19.83,6.12-20.91,2.45-.27,6.46,1.25,8.06.21,1.09-.71,3-10.16,9.68-12.66,4.55-1.7,12.11-1.03,15.97,2.1,2.12,1.72,1.79,3.2,2.85,4.71ZM524.79,715.09c.86-20.46-27.1-15.53-23.68,3.28-2.5.39-4.25-2.19-6.28-2.59-8.82-1.73-20.8,7.99-10.48,15.73,8.63,6.47,42.99,6.48,53.59,4.29,9.03-1.86,22.98-10.12,4.21-10.84,1.99-7.96,1.85-16.6-9-14.33-3.69.77-4.68,4.9-8.37,4.45Z"/>
  <path d="M379.58,636.81c4.27-1.48,10.74-2.63,13.71,1.7,2.28,3.33.54,6.56,1.62,8.24.23.35,6,2.4,7.53,3.64,5.18,4.19,3.38,8.43-2.12,10.92-10.12,4.6-50.24,3.68-62.61,2.52-4.34-.41-11.6-2.04-10.57-7.93,1.23-7.02,10.43-7.15,11.28-8.5.75-1.19.04-3.8.46-5.46,1.7-6.8,10.33-6.53,15.87-6.35,5.96-11.88,21.37-13.22,24.83,1.21ZM391.33,649.35c4.75-12.83-4.23-12.78-13.8-9.48-2.71-1.28,1.18-7.65-6.59-10.55-7.38-2.76-12.38,2.48-13.14,9.52-8.92-1.72-19.42-1.53-16.71,10.53-3.56,2.1-8.63.86-11.22,4.6-1.38,4.01.89,6.23,4.56,7.25,9.14,2.53,46.62,1.68,57.15.54,16.11-1.75,14.26-11.93-.24-12.41Z"/>
  <path d="M292.04,267.47c3.11,14.03,16.53,21.76,28.96,26.6,4.45,1.73,22.06,5.75,23.67,7.89,2.81,3.75,2.9,18.79,1.8,23.52-2.04,8.72-12.45,20.96-21.88,21.51-5.55.33-7.19-4.35-11.94-7.1-12.31-7.11-9.21,1.09-18.35,2.44-3.49.52-7.35.13-10.64-1.07-2.49-.91-7.19-5.37-8.34-5.42-1.38-.06-8.81,3.69-10.42,4.7-5.85,3.68-3.27,6.42-11.75,4.28-18.1-4.55-24.29-27.55-17.67-43.39,19.73-6.28,39.31-9.74,51.46-28.25,1.63-2.48.49-5.79,5.11-5.72ZM292.04,273.38c-5.98,1.87-8.28,8.9-13.49,13.13-11.73,9.54-27.47,11.77-41.39,16.46-4.82,12.85-.19,35.99,15.4,39.13,8.52,1.71,8.31-2.9,13.91-5.88,2.06-1.09,8.07-2.21,9.14-3.35,1.48-1.58.79-6.96,4.26-7.57,2.41-.22-.58,3.17-.83,4.44-2.45,12.58,22.7,12.43,22.25,2.49-.11-2.48-2.48-3.64-2.01-6.26,4.51.58,4.03,6.63,5.52,7.94.64.56,6.11,2,8.07,3.11,8.35,4.71,7.04,10.45,18.41,4.84,13.36-6.58,15.71-26.29,11.46-39.15-14.81-3.73-30.6-7.27-42.45-17.52-3.38-2.92-7.87-7.2-8.25-11.81Z"/>
  <path d="M275.6,348.32c2.79,9.97,26.41,10.61,28.37.09l2.54-.09c-.94,10.57-16.71,12.15-24.97,8.87-2.61-1.04-11.6-6.78-5.94-8.86Z"/>
  <path d="M552.7,179.74c10.96,10.94,9.6,46.71-11.12,47H53.7c-23.16.19-23.65-45.17-5.56-50.95,164.26-2.34,329-.3,493.44-1.03,5.17.45,7.46,1.33,11.11,4.98ZM265.75,181.36c-4.08-.82-5.82,1.6-6.57,5.25,1.92,1.36,7.37-4.61,6.57-5.25ZM62.6,189.25h-5.26v30.24h16.44l-.99-5.92h-10.19v-24.32ZM100.07,219.48l-8.24-28.89c-.79-1.9-7.11-1.74-8.21-1.04-1.43.92-7.29,26.45-9.18,29.92l6.48-.08,1.33-4.79,10.19-.42,1.82,5.2,5.82.1ZM134.14,190.68c-24.52-11.55-28.21,32.38-4.87,29.4,5.48-.7,5.35-2.88,4.98-7.82-18.8,11.39-18.83-26.66,0-15.78l-.12-5.79ZM151.02,189.25c-3.21-.44-7.2.32-10.52,0l-.99.99v29.25h5.92v-11.17c5.88-1.22,6.98,7.1,9.3,11.08l6.47.09c.58-.52-4.37-13.16-6.56-14.13,6.34-4.92,5.45-14.87-3.63-16.1ZM181.6,195.16l-.99-5.92h-15.45v30.24h16.11c1.91-1.56.74-4.01.33-5.92h-9.53l-.99-6.58c5.78-.47,11.33,2.61,9.87-5.92l-9.25-.28.37-5.63h9.53ZM201.25,189.32l-7.24.32-9.12,29.84c5.63.07,7.47,1.39,7.24-5.25l10.44.07,1.49,5.08,5.82.09-8.62-30.16ZM232.87,196.47c.37-4.86.21-6.59-4.93-7.22-21.27-2.61-20.32,28.39-5.74,30.72,6.29,1,12.42.08,10.67-7.71-20.03,11.26-19.88-27,0-15.78ZM237.48,219.48l6.48-1.08-.52-28.87-5.96-.29v30.24ZM269.49,217.31c6.05-5.87,5.65-25.87-4.22-27.91-14.25-2.95-19.06,9.96-15.77,21.69,2.36,8.44,13.62,12.41,19.99,6.22ZM278.24,190.23v29.25h5.92v-19.06c2.48,2.44,7.09,16.99,8.87,18.41s4.86.38,6.91.65v-30.24h-5.26v19.72l-9.47-19.12-6.97.39ZM317.69,219.48h12.82c12.45,0,14.82-30.24-1.97-30.24h-10.85v30.24ZM362.4,189.25h-16.11l-.99.99v29.25h17.75v-5.92h-11.83v-6.57h10.52v-5.92h-10.52v-5.92h11.18v-5.92ZM374.23,213.57v-23.33l-5.92-.99v30.24h17.09l-.99-5.92h-10.19ZM401.19,189.25v30.24l5.92-.99v-18.73c1.85,1.09,5.45,20.3,9.4,13.65,2.1-3.53,2.27-10.72,5.06-14.31v20.38h6.57v-29.25c-1.89-1.69-5.99-1.28-8.28-.39-1.49,1.09-3.48,11.05-4.8,13.6-.35.68.32,1.23-1.37.92l-4.94-14.46-7.56-.66ZM439.98,189.25l-5.82,1.08c.81,7.87-3.65,26.69,6.6,29.36,18.03,4.71,13.21-18.91,14.25-29.36l-6.48-1.08v20.7c0,3.99-5.84,6.25-7.55,2.29-.13-.3-1-4.66-1-4.92v-18.08ZM461.67,189.25v30.24h5.26v-18.08c0-.13,1.08-1.18,1.31-.99l7.34,18.97,7.14.09v-29.25c-1.35-1.53-4.57-1.53-5.92,0v18.08l-8.64-18.97-6.48-.09ZM488.63,219.48h13.48c11.34,0,14.76-30.24-2.63-30.24h-10.85v30.24ZM536.41,216.64c5.65-6.33,4.78-25.25-4.87-27.24-24.05-4.97-21.24,37.48.68,29.95.94-.32,3.56-2.01,4.19-2.71Z" fill="#fff"/>
  <polygon points="374.89 25.58 386.72 52.53 386.72 25.58 395.27 25.58 395.27 66.33 384.75 66.33 373.57 39.38 373.57 66.33 365.68 66.33 365.68 25.58 374.89 25.58" fill="#fff"/>
  <path d="M356.11,52.26c.05.16.79.31.96.81,1.43,4.37,1.84,9.11,4.02,13.26l-9.24-.29-2.38-6.97-12.79.41-1.99,6.75-8.45.09,11.92-40.66,10.12.56c2.64,8.67,5.1,17.4,7.84,26.03ZM347.28,51.21c.57-.55-3.13-13.85-4.6-15.11l-3.3,15.11h7.89Z" fill="#fff"/>
  <path d="M321.64,25.58v7.89h-14.46v7.23h12.16c.22,0,1.53.67,1.66,1.12l-.02,7.43h-13.81l.99,9.86h14.14v7.23h-23.67V25.58h23.01Z" fill="#fff"/>
  <path d="M371.93,102.48c10.8,1.42,12.89,12.91,5.59,19.71,9.83,4.12,6.21,21.7-4.27,21.7h-18.08v-40.42l.99-.99c4.97.47,10.96-.63,15.78,0ZM364.37,110.37l.62,8.26c11.54,1.93,11.62-10.78-.62-8.26ZM364.37,136.66c14.77,3.4,13.24-15.39,0-10.19v10.19Z" fill="#fff"/>
  <path d="M316.38,143.89l12.55-40.37c1.58-1.91,7.34-1.02,9.82-.72l11.83,41.09-7.79-.1-2.14-7.72-12.99.02-2.06,7.8h-9.2ZM338.07,128.77c.56-.56-2.91-13.76-4.6-15.12l-3.3,15.12h7.89Z" fill="#fff"/>
  <path d="M286.13,143.89l-7.79-.1-2.14-7.72h-13.01s-2,7.53-2,7.53l-9.24.28,13.14-41.09,9.55.33,11.5,40.76ZM270.35,113.66c-1.8-.29-1.01.24-1.32.97-1.73,3.96-1.88,10.07-3.93,14.14h8.55s-3.29-15.11-3.29-15.11Z" fill="#fff"/>
  <polygon points="299.94 102.48 299.94 136.01 315.06 136.01 315.06 143.89 291.39 143.89 291.39 103.47 299.94 102.48" fill="#fff"/>
  <path d="M107.47,477.97c-.52.5-2.16,5.52-4.41,7.75-4.89,4.84-15.65,7.79-22.36,7.89-4.7.07-9.48-1.97-13.78-1.29-4.72.75-16.04,14.04-13.52-1.36-.44-.43-8.36,1.57-9.2-1.02-.9-2.79,5.36-3.59,5.25-6.21l-6.13-.61c-2.86-4.21-.04-4.97,3.81-5.34,12.48-1.2,21.78,3.33,34.72-2.75,1.12-.52,4.03-1.47,3.76-3.14-4.9-.52-7.96,3.23-12.89,3.86-6.2.8-14.04.56-12.81-7.53l1.68-.9c2.24.53,7.08,3.16,7.58-.69-.75-1.11-19.46-.64-16.44-7.58l9.21-1.95c-4.66-2.38-10.79-2.43-14.43-6.58,4.66-5.08,14.11-3.91,20.39-2.66,10.35,2.05,18.1,8.98,26.92,14.16-4.46-6.37-10.02-9.04-2.27-16.41,18.03-17.15,45.92,5.63,31.49,25.57-4.8,6.63-14.7,5.01-16.56,6.78ZM112.35,450.97c-2.25.81-3.19,6.54,1.27,7.09,6.45.79,6.07-9.73-1.27-7.09Z" fill="#fff"/>
  <path d="M420.25,143.89h-9.2c-2.18-4.94-3.99-19.01-11.83-14.79v14.79l-9.2-.66v-40.1c17.32-4.35,36.36,3.44,21.06,21.97,5.21,4.84,6.56,12.39,9.18,18.78ZM399.22,110.37v9.53c11.14,5.33,12.37-12.7,0-9.53Z" fill="#fff"/>
  <path d="M421.57,143.89l12.81-40.76,9.55-.33,12.48,41.08-8.51-.03-2.42-7.77c-.59-.23-10.82-.33-11.77-.14-2.28.47-2.53,6.2-2.94,7.94h-9.2ZM443.92,128.78l-3.95-15.77c-2.92,4.41-3.39,10.72-5.25,15.77h9.2Z" fill="#fff"/>
  <path d="M201.98,143.89l-8.51-.03-2.42-7.77-13.01-.13-1.73,7.89-8.51.03,11.92-41.32c3.26.29,9.07-1.48,11,1.64l11.26,39.68ZM180.28,128.78h9.2c-1.08-5.56-3.09-9.98-4.93-15.13l-4.27,15.13Z" fill="#fff"/>
  <path d="M150.7,136.01h15.12v7.89h-23.67v-40.42c1.91-1.61,6.77-1.57,8.55,0v32.54Z" fill="#fff"/>
  <path d="M118.74,310.6c11.22,41.44-59.6,58.03-72.89,17.97-15.24-45.93,59.87-66.11,72.89-17.97ZM107.3,317.42c1.21-10.61-13.71-10.21-12.48,0,1.99-1.56,2.45-5.31,5.58-5.32,4.02,0,3.2,5.77,6.9,5.32ZM68.35,311.02c-3.6-3.05-11.49.1-10.35,5.74,3.17-.7,2.1-4.83,6.19-4.58,3.86.23,3.75,5.92,5.3,5.23,2.11-.72-.54-5.89-1.14-6.39ZM89.59,327.96c-1.97,7.86-13.65,7.05-15.5-.68-2.83.63-1.65,3.96-.33,5.59,4.19,5.19,18.48,3.96,18.12-4.3l-2.3-.61Z" fill="#fff"/>
  <path d="M403.16,66.33V26.57l.99-.99h14.46c22.09,0,20.4,40.75,1.31,40.75h-16.77ZM411.71,34.45v23.01c0,.26.65,1.07.77,1.53,13.14,1.67,18.68-16.23,8.76-23.56-2.32-1.71-7.07-3.17-9.54-.98Z" fill="#fff"/>
  <path d="M452.97,25.1c26.45-3.84,26.56,37.11,8.86,41.72-27.24,7.09-28.82-38.82-8.86-41.72ZM455.6,32.28c-10.42,1.04-11.31,30.73,3.75,27.46,7.39-1.61,9.42-28.77-3.75-27.46Z" fill="#fff"/>
  <path d="M81.67,402.87c6.94-3.52,15.66-7.29,20.93,1.1,7.67,12.21-6.04,20.22-17.27,18.58-1.91-.28-3.31-2.03-5.25-1.92-1.79.1-6.51,4.74-10.2,5.62-2.44.58-9.06.76-11.5.24-3.32-.71-7.07-4.35-9.99-4.53-2.36-.14-4.82,1.71-7.77,1.97-24.73,2.21-25.64-26.33-.99-24.65,5.33-24.94,41.19-21.94,42.06,3.59Z" fill="#fff"/>
  <path d="M486.61,277.3c.74-8.31,1.79-12.01,10.27-14.4,12.64-3.56,26.07-1.33,28.53,13.5,3.74-.22,7.1-3.07,10.88-3.07,16.11,0,14.5,27.39-5.26,25.69-2.41-.21-6.54-2.59-7.79-2.49-4.19.33-7.54,7.5-18.98,6.24-6.42-.7-12.61-6.81-14.67-7.04-1.93-.22-4.06,1.67-5.95,1.93-19.84,2.76-17.77-28.56,2.96-20.35Z" fill="#fff"/>
  <path d="M279.89,25.58c11.43,1.61,12.2,16.57,3.63,22.02,5.07,4.99,7.7,12.13,9.84,18.73l-9.22-.3c-3.12-5.35-3.42-16.41-11.81-14.81v15.12h-8.55V25.58c5.02.5,11.26-.69,16.11,0ZM272.33,43.33l6.58-.32c4.56-5.45-.05-12.75-6.58-9.21v9.53Z" fill="#fff"/>
  <path d="M149.37,36.1c-9.5-7.65-18.53-3.42-19.09,8.84-.59,13.11,7.61,19.56,19.09,11.53l-.09,8.45c-37.01,15.96-37.02-53.83-.23-37.38l.31,8.55Z" fill="#fff"/>
  <path d="M402.99,255.14c1.3-.2,7.84-.72,8.04.82-3.16,5.01-7.62,6.1-8.45,12.57-1.23,9.53,3.09,18.89,12.1,22.6,1.53,2.2-10.93,2.08-11.87,2-11.82-1.09-19.45-10.84-18.06-22.7.83-7.08,11.75-14.27,18.24-15.29Z" fill="#fff"/>
  <polygon points="203.95 25.58 203.95 58.12 204.94 59.1 219.07 59.1 219.07 66.33 195.4 66.33 195.4 26.57 203.95 25.58" fill="#fff"/>
  <path d="M101.91,507.56c2.46-.2,6.78.11,8.93,1.22,2.83,1.46,3.27,6.32,5.47,7.02,2.96.94,5.74-.85,9.37,1.15,7.11,3.92,3.6,13.22-3.37,14.97-3.81.95-6.13-.5-8.6-.11s-4.49,3.91-8.72,3.83c-3.71-.06-5.42-3.2-8.02-3.79-3.19-.72-5.62.59-8.3.46-15.92-.8-10.57-22.15,3.74-17.77,2.95-4.69,3.41-6.5,9.5-6.98Z" fill="#fff"/>
  <path d="M255.01,33.67c5.62,9.73,2.37,29.37-9.63,33-25.19,7.63-28.71-34.35-12.31-40.57,8.37-3.17,17.52-.08,21.93,7.56ZM239.3,32.28c-10.77,1.04-10.81,30.59,3.09,27.46,7.71-1.74,8.68-28.59-3.09-27.46Z" fill="#fff"/>
  <path d="M231.56,129.43v14.46h-8.55v-41.41h16.77c9.62,0,14.03,18.09,5.53,24.59-.71.54-3.63,2.36-4.22,2.36h-9.53ZM231.56,122.2c13.36,2.65,13.37-14.75,0-11.83v11.83Z" fill="#fff"/>
  <path d="M179.53,266.05c5.59-9.58,20.09-6.85,18.51,5.7-.78,6.17-14.09,19.44-19.99,19.34-5.27-.08-16.52-11.71-18.28-16.6-3.33-9.25,1.84-16.66,11.76-13.07,3.51,1.27,4.87,4.28,8.01,4.62Z" fill="#fff"/>
  <path d="M186.48,33.85c6.09,9.96,3.54,29.39-9.46,32.84-25.19,6.69-28.04-33.88-12.1-40.36,9.39-3.82,16.55-.66,21.56,7.52ZM176.14,58.9c5.72-3.87,6.55-28.03-5.22-26.62-9.45,1.13-8.56,24.51-2.32,27.05,1.93.79,5.76.77,7.54-.43Z" fill="#fff"/>
  <path d="M458.84,323.14c-1.29,1.6-5.26,1.86-6.1,4.78s1.76,6.19,1.04,9.22c-.3.41-7.95-3.72-9.53-3.67-2.4.09-6.11,4.91-9.53,3.66l2.51-9.43c-1.93-3.35-7.75-3.68-7.12-8.31,2.42-.14,6.97-.14,9.05-1.14,2.43-1.17,3.37-6.97,5.07-6.78,3.29.61,2.42,5.54,5.1,6.78,2.35,1.09,7.09.61,9.74,1.44,1.18.75.42,2.63-.24,3.45Z" fill="#fff"/>
  <path d="M57.34,525.13c1.08,2.9-4.41,4.3-4.63,5.04-.65,2.23.44,6.36.68,8.75-6.62-1.56-9-5.08-15.77-.65,2.35-7.14-1.67-7.44-3.25-12.74,5.66-2.5,8.22.41,9.78-7.35,3.63-1.28,3.49,4.2,5.75,5.51,1.39.8,7.19,1.13,7.44,1.44Z" fill="#fff"/>
  <path d="M447.86,277.32c-.95.76-7.13-5.58-9.19-6.25,3.46-1.78,5.79-3.26,7.55-6.87l7.57,6.88c.37,1.75-7.02,2.92-5.92,6.24Z" fill="#fff"/>
  <path d="M208.55,716.4c-1.6-5.54,8.72-13.49,7.46-18.28-1.41-5.37-7.73,1.36-11.4.54.39-21.16-11.37-15.5-9.87,1.97-1.66,1.69-17.88-8.74-14.75,1.93.76,2.58,11.13,13.62,8.21,15.51-11.7,3.76-33.61-10.76-21.65-22.95,1.12-1.14,4.89-2.91,5.05-3.17,1.03-1.62.31-6.31,3.13-9.69,2.33-2.79,7.91-3.89,8.51-4.64.84-1.04,1.38-6.61,2.68-8.5.55-.81,5.98-4.95,7.07-5.42,10.23-4.38,19.53,3.57,19.51,13.92,5.52-1.01,15.88-1.5,18.74,4.59,3.23,6.89-3.66,9.14-3.02,12.1,10.04,3.44,8.94,13.43.93,18.69-1.13.74-6.93,3.39-7.78,3.39h-12.82Z" fill="#fff"/>
  <path d="M213.81,698.66c-4.78,8.57-10.24,17.59-9.15,27.87.42,3.97,6.41,14.65.31,15.54-2.78.41-15.87.69-16.67-1.82-1.1-4.71,2.42-9.43,2.99-13.83.63-4.92-.97-13.47-3.57-17.73-.59-.97-7.74-7.29-6.13-8.72,5.02-1.41,8.47,4.77,12.72,3.22,3.42-2.26,1-12.9,5.35-15.7,6.19,9-2.31,19.33,14.14,11.17Z" fill="#fff"/>
  <path d="M109.6,656.59c-3.39-.34-8.26-1.71-11.49-2.97-3.44-1.34-10.4-6.87-12.86-6.94-4.09-.13-12.19,10.61-16.1,6.31-2.92-3.21,3.61-11.33,5.87-13.92-4.57-4.26-10.01-16.27.9-13.88,3.55.78,8,6.39,10.55,5.81,7.88-10.92,23.04-17.46,36.33-15.21.67.96-2.51,15.95-3.03,18.63-.1.5-1.17.47-1.26.94.4,7,2.94,13.96,4.57,21.23-4.34-.31-9.2.43-13.48,0Z" fill="#fff"/>
  <path d="M149.93,643.32c-3.38,1.96-11.45-4.01-12.38-3.17,1.06,3.75,5.59,5.73,9.2,5.26.03.73.14,1.32-.31,1.99-.38.56-10.57,5.85-12.01,6.4-9.44,3.55-9.84,2.82-11.71-7.04-2.12-11.23.24-19.35,2.43-30.17,8.52-1.08,25.39,8.44,26.81,17.36.31,1.93-.49,8.48-2.04,9.37ZM134.68,628.42c-3.58,1.41.06,8.92,4.88,5.53,2.32-1.64-.03-7.44-4.88-5.53Z" fill="#fff"/>
  <path d="M101.39,717.06c3.84-1.92,3.23-7.37,6.23-11.19,4.54-5.77,10.16-5.38,12.17,1.61-2.02,2.25-2.62,5.53-4.71,8.48-8.6,12.12-23.01,13.33-34.95,4.93-4.57-3.21-11.23-11.58-8.55-17.48s12.71,3.89,14.59,6.82c.41.64,5.34,13.77,6.68,9.75.15-6.02-3.2-15.23.34-20.64,4.17-6.35,8.19,3.61,8.19,7.53v10.19Z" fill="#fff"/>
  <path d="M440.64,722.32c-4.4,3.59-10.16-.82-12.11-.67-3.45.26-4.88,5.54-11.46,3.52-4.97-1.52-4.62-6.59-4.05-10.74-14.01,3.85-18.91-10.09-5.98-16.22-4.76-12.98,4.82-19.86,14.79-10.1,7.19-11.8,23.83-7.87,15.52,6.59,12.05-.18,16.55,14.02,3.28,16.44v11.17ZM423.37,694.2c-11.82,1.97-9.59,18.91,1.73,18.23,12.32-.74,12.21-20.55-1.73-18.23Z" fill="#fff"/>
  <path d="M423.54,753.21c3.22-11.36,15.34-22.91,27.99-20.41.15,13.53-16.35,20.26-27.99,20.41Z" fill="#fff"/>
  <path d="M418.28,751.89c-8.77.69-17.97-6.94-20.9-14.93-1.45-3.96-3.24-9.04,2.79-8.76,8.9.42,18.1,15.3,18.11,23.69Z" fill="#fff"/>
  <path d="M425.51,727.57c1.29,2.74-1.25,4.79-1.29,5.07-.84,5.14-.53,11.11-2.22,16.1-.39,1.14.01,2.21-1.74,1.83l2.01-22.96,3.25-.05Z" fill="#fff"/>
  <path d="M492.18,531.46c.14.35,2.01,1.23,1.06,3.53,2.82.29,3.58-2.24,6.2-2.66,9.18-1.48,12.76,5.77,10.23,13.83,2.72.83,7.97-.11,8.95,3.27.79,1.97-1.05,3.3-2.66,4.01-21.52-.78-45.3,3.37-66.48,1.96-2.04-.14-8.29-.51-9.07-2.16-3.15-6.7,8.91-8.63,13.37-7.74-.6-3.83-1.38-7.53,1.3-10.86,3.32-4.12,7.71-1.02,10.27-2.88,1.06-.77,1.58-4.35,2.6-5.94,3.46-5.4,12.86-7.59,18.51-4.77,3.94,1.97,4.32,6.89,5.71,10.41Z" fill="#fff"/>
  <path d="M524.79,715.09c3.68.45,4.68-3.67,8.37-4.45,10.84-2.27,10.98,6.36,9,14.33,18.78.72,4.82,8.97-4.21,10.84-10.6,2.19-44.97,2.18-53.59-4.29-10.32-7.74,1.66-17.47,10.48-15.73,2.03.4,3.78,2.98,6.28,2.59-3.42-18.81,24.53-23.74,23.68-3.28Z" fill="#fff"/>
  <path d="M391.33,649.35c14.51.48,16.35,10.66.24,12.41-10.52,1.14-48.01,1.99-57.15-.54-3.67-1.01-5.94-3.24-4.56-7.25,2.59-3.74,7.66-2.5,11.22-4.6-2.71-12.06,7.79-12.25,16.71-10.53.77-7.04,5.76-12.28,13.14-9.52,7.77,2.9,3.88,9.26,6.59,10.55,9.57-3.3,18.55-3.35,13.8,9.48Z" fill="#fff"/>
  <path d="M292.04,273.38c.37,4.61,4.87,8.89,8.25,11.81,11.85,10.25,27.64,13.78,42.45,17.52,4.26,12.86,1.9,32.57-11.46,39.15-11.37,5.6-10.05-.14-18.41-4.84-1.96-1.11-7.43-2.54-8.07-3.11-1.49-1.32-1.02-7.37-5.52-7.94-.47,2.62,1.9,3.78,2.01,6.26.45,9.94-24.71,10.09-22.25-2.49.25-1.27,3.24-4.66.83-4.44-3.47.62-2.78,5.99-4.26,7.57-1.07,1.14-7.08,2.26-9.14,3.35-5.61,2.98-5.4,7.6-13.91,5.88-15.59-3.14-20.22-26.28-15.4-39.13,13.92-4.69,29.66-6.92,41.39-16.46,5.2-4.23,7.51-11.26,13.49-13.13ZM268.38,300.33h-9.53c-3.27,0-10.64,3.38-10.2,7.55.6,1.89,5.81-4.92,8.22-4.92h11.51v-2.63ZM330.17,308.22c2.56-8.56-21.03-9.5-21.02-6.24,2.52,2.99,5.68.75,8.87.93,5.06.29,8.39,2.09,12.15,5.31ZM254.18,321.09c-.5-.56-.42-1.86-1.26-2.36l-1.67,1.64c2.27,10.56,19.47,10.06,19.1-1.65l-2.53.09c-1.88,8.74-8.39,8.07-13.64,2.27ZM326.27,320.07c-.55,4.77-8.67,7.77-11.88,4.27-1.01-1.1-1.59-4.7-3.01-4.91-3.97-.59-.25,6.59,2.13,7.77,5.23,2.6,14.33.4,15.34-6.17l-2.57-.95Z" fill="#fff"/>
  <path d="M401.19,189.25l7.56.66,4.94,14.46c1.69.31,1.02-.24,1.37-.92,1.32-2.55,3.31-12.51,4.8-13.6,2.29-.89,6.39-1.3,8.28.39v29.25h-6.57v-20.38c-2.79,3.59-2.97,10.78-5.06,14.31-3.95,6.65-7.55-12.56-9.4-13.65v18.73l-5.92.99v-30.24Z"/>
  <path d="M278.24,190.23l6.97-.39,9.47,19.12v-19.72h5.26v30.24c-2.05-.27-5.19.72-6.91-.65s-6.39-15.97-8.87-18.41v19.06h-5.92v-29.25Z"/>
  <path d="M488.63,219.48v-30.24h10.85c17.39,0,13.97,30.24,2.63,30.24h-13.48ZM495.2,213.57c13.55,2.6,13.42-20.97,0-18.4v18.4Z"/>
  <path d="M317.69,219.48v-30.24h10.85c16.79,0,14.42,30.24,1.97,30.24h-12.82ZM324.26,213.57c13.86,3.39,13.71-21.45,0-18.4v18.4Z"/>
  <path d="M461.67,189.25l6.48.09,8.64,18.97v-18.08c1.35-1.53,4.57-1.53,5.92,0v29.25l-7.14-.09-7.34-18.97c-.23-.19-1.31.86-1.31.99v18.08h-5.26v-30.24Z"/>
  <path d="M151.02,189.25c9.08,1.23,9.97,11.19,3.63,16.1,2.19.97,7.14,13.6,6.56,14.13l-6.47-.09c-2.32-3.98-3.42-12.3-9.3-11.08v11.17h-5.92v-29.25l.99-.99c3.32.32,7.31-.44,10.52,0ZM150.6,195.26l-5.16-.1v7.24c5.84.9,7.17-2.08,5.16-7.14Z"/>
  <path d="M536.41,216.64c-.62.7-3.25,2.39-4.19,2.71-21.92,7.53-24.72-34.92-.68-29.95,9.64,1.99,10.52,20.91,4.87,27.24ZM525.92,194.64c-5.98,1.35-7.32,21.33,3.09,19.54,6.19-1.07,6.02-14.53,2.32-18.66-1.5-1.2-3.63-1.28-5.41-.87Z"/>
  <path d="M269.49,217.31c-6.38,6.19-17.63,2.22-19.99-6.22-3.28-11.73,1.52-24.63,15.77-21.69,9.87,2.04,10.27,22.04,4.22,27.91ZM259.65,194.65c-5.46,1.62-7.38,21.11,3.09,19.55,7.36-1.1,6.6-22.43-3.09-19.55Z"/>
  <path d="M100.07,219.48l-5.82-.1-1.82-5.2-10.19.42-1.33,4.79-6.48.08c1.9-3.47,7.75-29,9.18-29.92,1.1-.71,7.42-.86,8.21,1.04l8.24,28.89ZM90.86,208.3l-3.27-11.16-3.3,11.16h6.57Z"/>
  <path d="M439.98,189.25v18.08c0,.25.87,4.61,1,4.92,1.7,3.96,7.55,1.7,7.55-2.29v-20.7l6.48,1.08c-1.04,10.45,3.78,34.07-14.25,29.36-10.24-2.67-5.78-21.5-6.6-29.36l5.82-1.08Z"/>
  <path d="M201.25,189.32l8.62,30.16-5.82-.09-1.49-5.08-10.44-.07c.23,6.63-1.61,5.32-7.24,5.25l9.12-29.84,7.24-.32ZM198.03,197.79c-1.8-.28-1,.24-1.32.97-1.13,2.58-1.45,6.76-2.61,9.55h6.57s-2.63-10.51-2.63-10.51Z"/>
  <polygon points="362.4 189.25 362.4 195.16 351.22 195.16 351.22 201.08 361.74 201.08 361.74 206.99 351.22 206.99 351.22 213.57 363.05 213.57 363.05 219.48 345.3 219.48 345.3 190.23 346.29 189.25 362.4 189.25"/>
  <path d="M181.6,195.16h-9.53l-.37,5.63,9.25.28c1.46,8.53-4.09,5.44-9.87,5.92l.99,6.58h9.53c.41,1.91,1.58,4.36-.33,5.92h-16.11v-30.24h15.45l.99,5.92Z"/>
  <path d="M232.87,196.47c-19.88-11.21-20.03,27.04,0,15.78,1.75,7.79-4.38,8.71-10.67,7.71-14.58-2.32-15.53-33.32,5.74-30.72,5.14.63,5.3,2.36,4.93,7.22Z"/>
  <path d="M134.14,190.68l.12,5.79c-18.83-10.88-18.8,27.16,0,15.78.37,4.95.5,7.12-4.98,7.82-23.34,2.98-19.65-40.95,4.87-29.4Z"/>
  <polygon points="374.23 213.57 384.42 213.57 385.41 219.48 368.31 219.48 368.31 189.25 374.23 190.23 374.23 213.57"/>
  <polygon points="62.6 189.25 62.6 213.57 72.79 213.57 73.77 219.48 57.34 219.48 57.34 189.25 62.6 189.25"/>
  <polygon points="237.48 219.48 237.48 189.25 243.44 189.53 243.96 218.4 237.48 219.48"/>
  <path d="M265.75,181.36c.8.64-4.64,6.61-6.57,5.25.74-3.65,2.49-6.07,6.57-5.25Z"/>
  <path d="M347.28,51.21h-7.89s3.3-15.11,3.3-15.11c1.46,1.26,5.17,14.56,4.6,15.11ZM344.64,48.58c.19-.16-.98-4.53-1.96-4.59-.66,1.72-1.03,7.09,1.96,4.59Z"/>
  <path d="M364.37,136.66v-10.19c13.24-5.2,14.77,13.59,0,10.19ZM367,134.04c7.44.83,7.9-6.5,0-5.26v5.26Z"/>
  <path d="M364.37,110.37c12.24-2.52,12.15,10.19.62,8.26l-.62-8.26ZM370.95,115.63l-.62-2.99-3.33-.29v3.29s3.95,0,3.95,0Z"/>
  <path d="M338.07,128.77h-7.89s3.3-15.12,3.3-15.12c1.69,1.36,5.16,14.56,4.6,15.12ZM336.1,126.14l-2.62-4.59-.67,4.6h3.29Z"/>
  <path d="M270.35,113.66l3.29,15.11h-8.55c2.05-4.07,2.2-10.18,3.93-14.14.32-.73-.48-1.26,1.32-.97ZM271.01,126.14l-1.96-4.59c-.63,2.97-2.1,5.34,1.96,4.59Z"/>
  <path d="M112.35,450.97c7.34-2.64,7.72,7.89,1.27,7.09-4.47-.55-3.53-6.28-1.27-7.09Z"/>
  <path d="M399.22,110.37c12.37-3.17,11.14,14.86,0,9.53v-9.53ZM401.18,118.26l4.68-.94.49-1.87c.03-1.81-3.89-4.02-4.86-2.49l-.31,5.29Z"/>
  <path d="M443.92,128.78h-9.2c1.86-5.06,2.33-11.37,5.25-15.77l3.95,15.77ZM440.63,126.14c.31-.27-.59-4.45-1.96-4.6l-.66,4.6c.65-.1,2.42.18,2.62,0Z"/>
  <path d="M180.28,128.78l4.27-15.13c1.84,5.14,3.85,9.57,4.93,15.13h-9.2ZM186.2,126.14l-1.96-4.59c-.63,2.97-2.1,5.34,1.96,4.59Z"/>
  <path d="M89.59,327.96l2.3.61c.36,8.26-13.93,9.48-18.12,4.3-1.32-1.64-2.5-4.96.33-5.59,1.84,7.73,13.52,8.54,15.5.68Z"/>
  <path d="M107.3,317.42c-3.69.45-2.88-5.33-6.9-5.32-3.13,0-3.59,3.76-5.58,5.32-1.23-10.21,13.69-10.61,12.48,0Z"/>
  <path d="M68.35,311.02c.6.51,3.25,5.67,1.14,6.39-1.55.69-1.44-5-5.3-5.23-4.09-.25-3.03,3.88-6.19,4.58-1.14-5.64,6.74-8.79,10.35-5.74Z"/>
  <path d="M411.71,34.45c2.47-2.19,7.22-.73,9.54.98,9.91,7.32,4.37,25.23-8.76,23.56-.12-.46-.77-1.27-.77-1.53v-23.01ZM413.68,55.82c13.35,3.24,12.53-23.79,0-18.73v18.73Z"/>
  <path d="M455.6,32.28c13.17-1.31,11.14,25.85,3.75,27.46-15.06,3.27-14.17-26.42-3.75-27.46ZM460.17,56.28c4.01-3.03,4.01-19.06-1.14-21.14-10.9-4.42-10.33,19.47-5.23,21.65,1.66.71,4.91.6,6.37-.51Z"/>
  <path d="M272.33,43.33v-9.53c6.53-3.54,11.14,3.77,6.58,9.21l-6.58.32ZM278.14,40.59l-.19-4.53-3.04-.34-.31,5.01,3.54-.14Z"/>
  <path d="M239.3,32.28c11.77-1.13,10.8,25.72,3.09,27.46-13.9,3.13-13.86-26.42-3.09-27.46ZM238.62,34.91c-6.86,1.58-6.79,26.99,3.83,21.59,5.17-2.63,5.56-23.75-3.83-21.59Z"/>
  <path d="M231.56,122.2v-11.83c13.37-2.92,13.36,14.48,0,11.83ZM233.53,119.58c7.43,1.64,7.18-9.03.3-6.61l-.3,6.61Z"/>
  <path d="M176.14,58.9c-1.78,1.2-5.6,1.21-7.54.43-6.24-2.54-7.13-25.92,2.32-27.05,11.77-1.41,10.94,22.76,5.22,26.62ZM170.24,34.91c-5.88,1.72-6.68,24.31,3.11,22.21,7.01-1.39,6.87-25.12-3.11-22.21Z"/>
  <path d="M134.68,628.42c4.85-1.91,7.2,3.9,4.88,5.53-4.81,3.39-8.46-4.12-4.88-5.53Z"/>
  <path d="M423.37,694.2c13.94-2.32,14.05,17.49,1.73,18.23-11.33.68-13.55-16.26-1.73-18.23ZM429.92,707.65c6.88-5.97-5.22-14.94-10.63-8.32-5.89,7.21,5.02,13.2,10.63,8.32Z"/>
  <path d="M254.18,321.09c5.25,5.8,11.75,6.47,13.64-2.27l2.53-.09c.38,11.71-16.82,12.21-19.1,1.65l1.67-1.64c.84.49.76,1.8,1.26,2.36Z"/>
  <path d="M326.27,320.07l2.57.95c-1.01,6.57-10.1,8.77-15.34,6.17-2.38-1.18-6.1-8.35-2.13-7.77,1.43.21,2,3.82,3.01,4.91,3.22,3.5,11.33.5,11.88-4.27Z"/>
  <path d="M330.17,308.22c-3.76-3.22-7.09-5.02-12.15-5.31-3.19-.19-6.34,2.05-8.87-.93-.01-3.26,23.57-2.32,21.02,6.24Z"/>
  <path d="M268.38,300.33v2.63h-11.51c-2.41,0-7.62,6.82-8.22,4.92-.45-4.17,6.92-7.55,10.2-7.55h9.53Z"/>
  <path d="M495.2,213.57v-18.4c13.42-2.57,13.55,21.01,0,18.4Z" fill="#fff"/>
  <path d="M324.26,213.57v-18.4c13.71-3.05,13.86,21.8,0,18.4Z" fill="#fff"/>
  <path d="M150.6,195.26c2.01,5.05.68,8.03-5.16,7.14v-7.24s5.16.1,5.16.1Z" fill="#fff"/>
  <path d="M525.92,194.64c1.78-.4,3.91-.32,5.41.87,3.7,4.13,3.87,17.6-2.32,18.66-10.41,1.79-9.07-18.18-3.09-19.54Z" fill="#fff"/>
  <path d="M259.65,194.65c9.68-2.88,10.45,18.44,3.09,19.55-10.47,1.57-8.54-17.92-3.09-19.55Z" fill="#fff"/>
  <polygon points="90.86 208.3 84.29 208.31 87.59 197.14 90.86 208.3" fill="#fff"/>
  <path d="M198.03,197.79l2.63,10.51h-6.57c1.16-2.78,1.48-6.97,2.61-9.55.32-.73-.48-1.25,1.32-.97Z" fill="#fff"/>
  <path d="M344.64,48.58c-2.99,2.5-2.62-2.87-1.96-4.59.98.06,2.15,4.43,1.96,4.59Z" fill="#fff"/>
  <path d="M367,134.04v-5.26c7.9-1.24,7.44,6.09,0,5.26Z" fill="#fff"/>
  <polygon points="370.95 115.63 367 115.63 367 112.34 370.33 112.63 370.95 115.63" fill="#fff"/>
  <polygon points="336.1 126.14 332.81 126.15 333.48 121.55 336.1 126.14" fill="#fff"/>
  <path d="M271.01,126.14c-4.06.74-2.59-1.62-1.96-4.59l1.96,4.59Z" fill="#fff"/>
  <path d="M401.18,118.26l.31-5.29c.97-1.53,4.89.67,4.86,2.49l-.49,1.87-4.68.94Z" fill="#fff"/>
  <path d="M440.63,126.14c-.2.18-1.98-.1-2.62,0l.66-4.6c1.38.14,2.27,4.33,1.96,4.6Z" fill="#fff"/>
  <path d="M186.2,126.14c-4.06.75-2.6-1.62-1.96-4.59l1.96,4.59Z" fill="#fff"/>
  <path d="M413.68,55.82v-18.73c12.53-5.06,13.35,21.98,0,18.73Z" fill="#fff"/>
  <path d="M460.17,56.28c-1.47,1.11-4.71,1.22-6.37.51-5.1-2.18-5.67-26.07,5.23-21.65,5.15,2.09,5.15,18.12,1.14,21.14Z" fill="#fff"/>
  <polygon points="278.14 40.59 274.6 40.73 274.91 35.72 277.95 36.06 278.14 40.59" fill="#fff"/>
  <path d="M238.62,34.91c9.39-2.16,9.01,18.96,3.83,21.59-10.62,5.4-10.69-20.01-3.83-21.59Z" fill="#fff"/>
  <path d="M233.53,119.58l.3-6.61c6.88-2.42,7.13,8.24-.3,6.61Z" fill="#fff"/>
  <path d="M170.24,34.91c9.97-2.92,10.12,20.81,3.11,22.21-9.78,2.11-8.98-20.49-3.11-22.21Z" fill="#fff"/>
  <path d="M429.92,707.65c-5.61,4.87-16.52-1.11-10.63-8.32,5.41-6.62,17.51,2.35,10.63,8.32Z" fill="#fff"/>
</svg>